<svg xmlns="http://www.w3.org/2000/svg" viewBox="0 0 760 566" width="760" height="566" role="img" aria-label="外国人延べ宿泊者数 上位5・下位5（2024年度）">
  <title>外国人延べ宿泊者数 上位5・下位5都道府県（2024年度）</title>
  <text x="96" y="28" font-size="17" font-weight="700" fill="#64748b">外国人延べ宿泊者数 上位5・下位5（2024年度・万人泊）</text>
  <text x="88" y="75" text-anchor="end" dominant-baseline="central" font-size="14" fill="#64748b">1位 東京都</text>
  <rect x="96" y="56" width="514.0" height="38" rx="3" fill="#2563eb"><title>東京都 4,743.3万人泊 (1位)</title></rect>
  <text x="618" y="75" dominant-baseline="central" font-size="14" font-weight="600" fill="#64748b">4,743.3万人泊</text>
  <text x="88" y="123" text-anchor="end" dominant-baseline="central" font-size="14" fill="#64748b">2位 大阪府</text>
  <rect x="96" y="104" width="245.6" height="38" rx="3" fill="#2563eb"><title>大阪府 2,266.4万人泊 (2位)</title></rect>
  <text x="349.6014059493109" y="123" dominant-baseline="central" font-size="14" font-weight="600" fill="#64748b">2,266.4万人泊</text>
  <text x="88" y="171" text-anchor="end" dominant-baseline="central" font-size="14" fill="#64748b">3位 京都府</text>
  <rect x="96" y="152" width="152.8" height="38" rx="3" fill="#2563eb"><title>京都府 1,409.7万人泊 (3位)</title></rect>
  <text x="256.76129431329264" y="171" dominant-baseline="central" font-size="14" font-weight="600" fill="#64748b">1,409.7万人泊</text>
  <text x="88" y="219" text-anchor="end" dominant-baseline="central" font-size="14" fill="#64748b">4位 北海道</text>
  <rect x="96" y="200" width="100.6" height="38" rx="3" fill="#2563eb"><title>北海道 928.7万人泊 (4位)</title></rect>
  <text x="204.6371192712541" y="219" dominant-baseline="central" font-size="14" font-weight="600" fill="#64748b">928.7万人泊</text>
  <text x="88" y="267" text-anchor="end" dominant-baseline="central" font-size="14" fill="#64748b">5位 福岡県</text>
  <rect x="96" y="248" width="74.2" height="38" rx="3" fill="#2563eb"><title>福岡県 684.9万人泊 (5位)</title></rect>
  <text x="178.21916432369892" y="267" dominant-baseline="central" font-size="14" font-weight="600" fill="#64748b">684.9万人泊</text>
  <text x="88" y="315" text-anchor="end" dominant-baseline="central" font-size="14" fill="#64748b">43位 秋田県</text>
  <rect x="96" y="296" width="2.0" height="38" rx="3" fill="#ea580c"><title>秋田県 10.8万人泊 (43位)</title></rect>
  <text x="106" y="315" dominant-baseline="central" font-size="14" font-weight="600" fill="#64748b">10.8万人泊</text>
  <text x="88" y="363" text-anchor="end" dominant-baseline="central" font-size="14" fill="#64748b">44位 高知県</text>
  <rect x="96" y="344" width="2.0" height="38" rx="3" fill="#ea580c"><title>高知県 10.7万人泊 (44位)</title></rect>
  <text x="106" y="363" dominant-baseline="central" font-size="14" font-weight="600" fill="#64748b">10.7万人泊</text>
  <text x="88" y="411" text-anchor="end" dominant-baseline="central" font-size="14" fill="#64748b">45位 鳥取県</text>
  <rect x="96" y="392" width="2.0" height="38" rx="3" fill="#ea580c"><title>鳥取県 9.8万人泊 (45位)</title></rect>
  <text x="106" y="411" dominant-baseline="central" font-size="14" font-weight="600" fill="#64748b">9.8万人泊</text>
  <text x="88" y="459" text-anchor="end" dominant-baseline="central" font-size="14" fill="#64748b">46位 福井県</text>
  <rect x="96" y="440" width="2.0" height="38" rx="3" fill="#ea580c"><title>福井県 7.3万人泊 (46位)</title></rect>
  <text x="106" y="459" dominant-baseline="central" font-size="14" font-weight="600" fill="#64748b">7.3万人泊</text>
  <text x="88" y="507" text-anchor="end" dominant-baseline="central" font-size="14" fill="#64748b">47位 島根県</text>
  <rect x="96" y="488" width="2.0" height="38" rx="3" fill="#ea580c"><title>島根県 6.8万人泊 (47位)</title></rect>
  <text x="106" y="507" dominant-baseline="central" font-size="14" font-weight="600" fill="#64748b">6.8万人泊</text>
  <text x="96" y="554" font-size="11" fill="#94a3b8">上位=青 / 下位=橙　出典: 観光庁「宿泊旅行統計調査」</text>
</svg>
