<!-- data-source: average-temperature-prefecture-rankings.json | generated: 2026-06-02T21:27:55.049Z -->
<svg xmlns="http://www.w3.org/2000/svg" viewBox="0 0 680 300" width="680" height="300" font-family="'Hiragino Sans','Noto Sans JP',sans-serif" role="img" aria-label="年平均気温 都道府県ランキング（2024年）">
  <style>
    .svg-bg{fill:#fafafa}
    .svg-title{fill:#222}
    .svg-subtitle{fill:#666}
    .svg-label{fill:#333}
    .svg-legend{fill:#888}
    @media (prefers-color-scheme:dark){
      .svg-bg{fill:#1f2937}
      .svg-title{fill:#f9fafb}
      .svg-subtitle{fill:#9ca3af}
      .svg-label{fill:#e5e7eb}
      .svg-legend{fill:#9ca3af}
    }
  </style>
  <rect width="680" height="300" class="svg-bg" rx="8"/>
  <text x="340" y="24" text-anchor="middle" font-size="16" font-weight="bold" class="svg-title">年平均気温 都道府県ランキング（2024年）</text>
  
  <text x="227.5" y="54" text-anchor="middle" font-size="12" font-weight="bold" fill="#1565c0">上位 5</text>
  <text x="542.5" y="54" text-anchor="middle" font-size="12" font-weight="bold" fill="#c62828">下位 5</text>
  
      <text x="84" y="82" text-anchor="end" font-size="11" class="svg-label">沖縄県</text>
      <rect x="90" y="63" width="195" height="30" fill="#1565c0" rx="2"/>
      <text x="289" y="82" font-size="10" class="svg-label">24.4℃</text>
    
      <text x="84" y="118" text-anchor="end" font-size="11" class="svg-label">鹿児島県</text>
      <rect x="90" y="99" width="163.0327868852459" height="30" fill="#1976d2" rx="2"/>
      <text x="257.0327868852459" y="118" font-size="10" class="svg-label">20.4℃</text>
    
      <text x="84" y="154" text-anchor="end" font-size="11" class="svg-label">宮崎県</text>
      <rect x="90" y="135" width="154.24180327868854" height="30" fill="#1e88e5" rx="2"/>
      <text x="248.24180327868854" y="154" font-size="10" class="svg-label">19.3℃</text>
    
      <text x="84" y="190" text-anchor="end" font-size="11" class="svg-label">福岡県</text>
      <rect x="90" y="171" width="151.844262295082" height="30" fill="#2196f3" rx="2"/>
      <text x="245.844262295082" y="190" font-size="10" class="svg-label">19℃</text>
    
      <text x="84" y="226" text-anchor="end" font-size="11" class="svg-label">長崎県</text>
      <rect x="90" y="207" width="151.04508196721312" height="30" fill="#42a5f5" rx="2"/>
      <text x="245.04508196721312" y="226" font-size="10" class="svg-label">18.9℃</text>
    
  
      <text x="399" y="82" text-anchor="end" font-size="11" class="svg-label">北海道</text>
      <rect x="405" y="63" width="83.91393442622952" height="30" fill="#c62828" rx="2"/>
      <text x="492.9139344262295" y="82" font-size="10" class="svg-label">10.5℃</text>
    
      <text x="399" y="118" text-anchor="end" font-size="11" class="svg-label">青森県</text>
      <rect x="405" y="99" width="98.29918032786887" height="30" fill="#d32f2f" rx="2"/>
      <text x="507.29918032786884" y="118" font-size="10" class="svg-label">12.3℃</text>
    
      <text x="399" y="154" text-anchor="end" font-size="11" class="svg-label">岩手県</text>
      <rect x="405" y="135" width="100.69672131147541" height="30" fill="#e53935" rx="2"/>
      <text x="509.6967213114754" y="154" font-size="10" class="svg-label">12.6℃</text>
    
      <text x="399" y="190" text-anchor="end" font-size="11" class="svg-label">秋田県</text>
      <rect x="405" y="171" width="107.88934426229508" height="30" fill="#ef5350" rx="2"/>
      <text x="516.889344262295" y="190" font-size="10" class="svg-label">13.5℃</text>
    
      <text x="399" y="226" text-anchor="end" font-size="11" class="svg-label">長野県</text>
      <rect x="405" y="207" width="110.28688524590166" height="30" fill="#e57373" rx="2"/>
      <text x="519.2868852459017" y="226" font-size="10" class="svg-label">13.8℃</text>
    
  <text x="340" y="282" text-anchor="middle" font-size="10" class="svg-legend">凡例: 青系=上位 / 赤系=下位</text>
</svg>