<svg width="800" height="250" viewBox="0 0 800 250" xmlns="http://www.w3.org/2000/svg">
  <rect width="800" height="250" fill="#FAFAFA"/>

  <!-- Left Side: Icon -->
  <g transform="translate(-220, -25) scale(0.75)">
    <g fill="#18181B">
      <!-- Hokkaido & Tohoku -->
      <rect x="580" y="80" width="8" height="40" rx="4"/>
      <rect x="600" y="60" width="8" height="60" rx="4"/>
      <rect x="620" y="100" width="8" height="30" rx="4"/>
      
      <rect x="560" y="140" width="8" height="50" rx="4"/>
      <rect x="545" y="160" width="8" height="70" rx="4"/>
      
      <!-- Kanto / Chubu -->
      <rect x="520" y="210" width="8" height="80" rx="4"/>
      <rect x="500" y="230" width="8" height="60" rx="4"/>
      <rect x="480" y="240" width="8" height="50" rx="4"/>
      
      <!-- Highlight -->
      <rect x="460" y="220" width="8" height="70" rx="4" fill="#2563EB"/>
      <circle cx="464" cy="210" r="8" fill="#2563EB"/>
      
      <!-- Chugoku / Shikoku -->
      <rect x="440" y="250" width="8" height="60" rx="4"/>
      <rect x="420" y="270" width="8" height="40" rx="4"/>
      <rect x="400" y="280" width="8" height="30" rx="4"/>
      <rect x="380" y="290" width="8" height="25" rx="4"/>
      
      <!-- Kyushu -->
      <rect x="350" y="310" width="8" height="50" rx="4"/>
      <rect x="330" y="330" width="8" height="30" rx="4"/>
    </g>
  </g>
  
  <!-- Right Side: Text (Wordmark) -->
  <text x="320" y="142" font-family="'Georgia', serif" font-weight="bold" font-size="52" fill="#18181B" letter-spacing="2" text-anchor="start">
    stats47<tspan fill="#2563EB">.jp</tspan>
  </text>
</svg>
