<svg xmlns="http://www.w3.org/2000/svg" viewBox="0 0 600 560">
<style>
  text { font-family: 'Hiragino Sans', 'Noto Sans JP', sans-serif; }
</style>
<rect width="600" height="560" fill="#fafafa"/>

<!-- Title -->
<text x="300" y="28" text-anchor="middle" font-size="15" font-weight="bold" fill="#1e293b">品目別 Q5/Q1 支出倍率</text>
<text x="300" y="48" text-anchor="middle" font-size="11" fill="#64748b">年収最上位20% ÷ 最下位20% の消費支出倍率 ── 2024年</text>

<!-- Plot background -->
<rect x="130" y="70" width="400" height="435" fill="white" stroke="#e2e8f0"/>

<!-- Grid lines -->
<line x1="130" y1="70" x2="130" y2="505" stroke="#f1f5f9" stroke-width="1"/>
<line x1="196.66666666666666" y1="70" x2="196.66666666666666" y2="505" stroke="#f1f5f9" stroke-width="1"/>
<text x="196.66666666666666" y="521" text-anchor="middle" font-size="9.5" fill="#64748b">10倍</text>
<line x1="263.3333333333333" y1="70" x2="263.3333333333333" y2="505" stroke="#f1f5f9" stroke-width="1"/>
<text x="263.3333333333333" y="521" text-anchor="middle" font-size="9.5" fill="#64748b">20倍</text>
<line x1="330" y1="70" x2="330" y2="505" stroke="#f1f5f9" stroke-width="1"/>
<text x="330" y="521" text-anchor="middle" font-size="9.5" fill="#64748b">30倍</text>
<line x1="396.66666666666663" y1="70" x2="396.66666666666663" y2="505" stroke="#f1f5f9" stroke-width="1"/>
<text x="396.66666666666663" y="521" text-anchor="middle" font-size="9.5" fill="#64748b">40倍</text>
<line x1="463.33333333333337" y1="70" x2="463.33333333333337" y2="505" stroke="#f1f5f9" stroke-width="1"/>
<text x="463.33333333333337" y="521" text-anchor="middle" font-size="9.5" fill="#64748b">50倍</text>
<line x1="530" y1="70" x2="530" y2="505" stroke="#f1f5f9" stroke-width="1"/>
<text x="530" y="521" text-anchor="middle" font-size="9.5" fill="#64748b">60倍</text>
<line x1="136.66666666666666" y1="70" x2="136.66666666666666" y2="505" stroke="#94a3b8" stroke-width="1" stroke-dasharray="4,3"/>
<text x="136.66666666666666" y="521" text-anchor="middle" font-size="9.5" fill="#94a3b8" font-weight="bold">1倍</text>
<text x="122" y="99.5" text-anchor="end" font-size="11.5" fill="#1e293b" font-weight="normal">補習教育</text>
<rect x="130" y="78.5" width="374" height="34" fill="#dc2626" rx="3" opacity="0.85"/>
<text x="512" y="100.5" text-anchor="start" font-size="13" font-weight="bold" fill="#dc2626">56.1倍</text>
<text x="122" y="147.5" text-anchor="end" font-size="11.5" fill="#1e293b" font-weight="normal">仕送り金</text>
<rect x="130" y="126.5" width="150.66666666666669" height="34" fill="#dc2626" rx="3" opacity="0.85"/>
<text x="288.6666666666667" y="148.5" text-anchor="start" font-size="13" font-weight="bold" fill="#dc2626">22.6倍</text>
<text x="122" y="195.5" text-anchor="end" font-size="11.5" fill="#1e293b" font-weight="normal">教育費全体</text>
<rect x="130" y="174.5" width="112" height="34" fill="#dc2626" rx="3" opacity="0.85"/>
<text x="250" y="196.5" text-anchor="start" font-size="13" font-weight="bold" fill="#dc2626">16.8倍</text>
<text x="122" y="243.5" text-anchor="end" font-size="11.5" fill="#1e293b" font-weight="normal">外食</text>
<rect x="130" y="222.5" width="33.333333333333314" height="34" fill="#f97316" rx="3" opacity="0.85"/>
<text x="171.33333333333331" y="244.5" text-anchor="start" font-size="13" font-weight="bold" fill="#f97316">5倍</text>
<text x="122" y="291.5" text-anchor="end" font-size="11.5" fill="#1e293b" font-weight="bold">消費支出全体</text>
<rect x="130" y="270.5" width="17.73333333333335" height="34" fill="#64748b" rx="3" opacity="0.5"/>
<text x="155.73333333333335" y="292.5" text-anchor="start" font-size="13" font-weight="bold" fill="#64748b">2.66倍</text>
<text x="122" y="339.5" text-anchor="end" font-size="11.5" fill="#1e293b" font-weight="normal">酒類</text>
<rect x="130" y="318.5" width="9.199999999999989" height="34" fill="#3b82f6" rx="3" opacity="0.85"/>
<text x="147.2" y="340.5" text-anchor="start" font-size="13" font-weight="bold" fill="#3b82f6">1.38倍</text>
<text x="122" y="387.5" text-anchor="end" font-size="11.5" fill="#1e293b" font-weight="normal">保健医療</text>
<rect x="130" y="366.5" width="9.199999999999989" height="34" fill="#3b82f6" rx="3" opacity="0.85"/>
<text x="147.2" y="388.5" text-anchor="start" font-size="13" font-weight="bold" fill="#3b82f6">1.38倍</text>
<text x="122" y="435.5" text-anchor="end" font-size="11.5" fill="#1e293b" font-weight="normal">光熱・水道</text>
<rect x="130" y="414.5" width="7.73333333333332" height="34" fill="#3b82f6" rx="3" opacity="0.85"/>
<text x="145.73333333333332" y="436.5" text-anchor="start" font-size="13" font-weight="bold" fill="#3b82f6">1.16倍</text>
<text x="122" y="483.5" text-anchor="end" font-size="11.5" fill="#1e293b" font-weight="normal">魚肉練製品</text>
<rect x="130" y="462.5" width="5.066666666666663" height="34" fill="#22c55e" rx="3" opacity="0.85"/>
<text x="143.06666666666666" y="484.5" text-anchor="start" font-size="13" font-weight="bold" fill="#22c55e">0.76倍</text>
<line x1="130" y1="263.5" x2="530" y2="263.5" stroke="#e2e8f0" stroke-width="1" stroke-dasharray="3,3"/>
<line x1="130" y1="311.5" x2="530" y2="311.5" stroke="#e2e8f0" stroke-width="1" stroke-dasharray="3,3"/>
<rect x="382" y="409" width="156" height="80" fill="white" opacity="0.9" stroke="#e2e8f0" rx="4"/>
<circle cx="394" cy="421" r="4" fill="#dc2626"/>
<text x="404" y="425" font-size="10" fill="#475569">教育・裁量</text>
<circle cx="394" cy="439" r="4" fill="#f97316"/>
<text x="404" y="443" font-size="10" fill="#475569">食費</text>
<circle cx="394" cy="457" r="4" fill="#3b82f6"/>
<text x="404" y="461" font-size="10" fill="#475569">生活必需品</text>
<circle cx="394" cy="475" r="4" fill="#22c55e"/>
<text x="404" y="479" font-size="10" fill="#475569">逆転（Q1>Q5）</text>
<text x="300" y="550" text-anchor="middle" font-size="10" fill="#94a3b8">家計調査（2024年）二人以上の世帯・月額 ── stats47.jp</text>
</svg>