<svg width="960" height="624" viewBox="0 0 960 624" xmlns="http://www.w3.org/2000/svg" role="img" aria-label="県内総生産（GDP）ランキング 上位10・下位10">
  <title>県内総生産（GDP）ランキング 上位10・下位10</title>
  <rect width="960" height="624" fill="#f9fafb"/>
  <text x="480" y="38" text-anchor="middle" font-family="'Noto Sans JP',sans-serif" font-size="20" font-weight="bold" fill="#1f2937">県内総生産（GDP）ランキング 上位10・下位10（2021年度）</text>
  <rect x="30" y="80" width="432" height="40" rx="8" fill="#1b5e20"/>  <text x="246" y="106" text-anchor="middle" font-family="'Noto Sans JP',sans-serif" font-size="15" font-weight="bold" fill="#ffffff">GDPが大きい都道府県</text>
  <rect x="30" y="120" width="432" height="44" rx="6" fill="#e8f5e9"/>
  <circle cx="60" cy="142" r="14" fill="#1b5e20"/>  <text x="60" y="146.32" text-anchor="middle" font-family="'Noto Sans JP',sans-serif" font-size="12" font-weight="bold" fill="#ffffff">1</text>
  <text x="84" y="146.68" font-family="'Noto Sans JP',sans-serif" font-size="13" font-weight="bold" fill="#1f2937">東京都</text>
  <text x="230" y="146.32" text-anchor="end" font-family="'Noto Sans JP',sans-serif" font-size="12" fill="#1b5e20" font-weight="600">113.7兆円</text>
  <rect x="242" y="135" width="195" height="14" rx="4" fill="#4caf50" opacity="0.8"/>
  <rect x="30" y="164" width="432" height="44" rx="6" fill="#ffffff"/>
  <circle cx="60" cy="186" r="14" fill="#1b5e20"/>  <text x="60" y="190.32" text-anchor="middle" font-family="'Noto Sans JP',sans-serif" font-size="12" font-weight="bold" fill="#ffffff">2</text>
  <text x="84" y="190.68" font-family="'Noto Sans JP',sans-serif" font-size="13" font-weight="bold" fill="#1f2937">大阪府</text>
  <text x="230" y="190.32" text-anchor="end" font-family="'Noto Sans JP',sans-serif" font-size="12" fill="#1b5e20" font-weight="600">41.3兆円</text>
  <rect x="242" y="179" width="117.56103154026363" height="14" rx="4" fill="#4caf50" opacity="0.8"/>
  <rect x="30" y="208" width="432" height="44" rx="6" fill="#e8f5e9"/>
  <circle cx="60" cy="230" r="14" fill="#1b5e20"/>  <text x="60" y="234.32" text-anchor="middle" font-family="'Noto Sans JP',sans-serif" font-size="12" font-weight="bold" fill="#ffffff">3</text>
  <text x="84" y="234.68" font-family="'Noto Sans JP',sans-serif" font-size="13" font-weight="bold" fill="#1f2937">愛知県</text>
  <text x="230" y="234.32" text-anchor="end" font-family="'Noto Sans JP',sans-serif" font-size="12" fill="#1b5e20" font-weight="600">40.6兆円</text>
  <rect x="242" y="223" width="116.5116403527278" height="14" rx="4" fill="#4caf50" opacity="0.8"/>
  <rect x="30" y="252" width="432" height="44" rx="6" fill="#ffffff"/>
  <circle cx="60" cy="274" r="14" fill="#1b5e20"/>  <text x="60" y="278.32" text-anchor="middle" font-family="'Noto Sans JP',sans-serif" font-size="12" font-weight="bold" fill="#ffffff">4</text>
  <text x="84" y="278.68" font-family="'Noto Sans JP',sans-serif" font-size="13" font-weight="bold" fill="#1f2937">神奈川県</text>
  <text x="230" y="278.32" text-anchor="end" font-family="'Noto Sans JP',sans-serif" font-size="12" fill="#1b5e20" font-weight="600">35.3兆円</text>
  <rect x="242" y="267" width="108.64087957215226" height="14" rx="4" fill="#4caf50" opacity="0.8"/>
  <rect x="30" y="296" width="432" height="44" rx="6" fill="#e8f5e9"/>
  <circle cx="60" cy="318" r="14" fill="#1b5e20"/>  <text x="60" y="322.32" text-anchor="middle" font-family="'Noto Sans JP',sans-serif" font-size="12" font-weight="bold" fill="#ffffff">5</text>
  <text x="84" y="322.68" font-family="'Noto Sans JP',sans-serif" font-size="13" font-weight="bold" fill="#1f2937">埼玉県</text>
  <text x="230" y="322.32" text-anchor="end" font-family="'Noto Sans JP',sans-serif" font-size="12" fill="#1b5e20" font-weight="600">23.7兆円</text>
  <rect x="242" y="311" width="89.09704794880605" height="14" rx="4" fill="#4caf50" opacity="0.8"/>
  <rect x="30" y="340" width="432" height="44" rx="6" fill="#ffffff"/>
  <circle cx="60" cy="362" r="14" fill="#1b5e20"/>  <text x="60" y="366.32" text-anchor="middle" font-family="'Noto Sans JP',sans-serif" font-size="12" font-weight="bold" fill="#ffffff">6</text>
  <text x="84" y="366.68" font-family="'Noto Sans JP',sans-serif" font-size="13" font-weight="bold" fill="#1f2937">兵庫県</text>
  <text x="230" y="366.32" text-anchor="end" font-family="'Noto Sans JP',sans-serif" font-size="12" fill="#1b5e20" font-weight="600">22.5兆円</text>
  <rect x="242" y="355" width="86.7627365963853" height="14" rx="4" fill="#4caf50" opacity="0.8"/>
  <rect x="30" y="384" width="432" height="44" rx="6" fill="#e8f5e9"/>
  <circle cx="60" cy="406" r="14" fill="#1b5e20"/>  <text x="60" y="410.32" text-anchor="middle" font-family="'Noto Sans JP',sans-serif" font-size="12" font-weight="bold" fill="#ffffff">7</text>
  <text x="84" y="410.68" font-family="'Noto Sans JP',sans-serif" font-size="13" font-weight="bold" fill="#1f2937">千葉県</text>
  <text x="230" y="410.32" text-anchor="end" font-family="'Noto Sans JP',sans-serif" font-size="12" fill="#1b5e20" font-weight="600">20.8兆円</text>
  <rect x="242" y="399" width="83.42302568449682" height="14" rx="4" fill="#4caf50" opacity="0.8"/>
  <rect x="30" y="428" width="432" height="44" rx="6" fill="#ffffff"/>
  <circle cx="60" cy="450" r="14" fill="#1b5e20"/>  <text x="60" y="454.32" text-anchor="middle" font-family="'Noto Sans JP',sans-serif" font-size="12" font-weight="bold" fill="#ffffff">8</text>
  <text x="84" y="454.68" font-family="'Noto Sans JP',sans-serif" font-size="13" font-weight="bold" fill="#1f2937">北海道</text>
  <text x="230" y="454.32" text-anchor="end" font-family="'Noto Sans JP',sans-serif" font-size="12" fill="#1b5e20" font-weight="600">20.5兆円</text>
  <rect x="242" y="443" width="82.88792239121375" height="14" rx="4" fill="#4caf50" opacity="0.8"/>
  <rect x="30" y="472" width="432" height="44" rx="6" fill="#e8f5e9"/>
  <circle cx="60" cy="494" r="14" fill="#1b5e20"/>  <text x="60" y="498.32" text-anchor="middle" font-family="'Noto Sans JP',sans-serif" font-size="12" font-weight="bold" fill="#ffffff">9</text>
  <text x="84" y="498.68" font-family="'Noto Sans JP',sans-serif" font-size="13" font-weight="bold" fill="#1f2937">福岡県</text>
  <text x="230" y="498.32" text-anchor="end" font-family="'Noto Sans JP',sans-serif" font-size="12" fill="#1b5e20" font-weight="600">19.5兆円</text>
  <rect x="242" y="487" width="80.67157239114557" height="14" rx="4" fill="#4caf50" opacity="0.8"/>
  <rect x="30" y="516" width="432" height="44" rx="6" fill="#ffffff"/>
  <circle cx="60" cy="538" r="14" fill="#1b5e20"/>  <text x="60" y="542.32" text-anchor="middle" font-family="'Noto Sans JP',sans-serif" font-size="12" font-weight="bold" fill="#ffffff">10</text>
  <text x="84" y="542.68" font-family="'Noto Sans JP',sans-serif" font-size="13" font-weight="bold" fill="#1f2937">静岡県</text>
  <text x="230" y="542.32" text-anchor="end" font-family="'Noto Sans JP',sans-serif" font-size="12" fill="#1b5e20" font-weight="600">17.5兆円</text>
  <rect x="242" y="531" width="76.57376068600522" height="14" rx="4" fill="#4caf50" opacity="0.8"/>
  <line x1="306.0991717775478" y1="120" x2="306.0991717775478" y2="560" stroke="#9ca3af" stroke-width="1.5" stroke-dasharray="4 3"/>
  <text x="306.0991717775478" y="574" text-anchor="middle" font-family="'Noto Sans JP',sans-serif" font-size="9" fill="#9ca3af">全国平均 12.3兆円</text>
  <rect x="498" y="80" width="432" height="40" rx="8" fill="#4a148c"/>  <text x="714" y="106" text-anchor="middle" font-family="'Noto Sans JP',sans-serif" font-size="15" font-weight="bold" fill="#ffffff">GDPが小さい都道府県</text>
  <rect x="498" y="120" width="432" height="44" rx="6" fill="#f3e5f5"/>
  <circle cx="528" cy="142" r="14" fill="#4a148c"/>  <text x="528" y="146.32" text-anchor="middle" font-family="'Noto Sans JP',sans-serif" font-size="12" font-weight="bold" fill="#ffffff">47</text>
  <text x="552" y="146.68" font-family="'Noto Sans JP',sans-serif" font-size="13" font-weight="bold" fill="#1f2937">鳥取県</text>
  <text x="698" y="146.32" text-anchor="end" font-family="'Noto Sans JP',sans-serif" font-size="12" fill="#4a148c" font-weight="600">1.9兆円</text>
  <rect x="710" y="135" width="25.38327386130297" height="14" rx="4" fill="#ab47bc" opacity="0.8"/>
  <rect x="498" y="164" width="432" height="44" rx="6" fill="#ffffff"/>
  <circle cx="528" cy="186" r="14" fill="#4a148c"/>  <text x="528" y="190.32" text-anchor="middle" font-family="'Noto Sans JP',sans-serif" font-size="12" font-weight="bold" fill="#ffffff">46</text>
  <text x="552" y="190.68" font-family="'Noto Sans JP',sans-serif" font-size="13" font-weight="bold" fill="#1f2937">高知県</text>
  <text x="698" y="190.32" text-anchor="end" font-family="'Noto Sans JP',sans-serif" font-size="12" fill="#4a148c" font-weight="600">2.4兆円</text>
  <rect x="710" y="179" width="28.193239312393953" height="14" rx="4" fill="#ab47bc" opacity="0.8"/>
  <rect x="498" y="208" width="432" height="44" rx="6" fill="#f3e5f5"/>
  <circle cx="528" cy="230" r="14" fill="#4a148c"/>  <text x="528" y="234.32" text-anchor="middle" font-family="'Noto Sans JP',sans-serif" font-size="12" font-weight="bold" fill="#ffffff">45</text>
  <text x="552" y="234.68" font-family="'Noto Sans JP',sans-serif" font-size="13" font-weight="bold" fill="#1f2937">島根県</text>
  <text x="698" y="234.32" text-anchor="end" font-family="'Noto Sans JP',sans-serif" font-size="12" fill="#4a148c" font-weight="600">2.7兆円</text>
  <rect x="710" y="223" width="29.887724704527283" height="14" rx="4" fill="#ab47bc" opacity="0.8"/>
  <rect x="498" y="252" width="432" height="44" rx="6" fill="#ffffff"/>
  <circle cx="528" cy="274" r="14" fill="#4a148c"/>  <text x="528" y="278.32" text-anchor="middle" font-family="'Noto Sans JP',sans-serif" font-size="12" font-weight="bold" fill="#ffffff">44</text>
  <text x="552" y="278.68" font-family="'Noto Sans JP',sans-serif" font-size="13" font-weight="bold" fill="#1f2937">佐賀県</text>
  <text x="698" y="278.32" text-anchor="end" font-family="'Noto Sans JP',sans-serif" font-size="12" fill="#4a148c" font-weight="600">3.2兆円</text>
  <rect x="710" y="267" width="32.60918891230411" height="14" rx="4" fill="#ab47bc" opacity="0.8"/>
  <rect x="498" y="296" width="432" height="44" rx="6" fill="#f3e5f5"/>
  <circle cx="528" cy="318" r="14" fill="#4a148c"/>  <text x="528" y="322.32" text-anchor="middle" font-family="'Noto Sans JP',sans-serif" font-size="12" font-weight="bold" fill="#ffffff">43</text>
  <text x="552" y="322.68" font-family="'Noto Sans JP',sans-serif" font-size="13" font-weight="bold" fill="#1f2937">徳島県</text>
  <text x="698" y="322.32" text-anchor="end" font-family="'Noto Sans JP',sans-serif" font-size="12" fill="#4a148c" font-weight="600">3.3兆円</text>
  <rect x="710" y="311" width="33.42462953882355" height="14" rx="4" fill="#ab47bc" opacity="0.8"/>
  <rect x="498" y="340" width="432" height="44" rx="6" fill="#ffffff"/>
  <circle cx="528" cy="362" r="14" fill="#4a148c"/>  <text x="528" y="366.32" text-anchor="middle" font-family="'Noto Sans JP',sans-serif" font-size="12" font-weight="bold" fill="#ffffff">42</text>
  <text x="552" y="366.68" font-family="'Noto Sans JP',sans-serif" font-size="13" font-weight="bold" fill="#1f2937">秋田県</text>
  <text x="698" y="366.32" text-anchor="end" font-family="'Noto Sans JP',sans-serif" font-size="12" fill="#4a148c" font-weight="600">3.5兆円</text>
  <rect x="710" y="355" width="34.43568703213469" height="14" rx="4" fill="#ab47bc" opacity="0.8"/>
  <rect x="498" y="384" width="432" height="44" rx="6" fill="#f3e5f5"/>
  <circle cx="528" cy="406" r="14" fill="#4a148c"/>  <text x="528" y="410.32" text-anchor="middle" font-family="'Noto Sans JP',sans-serif" font-size="12" font-weight="bold" fill="#ffffff">41</text>
  <text x="552" y="410.68" font-family="'Noto Sans JP',sans-serif" font-size="13" font-weight="bold" fill="#1f2937">福井県</text>
  <text x="698" y="410.32" text-anchor="end" font-family="'Noto Sans JP',sans-serif" font-size="12" fill="#4a148c" font-weight="600">3.7兆円</text>
  <rect x="710" y="399" width="35.09088553582879" height="14" rx="4" fill="#ab47bc" opacity="0.8"/>
  <rect x="498" y="428" width="432" height="44" rx="6" fill="#ffffff"/>
  <circle cx="528" cy="450" r="14" fill="#4a148c"/>  <text x="528" y="454.32" text-anchor="middle" font-family="'Noto Sans JP',sans-serif" font-size="12" font-weight="bold" fill="#ffffff">40</text>
  <text x="552" y="454.68" font-family="'Noto Sans JP',sans-serif" font-size="13" font-weight="bold" fill="#1f2937">山梨県</text>
  <text x="698" y="454.32" text-anchor="end" font-family="'Noto Sans JP',sans-serif" font-size="12" fill="#4a148c" font-weight="600">3.7兆円</text>
  <rect x="710" y="443" width="35.192460326904" height="14" rx="4" fill="#ab47bc" opacity="0.8"/>
  <rect x="498" y="472" width="432" height="44" rx="6" fill="#f3e5f5"/>
  <circle cx="528" cy="494" r="14" fill="#4a148c"/>  <text x="528" y="498.32" text-anchor="middle" font-family="'Noto Sans JP',sans-serif" font-size="12" font-weight="bold" fill="#ffffff">39</text>
  <text x="552" y="498.68" font-family="'Noto Sans JP',sans-serif" font-size="13" font-weight="bold" fill="#1f2937">宮崎県</text>
  <text x="698" y="498.32" text-anchor="end" font-family="'Noto Sans JP',sans-serif" font-size="12" fill="#4a148c" font-weight="600">3.7兆円</text>
  <rect x="710" y="487" width="35.209839111912366" height="14" rx="4" fill="#ab47bc" opacity="0.8"/>
  <rect x="498" y="516" width="432" height="44" rx="6" fill="#ffffff"/>
  <circle cx="528" cy="538" r="14" fill="#4a148c"/>  <text x="528" y="542.32" text-anchor="middle" font-family="'Noto Sans JP',sans-serif" font-size="12" font-weight="bold" fill="#ffffff">38</text>
  <text x="552" y="542.68" font-family="'Noto Sans JP',sans-serif" font-size="13" font-weight="bold" fill="#1f2937">和歌山県</text>
  <text x="698" y="542.32" text-anchor="end" font-family="'Noto Sans JP',sans-serif" font-size="12" fill="#4a148c" font-weight="600">3.8兆円</text>
  <rect x="710" y="531" width="35.48678934258337" height="14" rx="4" fill="#ab47bc" opacity="0.8"/>
  <line x1="774.0991717775478" y1="120" x2="774.0991717775478" y2="560" stroke="#9ca3af" stroke-width="1.5" stroke-dasharray="4 3"/>
  <text x="774.0991717775478" y="574" text-anchor="middle" font-family="'Noto Sans JP',sans-serif" font-size="9" fill="#9ca3af">全国平均 12.3兆円</text>
  <text x="480" y="609" text-anchor="middle" font-family="'Noto Sans JP',sans-serif" font-size="10" fill="#9ca3af">1位の東京（113.7兆円）と47位の鳥取（1.9兆円）で約60倍の格差</text>
</svg>