<svg width="960" height="624" viewBox="0 0 960 624" xmlns="http://www.w3.org/2000/svg" role="img" aria-label="1人あたり県民所得ランキング 上位10・下位10">
  <title>1人あたり県民所得ランキング 上位10・下位10</title>
  <rect width="960" height="624" fill="#f9fafb"/>
  <text x="480" y="38" text-anchor="middle" font-family="'Noto Sans JP',sans-serif" font-size="20" font-weight="bold" fill="#1f2937">1人あたり県民所得ランキング 上位10・下位10（2020年度）</text>
  <rect x="30" y="80" width="432" height="40" rx="8" fill="#e65100"/>  <text x="246" y="106" text-anchor="middle" font-family="'Noto Sans JP',sans-serif" font-size="15" font-weight="bold" fill="#ffffff">県民所得が高い都道府県</text>
  <rect x="30" y="120" width="432" height="44" rx="6" fill="#fff3e0"/>
  <circle cx="60" cy="142" r="14" fill="#e65100"/>  <text x="60" y="146.32" text-anchor="middle" font-family="'Noto Sans JP',sans-serif" font-size="12" font-weight="bold" fill="#ffffff">1</text>
  <text x="84" y="146.68" font-family="'Noto Sans JP',sans-serif" font-size="13" font-weight="bold" fill="#1f2937">東京都</text>
  <text x="230" y="146.32" text-anchor="end" font-family="'Noto Sans JP',sans-serif" font-size="12" fill="#e65100" font-weight="600">5,214千円</text>
  <rect x="242" y="135" width="195" height="14" rx="4" fill="#ff9800" opacity="0.8"/>
  <rect x="30" y="164" width="432" height="44" rx="6" fill="#ffffff"/>
  <circle cx="60" cy="186" r="14" fill="#e65100"/>  <text x="60" y="190.32" text-anchor="middle" font-family="'Noto Sans JP',sans-serif" font-size="12" font-weight="bold" fill="#ffffff">2</text>
  <text x="84" y="190.68" font-family="'Noto Sans JP',sans-serif" font-size="13" font-weight="bold" fill="#1f2937">愛知県</text>
  <text x="230" y="190.32" text-anchor="end" font-family="'Noto Sans JP',sans-serif" font-size="12" fill="#e65100" font-weight="600">3,428千円</text>
  <rect x="242" y="179" width="128.204833141542" height="14" rx="4" fill="#ff9800" opacity="0.8"/>
  <rect x="30" y="208" width="432" height="44" rx="6" fill="#fff3e0"/>
  <circle cx="60" cy="230" r="14" fill="#e65100"/>  <text x="60" y="234.32" text-anchor="middle" font-family="'Noto Sans JP',sans-serif" font-size="12" font-weight="bold" fill="#ffffff">3</text>
  <text x="84" y="234.68" font-family="'Noto Sans JP',sans-serif" font-size="13" font-weight="bold" fill="#1f2937">福井県</text>
  <text x="230" y="234.32" text-anchor="end" font-family="'Noto Sans JP',sans-serif" font-size="12" fill="#e65100" font-weight="600">3,182千円</text>
  <rect x="242" y="223" width="119.00460299194475" height="14" rx="4" fill="#ff9800" opacity="0.8"/>
  <rect x="30" y="252" width="432" height="44" rx="6" fill="#ffffff"/>
  <circle cx="60" cy="274" r="14" fill="#e65100"/>  <text x="60" y="278.32" text-anchor="middle" font-family="'Noto Sans JP',sans-serif" font-size="12" font-weight="bold" fill="#ffffff">4</text>
  <text x="84" y="278.68" font-family="'Noto Sans JP',sans-serif" font-size="13" font-weight="bold" fill="#1f2937">栃木県</text>
  <text x="230" y="278.32" text-anchor="end" font-family="'Noto Sans JP',sans-serif" font-size="12" fill="#e65100" font-weight="600">3,132千円</text>
  <rect x="242" y="267" width="117.13463751438435" height="14" rx="4" fill="#ff9800" opacity="0.8"/>
  <rect x="30" y="296" width="432" height="44" rx="6" fill="#fff3e0"/>
  <circle cx="60" cy="318" r="14" fill="#e65100"/>  <text x="60" y="322.32" text-anchor="middle" font-family="'Noto Sans JP',sans-serif" font-size="12" font-weight="bold" fill="#ffffff">5</text>
  <text x="84" y="322.68" font-family="'Noto Sans JP',sans-serif" font-size="13" font-weight="bold" fill="#1f2937">富山県</text>
  <text x="230" y="322.32" text-anchor="end" font-family="'Noto Sans JP',sans-serif" font-size="12" fill="#e65100" font-weight="600">3,120千円</text>
  <rect x="242" y="311" width="116.68584579976985" height="14" rx="4" fill="#ff9800" opacity="0.8"/>
  <rect x="30" y="340" width="432" height="44" rx="6" fill="#ffffff"/>
  <circle cx="60" cy="362" r="14" fill="#e65100"/>  <text x="60" y="366.32" text-anchor="middle" font-family="'Noto Sans JP',sans-serif" font-size="12" font-weight="bold" fill="#ffffff">6</text>
  <text x="84" y="366.68" font-family="'Noto Sans JP',sans-serif" font-size="13" font-weight="bold" fill="#1f2937">静岡県</text>
  <text x="230" y="366.32" text-anchor="end" font-family="'Noto Sans JP',sans-serif" font-size="12" fill="#e65100" font-weight="600">3,110千円</text>
  <rect x="242" y="355" width="116.31185270425776" height="14" rx="4" fill="#ff9800" opacity="0.8"/>
  <rect x="30" y="384" width="432" height="44" rx="6" fill="#fff3e0"/>
  <circle cx="60" cy="406" r="14" fill="#e65100"/>  <text x="60" y="410.32" text-anchor="middle" font-family="'Noto Sans JP',sans-serif" font-size="12" font-weight="bold" fill="#ffffff">7</text>
  <text x="84" y="410.68" font-family="'Noto Sans JP',sans-serif" font-size="13" font-weight="bold" fill="#1f2937">茨城県</text>
  <text x="230" y="410.32" text-anchor="end" font-family="'Noto Sans JP',sans-serif" font-size="12" fill="#e65100" font-weight="600">3,098千円</text>
  <rect x="242" y="399" width="115.86306098964326" height="14" rx="4" fill="#ff9800" opacity="0.8"/>
  <rect x="30" y="428" width="432" height="44" rx="6" fill="#ffffff"/>
  <circle cx="60" cy="450" r="14" fill="#e65100"/>  <text x="60" y="454.32" text-anchor="middle" font-family="'Noto Sans JP',sans-serif" font-size="12" font-weight="bold" fill="#ffffff">8</text>
  <text x="84" y="454.68" font-family="'Noto Sans JP',sans-serif" font-size="13" font-weight="bold" fill="#1f2937">滋賀県</text>
  <text x="230" y="454.32" text-anchor="end" font-family="'Noto Sans JP',sans-serif" font-size="12" fill="#e65100" font-weight="600">3,097千円</text>
  <rect x="242" y="443" width="115.82566168009207" height="14" rx="4" fill="#ff9800" opacity="0.8"/>
  <rect x="30" y="472" width="432" height="44" rx="6" fill="#fff3e0"/>
  <circle cx="60" cy="494" r="14" fill="#e65100"/>  <text x="60" y="498.32" text-anchor="middle" font-family="'Noto Sans JP',sans-serif" font-size="12" font-weight="bold" fill="#ffffff">9</text>
  <text x="84" y="498.68" font-family="'Noto Sans JP',sans-serif" font-size="13" font-weight="bold" fill="#1f2937">徳島県</text>
  <text x="230" y="498.32" text-anchor="end" font-family="'Noto Sans JP',sans-serif" font-size="12" fill="#e65100" font-weight="600">3,013千円</text>
  <rect x="242" y="487" width="112.68411967779056" height="14" rx="4" fill="#ff9800" opacity="0.8"/>
  <rect x="30" y="516" width="432" height="44" rx="6" fill="#ffffff"/>
  <circle cx="60" cy="538" r="14" fill="#e65100"/>  <text x="60" y="542.32" text-anchor="middle" font-family="'Noto Sans JP',sans-serif" font-size="12" font-weight="bold" fill="#ffffff">10</text>
  <text x="84" y="542.68" font-family="'Noto Sans JP',sans-serif" font-size="13" font-weight="bold" fill="#1f2937">千葉県</text>
  <text x="230" y="542.32" text-anchor="end" font-family="'Noto Sans JP',sans-serif" font-size="12" fill="#e65100" font-weight="600">2,988千円</text>
  <rect x="242" y="531" width="111.74913693901036" height="14" rx="4" fill="#ff9800" opacity="0.8"/>
  <line x1="347.95224395857304" y1="120" x2="347.95224395857304" y2="560" stroke="#9ca3af" stroke-width="1.5" stroke-dasharray="4 3"/>
  <text x="347.95224395857304" y="574" text-anchor="middle" font-family="'Noto Sans JP',sans-serif" font-size="9" fill="#9ca3af">全国平均 2,833千円</text>
  <rect x="498" y="80" width="432" height="40" rx="8" fill="#1565c0"/>  <text x="714" y="106" text-anchor="middle" font-family="'Noto Sans JP',sans-serif" font-size="15" font-weight="bold" fill="#ffffff">県民所得が低い都道府県</text>
  <rect x="498" y="120" width="432" height="44" rx="6" fill="#e3f2fd"/>
  <circle cx="528" cy="142" r="14" fill="#1565c0"/>  <text x="528" y="146.32" text-anchor="middle" font-family="'Noto Sans JP',sans-serif" font-size="12" font-weight="bold" fill="#ffffff">47</text>
  <text x="552" y="146.68" font-family="'Noto Sans JP',sans-serif" font-size="13" font-weight="bold" fill="#1f2937">沖縄県</text>
  <text x="698" y="146.32" text-anchor="end" font-family="'Noto Sans JP',sans-serif" font-size="12" fill="#1565c0" font-weight="600">2,167千円</text>
  <rect x="710" y="135" width="81.04430379746834" height="14" rx="4" fill="#42a5f5" opacity="0.8"/>
  <rect x="498" y="164" width="432" height="44" rx="6" fill="#ffffff"/>
  <circle cx="528" cy="186" r="14" fill="#1565c0"/>  <text x="528" y="190.32" text-anchor="middle" font-family="'Noto Sans JP',sans-serif" font-size="12" font-weight="bold" fill="#ffffff">46</text>
  <text x="552" y="190.68" font-family="'Noto Sans JP',sans-serif" font-size="13" font-weight="bold" fill="#1f2937">宮崎県</text>
  <text x="698" y="190.32" text-anchor="end" font-family="'Noto Sans JP',sans-serif" font-size="12" fill="#1565c0" font-weight="600">2,289千円</text>
  <rect x="710" y="179" width="85.60701956271576" height="14" rx="4" fill="#42a5f5" opacity="0.8"/>
  <rect x="498" y="208" width="432" height="44" rx="6" fill="#e3f2fd"/>
  <circle cx="528" cy="230" r="14" fill="#1565c0"/>  <text x="528" y="234.32" text-anchor="middle" font-family="'Noto Sans JP',sans-serif" font-size="12" font-weight="bold" fill="#ffffff">45</text>
  <text x="552" y="234.68" font-family="'Noto Sans JP',sans-serif" font-size="13" font-weight="bold" fill="#1f2937">鳥取県</text>
  <text x="698" y="234.32" text-anchor="end" font-family="'Noto Sans JP',sans-serif" font-size="12" fill="#1565c0" font-weight="600">2,313千円</text>
  <rect x="710" y="223" width="86.50460299194476" height="14" rx="4" fill="#42a5f5" opacity="0.8"/>
  <rect x="498" y="252" width="432" height="44" rx="6" fill="#ffffff"/>
  <circle cx="528" cy="274" r="14" fill="#1565c0"/>  <text x="528" y="278.32" text-anchor="middle" font-family="'Noto Sans JP',sans-serif" font-size="12" font-weight="bold" fill="#ffffff">44</text>
  <text x="552" y="278.68" font-family="'Noto Sans JP',sans-serif" font-size="13" font-weight="bold" fill="#1f2937">鹿児島県</text>
  <text x="698" y="278.32" text-anchor="end" font-family="'Noto Sans JP',sans-serif" font-size="12" fill="#1565c0" font-weight="600">2,408千円</text>
  <rect x="710" y="267" width="90.05753739930955" height="14" rx="4" fill="#42a5f5" opacity="0.8"/>
  <rect x="498" y="296" width="432" height="44" rx="6" fill="#e3f2fd"/>
  <circle cx="528" cy="318" r="14" fill="#1565c0"/>  <text x="528" y="322.32" text-anchor="middle" font-family="'Noto Sans JP',sans-serif" font-size="12" font-weight="bold" fill="#ffffff">43</text>
  <text x="552" y="322.68" font-family="'Noto Sans JP',sans-serif" font-size="13" font-weight="bold" fill="#1f2937">愛媛県</text>
  <text x="698" y="322.32" text-anchor="end" font-family="'Noto Sans JP',sans-serif" font-size="12" fill="#1565c0" font-weight="600">2,471千円</text>
  <rect x="710" y="311" width="92.41369390103567" height="14" rx="4" fill="#42a5f5" opacity="0.8"/>
  <rect x="498" y="340" width="432" height="44" rx="6" fill="#ffffff"/>
  <circle cx="528" cy="362" r="14" fill="#1565c0"/>  <text x="528" y="366.32" text-anchor="middle" font-family="'Noto Sans JP',sans-serif" font-size="12" font-weight="bold" fill="#ffffff">42</text>
  <text x="552" y="366.68" font-family="'Noto Sans JP',sans-serif" font-size="13" font-weight="bold" fill="#1f2937">長崎県</text>
  <text x="698" y="366.32" text-anchor="end" font-family="'Noto Sans JP',sans-serif" font-size="12" fill="#1565c0" font-weight="600">2,483千円</text>
  <rect x="710" y="355" width="92.86248561565017" height="14" rx="4" fill="#42a5f5" opacity="0.8"/>
  <rect x="498" y="384" width="432" height="44" rx="6" fill="#e3f2fd"/>
  <circle cx="528" cy="406" r="14" fill="#1565c0"/>  <text x="528" y="410.32" text-anchor="middle" font-family="'Noto Sans JP',sans-serif" font-size="12" font-weight="bold" fill="#ffffff">41</text>
  <text x="552" y="410.68" font-family="'Noto Sans JP',sans-serif" font-size="13" font-weight="bold" fill="#1f2937">高知県</text>
  <text x="698" y="410.32" text-anchor="end" font-family="'Noto Sans JP',sans-serif" font-size="12" fill="#1565c0" font-weight="600">2,491千円</text>
  <rect x="710" y="399" width="93.16168009205984" height="14" rx="4" fill="#42a5f5" opacity="0.8"/>
  <rect x="498" y="428" width="432" height="44" rx="6" fill="#ffffff"/>
  <circle cx="528" cy="450" r="14" fill="#1565c0"/>  <text x="528" y="454.32" text-anchor="middle" font-family="'Noto Sans JP',sans-serif" font-size="12" font-weight="bold" fill="#ffffff">40</text>
  <text x="552" y="454.68" font-family="'Noto Sans JP',sans-serif" font-size="13" font-weight="bold" fill="#1f2937">熊本県</text>
  <text x="698" y="454.32" text-anchor="end" font-family="'Noto Sans JP',sans-serif" font-size="12" fill="#1565c0" font-weight="600">2,498千円</text>
  <rect x="710" y="443" width="93.4234752589183" height="14" rx="4" fill="#42a5f5" opacity="0.8"/>
  <rect x="498" y="472" width="432" height="44" rx="6" fill="#e3f2fd"/>
  <circle cx="528" cy="494" r="14" fill="#1565c0"/>  <text x="528" y="498.32" text-anchor="middle" font-family="'Noto Sans JP',sans-serif" font-size="12" font-weight="bold" fill="#ffffff">39</text>
  <text x="552" y="498.68" font-family="'Noto Sans JP',sans-serif" font-size="13" font-weight="bold" fill="#1f2937">奈良県</text>
  <text x="698" y="498.32" text-anchor="end" font-family="'Noto Sans JP',sans-serif" font-size="12" fill="#1565c0" font-weight="600">2,501千円</text>
  <rect x="710" y="487" width="93.53567318757192" height="14" rx="4" fill="#42a5f5" opacity="0.8"/>
  <rect x="498" y="516" width="432" height="44" rx="6" fill="#ffffff"/>
  <circle cx="528" cy="538" r="14" fill="#1565c0"/>  <text x="528" y="542.32" text-anchor="middle" font-family="'Noto Sans JP',sans-serif" font-size="12" font-weight="bold" fill="#ffffff">38</text>
  <text x="552" y="542.68" font-family="'Noto Sans JP',sans-serif" font-size="13" font-weight="bold" fill="#1f2937">佐賀県</text>
  <text x="698" y="542.32" text-anchor="end" font-family="'Noto Sans JP',sans-serif" font-size="12" fill="#1565c0" font-weight="600">2,575千円</text>
  <rect x="710" y="531" width="96.30322209436133" height="14" rx="4" fill="#42a5f5" opacity="0.8"/>
  <line x1="815.952243958573" y1="120" x2="815.952243958573" y2="560" stroke="#9ca3af" stroke-width="1.5" stroke-dasharray="4 3"/>
  <text x="815.952243958573" y="574" text-anchor="middle" font-family="'Noto Sans JP',sans-serif" font-size="9" fill="#9ca3af">全国平均 2,833千円</text>
  <text x="480" y="609" text-anchor="middle" font-family="'Noto Sans JP',sans-serif" font-size="10" fill="#9ca3af">1位の東京（5,214千円）と47位の沖縄（2,167千円）で約2.4倍の格差</text>
</svg>