<!-- data-source: commercial-land-price-trend-prefecture-rankings.json | generated: 2026-06-02T21:29:16.805Z -->
<svg xmlns="http://www.w3.org/2000/svg" viewBox="0 0 680 300" width="680" height="300" font-family="'Hiragino Sans','Noto Sans JP',sans-serif" role="img" aria-label="標準価格対前年平均変動率 都道府県ランキング（2024年）">
  <style>
    .svg-bg{fill:#fafafa}
    .svg-title{fill:#222}
    .svg-subtitle{fill:#666}
    .svg-label{fill:#333}
    .svg-legend{fill:#888}
    @media (prefers-color-scheme:dark){
      .svg-bg{fill:#1f2937}
      .svg-title{fill:#f9fafb}
      .svg-subtitle{fill:#9ca3af}
      .svg-label{fill:#e5e7eb}
      .svg-legend{fill:#9ca3af}
    }
  </style>
  <rect width="680" height="300" class="svg-bg" rx="8"/>
  <text x="340" y="24" text-anchor="middle" font-size="16" font-weight="bold" class="svg-title">標準価格対前年平均変動率 都道府県ランキング（2024年）</text>
  
  <text x="227.5" y="54" text-anchor="middle" font-size="12" font-weight="bold" fill="#1565c0">上位 5</text>
  <text x="542.5" y="54" text-anchor="middle" font-size="12" font-weight="bold" fill="#c62828">下位 5</text>
  
      <text x="84" y="82" text-anchor="end" font-size="11" class="svg-label">東京都</text>
      <rect x="90" y="63" width="195" height="30" fill="#1565c0" rx="2"/>
      <text x="289" y="82" font-size="10" class="svg-label">8.4％</text>
    
      <text x="84" y="118" text-anchor="end" font-size="11" class="svg-label">大阪府</text>
      <rect x="90" y="99" width="169.4642857142857" height="30" fill="#1976d2" rx="2"/>
      <text x="263.46428571428567" y="118" font-size="10" class="svg-label">7.3％</text>
    
      <text x="84" y="154" text-anchor="end" font-size="11" class="svg-label">福岡県</text>
      <rect x="90" y="135" width="155.53571428571428" height="30" fill="#1e88e5" rx="2"/>
      <text x="249.53571428571428" y="154" font-size="10" class="svg-label">6.7％</text>
    
      <text x="84" y="190" text-anchor="end" font-size="11" class="svg-label">神奈川県</text>
      <rect x="90" y="171" width="143.92857142857144" height="30" fill="#2196f3" rx="2"/>
      <text x="237.92857142857144" y="190" font-size="10" class="svg-label">6.2％</text>
    
      <text x="84" y="226" text-anchor="end" font-size="11" class="svg-label">沖縄県</text>
      <rect x="90" y="207" width="141.60714285714286" height="30" fill="#42a5f5" rx="2"/>
      <text x="235.60714285714286" y="226" font-size="10" class="svg-label">6.1％</text>
    
  
      <text x="399" y="82" text-anchor="end" font-size="11" class="svg-label">徳島県</text>
      <rect x="405" y="63" width="1" height="30" fill="#c62828" rx="2"/>
      <text x="410" y="82" font-size="10" class="svg-label">-1.4％</text>
    
      <text x="399" y="118" text-anchor="end" font-size="11" class="svg-label">岩手県</text>
      <rect x="405" y="99" width="1" height="30" fill="#d32f2f" rx="2"/>
      <text x="410" y="118" font-size="10" class="svg-label">-1.1％</text>
    
      <text x="399" y="154" text-anchor="end" font-size="11" class="svg-label">鹿児島県</text>
      <rect x="405" y="135" width="1" height="30" fill="#e53935" rx="2"/>
      <text x="410" y="154" font-size="10" class="svg-label">-1％</text>
    
      <text x="399" y="190" text-anchor="end" font-size="11" class="svg-label">愛媛県</text>
      <rect x="405" y="171" width="1" height="30" fill="#ef5350" rx="2"/>
      <text x="410" y="190" font-size="10" class="svg-label">-1％</text>
    
      <text x="399" y="226" text-anchor="end" font-size="11" class="svg-label">島根県</text>
      <rect x="405" y="207" width="1" height="30" fill="#e57373" rx="2"/>
      <text x="410" y="226" font-size="10" class="svg-label">-0.9％</text>
    
  <text x="340" y="282" text-anchor="middle" font-size="10" class="svg-legend">凡例: 青系=上位 / 赤系=下位</text>
</svg>