<?xml version="1.0" encoding="UTF-8"?>
<svg xmlns="http://www.w3.org/2000/svg"
     viewBox="71.11259133912972 -20.00000000000182 657.7748173217478 640.0000000000018"
     width="657.7748173217478"
     height="640.0000000000018">
  <title>青森県</title>
  <desc>都道府県コード: 02</desc>
  <g id="02">
    <path d="M426.866,296.986L427.414,297.685L426.277,298.215L425.698,297.527L426.119,296.693ZM674.785,457.549L674.079,458.065L674.301,459.253L674.89,459.578L674.722,460.699L676.742,464.544L678.3,466.056L680.521,465.463L680.574,466.662L681.311,466.762L683.816,468.219L684.784,469.687L684.426,470.449L684.668,471.626L685.994,472.556L687.478,472.399L688.173,473.788L688.268,475.032L691.531,477.104L691.278,478.986L692.478,479.748L692.268,481.462L693.51,482.436L693.773,483.298L694.983,483.59L696.499,485.169L697.562,487.711L699.635,488.864L700.214,489.671L701.72,489.872L701.498,490.802L702.898,491.641L703.277,492.851L705.33,494.239L705.635,495.011L706.519,495.011L708.866,495.873L708.887,496.601L707.614,497.071L707.382,497.049L707.266,496.971L707.088,497.038L705.993,498.93L705.982,499.042L706.246,499.613L705.477,500.474L705.319,500.945L704.825,501.739L704.698,502.019L703.793,503.038L702.119,503.664L701.951,503.81L701.593,503.9L701.593,504.246L701.425,504.851L698.667,506.664L696.857,506.384L695.225,507.693L695.109,507.917L695.057,508.096L694.762,508.287L694.415,508.678L694.057,508.846L691.51,509.965L687.889,509.708L685.826,510.39L685.152,512.102L684.1,512.214L683.731,512.416L683.521,512.483L683.163,512.64L681.353,512.718L679.237,513.579L678.679,514.9L677.406,515.895L676.679,515.895L676.458,515.884L676.09,517.73L675.364,519.095L674.532,519.677L674.532,522.641L675.143,522.865L675.669,523.726L675.037,525.594L675.406,526.69L676.406,527.562L675.479,528.871L675.164,529.049L674.69,529.318L674.501,529.497L674.585,530.604L674.532,530.671L673.911,531.129L673.648,531.342L673.427,531.599L673.227,531.778L672.943,532.046L672.616,532.169L671.648,532.505L671.364,534.171L670.511,534.462L670.364,534.674L669.911,535.188L669.701,535.311L669.469,535.457L669.017,535.747L667.554,536.485L666.375,536.262L666.049,536.206L665.322,537.089L665.07,537.648L664.459,537.983L664.091,538.207L663.122,539.168L662.417,540.678L660.649,541.773L660.396,542.041L659.081,542.365L658.66,541.605L658.533,541.46L658.47,541.348L658.312,540.901L657.565,540.7L657.302,540.991L657.218,541.046L656.912,541.114L655.797,541.214L654.134,540.51L653.607,540.465L653.155,540.409L652.944,540.253L652.755,540.018L652.134,539.66L650.818,537.57L650.313,537.29L649.439,535.468L648.229,535.11L646.776,535.904L646.071,535.188L645.924,535.077L645.787,533.478L643.608,531.778L643.313,531.655L642.324,531.554L641.829,530.883L641.65,530.716L641.408,530.291L641.271,530.134L641.029,530.056L640.587,530.157L640.366,529.575L639.124,529.653L637.851,529.172L637.651,529.34L635.303,529.172L635.093,529.295L634.472,530.078L632.23,530.268L631.514,530.995L630.693,530.828L630.156,530.705L628.736,530.537L627.378,529.665L627.209,529.642L626.651,530.201L626.504,530.425L624.599,530.705L624.452,531.89L624.325,532.136L623.81,533.243L623.052,533.422L622.399,534.551L622.357,535.971L621.105,536.385L620.883,535.378L619.431,535.3L619.178,535.445L618.568,535.893L618.284,536.094L615.884,537.872L615.715,537.95L615.621,537.983L615.473,538.039L614.947,536.306L614.673,536.284L614.147,534.696L614,534.551L613.516,533.813L612.179,533.556L611.695,534.227L611.442,534.607L610.779,536.407L610.747,536.575L609.916,536.698L609.537,536.988L609.547,540.107L609.337,540.454L608.653,541.292L608.337,541.639L606.99,543.494L606.379,545.026L605.979,545.328L605.2,545.529L605.19,545.205L604.327,544.31L603.611,545.026L603.474,545.272L602.969,546.322L602.127,546.658L601.78,546.892L599.696,548.055L598.569,548.367L598.443,548.546L597.222,549.664L596.496,549.641L596.454,548.01L595.296,547.976L594.864,547.418L595.622,546.378L595.601,546.244L594.317,545.171L594.064,545.015L592.801,544.735L592.601,544.802L590.738,543.181L590.949,541.84L591.707,540.577L591.833,538.252L591.707,538.095L591.538,537.905L591.475,537.38L591.528,536.686L590.707,535.926L589.528,536.027L588.675,534.708L588.57,534.45L587.728,534.316L587.286,532.292L586.549,532.225L586.339,532.248L586.118,532.348L584.581,531.185L583.539,532.762L583.465,532.874L583.339,533.22L583.181,533.343L581.16,534.283L580.781,534.137L580.223,534.059L579.813,534.115L578.918,534.182L578.676,534.204L577.003,535.334L577.802,536.172L577.697,536.843L577.497,537.055L576.697,537.424L576.518,537.626L576.803,539.694L576.782,539.94L575.424,541.583L575.045,541.751L573.392,542.511L572.898,542.779L571.477,543.807L571.171,543.796L569.814,542.947L569.593,542.801L567.393,541.281L566.224,541.695L565.688,542.757L565.593,543.17L565.677,543.807L565.898,544.02L565.993,544.165L564.867,544.936L564.593,544.981L564.33,544.914L561.783,545.193L561.488,545.361L560.762,546.445L560.625,546.792L560.172,547.216L559.678,547.496L559.551,547.54L559.33,547.641L558.13,548.39L556.394,550.658L556.309,550.848L554.236,551.027L553.246,553.385L551.615,555.463L551.636,556.636L551.531,556.703L550.426,556.983L550.152,557.027L548.447,557.217L546.9,557.999L546.721,558.055L546.489,558.223L546.226,558.458L544.984,559.709L544.858,559.72L544.531,560.033L542.184,560.044L541.879,560.178L541.637,560.279L541.479,560.212L540.3,560.01L540.09,559.865L539.521,559.519L539.258,559.497L539.058,559.508L538.711,559.508L537.648,559.05L536.09,558.96L535.448,559.597L535.269,559.809L534.7,560.491L532.195,560.815L531.859,560.993L529.785,562.814L528.954,563.105L528.711,563.138L527.375,563.306L527.059,563.283L526.712,563.619L524.259,563.362L524.028,563.619L523.88,563.741L523.754,564.021L523.217,565.651L520.712,566.534L519.765,567.115L519.617,567.293L517.828,568.22L517.817,568.388L516.702,569.516L515.891,569.728L514.797,570.901L514.397,571.157L513.639,571.649L513.544,571.716L512.923,571.939L512.628,572.107L511.355,572.263L513.934,578.56L514.407,579.71L514.828,580.76L514.113,581.072L512.649,583.149L511.902,583.305L509.481,583.506L509.355,583.629L509.081,583.74L508.966,583.841L507.45,584.89L507.113,584.868L505.713,584.187L504.303,584.667L503.429,584.488L501.945,585.861L500.977,586.196L499.745,587.736L499.135,589.288L497.44,591.073L496.945,591.218L494.346,591.665L493.209,591.375L492.735,591.509L491.914,591.497L491.725,591.497L491.641,592.625L490.862,593.037L490.641,593.227L489.925,593.551L489.409,594.008L487.957,595.08L487.767,595.448L486.599,596.14L486.336,598.237L485.115,598.862L483.01,599.13L482.894,599.855L481.831,600L481.073,599.464L479.568,599.911L478.536,598.929L477.715,598.84L477.136,599.163L476.336,599.364L474.61,597.769L472.852,598.538L472.663,598.583L470.768,599.152L470.274,598.75L470.168,598.416L469.2,596.318L468.947,596.229L468.505,596.184L468.337,596.095L466.927,596.162L466.863,596.084L467.169,595.325L467.2,595.091L467.2,594.99L467.074,594.522L466.906,593.249L466.095,592.401L466.411,591.129L465.021,589.756L464.664,589.678L463.443,589.299L462.295,587.647L462.358,587.279L462.306,586.721L462.022,585.426L461.138,584.712L460.895,584.656L459.127,582.077L459.653,580.447L459.653,579.242L460.527,577.187L461.527,575.713L461.58,575.412L461.495,574.284L462.032,572.453L462.916,571.638L463.148,571.437L462.885,570.242L462.022,570.231L461.39,569.047L459.327,569.047L458.759,568.645L458.738,568.243L458.59,566.947L458.948,565.786L458.727,565.484L459.327,563.842L459.832,563.786L460.148,563.619L461.737,562.982L463.148,560.558L462.916,558.96L463.053,558.391L462.99,557.407L463.053,556.759L463.601,555.072L463.558,553.698L463.074,552.558L463.895,552.133L464.843,553.162L464.832,550.927L466.484,548.49L466.874,546.78L465.116,542.924L464.674,542.5L465.8,541.091L466.8,540.834L467.358,542.712L468.095,543.204L468.063,544.076L468.895,544.076L469,544.232L469.263,544.21L469.358,544.053L471.053,544.221L471.168,543.74L471.305,543.595L472.021,543.036L472.2,542.846L474.4,541.08L475.326,540.991L475.421,540.789L475.915,538.889L475.147,537.804L475.231,536.575L474.537,533.511L474.81,533.489L475.505,532.605L475.631,532.438L475.821,531.029L475.358,529.228L474.379,528.759L473.116,526.354L473.01,526.03L472.747,525.247L472.674,524.99L472.242,524.129L472.652,521.992L473.179,521.332L473.221,521.164L473.337,520.874L473.21,520.471L472.652,517.73L472.631,517.45L471.221,516.466L471.537,515.045L471.431,514.642L471.674,512.964L471.379,512.382L471.358,512.214L471.126,512.069L470.484,512.226L470.653,511.095L471.495,510.648L471.905,510.088L472.158,509.853L472.642,509.238L472.474,506.798L468.548,505.511L468.358,505.299L468.011,505.287L467.811,505.489L467.495,505.69L464.411,506.921L464.116,506.877L462.474,507.19L462.348,507.19L460.98,507.246L460.706,507.033L457.685,505.634L457.359,505.892L456.959,506.194L456.538,506.53L456.296,507.66L455.338,509.014L455.127,509.227L453.485,509.473L453.243,509.574L452.528,509.484L451.759,508.51L451.591,508.298L450.423,506.821L448.528,507.794L448.37,507.962L447.223,508.488L446.749,508.231L445.907,507.727L442.149,508.029L441.781,508.242L441.234,508.566L440.034,507.85L434.961,504.135L430.529,500.889L431.445,496.713L433.087,489.29L434.729,481.865L436.213,475.144L436.876,469.866L435.771,469.508L434.54,470.225L432.371,470.752L430.487,471.592L428.593,471.682L428.235,471.704L427.466,472.096L426.235,471.032L425.003,471.155L424.54,471.805L424.161,471.917L424.077,472.679L422.13,472.6L421.425,473.844L420.141,474.494L419.941,474.852L419.751,475.278L419.425,475.513L416.657,476.398L416.53,476.522L415.983,477.843L415.625,478L415.004,478.952L414.783,479.457L413.341,480.173L413.362,481.954L413.025,482.559L413.004,482.929L413.088,483.186L413.488,483.802L413.583,484.822L413.004,486.087L413.036,486.479L413.036,486.613L412.952,487.073L412.878,487.196L412.689,487.621L412.752,490.443L412.446,491.272L412.331,491.641L412.32,491.921L412.352,493.242L411.72,494.642L411.478,496.724L410.341,497.262L410.12,497.139L409.268,496.948L408.994,496.971L407.499,497.015L406.699,495.661L406.752,494.788L406.068,493.701L405.11,493.612L404.9,493.769L403.3,494.351L403.11,494.508L402.142,495.314L401.721,495.605L401.405,495.806L401.068,495.941L400.247,496.153L399.363,494.967L397.384,496.008L397.1,496.165L396.932,496.344L396.448,497.866L396.153,498.112L395.648,498.426L395.342,498.471L394.585,500.172L394.069,501.012L393.385,501.773L393.164,501.784L392.09,501.527L391.932,501.538L389.838,502.086L388.901,501.404L388.459,501.37L387.406,501.314L387.006,502.545L386.933,502.903L387.869,503.799L387.354,504.157L387.059,504.246L386.564,505.399L387.554,506.317L387.806,506.429L387.964,507.503L387.985,507.794L387.438,508.589L387.501,508.801L387.901,510.357L387.375,511.274L387.343,511.543L386.754,511.923L386.196,512.002L383.943,511.733L383.649,511.588L383.301,510.458L381.765,509.585L381.765,509.036L381.722,508.846L381.796,507.492L381.596,507.223L381.112,506.563L379.312,505.769L379.102,505.791L378.923,506.541L376.828,506.888L375.786,506.53L375.586,505.881L373.681,506.664L373.502,506.854L372.007,506.653L371.323,508.376L371.25,509.081L371.913,509.327L371.523,510.782L370.313,511.577L370.039,511.577L369.165,511.89L368.787,512.024L367.671,513.244L367.587,513.445L367.502,513.602L367.345,513.568L367.06,513.602L366.629,513.859L366.218,513.714L364.334,513.859L364.366,514.251L364.418,514.631L362.787,517.003L362.219,516.645L360.566,516.88L360.44,517.104L359.387,517.271L359.25,517.271L357.135,517.596L355.861,516.667L354.114,517.529L353.83,517.708L352.956,517.26L354.188,515.067L354.272,514.877L353.43,513.747L353.409,513.367L353.409,513.266L353.388,512.796L353.114,511.095L350.588,509.294L350.619,508.253L348.609,508.533L348.167,508.589L346.778,508.264L346.62,508.365L346.157,508.421L346.03,508.432L343.946,507.403L343.241,506.462L343.22,506.082L341.894,504.526L341.683,504.291L340.073,503.351L338.473,502.903L338.294,505.03L338.189,505.399L337.757,505.836L337.62,505.936L336.968,506.06L336.442,505.78L333.684,506.104L333.168,507.335L333.031,507.369L330.895,507.358L330.663,507.391L330.263,507.514L329.737,507.514L329.316,507.291L329.126,506.944L327.59,507.537L326.979,508.622L326.821,508.779L326.295,509.641L326.179,509.764L327.169,511.711L327.137,512.024L327.127,512.226L328.084,513.736L328.179,513.926L329.305,514.609L330.453,516.287L330.505,516.734L330.432,516.969L330.326,517.339L330.621,517.618L330.789,517.842L330.958,518.189L331.095,518.368L331.568,518.647L330.789,519.587L327.863,520.225L327.337,519.453L325.148,518.468L325.053,518.099L324.379,517.495L324.306,517.249L322.758,517.652L322.685,517.551L321.885,517.786L320.864,516.746L320.222,514.743L319.022,513.982L317.875,514.139L317.432,514.228L317.148,514.262L316.885,514.374L316.348,513.814L316.422,513.568L316.327,510.648L316.306,510.357L316.833,510.267L317.59,510.077L318.159,509.954L318.127,509.73L318.011,508.712L318.032,508.555L318.359,506.485L318.201,506.351L317.948,505.287L317.443,505.03L316.075,505.198L315.959,505.209L314.812,505.377L314.485,505.276L314.349,505.299L312.422,506.093L312.233,505.936L311.97,505.992L310.928,506.283L310.812,506.16L309.38,505.254L308.928,504.974L308.507,503.709L307.728,503.094L307.465,502.803L304.57,501.851L303.023,500.788L301.686,500.351L302.36,499.926L302.686,498.717L302.739,498.269L301.844,497.038L301.623,496.545L301.613,496.332L301.644,496.142L300.476,495.347L300.15,495.414L296.802,494.967L296.687,494.944L295.929,493.858L295.087,494.026L294.75,494.015L292.95,494.541L292.708,494.653L292.613,494.698L292.392,494.754L291.782,495.191L290.656,494.944L290.308,495.448L289.74,495.616L288.256,496.736L287.919,496.736L287.824,495.605L286.887,494.373L286.982,492.772L286.603,492.481L286.824,490.32L285.509,488.831L285.414,487.745L285.488,487.274L286.793,484.038L286.151,483.265L283.446,482.201L280.635,483.164L279.951,483.489L278.288,484.9L278.088,484.911L276.393,485.762L274.92,485.617L274.604,484.43L273.057,484.138L273.12,483.478L272.952,483.231L272.162,482.111L272.183,481.294L269.741,480.207L268.752,480.969L267.994,483.186L267.826,483.646L266.689,484.889L264.868,485.046L263.047,484.676L262.7,484.351L262.237,484.004L261.658,484.038L261.047,484.071L260.574,485.169L259.268,485.998L258.9,486.345L257.953,488.383L256.469,488.898L256.669,490.118L256.205,491.563L254.974,491.518L255.142,493.646L254.742,494.631L255.111,495.739L254.279,496.534L254.427,498.101L254.027,498.46L254.069,498.795L253.437,500.754L252.827,500.889L252.206,501.448L251.195,501.112L250.269,501.504L249.901,501.538L246.238,501.314L245.964,501.773L244.091,502.803L242.975,502.03L242.849,500.329L240.933,499.904L240.586,499.489L239.891,498.381L237.838,498.504L237.228,498.236L236.365,498.986L233.27,498.471L231.639,499.803L229.039,500.844L223.829,500.318L223.345,499.836L220.934,502.355L219.429,502.333L218.293,502.814L217.861,503.161L217.219,503.72L215.766,503.989L214.293,504.929L212.546,504.806L212.272,504.179L210.304,502.982L209.798,501.874L205.346,503.564L204.357,503.497L203.231,502.31L203.083,502.008L202.125,501.359L201.557,500.295L201.462,499.78L199.399,500.81L198.662,501.034L197.631,501.034L196.599,502.008L195.831,501.336L193.642,501.459L192.61,501.93L192.337,502.109L189.905,503.385L189.147,502.982L188.884,502.668L188.495,502.008L186.642,502.165L185.232,501.381L184.927,501.336L183.958,502.03L181.18,502.478L180.685,502.646L178.811,503.239L178.601,503.396L178.443,503.396L176.98,502.959L176.559,503.183L175.022,502.948L174.317,501.001L172.201,499.4L172.422,498.672L171.591,497.049L172.307,495.403L170.78,493.511L170.559,493.198L170.433,492.94L169.254,492.369L169.159,492.224L168.602,491.675L168.359,491.35L166.875,491.193L166.507,490.208L166.191,489.962L166.033,489.85L165.76,489.648L165.181,489.189L164.465,489.939L164.233,490.051L162.697,489.491L162.055,488.383L161.823,488.327L161.686,488.316L160.465,488.629L160.244,488.652L158.665,489.044L156.813,488.764L156.466,489.749L156.623,489.928L156.518,490.746L156.276,490.779L154.634,491.944L154.266,491.91L152.571,491.753L152.424,491.72L150.845,491.541L150.708,492.604L149.782,493.086L149.382,493.142L148.193,494.799L148.098,495.023L146.582,495.762L145.561,497.161L145.382,498.124L147.172,501.359L147.224,502.321L147.224,502.534L147.035,502.825L146.772,503.015L146.235,503.228L146.077,504.84L146.066,505.119L145.919,505.858L145.698,505.959L144.466,506.988L144.498,507.168L145.14,508.689L145.214,509.954L145.172,510.144L145.024,510.111L144.845,510.077L143.382,508.958L143.361,508.477L143.109,508.085L141.404,507.235L141.13,507.067L139.972,505.354L139.919,505.175L139.309,504.504L139.025,504.358L138.814,504.37L138.467,504.537L138.067,504.403L136.909,503.373L136.667,503.709L136.53,503.955L135.562,504.84L135.436,505.019L133.846,506.384L133.573,506.552L132.215,506.787L131.394,506.462L129.615,507.134L128.805,506.787L128.699,506.776L126.426,505.5L126.184,504.347L125.436,503.72L124.952,503.474L124.057,503.732L123.205,504.683L121.616,505.075L121.437,505.097L118.553,505.903L118.037,506.06L116.995,506.418L118.268,505.265L117.826,504.761L118.437,501.773L117.847,497.855L118.953,497.094L118.637,496.019L119.016,495.034L118.911,493.276L119.332,492.727L119.816,489.637L119.332,489.155L120.3,487.801L120.247,486.121L120.679,483.926L120.637,481.417L120.363,479.759L121.037,479.244L120.91,478.37L121.605,477.216L121.395,473.575L120.995,472.858L121.289,471.704L120.637,467.76L120.942,465.485L120.51,461.786L119.847,458.805L119.9,457.303L118.279,450.8L117.584,449.634L116.711,449.096L115.627,449.847L114.585,448.917L115.542,448.827L114.879,448.098L116.005,446.562L116.037,445.328L114.532,441.47L113.227,439.081L111.258,436.412L109.585,435.671L109.553,436.075L107.164,435.907L104.364,437.69L103.575,437.926L102.375,437.309L99.68,436.838L98.038,437.073L96.775,438.004L94.986,437.511L94.039,436.771L92.755,433.663L92.955,432.575L91.744,432.014L92.649,431.733L91.27,426.303L92.176,425.798L91.113,424.687L91.449,422.7L92.681,422.498L94.197,421.006L95.618,420.355L95.839,419.794L99.407,416.898L101.27,416.235L102.596,415.068L102.059,414.608L102.67,413.148L103.796,412.306L104.427,410.667L105.501,409.376L106.49,409.084L108.606,410.97L110.016,410.645L110.785,409.746L111.143,410.308L112.353,410.016L113.048,411.127L114.321,410.948L114.879,409.803L113.606,408.815L114.69,406.288L117.247,405.075L116.963,403.672L117.321,403.29L116.974,401.055L117.9,400.538L117.9,399.337L116.826,398.528L117.058,397.798L117.826,398.09L119.005,399.572L122.047,398.27L124.215,395.529L124.531,394.551L125.878,393.574L126.72,392.305L127.026,390.395L127.857,388.44L128.141,386.665L127.678,385.653L130.268,383.945L131.636,383.777L134.046,379.472L134.415,378.034L133.288,376.055L134.604,375.628L136.404,371.536L136.604,369.535L137.572,369.367L138.583,368.445L138.593,366.927L137.593,366.129L138.814,365.049L140.604,365.634L140.961,365.206L144.172,363.767L145.014,362.8L147.424,362.654L148.477,360.697L149.266,359.977L150.119,358.11L151.898,356.592L153.203,356.648L155.624,355.602L155.75,354.691L157.644,354.23L159.623,354.826L160.265,355.445L162.002,356.052L162.844,357.199L164.539,358.549L167.37,359.055L168.791,359.966L168.686,361.709L169.244,361.833L171.307,363.452L170.991,364.048L176.664,366.556L177.906,366.702L180.148,366.129L181.874,365.173L184.6,364.026L186.99,362.575L188.137,361.316L189.832,360.067L191.168,358.504L192.242,358.133L193.789,356.592L195.81,354.027L198.368,352.396L200.568,351.71L201.989,350.349L202.925,348.627L204.841,347.457L206.683,347.75L207.535,346.906L209.135,349.01L211.072,349.82L213.019,349.73L215.461,348.234L215.714,348.684L218.345,346.647L219.998,344.791L221.082,342.776L220.208,342.169L220.534,341.651L221.619,342.315L223.492,339.918L226.008,335.574L229.755,327.209L231.555,322.311L231.892,320.611L232.502,319.62L232.702,318.055L233.46,316.872L235.102,311.803L236.102,307.804L238.481,298.947L239.459,294.721L242.091,282.049L243.164,276.377L243.617,273.174L244.754,266.473L244.996,264.126L244.775,262.716L245.554,260.2L246.206,255.663L246.817,249.929L247.911,236.538L247.49,234.573L248.006,233.364L248.438,225.694L248.301,218.147L248.143,214.96L247.596,211.84L246.669,208.721L244.196,206.991L244.112,206.188L242.754,204.199L242.396,202.955L241.049,201.779L239.133,199.201L237.691,199.054L237.196,197.788L235.786,196.668L233.555,196.216L232.439,196.634L229.197,196.544L227.65,195.809L225.65,196.284L222.85,194.723L223.461,192.28L222.987,190.482L223.482,190.73L224.524,189.792L225.734,187.45L226.608,188.57L228.292,189.769L229.123,188.593L230.418,189.147L232.902,188.14L234.428,189.43L236.249,188.864L237.291,190.855L239.48,191.929L239.175,190.945L241.407,191.703L242.47,191.058L244.248,189.181L244.343,186.228L244.006,185.21L246.28,185.538L247.659,184.135L247.796,183.027L248.69,182.099L249.764,178.772L249.669,177.188L250.048,175.276L250.743,174.348L251.259,172.209L250.743,171.473L251.574,170.194L251.669,167.896L252.311,166.3L252.322,163.855L250.637,160.945L251.027,159.541L251.974,158.533L251.89,156.767L250.795,153.03L250.09,152.146L250.69,150.47L250.395,149.1L250.501,147.083L251.395,146.336L251.153,144.523L251.48,143.424L252.016,143.741L253.858,143.175L253.732,141.713L254.542,140.943L254.785,138.462L254.606,137.385L253.606,136.071L253.469,133.77L255.374,133.09L256.29,134.394L257.195,134.518L258.026,135.889L260.342,136.671L261.184,138.224L262.289,137.895L262.647,138.609L265.721,139.391L266.268,140.716L268.362,141.985L269.068,142.96L271.31,143.39L271.91,144.614L272.962,144.897L273.309,146.426L274.53,147.888L274.899,150.402L276.404,152.226L279.277,153.596L279.393,154.185L283.109,157.322L285.003,161.409L284.372,161.738L285.277,162.825L286.561,162.575L287.424,163.9L288.824,164.579L289.866,165.621L292.782,165.87L294.255,166.289L295.066,167.002L295.192,168.474L297.223,168.983L300.402,168.304L302.013,168.304L304.244,167.455L308.128,164.896L310.622,162.677L314.643,158.363L315.464,156.654L315.096,154.932L316.422,153.268L316.043,152.531L317.99,151.297L319.927,151.082L320.569,151.354L320.453,152.373L321.148,152.724L322.611,151.625L323.643,150.323L323.79,149.156L324.506,148.85L324.2,148.08L325.874,148.59L326.832,149.813L328.379,149.507L329.158,149.802L329.579,148.771L331.116,150.074L333.326,150.255L334.842,150.674L337.21,152.588L338.894,153.358L342.778,154.038L344.252,155.249L345.851,158.839L347.788,161.93L349.22,162.53L350.767,163.889L352.935,164.591L353.588,165.938L354.493,166.866L355.545,168.949L356.566,171.756L356.735,173.114L355.535,178.207L354.945,181.556L355.335,184.181L354.598,186.149L353.24,192.144L353.514,194.791L352.83,198.229L353.061,201.417L352.682,205.194L352.788,207.952L353.503,211.196L353.672,215.491L354.619,218.011L355.082,222.904L356.082,224.757L357.387,228.756L357.198,230.518L357.872,238.74L358.893,244.984L359.745,247.084L359.514,248.371L359.966,251.769L359.808,251.95L360.345,255.279L360.808,256.566L360.966,260.301L361.461,263.224L361.366,264.803L361.871,270.286L363.124,277.336L364.282,281.395L365.376,284.507L365.46,285.511L366.629,290.979L367.155,292.794L367.755,297.877L368.166,298.756L368.029,300.334L370.018,306.632L371.481,310.181L373.313,313.549L376.575,317.446L378.049,318.606L378.575,317.841L380.596,319.215L382.164,321.163L382.775,320.994L385.196,323.899L387.511,325.532L386.712,325.78L387.006,326.883L387.343,325.881L389.048,325.295L387.701,327.041L389.669,326.534L391.237,326.996L391.343,324.958L392.09,325.003L392.301,325.971L391.701,326.905L393.332,326.996L394.585,326.14L395.048,326.793L396.037,324.89L397.69,324.901L397.679,325.363L401.426,325.622L401.395,326.207L403.089,326.14L406.036,325.273L405.952,324.811L407.415,324.136L408.047,324.327L411.247,322.142L413.036,320.397L414.331,318.404L416.257,316.793L417.151,315.115L417.267,313.211L418.393,313.155L420.004,311.15L421.53,310.744L421.256,309.055L421.562,308.108L423.982,307.365L423.909,308.108L424.93,307.827L426.572,305.494L426.677,303.049L427.782,302.215L428.94,301.911L430.214,300.503L429.708,299.928L430.214,298.508L429.403,295.251L428.351,294.124L429.824,293.537L430.656,294.022L431.813,293.853L432.719,291.17L433.034,291.238L433.413,288.747L433.066,287.292L431.803,286.492L432.234,284.823L433.055,284.124L432.182,281.271L432.508,279.918L432.392,277.369L433.055,276.648L433.929,276.648L433.519,274.978L432.013,275.272L430.677,274.358L429.119,275.96L425.845,273.693L424.898,273.614L422.804,272.599L422.783,271.753L424.856,271.719L425.761,271.132L427.614,271.189L428.414,270.061L429.729,270.467L430.845,269.993L431.382,268.797L431.14,267.387L429.919,267.646L429.656,266.089L430.087,265.243L430.066,263.461L431.392,262.377L432.424,262.321L432.729,260.967L434.192,261.046L434.413,259.082L433.308,257.977L432.361,258.383L431.266,257.582L432.834,256.476L433.887,256.6L435.508,254.173L437.129,248.541L436.445,246.396L437.613,246.847L440.055,245.876L442.086,246.667L443.634,246.7L444.707,247.175L446.191,248.518L446.254,249.094L448.802,251.701L448.917,252.604L450.559,253.857L455.117,253.846L456.906,252.909L458.317,253.925L460.285,254.297L460.695,257.22L461.59,258.812L463.527,260.843L464.369,262.671L466.821,264.679L467.6,264.995L469.126,266.766L472.274,268.865L471.316,269.711L471.537,270.816L470.084,274.065L470.558,274.618L470.684,276.084L469.674,277.088L468.253,277.381L467.611,279.433L468.169,280.189L470.253,280.753L471.389,280.392L475.473,279.952L476.747,279.016L478.094,279.557L478.905,280.538L480.883,281.531L484.515,282.219L485.409,284.541L487.809,286.221L488.925,287.552L492.104,288.95L494.072,288.724L495.577,288.003L497.535,288.69L499.303,289.626L500.187,291.046L500.324,292.162L501.419,293.966L504.261,297.234L505.713,301.404L507.534,303.263L508.397,304.492L510.513,306.215L510.534,306.858L512.555,307.95L515.133,307.939L516.154,308.379L515.544,307.342L516.597,307.274L516.839,308.491L517.775,308.525L520.133,307.612L521.228,308.074L523.343,307.162L524.691,305.855L524.901,306.215L526.575,305.72L528.964,304.097L531.901,301.134L534.564,297.922L538.248,293.087L541.784,287.597L543.71,284.068L546.71,278.024L549.141,272.452L552.004,264.894L554.215,257.898L556.204,250.234L558.004,240.886L559.172,231.998L559.656,226.18L559.604,224.621L559.109,224.158L559.783,223.401L559.793,217.48L559.499,214.858L559.572,213.332L561.025,211.524L561.53,208.506L561.067,203.701L561.73,201.203L562.625,199.608L563.435,199.552L563.688,197.2L564.277,196.08L565.035,195.718L565.33,194.463L566.909,194.101L567.803,193.309L568.119,192.088L569.814,190.131L570.361,187.314L571.298,184.407L571.287,182.438L571.687,182.008L572.119,179.531L570.35,172.062L568.708,166.719L564.961,156.846L561.467,149.881L559.035,145.724L556.741,142.065L552.236,136.229L549.131,132.83L546.047,129.77L544.637,128.171L541.184,126.074L541.163,124.975L540.311,126.154L539.826,125.621L538.89,126.324L535.964,125.337L535.521,124.884L534.49,125.678L534.322,125.043L531.774,125.53L530.869,126.46L530.311,129.463L528.48,132.694L526.469,135.697L525.364,136.66L524.575,139.515L522.68,141.011L523.112,142.744L525.954,142.552L526.533,142.257L527.185,140.558L530.469,137.589L531.185,135.867L531.132,133.374L531.564,133.623L531.511,135.742L531.122,137.533L529.69,141.453L528.406,143.016L527.027,143.9L526.196,145.441L523.775,147.027L520.765,150.651L515.881,154.762L514.534,154.491L511.018,154.955L509.355,155.974L508.608,156.88L507.608,157.197L506.903,158.148L505.724,158.579L503.092,160.311L501.661,161.613L499.787,164.33L498.072,166.323L497.24,168.236L495.303,168.632L491.514,167.364L489.293,167.534L487.167,166.108L482.757,162.802L480.768,161.896L477.61,162.191L476.473,162.96L471.61,161.228L470.526,161.262L469.642,162.089L466.863,163.504L465.242,164.908L463.895,166.753L463.085,167.138L462.664,168.689L461.243,170.002L459.959,171.948L458.948,172.548L457.59,171.858L455.391,171.801L453.717,172.786L452.254,171.982L449.791,171.552L448.349,171.779L446.675,172.594L445.633,173.544L444.781,175.219L441.96,176.351L440.308,177.245L438.581,176.306L435.845,175.683L433.834,176.113L432.013,176.815L429.929,178.161L428.224,178.139L426.214,179.406L425.288,181.058L422.909,182.642L420.835,183.411L418.856,185.674L418.33,185.369L417.436,186.986L417.899,187.28L417.109,188.366L416.025,188.649L415.783,190.154L414.804,190.629L414.636,192.054L413.573,193.377L412.131,192.461L409.647,192.879L408.657,192.359L407.121,190.787L405.215,191.703L403.994,191.703L402.016,189.611L402.742,188.672L401.31,188.253L400.816,186.828L399.416,187.518L398.584,185.301L398.111,185.9L397.605,184.328L398.605,182.676L398.121,181.375L398.995,179.417L398.458,178.467L399.163,176.611L398.479,175.445L399.132,174.914L399.205,172.627L398.7,171.02L398.49,167.828L398.016,167.398L397.669,165.36L397.616,162.904L399.037,160.402L401.005,158.409L402.584,157.412L402.731,154.162L403.121,152.124L403.837,150.957L404.047,148.307L404.658,147.208L404.805,144.772L404.289,143.968L404.531,142.699L403.584,141.68L403.521,139.833L402.879,138.416L403.11,136.581L404.394,136.161L404.784,135.368L404.868,133.113L405.668,132.263L406.836,128.851L406.384,127.412L408.299,125.224L407.994,123.796L409.036,121.698L409.257,118.524L409.457,119.238L410.447,119.023L409.194,116.959L409.352,115.077L410.468,114.101L409.71,114.033L411.857,109.304L411.447,108.147L409.352,106.309L412.057,102.929L410.099,103.19L410.889,102.498L411.741,100.898L413.646,100.217L415.32,98.391L415.551,96.666L416.625,94.964L416.846,92.66L417.636,90.061L418.193,85.998L418.035,84.329L419.078,83.727L418.878,82.342L419.225,80.447L418.941,76.541L419.709,73.168L420.246,72.453L420.13,71.09L421.077,70.284L420.835,68.182L421.877,67.739L421.867,66.354L422.951,64.309L421.677,63.434L422.709,62.662L422.561,61.333L423.835,61.855L426.309,60.651L427.53,57.095L428.308,56.174L431.087,54.981L432.329,54.038L432.055,52.743L432.529,51.311L432.14,49.549L433.771,47.537L434.445,47.856L436.445,46.514L436.708,45.742L436.013,44.98L436.529,43.445L438.497,40.33L437.56,39.648L440.297,38.636L440.118,38.386L441.676,37.079L441.739,36.237L442.581,36.476L443.644,34.395L443.307,33.281L444.128,32.849L445.297,29.119L446.633,27.936L446.718,27.196L445.718,26.207L446.339,24.034L446.875,23.716L446.539,21.805L445.949,20.633L445.718,19.029L444.855,16.992L443.876,16.457L443.034,14.955L442.728,13.624L443.318,13.294L443.802,14.284L444.644,13.169L445.012,11.746L445.391,12.224L446.391,11.758L446.254,10.335L446.718,9.243L446.17,8.617L447.212,6.113L447.265,4.975L448.233,4.269L449.37,4.975L451.086,7.49L451.822,9.653L453.864,10.586L456.201,12.213L457.738,12.327L457.833,13.089L459.306,14.899L461.453,15.365L463.085,18.164L463.906,17.982L465.2,19.427L465.527,21.566L466.916,22.749L468.074,25.342L471.032,27.504L475.694,29.573L475.863,30.142L478.715,31.882L481.126,31.871L483.136,32.701L485.925,32.655L487.578,33.042L489.862,32.917L491.588,33.179L493.525,32.781L494.419,33.031L497.314,32.951L500.198,33.349L501.135,33.781L501.387,34.918L507.334,38.58L509.555,40.058L511.334,40.103L512.26,41.092L513.386,40.706L514.534,42.058L515.712,42.081L515.218,42.911L516.186,44.912L517.512,45.719L518.112,45.321L518.186,47.492L518.754,48.663L520.733,51.515L521.786,52.174L522.775,54.106L523.838,55.084L525.364,55.015L526.859,56.333L529.206,60.98L531.564,63.446L533.332,64.105L534.374,65.615L537.521,69.057L538.826,71.93L540.374,73.747L542.679,75.928L542.805,76.359L544.952,78.244L548.647,81.116L552.236,83.262L554.888,84.624L555.941,85.646L558.236,86.792L561.877,88.325L564.614,89.142L567.161,90.481L569.572,91.196L576.645,92.66L578.939,92.921L582.918,92.535L585.202,91.9L586.823,91.162L588.96,90.924L590.833,90.311L591.696,89.641L594.475,88.801L598.685,86.86L600.19,85.918L605.285,83.194L608.99,81.502L612.516,79.232L614.494,77.699L616.852,74.758L618.284,73.259L618.936,73.077L621.294,70.783L621.747,69.727L624.725,67.433L624.157,66.842L624.662,66.217L625.62,66.331L626.336,64.593L627.978,62.9L630.241,61.083L630.767,59.992L631.725,59.685L633.914,56.436L634.882,57.492L634.746,59.799L636.335,61.867L636.082,62.525L634.935,62.457L633.956,63.218L633.461,65.286L633.798,67.728L634.703,69.454L633.946,69.931L632.851,69.443L631.735,70.022L631.146,73.066L633.661,75.337L633.735,76.189L633.04,76.915L633.072,78.721L633.577,79.141L632.651,80.651L631.756,80.81L632.156,81.514L630.399,82.24L629.893,83.024L630.325,84.079L629.251,84.999L628.567,86.316L627.304,90.436L625.988,96.53L624.61,101.76L623.115,108.544L622.746,109.576L620.778,119.272L619.505,124.306L618.231,128.693L617.41,133.328L616.863,134.745L616.221,137.748L615.884,138.235L614.779,143.402L614.326,148.511L613.905,150.595L614.116,151.093L613.147,154.944L612.063,160.99L611.389,163.017L611.137,165.87L612.768,166.164L612.568,166.617L610.968,166.3L610.021,170.477L609.653,174.676L610.211,175.819L609.674,176.034L609.19,182.088L609.621,185.787L610.263,188.966L610.295,190.764L611.011,191.567L611.832,193.999L610.979,195.594L611.295,196.035L610.674,199.405L611.232,202.096L611.116,203.339L611.695,203.532L610.716,204.289L611.2,205.917L612.568,205.589L612.726,206.686L612.158,207.455L611.979,209.941L611.642,210.134L610.695,214.157L610.011,219.48L609.6,225.728L609.169,230.202L608.948,234.133L608.663,236.098L608.737,237.859L608.421,240.061L608.526,241.958L608.274,243.573L607.895,257.638L608.663,258.857L608.221,260.606L608.832,264.329L608.137,265.83L608.474,266.778L609.653,266.89L608.695,267.928L608.432,269.079L608.305,272.215L608.642,276.084L609.137,277.674L610.2,279.084L608.295,279.151L607.548,279.772L606.906,279.174L604.937,279.151L605.085,280.482L606.085,280.696L606.706,281.643L609.148,281.565L609.874,282.906L609.242,282.929L608.411,281.801L608.674,284.744L611.337,284.756L610.326,286.571L610.126,289.75L610.326,296.141L611.326,308.525L612.221,318.494L612.852,320.465L613.158,324.867L614.894,338.95L616.957,353.217L618.315,361.372L619.126,367.736L619.578,368.017L620.178,373.785L620.673,375.943L621.42,381.091L621.978,383.361L622.641,387.283L623.946,391.35L624.536,391.406L625.346,394.877L626.367,396.371L626.199,398.539L627.504,405.064L628.104,406.501L628.209,407.972L629.072,410.252L629.335,412.497L632.251,421.32L632.935,422.308L633.135,423.553L634.261,426.381L634.725,426.875L634.093,428.468L634.693,428.233L635.293,429.108L636.819,434.415L637.787,435.862L638.787,436.311L640.019,439.025L639.272,439.496L641.019,443.725L643.25,442.682L644.261,444.869L644.282,445.564L641.429,447.1L641.945,447.268L642.756,449.119L644.576,448.132L644.766,448.491L647.039,449.119L647.439,449.825L645.934,450.666L646.429,451.552L647.545,450.913L648.66,450.924L649.071,451.653L647.124,452.763L647.618,453.637L649.555,452.538L650.387,453.996L647.966,455.296L648.787,456.552L651.86,455.229L652.913,456.339L652.113,457.09L654.965,460.094L655.239,461.248L656.481,460.419L656.228,461.596L658.712,462.313L659.207,460.61L659.523,462.28L661.796,462.123L661.575,460.621L662.396,461.26L663.691,461.136L664.08,459.511L664.607,459.455L664.217,461.08L665.112,460.778L666.333,456.888L667.491,457.381L668.238,456.159L668.785,456.395L669.406,455.263L670.648,455.285L671.606,455.812L672.711,455.352ZM657.481,454.781L656.839,455.386L656.754,456.608L657.828,457.785L656.091,459.186L654.976,458.076L654.081,456.473L654.355,456.047L655.512,457.269L656.46,456.372L655.386,455.24L655.26,454.209L656.66,453.805ZM428.477,279.839L429.403,280.662L427.782,281.508ZM434.14,242.963L436.15,246.26L433.94,245.086L433.655,243.302ZM447.633,0.046L448.433,0.569L448.075,1.48L447.244,1.73L446.875,0Z"
          fill="#e0e0e0"
          stroke="#333333"
          stroke-width="1"
          stroke-linejoin="round"/>
  </g>
</svg>