<?xml version="1.0" encoding="UTF-8"?>
<svg xmlns="http://www.w3.org/2000/svg"
     viewBox="187.33286864103138 -20 425.33426271793724 640"
     width="425.33426271793724"
     height="640">
  <title>岩手県</title>
  <desc>都道府県コード: 03</desc>
  <g id="03">
    <path d="M574.143,247.963L572.895,248.788L571.858,249.01L571.285,249.578L570.189,249.809L569.346,251.389L569.253,252.8L568.511,253.093L569.042,254.007L567.912,254.06L567.019,254.637L566.875,253.731L566.167,253.74L565.729,254.379L565.332,255.977L566.319,256.757L568.418,256.828L568.882,257.52L568.216,260.031L569.295,261.344L568.781,262.693L567.381,264.236L566.361,264.077L566.108,265.318L565.417,265.886L565.923,266.986L565.467,268.467L564.194,269.265L564.295,270.383L564.751,270.755L565.29,270.232L566.799,271.048L569.008,270.657L569.312,272.236L568.444,273.149L568.292,274.266L567.499,276.137L567.027,276.128L566.184,277.449L566.268,278.017L566.1,279.293L565.265,279.737L566.057,281.394L565.265,282.396L564.961,283.335L565.762,283.397L567.204,282.821L567.516,284.957L568.486,284.877L567.912,285.578L566.462,286.26L564.793,284.993L564.43,286.925L565.585,287.394L565.122,287.962L564.144,287.572L563.241,287.74L563.174,288.343L565.189,289.06L565.299,289.619L563.806,288.981L563.739,289.645L564.498,289.973L564.515,290.655L565.29,292.339L564.708,292.339L564.776,293.251L563.284,293.012L563.039,293.686L563.52,294.12L563.84,295.28L563.098,295.245L562.71,296.512L563.106,297.575L561.614,298.673L561.1,299.461L561.471,300.037L560.585,300.099L559.43,300.657L558.157,301.959L558.132,302.898L558.975,304.279L558.916,305.82L560.779,306.484L561.892,306.263L563.545,302.88L564.278,302.136L564.523,300.834L565.096,300.533L565.417,299.284L565.914,299.125L567.12,297.557L566.648,297.335L568.84,296.166L569.582,295.192L570.754,292.764L573.73,288.227L574.405,287.758L574.261,287.04L574.86,286.96L574.708,286.171L576.099,284.745L576.993,283.273L577.356,282.068L578.494,281.891L579.388,281.731L580.13,282.449L579.168,282.91L580.13,283.663L579.531,284.328L580.568,284.886L580.332,286.242L579.733,287.217L580.189,287.359L580.332,288.343L579.303,288.706L580.062,290.026L580.576,290.097L580.189,290.841L579.109,291.019L579.716,291.727L578.949,292.25L579.666,293.278L579.354,294.332L579.624,294.66L579.101,295.883L579.59,296.919L580.61,296.485L581.276,296.653L581.479,297.681L581.993,298.292L580.661,298.336L580.045,298.841L579.877,300.046L580.492,301.543L581.529,302.234L582.263,302.021L581.167,303.066L581.394,303.96L581.108,305.085L581.723,305.448L581.049,306.174L581.057,307.441L580.222,308.698L580.442,309.397L581.698,309.813L580.855,310.07L581.774,310.619L582.313,310.495L582.659,309.796L583.393,309.946L582.878,311.168L583.898,310.663L584.902,311.062L586.107,310.424L586.681,311.062L587.381,310.424L588.645,310.522L588.139,311.053L588.848,311.327L588.165,311.788L588.224,313.408L588.974,313.93L588.468,315.081L588.999,315.4L589.438,314.842L591.47,314.78L591.925,315.807L591.512,316.533L591.731,317.435L591.824,319.86L592.667,319.754L592.532,320.772L591.698,321.781L591.942,322.374L591.133,322.754L590.686,323.843L590.635,324.887L588.839,324.781L589.033,325.329L587.65,325.356L587.204,325.028L587.465,326.471L588.797,326.939L589.193,327.594L589.918,327.523L588.704,328.78L587.937,328.815L587.811,328.125L586.765,327.515L585.197,325.648L584.143,325.931L583.241,325.568L582.094,326.356L581.673,327.93L581.158,328.037L580.947,329.054L581.664,329.717L581.259,330.027L580.973,332.442L580.484,333.176L580.88,333.53L579.902,334.07L579.986,334.706L579.329,335.732L578.376,335.909L578.865,336.687L578.106,336.811L577.625,336.06L575.998,336.192L576.428,337.475L575.501,338.315L575.526,340.817L576.276,343.779L576.049,344.84L575.366,344.858L574.649,343.912L573.62,344.151L570.661,342.435L567.955,343.558L567.651,342.833L565.855,342.86L563.553,344.717L561.049,345.441L560.661,346.458L560.594,348.412L561.429,350.675L562.668,350.922L562.601,351.391L561.386,351.841L562.676,352.531L563.005,354.263L562.786,354.97L564.11,355.12L564.894,354.44L565.214,354.723L565.56,357.4L566.041,357.975L567.457,358.134L568.578,356.366L569.97,354.988L570.138,354.095L570.956,354.201L571.605,353.724L573.376,355.111L573.739,355.88L574.303,355.677L573.823,354.245L573.654,352.504L574.447,350.816L575.45,349.561L575.459,348.995L576.344,348.244L577.322,347.855L577.819,347.236L580.163,346.096L580.096,345.335L581.377,344.61L582.516,342.922L583.839,343.222L584.531,342.621L586.192,342.957L586.571,342.161L587.001,343.328L586.394,343.479L586.647,344.478L587.347,344.929L588.797,346.759L589.716,346.741L588.957,347.183L589.396,347.652L588.266,348.978L587.735,350.215L586.057,352.001L585.998,353.821L586.377,353.998L584.893,354.546L584.32,355.438L583.586,355.262L583.3,355.933L583.89,356.87L584.666,357.383L583.165,359.353L584.008,359.38L583.89,360.069L584.767,360.281L584.185,361.094L584.278,362.118L585.062,362.781L584.185,362.631L583.342,362.967L582.735,364.601L582.76,365.405L581.082,366.341L579.126,365.679L579.109,364.601L578.435,364.61L577.937,363.258L576.622,362.507L575.509,362.763L575.138,363.382L574.995,364.91L575.99,366.403L574.599,366.783L574.472,368.178L573.351,368.081L572.508,367.56L572.145,368.39L569.211,368.876L568.233,368.832L567.946,368.125L568.115,366.641L569,365.626L567.845,362.384L566.622,362.251L566.032,362.596L566.049,363.956L565.627,364.036L565.442,365.087L564.489,365.917L563.983,367.03L563.022,367.64L563.056,368.346L562.187,369.733L561.488,369.901L560.965,371.72L560.552,371.685L559.245,373.663L558.343,374.06L558.612,374.625L557.98,374.775L557.466,375.906L556.623,376.347L556.151,377.31L556.581,378.731L557.727,380.258L558.326,380.426L557.643,380.903L557.879,381.494L559.009,382.236L560.113,381.768L561.53,380.188L562.744,379.87L563.359,379.305L563.899,379.729L563.764,380.479L564.253,380.797L563.477,383.11L561.108,385.202L561.8,386.173L561.462,387.302L559.363,388.432L558.452,389.165L557.356,389.112L556.462,390.012L555.957,389.35L553.596,388.309L553.554,388.582L551.151,387.523L550.198,387.285L549.869,387.708L550.872,388.406L549.397,389.341L550.021,390.285L549.818,391.088L548.301,391.583L547.618,392.668L546.513,392.8L545.257,393.497L544.81,395.685L545.83,396.038L546.564,397.45L547.23,397.856L548.849,396.903L549.195,398.412L550.308,398.438L550.341,397.609L551.1,396.391L552.247,395.412L554.161,395.853L554.928,395.659L555.552,396.515L556.968,396.841L558.208,396.312L558.064,395.403L559.068,394.177L559.936,394.459L560.257,393.321L561.041,392.756L561.504,393.038L562.348,392.686L561.648,393.638L561.943,394.168L563.224,393.718L563.326,394.036L566.251,393.877L566.985,393.206L567.432,391.635L568.351,390.488L569.472,390.312L572.052,389.05L572.044,389.632L571.201,390.638L570.298,391.256L569.388,392.756L568.275,393.268L567.6,395.73L566.251,397.344L565.872,398.262L566.572,398.773L566.732,400.432L566.091,400.255L565.24,400.829L564.936,402.399L563.359,401.931L562.634,401.314L561.37,401.049L561.252,402.037L560.105,402.249L558.579,401.384L558.157,402.063L557.171,402.39L556.968,403.66L555.788,404.127L555.088,403.492L554.346,403.395L553.537,403.977L553.233,403.572L551.884,403.431L551.361,403.88L550.535,405.38L550.13,404.842L549.49,405.327L548.014,404.903L548.107,403.916L546.808,403.863L546.522,404.365L545.088,404.568L544.389,404.948L543.427,404.048L543.056,405.23L542.298,406.244L542.829,406.764L544.051,406.623L544.422,407.17L545.426,407.011L547.323,407.849L548.436,408.704L547.205,409.383L547.053,410.062L548.048,410.221L548.739,410.856L549.625,410.547L550.181,411.076L550.147,411.799L551.749,411.764L552.837,412.029L553.157,413.342L551.699,413.968L551.808,414.532L552.82,415.044L553.174,416.851L553.832,416.965L553.377,418.561L552.508,418.764L551.412,417.917L550.535,418.402L550.265,417.054L549.709,417.265L549.667,418.596L548.942,418.526L548.706,417.917L547.567,416.939L546.707,416.622L544.498,416.86L543.453,416.04L542.559,416.586L542.281,417.97L543.723,418.173L545.215,418.781L544.928,419.83L545.687,420.394L545.577,421.637L546.463,421.752L546.066,422.518L546.598,423.488L544.102,424.951L542.947,425.021L543.849,425.77L545.215,424.933L546.252,425.153L546.463,424.686L547.727,424.845L547.98,425.629L549.658,425.18L549.481,427.735L550.063,428.176L550.493,427.7L551.361,428.731L552.179,428.678L552.753,427.083L553.562,425.823L554.237,426.096L554.574,427.242L555.746,426.475L556.226,426.651L556.572,425.012L557.39,425.788L558.174,425.585L559.658,424.713L560.779,425.03L562.179,424.131L565.071,424.29L565.223,425.312L564.211,425.321L563.688,426.079L563.106,425.33L562.87,425.849L562.297,425.4L561.547,426.643L560.552,426.325L559.666,426.528L559.135,427.524L558.385,426.986L557.845,427.48L557.719,429.03L558.95,428.907L559.439,429.612L559.093,430.167L559.397,431.788L559.262,432.325L560.746,434.07L559.97,434.545L558.25,436.131L557.584,435.84L556.437,433.911L555.881,433.7L555.409,434.343L554.877,433.929L554.11,434.519L553.334,434.598L552.719,434.096L552.171,434.818L553.486,435.602L553.36,436.492L552.601,436.95L551.471,436.598L549.549,437.84L549.397,438.368L548.368,438.861L548.394,439.266L547.222,439.522L546.303,440.235L546.193,439.698L545.535,439.98L544.878,438.879L542.34,439.169L543.486,439.918L543.394,440.438L544.153,440.561L543.486,441.257L544.085,442.084L543.115,442.842L542.39,442.199L542.18,441.477L541.606,441.362L537.896,439.557L536.859,439.795L536.328,441.38L536.977,442.208L537.576,441.838L538.31,443.088L537.492,443.194L536.488,444.215L536.758,444.929L538.192,445.087L539.802,444.823L540.637,445.254L541.016,447.227L541.707,447.033L542.879,447.596L543.09,448.389L543.933,448.635L544.524,448.054L544.372,447.438L545.249,447.262L546.412,447.808L547.93,446.989L548.942,446.857L549.717,447.2L550.021,446.725L551.319,446.971L552.078,447.658L551.547,448.151L551.707,449.929L550.729,450.616L550.535,451.4L547.432,452.975L546.066,454.383L545.308,454.516L544.616,455.272L544.616,456.056L543.756,456.364L542.416,457.525L540.974,457.886L539.515,457.675L538.613,458.309L535.94,458.203L535.156,457.226L534.085,457.666L533.748,456.901L532.399,457.077L531.075,457.666L529.988,458.634L529.482,459.91L528.512,460.544L528.757,461.441L529.566,461.309L532.011,462.717L532.332,463.518L533.31,464.688L534.524,464.697L534.802,465.102L537.694,465.893L538.503,466.43L538.647,467.116L537.711,469.456L538.647,469.826L538.293,471.189L538.849,471.664L540.122,471.189L541.944,471.629L542.787,471.435L544.001,470.679L544.465,470.855L545.274,470.195L546.218,470.169L546.294,470.96L546.808,470.723L547.399,471.453L547.39,472.675L548.031,472.869L548.469,474.039L549.245,473.757L549.321,474.39L550.316,474.707L551.117,474.417L551.142,475.367L550.038,475.455L549.608,475.094L548.748,475.991L546.336,476.747L546.159,477.53L544.852,478.251L543.756,478.312L543.453,480.273L542.846,480.783L542.137,480.335L541.244,480.546L541.227,481.689L540.797,482.542L540.114,482.172L540.139,480.326L539.76,479.385L539.203,479.702L538.276,478.497L537.095,477.908L535.603,478.286L535.004,475.63L532.897,475.296L532.129,475.771L531.682,475.525L530.173,475.78L528.47,475.428L527.829,475.525L526.758,474.461L526.877,474.012L524.398,472.702L523.875,472.069L522.34,471.989L521.582,473.748L521.851,474.417L522.644,474.461L522.096,475.648L521.278,475.947L521.969,476.642L522.939,478.91L521.404,479.35L521.219,480.801L522.155,481.777L524.195,482.111L525.047,481.794L525.258,482.295L524.305,482.902L524.389,483.764L524.912,484.511L524.499,484.924L525.317,485.847L526.986,485.662L528.116,485.873L528.158,486.331L529.912,485.865L530.586,485.293L531.868,486.366L533.799,486.374L534.541,487.245L534.971,486.893L536.59,487.35L537.281,486.735L538.478,488.22L538.065,488.88L539.111,489.697L538.04,490.128L537.492,489.864L536.59,491.174L535.418,490.497L533.883,490.611L532.795,491.674L531.252,491.05L530.19,491.182L529.246,490.725L527.998,490.866L527.804,491.253L526.48,491.569L526,491.112L525.123,491.754L524.035,491.147L522.905,491.297L522.458,491.921L522.602,492.791L523.495,493.221L523.15,493.819L523.504,494.724L526.185,496.437L526.843,496.376L527.703,497.254L528.251,497L529.448,497.869L530.713,498.072L532.045,498.941L532.264,501.024L532.728,501.7L531.615,502.816L527.281,503.281L525.443,502.499L524.6,502.912L523.959,503.852L522.644,503.633L521.421,502.754L520.089,502.552L519.212,503.466L517.779,502.868L517.172,501.489L517.551,500.391L517.357,499.846L518.125,498.564L518.243,497.43L517.686,496.877L516.936,498.502L516.413,498.616L516.034,500.321L515.519,499.952L514.6,500.496L514.061,501.445L514.288,501.946L513.496,502.429L511.86,501.419L510.553,499.802L510.073,500.048L509.946,501.34L509.415,501.313L508.69,504.801L508.049,504.889L507.518,505.846L507.248,505.284L506.042,504.818L505.494,505.275L504.862,504.976L503.909,503.325L503.066,503.448L502.889,504.019L501.936,504.212L499.693,503.615L499.137,502.051L500.199,502.13L500.41,501.595L501.919,501.454L501.768,500.488L501.085,500.233L499.955,500.716L500.149,499.969L501.38,499.811L501.473,498.959L502.012,498.511L501.397,497.738L501.236,496.841L500.815,497.052L500.68,496.095L501.574,495.409L501.321,494.847L502.493,494.364L502.712,493.81L502.046,492.896L501.194,494.161L500.604,493.388L500.941,491.762L501.329,491.868L501.616,490.84L501.354,490.242L501.987,490.049L501.835,489.398L500.865,488.748L500.806,488.22L499.626,487.201L498.876,488.194L499.28,488.677L498.378,489.539L497.746,488.809L497.67,489.337L498.69,490.646L498.26,492.369L497.737,492.527L497.577,493.915L498.142,496.112L498.319,497.755L497.409,499.416L496.228,500.136L495.545,501.252L495.436,502.069L494.247,503.105L494.289,503.808L496.051,504.836L495.579,506.066L495.967,506.628L496.001,505.6L496.54,505.161L496.515,505.951L497.805,505.319L499.019,506.962L500.014,506.953L500.09,507.901L501.464,510.334L501.978,510.633L501.827,511.721L503.041,512.459L502.796,512.81L503.555,513.346L502.889,513.952L503.555,515.506L502.956,516.533L501.953,515.848L501.144,516.226L500.376,515.55L499.55,515.813L499.213,515.023L499.011,515.734L497.687,516.085L498.041,514.891L497.012,513.091L496.068,513.232L496.085,512.67L494.921,512.872L494.483,514.145L495.284,515.251L495.36,517.104L496.355,518.227L495.739,518.57L495.275,517.789L494.281,517.271L493.808,518.026L493.766,519.176L492.004,519.843L491.894,520.519L491.178,520.229L491.009,521.44L490.537,521.906L490.95,523.336L492.122,524.381L493.454,524.021L493.732,523.292L495.242,523.205L496.161,523.766L496.388,524.398L496.962,524.293L498.092,525.083L497.847,525.996L498.361,526.654L498.387,527.496L499.129,527.514L498.547,528.304L499.255,528.532L498.766,528.962L497.973,528.804L497.737,529.374L497.24,528.584L496.633,528.549L494.904,529.155L495.596,529.945L495.343,530.927L493.378,531.296L492.738,531.191L493.184,532.156L492.965,533.367L491.54,533.34L491.962,532.849L491.658,532.244L490.613,532.384L491.211,531.156L490.436,530.331L489.559,530.892L488.615,530.445L488.564,529.725L489.5,528.857L489.163,527.066L488.185,527.356L488.564,526.505L488.277,525.048L488.547,524.354L487.459,523.88L487.594,523.17L486.81,522.669L485.132,522.81L485.478,521.853L484.045,521.396L483.623,520.475L483.092,520.527L482.957,518.851L482.367,518.359L483.058,517.367L482.62,516.445L483.21,515.427L483.859,515.655L484.449,514.294L485.571,514.338L486.431,513.882L486.869,513.188L485.478,511.941L485.048,511.282L483.758,510.36L482.679,510.088L481.625,510.536L481.271,511.186L480.116,511.906L480.588,510.562L479.644,509.983L476.676,509.508L475.343,509.552L472.182,510.817L471.659,511.923L471.06,512.406L472.072,513.706L470.411,514.119L471.119,514.997L472.215,514.645L472.089,515.98L471.145,517.007L471.313,518.412L471.743,518.377L472.08,519.887L473.48,521.107L473.657,521.704L472.932,522.222L472.342,522.388L470.892,521.783L470.411,521.528L469.635,521.037L469.003,520.08L467.941,519.255L467.73,519.193L466.229,517.718L466.119,517.674L465.226,517.007L465.108,516.946L464.728,516.788L464.509,516.753L462.308,516.586L460.867,515.945L460.083,515.936L459.045,516.612L457.68,516.524L457.46,516.384L456.575,515.12L455.951,513.785L455.454,513.399L454.315,513.969L453.936,514.022L452.772,513.46L451.912,513.794L451.735,513.811L451.137,513.68L450.96,513.627L450.336,513.284L450.218,513.276L449.029,513.574L448.894,513.495L448.827,513.522L448.649,513.644L446.592,513.785L446.373,513.838L446.002,513.943L445.876,513.996L445.319,514.268L445.075,514.347L444.965,514.391L444.586,514.566L444.358,514.698L443.489,515.005L442.958,514.127L442.849,514.004L441.778,512.608L442.081,511.941L442.216,511.809L442.115,511.414L439.586,511.045L439.484,511.353L439.114,512.055L438.591,511.95L438.397,511.959L436.314,512.494L435.193,512.354L434.594,512.766L433.827,514.154L433.566,516.006L432.959,517.314L433.296,518.034L433.009,519.088L432.824,519.492L432.798,519.571L432.798,519.676L432.959,519.974L433.085,520.106L433.591,522.037L434.24,523.064L434.611,525.109L434.552,526.417L434.653,526.715L434.704,527.014L434.847,526.996L435.606,527.742L435.471,528.067L435.387,528.172L435.033,528.584L434.864,528.953L434.788,529.129L434.561,529.383L434.594,529.462L434.965,529.901L434.738,531.585L433.76,533.419L433.422,534.718L433.372,535.033L433.346,535.577L434.055,537.472L434.164,537.63L434.518,538.455L434.544,538.551L434.965,539.683L434.932,539.858L434.51,540.911L434.754,541.147L435.125,541.744L434.527,543.516L434.4,544.015L434.215,544.568L433.582,545.024L433.195,545.287L432.68,546.041L431.913,546.26L431.365,546.953L429.847,547.769L429.266,548.672L428.077,549.119L427.917,549.671L428.38,551.013L427.858,552.223L426.669,552.635L425.969,553.52L424.687,554.248L423.987,555.168L423.92,555.343L423.869,555.571L423.971,556.676L424.03,556.983L424.156,557.132L424.375,557.982L424.426,558.175L424.426,558.332L424.468,558.49L424.797,558.92L424.409,559.963L425.235,560.751L427.428,561.4L428.077,562.013L427.453,563.293L425.581,564.414L424.873,565.396L424.443,566.885L423.642,568.734L423.726,570.416L424.207,570.898L424.24,572.019L424.763,573.298L424.687,573.561L424.949,574.095L424.864,574.419L424.67,574.918L424.519,575.234L425.151,576.18L426.154,576.46L425.598,577.441L424.864,577.966L424.097,577.634L422.554,577.993L421.466,577.861L421.23,577.817L420.252,577.292L419.114,577.896L418.76,577.52L418.085,578.106L418.541,579.061L418.625,579.411L419.19,579.122L419.325,579.192L419.924,579.753L420.075,581.268L419.257,582.608L418.945,584.7L419.822,586.381L420.885,586.609L420.918,586.775L420.413,587.94L420.37,587.957L418.507,587.572L417.925,588.377L417.816,588.351L417.242,588.333L415.919,588.894L416.365,591.572L416.256,591.712L414.848,591.905L414.333,592.456L413.988,592.868L412.984,592.973L412.791,592.973L413.077,592.202L412.782,591.336L413.558,590.496L414.35,588.85L414.148,586.574L412.959,586.766L412.487,586.372L412.259,586.346L411.29,585.637L410.32,585.436L409.595,585.427L409.435,585.357L409.401,583.413L408.431,581.82L407.496,582.292L407.344,582.354L406.998,581.828L405.792,582.161L405.421,582.415L404.764,583.115L404.123,582.774L403.406,580.918L402.614,580.305L402.344,579.175L402.175,579.131L400.868,578.466L400.573,578.693L400.497,578.833L399.815,578.921L399.688,578.816L399.174,578.071L398.044,577.984L397.454,577.546L397.369,577.45L396.29,577.774L396.265,577.888L395.919,578.308L395.337,578.474L394.393,578.641L394.14,578.737L394.081,578.851L394.199,579.464L393.457,579.604L392.142,579.219L392.074,579.009L392.1,578.825L392.007,578.623L391.577,577.485L390.961,577.126L390.717,577.021L389.528,576.364L389.267,575.716L389.09,575.689L388.508,575.321L387.833,574.13L387.631,573.981L387.639,573.797L385.388,574.043L384.764,575.286L385.059,576.162L384.916,577.905L384.714,578.045L384.933,578.728L383.778,580.068L383.93,581.128L383.592,582.012L383.533,582.117L384.081,582.634L384.191,584.044L382.294,584.061L380.877,583.264L379.537,582.853L379.006,582.625L378.576,582.774L378.5,583.098L378.129,583.982L377.842,584.035L377.463,584.306L377.109,583.991L376.873,583.895L376.097,583.755L375.726,583.08L375.701,583.01L374.503,584.149L374.529,585.873L374.225,586.119L373.618,586.013L373.551,586.049L373.028,586.539L372.986,588.631L372.682,588.937L372.505,589.051L372.395,589.384L371.603,589.988L371.586,590.933L371.164,591.476L371.03,591.721L370.987,593.358L371.443,595.117L370.675,595.808L370.144,595.406L368.745,595.537L368.82,596.263L368.45,596.307L367.041,596.456L367.109,597.182L366.013,597.296L365.372,597.042L363.981,597.979L363.635,598.285L363.686,598.652L365.819,598.477L365.844,598.845L365.886,599.475L364.647,600L362.033,599.659L360.111,599.711L358.77,597.847L358.298,597.751L357.784,596.815L357.742,596.368L358.045,595.213L357.413,592.343L357.143,592.211L356.747,592.246L355.195,590.855L354.613,589.848L353.585,589.708L352.598,589.043L352.236,588.902L350.642,587.16L350.12,587.992L348.661,588.368L348.492,588.78L348.593,588.99L347.236,589.708L346.427,588.535L345.592,588.141L345.196,588.272L344.074,587.651L343.965,587.563L343.956,587.511L343.56,587.353L342.809,587.003L342.371,586.828L341.528,586.696L341.705,587.248L339.555,585.725L339.133,584.972L339.521,583.501L339.673,583.308L339.707,582.056L339.833,581.732L339.757,579.385L339.816,578.676L340.01,578.247L340.17,577.546L339.496,576.784L338.324,577.345L336.781,577.301L336.452,576.337L336.267,576.206L335.575,575.97L335.331,576.075L335.12,575.015L335.735,574.156L335.103,572.895L333.881,572.895L333.653,573.009L333.029,573.972L331.672,573.342L331.52,573.254L331.081,572.991L330.887,573.018L330.736,573.044L330.618,573.105L330.474,573.219L330.314,573.456L330.247,573.754L330.095,573.876L329.909,573.351L329.918,573.21L329.876,573.105L329.842,572.904L330.027,571.861L329.412,571.091L329.935,569.584L329.968,568.751L331.199,568.769L331.849,568.673L332.118,568.489L333.164,569.225L334.344,569.54L334.926,569.172L335.145,569.041L335.221,569.014L335.398,568.979L335.474,568.953L335.735,568.76L336.806,567.884L336.848,567.104L337.481,566.079L338.577,565.466L338.847,565.291L339.462,564.16L341.216,562.346L341.359,562.153L341.452,560.918L341.039,558.902L341.182,557.622L340.499,557.219L340.078,556.132L339.875,555.887L339.471,554.747L338.273,554.975L337.658,554.502L335.963,554.011L335.887,553.941L335.162,553.704L333.72,553.844L333.063,554.186L332.835,554.186L332.658,554.195L332.489,554.493L330.828,554.695L329.344,553.467L329.319,553.222L329.378,552.214L329.277,552.231L328.299,552.223L326.849,551.135L326.368,551.346L325.601,552.643L324.598,552.564L321.722,554.064L320.862,553.187L320.23,553.415L319.176,553.029L318.906,552.863L318.198,552.529L317.195,553.143L316.115,553.275L315.601,552.74L315.298,552.994L313.94,553.888L313.316,555.08L312.397,554.791L311.512,555.019L310.34,554.607L310.382,553.739L309.547,552.67L308.325,552.845L308.122,553.424L307.878,553.599L307.608,553.503L307.128,551.653L306.141,552.179L305.947,552.345L305.821,552.591L305.053,553.573L304.193,553.345L302.76,554.335L301.706,553.345L300.45,553.66L300.222,553.792L299.876,554.914L299.286,555.414L299.21,555.554L299.143,555.606L298.983,555.65L298.738,555.861L297.288,555.273L296.799,554.16L297.288,553.906L296.268,553.169L296.192,552.722L295.458,552.529L295.509,552.354L294.582,551.355L293.528,551.083L294.008,549.908L293.865,549.803L293.696,549.513L293.629,549.329L292.305,547.365L291.959,546.225L291.858,546.146L291.125,545.673L291.057,545.427L291.04,544.857L290.113,544.261L290.079,544.112L289.211,543.612L289.152,543.472L288.637,543.63L288.443,543.673L287.558,543.121L287.263,543.34L286.428,542.726L286.462,542.551L286.555,542.279L286.369,541.946L286.209,541.735L285.922,541.604L284.953,541.27L284.624,541.709L283.688,541.568L283.638,541.454L282.963,540.902L282.761,540.726L282.685,540.63L282.837,540.393L282.837,540.253L282.761,540.086L282.879,539.779L281.563,539.437L280.425,540.507L280.358,541.384L280.383,541.814L279.894,541.244L278.309,541.033L278.452,539.779L277.516,537.613L277.339,537.499L276.134,537.288L275.712,536.893L275.518,536.814L274.683,536.876L274.532,536.841L273.132,537.306L272.904,537.349L272.744,537.358L272.508,537.332L272.095,537.165L271.994,537.165L270.788,536.788L270.4,537.472L269.388,537.183L269.321,536.595L268.039,536.174L267.904,536.13L267.146,535.007L267.019,534.709L266.05,533.665L265.856,533.472L264.692,532.454L262.281,531.831L260.552,530.489L260.274,530.278L259.178,529.918L258.25,529.251L257.525,527.391L257.525,527.031L256.53,526.592L255.063,525.364L254.541,525.092L254.161,524.82L253.95,524.591L252.306,524.688L250.215,524.363L249.886,524.784L248.58,524.802L247.281,525.285L247.18,525.136L245.586,524.565L244.667,525.329L242.366,526.592L241.16,526.303L240.131,526.628L240.03,526.628L240.409,525.82L239.667,524.741L239.684,523.503L240.35,522.827L240.064,521.528L239.786,521.107L239.103,520.308L238.816,518.473L237.56,517.007L237.399,515.699L238.251,514.865L238.487,513.838L237.568,513.056L237.543,511.862L238.647,511.598L238.706,510.782L240.199,510.185L241.421,509.148L241.877,507.48L241.801,506.847L242.711,506.268L242.973,505.319L243.2,504.95L243.327,504.476L244.659,503.659L245.865,501.278L245.443,500.286L246.143,499.407L245.451,497.413L247.037,496.481L247.441,494.891L247.433,494.715L248.613,493.81L248.934,492.852L249.979,491.991L249.01,491.622L248.639,491.771L248.091,491.499L247.905,491.464L247.062,490.585L247.188,489.697L247.475,489.319L248.251,488.352L248.141,488.08L248.284,486.726L247.492,485.97L247.72,485.188L247.011,485.161L246.725,484.942L245.747,485.091L245.426,485.012L244.735,484.669L242.711,484.361L242.349,483.5L241.328,483.298L239.777,484.449L239.499,484.476L238.597,484.221L238.125,483.658L237.332,483.895L237.13,483.693L236.489,482.972L236.329,482.972L235.941,482.146L234.963,482.093L234.415,481.926L234.465,480.344L235.57,479.183L235.241,478.163L235.856,477.117L236.084,475.921L237.222,473.933L236.801,473.212L235.241,472.763L235.266,470.591L235.991,470.529L236.43,470.652L238.133,469.958L239.052,468.577L238.209,467.6L236.447,466.518L235.831,465.251L235.477,465.498L235.157,465.577L233.917,465.392L233.437,463.553L233.504,462.999L234.347,462.198L236.084,461.749L236.261,460.799L237.846,458.722L237.88,457.798L238.622,457.024L239.263,456.249L239.608,454.568L240.114,453.371L241.396,453.028L241.758,453.609L242.787,454.137L242.905,453.979L243.462,453.653L244.035,451.646L244.229,451.505L245.207,451.083L246.177,450.229L247.231,450.713L248.79,449.956L248.984,449.736L249.431,448.882L248.824,447.861L247.559,446.672L247.129,446.135L246.16,445.51L245.738,445.607L244.246,446.047L243.824,445.818L243.723,445.633L241.995,444.832L241.43,443.854L239.347,444.33L237.661,442.807L237.973,442.269L238.099,441.988L238.411,440.35L238.335,440.015L238.158,439.064L238.116,438.985L237.138,437.505L237.922,436.457L238.125,435.435L238.833,435.276L238.909,435.03L239.187,433.797L240.266,433.911L243.091,433.136L243.841,432.634L243.453,431.286L243.411,430.026L244.069,428.502L243.816,428.431L242.113,428.008L241.008,427.453L240.721,426.572L239.17,424.854L238.765,423.629L238.689,423.629L238.108,424.105L237.661,423.4L236.742,422.827L235.511,422.73L234.786,421.91L234.507,421.663L233.993,420.006L233.302,420.068L232.821,420.13L231.919,420.377L230.452,419.407L229.904,418.614L229.027,418.737L227.636,417.715L226.641,417.3L226.304,416.719L224.896,416.569L224.98,415.105L224.634,414.568L224.845,413.951L224.66,410.821L224.516,410.653L225.09,409.992L225.165,409.004L224.761,408.184L223.319,408.131L222.982,408.431L221.076,406.315L220.587,406.985L218.311,407.099L218.125,405.891L218.361,405.15L218.623,404.895L219.027,404.268L219.196,403.572L218.749,402.469L218.058,402.178L218.075,401.446L218.437,400.026L219.381,399.32L219.44,398.165L219.845,396.965L220.612,396.903L222.594,396.391L222.223,394.821L221.683,393.594L221.692,393.391L221.472,392.959L221,392.65L220.882,391.627L219.862,391.609L219.601,391.388L218.892,391.027L217.914,391.256L217.316,390.647L217.215,390.488L216.911,389.359L216.768,389.147L217.181,388.697L217.307,388.344L218.142,386.561L218.032,386.332L217.746,386.358L216.903,386.137L216.085,385.352L215.326,385.184L215.005,384.328L214.736,384.204L214.162,383.657L214.019,383.701L213.437,382.969L213.547,381.998L214.095,380.876L214.618,378.325L213.522,376.974L213.294,376.815L212.097,377.001L211.38,377.495L211.186,377.486L210.689,377.363L210.646,377.195L210.275,376.877L210.115,376.806L209.466,376.78L207.333,374.934L207.417,374.714L208.083,373.875L208.1,373.751L208.606,372.047L209.98,370.846L210.141,370.643L209.888,370.183L209.744,370.104L209.753,369.618L209.879,369.274L209.947,369.079L208.808,368.523L208.505,367.746L208.749,366.544L209.222,366.827L210.419,366.394L210.554,366.315L211.818,365.661L213.302,365.908L213.732,365.21L213.893,365.237L214.407,365.634L214.424,365.785L214.432,365.838L214.533,365.846L214.828,365.59L214.921,365.387L215.781,363.629L215.908,363.408L215.714,362.322L216.051,361.509L216.203,361.306L216.363,360.387L216.338,360.245L216.346,360.033L216.329,359.733L215.57,357.639L215.444,357.409L215.014,356.888L214.871,356.79L214.66,356.437L214.567,356.34L214.356,356.048L214.171,355.986L213.85,354.784L214.112,354.581L214.339,353.627L214.887,353.176L215.14,351.735L215.613,351.727L216.616,350.71L217.206,349.066L217.881,348.792L218.209,348.695L219.508,348.085L219.601,347.961L219.887,347.731L220.115,347.581L221.633,346.432L221.683,346.237L221.86,345.795L223.386,345.159L223.749,344.69L223.985,344.681L224.39,344.328L224.525,344.239L224.66,344.23L224.929,344.177L225.924,344.186L226.683,343.532L226.219,342.656L225.182,341.967L225.165,341.33L224.052,339.155L223.842,338.96L223.816,338.076L223.816,337.74L223.766,336.97L224.879,335.883L224.938,335.759L225.722,335.025L225.874,335.131L226.557,335.131L226.422,333.495L226.498,333.3L226.658,332.752L226.582,332.628L226.472,332.504L226.329,332.389L225.865,331.726L226.202,331.717L226.751,330.142L228.656,328.806L229.583,329.125L229.786,329.116L230.376,328.691L230.435,328.576L230.418,328.443L230.351,328.196L230.376,327.647L230.376,327.4L230.739,324.843L230.823,324.789L231.051,324.639L231.118,324.506L231.177,324.241L231.27,323.843L230.84,322.25L230.873,322.029L230.73,321.197L230.873,321.082L230.781,320.197L230.115,319.595L229.921,319.4L229.516,319.17L229.229,319.011L227.965,318.037L227.99,317.559L227.847,317.48L227.518,316.993L227.484,316.648L227.425,316.019L227.509,315.842L227.922,314.55L228.074,313.833L228.293,313.505L230.005,313.815L230.182,313.78L230.671,313.709L230.983,313.682L231.194,313.611L231.312,313.479L232.214,312.983L232.383,312.744L232.518,312.638L232.686,312.549L233.765,312L233.943,311.903L234.794,311.788L235.452,309.884L236.253,308.822L236.329,308.733L236.936,307.6L236.927,306.856L237.501,305.758L239.077,305.528L239.575,304.935L240.511,304.642L241.843,304.943L241.927,304.386L241.413,303.039L241.598,301.472L242.281,300.763L242.374,300.072L245.704,300.515L245.949,300.409L247.188,299.258L247.981,298.168L248.2,297.84L248.217,297.796L248.352,297.415L248.537,297.141L248.529,296.822L247.905,294.828L248.706,293.561L248.782,293.402L249.111,293.136L249.271,293.136L249.541,291.798L249.136,290.584L249.136,290.124L250.384,288.538L250.966,286.677L251.463,285.897L251.37,285.214L252.197,284.922L253.251,283.743L252.694,282.874L253.031,279.976L253.09,279.604L253.444,278.398L253.09,276.714L253.074,276.43L253.149,275.703L252.492,274.905L252.736,274.187L252.205,273.229L252.584,271.642L252.972,271.287L253.335,270.383L252.871,270.436L252.703,270.125L251.463,269.265L251.463,268.964L251.345,268.795L250.561,268.183L250.392,267.882L249.886,266.764L249.726,264.875L250.013,264.006L249.971,263.571L248.647,262.4L246.969,262.391L245.696,262.826L245.013,260.732L244.499,260.466L244.44,260.076L244.296,259.419L244.027,259.259L243.984,259.091L243.9,258.603L244.145,258.204L244.077,258.035L242.678,257.148L242.669,256.633L242.863,255.95L242.416,255.373L242.02,255.071L240.418,254.557L240.367,254.015L242.205,252.773L242.652,252.72L244.018,252.711L247.003,251.353L247.273,251.096L247.838,250.634L248.217,250.412L248.79,249.614L248.849,249.409L249.069,247.572L249.06,247.235L248.655,246.338L248.832,246.028L249.507,245.255L250.047,245.211L251.488,244.137L251.581,243.089L252.239,241.802L252.45,241.029L253.234,239.893L254.035,239.937L254.414,239.626L255.46,238.401L256.606,237.655L258.073,234.955L259.658,233.801L259.76,233.534L260.308,233.286L260.105,233.055L260.021,231.509L259.557,230.843L259.33,230.763L258.647,229.573L258.512,229.156L258.175,228.951L257.576,229.129L255.864,228.356L254.971,227.361L253.883,227.334L253.706,226.721L253.453,225.886L252.104,225.033L251.421,225.273L250.755,224.589L250.072,224.465L249.574,224.971L248.124,225.504L247.323,224.998L247.062,224.98L246.86,224.358L245.839,223.47L243.58,222.626L244.018,221.559L242.846,221.035L242.593,219.853L243.453,218.467L243.411,217.987L243.377,217.489L243.133,215.952L243.656,215.294L244.136,213.827L244.271,213.525L244.136,212.53L242.846,210.938L243.841,209.987L242.593,209.374L242.686,208.965L242.534,208.645L242.484,208.147L242.382,206.911L242.703,206.582L243.023,205.648L243.968,204.661L244.844,204.635L246.261,203.39L246.548,202.287L247.07,202.011L249.305,202.874L250.999,202.927L251.59,202.758L251.615,201.976L253.487,201.469L253.638,200.633L254.718,200.784L254.912,200.829L255.046,201.62L255.207,201.842L256.025,201.753L256.724,202.847L256.446,203.452L256.126,203.754L255.932,204.181L256.025,204.323L257.399,204.128L259.22,204.884L259.296,205.266L258.933,205.586L259.49,206.342L260.814,207.187L261.572,207.64L261.648,207.649L261.884,207.542L262.77,206.289L264.405,205.657L266.252,205.791L267.028,205.204L267.331,205.017L267.753,204.901L268.166,204.715L268.748,203.239L268.84,201.584L268.014,198.881L267.753,198.409L267.533,198.089L267.432,197.831L266.977,196.88L265.569,195.661L265.763,192.779L265.653,191.328L264.768,189.585L263.115,188.366L262.053,187.289L262.432,186.88L262.559,186.079L262.702,184.53L261.53,183.213L261.421,182.955L261.657,181.326L261.648,181.139L262.66,179.884L262.348,177.472L262.778,176.813L262.011,175.558L261.185,175.193L260.999,175.042L260.257,174.872L260.451,173.599L260.004,172.299L260.131,170.803L259.962,170.527L259.515,168.942L259.97,168.212L260.072,167.366L260.333,164.908L260.999,162.325L261.033,160.267L260.367,158.868L260.51,157.256L261.235,155.911L262.264,155.18L262.357,154.503L261.64,153.594L261.623,152.97L262.298,152.248L262.036,151.535L261.235,150.992L261.067,149.254L260.915,149.058L261.404,147.899L262.036,147.275L262.222,146.446L261.977,145.127L262.238,143.558L261.092,141.169L260.83,139.537L261.041,138.307L260.443,137.79L259.768,136.194L259.481,134.838L259.372,134.517L259.279,133.661L261.142,132.502L261.176,131.351L261.893,131.075L261.935,130.843L261.969,130.04L262.82,129.54L264.397,129.986L265.527,128.541L266.05,128.078L266.404,127.953L266.732,127.846L267.592,126.624L267.66,126.472L268.2,125.321L268.09,123.76L268.537,122.734L268.722,122.662L268.739,121.404L268.748,120.655L269.186,119.7L268.562,119.307L267.306,119.147L266.766,119.066L266.539,118.986L266.446,118.513L266.614,117.942L267.044,117.201L267.306,116.702L265.451,113.774L265.459,113.078L265.923,112.489L266.614,111.284L267.466,110.623L267.441,109.347L268.908,107.124L269.565,106.588L269.7,105.981L269.759,105.785L269.726,105.436L269.903,104.293L269.194,103.347L267.694,103.061L265.965,103.526L264.987,102.204L264.675,102.043L263.899,101.24L263.807,100.525L263.486,100.213L263.453,99.945L263.419,99.802L263.402,99.659L263.739,98.498L264.06,98.283L265.257,97.364L265.603,97.113L266.69,96.899L266.867,96.863L268.014,95.979L268.208,95.925L270.139,93.907L270.535,93.532L272.373,91.807L272.044,90.851L272.011,90.494L271.454,89.217L273.984,86.277L273.95,85.625L273.975,85.374L274.11,84.722L273.208,84.275L273.823,83.65L274.869,83.328L275.51,82.675L275.754,81.335L276.808,80.772L278.258,80.736L278.587,80.665L279.464,80.736L279.649,80.629L280.096,80.28L280.391,80.128L282.988,79.753L283.292,79.798L284.666,79.404L285.383,79.565L285.476,79.565L285.686,79.279L285.788,79.029L285.813,78.385L285.745,78.215L285.442,77.626L285.568,75.936L285.239,74.819L286.167,73.299L286.201,73.075L287.162,72.414L289.312,72.19L289.354,72.637L289.303,72.932L290.222,74.255L291.201,74.559L291.487,74.622L292.6,75.721L292.347,76.741L292.996,77.42L293.131,78.439L293.233,78.814L293.233,78.895L293.207,79.083L292.963,79.69L293.013,79.753L294.143,79.699L294.278,79.771L294.632,79.807L294.834,79.878L295.61,81.558L295.694,81.826L296.091,82.148L297.608,81.692L297.76,81.657L299.168,81.04L300.551,82.318L301.192,82.157L301.656,81.898L302.313,81.969L303.139,82.756L304.345,82.398L304.952,82.827L305.804,82.711L305.897,82.13L307.583,81.916L308.561,81.415L308.772,79.735L309.708,79.181L309.859,78.886L311.023,78.028L311.436,77.661L312.009,77.402L312.186,77.25L312.81,76.919L312.878,76.016L313.03,76.016L313.687,76.025L314.067,75.918L314.977,76.151L317.06,75.793L317.456,75.677L318.814,74.246L319.303,73.004L320.289,71.77L321.065,71.502L322.254,70.402L322.953,70.545L324.083,70.16L325.205,70.706L325.474,70.724L326.689,69.883L326.781,69.803L327,69.713L327.102,69.615L329.041,69.454L329.64,69.329L330.811,67.666L331.385,67.415L331.048,66.574L330.668,65.653L328.602,60.609L329.623,60.484L329.859,60.349L330.356,60.17L330.432,60.117L331.039,59.723L331.36,59.517L332.236,58.578L332.886,58.408L333.779,57.505L333.788,57.37L335.221,56.628L335.339,56.485L336.098,56.019L338.105,55.313L338.535,54.006L338.636,53.783L338.754,53.684L338.939,53.478L340.904,53.684L341.182,53.416L341.435,53.434L342.506,53.299L342.7,53.273L343.366,53.04L345.027,51.581L345.297,51.438L347.303,51.179L347.759,50.633L347.902,50.463L348.416,49.953L349.664,50.024L350.516,50.391L350.794,50.391L350.954,50.382L351.165,50.4L351.62,50.678L351.789,50.794L352.733,50.955L352.86,51.009L353.054,50.928L353.298,50.821L355.178,50.812L355.44,50.561L355.541,50.552L356.536,49.55L356.747,49.362L356.932,49.228L357.075,49.183L358.315,48.557L359.681,48.404L359.9,48.369L360.785,48.145L360.87,48.091L360.853,47.151L362.16,45.487L362.952,43.598L364.613,43.455L364.681,43.302L366.072,41.485L367.033,40.885L367.21,40.805L367.311,40.769L367.708,40.545L368.07,40.205L368.18,39.927L368.761,39.059L368.998,38.925L371.038,38.701L371.249,38.755L371.468,38.719L372.37,38.101L372.294,37.985L372.117,37.814L372.05,37.304L372.126,36.973L372.556,36.122L373.492,35.791L375.254,37.009L375.431,37.125L376.518,37.805L376.763,37.814L377.901,36.991L378.297,36.776L379.621,36.167L379.925,36.033L381.012,34.716L381.029,34.519L380.802,32.863L380.945,32.701L381.586,32.406L381.746,32.236L381.83,31.698L381.189,31.027L382.53,30.122L382.724,30.104L383.441,30.05L383.769,30.006L384.216,30.068L384.52,30.185L386.139,29.432L386.265,29.334L386.366,29.056L386.425,28.967L387.26,27.704L388.491,28.635L388.668,28.555L388.837,28.537L389.427,28.59L389.781,30.212L390.456,30.319L390.54,30.525L391.223,31.582L392.167,31.501L392.825,32.11L392.783,32.666L392.833,33.086L392.968,33.239L393.069,33.364L392.968,35.227L392.361,36.239L392.192,37.313L393.685,38.611L393.845,38.558L394.857,38.781L395.059,38.907L396.088,39.766L396.105,39.874L395.498,40.706L395.843,41.154L396.771,41.181L396.804,42.488L397.386,42.506L398.364,41.611L398.465,41.467L399.368,41.217L401.037,40.286L401.315,40.098L401.99,39.829L402.395,38.987L402.504,38.79L403.077,38.217L403.769,38.934L403.777,39.193L404.401,39.032L404.722,38.79L405.211,37.564L406.29,36.077L406.543,35.8L407.091,35.128L407.259,34.851L407.251,32.352L407.555,32.119L408.221,32.021L408.246,31.886L408.777,30.444L408.979,30.14L409.367,29.602L410.438,29.808L410.826,30.4L410.944,30.516L411.366,31.788L411.585,31.806L412.006,33.194L412.124,33.149L412.2,33.122L412.335,33.06L414.258,31.636L414.485,31.474L414.974,31.116L415.177,31L416.34,31.062L416.517,31.868L417.521,31.537L417.554,30.4L418.077,29.495L418.684,29.352L419.097,28.465L419.198,28.268L419.316,27.318L420.843,27.094L420.961,26.915L421.407,26.467L421.542,26.485L422.63,27.184L423.768,27.318L424.198,27.417L424.856,27.551L425.429,26.969L427.225,26.817L427.723,26.19L427.891,26.091L429.771,26.226L429.932,26.091L430.952,26.476L431.947,26.414L432.124,26.879L432.478,26.799L432.672,26.862L432.781,26.987L432.975,27.327L433.119,27.462L433.515,27.999L434.308,28.08L434.544,28.178L436.289,29.54L436.399,30.821L436.517,30.91L437.082,31.483L438.245,30.847L439.215,31.134L439.914,32.594L440.319,32.818L441.373,34.492L441.871,34.779L442.022,34.967L442.191,35.092L442.554,35.137L442.975,35.173L444.307,35.737L445.201,35.657L445.446,35.603L445.513,35.558L445.724,35.325L446.322,35.486L446.449,35.845L446.499,35.934L446.601,36.051L446.938,36.659L447.992,36.4L448.194,36.185L449.611,35.307L450.176,34.098L450.951,33.328L451.246,33.149L451.735,32.88L451.938,32.433L452.52,31.725L452.781,31.77L453.725,31.949L454.897,31.358L455.26,31.125L455.445,31.009L455.614,30.91L455.976,30.498L456.094,30.328L456.777,30.095L457.005,28.761L457.781,28.492L458.042,28.393L458.27,28.178L458.43,28.035L458.607,27.829L458.818,27.659L459.315,27.292L459.357,27.238L459.29,26.351L459.442,26.208L459.821,25.993L460.074,25.849L460.816,24.801L460.015,24.102L459.72,23.224L460.226,21.728L459.804,21.038L459.315,20.859L459.315,18.485L459.981,18.019L460.563,16.925L460.858,15.447L461.035,15.456L461.617,15.456L462.637,14.658L463.084,13.6L464.779,12.91L466.229,12.847L466.516,12.722L466.684,12.668L466.979,12.507L467.823,12.417L468.362,11.046L470.015,10.499L472.915,10.705L474.956,9.809L475.242,9.674L475.521,9.361L475.757,9.208L475.799,9.065L475.892,8.885L477.198,7.837L478.649,8.061L480.858,6.608L480.993,6.124L480.993,5.846L481.279,5.775L481.414,5.658L482.755,5.156L483.48,4.34L483.581,4.116L483.977,3.479L484.104,3.103L484.719,2.412L484.508,1.955L484.517,1.865L485.394,0.35L485.537,0.296L485.63,0.359L485.815,0.377L486.836,0L487.594,1.255L488.513,2.206L488.404,2.627L489.93,5.443L491.76,6.366L492.114,8.195L492.813,9.773L493.269,10.185L494.77,10.391L495.621,11.485L497.071,14.801L497.156,18.081L499.196,20.563L499.12,21.155L499.786,22.373L500.621,23.233L502.046,23.69L502.746,25.366L504.263,26.279L506.523,29.37L506.531,30.731L505.958,32.379L506.203,33.507L507.164,34.6L508.833,35.218L509.364,36.006L508.985,36.767L509.718,37.25L510.174,36.937L510.949,37.403L511.093,38.298L510.756,39.229L510.756,41.602L511.565,43.84L511.675,45.827L513.319,47.366L514.811,48.413L514.634,49.308L515.553,50.32L516.371,53.21L517.18,53.944L517.484,55.492L518.133,55.796L518.513,57.174L519.28,58.176L520.275,58.775L520.637,59.92L520.949,60.224L521.986,62.505L522.526,62.952L522.635,63.14L523.175,63.802L522.88,64.321L523.453,66.172L524.027,66.244L524.254,66.986L523.732,67.245L524.474,70.116L525.435,70.607L525.401,71.403L524.861,72.673L525.907,73.692L526.118,74.649L526.64,74.979L527.382,77.214L526.927,79.342L527.391,81.549L526.042,81.925L524.069,81.514L522.922,82.747L522.551,82.443L521.75,83.444L522.627,84.15L522.13,84.776L520.738,83.659L520.072,84.936L519.027,85.928L518.352,88.52L518.639,89.583L520.266,89.485L520.485,90.003L519.162,90.11L519.145,91.075L519.592,91.316L518.841,92.486L517.948,92.129L517.551,90.851L516.978,90.887L517.096,92.424L518.31,92.754L519.162,94.737L519.71,95.166L522.88,95.327L522.745,95.684L523.782,96.497L524.861,96.077L527.408,96.872L529.802,98.9L531.269,99.668L531.37,100.32L532.981,100.266L533.048,100.552L535.249,102.034L535.097,102.945L535.839,103.025L535.595,103.918L536.244,105.088L537.593,106.454L538.605,108.811L539.473,109.213L538.546,110.614L538.166,112.105L537.095,112.355L536.564,113.016L535.763,113.274L534.212,113.274L534.035,112.971L531.935,112.301L531.168,112.766L529.785,114.247L528.234,116.925L528.605,118.834L527.905,118.906L526.556,119.914L525.991,121.975L525.679,124.17L526.118,126.035L526.978,127.043L527.138,127.881L526.649,128.452L526.539,129.746L526.885,131.075L527.669,132.065L527.711,133.59L529.22,135.329L529.676,135.507L531.286,138.298L531.851,138.592L532.703,140.482L533.369,140.268L534.035,140.964L534.912,141.196L535.991,142.007L537.458,141.24L537.188,142.007L538.099,143.005L539.515,142.854L540.03,143.416L541.159,146.197L541.775,147.293L541.834,148.354L542.34,148.995L544.11,150.297L545.586,153.184L546.218,153.505L545.645,154.128L545.873,154.886L547.146,155.314L547.247,156.365L547.98,156.962L548.469,156.276L550.181,157.283L552.247,157.416L553.124,156.766L553.908,157.22L554.237,156.614L555.451,156.677L556.108,158.093L556.21,158.904L556.935,159.67L556.589,160.329L558.098,161.042L558.216,162.387L558.629,162.467L558.967,163.893L559.498,163.51L559.658,164.721L560.459,164.899L561.049,165.923L560.552,170.251L560.889,171.507L561.007,174.881L561.968,175.451L561.386,175.878L561.934,176.849L562.946,176.582L562.719,177.196L561.564,177.712L562.196,178.629L562.331,179.706L561.757,179.172L561.378,179.786L559.928,179.11L558.149,179.252L557.567,180.053L557.634,181.219L556.682,181.638L557.339,182.279L557.314,183.044L556.412,183.685L556.412,184.423L557.432,184.664L557.592,185.322L556.918,185.554L556.943,186.39L557.651,186.524L557.011,187.209L556.648,188.597L557.221,189.843L558.621,190.919L559.405,192.556L559.354,193.633L559.877,194.762L560.383,197.28L560.94,198.774L561.555,199.148L562.272,200.242L563.174,200.846L565.206,201.033L565.155,202.26L565.855,203.167L566.1,204.724L566.681,205.31L566.589,206.386L567.347,208.111L566.563,209.596L566.167,210.112L566.555,211.721L566.403,212.796L565.661,212.538L566.184,213.765L566.108,214.547L566.875,215.072L566.673,216.112L567.929,216.76L567.659,217.151L567.272,218.467L567.44,219.738L567.069,219.711L567.643,220.937L568.975,220.297L569.86,221.382L569.514,222.048L570.239,223.034L570.147,224.838L569.675,225.753L568.587,225.922L568.621,226.704L569.135,227.032L568.469,228.507L568.46,229.715L569.936,231.705L569.219,232.495L569.514,233.339L568.764,234.023L568.697,235.018L570.029,235.32L570.644,235.844L570.358,236.465L571.538,237.691L572.069,238.721L573.123,238.614L574.202,239.44L574.118,239.751L572.701,240.221L570.745,241.828L570.138,242.707L569.801,244.243L570.012,246.214L570.779,247.528L571.782,248.229L572.356,247.519L572.954,247.945ZM568.148,282.812L568.587,283.867L567.651,282.928ZM569.624,276.066L570.147,277.006L569.236,277.343ZM568.022,403.827L568.418,404.621L568.848,404.348L569.801,405.027L568.815,405.371L568.831,405.918L567.955,405.045L567.305,405.283L566.597,404.709ZM564.784,378.21L564.481,379.384L564.127,379.402ZM572.946,369.424L573.224,369.901L572.744,370.696L572.904,371.287L572.432,372.109L571.344,371.596L572.508,370.563Z"
          fill="#e0e0e0"
          stroke="#333333"
          stroke-width="1"
          stroke-linejoin="round"/>
  </g>
</svg>