<?xml version="1.0" encoding="UTF-8"?>
<svg xmlns="http://www.w3.org/2000/svg"
     viewBox="112.29800786677515 -20 575.4039842664642 640"
     width="575.4039842664642"
     height="640">
  <title>宮城県</title>
  <desc>都道府県コード: 04</desc>
  <g id="04">
    <path d="M383.126,540.485L381.927,540.777L381.677,540.667L380.43,541.094L380.43,542.336L378.957,542.422L378.862,542.202L377.983,540.497L377.793,540.363L376.902,539.571L376.783,539.62L375.916,540.277L374.016,540.168L373.754,540.168L373.267,540.131L372.804,540.082L372.198,539.766L371.984,539.79L371.141,538.694L371.462,537.633L371.509,537.207L371.248,536.561L370.214,537.341L368.088,537.621L367.969,537.609L367.197,538.096L366.983,538.231L364.441,539.412L363.99,539.656L363.491,539.839L363.182,539.888L361.448,540.265L360.676,540.375L359.797,540.387L359.583,540.521L358.419,541.484L358.205,541.532L355.675,542.495L355.449,542.58L354.76,542.836L354.642,542.909L355.936,544.115L355.913,544.273L355.628,544.639L355.485,544.712L354.653,545.431L354.606,546.101L354.665,546.43L354.63,546.722L354.618,546.868L356.388,548.61L354.44,550.608L354.06,550.863L354.642,552.386L354.713,552.544L355.616,553.835L355.794,554.115L356.221,554.468L356.542,556.575L356.554,556.673L355.948,558.512L355.806,558.913L355.236,559.924L354.998,560.058L353.489,562.116L352.492,562.712L352.492,562.846L352.337,563.224L353.703,566.706L353.763,566.84L353.668,568.836L353.608,569.056L353.668,569.518L353.62,569.652L354.06,570.675L353.145,571.685L353.121,571.868L353.062,572.72L354.261,572.841L353.739,575.239L353.679,575.592L353.822,577.637L355.117,578.903L355.176,579.085L355.283,580.022L353.739,581.252L353.644,581.385L353.727,581.921L353.632,582.164L353.596,582.347L353.62,582.493L354.06,584.123L354.166,584.282L355.164,585.681L353.881,587.701L353.81,588.443L353.644,588.528L353.216,588.832L353.145,588.954L352.789,589.343L350.615,589.429L350.437,589.38L350.116,589.319L349.759,589.307L348.88,588.978L346.849,589.489L346.053,589.161L345.946,589.21L345.341,589.283L345.234,589.283L343.832,589.1L343.606,588.991L342.846,588.455L342.727,588.163L341.207,587.616L339.686,587.944L339.378,587.908L337.964,588.966L337.584,588.942L336.741,589.185L336.55,589.039L335.826,588.273L335.624,588.261L334.662,588.127L334.448,588.151L334.365,588.175L334.246,588.175L333.296,588.115L330.552,586.752L327.618,585.657L327.428,585.572L326.596,584.89L326.406,584.878L324.719,584.075L324.506,584.014L324.09,584.123L323.745,584.063L322.997,584.817L322.7,586.484L321.156,586.983L320.788,587.178L320.051,587.591L319.742,587.774L319.552,588.029L319.445,588.248L320.182,588.918L320.301,588.589L322.189,588.261L322.736,588.577L322.736,588.772L323.722,589.952L324.007,589.806L324.969,590.39L324.981,591.266L325.836,591.29L326.002,591.241L326.798,592.203L328.129,592.422L328.449,593.103L328.675,593.322L329.661,594.283L330.041,594.721L330.219,594.964L330.896,596.132L332.607,596.497L332.916,596.533L334.234,596.801L332.797,597.798L332.737,598.638L332.44,598.905L332.025,599.38L331.787,599.526L331.526,599.696L331.3,599.866L329.982,600L327.582,598.857L326.05,597.494L325.61,597.446L323.413,595.828L319.909,594.988L319.623,594.915L319.041,594.696L318.341,594.441L317.248,594.125L313.494,594.186L313.15,593.784L312.781,593.346L312.33,592.847L312.176,592.677L309.301,593.249L307.365,595.074L305.072,596.035L304.621,594.113L304.478,593.516L304.312,592.981L304.027,592.239L303.944,591.752L302.78,590.438L302.376,590.329L301.77,589.721L301.354,589.55L300.095,588.054L299.857,587.445L299.169,586.752L296.793,585.888L296.365,585.876L295.26,585.474L292.6,585.486L292.6,584.44L292.386,583.99L291.792,583.612L291.542,582.018L290.854,580.899L289.155,579.475L289.238,579.256L289.404,577.041L289.274,576.895L289.024,574.375L288.466,573.292L288.787,572.294L288.098,570.869L286.957,570.078L286.922,569.226L288.561,568.276L289.523,566.73L289.737,566.706L289.749,566.548L289.654,566.28L289.25,564.368L291.531,562.846L291.626,562.664L291.697,562.432L291.649,562.238L291.234,561.483L292.006,559.254L291.139,556.77L289.511,555.041L289.333,554.115L289.476,554.006L289.606,553.945L289.737,553.738L289.963,552.495L288.193,551.253L287.836,550.254L288.205,548.561L289.309,548.098L291.269,546.539L290.806,545.504L290.842,545.394L290.675,544.188L290.462,543.957L288.003,543.226L287.777,543.031L287.694,542.97L287.385,542.714L286.827,542.495L286.423,542.434L285.211,542.215L284.831,542.227L282.016,540.911L281.956,540.655L281.018,539.315L280.852,539.096L279.462,538.194L278.856,538.34L277.229,538.559L274.152,539.534L273.594,540.838L267.215,539.144L265.778,538.438L265.089,537.353L264.424,534.319L263.889,533.259L263.675,532.674L263.616,532.528L262.523,531.468L260.967,531.273L260.361,532.028L260.409,533.247L256.774,533.527L256.061,534.904L255.859,534.928L253.377,535.635L253.056,535.586L251.488,533.795L251.369,533.722L250.502,534.307L249.053,532.601L247.069,531.602L246.926,531.09L246.641,530.87L246.701,530.578L246.701,530.298L246.202,529.847L245.644,529.81L245.477,529.761L244.978,529.518L244.86,529.091L244.194,527.897L243.648,527.58L243.612,527.592L243.541,527.69L242.187,529.944L242.888,531.151L242.104,531.882L242.329,533.113L239.443,533.929L238.956,534.039L238.172,533.905L237.934,533.832L235.285,534.478L235.131,534.539L234.608,534.77L234.335,534.794L232.363,534.941L231.662,535.574L231.413,535.538L231.057,535.404L230.902,535.44L230.237,536.086L229.548,535.367L226.602,534.356L226.139,535.002L226.008,534.941L224.963,534.941L224.31,536.464L224.357,536.866L223.336,537.122L222.872,536.976L221.958,536.159L221.091,536.427L219.546,535.915L219.036,537.28L217.776,538.316L217.622,538.45L217.337,538.535L216.208,538.742L215.911,538.706L213.666,538.742L213.559,538.645L211.754,537.731L211.73,536.829L209.331,535.27L207.846,532.857L207.834,532.564L206.599,529.956L206.801,529.237L206.147,526.995L206.551,524.813L205.969,523.253L206.04,521.961L206.23,521.412L206.159,519.84L206.195,519.657L207.454,517.633L207.727,517.133L207.822,516.963L208.262,516.524L208.642,515.939L207.323,515.646L207.062,515.573L205.589,514.792L205.256,514.805L204.651,514.329L204.496,514.232L203.522,513.134L201.538,514.171L200.446,513.988L199.863,514L199.685,513.89L199.246,513.878L198.83,514L198.699,514L197.108,511L194.625,512.427L193.045,512.537L191.632,512.134L191.251,512.256L189.244,511.013L187.914,509.306L185.966,508.489L185.562,507.903L183.53,507.708L183.02,505.147L183.091,504.769L183.079,504.684L183.031,504.562L182.853,502.891L179.61,502.537L179.349,502.549L177.496,503.391L176.261,504.598L175.928,504.903L175.405,505.489L175.192,505.806L174.526,507.098L174.633,510.732L174.586,510.976L174.075,513.305L172.875,512.769L172.151,512.476L171.521,512.33L171.07,512.208L169.514,511.805L168.789,510.988L167.102,510.94L166.057,510.184L165.713,510.208L164.275,510.025L162.778,510.635L162.244,512.061L163.087,513.342L161.341,514.256L160.343,514.305L157.885,513.585L157.255,512.829L156.934,512.671L155.449,511.952L154.855,513.695L154.071,512.72L153.905,512.354L152.895,510.574L152.183,510.11L151.102,510.525L149.379,510.074L148.12,510.452L147.443,509.464L147.728,508.367L147.182,507.391L146.339,507.574L146.113,507.513L145.008,507.781L144.319,506.452L142.621,505.111L140.043,504.513L138.511,504.476L137.928,503.549L135.6,503.074L135.268,502.61L134.104,501.452L133.973,500.695L132.334,499.037L132.298,495.511L132.904,492.937L133.771,492.291L134.65,490.644L135.149,489.411L136.194,488.423L136.551,487.935L137.75,486.678L136.752,486.007L136.669,484.848L135.351,482.383L135.481,482.139L134.852,480.626L134.555,477.55L133.759,476.537L132.595,476.171L132.963,474.047L132.536,472.643L133.617,470.678L133.759,469.079L134.496,468.725L134.697,468.822L135.363,465.734L134.531,464.964L134.27,464.818L134.163,464.476L133.83,464.073L132.987,462.84L134.84,461.216L136.087,461.729L137.572,461.301L137.81,461.912L137.94,461.997L138.736,463.011L140.459,462.364L141.955,463.89L143.464,463.89L144.367,462.828L144.652,462.4L146.279,462.461L147.491,461.765L148.477,462.901L151.304,463.402L153.881,462.803L155.568,463.304L157.196,463.316L158.811,464.195L160.89,463.902L161.46,462.425L163.04,461.717L165.974,462.437L166.318,462.742L167.779,462.754L170.428,462.229L171.2,460.776L173.267,458.859L172.495,456.16L173.505,455.391L175.607,455.733L176.154,455.77L176.878,455.635L178.684,456.429L181.321,455.77L181.606,454.304L183.685,452.851L185.075,452.558L186.761,451.104L187.724,448.759L187.973,448.539L188.032,447.831L188.151,447.159L187.617,446.377L187.011,442.993L187.284,441.955L186.678,439.853L187.545,437.752L187.652,437.519L188.923,436.102L189.862,433.499L189.137,432.118L190.206,429.992L191.881,428.489L195.718,427.046L197.476,427.022L196.312,424.15L196.739,421.644L197.571,420.336L199.115,418.685L199.899,416.717L201.028,416.191L201.633,415.788L204.057,414.296L205.886,413.832L205.636,411.985L206.456,410.909L206.515,408.806L206.587,408.317L206.646,407.192L208.654,404.795L208.772,404.648L208.927,404.195L209.117,403.865L209.307,403.559L209.461,403.351L210.566,402.067L210.471,399.976L210.043,398.973L210.055,398.618L209.782,397.431L209.735,397.028L210.222,395.499L209.426,392.293L209.283,392.122L208.309,390.948L208.238,390.776L207.668,389.883L208.036,388.072L207.133,385.955L207.311,384.267L207.406,383.777L208.44,381.195L207.858,379.996L206.48,379.041L205.66,376.985L205.672,376.85L205.696,376.801L205.933,376.777L206.207,376.716L206.682,376.471L206.801,376.361L206.919,376.287L207.074,374.476L206.599,372.958L206.48,372.419L206.634,369.726L207.014,369.04L207.145,368.869L207.751,367.473L206.587,365.429L206.943,363.935L207.858,363.004L207.228,359.123L207.929,357.923L210.519,357.041L211.267,357.188L213.619,356.612L214.605,355.767L215.187,353.881L216.398,353.146L216.743,352.583L216.921,352.546L217.04,352.473L215.935,349.619L215.769,349.19L215.401,347.72L215.341,345.037L215.591,343.922L215.472,342.82L216.921,342.305L217.384,342.366L218.311,342.403L219.891,340.259L219.903,337.294L220.9,337.343L221.091,337.465L222.647,338.691L224.179,338.776L226.008,339.548L226.638,337.367L227.398,336.007L228.93,334.99L228.919,334.353L229.275,334.206L229.465,332.368L229.988,331.902L228.966,330.872L228.681,329.365L227.861,328.262L227.826,326.509L227.351,325.014L227.351,324.634L227.16,322.93L226.982,322.709L226.543,319.988L226.543,319.902L226.911,318.357L227.778,317.303L228.051,316.776L228.325,316.138L228.574,315.856L229.156,315.28L229.679,314.9L231.413,313.845L231.674,313.943L233.385,313.882L233.884,313.919L235.725,312.877L236.485,310.694L237.507,309.615L237.34,308.842L237.542,308.205L238.362,306.868L239.811,306.34L242.615,306.426L243.375,304.501L243.565,304.01L243.779,303.372L244.099,302.575L245.584,301.582L247.71,299.178L248.114,298.994L247.746,297.705L246.76,297.031L246.451,291.645L245.525,290.259L245.727,288.136L246.428,287.719L248.209,285.485L248.102,284.504L249.065,282.245L249.29,280.552L249.243,280.049L249.504,279.091L249.1,277.14L250.454,276.06L250.894,275.679L252.593,276.293L253.578,275.053L254.351,275.912L254.493,276.182L255.645,277.582L256.833,275.47L257.071,275.434L258.306,273.838L259.708,273.592L259.791,273.236L260.527,271.874L260.646,271.481L261.323,269.688L262.226,268.915L264.139,268.645L264.02,268.166L263.093,267.675L259.648,266.902L258.912,264.507L259.625,261.806L258.817,259.448L258.793,259.08L257.546,256.906L257.593,256.66L258.175,255.346L256.061,253.676L255.942,253.16L255.61,252.742L252.474,251.268L250.276,250.961L248.423,249.377L246.618,249.18L246.439,249.057L246.309,247.952L244.04,245.937L244.681,244.696L244.753,244.536L244.705,243.664L243.434,242.706L242.626,241.428L242.531,241.342L243.505,239.966L245.145,239.093L245.192,237.938L244.23,237.275L244.42,235.591L245.774,234.043L245.263,233.797L245.145,233.76L244.396,232.986L242.175,233.527L240.857,232.286L240.512,231.966L239.799,232.04L239.502,230.823L239.752,230.159L239.193,229.901L239.253,228.561L239.241,228.451L238.968,228.07L238.944,227.91L239.003,227.713L239.134,227.406L239.11,227.295L239.015,226.939L238.944,226.644L239.015,226.361L239.3,225.992L241.201,225.919L242.199,224.493L243.018,224.149L243.791,222.169L243.779,222.01L245.002,219.403L244.99,219.182L244.016,217.842L244.503,216.022L245.644,215.555L246.725,214.313L246.926,214.153L248.34,213.292L248.221,212.173L248.007,212.063L247.307,211.669L246.986,211.276L247.128,210.071L246.63,209.554L246.19,207.968L245.418,207.328L245.822,204.241L244.218,202.556L244.86,200.489L243.589,200.194L240.607,198.816L240.643,196.258L242.08,195.261L242.021,194.117L241.949,194.055L239.882,191.804L238.267,191.189L236.948,188.641L237.329,188.026L234.798,185.885L234.24,184.482L234.478,183.338L232.648,181.098L232.589,180.199L233.611,178.944L234.133,177.048L234.395,176.519L235.143,174.094L236.034,173.343L236.105,173.33L237.447,173.884L237.649,174.229L239.122,174.586L242.258,174.131L243.482,175.916L243.85,176.371L244.8,178.956L245.216,178.833L245.465,178.882L245.846,179.165L246.333,179.239L246.843,178.648L248.197,179.301L248.162,179.694L252.664,181.11L253.4,180.138L254.731,179.522L255.253,178.537L257.213,177.848L257.285,177.737L257.368,176.506L258.354,174.266L258.377,172.358L258.615,171.927L258.817,170.499L260.124,168.11L260.729,167.864L260.967,167.803L261.181,167.692L261.228,167.101L261.181,166.707L261.205,166.128L261.739,165.574L262,163.715L263.735,161.941L264.447,160.377L263.972,159.626L264.637,157.249L264.626,156.498L265.861,154.724L265.338,153.566L265.707,152.914L265.6,152.729L264.436,150.499L265.552,148.787L262.761,148.442L261.893,147.777L260.23,147.543L259.803,147.321L259.007,146.594L259.886,145.042L259.518,143.009L259.197,138.24L261.216,136.17L262.357,135.578L262.666,135.332L262.974,134.937L263.165,134.617L263.438,134.37L263.853,133.914L264.554,132.719L264.697,132.016L264.946,130.833L264.293,129.786L264.768,129.046L265.053,128.664L265.695,127.974L266.372,127.616L267.488,127.049L267.512,126.038L268.652,124.806L268.759,123.918L268.474,123.055L269.234,121.773L269.484,121.045L269.912,118.801L270.624,118.086L271.349,117.753L273.107,116.89L274.283,114.597L272.941,112.796L272.703,111.81L270.601,110.712L268.462,111.551L267.607,112.266L267.001,112.451L262.369,110.725L261.703,110.108L261.49,108.751L259.993,107.987L259.114,108.295L257.855,107.629L257.665,106.889L257.688,105.779L257.712,105.063L256.394,104.027L256.524,102.128L256.073,99.772L254.873,98.563L255.645,95.355L254.648,94.269L255.277,92.023L255.396,91.801L256.275,91.098L256.014,87.729L256.085,87.235L253.804,85.989L253.65,84.014L252.878,82.891L252.961,81.941L250.739,81.472L249.694,79.83L248.221,79.176L247.556,79.497L246.285,78.608L245.952,78.411L244.765,76.658L242.246,75.818L240.868,76.436L240.156,74.942L239.882,72.324L239.146,71.744L238.706,70.744L237.744,70.312L236.438,69.596L234.062,69.534L233.527,68.917L233.337,68.423L233.444,66.274L233.088,64.583L233.622,64.052L234.062,62.174L234.43,62.298L236.497,59.766L235.677,57.407L236.283,55.826L238.552,58.963L238.79,61.088L238.754,61.483L239.087,62.31L240.31,62.384L241.961,63.78L242.781,63.014L244.955,62.915L246.036,61.174L249.278,59.68L251.025,60.26L251.025,59.89L251.286,58.334L252.557,57.234L252.878,55.851L253.887,56.901L254.659,57.395L255.669,57.864L256.002,57.815L259.387,56.987L260.159,54.245L261.703,53.516L263.093,54.134L263.723,54.677L264.293,55.246L265.992,55.209L268.047,55.826L268.427,56.518L270.078,57.259L270.624,58.642L271.943,58.432L272.549,57.037L273.725,56.11L275.756,56.221L277.383,55.789L276.908,54.64L277.573,54.393L277.953,54.381L279.509,53.43L282.087,53.059L284.011,51.256L284.439,48.748L286.031,47.722L286.755,46.487L287.171,43.966L287.848,43.67L288.264,43.361L289.262,41.866L292.528,40.914L292.73,40.136L294.904,38.813L295.997,39.431L296.151,40.42L297.565,40.531L297.696,40.42L298.266,39.11L298.717,39.159L299.109,39.122L299.275,37.306L300.927,37.194L302.649,35.13L303.065,34.624L303.682,33.623L303.635,33.289L303.635,32.078L304.241,31.855L305.203,30.706L304.894,29.42L306.046,28.209L306.474,26.849L306.83,26.453L311.32,24.129L312.069,22.806L316.488,21.965L317.117,21.768L318.305,22.262L318.923,22.46L322.332,21.805L322.866,21.965L323.045,21.953L324.494,21.495L326.192,21.904L329.435,20.123L330.73,19.047L332.975,19.851L333.118,20.061L334.947,19.381L336.788,19.356L337.251,18.763L340.197,19.22L342.514,19.084L342.81,19.406L343.345,19.789L344.082,20.173L346.148,21.904L347.55,22.522L347.55,23.029L348.572,25.65L349.878,26.589L351.422,27.096L351.814,27.393L354.25,29.284L357.647,30.162L359.286,31.596L359.559,31.867L360.925,33.338L361.104,33.759L362.173,35.341L362.363,35.402L364.168,35.996L364.263,36.824L365.689,37.231L366.235,36.268L367.934,36.799L368.076,36.799L368.658,37.034L368.991,37.071L369.217,37.058L369.537,36.997L371.509,36.342L371.723,36.391L372.899,36.305L373.172,36.416L373.766,36.972L375.465,37.269L375.714,37.429L377.033,40.482L376.831,42.249L379.064,42.545L379.753,43.348L379.717,42.743L379.812,41.507L381.416,40L383.269,40.482L383.103,40.914L383.21,41.149L383.21,41.347L382.996,41.68L383.103,41.816L383.388,42.063L384.338,42.842L384.409,43.002L385.728,43.2L386.191,42.582L387.557,43.052L387.961,43.237L388.187,43.534L388.448,44.003L388.317,44.386L388.27,44.633L389.446,45.498L389.862,45.189L391.109,45.968L391.382,45.906L392.107,45.684L392.19,45.881L393.413,46.586L393.461,46.796L394.767,47.636L394.791,48.439L394.886,48.785L395.92,49.452L396.062,49.563L396.549,51.169L398.414,53.936L398.509,54.196L398.747,54.603L398.949,54.752L398.272,56.407L399.756,56.79L401.063,58.198L400.992,58.445L402.025,58.716L402.132,59.346L403.57,60.384L402.881,60.742L403.57,62.31L405.613,63.138L405.957,62.841L406.183,62.78L406.278,62.706L406.385,62.508L407.216,61.804L407.703,60.223L408.024,60.038L409.794,59.593L411.279,60.989L413.298,59.593L414.51,59.914L415.591,58.531L415.769,58.185L416.042,57.951L417.432,57.21L418.109,59.816L418.489,59.951L418.834,59.704L419.119,58.889L420.841,58.642L422.017,60.149L421.958,61.372L423.609,61.952L424.856,61.631L426.151,62.039L427.03,60.359L428.942,59.099L429.37,58.741L430.094,59.494L431.615,59.309L433.028,58.445L434.026,58.914L434.406,59.149L435.891,59.692L436.782,59.371L437.994,60.606L442.044,58.494L443.458,58.605L444.539,56.777L445.216,56.481L447.259,58.012L448.637,58.025L448.779,58L448.696,59.42L448.732,59.766L450.823,61.495L453.163,61.211L453.4,60.791L453.65,60.779L453.97,60.779L454.897,60.297L456.928,60.1L457.95,60.433L458.057,60.532L460.444,61.224L461.311,61.89L462.998,61.569L463.568,63.175L463.853,63.521L464.447,65.052L465.409,65.62L465.208,67.423L465.79,70.263L465.659,72.003L465.457,72.275L462.986,74.831L462.119,76.423L461.739,76.67L460.195,77.534L459.304,78.978L459.245,80.077L457.736,81.311L457.368,81.583L457.261,81.62L457.011,81.669L456.904,81.706L456.596,81.891L455.776,82.41L454.113,81.965L452.64,80.929L452.26,81.188L451.345,81.324L449.611,81.299L449.563,82.472L448.827,84.594L449.694,85.68L449.433,87.149L449.48,87.433L449.54,87.581L449.528,87.778L449.789,88.519L450.003,88.346L450.098,87.927L450.324,87.593L450.526,87.433L450.692,87.347L450.906,87.309L451.179,87.272L451.797,87.643L452.01,87.766L453.923,88.655L454.802,87.297L455.123,87.137L456.845,87.137L457.736,88.914L456.869,90.123L457.166,91.616L457.51,91.468L458.484,91.801L458.746,91.986L459.209,93.344L461.383,93.405L463.034,92.616L463.984,93.689L463.758,94.676L463.485,95.281L463.402,96.28L463.509,99.586L463.331,100.043L463.283,101.807L463.069,102.078L462.523,104.151L463.117,105.211L466.146,107.358L465.897,106.581L467.084,106.766L467.702,107.012L468.759,107.506L469.318,107.728L469.329,107.802L469.484,107.925L471.064,108.801L471.622,108.616L472.798,109.171L473.938,110.823L475.851,109.812L475.708,109.516L475.946,108.936L478.001,108.406L478.737,107.234L480.982,109.689L481.493,109.886L482.883,110.823L484.332,111.021L485.152,112.439L487.337,114.399L487.896,114.35L488.276,114.535L489.167,118.58L488.739,120.207L488.798,120.836L489.523,122.155L490.188,122.291L492.077,124.916L494.785,124.843L498.468,125.323L500.214,124.584L500.154,123.696L500.119,123.178L497.113,123.425L497.042,122.907L497.529,122.476L499.489,121.156L500.392,121.514L501.936,121.354L501.841,120.33L503.825,120.121L504.348,120.059L504.241,119.036L506.212,118.851L506.961,119.418L508.042,118.444L507.4,115.966L507.46,113.66L507.65,113.314L508.244,112.55L508.267,111.218L509.384,110.367L509.538,109.898L509.788,109.738L510.216,109.306L510.275,106.359L511.011,105.668L511.106,105.619L511.962,105.767L512.389,105.421L512.354,102.991L514.04,101.388L514.076,101.486L514.599,102.436L515.692,102.633L516.024,102.769L516.523,103.213L517.058,102.831L517.462,102.757L517.984,101.511L518.091,101.054L518.697,100.845L519.445,101.166L521.334,101.745L523.33,102.868L526.002,102.843L525.848,100.857L525.076,100.129L525.159,99.981L525.634,98.735L525.42,97.242L527.048,95.355L526.739,94.392L527.024,94.195L527.226,91.74L526.81,90.506L527.689,88.753L530.861,88.408L530.849,88.667L531.134,88.877L532.084,90.555L532.904,91.073L533.153,91.11L533.521,92.023L535.196,92.949L535.541,93.097L536.408,93.603L537.014,95.207L537.144,95.491L537.109,95.75L537.204,96.046L539.057,96.589L540.102,96.391L539.936,95.528L540.019,95.367L540.375,95.231L541.706,94.997L542.525,94.763L543.012,94.17L543.048,94.01L544.568,93.553L544.687,93.689L545.519,94.306L547.11,94.429L547.835,95.478L548.013,95.626L548.975,95.503L549.082,95.305L549.498,94.985L551.339,95.922L551.577,95.984L551.957,97.576L553.074,98.439L554.083,101.054L554.986,101.536L555.913,100.549L556.435,100.191L558.134,99.722L558.621,100.462L558.835,100.376L560.153,99.71L561.519,101.955L561.567,104.693L561.792,104.792L562.814,104.804L564.18,105.088L565.546,106.087L565.867,106.124L566.532,106.679L568.207,106.408L568.492,109.615L567.375,111.933L566.283,113.117L566.698,114.338L566.294,115.423L566.568,115.423L567.981,115.275L568.468,114.695L569.193,113.919L571.177,113.647L571.331,113.45L570.701,109.676L572.566,108.887L573.374,108.912L573.528,108.949L574.348,107.814L576.973,108.357L577.033,108.332L577.745,106.692L577.698,106.457L576.201,106.137L574.966,103.768L575.405,100.82L576.558,98.933L576.344,96.798L575.5,96.009L575.31,95.91L574.514,96.317L574.396,95.824L573.754,94.479L574.704,93.652L575.203,94.183L576.807,93.331L578.185,94.072L578.517,94.133L580.05,94.318L582.224,93.813L583.305,94.281L584.338,93.541L585.122,92.159L583.708,91.764L582.818,90.432L583.031,89.987L583.305,89.284L583.423,88.827L583.055,88.075L583.162,87.704L582.426,85.903L582.378,84.323L581.701,83.644L581.582,81.274L582.711,78.67L583.316,76.571L584.314,75.189L586.951,73.608L587.83,71.806L586.916,70.942L583.827,70.028L582.663,68.917L583.21,67.447L582.746,66.842L582.687,66.62L582.687,66.398L582.616,66.126L582.307,64.928L582.129,64.718L582.045,64.286L581.903,62.73L581.974,62.409L582.069,62.162L583.055,60.865L584.861,59.84L585.847,58.593L587.521,58.012L588.258,56.308L587.605,54.418L587.83,53.64L589.505,53.01L590.325,51.737L592.463,50.589L593.235,49.613L594.316,49.304L595.041,48.241L595.587,47.871L596.478,47.228L596.739,46.45L596.917,45.745L597.761,43.25L597.238,42.409L596.894,42.076L597.488,40.593L597.535,40.346L596.941,38.752L596.906,38.616L596.407,37.454L596.252,37.231L595.254,34.562L595.29,33.796L595.361,33.351L595.836,31.521L597.214,28.938L597.535,26.564L597.012,25.946L596.965,25.835L597.286,25.477L597.393,25.229L597.63,24.71L598.129,24.129L598.248,23.981L598.438,23.523L597.369,22.472L597.167,22.497L597.096,22.077L596.953,21.656L597.036,19.814L596.514,16.933L595.599,15.486L594.886,12.765L594.708,12.58L594.482,12.159L594.482,12.011L594.518,11.9L594.779,11.331L595.183,9.847L594.708,8.832L595.563,6.989L595.932,4.379L597.012,2.425L597.856,1.843L599.436,2.041L602.37,1.287L602.643,1.274L603.379,1.423L603.902,0.433L604.045,0L607.608,0.52L607.751,1.076L607.561,1.262L607.133,2.202L608.642,4.169L608.796,4.342L609.544,5.579L610.768,5.146L611.089,4.961L611.623,4.713L611.778,4.651L612.122,4.54L612.906,4.157L613.084,4.082L613.607,3.934L613.916,3.86L616.814,3.662L617.064,3.489L617.159,3.452L617.349,3.563L619.024,3.142L619.19,3.155L620.069,3.637L620.318,3.711L621.162,3.897L621.411,3.872L622.623,3.402L624.262,4.194L624.797,4.12L626.4,3.315L627.101,3.86L627.98,5.74L629.227,7.521L629.536,7.719L631.46,7.843L632.921,6.89L634.026,6.903L636.057,7.806L639.158,8.041L639.467,8.09L640.001,8.313L640.167,8.399L641.427,9.339L641.581,9.401L643.695,11.479L643.992,11.566L645.489,12.728L646.38,14.076L647.473,14.769L648.15,15.127L650.193,15.981L651.024,15.746L652.474,18.083L651.274,19.356L651.975,19.9L653.079,19.591L654.042,20.074L654.837,21.57L654.624,23.709L652.592,22.954L652.117,22.04L651.06,22.114L651.013,23.845L651.749,25.39L653.341,27.183L654.41,29.865L657.427,29.531L657.201,30.533L656.275,30.001L654.968,31.497L655.526,32.164L655.503,34.265L654.255,34.834L652.248,35.118L652.45,36.094L654.053,37.306L654.79,36.614L656.263,37.849L656.037,39.345L657.344,39.122L657.641,40.259L659.351,41.112L658.389,42.113L658.46,44.337L657.237,44.782L657.771,46.091L659.054,46.252L658.686,49.625L661.383,51.194L662.155,52.343L663.295,51.873L663.925,52.726L663.117,53.603L663.675,54.443L664.875,54.554L665.124,56.011L663.889,55.147L663.105,55.703L662.927,56.888L663.746,58.074L662.962,59.519L663.366,60.668L664.423,61.236L664.958,62.99L666.087,63.372L665.588,65.953L666.977,66.151L667.702,68.707L667.239,71.621L666.063,70.954L665.588,69.238L662.701,68.299L662.178,69.361L660.694,68.892L661.394,67.645L661.133,66.954L659.993,67.015L658.27,65.336L658.615,64.126L657.748,62.434L656.833,62.273L657.605,60.791L656.892,60.297L655.479,60.927L655.313,60.408L656.572,58.766L656.108,58.222L653.935,58.296L653.626,57L654.873,56.16L654.731,55.134L653.863,56.011L652.878,56.036L652.521,54.912L653.293,53.615L652.474,52.442L652.2,50.675L653.495,49.724L652.628,49.267L650.953,50.008L651.31,51.107L650.3,52.701L647.948,50.638L648.459,52.157L648.221,52.973L650.668,53.59L650.846,54.999L650.074,54.072L646.998,54.035L647.093,55.283L644.634,56.419L644.931,59.334L643.969,59.754L643.482,57.135L643.291,58.679L642.543,59.099L641.973,60.495L640.821,60.408L640.334,59.124L640.381,57.518L639.823,58.309L638.041,54.332L635.737,53.034L634.62,53.183L635.095,52.108L634.537,51.083L633.836,47.278L633.765,46.549L633.955,45.918L632.09,45.535L631.033,47.451L630.415,46.895L629.69,47.883L631.258,48.118L631.187,50.02L631.852,50.181L633.682,53.998L636.616,55.554L636.758,57.494L635.523,57.37L635.321,59.285L635.677,61.433L634.727,62.286L634.584,64.471L635.475,65.385L634.442,65.484L633.563,66.472L633.028,71.633L632.256,73.337L632.72,75.929L633.599,77.176L634.822,79.83L635.024,81.089L636.271,83.286L638.053,82.04L639.882,83.57L640.536,85.36L639.906,86.335L639.027,85.236L637.934,85.187L635.808,87.322L635.808,88.494L633.575,87.26L631.508,87.618L630.261,88.445L629.429,90L629.536,91.949L630.225,92.023L630.011,93.381L628.443,94.553L627.042,93.06L625.367,92.936L623.335,93.504L621.851,95.009L622.076,96.564L623.038,96.305L621.862,98.945L620.413,98.624L619.95,100.536L618.358,99.463L617.574,101.227L615.697,100.512L615.092,101.56L613.239,102.387L612.075,102.646L611.861,103.633L609.544,104.447L608.582,105.298L607.525,109.467L607.858,111.329L606.171,113.314L605.719,115.793L606.29,116.742L608.487,116.841L608.226,119.369L610.15,119.159L611.706,120.885L611.789,123.08L612.668,125.188L614.403,125.705L614.878,124.658L616.03,125.496L616.422,127.098L615.02,127.296L614.248,129.231L614.997,129.219L615.496,128.158L616.458,129.514L618.121,128.886L618.833,129.49L618.786,130.907L618.049,131.4L619.19,132.337L620.247,131.252L621.055,129.675L623.704,130.439L624.096,129.687L625.759,129.231L625.972,130.463L625.236,133.286L624.167,133.767L625.711,134.42L626.234,136.034L623.169,136.909L622.468,139.324L623.205,141.53L624.155,142.294L625.794,142.614L626.068,145.079L624.797,147.198L625.509,148.528L624.69,150.068L623.621,150.832L624.416,152.778L623.668,153.591L622.813,152.667L622.801,151.743L621.518,150.918L621.732,149.699L623.252,148.565L622.848,145.867L619.819,143.206L617.99,143.169L616.6,144.586L615.151,144.228L614.617,146.04L614.094,144.241L614.533,143.847L613.726,141.629L611.956,140.015L610.625,140.273L609.224,141.247L609.96,142.023L610.4,143.797L609.224,143.76L608.642,145.029L610.067,145.966L608.523,147.567L607.311,150.856L607.858,152.236L607.026,153.911L605.613,154.761L604.389,154.774L603.272,153.209L601.241,153.197L600.493,150.955L599.768,153.197L598.747,153.948L597.713,153.234L596.965,153.788L597.369,155.414L599.661,158.284L598.925,159.257L598.735,161.424L598.082,161.609L598.105,160.34L596.941,160.353L596.324,159.515L595.67,160.427L593.817,160.771L593.425,159.725L591.596,158.567L590.527,158.875L590.515,159.762L588.864,161.83L587.343,161.424L586.06,163.53L586.737,164.392L586.06,165.106L585.942,163.284L584.647,163.333L583.055,161.51L579.444,161.646L580.109,163.591L579.943,166.128L580.953,168.615L581.701,169.526L580.026,171.201L579.171,173.527L578.268,174.918L578.933,176.273L580.988,176.716L582.437,176.113L584.231,176.839L584.73,178.353L585.17,177.011L585.965,177.22L586.405,174.931L587.094,174.204L589.137,175.62L591.049,176.002L592.012,175.435L593.556,176.297L594.494,177.331L595.468,177.22L596.347,175.78L597.666,177.134L599.139,176.088L599.673,177.343L601.396,177.811L602.049,177.282L602.512,178.057L601.883,178.784L603.439,179.424L604.555,178.587L604.722,179.879L605.898,178.931L607.216,179.141L607.739,178.119L607.988,179.411L609.331,179.251L610.186,180.064L610.53,179.399L612.158,179.854L611.279,181.922L611.718,182.87L611.611,185.836L610.887,187.977L611.588,188.691L610.602,189.527L610.269,192.53L608.535,193.649L607.406,195.298L604.722,195.138L604.021,195.729L604.674,198.029L602.12,195.913L601.099,196.307L602.524,200.059L600.196,201.215L600.208,201.941L598.996,202.298L598.782,201.596L596.704,203.687L595.932,205.926L595.064,205.508L593.199,206.443L592.19,205.053L590.895,205.151L589.802,206.283L588.27,206.553L587.605,206.172L586.512,207.316L584.92,208.201L585.3,211.62L586.559,216.563L587.474,217.067L588.781,216.477L590.301,216.92L590.8,216.231L591.726,217.08L591.94,215.764L592.522,215.948L591.655,218.395L592.451,218.727L593.485,217.78L594.043,219.809L594.934,220.497L595.92,219.92L595.694,222.981L595.124,223.78L595.741,224.554L595.278,225.82L595.611,227.148L597.69,229.164L598.367,230.442L600.683,230.491L600.73,229.446L601.55,229.385L603.225,230.319L604.389,230.049L604.152,228.402L605.268,226.607L606.42,224.763L607.573,227.234L609.034,227.234L610.804,223.706L611.968,223.62L613.108,222.575L613.262,223.854L614.023,223.559L613.761,226.841L613.037,227.173L612.478,228.512L612.324,230.614L613.452,231.13L615.543,231.167L615.175,231.905L616.042,233.453L618.477,234.977L617.075,237.164L616.327,237.459L615.294,239.278L615.614,240.801L614.201,241.723L613.749,242.239L614.854,242.78L614.664,243.504L616.149,245.36L616.386,244.278L617.111,244.389L616.327,246.686L613.536,248.812L615.068,250.888L613.785,251.219L611.991,252.288L611.124,251.121L609.913,251.526L610.412,249.389L609.616,248.504L607.501,250.2L606.705,249.979L607.074,246.478L606.492,244.893L606.824,243.283L606.04,242.214L606.278,240.9L605.506,240.003L604.187,240.642L602.512,240.851L601.978,242.399L601.479,241.379L600.267,241.035L598.842,242.19L598.509,240.961L597.226,239.671L596.276,239.438L594.91,238.184L594.554,237.066L593.116,237.041L592.404,236.366L591.358,236.55L589.137,236.206L588.008,238.221L588.151,239.007L587.094,239.978L587.367,240.58L589.446,238.971L590.313,237.754L591.251,237.902L592.653,240.003L595.326,241.735L596.715,244.192L595.789,245.863L597.072,247.497L599.329,246.33L599.673,248.996L597.25,251.981L597.975,253.479L599.032,254.253L599.008,255.727L600.065,256.599L599.887,257.655L598.509,259.559L596.989,260.639L596.656,261.634L594.542,260.615L591.679,262.223L591.964,264.569L594.423,264.777L595.207,265.711L596.514,265.674L597.808,264.949L598.046,266.067L601.384,265.76L600.837,267.184L598.723,267.982L598.545,269.185L599.721,269.811L599.471,271.321L601.645,270.978L601.324,272.217L601.895,272.586L603.593,271.849L605.268,269.553L604.223,272.156L604.65,273.236L603.261,272.88L601.705,273.433L601.55,274.12L599.756,274.267L598.58,274.857L599.448,275.532L598.545,276.882L598.616,275.728L596.858,275.409L596.929,274.39L595.765,274.955L595.813,275.974L594.934,277.177L593.508,277.103L592.855,275.716L592,275.655L591.311,276.551L591.109,275.581L589.315,276.317L588.127,276.391L587.818,275.409L585.68,273.506L583.863,273.85L583.685,273.028L582.734,274.132L581.06,273.126L580.644,273.985L580.917,275.262L583.411,275.299L583.72,276.416L585.086,278.416L586.797,279.214L587.64,280.441L587.771,281.607L586.916,282.565L586.797,283.78L588.389,283.89L589.957,282.957L591.204,285.817L590.729,286.921L589.41,287.976L590.764,288.381L590.907,289.719L590.17,291.559L589.256,292.209L589.885,293.007L587.866,295.264L587.569,296.013L589.161,298.196L590.218,298.441L590.99,297.718L591.239,296.123L593.615,296.049L595.73,292.761L597.226,292.651L598.105,290.663L598.129,289.498L599.721,289.682L600.624,287.89L602.001,288.32L602.346,290.713L601.099,292.369L601.099,293.755L602.429,295.092L603.118,294.221L603.415,294.994L602.833,296.332L603.95,296.81L604.9,295.657L605.743,297.411L605.553,298.257L606.765,298.883L607.299,297.742L609.117,298.282L609.711,296.663L611.053,297.055L611.694,296.233L612.954,296.54L613.559,294.565L615.317,294.774L615.306,296.356L616.054,297.951L615.092,298.196L615.484,300.294L616.303,300.416L615.175,301.471L613.476,301.839L613.559,303.188L612.324,304.525L610.97,302.98L610.934,300.711L609.366,300.122L607.561,301.594L606.717,301.68L607.181,300.502L605.304,299.533L604.199,299.766L604.021,301.606L603.023,302.072L603.522,303.164L602.572,303.004L601.55,303.74L598.687,304.145L597.511,305.298L596.573,304.072L596.181,305.457L594.874,305.175L593.793,306.831L593.758,308.585L595.991,311.013L597.321,311.307L598.842,309.394L598.782,309.983L600.493,310.804L602.227,309.713L604.365,310.338L605.601,309.541L606.468,310.657L608.297,311.65L607.774,313.612L608.986,313.772L608.19,315.304L609.437,316.187L610.079,318.124L609.592,319.73L610.649,321.802L611.267,321.753L612.146,323.249L613.631,324.254L612.882,327.759L612.265,328.005L612.526,330.051L610.804,330.211L610.198,331.632L611.576,333.703L613.144,333.789L612.633,334.684L613.298,335.015L615.816,334.733L615.567,335.897L616.268,336.461L616.588,338.029L616.256,339.107L616.101,342.305L614.902,343.8L612.431,343.628L611.671,344.425L611.564,345.968L610.566,346.176L610.827,348.1L610.293,349.631L610.423,351.652L609.984,353.293L610.542,353.942L609.865,354.604L611.017,355.865L609.568,356.612L610.376,357.396L609.437,358.155L608.582,357.249L608.107,358.07L606.147,356.098L605.708,356.6L604.71,354.836L604.389,353.232L604.282,349.361L604.686,348.418L604.223,345.797L603.296,345.147L602.251,346.728L600.505,346.899L599.103,348.357L597.69,347.316L598.877,344.118L598.521,343.481L599.685,341.999L598.485,340.443L596.751,339.879L596.098,340.663L594.684,340.124L593.104,340.663L592.451,341.533L592.237,340.627L591.038,339.953L590.954,338.286L589.339,336.62L590.254,334.733L589.553,334.721L588.543,336.73L589.422,340.222L588.151,341.288L587.106,340.921L585.312,337.992L583.934,336.779L582.105,337.11L581.463,336.51L582.378,335.321L585.015,333.287L585.716,333.495L588.317,332.993L589.066,332L588.65,331.105L590.859,329.917L590.479,327.539L588.757,326.914L588.187,327.478L587.118,325.921L587.438,324.119L586.773,322.599L586.761,320.932L586.298,319.142L584.457,319.338L584.184,321.054L583.221,320.687L583.293,322.783L582.663,322.905L582.449,324.229L581.725,324.56L581.297,323.616L581.784,322.452L581.523,320.11L580.596,318.406L579.741,318.075L579.717,318.995L578.387,319.853L578.731,320.429L577.543,321.839L578.197,322.366L576.415,324.045L574.526,323.739L575.346,322.366L574.455,320.662L573.101,321.68L571.747,321.618L570.951,322.709L570.891,320.87L568.896,321.263L570.06,320.38L570.369,319.497L569.43,319.571L569.395,318.271L568.611,318.002L569.003,316.898L569.561,317.658L572.115,316.114L573.849,312.717L575.037,312.95L575.999,312.031L578.054,312.447L578.909,311.234L579.195,309.811L583.186,309.37L584.92,308.671L583.578,307.579L580.335,306.954L578.007,307.309L576.641,309.063L575.702,308.168L574.681,308.254L576.486,306.782L577.342,305.273L576.427,303.998L575.096,303.691L574.206,304.955L572.946,304.783L571.2,303.066L572.067,300.981L573.315,300.564L574.253,299.374L575.168,297.019L574.241,295.964L571.414,297.951L569.751,296.982L568.516,299.484L567.732,298.613L567.862,297.583L566.888,297.62L567.173,296.761L566.259,295.424L566.568,294.16L565.724,293.461L563.455,295.767L563.384,297.104L562.125,297.791L561.424,299.717L559.559,300.196L558.823,302.183L557.35,303.164L556.898,302.857L555.093,303.409L555.093,302.661L552.195,303.52L551.731,302.955L550.092,302.6L548.928,300.539L549.7,300.588L550.52,298.552L551.161,295.362L550.175,294.234L550.686,291.78L549.973,290.933L548.726,290.713L548.548,289.694L545.911,288.504L542.525,288.43L539.971,289.24L534.614,289.559L534.685,290.762L537.81,290.676L535.469,291.032L533.878,290.921L533.795,289.608L530.849,289.792L530.825,291.915L529.518,288.97L528.319,288.982L526.679,288.197L521.548,288.713L522.26,295.35L519.208,295.595L518.661,291.4L518.934,291.019L516.547,291.559L516.428,290.639L514.337,290.921L513.945,289.854L514.753,289.436L514.646,288.369L515.846,287.829L518.792,287.498L518.649,285.927L514.836,286.393L514.266,287.35L514.1,285.682L511.487,285.952L511.736,288.148L511.142,288.124L511.273,289.387L512.33,290.455L511.047,291.007L511.463,291.522L508.267,291.4L502.518,293.215L497.767,294.872L492.089,297.571L486.577,300.613L480.258,304.648L478.226,306.193L476.041,307.334L471.8,311.319L470.814,313.012L470.137,315.403L470.375,317.879L469.151,317.609L466.502,315.697L463.521,315.268L462.333,314.826L460.088,314.851L461.395,312.215L462.19,309.038L460.195,306.267L457.89,305.2L456.334,305.065L455.835,305.813L455.384,304.906L453.685,304.869L452.937,303.789L452.248,303.839L450.502,302.146L450.288,303.103L450.763,305.126L452.272,305.605L453.115,306.843L454.006,307.064L452.878,307.837L451.773,306.88L450.751,307.273L450.466,308.597L451.096,309.848L450.027,310.056L449.801,311.025L449.207,308.769L448.162,307.837L447.116,308.29L446.356,307.076L447.58,307.358L447.259,305.924L446.499,306.181L444.325,305.715L443.197,304.341L441.189,304.881L440.702,305.874L437.958,306.218L436.806,308.805L435.737,310.069L433.23,310.351L432.862,311.27L433.302,312.509L432.945,314.066L433.563,315.206L433.492,317.806L434.858,318.75L434.418,319.399L432.031,318.566L432.244,319.534L431.401,319.215L429.346,319.326L431.508,320.343L430.356,321.937L429.37,321.091L427.921,321.925L426.768,320.858L427.362,320.196L425.652,320.454L426.02,321.569L423.894,323.004L423.621,324.805L423.573,324.818L424.642,326.215L424.535,327.453L426.091,325.639L425.319,327.134L427.232,326.423L427.445,324.928L428.705,324.928L427.933,326.276L429.144,327.367L429.465,328.691L426.127,332.735L425.058,332.846L424.666,332.098L420.58,333.446L419.059,334.353L422.991,334.659L422.611,335.321L424.702,334.917L424.642,336.142L425.438,334.978L426.947,335.113L426.602,336.301L425.224,338.789L423.193,340.676L423.407,341.043L425.557,339.94L427.089,337.894L428.218,339.928L428.669,339.781L428.158,337.502L429.655,337.808L431.318,337.122L431.401,337.882L432.411,337.649L432.577,336.252L433.468,336.216L434.549,333.605L438.73,334.647L439.942,336.853L439.859,339.242L440.821,340.443L441.023,341.852L443.185,342.807L443.921,344.008L442.935,344.719L443.042,346.36L442.08,346.311L442.246,347.438L441.248,347.536L439.633,346.311L437.78,346.544L436.046,347.806L433.86,350.905L433.884,352.901L430.391,353.575L429.013,354.432L426.59,355.094L426.471,356.49L424.927,357.494L420.829,356.098L421.518,353.55L420.52,352.424L419.416,355.694L419.059,358.29L414.153,357.849L413.405,357.371L410.839,356.931L410.922,357.494L409.093,357.298L408.939,358.817L419.736,359.992L422.231,360.457L421.874,360.959L420.164,361.119L419.522,361.694L418.038,361.572L417.467,362.27L415.686,365.98L415.116,366.665L406.076,381.097L404.057,385.441L402.322,387.681L400.077,391.767L397.725,396.722L397.013,397.627L395.813,401.003L394.055,405.174L395.421,405.773L394.506,407.62L394.898,407.852L393.829,409.271L391.928,413.379L388.686,421.424L386.12,429.087L383.02,441.234L381.915,447.598L380.703,455.562L380.121,461.472L380.002,464.574L379.705,465.77L379.61,469.848L379.919,473.669L378.506,477.758L377.924,480.87L377.959,482.358L377.353,487.24L377.52,490.631L376.902,494.877L377.128,495.072L376.855,499L376.938,505.135L377.14,507.964L378.648,519.157L378.815,521.12L380.276,532.467L381.535,537.097L382.485,538.413L383.055,538.231ZM589.398,352.166L591.323,353.036L591.323,353.759L592.95,354.236L594.577,356.967L594.613,357.727L595.932,358.547L595.801,359.527L596.834,360.935L596.87,364.033L598.248,364.082L597.998,364.657L599.056,365.931L599.946,364.743L600.433,365.392L599.673,365.967L600.077,366.812L599.495,368.22L601.063,369.64L600.291,370.448L598.901,369.163L598.39,367.975L597.024,369.053L596.252,368.024L595.112,368.538L593.698,367.657L593.045,368.416L591.75,367.645L591.394,365.686L589.909,363.151L590.23,361.988L588.222,360.457L587.415,359.172L586.547,359.759L584.932,359.87L584.326,359.355L585.348,357.396L584.124,357.176L585.882,356.82L586.714,355.473L586.179,353.906L585.407,353.256L586.025,352.228L588.044,353.71ZM566.663,345.711L567.423,344.523L566.496,343.494L566.116,341.852L566.627,340.333L568.433,339.205L568.433,338.458L569.739,338.507L570.808,339.573L570.796,341.141L570.262,342.697L571.26,343.91L571.972,345.846L571.806,346.838L572.709,347.389L573.778,347.181L573.719,347.891L571.818,348.222L571.248,349.557L569.549,349.398L568.433,349.741L566.152,351.137L565.249,350.831L564.976,348.92ZM633.337,355.669L632.565,356.649L630.403,357.861L630.403,358.829L629.298,359.159L628.811,358.045L627.576,357.163L626.911,355.51L625.295,354.885L624.844,354.077L622.979,352.999L622.445,351.456L620.805,350.109L620.96,348.443L620.603,346.752L619.071,343.016L620.793,341.043L623.894,339.793L626.329,337.588L628.039,338.311L626.804,339.463L627.576,340.418L629.405,340.712L631.14,341.68L631.698,341.411L633.741,343.04L634.965,343.261L634.893,344.559L634.181,345.221L634.133,346.14L633.242,346.311L632.613,347.757L631.959,350.109L631.033,350.574L632.411,352.595L631.876,354.114L633.599,355.008ZM654.826,77.361L655.907,78.522L655.206,79.423L654.434,77.769ZM570.416,304.783L571.865,305.433L572.887,305.212L571.473,307.064L569.371,306.745ZM553.786,303.581L554.416,304.513L553.454,304.636ZM606.361,219.182L607.181,219.428L605.316,222.145L605.042,221.309L605.862,220.78ZM598.533,217.252L597.69,219.034L597.868,217.756ZM444.254,325.541L444.289,326.914L445.501,326.301L446.772,327.355L449.789,328.691L449.789,330.897L448.554,329.279L445.287,328.103L443.054,329.193L442.329,328.115L442.46,327.122ZM430.546,325.529L430.047,327.33L429.572,326.485ZM426.626,323.138L426.186,324.474L425.117,324.34ZM453.65,322.954L453.733,324.033L452.557,323.653ZM455.966,322.807L453.792,325.7L453.78,326.485L452.034,326.497L451.12,327.453L451.547,328.985L450.371,327.576L450.169,325.823L449.587,324.634L450.739,325.406L452.07,324.658L452.64,325.308L455.016,323.911ZM459.28,321.005L459.72,322.219L458.187,323.531L458.544,325.161L459.672,324.242L459.09,326.301L458.045,326.828L458.983,327.551L459.304,328.715L458.164,328.532L457.772,329.782L458.734,329.99L458.425,331.326L456.275,331.118L456.275,329.892L454.529,329.291L453.768,327.183L455.372,324.94L456.192,325.958L455.966,327.281L457.118,327.073L456.061,324.646L456.893,324.916L457.071,324.009L459.019,322.219L458.508,321.116ZM455.17,318.431L455.562,320.331L454.778,319.718ZM453.519,318.48L453.531,320.552L454.137,321.594L453.044,321.655L452.284,320.736L453.044,320.429ZM455.93,317.818L457.973,319.056L457.344,320.343L456.512,320.368L456.596,319.448ZM653.923,74.139L654.279,75.818L653.65,75.386ZM648.316,57.691L648.542,58.716L649.29,58.692L649.801,61.149L650.383,60.779L651.238,62.52L652.177,62.953L650.977,64.076L651.024,65.089L651.82,65.657L651.595,67.806L650.24,68.571L649.908,68.003L648.53,68.238L647.485,69.559L647.865,71.028L648.482,71.078L649.54,72.51L647.829,73.028L647.758,74.831L649.041,75.954L652.913,75.831L651.82,76.682L652.414,78.83L653.436,79.583L653.305,80.299L650.193,79.855L649.207,81.237L648.791,83.336L648.019,84.36L648.043,82.533L646.546,81.126L645.632,81.262L644.978,80.497L645.715,79.262L643.315,76.559L644.408,76.287L642.638,73.004L641.593,72.473L641.569,71.016L640.821,69.979L641.628,68.127L643.945,68.151L643.6,67.238L641.819,66.855L641.26,65.731L640.203,64.965L639.68,63.446L640.856,61.594L641.997,61.816L643.375,61.174L644.325,61.446L646.166,60.964L647.496,59.717L647.508,58.012ZM436.438,311.148L437.471,311.417L436.936,312.362L436.141,311.945ZM439.087,306.561L440.179,306.954L439.942,307.653L438.516,307.199ZM469.935,333.826L471.266,336.105L468.914,335.297L468.926,334.083ZM466.989,316.555L470.054,318.247L469.828,319.142L468.712,319.828L468.545,320.797L469.496,320L470.09,322.391L471.8,324.511L470.767,322.501L470.933,320.821L470.434,319.35L471.598,320.184L470.874,318.762L472.62,319.412L473.036,320.429L472.157,321.275L473.629,323.543L474.366,322.562L473.629,325.198L474.318,326.313L473.534,326.914L473.333,328.593L473.974,329.206L475.53,331.975L476.92,331.963L478.369,332.956L477.098,332.931L477.656,334.132L476.231,334.157L476.908,333.544L475.233,332.466L474.069,332.551L474.117,331.412L473.202,330.836L471.278,330.652L470.185,332.147L468.51,333.299L467.227,332.172L465.113,329.463L466.372,328.777L466.419,327.563L464.519,328.74L462.392,329.586L463.96,331.167L464.162,330.027L465.505,331.902L462.998,332.233L462.903,330.787L461.644,330.039L461.656,328.838L459.815,325.32L460.456,324.205L460.896,325.002L461.062,323.396L461.644,325.014L462.986,324.671L463.521,325.198L464.471,323.8L465.255,325.32L466.122,325.32L466.74,323.457L465.457,322.415L465.505,321.606L464.043,320.38L463.343,317.426L464.697,317.708L465.552,316.481ZM438.243,330.554L438.267,331.559L436.378,331.963L435.962,332.784L435.036,331.277L437.566,331.056ZM423.573,324.818L423.621,324.805L423.573,324.818ZM641.438,299.325L641.153,301.361L640.108,302.587L639.181,302.416L640.215,301.349L639.669,300.932ZM636.046,294.123L636.889,295.215L637.673,294.258L637.673,295.522L638.302,295.461L638.54,296.761L637.186,296.773L636.449,297.509L635.012,296.393L635.654,294.896L636.675,295.546ZM632.636,293.142L632.862,293.449L631.555,295.546L631.306,294.97ZM621.459,292.577L621.067,294.356L620.603,293.277ZM636.449,283.534L637.138,284.516L635.82,284.614ZM607.644,263.402L609.509,264.409L611.077,267.282L610.174,269.173L611.184,269.725L611.54,268.755L612.585,269.21L612.027,270.941L613.167,271.849L613.025,272.782L614.023,273.629L611.065,277.41L611.362,275.888L610.566,275.188L609.39,276.207L608.95,274.844L607.846,274.378L607.573,273.064L608,272.119L606.836,270.658L607.62,270.462L608.131,268.461L607.87,267.258L606.979,266.791L607.537,265.649L606.931,264.704ZM596.632,171.792L597.214,172.604L595.848,173.133Z"
          fill="#e0e0e0"
          stroke="#333333"
          stroke-width="1"
          stroke-linejoin="round"/>
  </g>
</svg>