<?xml version="1.0" encoding="UTF-8"?>
<svg xmlns="http://www.w3.org/2000/svg"
     viewBox="196.48639339792862 -20.00000000000182 407.02721320414275 640"
     width="407.02721320414275"
     height="640">
  <title>秋田県</title>
  <desc>都道府県コード: 05</desc>
  <g id="05">
    <path d="M306.642,271.47L307.342,272.336L312.243,276.76L307.289,272.401ZM508.631,348.295L508.473,349.04L508.044,350.381L507.957,350.565L508.018,351.217L508.053,351.576L508.395,352.081L508.543,352.164L508.517,352.66L509.83,353.67L510.127,353.836L510.548,354.075L510.749,354.277L511.44,354.901L511.537,355.82L511.388,355.939L511.537,356.803L511.501,357.032L511.948,358.686L511.852,359.099L511.79,359.375L511.72,359.513L511.484,359.669L511.396,359.724L511.02,362.378L511.02,362.635L510.994,363.205L511.064,363.462L511.081,363.599L511.02,363.719L510.407,364.16L510.197,364.169L509.235,363.838L507.257,365.225L506.688,366.859L506.338,366.869L506.819,367.557L506.968,367.677L507.082,367.805L507.16,367.934L506.994,368.503L506.915,368.705L507.055,370.403L506.347,370.403L506.189,370.293L505.375,371.055L505.314,371.184L504.159,372.313L504.211,373.112L504.211,373.46L504.237,374.378L504.456,374.58L505.611,376.838L505.629,377.499L506.705,378.215L507.187,379.124L506.399,379.803L505.366,379.794L505.086,379.849L504.946,379.858L504.806,379.95L504.386,380.317L504.141,380.326L503.765,380.812L502.181,381.473L501.997,381.932L501.944,382.134L500.369,383.327L500.133,383.483L499.835,383.721L499.739,383.85L498.391,384.483L498.05,384.584L497.349,384.868L496.737,386.575L495.695,387.63L495.205,387.639L494.943,389.135L494.374,389.603L494.137,390.593L493.866,390.804L494.199,392.052L494.391,392.116L494.61,392.419L494.706,392.52L494.925,392.887L495.074,392.988L495.52,393.529L495.651,393.767L496.439,395.941L496.457,396.253L496.448,396.473L496.474,396.62L496.308,397.574L496.15,397.784L495.8,398.628L496.002,399.756L495.87,399.985L494.978,401.81L494.881,402.021L494.575,402.287L494.47,402.278L494.461,402.223L494.444,402.067L493.91,401.654L493.744,401.627L493.297,402.351L491.757,402.094L490.444,402.773L490.304,402.856L489.061,403.305L488.571,403.011L488.317,404.258L488.632,405.065L489.814,405.643L489.744,405.844L489.613,406.202L489.604,406.706L489.753,406.789L490.015,407.266L489.849,407.476L488.422,408.723L487.897,410.492L487.88,410.621L487.188,411.491L487.101,411.721L489.315,413.636L489.989,413.664L490.155,413.737L490.54,414.067L490.584,414.241L491.1,414.369L491.302,414.379L492.046,413.865L493.288,413.673L493.525,413.838L494.662,415.24L494.12,417.889L493.551,419.052L493.437,420.06L494.041,420.821L494.19,420.775L494.785,421.343L495.065,421.471L495.398,422.36L496.185,422.534L497.034,423.35L497.91,423.579L498.207,423.551L498.321,423.789L497.454,425.64L497.323,426.006L496.894,426.474L497.043,426.693L497.358,427.866L497.463,428.031L498.085,428.663L499.1,428.425L499.835,428.8L500.106,429.029L501.165,429.048L501.288,430.11L501.778,430.431L502.005,430.879L501.997,431.09L502.557,432.363L502.942,433.993L500.885,434.524L500.089,434.589L499.669,435.834L499.607,437.034L498.627,437.766L498.251,439.24L498.233,440L498.951,440.302L499.415,441.447L499.24,442.17L498.82,442.82L498.548,443.086L498.303,443.855L498.496,445.109L500.859,444.99L501.367,444.294L503.345,446.491L503.695,446.18L505.191,446.235L505.611,447.086L505.533,448.111L504.937,448.797L505.086,448.971L505.279,452.22L505.06,452.861L505.419,453.419L505.331,454.938L506.793,455.094L507.143,455.698L508.176,456.128L509.62,457.189L510.53,457.061L511.099,457.884L512.622,458.891L513.558,458.635L514.057,458.571L514.775,458.507L515.309,460.227L515.597,460.483L516.35,461.334L517.628,461.434L518.582,462.029L519.046,462.761L519.65,462.267L519.728,462.267L520.149,463.538L521.759,465.322L522.057,466.236L523.203,466.813L524.971,467.252L525.234,467.325L524.551,468.907L524.595,470.215L524.997,471.614L524.218,472.135L521.286,472.94L520.166,472.821L519.877,474.101L519.798,474.357L519.063,474.522L518.853,475.582L518.039,476.67L519.055,478.206L519.098,478.289L519.282,479.276L519.361,479.623L519.037,481.324L518.906,481.616L518.582,482.174L520.332,483.755L522.494,483.261L523.08,484.276L524.875,485.108L524.98,485.3L525.417,485.537L526.966,485.08L527.404,484.98L528.411,485.629L528.857,486.186L530.17,487.42L530.8,488.48L530.336,489.366L530.135,489.595L528.516,490.381L527.422,489.878L526.415,490.764L525.4,491.203L525.198,491.349L524.603,493.433L524.026,493.771L523.903,493.935L522.835,493.387L522.459,492.784L521.129,493.14L520.604,494.383L520.245,496.128L519.58,496.932L518.809,497.736L518.774,498.695L517.129,500.85L516.945,501.837L515.142,502.303L514.267,503.134L514.197,503.709L514.696,505.618L515.983,505.81L516.315,505.728L516.683,505.472L517.322,506.787L519.151,507.91L520.026,508.924L519.072,510.357L517.304,511.078L516.849,510.951L516.096,511.015L516.07,513.27L517.689,513.735L518.127,514.484L516.945,516.547L516.709,517.788L516.07,518.875L516.411,519.933L515.265,521.138L515.212,522.781L515.781,522.954L516.797,523.009L517.199,523.867L517.365,523.867L518.031,524.615L518.241,524.825L519.063,524.579L519.553,525.163L520.49,525.427L520.779,525.4L522.389,524.205L523.448,524.414L523.824,525.309L525.925,525.628L526.643,525.984L526.975,526.066L527.99,525.911L528.288,526.139L529.023,526.167L528.787,526.979L529.61,527.763L529.461,529.168L529.575,529.451L528.769,530.455L528.472,530.847L528.34,531.769L529.216,532.681L529.408,532.717L529.977,533L530.362,532.845L531.369,533.228L530.283,534.122L529.951,535.117L528.726,536.056L528.734,536.239L528.314,537.889L526.669,538.856L527.387,540.927L526.66,541.838L527.098,542.869L525.846,545.34L524.463,546.188L524.332,546.68L524.096,547.063L523.824,548.048L522.879,548.65L522.958,549.306L522.485,551.038L521.216,552.114L519.667,552.734L519.606,553.582L518.459,553.855L518.486,555.095L519.44,555.906L519.195,556.972L518.311,557.838L518.477,559.196L519.781,560.718L520.079,562.622L520.787,563.452L521.076,563.889L521.374,565.237L520.682,565.939L520.665,567.223L521.435,568.344L521.041,569.182L521.015,569.191L520.621,569.073L518.109,569.556L517.654,569.41L516.779,569.046L516.315,569.191L513.059,569.811L512.508,570.785L509.2,572.498L508.937,572.789L508.622,573.791L507.773,574.684L508.001,575.631L507.292,576.478L506.845,576.642L506.845,577.534L506.88,577.78L506.425,578.518L506.119,578.891L504.85,580.412L503.633,580.494L503.511,581.832L503.222,581.86L502.889,581.823L502.469,582.788L502.373,582.87L501.332,582.788L501.218,582.06L500.413,581.605L498.811,582.579L498.662,583.153L496.255,583.854L495.52,584.955L495.214,585.183L494.715,585.401L494.409,587.259L493.875,588.169L492.702,588.924L492.387,590.772L490.969,592.101L489.07,592.374L487.923,593.075L487.643,593.084L487.153,593.266L487.503,594.112L486.304,594.431L484.808,594.349L483.941,595.032L483.495,596.06L482.523,596.215L482.121,595.195L480.904,594.649L480.624,594.14L479.11,593.685L477.859,593.712L477.438,593.293L476.975,592.893L475.951,592.438L474.813,592.975L474.244,594.995L471.75,595.605L471.504,595.641L470.761,595.295L470.192,594.931L469.448,594.158L469.211,595.177L468.275,595.987L468.082,597.134L468.082,597.407L466.796,596.979L464.407,598.08L463.61,599.363L462.008,599.436L461.405,600L460.188,598.972L459.287,598.917L459.042,598.308L459.068,598.016L458.893,596.451L457.221,594.14L457.317,593.466L455.541,591.682L454.63,590.099L453.939,589.971L452.11,590.572L451.261,591.154L450.771,590.363L448.399,590.099L447.06,590.754L446.85,590.891L445.406,592.065L443.874,592.019L442.378,590.654L442.299,590.536L441.73,589.261L441.677,588.624L441.756,587.878L441.1,587.359L440.732,586.84L439.489,585.82L438.991,584.236L438.255,584.919L436.487,584.482L435.945,584.846L434.536,584.3L433.739,583.462L433.555,583.344L433.144,582.861L433.162,580.931L432.523,580.175L432.164,579.046L432.19,577.953L431.289,577.07L430.685,576.797L430.335,576.642L430.256,576.505L430.291,576.15L430.168,575.458L430.273,574.438L429.731,573.709L430.203,573.09L430.895,571.204L430.702,569.665L430.886,569L429.801,567.287L430.028,566.896L429.818,565.693L429.801,565.574L430.195,564.226L428.847,563.743L428.584,561.091L428.112,560.937L427.814,560.791L426.773,560.709L426.423,560.536L426.029,558.932L424.9,557.838L424.733,556.927L423.631,556.927L422.598,556.744L421.793,556.808L421.556,556.772L419.666,557.601L418.747,556.143L417.25,556.99L416.288,556.754L414.091,557.155L412.848,556.817L412.078,556.015L410.984,556.161L409.654,555.678L409.05,555.997L408.586,555.541L408.638,554.63L408.131,553.655L407.763,553.035L407.448,552.424L406.109,551.503L406.091,551.33L406.039,551.075L405.916,550.838L405.776,550.683L405.619,550.546L405.628,549.352L405.216,549.069L405.216,547.382L404.831,546.434L404.752,546.033L404.901,545.65L404.866,545.413L405.155,544.629L403.868,544.802L402.836,545.34L400.044,544.62L398.757,543.589L398.573,543.526L397.147,542.905L396.709,542.924L395.904,541.738L395.781,541.62L395.781,541.41L392.867,542.65L392.464,543.79L392.832,544.912L392.473,545.586L392.438,545.832L391.195,547.775L391.055,548.139L390.592,549.06L388.491,548.422L388.316,547.993L387.598,547.465L385.9,547.419L385.332,545.322L383.914,543.927L383.529,543.817L379.196,542.185L378.05,542.641L376.457,541.209L375.923,541.811L375.59,541.893L374.645,542.924L374.33,543.653L373.131,543.772L372.195,542.778L371.284,542.997L371.066,543.106L369.683,544.018L369.42,544.054L368.23,544.209L368.046,544.155L366.821,544.073L366.611,543.799L365.963,543.571L365.657,543.243L365.569,542.723L364.239,541.975L363.845,542.085L363.346,542.194L361.806,541.538L359.915,541.337L359.557,541.036L359.644,540.881L360.414,539.65L360.056,538.747L360.213,537.397L359.854,536.877L360.309,536.357L360.729,534.578L360.301,533.912L360.073,533.776L359.714,532.343L359.46,532.17L358.786,531.76L357.561,532.088L356.187,531.696L356.178,531.787L355.986,532.745L353.877,532.964L353.666,532.909L352.38,533.155L351.26,535.481L349.964,534.98L349.702,534.87L348.818,534.305L348.231,534.642L347.409,536.175L346.534,536.403L346.227,536.43L345.518,536.147L344.731,533.995L344.205,533.648L343.497,532.371L343.575,531.732L342.017,530.792L341.86,530.199L340.267,530.82L340.162,530.875L339.611,531.13L338.193,530.829L337.79,530.428L337.449,530.072L336.862,529.305L335.952,529.232L335.865,527.49L335.401,526.714L335.287,525.555L334.403,525.318L331.97,523.84L330.141,523.182L326.561,523.109L325.765,522.881L325.03,522.781L323.743,522.471L320.627,520.28L321.888,518.528L321.94,517.779L320.741,515.178L320.339,512.841L320.619,505.527L320.531,505.581L319.113,505.928L316.243,506.632L311.508,507.8L306.843,508.942L305.206,509.335L302.353,511.946L301.452,515.698L298.117,514.648L296.585,514.137L294.818,513.553L288.376,511.462L287.702,513.041L284.648,512.457L279.536,511.453L276.543,510.859L271.047,510.987L266.846,511.06L266.268,511.069L267.012,509.946L267.94,510.248L268.964,509.417L268.386,508.568L269.445,507.965L270.023,506.093L270.513,505.865L270.312,504.431L269.848,504.029L269.699,502.741L270.811,499.91L271.73,499.334L273.506,497.133L275.178,492.29L276.237,488.078L276.097,486.405L276.569,484.45L276.114,481.936L275.099,480.958L273.996,480.803L274.075,480.227L272.727,479.742L273.2,478.919L272.71,477.969L272.876,476.515L273.97,475.838L273.76,475.381L274.504,474.513L275.65,472.565L276.578,469.154L278.407,465.486L279.046,463.3L278.399,462.303L278.267,461.279L277.602,459.851L278.189,459.001L278.022,457.281L278.381,457.18L279.221,455.048L279.151,454.417L280.342,451.937L281.182,451.607L282.101,450.216L282.687,450.088L282.792,449.255L283.606,448.88L285.392,448.743L285.759,449.035L287.177,448.587L287.886,448.862L290.687,447.955L291.133,447.351L291.623,447.663L293.452,446.747L295.789,443.424L297.749,439.68L298.983,437.006L299.99,434.002L301.023,431.466L302.125,429.588L302.554,427.875L303.255,426.565L303.596,424.934L304.419,423.12L304.672,421.554L305.022,421.132L306.16,417.54L306.064,416.422L306.895,414.883L307.175,412.949L307,411.473L307.534,410.556L308.191,408.026L308.803,407.366L309.845,403.158L310.589,399.114L311.805,393.529L311.534,393.272L312.024,392.217L312.488,389.786L312.724,387.575L312.952,387.226L313.319,384.731L313.249,383.832L313.722,383.455L315.017,375.599L315.219,373.369L315.709,372.497L315.831,369.494L316.085,368.797L317.258,360.743L317.494,358.337L317.057,356.693L317.564,355.875L317.844,353.523L318.203,352.384L318.081,350.39L318.553,349.453L318.842,347.818L319.857,335.317L320.234,331.511L320.295,328.219L320.68,322.572L320.627,320.419L320.785,315.865L320.715,313.096L320.295,304.371L319.892,302.484L319.997,300.763L319.717,291.297L319.297,288.018L318.562,287.032L318.693,286.342L318.247,284.61L317.73,283.808L316.698,283.965L316.068,280.722L316.741,280.593L316.829,279.699L316.391,277.939L317.319,276.419L316.601,273.949L317.188,272.981L316.917,271.7L315.096,272.17L316.006,275.59L315.324,275.94L313.792,275.11L313.512,274.06L314.527,273.783L314.203,272.493L313.346,272.686L312.427,269.166L313.967,268.769L314.781,269.027L314.947,268.493L314.466,267.082L312.759,267.525L312.523,266.492L313.241,266.75L313.862,266.391L313.538,263.551L312.33,259.55L311.158,256.516L308.471,250.973L307.202,248.777L303.596,243.269L301.101,240.113L298.52,237.215L294.039,232.896L291.282,230.689L289.032,229.231L287.413,228.704L285.645,227.449L281.856,225.676L278.565,224.854L274.136,224.651L272.727,225.159L272.552,225.851L270.093,225.676L265.279,226.368L263.196,227.098L264.614,228.991L263.485,227.513L261.91,229.517L261.63,230.255L263.424,230.874L261.682,232.286L262.549,233.274L261.525,233.745L261.358,233.246L259.897,233.2L260.553,234.732L262.872,234.114L263.012,234.585L260.877,235.277L261.192,236.283L263.214,235.665L263.914,237.861L260.649,238.932L260.054,237.114L259.809,239.015L257.35,239.098L257.332,237.751L255.328,236.911L254.033,237.4L252.746,238.849L252.606,240.685L250.751,241.165L249.105,240.741L246.812,238.267L244.974,237.354L243.924,237.501L242.97,239.412L242.445,239.089L242.182,238.138L241.404,238.046L240.502,239.024L241.264,240.178L239.522,239.873L239.461,240.547L238.62,240.141L239.364,239.116L238.472,238.498L236.993,239.218L235.925,239.292L235.338,240.824L234.988,240.362L234.061,241.34L233.64,240.519L234.017,239.006L231.82,238.147L230.954,237.224L230.428,237.215L230.603,236.145L229.833,236.006L230.026,233.994L228.888,232.619L228.713,231.483L229.439,230.902L228.626,230.061L228.836,229.304L228.652,227.744L228.074,226.553L228.494,224.614L228.302,223.506L227.435,222.287L226.254,221.89L225.58,222.721L225.107,222.241L223.961,222.259L223.173,221.89L223.646,220.874L223.147,219.562L222.429,219.378L222.114,217.614L220.924,216.949L221.615,215.923L220.609,215.027L220.066,215.11L220.547,214.261L220.162,213.115L220.031,212.293L219.733,211.461L220.241,211.23L219.961,210.316L219.226,210.149L219.593,208.893L220.635,208.948L221.318,208.292L222.158,208.634L223.663,208.68L224.425,207.387L224.433,205.548L223.829,204.014L222.788,203.367L222.018,203.626L220.959,204.753L220.276,204.707L219.996,203.219L219.165,203.321L218.928,202.637L219.296,201.287L218.806,200.908L218.666,199.827L219.156,199.134L218.683,198.838L218.998,197.535L217.537,197.017L216.845,196.231L217.003,195.288L217.869,194.549L217.729,193.615L216.793,192.256L217.449,190.887L216.486,190.48L217.685,190.332L217.318,189.167L218.141,187.808L218.561,186.264L219.427,186.55L220.906,188.206L220.53,188.77L222.026,190.545L222,191.063L223.05,193.411L223.558,193.624L225.081,195.492L226.744,195.584L227.733,195.334L228.179,194.669L229.177,195.834L230.796,196.804L233.597,197.156L236.896,197.951L238.174,198.801L238.437,199.67L240.791,200.132L241.824,200.76L242.708,203.127L244.913,203.94L246.016,204.624L249.228,204.263L251.827,203.395L254.479,201.962L256.282,201.297L259.38,199.42L263.433,196.213L267.152,192.866L269.857,189.861L275.353,182.906L277.681,179.595L279.23,176.903L281.523,173.628L285.234,166.622L287.177,162.577L288.639,159.763L290.669,154.93L293.268,148.401L294.144,146.002L295.439,141.963L296.262,139.86L297.653,135.468L299.622,128.628L300.813,123.974L300.795,121.592L298.502,121.119L299.754,114.961L301.609,115.323L302.406,111.335L301.207,111.094L301.373,110.212L302.799,110.407L304.042,111.279L303.351,112.633L303.78,112.717L304.497,110.843L303.858,109.674L303.815,108.774L305.46,108.561L308.541,108.608L310.23,108.867L308.515,108.236L307,108.311L305.749,107.689L303.351,107.94L303.237,107.587L304.401,106.01L305.224,102.373L305.084,100.897L306.081,98.587L307.561,90.502L308.725,81.69L309.066,79.731L309.661,73.526L309.854,72.532L310.387,63.705L310.282,59.689L309.906,57.998L308.698,55.674L307.228,54.465L306.808,51.602L306.405,50.923L305.215,50.058L303.648,49.984L303.263,48.998L301.775,48.208L298.24,46.794L297.303,45.436L297.198,43.976L297.443,42.702L296.944,41.772L295.745,41.344L295.325,40.758L294.853,41.418L293.864,39.734L293.032,39.455L291.938,38.376L290.59,37.632L290.669,37.139L289.601,36.506L288.087,36.441L288.166,35.353L287.299,32.757L285.427,30.747L285.068,30.691L285.934,30.393L286.363,30.263L288.761,29.593L288.91,29.574L290.231,29.248L290.94,28.457L291.684,28.243L292.087,28.448L292.708,28.969L292.91,29.928L294.8,30.989L294.888,30.998L295.561,31.286L297.041,30.728L297.723,30.998L298.852,30.803L299.08,30.663L300.401,29.528L300.506,29.379L301.312,28.643L301.425,28.439L301.627,28.16L302.589,29.016L302.922,29.127L303.211,28.988L303.386,28.979L303.622,29.1L304.13,29.658L304.173,29.807L305.136,31.231L305.364,31.37L306.782,32.077L306.992,32.403L307.009,32.803L308.226,33.734L308.374,33.762L308.497,33.789L308.532,33.631L308.471,32.58L307.937,31.314L307.911,31.165L308.935,30.309L309.118,30.226L309.241,29.611L309.25,29.379L309.381,28.039L309.827,27.862L310.046,27.704L310.204,27.462L310.204,27.285L310.16,26.484L308.672,23.794L308.821,22.994L309.67,21.83L310.93,21.216L311.009,21.03L311.998,19.652L312.33,19.605L313.101,19.205L313.214,18.32L314.527,18.469L314.65,18.497L316.059,18.628L316.365,18.656L317.73,17.687L317.932,17.659L318.019,16.98L317.888,16.831L318.177,16.011L319.717,16.244L321.03,15.918L321.214,15.9L322.229,15.639L322.343,15.648L322.535,15.695L323.069,16.616L324.347,17.082L324.54,16.989L325.135,16.365L325.616,16.747L325.844,16.914L325.975,17.008L326.237,17.212L326.544,18.032L327.778,18.162L327.979,18.432L328.443,18.888L328.522,19.009L329.502,19.484L329.607,19.698L329.791,19.959L331.06,21.532L330.465,22.901L331.156,24.25L330.972,24.855L332.732,26.186L333.318,27.806L334.596,28.001L334.946,27.815L336.162,28.178L336.294,28.178L336.469,28.048L338.027,27.555L338.438,27.415L340.748,27.043L341.554,26.466L341.807,26.503L342.98,27.154L344.521,27.024L344.844,27.573L345.063,27.834L345.693,28.169L347.715,27.108L347.943,26.959L348.8,26.568L350.621,26.466L351.26,27.024L352.117,26.214L352.975,26.214L353.588,26.028L355.303,25.172L355.382,25.6L355.855,26.484L356.651,27.024L356.773,27.275L357.71,28.262L358.533,28.318L362.235,26.912L362.655,27.834L364.292,28.83L364.519,29.351L365.972,29.453L367.197,28.671L368.405,28.448L368.939,27.983L369.298,27.694L370.243,27.294L371.494,27.313L373.499,25.218L373.901,25.619L378.234,26.056L380.395,25.191L381.752,24.083L384.325,24.511L385.043,23.887L385.55,24.111L387.257,24.008L387.835,24.93L388.123,25.274L389.716,25.628L389.821,27.043L390.749,27.685L392.307,26.829L392.534,26.447L395.58,26.633L395.887,26.605L396.657,26.28L397.497,26.559L398.013,26.093L398.521,25.982L399.046,24.353L399.011,24.074L399.344,23.776L399.221,22.472L399.912,21.812L399.606,20.89L399.939,20.071L399.799,18.302L400.823,18.339L401.208,17.138L401.041,16.123L402.276,15.695L403.063,14L403.37,13.711L404.455,13.022L404.849,12.11L405.356,12.082L405.838,12.054L406.223,12.342L406.512,12.612L408.026,12.92L409.54,12.789L410.485,11.756L410.625,11.374L411.255,9.53L412.078,8.896L414.108,9.8L414.091,10.48L414.747,11.411L414.887,11.616L414.835,12.165L416.121,12.408L416.384,13.395L417.609,13.516L419.018,12.808L419.185,12.799L420.567,11.625L421.136,11.355L423.473,10.554L425.722,11.439L426.256,12.082L425.171,14.773L425.11,15.164L425.188,16.067L426.282,17.306L426.099,19.102L426.414,19.344L426.335,20.676L427.114,21.7L427.193,22.64L427.473,22.64L428.707,21.709L429.179,21.569L429.468,21.151L430.405,21.355L430.912,20.992L431.096,20.946L431.175,20.909L431.376,20.815L432.873,20.378L433.153,20.387L433.853,20.248L434.483,21.151L434.579,21.169L437.363,21.542L437.634,21.486L438.605,22.147L438.579,22.305L438.588,22.482L438.772,22.891L439.516,23.915L439.472,24.288L439.201,25.293L438.64,25.647L439.752,26.01L441.039,26.894L443.445,27.685L443.664,27.927L444.312,28.439L444.662,29.49L445.038,29.723L446.228,30.477L446.325,30.579L447.191,30.337L447.41,30.291L447.568,30.421L449.169,29.76L449.283,29.742L449.554,29.825L450.508,29.686L450.605,29.677L451.742,29.537L452.162,29.751L452.372,30.635L452.504,30.747L452.232,32.468L452.215,32.598L452.311,33.445L452.337,33.631L451.865,33.734L451.235,33.892L450.797,33.966L450.815,34.208L450.893,36.637L450.832,36.841L451.278,37.306L451.497,37.213L451.734,37.185L452.101,37.111L453.055,36.981L454.053,37.613L454.587,39.279L455.436,40.144L456.101,39.948L456.162,40.032L457.449,39.697L457.51,39.902L458.07,40.404L458.149,40.711L459.969,41.53L460.407,42.172L462.84,41.641L463.488,40.86L463.094,40.627L462.98,40.479L462.84,40.19L462.7,40.004L462.455,39.772L462.542,39.465L462.604,39.269L462.56,38.897L461.606,37.502L460.669,36.934L460.591,36.776L459.794,35.52L459.803,35.353L459.829,35.092L459.007,33.473L459.103,33.371L459.54,32.654L459.672,32.524L460.179,31.621L461.457,31.128L461.615,31.417L461.965,31.603L462.402,31.603L462.735,31.5L462.927,31.473L464.704,31.482L464.818,31.454L465.247,30.43L467.54,30.16L467.977,30.393L468.52,30.291L468.634,30.207L468.993,29.844L469.08,29.537L469.229,27.769L470.559,28.141L471.898,28.923L472.073,29.118L473.176,30.412L473.194,30.728L473.78,31.51L475.513,32.366L475.618,32.357L476.003,32.31L476.134,32.226L477.29,32.496L477.657,32.45L479.329,32.217L479.303,33.082L481.403,34.58L481.631,35.995L481.648,36.385L481.648,36.469L481.666,36.785L482.366,37.725L482.296,37.883L481.272,39.707L481.998,40.079L482.235,39.93L483.687,39.214L484.746,39.986L486.506,39.716L486.619,39.716L487.495,39.576L487.6,39.39L488.974,39.195L489.446,39.493L490.803,37.52L490.759,37.204L490.733,36.878L492.299,36.758L492.641,36.878L493,36.664L493.236,36.637L493.367,36.664L493.437,36.534L493.507,36.367L494.435,35.353L494.75,35.241L495.476,34.98L495.704,34.98L496.71,34.32L497.034,33.11L496.483,32.906L496.544,32.319L497.113,30.886L498.356,31.054L498.505,30.896L500.089,30.244L500.255,30.784L501.122,31.082L502.863,30.793L503.012,30.17L503.187,30.151L504.684,30.812L505.086,31.361L505.253,31.584L505.191,32.71L505.226,32.868L505.226,33.324L506.504,34.05L506.793,34.99L507.038,35.111L508.911,35.334L509.375,35.269L509.865,34.953L509.891,34.729L510.329,33.966L509.996,32.673L509.944,32.496L510.399,31.835L510.381,31.594L510.25,30.7L510.04,30.607L509.217,29.844L509.629,28.885L509.874,28.811L510.302,28.513L509.524,27.769L509.585,27.471L509.917,26.447L510.793,26.494L511.16,26.522L511.939,27.089L513.681,26.633L513.812,26.624L514.705,26.838L514.889,26.829L515.457,26.196L515.886,25.498L516.516,24.083L516.77,24.046L517.19,23.785L517.435,23.58L517.838,22.314L517.978,22.165L518.214,22.035L519.86,21.169L520.595,22.156L521.278,21.979L521.558,21.867L521.82,21.7L522.17,21.458L522.975,20.788L523.133,20.657L524.463,20.173L524.638,20.043L525.435,20.117L526.004,21.02L525.96,21.746L526.625,22.873L527.868,22.836L528.095,22.817L528.804,22.975L528.988,23.078L529.933,22.631L530.135,20.899L530.66,19.736L530.634,18.637L530.642,18.404L530.739,18.097L530.992,17.408L530.94,15.062L531.097,14.708L531.159,14.605L531.229,14.223L531.229,14.112L531.202,13.786L531.684,12.733L531.605,11.886L531.272,11.374L531.202,11.16L531.22,10.852L531.5,10.349L531.482,8.868L532.682,8.272L532.865,7.853L533.382,7.062L533.679,6.931L534.134,5.832L534.239,5.729L536.541,4.994L536.813,4.798L536.97,4.444L537.136,4.146L538.204,3.606L538.79,2.571L540.41,2.637L540.48,2.003L540.795,1.91L541.18,1.37L542.204,1.267L543.228,2.152L543.867,1.826L544.164,1.807L545.74,1.733L547.306,1.034L549.109,0.596L550.133,0L551.052,0.298L550.501,4.686L549.267,10.275L547.901,16.449L546.536,22.621L545.775,26.093L549.459,28.792L553.678,31.882L554.676,32.478L555.131,32.208L555.437,32.031L558.561,31.78L559.262,32.198L559.655,32.412L560.609,31.975L560.741,31.835L562.316,31.026L563.288,32.254L563.428,32.431L564.066,33.241L564.662,33.315L564.863,33.231L566.228,33.027L566.403,32.85L567.2,31.724L567.401,30.784L567.751,30.505L568.084,30.253L568.355,30.039L570.867,31.203L571.094,31.379L572.232,31.333L572.337,31.333L573.703,31.072L573.948,31.11L576.512,30.086L576.775,29.918L576.941,29.751L577.23,29.76L577.387,29.937L580.652,31.007L580.792,33.036L580.389,33.548L580.179,33.743L579.838,34.208L579.138,34.58L578.998,35.52L579.531,35.39L579.724,35.511L579.741,35.65L579.987,36.134L579.785,37.53L579.873,37.865L579.61,39.046L580.783,39.865L580.8,40.097L581.264,42.376L581.369,42.711L581.273,42.953L581.238,43.092L580.8,43.641L580.459,45.418L580.818,46.134L580.879,46.348L581.098,46.999L581.186,47.268L582.236,49.268L583.05,49.658L583.435,51.155L583.277,52.327L583.172,52.466L582.595,53.201L582.367,53.219L582.945,55.767L582.875,56.789L583.514,57.691L583.102,59.271L583.023,59.439L582.253,59.513L580.424,60.981L580.275,61.139L579.68,61.604L579.566,61.725L579.47,62.125L578.061,61.985L577.982,62.115L577.763,62.134L577.676,62.004L576.985,62.004L577.011,61.279L576.398,60.87L575.934,59.308L575.103,59.522L574.166,60.693L574.534,61.047L575.996,64.253L575.672,65.675L574.298,67.7L574.306,69.559L573.519,68.704L572.836,69.057L573.239,70.005L573.274,71.148L572.819,72.55L572.766,73.089L572.819,73.907L572.705,74.381L572.897,75.709L571.725,77.725L570.403,78.254L570.14,78.393L569.72,78.44L569.221,79.805L569.405,80.056L569.108,81.022L569.23,82.099L569.248,82.433L569.72,82.768L571.436,82.768L571.961,83.752L572.679,83.761L572.897,84.755L572.705,84.922L571.97,85.6L571.523,87.122L571.593,88.06L571.55,88.311L570.718,89.536L569.992,91.245L569.992,92.247L569.554,93.602L571.024,95.747L571.226,95.793L571.961,96.387L572.197,97.464L569.965,97.696L568.968,98.382L568.933,98.614L567.97,100.192L568.311,101.352L568.18,103.106L568.495,103.718L568.565,103.894L568.539,104.562L568.434,104.822L568.215,105.119L568.119,105.119L567.375,104.952L565.948,105.36L565.633,105.314L562.937,105.704L562.631,105.861L562.167,106.223L561.975,106.335L561.065,106.26L560.723,106.335L559.218,106.372L558.124,106.956L557.87,108.348L557.205,109.025L556.12,109.359L555.481,110.008L556.417,110.472L556.277,111.149L556.251,111.409L556.286,112.086L553.66,115.138L554.238,116.464L554.273,116.835L554.614,117.827L552.706,119.617L552.295,120.006L550.291,122.102L550.089,122.157L548.899,123.075L548.715,123.112L547.586,123.335L547.227,123.594L545.985,124.549L545.652,124.772L545.302,125.977L545.32,126.125L545.355,126.274L545.39,126.552L545.722,126.876L545.818,127.618L546.624,128.452L546.947,128.619L547.963,129.991L549.757,129.509L551.315,129.805L552.05,130.788L551.866,131.974L551.901,132.336L551.84,132.539L551.7,133.17L551.017,133.726L549.494,136.033L549.521,137.358L548.637,138.044L547.919,139.295L547.438,139.906L547.429,140.629L549.354,143.668L549.083,144.187L548.637,144.955L548.462,145.548L548.558,146.039L548.794,146.123L549.354,146.206L550.658,146.373L551.306,146.78L550.851,147.771L550.842,148.549L550.825,149.855L550.632,149.929L550.168,150.994L550.282,152.615L549.722,153.81L549.652,153.967L548.759,155.236L548.418,155.347L548.05,155.476L547.508,155.958L546.335,157.458L544.698,156.995L543.814,157.513L543.779,158.347L543.735,158.587L542.991,158.874L542.956,160.069L541.022,161.272L541.119,162.161L541.232,162.494L541.53,163.901L542.23,165.558L542.851,166.095L542.633,167.372L542.904,169.066L544.094,171.546L543.823,173.174L544.077,174.544L543.884,175.404L543.228,176.052L542.72,177.254L542.878,177.458L543.053,179.262L543.884,179.826L544.156,180.566L543.455,181.315L543.473,181.963L544.217,182.906L544.12,183.609L543.053,184.368L542.3,185.764L542.151,187.438L542.843,188.89L542.808,191.026L542.116,193.707L541.845,196.259L541.74,197.137L541.267,197.895L541.731,199.54L541.906,199.827L541.775,201.38L542.239,202.729L542.038,204.051L542.808,204.226L543,204.383L543.858,204.762L544.654,206.065L544.208,206.749L544.532,209.253L543.482,210.556L543.49,210.75L543.245,212.441L543.359,212.709L544.576,214.076L544.427,215.683L544.296,216.514L543.902,216.939L545.004,218.057L546.72,219.322L547.639,221.133L547.753,222.638L547.551,225.63L549.013,226.895L549.486,227.883L549.591,228.15L549.818,228.483L550.089,228.972L550.947,231.779L550.851,233.496L550.247,235.028L549.818,235.222L549.38,235.342L549.065,235.535L548.26,236.145L546.344,236.006L544.646,236.661L543.727,237.963L543.482,238.074L543.403,238.064L542.615,237.594L541.241,236.717L540.663,235.932L541.04,235.6L540.961,235.203L539.071,234.419L537.644,234.622L537.548,234.474L537.749,234.031L538.082,233.717L538.37,233.089L537.644,231.954L536.795,232.046L536.629,231.815L536.489,230.994L536.287,230.948L535.167,230.791L535.01,231.659L533.067,232.185L533.04,232.997L532.428,233.172L530.669,233.117L528.349,232.222L527.807,232.508L527.509,233.652L526.039,234.945L525.128,234.972L524.148,235.997L523.816,236.966L523.483,237.308L523.588,238.59L523.641,239.107L523.798,239.439L523.702,239.864L524.997,240.501L523.964,241.488L525.304,243.14L525.444,244.173L525.304,244.487L524.805,246.009L524.262,246.692L524.516,248.288L524.551,248.805L524.595,249.303L523.702,250.742L523.964,251.969L525.181,252.513L524.726,253.62L527.071,254.496L528.13,255.418L528.34,256.064L528.612,256.082L529.443,256.608L530.949,256.055L531.465,255.529L532.174,255.658L532.865,256.368L533.574,256.119L534.975,257.005L535.237,257.871L535.421,258.508L536.55,258.535L537.478,259.568L539.254,260.37L539.876,260.186L540.226,260.398L540.366,260.831L541.075,262.067L541.311,262.15L541.792,262.841L541.88,264.446L542.09,264.685L541.521,264.944L541.416,265.22L539.771,266.419L538.248,269.221L537.058,269.995L535.972,271.267L535.578,271.59L534.747,271.544L533.933,272.723L533.714,273.525L533.032,274.861L532.935,275.949L531.439,277.064L530.879,277.11L530.178,277.912L529.995,278.234L530.415,279.165L530.423,279.515L530.196,281.422L530.135,281.634L529.54,282.463L529.146,282.694L528.559,283.173L528.279,283.44L525.181,284.849L523.763,284.858L523.299,284.914L521.391,286.203L521.444,286.765L523.107,287.299L523.518,287.613L523.982,288.211L523.781,288.921L523.789,289.455L525.242,290.376L525.312,290.551L525.058,290.965L525.146,291.472L525.19,291.647L525.47,291.813L525.619,292.494L525.68,292.899L526.214,293.175L526.923,295.349L528.244,294.897L529.986,294.907L531.36,296.122L531.404,296.573L531.106,297.476L531.272,299.437L531.798,300.597L531.973,300.91L532.787,301.545L532.909,301.72L532.909,302.033L534.196,302.926L534.371,303.248L534.852,303.193L534.476,304.132L534.073,304.5L533.679,306.148L534.231,307.142L533.977,307.887L534.659,308.715L534.581,309.47L534.598,309.765L534.966,311.513L534.598,312.765L534.537,313.151L534.187,316.16L534.765,317.061L533.671,318.285L532.813,318.589L532.909,319.297L532.393,320.106L531.789,322.038L530.494,323.685L530.494,324.163L530.914,325.423L530.634,326.812L530.467,326.812L530.126,327.088L530.047,327.253L529.216,328.568L529.863,330.637L529.872,330.968L529.68,331.253L529.54,331.649L529.522,331.695L529.294,332.035L528.472,333.166L527.185,334.361L526.931,334.471L523.474,334.012L523.378,334.729L522.669,335.464L522.477,337.092L523.01,338.489L522.923,339.068L521.54,338.755L520.569,339.059L520.052,339.675L518.416,339.914L517.82,341.053L517.829,341.826L517.199,343.002L517.12,343.094L516.289,344.197L515.606,346.173L514.722,346.292L514.538,346.393L513.418,346.963L513.243,347.055L513.103,347.165L512.928,347.413L511.992,347.928L511.869,348.066L511.65,348.139L511.326,348.167L510.819,348.24L510.635,348.277L508.858,347.955ZM294.179,115.842L294.021,115.889L296.489,112.346ZM217.904,182.777L218.797,183.952L217.913,183.933Z"
          fill="#e0e0e0"
          stroke="#333333"
          stroke-width="1"
          stroke-linejoin="round"/>
  </g>
</svg>