<?xml version="1.0" encoding="UTF-8"?>
<svg xmlns="http://www.w3.org/2000/svg"
     viewBox="203.669619520173 -19.99999999999818 392.66076095963945 639.9999999999982"
     width="392.66076095963945"
     height="639.9999999999982">
  <title>山形県</title>
  <desc>都道府県コード: 06</desc>
  <g id="06">
    <path d="M459.37,470.951L459.647,471.287L459.736,471.571L459.954,471.693L460.646,472.334L460.092,474.906L459.924,474.825L459.311,475.12L459.192,476.451L458.292,478.088L458.648,479.257L458.342,481.025L459.311,481.33L459.974,482.174L460.221,484.735L460.745,485.995L460.636,486.198L461.734,488.251L461.804,489.216L462.635,489.775L461.636,490.822L461.339,491.228L460.468,492.051L460.053,493.077L459.321,494.449L458.599,494.987L458.094,497.131L458.124,500.067L459.489,501.448L459.598,502.078L458.312,503.002L458.233,503.246L458.104,503.875L457.995,503.977L457.491,504.393L457.362,504.789L456.927,505.815L456.828,506.049L457.075,507.176L457.194,507.359L457.155,509.43L457.451,510.09L458.411,510.182L458.411,511.238L458.985,511.786L458.094,513.959L458.737,514.68L458.836,514.903L459.143,515.857L459.895,516.243L459.004,517.167L459.261,518.771L459.212,519.146L459.39,519.461L459.182,519.745L459.044,520.953L458.312,521.572L458.529,522.283L457.768,523.298L457.115,524.942L455.572,525.845L455.325,526.139L455.186,526.505L455.226,526.921L455.206,527.185L455.166,527.773L454.682,528.159L454.701,529.204L454.682,529.519L455.166,533.151L455.602,533.648L455.552,534.085L456.61,536.895L455.325,537.818L455.513,538.062L454.8,538.589L455.057,539.867L454.939,540.08L454.79,541.297L456.393,543.407L455.968,544.624L456.403,546.531L455.018,548.143L454.968,549.452L455.572,550.182L454.909,551.267L455.057,552.96L455.552,554.146L455.196,555.373L454.879,555.687L454.721,555.839L454.513,556.002L453.93,557.107L454.86,557.644L454.879,557.735L454.385,558.121L454.256,558.242L454.049,559.966L454.167,560.31L454.81,561.435L454.998,561.669L456.086,563.787L456.709,563.888L458.154,565.023L459.054,564.882L459.519,565.429L459.568,565.581L460.3,565.966L462.051,567.811L463.139,567.314L463.812,567.831L463.822,568.773L464.573,568.915L465.592,570.182L463.762,571.702L463.525,571.712L463.475,571.722L463.416,571.793L462.803,572.908L462.298,573.029L461.715,573.019L461.606,573.07L461.457,573.222L460.646,573.87L460.419,574.002L460.152,574.711L460.369,576.525L460.27,576.727L458.569,578.541L459.034,579.473L459.034,579.584L459.004,579.625L458.886,579.767L458.361,580.78L458.282,580.81L455.869,581.276L455.147,581.813L454.959,582.188L454.682,582.583L454.543,582.765L454.286,583.737L454.335,583.94L454.108,584.305L453.841,584.477L452.505,585.449L452.278,585.591L451.744,586.249L451.645,587.546L451.615,587.637L449.815,589.237L449.558,589.409L448.974,589.632L447.144,591.961L446.936,592.315L447.006,592.741L446.511,594.27L445.423,595.181L443.286,595.232L441.338,594.908L440.062,595.059L439.063,594.249L436.807,594.087L436.56,593.956L435.511,594.452L434.344,593.348L434.047,592.417L431.762,592.234L431.426,592.275L430.387,591.86L430.249,591.971L428.647,591.293L428.211,591.12L426.5,590.938L426.164,590.948L425.758,591.009L425.382,591.06L425.006,591.11L424.452,591.07L424.047,590.847L423.414,590.584L421.257,591.1L420.565,591.424L419.378,592.174L416.915,592.427L416.173,595.292L415.659,596.163L415.421,596.406L415.214,598.208L415.223,598.33L413.967,598.016L412.79,598.238L410.98,600L409.16,599.899L408.833,599.737L407.152,599.828L405.648,598.755L404.046,598.198L403.334,598.684L401.978,597.368L401.731,596.527L401.504,596.365L401.058,594.756L399.436,592.923L398.051,590.3L396.983,590.361L395.994,591.07L395.865,590.989L394.886,590.523L393.086,590.381L392.878,590.391L391.889,589.45L391.8,587.829L391.8,587.677L391.186,586.837L391.137,586.675L390.989,586.351L390.87,586.381L389.178,585.004L387.467,585.135L387.418,584.71L387.616,584.203L387.724,583.656L387.764,583.434L387.141,581.924L385.894,581.813L385.766,581.894L384.717,583.707L384.658,583.798L384.213,584.467L383.946,584.659L381.819,586.513L381.582,586.553L380.236,586.401L377.368,587.363L376.824,588.052L376.804,588.123L374.865,588.558L374.667,588.68L373.668,587.89L373.5,588.072L372.788,588.528L372.63,588.68L371.047,589.733L370.058,588.953L369.84,588.963L367.951,589.976L367.515,589.682L366.477,589.46L366.111,589.328L365.784,589.065L365.478,588.791L365.418,588.72L365.329,588.487L365.31,588.406L365.201,587.971L365.082,587.789L364.123,587.444L363.964,587.313L363.41,586.978L363.44,585.631L363.371,585.399L363.707,584.173L362.688,583.12L361.907,582.826L361.877,582.623L361.056,581.651L360.928,581.448L359.988,579.959L359.968,579.584L360.215,578.794L360.374,578.551L360.255,577.801L360.156,577.568L360.126,577.487L360.027,577.345L359.098,576.92L358.049,575.643L358,575.41L357.465,574.194L357.663,573.333L357.841,572.887L358.237,571.378L358.277,571.215L357.663,569.949L357.663,569.057L356.743,567.284L356.496,567.091L356.437,567.05L356.269,567L354.3,566.675L351.57,564.608L350.423,562.003L348.593,561.567L348.424,561.598L348.316,561.699L348.068,561.871L347.623,562.145L347.455,562.277L348.138,563.057L348.128,564.355L347.455,564.648L347.218,566.189L346.614,566.858L346.466,567.922L345.467,567.912L345.051,567.871L344.567,567.892L344.349,567.973L343.765,567.567L343.686,567.557L342.39,567.811L341.421,567.314L341.332,567.273L341.055,567.233L340.936,567.162L340.729,567.223L339.354,567.851L338.256,569.189L337.445,569.229L337.187,569.179L334.675,569.219L334.517,569.391L334.071,569.462L333.824,569.28L332.914,568.976L332.123,569.3L331.42,568.479L331.322,568.358L330.936,567.811L330.965,566.351L330.204,566.726L328.631,565.55L328.542,565.449L328.285,564.588L326.989,563.382L325.861,562.895L325.574,562.763L325.08,562.672L324.882,562.763L322.973,564.425L322.943,564.638L321.746,565.165L321.479,565.246L319.897,566.726L319.293,566.929L318.957,567.395L317.602,567.091L317.028,567.172L316.177,567.446L315.247,568.52L315.188,568.571L314.713,568.054L313.309,568.946L313.121,569.199L312.646,569.493L312.587,569.695L311.637,570.759L311.508,570.881L310.935,571.763L309.896,572.067L308.046,571.185L308.096,570.172L308.096,570.05L307.621,568.246L307.562,568.003L307.789,567.263L306.454,566.564L305.089,566.26L304.554,564.973L303.882,564.73L303.733,564.638L303.15,563.969L302.764,562.388L302.675,562.196L301.102,560.452L299.579,561.131L299.401,561.212L298.422,561.212L298.155,561.263L297.432,561.932L297.274,561.861L295.691,562.398L295.513,562.459L295.207,562.52L294.593,562.824L294.465,562.946L293.09,563.909L292.981,564.03L291.319,564.659L291.121,564.679L288.174,565.155L288.006,565.196L287.699,564.709L287.58,564.608L287.096,563.959L287.145,563.827L286.304,561.993L286.195,561.881L285.562,561.273L285.394,561.111L285.364,561.06L285.246,560.959L285.088,560.929L284.949,560.959L284.187,560.766L284.148,560.614L284.059,560.432L283.93,560.138L283.891,560.087L283.782,559.976L283.604,559.175L282.516,558.486L280.963,556.458L280.844,555.201L279.944,554.41L280.053,552.869L280.092,552.666L279.697,551.49L279.172,551.307L278.777,551.175L278.381,551.054L276.966,550.77L276.808,550.821L274.444,553.051L274.147,553.345L273.564,553.802L272.297,553.7L270.646,554.41L270.309,554.329L268.736,554.44L268.133,552.828L268.173,552.686L268.034,552.473L267.817,552.362L267.599,552.129L267.47,552.068L265.166,550.577L265.067,550.557L264.75,550.303L264.661,550.141L264.602,550.009L264.404,549.817L263.474,549.441L263.326,549.401L262.554,548.803L262.238,548.63L261.446,547.961L261.189,547.748L260.981,546.937L260.981,546.714L261.258,545.71L261.337,545.557L261.337,545.405L261.278,545.243L261.051,544.442L260.665,544.259L259.517,543.722L259.379,543.346L259.191,543.073L259.062,542.92L257.588,542.028L257.44,541.896L255.828,541.46L255.679,541.338L255.284,541.135L255.026,539.421L254.304,538.66L254.176,538.467L253.137,537.362L252.336,535.596L252.504,534.419L252.534,534.318L252.811,533.882L252.89,533.76L253.117,533.506L253.197,533.405L252.811,532.218L252.583,532.005L252.237,531.355L252.148,531.112L251.96,530.818L251.92,530.574L251.881,530.412L251.812,530.33L251.416,529.488L251.386,529.336L252.039,528.362L251.673,526.535L251.634,526.403L250.902,525.693L251.02,525.49L251.05,524.597L251.169,524.434L251.693,522.983L252.662,522.405L252.761,522.161L253.088,520.923L253.117,520.801L253.671,520.456L253.889,520.425L254.374,520.161L254.512,520.09L254.71,519.857L254.918,519.674L254.997,519.603L255.125,519.441L255.778,518.131L255.719,517.289L255.867,516.903L255.561,516.436L256.035,515.39L255.986,515.228L255.976,515.106L256.392,514.669L256.5,514.476L256.421,513.096L256.332,512.872L255.768,511.816L255.847,511.532L255.996,511.116L256.253,510.964L256.411,510.09L256.471,509.857L256.53,509.44L256.461,509.237L256.55,508.943L256.678,508.719L257.163,508.161L257.391,507.826L257.41,507.745L257.282,507.511L256.659,505.927L255.383,505.419L255.294,505.307L255.135,504.546L257.104,500.879L255.521,498.959L255.758,497.842L256.599,497.192L257.321,495.851L257.302,495.648L256.926,494.54L258.637,494.297L258.963,494.114L259.072,494.093L259.24,494.134L259.557,494.083L259.755,494.073L260.042,494.164L260.17,494.236L260.398,493.179L260.398,492.976L260.378,492.681L260.477,492.214L260.299,492.041L260.002,491.777L259.883,489.674L259.854,489.43L259.883,488.861L259.992,488.475L260.101,488.332L260.051,487.56L260.2,487.204L260.051,485.66L260.022,485.396L259.646,484.064L260.18,482.255L260.398,481.828L260.645,481.412L261.011,481.188L261.07,481.107L261.07,480.934L260.942,479.257L260.487,478.281L260.635,478.24L262.96,476.461L265.65,476.461L266.827,476.228L268.499,475.191L268.598,474.55L268.914,474.184L269.132,472.608L270.003,472.192L270.161,472.029L271.625,471.409L271.803,471.429L271.803,471.266L271.882,470.921L272.525,469.579L271.526,467.504L270.487,466.559L270.675,465.786L271.091,465.318L272.189,464.179L272.238,462.277L271.991,462.43L271.516,462.501L271.19,462.46L270.744,462.155L270.685,461.87L270.616,461.636L270.537,461.545L269.508,461.952L269.31,462.013L268.311,461.667L265.779,461.596L265.739,461.494L265.789,461.474L266.036,461.392L266.026,461.291L265.858,461.209L266.244,460.66L266.283,460.304L266.442,460.223L266.56,460.009L266.442,459.724L266.362,459.592L266.204,459.419L266.174,459.216L266.362,457.954L266.046,456.805L266.085,456.591L266.817,455.594L268.825,450.263L269.33,448.92L270.547,447.689L272.347,446.926L272.901,445.756L272.505,445.155L272.248,445.064L272.11,444.881L271.902,444.646L271.872,444.565L271.734,443.527L271.14,438.194L271.427,437.563L271.605,437.349L271.734,436.382L271.793,436.158L271.605,434.702L271.734,434.499L272.119,433.949L272.189,433.705L272.367,432.89L272.396,432.565L271.852,431.923L271.823,430.925L271.902,430.528L271.842,430.203L271.892,429.968L270.012,428.207L269.983,428.125L270.21,425.895L270.24,425.264L269.379,424.317L269.251,423.034L269.439,422.952L269.686,422.708L270.883,420.518L270.873,420.254L270.942,419.317L270.883,419.001L272.406,418.777L272.891,417.87L272.98,417.931L273.623,417.626L273.653,417.534L273.692,417.116L273.633,416.974L273.623,416.74L274.325,415.201L274.325,413.684L274.741,413.429L274.899,413.276L274.958,413.215L275.117,412.97L275.463,412.502L275.601,412.206L274.513,410.627L274.414,410.485L275.443,410.362L275.68,410.24L276.442,409.985L276.68,409.955L277.679,409.934L279.37,409.099L279.637,409.16L280.389,409.588L280.607,409.771L280.765,409.873L281.596,409.466L281.705,409.313L281.754,409.313L281.962,409.456L282.812,410.536L282.99,410.495L284.059,411.045L284.237,411.086L285.394,411.004L285.602,410.994L286.185,410.862L286.364,410.923L287.452,411.127L287.64,411.33L288.985,412.145L289.044,412.227L289.479,412.695L289.568,412.818L290.518,413.256L290.815,413.47L291.171,413.816L291.339,413.918L291.735,414.081L291.834,414.234L292.467,414.458L292.556,414.478L293.397,414.509L295.147,412.105L297.106,412.828L299.074,412.431L300.875,414.315L301.162,414.295L302.398,414.743L302.438,413.969L302.774,413.704L303.199,413.225L303.288,412.92L304.822,412.196L306.127,410.964L306.384,410.821L306.582,410.78L306.76,410.719L307.146,409.649L307.255,409.425L307.374,409.293L309.124,408.508L309.213,408.386L309.362,408.243L309.461,408.172L309.659,408.009L309.965,407.234L310.094,407.092L312.102,406.572L312.29,406.582L312.844,406.501L312.933,406.042L313.675,405.594L313.882,405.553L314.209,405.268L314.407,405.105L316.553,403.617L316.731,403.566L317.127,403.484L317.463,403.444L318.363,403.046L318.967,402.16L321.667,401.732L323.972,400.397L324.219,400.274L324.823,399.846L325.001,399.754L325.159,399.653L326.029,398.817L326.227,398.44L326.395,398.297L326.702,397.93L326.959,397.634L327.147,395.586L327.325,395.147L328.542,392.222L329.759,391.498L329.877,391.284L330.807,390.55L330.787,389.999L330.669,389.816L330.837,389.082L330.807,388.837L331.025,388.031L331.045,387.807L331.045,386.696L331.163,386.584L331.836,386.308L331.925,386.237L333.112,385.391L333.31,385.35L335.348,383.382L335.506,383.3L336.614,382.515L336.851,382.443L337.86,381.475L338.008,381.383L338.523,380.944L337.919,380.037L338.058,378.14L338.493,376.222L338.275,374.855L338.167,374.468L338.216,373.947L337.217,373.019L337.019,372.907L336.07,371.887L335.872,371.754L335.743,371.703L335.545,371.601L334.902,370.734L331.965,369.734L332.004,369.122L331.994,368.928L331.183,366.275L331.134,366.081L330.58,364.337L329.808,363.99L327.879,362.102L327.879,361.918L327.652,361.663L327.681,361.469L327.642,361.122L327.602,360.979L327.523,360.816L327.503,360.663L326.613,360.02L326.514,359.754L326.395,359.469L326.217,359.326L325.95,359.173L325.03,358.458L324.902,358.275L324.15,357.713L323.932,357.713L323.744,357.764L323.547,357.795L321.736,355.835L321.727,355.641L322.29,353.722L321.479,353.579L321.361,353.538L319.372,353.681L319.036,353.753L318.63,353.406L318.502,353.304L317.453,353.242L317.137,353.191L316.781,353.191L316.484,353.13L316.316,353.181L315.317,352.558L315.218,352.313L315.158,352.089L315.079,351.905L314.852,350.823L314.99,350.629L314.881,350.67L314.723,350.68L314.278,350.629L314.051,350.435L313.061,350.047L312.003,348.393L311.874,348.393L309.916,348.557L309.817,348.577L307.651,348.914L307.384,349.149L306.414,349.965L306.226,350.139L304.426,350.997L304.228,351.017L303.318,351.017L303.209,350.609L302.517,350.149L302.339,350.078L301.854,349.69L301.587,349.618L300.776,349.669L300.43,349.618L300.341,349.578L299.994,349.465L299.787,349.261L299.658,349.312L298.54,349.22L298.333,349.261L297.798,349.445L297.531,349.578L297.165,349.424L296.898,348.996L296.117,348.414L296.067,348.301L295.504,347.291L295.395,347.188L294.02,346.361L293.792,346.392L292.961,346.749L292.595,346.851L292.002,346.79L291.883,346.79L290.726,346.954L289.568,345.973L288.797,344.871L288.124,344.85L287.926,344.779L287.689,344.605L287.57,344.299L287.145,343.676L286.927,343.553L285.315,342.124L284.573,340.97L284.514,340.827L284.405,340.469L284.356,340.204L284.168,339.019L284.761,338.049L284.326,337.518L284.227,337.375L284.197,337.15L284.227,336.895L283.91,336.66L283.772,336.548L282.941,335.015L283.04,334.127L283.07,333.902L282.14,333.085L281.507,333.115L281.269,333.33L281.042,333.524L280.013,334.566L279.538,334.985L278.707,335.863L278.43,335.935L278.124,335.986L276.66,333.769L276.541,333.504L275.948,330.837L275.928,330.419L276.492,327.895L276.541,327.732L277.342,326.986L277.619,326.751L278.688,325.341L278.796,324.482L278.816,324.36L279.538,323.052L279.677,323.021L279.637,322.408L279.825,322.122L280.122,321.999L280.181,321.141L280.32,320.906L280.597,320.201L280.527,320.047L280.775,318.872L280.755,318.627L280.102,317.441L280.25,316.338L280.181,316.164L280.705,314.896L280.547,314.61L280.715,312.034L280.498,311.39L280.527,311.104L281.259,309.898L280.715,309.1L280.498,308.61L280.27,307.148L279.736,306.595L279.667,306.268L279.716,306.135L279.726,305.91L279.637,304.704L279.697,304.55L280.923,303.569L279.934,303.18L278.678,301.34L278.727,299.714L278.539,299.417L278.836,298.19L278.984,298.108L279.123,298.118L279.321,298.282L279.954,298.364L280.705,297.464L280.913,297.239L281.467,296.86L281.556,296.625L282.812,295.909L282.882,295.674L282.892,294.273L282.347,293.464L282.15,293.291L281.319,292.462L281.784,291.367L280.696,290.999L280.547,290.887L278.114,290.048L275.651,290.171L275.127,288.646L273.544,288.247L273.138,287.582L272.673,287.061L268.628,287.797L268.173,287.695L266.817,287.204L264.374,287.183L263.029,286.457L262.752,286.385L261.812,286.846L260.734,286.539L259.893,286.999L258.489,286.017L258.172,285.659L257.687,285.597L254.957,285.127L254.463,284.513L254.74,283.428L253.286,281.893L252.989,280.962L252.91,280.839L252.682,280.757L251.545,280.819L250.031,280.041L249.903,279.489L247.42,279.141L246.678,280.021L245.53,279.683L242.82,280.788L241.356,278.701L240.802,278.322L240.209,278.127L239.971,277.984L238.428,276.408L237.469,276.592L237.142,275.866L237.043,275.446L235.747,273.696L235.589,273.757L234.115,274.085L233.858,274.166L233.769,274.156L233.472,274.013L232.78,273.266L232.523,273.122L232.483,272.979L232.444,272.938L232.196,272.774L231.662,272.15L230.07,272.068L230.06,271.464L229.704,271.362L229.169,271.413L229.11,270.154L228.823,270.348L227.794,270.42L227.745,270.307L227.498,268.669L226.37,268.27L225.628,267.666L224.827,266.089L223.67,266.243L225.045,265.455L225.5,266.151L226.103,265.905L226.469,264.564L225.737,264.4L226.42,262.977L226.924,262.721L228.18,260.908L228.457,259.915L229.476,259.096L229.822,257.928L229.12,257.263L230.169,256.73L230.109,254.62L231.356,253.35L231.969,251.865L231.385,250.974L233.532,249.16L233.631,247.808L234.738,247.05L234.808,245.185L235.807,244.069L236.331,242.532L238.21,240.226L239.398,237.367L239.308,236.127L240.129,235.563L240.911,233.083L241.415,233.134L241.346,231.945L242.375,228.839L243.097,228.255L243.572,226.686L244.729,225.22L244.848,224.215L246.628,222.492L246.233,220.76L247.202,220.575L247.895,219.662L247.687,218.801L249.724,217.099L250.763,214.586L252.089,213.735L253.206,214.473L254.225,214.576L256.026,213.099L256.51,211.673L257.579,211.56L258.785,210.391L259.616,207.611L262.297,206.564L262.465,205.384L263.237,204.902L262.732,203.25L264.532,202.409L264.226,201.916L265.937,200.541L267.332,200.757L267.381,201.239L268.865,201.147L269.459,200.603L270.161,198.971L270.863,199.053L272.248,198.161L272.782,196.857L274.266,196.067L274.434,195.184L273.781,194.333L275.037,193.029L275.611,191.633L276.788,190.278L277.412,190.37L277.184,187.917L278.045,186.788L280.3,185.833L280.498,185.063L281.952,184.509L282.723,183.543L281.942,182.599L283.297,182.845L284.504,182.26L285.216,183.02L285.8,182.65L284.86,181.202L285.889,180.093L287.491,179.375L287.917,178.399L289.608,177.649L290.538,175.996L293.496,169.833L294.415,167.697L295.583,164.317L296.473,162.416L299.539,154.051L300.786,149.374L301.735,147.113L302.111,145.313L303.516,140.861L304.446,138.414L305.128,135.195L306.167,131.822L306.849,128.787L308.294,123.757L308.274,121.853L309.134,117.593L309.965,114.619L308.363,113.991L309.223,111.768L310.875,112.406L311.795,111.49L311.696,110.554L312.359,108.968L310.381,108.196L311.251,105.962L311.934,105.746L313.635,106.415L314.337,104.768L316.741,104.192L317.869,104.336L317.72,103.481L318.66,100.825L317.443,100.372L316.969,101.834L316.078,102.833L314.99,102.678L312.715,101.782L314.98,95.913L316.771,96.613L317.137,96.448L318.443,94.409L320.282,89.589L320.51,88.549L322.548,82.378L324.012,77.184L326.831,67.97L328.107,64.073L328.938,60.321L329.155,57.856L329.848,56.701L328.938,56.835L328.453,55.484L329.828,53.834L329.244,52.658L329.709,51.988L330.095,49.554L331.322,48.656L331.599,46.727L331.984,45.943L331.361,44.757L331.777,43.674L331.361,42.332L330.135,42.147L330.026,40.362L329.076,40.073L328.72,39.247L329.185,38.453L328.651,38.081L328.868,37.101L329.521,37.091L334.269,37.008L340.481,36.864L343.864,37.534L349.641,38.67L353.093,39.33L353.855,37.545L361.135,39.908L363.133,40.568L364.864,41.146L368.633,42.332L369.652,38.092L372.877,35.14L374.727,34.697L379.999,33.407L385.35,32.085L388.595,31.291L390.197,30.898L390.296,30.837L389.98,39.103L390.435,41.744L391.79,44.685L391.73,45.531L390.306,47.511L393.828,49.987L395.282,50.338L396.113,50.451L397.013,50.709L401.058,50.792L403.126,51.534L405.876,53.205L406.875,53.473L407.003,54.783L407.528,55.66L407.627,57.629L408.655,57.712L409.318,58.578L409.704,58.98L410.159,59.434L411.761,59.774L412.384,59.485L412.503,59.423L414.303,58.722L414.482,59.392L416.242,60.455L416.153,61.176L416.954,62.62L417.548,63.012L418.438,65.445L419.239,65.764L419.586,65.733L420.575,65.476L421.505,63.744L422.167,63.362L423.166,64.001L423.463,64.125L424.927,64.692L426.193,62.063L427.647,61.785L427.885,61.846L430.269,61.599L430.486,60.516L430.496,60.413L432.049,60.857L433.434,60.485L434.196,60.949L434.483,61.145L434.888,62.764L435.145,62.919L435.63,63.671L435.155,65.682L434.641,66.269L435.046,66.857L434.868,68.383L435.274,69.403L434.404,70.795L434.305,70.97L434.71,71.31L436.847,71.537L438.588,72.279L439.152,72.155L439.597,72.031L441.1,72.877L441.199,73.464L441.545,73.835L442.277,74.093L442.515,74.402L443.9,74.495L444.107,74.557L445.453,74.381L445.749,74.34L447.312,73.309L447.56,73.186L448.588,72.938L449.647,74.062L451.002,73.928L451.358,73.103L452.426,71.939L452.802,71.846L453.406,71.166L455.206,72.784L456.502,72.269L461.398,74.113L461.833,74.237L463.436,75.814L464.079,78.184L465.998,78.236L466.809,78.833L467.007,79.318L469.381,80.039L469.905,78.998L470.063,78.586L471.468,76.391L471.507,76.113L471.913,75.35L471.498,74.082L471.953,72.794L475.247,71.392L475.247,71.629L475.385,71.763L476.295,73.103L476.79,73.083L478.402,73.784L478.61,73.856L480.064,75.02L483.219,75.834L484.387,75.226L485.841,75.031L485.514,75.917L485.554,76.185L485.386,76.618L485.475,77.071L485.91,78.143L485.91,80.049L486.375,80.369L486.365,81.718L486.543,81.873L486.701,82.048L486.84,82.316L486.899,82.604L486.919,82.8L488.432,83.841L488.788,84.531L489.204,85.232L489.778,86.334L489.718,87.364L490.242,87.879L490.925,87.519L492.429,88.065L493.665,87.9L494.535,88.806L495.94,89.187L498.423,88.734L499.511,89.002L501.203,88.044L502.241,89.692L504.378,88.755L504.645,88.796L505.555,88.724L506.722,88.93L507.968,88.93L508.156,89.96L509.432,91.196L509.878,93.009L510.273,93.204L511.45,93.297L511.787,93.462L512.321,93.637L512.618,96.634L514.141,97.18L513.696,98.704L513.716,98.838L513.953,100.197L513.696,100.64L514.922,102.575L514.715,103.327L514.932,105.067L514.151,107.198L513.617,107.898L514.23,108.721L514.111,109.874L514.25,110.656L514.21,111.058L514.299,111.212L514.695,111.387L515.377,111.696L516.396,112.694L516.367,113.93L516.772,115.206L517.494,116.06L517.474,118.242L517.939,118.787L518.147,118.921L519.047,119.867L520.64,120.485L521.253,120.073L523.251,120.567L524.082,119.795L524.646,121.586L526.051,122.738L526.466,123.325L527.208,123.911L527.119,124.755L527.178,125.475L527.821,126.915L527.91,127.049L529.602,128.592L531.333,128.643L532.965,127.316L533.202,127.162L534.716,126.421L537.396,126.72L537.95,127.615L538.91,126.956L540.977,126.277L541.759,126.421L542.787,128.211L544.795,130.227L544.687,130.989L544.182,132.305L544.865,134.27L543.144,136.378L542.837,136.275L542.471,137.838L542.026,138.28L542.323,139.689L542.234,141.478L542.392,141.89L542.837,142.404L544.815,142.455L545.903,143.052L546.705,143.411L547.071,144.244L547.684,144.727L547.911,146.907L548.505,148.151L549.652,147.637L551.749,148.336L552.739,149.796L553.016,149.96L554.074,150.7L554.628,150.433L555.854,150.978L556.725,152.345L558.575,152.735L558.505,153.527L559.148,154.462L559.277,156.106L561.176,157.144L561.117,157.555L561.334,160.361L560.602,160.946L560.504,161.131L559.979,163.001L560.81,163.906L560.167,166.577L561.166,167.584L561.542,169.546L561.433,171.128L562.531,171.99L562.512,172.586L562.492,173.511L562.65,174.127L563.699,174.681L564.431,174.425L565.677,175.061L565.855,176.191L566.409,176.705L570.267,178.142L570.771,177.988L571.483,177.393L573.264,176.694L575.015,177.608L575.213,178.43L576.33,179.929L575.351,181.839L573.887,182.558L573.284,182.835L572.69,183.431L572.334,185.299L572.126,185.905L571.493,186.973L571.731,187.691L571.642,188.43L570.692,189.457L570.672,190.299L569.742,190.771L569.179,191.069L568.644,191.643L568.407,191.962L568.011,192.577L568.555,193.45L568.348,194.435L568.229,195.02L567.645,196.016L567.299,196.395L567.072,196.601L566.913,196.868L566.656,197.196L566.399,197.401L565.449,197.894L563.768,199.618L564.035,203.589L564.342,205.282L563.61,206.574L564.272,207.18L564.628,207.364L566.013,207.559L566.735,208.113L569.06,208.401L568.13,209.826L569.1,211.683L569.189,211.837L568.882,212.381L569.317,213.345L568.288,214.822L568.298,215.447L567.744,217.427L568.14,218.052L567.547,219.355L566.102,220.831L565.885,222.38L565.44,222.841L565.42,223.323L565.459,223.651L565.42,224.143L565.242,224.236L565.044,224.287L564.539,224.492L563.451,226.481L563.283,227.67L563.085,228.029L563.066,229.618L562.245,231.484L562.175,232.509L562.116,232.601L560.484,233.175L560.049,233.995L558.941,234.507L558.327,235.317L554.578,234.138L554.608,233.81L553.48,233.267L553.055,233.759L552.65,233.698L552.333,233.462L552.125,233.421L551.779,233.523L550.988,231.371L550.681,230.992L549.662,229.505L547.051,229.884L545.824,229.587L545.656,229.3L544.538,228.839L544.479,228.849L543.737,229.474L543.114,231.494L542.896,231.935L542.461,233.513L541.61,234.559L541.66,235.307L543.183,237.172L542.985,238.125L543.45,239.293L545.557,241.077L545.241,241.589L546.339,243.71L547.684,244.222L549.405,246.097L549.464,246.148L549.514,247.101L548.317,247.931L548.287,250.062L550.77,251.209L551.829,251.455L551.294,253.176L552.63,254.579L552.293,257.15L552.936,257.683L553.302,259.004L553.718,259.434L553.599,260.437L553.866,260.765L554.45,261.093L554.628,261.185L554.727,262.117L553.55,262.833L553.382,262.967L552.481,264.001L551.532,264.39L551.126,265.905L551.937,267.021L551.947,267.205L550.928,269.376L550.938,269.509L550.295,271.157L549.613,271.444L548.782,272.631L547.199,272.693L546.962,273L546.902,273.235L546.962,273.481L547.041,273.778L547.061,273.87L546.952,274.126L546.902,274.289L546.922,274.422L547.15,274.74L547.16,274.832L547.11,275.947L547.575,276.162L547.367,276.715L547.615,277.728L548.208,277.667L548.495,277.933L549.593,278.967L551.443,278.516L552.066,279.161L552.165,279.192L552.59,279.396L551.463,280.686L551.304,282.088L552.105,282.64L552.066,283.602L550.701,284.329L549.89,285.475L549.969,285.546L550.641,286.61L551.7,287.408L551.739,288.135L551.68,288.268L551.146,289.301L553.035,290.979L553.144,291.899L553.292,292.002L554.796,292.165L556.339,293.485L558.169,293.741L560.781,294.968L561.058,295.316L561.156,295.745L562.917,297.136L562.432,298.231L562.393,298.435L563.432,300.245L563.451,300.552L564.124,302.516L563.53,304.765L564.144,306.759L567.012,307.403L567.784,307.812L567.883,308.211L566.29,308.436L565.538,309.08L564.975,310.572L564.876,310.9L564.262,312.034L564.193,312.331L563.026,312.535L561.997,313.864L561.799,313.895L560.81,315.653L559.851,314.487L559.732,314.263L559.089,313.547L558.268,314.579L556.854,314.068L556.488,314.385L555.36,315.285L555.696,316.91L555.479,317.707L555.518,318.126L555.33,319.536L554.529,321.417L554.618,322.234L553.134,324.094L552.551,324.442L552.382,326.209L553.154,327.364L553.411,331.849L554.232,332.411L554.539,333.483L554.203,333.636L552.432,335.638L551.195,336.466L550.928,337.13L550.75,337.661L550.592,338.069L549.959,339.673L547.625,339.601L546.418,340.04L545.735,341.154L545.567,341.685L545.706,342.328L544.855,343.227L544.222,345.044L542.689,345.912L542.273,345.881L540.849,345.933L540.631,345.851L539.187,346.729L538.752,347.045L538.267,347.525L538.059,347.76L537.832,348.291L537.604,348.73L536.882,349.608L536.575,350.894L536.575,350.966L536.941,353.232L537.09,353.416L537.248,354.835L537.248,355.151L537.644,356.397L537.673,357.856L538.356,358.775L538.593,360.03L539.444,360.887L539.009,361.275L538.851,362.806L538.554,362.928L538.564,363.459L537.288,364.306L536.655,365.439L536.13,367.255L534.607,366.612L533.331,366.541L532.035,365.52L531.877,365.418L531.046,365.377L531.036,367.847L529.72,369.632L528.949,369.601L528.563,369.55L527.356,369.979L527.455,370.897L527.248,371.825L527.297,374.06L527.604,375.284L527.742,375.641L528.662,378.017L528.563,378.078L528.415,378.109L528.128,378.578L527.119,379.19L526.634,380.761L525.813,381.464L523.855,381.944L523.231,381.821L521.075,382.556L520.491,383.555L521.016,386.787L520.254,387.562L519.957,388.806L520.927,390.509L520.422,391.671L520.313,391.814L519.997,392.385L519.868,394.627L519.967,395.076L520.363,396.34L520.234,397.849L520.135,397.91L520.036,398.001L519.641,398.205L519.413,398.256L519.215,398.277L519.196,398.317L519.186,398.429L519.868,400.142L521.016,400.937L521.5,401.935L520.64,404.086L520.561,404.493L520.412,405.9L521.164,407.662L520.857,409.17L521.332,409.914L521.392,410.057L522.203,411.035L522.321,411.177L522.984,413.847L522.579,415.12L522.618,415.456L522.846,416.444L522.836,416.74L523.192,417.575L523.271,419.317L522.351,420.386L522.222,420.559L522.064,420.814L521.906,421.089L521.777,421.466L521.678,421.588L520.007,423.584L519.957,424.521L519.898,424.928L519.848,426.68L519.166,427.576L519.374,429.113L517.85,429.5L515.832,430.742L515.328,431.078L514.388,431.516L513.735,433.155L512.449,434.529L511.757,435.619L511.401,437.705L512.37,440.097L510.906,440.118L507.711,441.319L506.317,442.57L505.426,444.341L506.03,445.491L505.248,447.659L504.19,448.839L504.101,449.032L503.379,450.782L503.883,452.532L503.656,453.397L504.16,456.215L504.605,456.866L504.506,457.425L504.457,458.015L504.249,458.198L503.448,460.151L502.043,461.362L500.886,461.606L499.155,462.816L498.918,464.037L496.722,464.586L495.218,463.925L494.615,464.037L494.16,464.006L492.409,463.721L491.568,464.362L492.211,466.609L490.49,468.206L489.847,469.416L487.641,469.853L486.424,469.843L486.137,469.589L483.694,468.989L482.379,469.579L481.904,470.809L480.173,471.053L478.827,470.321L477.472,470.311L476.068,469.894L473.921,470.392L471.567,469.975L470.746,469.029L469.737,469.609L468.382,469.558L468.144,469.914L467.393,470.799L466.136,470.799L464.89,469.528L463.456,470.067L462.793,469.223L462.684,469.151L462.486,468.643L461.25,468.999L460.211,468.572L458.668,469.924ZM269.31,197.617L269.696,198.91L268.914,198.202ZM313.398,99.527L312.557,101.69L307.126,106.755L307.057,106.683L312.507,101.649ZM227.191,0L227.488,0.527L231.276,3.255L231.702,4.835L230.119,5.651L229.704,5.321L227.122,7.428L226.212,8.988L226.113,10.155L227.201,10.537L226.538,11.043L225.786,10.548L225.391,11.167L224.609,10.837L224.59,9.969L223.788,8.306L224.293,5.631L224.946,4.804L226.192,4.122L227.043,2.893L226.706,0.579Z"
          fill="#e0e0e0"
          stroke="#333333"
          stroke-width="1"
          stroke-linejoin="round"/>
  </g>
</svg>