<?xml version="1.0" encoding="UTF-8"?>
<svg xmlns="http://www.w3.org/2000/svg"
     viewBox="2.5565675285688485 -20 794.8868649428841 640"
     width="794.8868649428841"
     height="640">
  <title>福島県</title>
  <desc>都道府県コード: 07</desc>
  <g id="07">
    <path d="M554.762,39.21L557.122,39.171L557.435,39.21L558.621,38.992L558.921,38.902L559.083,38.761L560.407,37.672L560.944,36.237L562.568,36.775L563.48,36.493L564.441,37.352L564.929,37.506L566.003,37.237L565.953,36.814L566.64,35.212L567.739,35.212L567.876,35.276L568.363,34.597L571.461,35.661L572.185,36.417L572.885,35.738L573.047,35.699L573.422,35.84L573.684,35.879L574.421,35.212L576.494,35.059L576.781,35.033L577.331,34.789L577.493,34.725L580.279,34.046L580.528,34.123L581.353,34.264L581.865,34.149L584.9,33.29L584.663,31.996L585.487,31.227L584.75,29.959L586.174,27.588L586.249,27.486L586.286,27.473L586.861,27.806L587.56,29.062L587.685,29.51L588.21,29.767L588.384,29.818L588.972,29.856L589.496,30.33L589.496,30.625L589.434,30.933L589.733,31.163L589.883,31.702L591.969,32.752L593.493,34.546L594.405,33.931L594.529,34.008L596.178,35.891L596.515,35.943L599.126,35.199L599.338,35.174L600.087,33.726L603.909,33.431L603.859,32.15L604.496,31.356L606.133,31.561L607.282,32.675L607.344,32.829L607.569,33.444L608.131,34.559L608.83,37.749L609.555,38.889L611.066,39.632L617.773,41.413L618.36,40.042L621.595,39.017L623.306,38.787L623.943,38.633L625.404,39.581L625.579,39.812L626.566,41.221L626.628,41.49L629.589,42.873L629.988,42.861L631.262,43.091L631.687,43.155L632.274,43.386L632.599,43.655L632.686,43.719L632.923,43.924L635.509,44.692L635.734,44.936L635.908,46.204L635.871,46.319L636.358,47.408L634.297,49.047L633.136,49.534L632.748,51.314L633.123,52.364L634.984,53.67L634.747,54.977L634.609,55.194L634.472,55.258L634.322,55.374L634.51,56.347L636.221,58.165L637.132,60.777L636.321,63.12L636.758,63.914L636.808,64.119L636.733,64.362L636.633,64.554L634.235,66.154L634.659,68.164L634.759,68.446L634.747,68.612L634.522,68.638L633.51,70.264L631.787,71.262L631.824,72.158L633.023,72.99L633.748,74.487L633.41,75.537L633.997,76.676L634.26,79.325L634.397,79.479L634.222,81.808L634.135,82.038L635.921,83.535L636.645,84.712L636.908,86.389L637.532,86.785L637.757,87.259L637.757,88.359L640.555,88.346L641.716,88.768L642.166,88.781L644.664,89.69L645.388,90.419L645.638,91.059L646.962,92.632L647.399,92.811L648.036,93.451L648.461,93.566L649.685,94.948L649.772,95.459L650.072,96.239L650.247,96.802L650.397,97.429L650.871,99.45L653.282,98.44L655.318,96.521L658.34,95.92L658.503,96.099L658.977,96.623L659.364,97.084L659.727,97.506L663.673,97.442L664.822,97.774L665.559,98.043L666.171,98.273L666.471,98.35L670.156,99.233L672.466,100.934L672.928,100.985L674.54,102.417L677.062,103.62L678.449,103.479L678.686,103.3L678.961,103.121L679.211,102.967L679.648,102.468L679.96,102.187L680.023,101.305L681.534,100.256L680.147,99.974L679.823,99.936L678.024,99.552L677.312,98.324L677.125,98.069L676.725,97.608L675.689,96.598L675.451,96.367L675.114,95.651L673.715,95.421L672.878,94.41L672.704,94.461L671.804,94.436L671.792,93.515L670.78,92.901L670.48,93.054L669.444,91.813L669.444,91.609L668.869,91.276L666.883,91.621L666.758,91.967L665.984,91.263L666.096,91.033L666.296,90.764L666.621,90.572L667.395,90.137L667.783,89.933L669.406,89.408L669.718,87.655L670.505,86.862L670.867,86.926L671.305,86.811L671.529,86.875L673.303,87.719L673.503,87.732L674.377,88.449L674.577,88.538L677.662,89.69L680.547,91.122L681.546,91.186L681.671,91.186L681.759,91.161L681.983,91.135L682.995,91.276L683.207,91.289L683.969,92.095L684.169,92.248L685.056,91.992L685.456,92.018L686.942,90.905L687.267,90.943L688.865,90.598L690.464,91.174L690.589,91.481L691.388,92.044L691.626,92.159L693.099,92.351L693.212,92.351L693.849,92.274L693.961,92.223L694.798,92.568L696.934,92.031L697.858,92.376L698.233,92.389L698.57,92.453L698.757,92.504L701.043,92.415L701.418,92.005L701.493,91.877L701.942,91.557L702.117,91.468L702.192,90.688L703.541,88.564L702.492,87.092L702.379,86.926L701.917,85.211L701.892,85.058L701.93,84.866L702.03,84.61L701.942,84.047L702.042,83.906L703.666,82.614L703.553,81.629L703.491,81.437L702.13,80.106L701.98,77.956L702.042,77.585L702.592,75.063L701.33,74.935L701.393,74.039L701.418,73.847L702.379,72.785L701.917,71.71L701.967,71.569L701.905,71.083L701.967,70.852L702.067,68.753L702.005,68.612L700.568,64.951L700.731,64.554L700.731,64.413L701.78,63.786L703.366,61.622L703.616,61.481L704.215,60.419L704.365,59.996L705.002,58.063L704.99,57.96L704.653,55.745L704.203,55.374L704.016,55.079L703.066,53.722L702.991,53.555L702.379,51.954L702.779,51.685L704.827,49.585L702.966,47.754L702.979,47.6L703.016,47.292L702.954,46.947L703.004,46.242L703.878,45.486L704.028,45.41L704.328,45.025L704.353,44.859L702.991,43.591L703.116,43.514L703.841,43.245L704.078,43.155L706.738,42.143L706.963,42.092L708.187,41.08L708.412,40.939L709.336,40.926L710.148,40.811L711.972,40.414L712.296,40.363L712.821,40.17L713.296,39.914L715.968,38.671L716.193,38.531L717.005,38.018L717.13,38.031L719.366,37.736L720.452,36.916L720.727,37.595L720.677,38.044L720.34,39.158L721.227,40.311L721.451,40.286L722.088,40.619L722.575,40.67L723.088,40.708L723.362,40.708L725.361,40.824L726.272,40.132L726.397,40.081L727.334,40.913L727.534,41.054L728.458,42.848L728.558,43.078L730.107,42.989L730.107,41.682L731.418,41.234L731.681,41.349L732.942,41.041L733.779,48.074L735.14,53.248L736.152,55.066L737.026,58.511L738.737,61.084L739.424,63.069L740.486,60.419L742.934,59.791L743.334,61.302L740.324,61.891L740.886,63.952L742.122,63.607L742.809,66.154L743.783,65.885L743.896,67.575L741.835,68.139L742.16,69.329L744.233,68.791L744.32,69.944L742.634,70.392L743.371,71.032L744.483,73.246L744.383,74.052L745.782,73.937L747.131,75.127L748.879,75.55L749.429,74.359L749.778,75.511L755.236,77.994L755.012,86.158L755.199,87.131L755.187,91.685L755.861,100.895L756.323,104.4L757.31,106.829L758.097,107.008L759.471,108.748L760.819,108.786L760.894,111.433L762.243,113.108L762.593,115.166L763.967,115.524L765.066,120.037L765.541,123.744L765.541,127.515L765.078,131.656L765.641,135.413L765.228,137.47L765.091,142.9L765.191,146.771L766.24,148.138L766.003,149.236L766.49,150.756L766.19,152.532L766.677,154.192L767.526,155.393L768.351,155.239L769.063,156.529L769.637,159.045L771.561,158.598L771.686,159.186L768.663,159.913L768.538,163.272L770.149,168.124L770.387,171.456L769.762,176.728L769.837,183.939L770.661,186.389L771.561,190.077L771.161,196.482L770.699,200.092L771.124,202.733L771.436,211.903L772.323,214.823L772.123,218.1L772.435,221.912L772.872,222.792L772.935,227.814L774.046,231.498L774.796,236.647L775.433,239.718L776.194,240.725L776.457,242.764L776.319,248L776.694,249.873L777.443,250.587L777.406,252.294L776.344,254.255L776.057,256.561L775.532,257.16L775.02,263.871L775.495,264.05L776.169,266.113L775.832,268.596L774.883,272.11L774.383,277.457L774.796,277.75L774.683,280.856L774.945,282.893L774.271,285.451L774.134,290.058L774.733,293.838L774.658,297.642L774.308,300.429L775.033,302.095L774.958,306.853L775.145,310.02L775.657,311.458L774.483,313.34L773.996,315.184L773.409,319.406L773.884,319.622L773.609,321.441L772.06,323.005L771.736,326.298L771.336,326.654L770.849,331.141L771.748,332.514L771.973,336.785L770.961,336.823L770.412,339.988L771.161,341.526L770.174,343.026L770.387,345.123L769.163,350.815L767.939,354.944L766.253,363.684L766.39,365.005L765.915,368.472L765.865,373.158L766.115,373.768L768.975,373.806L769.325,376.561L767.327,376.587L767.264,378.986L769.687,379.494L765.89,379.443L765.553,382.77L763.717,385.994L762.431,389.891L761.694,393.965L761.831,394.79L761.182,398.94L761.244,402.886L761.094,407.479L760.457,408.519L761.169,410.816L761.556,414.583L760.869,416.638L762.043,418.274L760.62,419.428L762.156,421.673L761.332,422.193L760.282,425.325L759.695,433.276L759.933,434.67L760.944,435.431L760.932,436.496L760.083,436.977L760.682,438.397L758.596,441.832L759.82,442.086L758.147,442.542L756.998,443.442L755.349,446.421L753.738,450.071L753.251,453.543L752.489,455.646L751.227,461.145L750.166,467.441L750.028,472.014L750.465,472.47L749.728,476.776L749.691,483.474L750.528,488.678L751.714,489.83L752.614,489.399L752.264,491.817L753.113,495.4L753.301,497.21L751.864,498.399L749.916,499.273L747.817,503.057L747.305,505.031L747.343,507.094L748.367,508.675L746.918,509.004L747.405,509.966L745.919,510.219L744.608,509.877L744.545,511.307L742.559,513.977L741.385,514.926L741.685,514.015L740.224,514.989L740.761,515.761L740.349,516.962L740.998,517.671L738.4,517.532L736.914,517.924L735.453,518.949L732.517,522.174L732.18,523.388L730.756,524.729L730.969,525.817L730.482,527.575L728.708,528.144L726.472,527.056L726.223,525.893L726.984,524.906L724.349,522.756L723.537,522.528L723.163,524.16L722.326,522.857L721.526,523.06L721.189,524.59L720.352,524.59L720.552,523.426L719.64,523.654L719.316,525.311L718.391,525.716L718.741,524.034L717.729,524.388L716.893,526.841L715.806,525.349L715.082,525.893L714.482,526.348L715.756,528.055L714.107,529.27L713.133,527.942L712.047,528.751L713.533,530.774L712.621,531.445L710.76,528.675L709.773,529.459L709.436,530.661L710.473,531.306L710.036,532.001L709.024,531.369L708.025,532.14L709.998,533.417L709.286,534.126L707.176,532.798L705.027,534.442L705.589,536.3L703.853,535.011L703.129,536.098L701.867,535.251L700.418,536.579L700.468,537.097L697.071,540.22L693.312,539.499L692.675,540.22L691.975,539.006L690.976,538.968L686.867,541.219L684.232,543.671L680.447,548.437L678.099,552.848L676.738,556.311L676.063,559.053L675.863,562.895L676.738,564.462L675.976,565.712L677.587,565.889L676.663,566.774L676.513,566.938L674.54,567.279L674.789,564.512L673.203,563.893L672.853,563.741L671.08,561.783L669.606,562.326L669.106,561.669L669.007,561.176L669.056,562.175L669.256,562.49L668.569,562.907L667.17,562.162L667.758,562.794L668.857,563.236L668.807,563.956L666.908,564.714L666.871,562.731L666.571,562.187L666.384,563.792L664.098,562.111L663.798,561.48L663.511,561.821L662.487,560.911L662.374,560.696L659.864,560.33L658.79,559.748L658.528,559.849L658.39,559.799L656.267,557.689L655.842,558.169L655.517,558.32L655.218,558.636L655.093,558.712L654.044,559.268L653.944,559.496L653.819,559.647L652.495,558.598L651.171,558.32L650.796,558.194L649.797,558.384L649.522,559.508L649.41,559.938L648.91,559.938L648.648,560.026L648.173,559.736L648.036,559.306L645.9,559.117L645.226,558.548L645.013,558.346L644.864,558.131L644.639,557.916L644.439,557.764L643.952,556.855L642.228,556.248L642.303,555.035L642.503,554.832L641.416,554.074L641.204,553.821L639.568,553.594L639.406,553.253L638.344,551.458L638.157,551.306L636.995,551.648L636.883,551.622L636.321,551.142L636.021,551.192L635.359,550.889L635.371,550.725L633.473,550.093L633.323,549.992L633.211,549.853L633.086,549.815L632.898,549.575L632.773,549.486L632.024,548.715L629.026,548.589L628.814,548.614L628.652,548.677L628.464,548.563L627.952,548.197L627.39,547.995L626.853,547.868L626.628,547.881L625.679,547.11L623.668,546.908L623.506,546.832L622.357,546.819L621.957,544.923L620.359,545.53L620.196,545.517L618.86,544.885L618.535,545.656L615.787,546.263L615.512,546.377L615.138,546.49L614.039,546.01L613.939,545.909L613.889,545.896L613.602,545.884L612.178,545.429L612.128,545.264L612.065,544.986L611.628,544.784L611.291,544.695L611.191,544.569L608.93,543.76L608.243,544.152L605.983,543.684L605.808,543.532L605.72,543.115L605.845,542.711L606.108,542.041L604.821,540.018L604.471,540.182L604.334,540.195L604.234,540.157L604.047,540.056L603.06,539.145L602.76,539.019L601.599,536.705L601.449,536.376L600.974,535.845L600.974,535.504L600.038,534.581L600.312,533.911L599.051,532.81L598.851,532.709L596.978,532.064L597.614,529.143L596.853,527.132L597.577,526.234L597.34,525.83L596.216,526.133L595.279,525.02L595.166,524.704L594.267,522.592L594.192,522.604L593.893,522.87L593.206,523.275L593.131,523.591L592.181,523.907L591.919,523.844L589.696,524.147L589.746,525.665L588.884,525.374L587.098,526.5L586.886,526.677L586.598,527.625L587.872,529.295L587.71,530.572L587.535,531.053L586.886,532.773L586.811,535.858L586.136,537.034L585.924,537.261L585.724,537.932L585.687,538.146L586.424,538.779L586.548,538.64L587.685,539.386L588.347,539.095L588.459,539.107L588.872,539.461L590.233,541.939L590.27,542.041L591.794,543.052L592.069,543.166L591.844,545.441L591.707,545.694L591.694,546.136L591.507,547.325L591.532,547.514L591.769,548.766L592.519,548.715L593.231,549.789L593.168,550.055L594.704,552.381L594.867,552.595L595.941,553.607L596.128,553.897L596.291,554.201L596.366,554.377L596.44,554.618L596.765,554.896L596.978,555.3L597.077,557.12L596.928,557.613L596.578,558.952L596.465,559.053L595.279,558.005L594.292,558.788L594.167,558.927L594.13,559.129L593.942,559.382L592.918,561.442L591.957,562.036L589.946,560.911L588.659,562.503L588.747,563.4L588.522,563.463L585.887,563.514L585.662,564.373L585.449,564.221L584.687,563.956L584.538,563.88L583.863,563.805L582.477,565.472L581.528,564.777L578.667,566.243L578.43,566.369L576.032,565.7L574.883,566.066L574.758,567.62L573.871,569.098L573.796,569.326L571.985,570.728L571.748,570.88L570.811,571.347L571.124,573.014L571.223,573.179L571.036,575.553L568.526,576.539L567.476,577.89L567.464,578.307L567.427,578.699L567.302,578.913L567.027,579.04L566.665,580.669L566.49,580.947L566.29,582.298L565.216,583.839L564.104,584.571L561.494,583.94L561.007,584.495L560.907,584.697L560.769,584.975L560.857,585.278L560.907,585.379L560.957,585.784L560.257,586.402L560.157,586.516L558.896,585.973L558.309,586.011L557.909,586.516L556.361,585.973L556.186,585.872L555.923,586.225L555.736,586.402L555.424,586.377L554.524,586.756L554.475,586.869L555.399,588.966L555.286,589.206L555.236,590.948L553.663,591.617L553.126,592.438L553.113,592.589L551.777,593.764L551.602,595.733L550.865,596.251L550.715,596.478L550.902,597.21L549.803,597.286L549.653,597.349L549.454,597.513L547.755,598.561L547.58,598.738L547.168,599.028L546.931,599.217L546.119,599.735L545.819,599.785L545.532,600L545.482,600L545.182,599.962L544.957,599.836L544.145,597.98L544.12,597.74L544.22,597.362L544.283,597.198L544.095,596.958L543.908,596.92L542.572,595.922L542.16,594.609L540.823,594.142L540.811,593.511L540.686,593.271L540.161,592.539L539.999,592.539L539.512,591.163L539.337,591.188L539.037,590.935L538.737,591.074L537.276,588.865L537.276,588.625L537.239,588.612L537.064,588.599L536.564,587.387L535.49,586.566L535.253,585.354L535.178,585.253L534.915,585.102L533.941,584.9L533.729,585.291L532.967,586.023L532.667,586.465L531.818,587.084L530.094,585.127L528.646,585.342L528.121,583.447L527.921,583.233L526.834,582.336L526.56,582.033L524.799,579.507L523.562,580.416L522.001,579.494L521.564,579.646L519.865,579.267L519.69,579.418L519.341,579.57L519.028,579.456L518.928,579.393L518.541,579.229L516.855,579.368L516.493,579.343L516.443,579.33L516.293,579.216L514.195,578.484L514.082,578.269L510.198,576.589L509.761,574.556L509.848,574.404L509.823,573.014L509.823,572.699L509.274,570.122L509.036,569.806L507.975,567.822L507.775,567.936L507.5,567.633L507.413,567.393L506.663,564.815L507.101,563.552L506.613,562.693L506.638,562.49L507.787,560.646L508.075,560.38L507.775,559.129L507.638,558.775L507.001,557.676L507.076,557.398L506.451,555.616L506.426,555.275L505.377,553.265L504.478,552.886L504.34,552.924L504.24,552.911L504.09,552.836L501.942,553.076L501.717,553.114L499.057,552.254L497.895,552.911L495.647,552.33L493.874,551.104L492.55,550.965L491.176,549.903L489.665,549.486L489.527,549.259L488.765,548.665L488.89,547.413L488.416,545.555L488.541,544.265L487.866,541.345L486.405,539.917L486.23,538.88L483.57,537.198L482.121,535.213L482.108,534.733L481.534,533.468L480.422,532.709L480.36,531.862L478.923,530.952L478.686,530.661L477.962,530.838L476.213,528.688L475.576,528.814L474.627,528.663L473.353,527.499L471.567,527.967L469.781,529.788L469.431,529.839L469.031,529.927L468.282,530.218L464.772,528.625L463.761,526.5L462.399,526.475L461.013,525.804L460.813,525.311L459.577,524.211L458.79,524.502L458.215,524.388L457.179,523.869L457.041,523.73L455.442,522.528L455.355,522.415L455.455,521.276L455.343,520.897L455.33,520.517L456.354,517.962L456.417,517.671L456.791,517.038L456.841,516.659L458.253,515.824L460.276,513.698L460.264,513.458L459.851,511.699L459.065,511.193L457.89,510.029L457.603,509.89L457.428,509.713L457.229,509.447L457.204,509.118L456.866,508.713L456.691,508.65L456.542,508.435L456.766,505.588L457.841,504.639L458.34,504.196L459.427,503.424L459.102,500.716L457.416,500.235L456.766,499.526L456.554,499.311L456.542,498.653L456.741,498.463L456.367,497.108L455.355,496.805L455.318,495.678L455.23,495.362L456.392,494.4L457.428,492.438L457.341,490.741L457.091,490.273L457.441,490.26L457.628,490.26L459.139,490.412L459.489,490.475L459.552,490.475L459.639,490.336L459.689,489.805L459.502,489.678L459.502,488.197L458.765,485.956L458.852,482.297L458.727,482.081L456.641,482.297L455.805,483.069L455.305,483.069L454.556,483.056L454.156,482.942L452.582,483.36L452.133,483.436L451.845,483.398L451.646,483.183L449.934,482.917L449.697,483.056L449.173,483.094L448.985,483.056L447.936,484.588L447.811,484.867L446.962,485.741L446.163,485.348L446.15,484.791L446.075,484.614L445.888,484.601L445.738,484.715L445.563,484.816L443.714,485.044L443.427,484.373L443.202,484.247L441.766,483.234L441.404,483.018L440.267,483.031L439.555,482.094L439.555,481.651L438.681,480.828L438.631,480.524L438.656,480.309L438.731,480.081L438.594,479.891L438.531,479.739L438.731,478.662L437.432,477.269L437.332,477.042L437.182,476.548L437.382,476.345L438.319,475.813L438.769,473.799L438.856,473.495L438.906,471.862L438.893,471.279L438.843,471.026L438.694,470.772L438.044,469.556L437.782,469.544L436.458,467.884L436.408,467.669L435.171,466.504L436.308,465.478L436.358,465.25L436.445,465.148L436.72,464.819L436.745,464.591L436.783,464.249L436.733,464.008L436.595,463.793L436.758,463.096L435.858,461.956L435.584,461.994L433.91,461.12L433.635,460.968L432.711,460.132L432.561,460.17L430.787,460.22L430.55,460.157L429.901,460.22L429.576,459.916L429.389,459.764L429.276,459.549L428.839,459.017L428.664,458.928L428.052,459.663L427.915,459.587L427.303,458.599L427.153,458.446L425.23,455.52L425.017,455.355L422.182,454.455L421.22,453.327L421.208,453.049L420.234,451.148L421.77,450.248L421.32,449.006L418.66,448.474L419.134,447.523L416.724,444.456L416.437,444.241L416.349,444.165L416.137,444.025L415.587,443.582L415.338,443.379L414.488,442.149L414.301,442.073L413.601,441.402L413.014,442.656L412.815,442.758L411.815,442.935L411.466,442.973L411.328,443.024L411.153,442.986L411.153,442.847L411.016,442.732L410.379,442.745L409.992,442.555L409.929,442.01L409.742,441.82L409.38,441.338L409.292,440.958L409.23,440.856L409.118,440.704L407.469,440.324L407.344,440.172L407.144,439.703L406.944,439.665L406.307,439.107L406.195,438.917L406.07,438.752L405.783,438.549L405.483,438.473L405.121,438.41L404.209,437.725L404.022,437.472L401.936,435.558L401.898,435.291L400.287,434.1L400.05,434.062L398.888,432.844L398.114,432.768L398.027,432.73L397.564,432.413L397.327,432.578L396.753,432.578L396.578,432.73L396.278,432.54L396.103,432.451L394.192,433.795L392.269,433.161L392.144,433.06L389.334,431.767L387.897,431.792L387.648,431.691L385.424,431.336L385.299,431.184L384.175,430.943L384.063,430.803L382.214,431.653L381.902,431.513L379.916,429.802L379.704,429.523L379.467,429.459L379.379,429.282L378.255,428.762L378.105,428.445L377.418,426.784L372.697,424.653L372.585,424.501L370.874,424.907L369.45,424.501L369.337,424.463L369.213,424.298L369.063,424.032L367.839,422.802L366.215,423.651L365.99,424.501L365.903,424.565L364.242,424.336L363.917,424.159L362.343,423.499L360.794,423.512L360.445,423.487L359.945,423.398L359.633,423.208L358.871,423.081L358.621,423.068L358.346,423.081L358.221,423.043L356.985,422.599L356.698,422.523L356.111,422.637L355.761,422.599L355.661,422.662L355.424,422.853L355.324,422.891L354.749,423.119L353.513,422.675L353.313,422.65L351.802,421.901L351.664,421.851L349.379,420.938L348.966,420.988L348.754,420.988L348.392,420.976L348.08,420.976L347.767,420.925L347.355,420.836L347.068,420.722L345.869,420.265L345.507,420.481L344.595,420.189L344.345,420.113L343.109,419.454L342.759,417.678L341.797,417.513L341.585,417.348L339.936,416.879L339.637,416.904L338.562,417.259L338.4,417.31L337.014,417.297L336.676,417.374L335.84,418.135L334.016,417.729L333.841,417.691L331.73,417.615L331.468,417.881L331.118,418.109L330.519,418.693L330.294,418.781L329.795,418.934L328.346,418.502L328.096,418.49L326.522,419.175L326.322,419.301L324.661,420.646L323.225,420.329L322.975,420.443L321.988,420.253L321.589,420.1L321.489,420.05L321.114,419.821L320.377,419.137L320.252,418.769L320.177,418.604L319.241,417.285L319.128,417.361L318.579,417.589L317.929,417.615L317.442,417.691L317.167,417.703L315.344,418.135L315.056,418.426L314.707,418.553L314.257,418.705L313.67,419.187L313.558,419.352L312.396,419.492L312.196,419.58L309.324,421.356L308.2,421.331L307.662,421.305L307.3,421.28L307.063,421.217L305.414,420.697L305.277,420.735L302.954,423.296L302.791,423.829L302.567,424.07L301.23,425.338L299.02,425.909L298.108,425.503L297.858,425.351L296.559,424.996L294.198,426.619L294.036,426.796L293.749,427.925L291.75,427.773L291.501,427.684L290.789,427.735L290.077,429.459L289.377,429.979L289.34,431.348L285.705,433.681L285.655,434.86L284.144,436.153L284.232,436.622L284.319,436.787L284.556,437.168L284.544,439.031L286.63,440.603L286.605,440.856L286.392,441.363L286.28,441.528L286.205,441.871L286.242,442.149L285.705,443.886L285.743,444.152L285.58,444.824L285.605,445.115L285.418,445.812L285.406,446.066L285.381,446.243L285.431,446.509L285.593,446.89L285.755,447.105L286.13,448.55L285.98,450.73L286.942,452.136L286.779,452.136L282.57,451.731L282.383,451.794L281.471,452.225L281.221,452.124L278.311,451.338L275.651,450.159L275.364,449.969L272.778,449.323L272.416,449.386L270.405,449.754L270.093,449.69L269.144,450.299L267.957,448.753L267.52,449.969L267.495,450.223L266.933,451.515L266.471,451.896L266.309,452.187L266.184,452.491L264.685,454.455L264.123,454.645L264.01,454.747L263.211,456.863L263.111,456.926L262.199,457.04L261.987,457.129L261.463,457.433L261.175,457.369L259.152,458.168L259.027,459.485L258.665,459.675L257.903,459.485L257.528,459.27L256.504,459.409L256.342,459.447L255.367,458.675L255.068,458.763L253.157,458.548L252.907,458.446L252.82,458.763L252.707,458.991L252.582,459.257L252.42,459.549L252.07,459.675L251.708,459.777L251.083,460.461L249.148,459.992L248.773,460.233L246.562,459.929L246.275,459.929L246.15,459.789L245.975,459.536L245.076,460.638L242.253,460.588L242.041,460.79L241.828,461.829L241.766,461.931L241.092,462.691L240.904,462.767L240.005,462.893L238.818,464.274L238.706,464.376L238.044,465.136L236.583,464.325L236.32,464.287L236.046,464.211L235.733,464.097L235.509,463.996L235.259,463.844L232.598,464.173L231.137,465.3L230.837,465.376L228.564,466.415L227.165,465.959L226.778,466.554L226.728,466.77L226.116,469.328L226.266,470.772L225.142,471.748L225.105,472.052L224.967,473.559L224.88,473.837L224.255,473.964L223.244,474.711L223.019,474.673L222.607,474.635L222.294,474.597L220.134,473.926L218.96,475.547L218.835,475.737L217.486,476.231L217.286,476.231L216.949,476.396L214.875,477.155L213.764,478.574L211.94,479.004L210.079,478.029L207.694,478.498L206.932,480.651L207.531,481.195L207.619,481.36L207.869,481.967L206.857,482.892L206.682,483.436L206.645,483.563L206.507,483.702L206.12,484.234L205.82,484.449L205.183,485.12L205.383,486.677L204.883,487.032L204.321,487.412L204.009,487.437L203.634,487.513L203.222,487.576L202.198,488.146L202.061,488.133L199.975,487.754L199.763,487.703L199.525,487.627L199.375,487.5L199.063,487.222L198.426,487.386L198.176,487.538L198.077,487.589L197.727,487.754L197.177,488.792L197.077,488.994L196.79,489.02L195.903,489.146L195.778,489.108L194.579,488.095L192.981,487.526L192.806,487.323L192.693,487.26L192.519,487.235L192.444,487.247L192.306,487.311L191.582,487.614L191.457,487.576L190.333,487.602L190.408,488.108L190.295,489.02L190.158,489.311L189.633,490.146L189.583,490.286L189.571,490.627L189.521,490.995L189.321,492.058L189.409,492.425L188.122,494.007L187.323,494.134L186.823,494.185L185.811,494.817L185.637,494.969L184.6,495.703L184.313,495.931L183.388,496.627L181.315,496.577L180.965,496.577L180.204,496.678L179.492,498.159L179.354,498.627L178.63,498.754L178.343,498.893L177.056,498.501L176.769,498.248L175.42,499.564L174.583,501.272L174.371,501.285L174.296,501.323L174.121,501.437L173.084,502.424L172.972,502.601L171.873,504.398L171.71,504.613L170.836,504.297L170.649,504.234L170.436,504.272L169.587,504.778L167.776,504.55L167.564,504.462L166.777,504.474L166.677,504.664L165.99,505.423L163.542,506.195L162.281,507.562L162.018,507.625L161.219,508.017L161.094,508.068L160.957,508.22L159.345,509.877L159.183,510.13L159.121,510.232L158.996,510.358L158.883,510.384L156.972,510.637L156.748,510.7L155.873,510.978L155.611,511.029L154.424,510.902L154.162,510.257L152.676,509.055L152.489,508.903L151.702,508.144L151.514,507.916L150.066,507.84L149.766,507.916L149.141,508.119L148.767,508.372L148.542,508.524L148.329,508.675L148.117,508.815L146.319,509.498L143.096,509.511L141.323,510.219L141.248,510.409L141.285,510.75L140.673,512.294L140.686,512.712L140.673,513.85L140.511,514.28L140.586,514.711L140.786,515.09L140.898,515.786L140.049,518.215L137.576,520.353L137.276,520.429L136.864,520.492L136.514,520.517L136.502,520.58L136.377,520.783L135.59,521.453L133.941,521.516L133.616,522.857L131.693,524.046L131.393,524.109L131.256,527.12L130.644,528.22L130.494,528.523L129.507,530.205L129.332,530.433L129.72,531.9L127.983,533.228L127.796,533.202L126.547,532.962L125.948,533.063L122.75,532.241L122.076,531.495L120.327,532.052L118.391,533.557L118.241,533.746L116.693,535.542L115.831,538.172L114.969,539.322L114.869,539.6L114.469,539.954L113.258,539.638L110.448,539.651L109.698,538.323L109.324,538.033L106.501,536.199L106.001,536.275L105.714,536.414L105.239,536.667L105.015,536.667L102.991,536.161L101.567,537.148L100.069,536.907L98.557,537.375L98.345,537.4L97.071,538.374L96.934,538.677L97.084,536.326L97.046,536.111L96.584,535.58L96.459,535.289L96.297,535.099L95.81,534.555L95.422,534.227L95.335,534.075L95.148,532.57L94.123,531.622L93.999,531.533L93.724,531.445L93.549,531.407L92.899,531.394L92.537,531.457L92.35,531.546L92.15,531.66L91.875,531.887L90.814,532.886L88.64,533.013L88.203,533.038L87.366,532.545L87.104,532.431L86.942,532.393L86.679,532.317L84.706,532.507L84.419,532.558L84.157,532.507L83.445,532.191L81.409,531.837L80.947,531.811L80.572,531.824L80.11,531.951L79.773,532.077L78.736,532.393L76.375,529.573L76.038,529.232L74.702,527.942L74.177,528.043L74.052,528.018L72.703,528.346L72.528,528.283L72.416,528.296L72.154,528.258L71.854,528.119L71.679,528.157L69.693,529.737L68.607,528.827L68.457,528.713L66.946,528.46L65.746,527.499L65.547,527.297L64.46,526.184L64.26,526.032L63.323,524.679L62.624,525.134L62.624,525.4L62.012,526.196L61.875,526.171L61.437,526.31L61.175,526.588L59.514,528.587L58.64,529.105L58.328,529.08L55.68,529.889L55.517,529.864L54.631,530.218L54.468,530.37L54.019,530.509L53.781,530.522L53.506,530.357L53.294,530.294L53.244,530.61L53.157,530.635L52.907,530.294L52.907,530.054L52.382,528.713L52.42,528.473L50.634,527.512L50.659,527.36L50.771,526.576L48.948,526.652L48.835,526.399L48.935,525.475L48.773,525.298L49.522,525.033L49.56,524.995L49.622,525.02L49.734,525.02L50.122,524.754L50.259,524.653L50.359,524.565L50.809,524.16L52.47,524.577L53.594,524.299L53.469,524.097L54.143,523.06L54.356,520.998L53.481,520.467L54.843,519.05L55.33,517.443L56.704,517.367L56.804,517.253L56.854,515.368L56.654,515.077L56.292,514.673L57.341,514.078L57.378,513.838L57.416,513.496L57.391,513.079L57.303,512.825L57.166,512.61L56.292,512.534L56.167,512.446L56.079,512.332L56.254,511.687L56.479,511.548L56.404,510.409L56.404,510.27L56.729,509.207L56.929,509.118L57.928,508.372L57.716,506.904L57.553,506.701L56.779,506.385L56.616,506.195L55.717,504.816L55.855,504.424L56.829,503.879L57.116,503.576L57.203,503.525L57.378,503.462L58.24,502.905L58.24,502.627L59.014,501.159L59.114,500.716L58.452,500.146L58.39,500.019L58.04,497.627L58.178,497.26L58.178,497.172L58.115,497.02L57.641,496.058L57.553,495.564L57.578,495.374L57.591,495.185L57.503,494.767L57.266,492.792L56.229,491.134L55.967,490.893L55.417,489.678L55.292,489.425L54.643,488.475L54.581,488.171L54.606,487.918L54.168,487.437L54.655,485.88L56.242,482.993L55.954,481.474L56.042,481.309L56.479,481.246L56.516,479.308L56.929,479.169L58.053,477.966L58.515,476.066L58.053,474.851L58.964,474.61L59.177,474.458L59.527,474.167L59.664,473.989L59.989,473.685L60.164,473.635L60.626,473.318L60.825,473.027L60.676,471.874L60.763,471.634L60.026,470.646L59.926,470.418L59.864,470.228L59.764,469.987L59.601,466.402L59.452,466.326L58.827,466.035L58.64,464.566L58.665,464.338L57.241,462.007L57.016,461.893L56.766,461.208L56.504,460.702L56.342,460.448L56.004,459.941L55.855,459.701L55.742,459.511L55.617,459.27L55.842,456.521L55.942,456.254L55.967,456.153L56.129,455.824L56.467,454.481L56.442,454.303L54.868,453.239L54.743,453.163L54.468,452.909L54.156,452.618L53.931,452.364L52.27,449.45L53.057,447.637L52.782,447.168L52.22,446.205L51.983,445.774L51.745,445.331L51.571,444.951L51.408,444.596L51.333,444.418L51.158,443.772L51.121,443.518L51.046,442.441L50.996,442.035L50.896,438.03L50.958,437.624L51.558,435.494L53.307,432.173L53.481,431.919L53.819,431.412L54.043,431.107L54.406,430.283L54.406,429.789L54.331,428.724L54.331,428.204L54.568,426.188L54.668,425.668L54.905,423.537L54.955,423.233L54.98,422.903L55.255,421.343L55.317,421.178L56.604,419.099L56.779,418.642L57.091,415.75L57.503,415.547L58.04,415.065L57.915,414.596L57.328,413.061L57.216,412.947L57.253,412.236L57.815,412.135L58.303,411.78L55.767,411.323L55.417,410.613L55.642,410.486L55.78,409.534L54.106,409.154L54.056,408.9L54.193,407.339L54.868,407.01L54.955,405.754L54.88,405.69L54.331,405.36L54.406,404.98L54.556,403.419L53.469,402.594L53.169,402.188L52.982,400.488L52.77,400.424L52.045,400.361L51.758,400.31L50.771,399.549L50.571,399.13L49.235,397.354L48.973,396.694L48.398,395.856L48.173,395.666L47.674,395.475L47.199,395.272L47.049,395.082L46.924,394.841L46.912,393.787L47.262,393.267L47.424,392.785L47.361,392.493L47.012,392.328L46.699,392.252L45.263,391.642L45.201,391.401L45.113,389.624L45.013,389.548L43.777,389.523L43.602,389.929L43.44,390.322L43.165,390.843L42.39,392.797L42.303,393.153L42.166,394.105L41.991,394.384L41.166,394.968L40.754,395.26L39.305,396.656L39.193,396.757L37.482,397.239L37.095,397.214L35.359,397.214L35.334,396.313L35.384,396.11L35.534,395.285L35.446,395.018L35.384,394.701L35.371,394.384L35.159,393.813L34.16,391.477L33.985,391.236L32.936,390.373L32.748,389.967L31.387,388.787L31.387,388.507L31.374,388.393L31.262,388.05L30.001,385.512L28.976,384.763L28.677,384.521L27.265,383.29L27.09,383.189L26.666,382.693L26.316,382.376L25.804,381.741L25.692,381.602L25.629,381.5L25.592,381.132L25.404,380.586L25.254,380.357L24.368,378.974L24.18,378.783L23.968,378.504L23.806,378.25L23.019,377.958L22.594,374.898L22.557,374.288L23.206,373.171L23.281,372.904L23.506,372.142L23.681,371.901L24.83,369.26L24.792,369.082L26.029,367.405L26.116,367.266L26.466,365.996L26.553,365.742L27.777,365.589L27.902,365.221L27.915,365.068L28.002,364.649L28.627,363.786L29.039,363.468L29.239,363.265L29.713,363.011L29.813,362.896L29.813,362.655L29.938,362.287L30.113,361.969L31.187,361.093L31.437,360.851L31.699,360.686L31.837,360.547L32.011,360.254L32.111,360.051L32.236,359.734L32.486,359.441L32.748,359.34L32.986,359.276L33.548,358.705L33.598,358.463L33.698,358.07L33.735,357.892L33.835,357.371L34.022,357.028L34.384,356.786L34.684,356.558L34.959,356.545L35.259,356.469L35.346,356.418L35.559,356.278L36.245,355.325L36.345,355.097L36.882,354.881L38.581,352.454L38.831,352.073L39.043,351.832L39.293,351.616L39.58,351.489L40.267,351.349L40.817,351.311L41.017,351.222L41.254,351.031L41.666,350.65L41.691,350.612L41.828,350.307L41.991,349.977L42.103,349.748L42.153,349.583L42.328,348.871L42.378,348.617L42.465,348.312L42.503,348.096L42.59,347.791L42.628,347.651L42.49,347.334L42.478,346.775L42.553,346.279L42.628,345.783L42.603,345.516L42.553,345.148L42.603,344.741L42.753,343.89L42.878,343.496L43.09,343.127L43.252,342.759L43.802,341.145L43.764,340.789L43.777,340.687L43.714,340.382L43.127,339.62L43.052,339.124L43.127,338.972L43.44,338.717L43.827,338.311L43.952,338.133L44.177,337.828L44.551,337.37L44.838,337.052L45.076,336.798L45.251,336.582L45.738,335.629L45.825,335.247L45.85,335.108L45.9,334.637L46.325,334.065L46.425,333.862L46.5,333.595L46.475,333.29L46.5,333.023L45.113,331.307L45.013,331.078L45.038,330.747L45.138,330.468L45.063,330.201L44.901,329.603L44.876,329.184L44.764,328.929L44.739,328.319L44.876,327.989L44.851,327.658L44.264,327.111L43.914,326.463L43.927,326.387L44.888,325.954L45.126,325.802L46.462,324.06L46.475,323.78L46.912,323.106L47.212,323.094L47.674,322.509L47.911,322.216L48.598,321.987L48.96,321.987L49.647,321.962L49.947,321.822L50.247,321.619L50.209,321.415L50.184,321.174L50.209,320.563L50.646,318.516L50.746,318.122L50.222,314.714L50.222,314.307L51.283,311.114L51.321,310.605L51.945,307.743L52.008,307.158L51.995,306.65L51.933,306.421L51.508,305.568L51.508,305.225L51.221,304.754L50.859,304.169L49.572,303.24L49.385,303.088L49.135,298.953L47.599,298.698L48.036,297.706L47.249,297.591L46.987,297.413L46.05,296.573L42.778,297.49L41.604,297.082L41.454,296.93L40.704,296.115L40.43,295.683L39.793,294.881L39.718,294.512L39.705,294.207L39.755,293.672L39.793,293.189L39.231,292.043L39.043,291.853L38.768,290.835L38.619,290.567L38.594,290.071L38.469,289.918L37.519,288.697L35.621,287.627L36.633,286.215L36.982,285.986L38.194,285.502L38.406,285.235L38.731,284.967L39.006,284.84L40.117,284.573L40.092,284.433L39.73,283.338L39.718,283.16L39.668,283.058L39.58,282.727L39.53,281.773L39.53,281.391L39.755,278.437L40.554,277.33L40.542,277.05L40.567,277.012L40.967,276.833L41.429,275.751L41.666,275.433L41.966,273.498L42.79,272.836L43.077,271.512L43.44,271.142L44.251,270.149L45.688,269.742L45.75,269.525L45.713,269.334L46.237,268.176L49.26,269.347L49.397,269.742L49.56,269.997L49.685,270.06L51.021,270.378L51.296,270.353L52.745,269.767L52.919,269.755L53.082,269.487L53.157,269.385L53.294,269.309L53.631,269.143L55.38,268.341L57.328,266.52L58.015,266.686L58.215,266.737L58.565,266.775L58.815,266.877L59.527,267.615L59.701,267.934L59.914,268.392L60.064,268.443L60.014,268.66L59.939,268.876L59.951,268.991L60.064,269.169L60.176,269.258L61.862,268.774L62.162,268.621L62.274,268.583L62.462,268.494L64.847,267.641L66.246,267.564L67.02,266.8L67.245,266.66L68.432,266.138L69.194,267.437L69.456,267.717L70.505,267.806L70.73,267.679L71.617,266.558L72.004,266.584L72.978,266.431L73.178,266.291L73.515,266.164L73.765,266.087L75.376,265.272L75.688,265.094L76.9,264.254L77.037,264.05L77.874,263.821L78.186,263.706L78.374,263.579L78.748,263.337L78.998,263.286L79.81,263.4L81.072,264.878L81.596,264.776L81.908,264.674L82.058,264.572L82.233,264.381L83.07,263.082L84.556,262.674L84.769,262.623L87.591,261.477L88.028,262.713L89.265,263.502L91.088,263.808L93.649,262.725L94.898,262.585L95.11,262.598L96.297,261.363L96.534,261.031L97.034,260.255L97.233,260.089L97.646,258.764L97.721,258.599L99.532,259.006L99.894,258.841L102.104,257.644L103.703,258.497L103.965,259.019L104.515,259.949L106.126,260.318L106.463,260.624L107.363,260.904L107.513,260.993L108.974,261.121L109.461,260.942L110.498,260.79L110.76,260.751L113.145,261.732L113.295,261.923L115.793,262.674L116.031,262.725L119.216,260.14L119.715,259.452L119.653,259.121L119.053,258.624L119.403,257.3L119.003,255.287L119.066,254.918L119.49,253.784L119.74,253.529L120.052,253.211L121.039,251.147L121.164,250.739L120.977,250.357L120.789,250.103L120.315,249.529L120.177,249.402L120.639,247.975L120.34,246.242L120.452,246.026L120.689,245.72L120.964,245.35L122.55,244.28L122.788,244.102L122.301,243.184L122.226,243.044L121.451,241.388L121.689,239.795L122.351,238.979L122.838,238.317L122.9,237.272L124.411,237.374L124.836,237.297L124.948,237.284L125.386,237.195L126.472,236.673L126.684,236.622L127.821,236.838L128.046,236.787L128.396,236.66L128.433,236.622L128.358,236.252L128.358,236.099L128.433,235.895L129.095,234.952L129.282,235.029L130.469,235.143L130.644,235.054L132.979,235.717L133.179,235.615L135.49,234.532L136.039,234.353L137.538,233.614L140.174,233.359L140.473,234.404L142.384,235.666L142.809,236.099L143.721,238.151L145.931,239.132L146.094,239.285L147.343,240.636L147.455,240.789L148.342,241.018L150.852,238.903L151.602,237.233L152.663,237.335L153.775,236.571L154.187,236.418L155.511,236.137L156.073,236.048L158.334,236.443L159.683,237.577L161.156,237.182L161.431,237.348L161.594,237.399L162.43,237.603L162.58,237.756L163.08,237.922L163.292,237.756L164.054,237.412L165.016,235.857L165.166,235.666L166.64,235.08L166.814,235.041L167.689,235.296L167.826,235.347L168.638,236.125L170.112,235.895L171.586,236.443L173.946,236.685L174.196,236.596L174.621,236.316L175.495,237.667L176.781,237.832L177.019,237.845L178.68,238.826L179.054,238.979L179.966,240.343L180.915,240.368L181.253,240.266L182.239,240.457L183.401,241.566L185.025,240.598L185.399,240.419L185.861,240.164L186.099,240.011L186.411,239.553L186.636,239.285L187.81,238.686L187.96,238.508L188.672,237.705L191.619,235.882L191.319,235.169L191.307,234.939L192.206,233.856L192.294,233.576L192.306,233.372L192.281,232.849L192.768,230.81L193.98,229.663L194.03,229.472L193.805,228.477L193.817,228.248L193.455,228.044L193.255,227.929L193.156,227.929L192.843,227.904L191.082,228.299L189.608,227.407L189.221,227.292L188.584,226.119L188.397,225.66L188.185,224.882L185.836,222.779L185.624,222.613L185.637,222.129L185.786,221.848L185.799,220.102L183.826,219.031L184.712,217.628L185.062,217.309L185.637,216.787L185.025,214.02L185.012,213.637L184.65,211.431L184.725,211.163L186.261,207.834L186.199,206.215L186.099,205.985L185.699,205.411L186.061,205.092L185.699,202.082L184.837,201.916L183.963,200.245L184.5,199.684L184.525,199.48L183.738,198.293L183.651,198.115L183.264,197.707L183.189,197.464L183.763,196.916L183.863,196.571L183.776,195.704L183.813,195.474L183.813,195.334L183.713,195.079L183.626,194.785L183.601,194.313L183.401,193.152L183.513,193.037L182.127,191.391L181.54,190.97L180.965,190.626L180.591,190.409L179.254,190.473L178.48,189.337L178.28,189.082L177.243,187.397L176.994,187.04L177.006,184.079L178.105,183.454L178.218,183.033L178.368,182.165L178.255,182.076L177.518,181.757L177.293,181.387L176.644,180.634L176.556,180.238L176.119,178.63L176.119,178.285L176.169,177.762L176.094,177.545L176.057,177.519L175.92,177.43L175.907,177.021L175.944,176.843L176.457,175.285L176.482,174.89L176.482,174.66L177.356,173.575L177.681,173.486L178.243,172.873L178.305,172.503L179.617,170.728L178.542,170.115L177.268,167.051L177.556,166.604L177.905,166.362L181.053,165.557L182.027,164.727L183.663,164.255L184.937,164.702L185.786,163.757L186.036,163.336L187.335,162.927L187.535,162.71L187.785,162.416L188.247,161.957L188.584,161.803L189.483,160.807L190.857,160.335L191.07,160.207L191.931,159.53L192.119,159.288L192.831,158.049L193.043,157.538L193.543,157.398L194.13,157.347L195.241,158.636L195.429,158.611L196.166,158.241L196.565,157.934L197.927,156.785L197.977,156.734L197.977,155.597L199.75,153.707L199.962,152.161L199.413,151.408L201.211,149.415L201.374,149.275L202.648,148.15L202.973,148.15L203.622,147.103L204.784,146.566L207.032,146.337L207.182,146.311L207.656,146.694L207.731,146.745L207.856,146.745L208.281,146.847L208.58,146.809L208.668,146.554L208.955,144.752L208.031,144.433L207.369,142.657L207.082,142.274L207.069,141.827L207.019,141.661L206.769,141.367L206.532,141.137L206.345,140.128L207.032,139.425L207.044,139.208L207.157,137.38L207.331,137.227L207.294,135.681L207.631,135.451L210.591,132.755L210.779,132.537L210.242,130.94L211.79,130.799L213.014,130.109L213.102,129.943L213.901,128.307L214.163,128.039L214.651,127.822L214.75,127.438L214.825,126.901L214.963,126.812L215.075,126.786L215.412,126.646L215.887,126.607L216.199,126.582L217.561,126.109L217.86,124.319L217.748,124.064L218.597,122.734L218.572,122.338L219.347,121.213L219.584,120.932L220.796,119.845L221.258,117.199L221.258,116.79L221.395,115.422L221.383,115.256L220.895,114.003L220.833,113.351L222.394,112.596L223.019,112.366L224.443,111.893L225.242,108.722L226.041,107.776L226.316,107.546L227.103,106.881L227.078,106.561L228.102,105.934L228.339,105.742L228.889,105.141L228.951,104.617L229.026,104.349L229.101,104.233L230.013,103.415L230.051,102.392L231.287,101.471L231.462,101.343L233.485,99.616L236.258,97.749L236.445,97.595L236.608,97.378L236.77,97.135L237.007,96.546L237.07,96.278L237.47,95.638L237.744,95.306L238.032,94.948L238.456,94.577L239.193,93.937L239.355,93.643L239.468,93.374L239.493,93.08L240.042,91.928L240.242,91.813L243.277,90.534L244.976,87.924L245.101,87.758L245.663,86.9L245.813,86.491L246.437,85.365L246.525,85.224L247.087,84.968L247.162,84.764L249.098,83.894L249.31,83.689L249.597,83.075L249.785,83.062L251.333,82.755L251.521,82.704L251.695,82.64L253.444,82.064L254.518,81.002L253.906,79.133L253.731,79.031L252.295,75.806L251.046,74.615L250.909,74.487L249.585,74.257L249.435,73.937L248.76,72.312L247.774,71.531L247.536,71.39L246.1,69.879L245.513,68.331L245.463,68.075L244.726,66.641L244.489,66.474L244.089,65.706L244.077,65.437L243.714,63.069L243.54,63.005L242.803,62.659L242.553,62.506L242.128,62.326L240.555,63.363L240.13,63.581L239.768,63.696L239.605,63.863L239.268,64.08L239.018,64.247L238.793,64.541L237.407,64.951L237.007,65.719L236.708,65.681L235.134,65.45L234.734,65.412L234.584,65.412L234.247,65.412L233.448,66.257L232.923,66.334L232.149,66.18L231.937,66.154L230.9,66.218L230.525,66.218L230.113,66.116L232.099,65.975L232.524,66.078L234.609,65.181L236.208,65.309L236.945,64.733L237.32,64.362L240.305,61.545L240.505,61.481L242.291,61.84L242.79,61.994L243.29,62.16L243.952,62.39L244.451,63.876L244.401,64.132L244.264,66.078L245.401,67.076L245.55,68.663L247.511,71.224L248.885,72.094L249.11,73.105L249.247,73.246L249.297,73.31L249.46,73.681L249.572,73.911L249.622,74.103L250.584,74.347L250.759,74.308L250.959,74.347L251.108,74.475L251.146,74.539L251.358,74.743L252.158,75.511L252.295,75.652L253.357,77.969L253.294,78.135L253.906,78.954L254.056,79.082L254.443,79.696L254.656,79.645L258.378,79.044L258.627,79.018L260.726,78.225L260.863,78.071L262.599,76.855L262.761,76.702L263.536,76.318L263.923,76.241L264.148,76.164L266.146,75.486L266.346,75.575L267.258,74.731L267.595,74.667L268.832,74.667L269.056,74.564L270.98,73.707L272.966,75.908L273.078,76.151L273.565,78.148L274.302,78.992L274.489,79.108L275.339,79.415L276.013,81.04L277.737,81.424L279.423,82.307L279.136,83.241L279.211,83.548L279.81,85.826L279.81,85.979L279.748,87.259L282.083,88.372L283.395,87.988L284.119,86.875L284.281,86.721L285.481,85.378L285.555,85.122L286.155,84.751L286.392,84.431L288.166,83.305L288.765,83.958L288.84,83.894L290.014,82.537L291.088,82.192L291.813,82.089L293.524,82.473L293.949,81.885L294.711,81.629L296.709,79.76L297.046,79.658L298.557,78.992L298.595,78.724L301.005,76.625L301.255,76.51L301.88,76.625L302.242,76.791L303.666,77.405L305.302,78.928L305.627,80.016L305.739,80.144L307.725,81.629L308.687,81.155L308.649,82.998L309.136,83.689L309.261,83.842L310.148,84.879L311.147,84.469L312.296,84.853L312.608,85.084L313.171,84.994L313.37,84.776L316.543,84.725L316.868,84.789L317.892,84.738L319.278,83.049L321.014,82.256L321.276,82.179L321.426,82.268L321.776,82.32L321.888,82.371L323.112,82.998L324.749,82.678L324.849,82.691L325.585,83.203L325.86,83.1L326.472,83.075L326.997,83.126L328.258,83.139L328.446,81.795L329.207,80.95L329.507,79.005L330.357,78.634L330.369,76.996L329.507,76.01L329.72,75.844L330.282,75.499L330.594,75.281L330.731,75.153L330.944,75.115L333.254,75.665L334.703,78.954L338.15,81.565L340.636,81.974L340.848,82.038L340.923,82.089L341.235,82.332L342.397,84.572L342.397,85.698L343.171,87.297L343.121,87.502L342.622,89.408L342.397,89.971L342.147,91.059L342.821,92.594L342.884,92.888L344.208,94.5L345.382,95.037L345.507,95.216L345.544,95.318L345.669,95.613L345.819,96.559L345.619,96.866L345.307,97.864L345.332,98.337L346.518,100.217L346.681,100.473L347.717,101.701L347.755,101.957L348.742,102.328L350.028,103.658L349.603,105.205L349.691,105.499L349.653,107.2L350.353,107.622L350.553,107.789L351.764,108.223L351.914,108.454L352.051,109.003L352.076,109.106L352.189,109.4L352.264,109.489L352.651,109.835L353.063,110.167L353.525,110.333L354.837,110.615L355.386,110.985L357.772,109.707L358.047,109.694L359.296,110.678L361.294,109.349L361.494,109.157L362.393,108.581L362.605,108.351L363.867,109.349L364.117,109.195L366.565,108.645L366.59,108.556L367.277,107.686L370.899,106.471L372.597,106.663L372.897,106.612L375.582,104.272L375.92,104.029L376.482,103.185L376.557,103.07L377.88,100.78L378.043,100.678L379.617,100.819L380.403,102.724L380.353,103.006L380.216,103.696L379.966,104.336L380.029,104.873L382.189,104.707L384.325,106.446L384.475,106.407L384.662,106.817L384.725,107.021L385.499,108.083L385.499,108.274L385.612,110.32L386.861,111.51L387.123,111.497L389.396,111.676L390.633,112.264L390.795,112.366L392.044,111.471L393.393,111.395L395.141,114.706L397.19,117.02L397.752,119.053L398.039,119.257L398.351,120.318L400.062,121.98L400.962,121.367L402.985,122.07L404.884,123.425L407.007,123.31L407.419,123.514L409.717,123.642L412.003,121.418L413.489,121.137L415.075,121.533L415.063,121.379L415.325,119.104L415.625,118.797L416.274,117.698L417.211,114.08L420.321,113.76L421.82,112.814L422.694,112.405L425.417,111.753L426.216,112.085L426.728,112.366L427.428,112.417L427.902,112.353L428.377,112.29L428.889,112.213L429.314,112.2L431.474,112.43L432.024,112.648L434.047,113.504L434.222,113.364L435.534,113.888L435.958,113.837L438.843,114.067L439.218,115.243L440.692,116.637L442.016,116.01L442.328,116.176L445.176,116.381L446.437,117.404L448.048,117.212L450.509,117.621L453.207,117.557L454.581,116.406L455.205,114.476L455.118,113.939L455.38,113.491L457.691,110.551L458.428,110.269L458.752,110.052L461.025,108.032L461.063,107.916L461.188,106.28L461.862,105.448L462.15,105.269L463.836,104.042L464.173,103.824L464.46,103.364L464.398,103.108L464.722,101.88L464.897,101.65L465.247,101.151L465.484,100.678L466.396,100L469.444,99.412L469.544,99.373L470.205,98.094L470.355,97.915L470.393,97.864L470.393,97.723L469.806,96.546L471.954,94.257L472.079,94.001L471.804,91.711L472.141,90.815L472.429,90.649L473.453,89.83L473.64,89.638L473.778,89.574L474.514,89.587L475.151,89.434L475.926,88.026L476.001,87.937L476.063,87.924L476.363,87.911L478.674,85.992L477.387,84.393L476.438,84.213L476.425,83.023L475.576,82.371L474.202,82.998L471.992,80.669L471.067,80.183L471.005,79.991L470.418,79.3L469.281,79.479L467.458,78.045L466.671,77.917L465.297,75.243L465.06,74.948L464.248,73.527L464.098,73.092L464.36,70.916L464.523,70.763L465.147,70.276L465.122,70.161L463.948,69.483L464.685,68.087L464.947,67.883L465.147,67.691L465.547,67.294L465.996,65.745L465.372,64.247L465.185,62.109L466.021,60.739L465.259,59.817L465.322,58.165L467.071,56.129L466.521,53.722L467.058,52.185L465.035,49.521L465.222,47.984L465.372,47.715L465.047,46.101L465.946,45.435L465.709,45.128L467.333,43.962L465.996,40.414L466.059,39.863L465.509,39.235L464.897,34.649L464.922,34.251L464.897,32.932L465.509,32.445L465.559,31.702L465.584,31.368L465.534,30.843L465.709,30.382L466.021,30.01L467.97,28.87L468.794,26.794L469.756,25.512L469.481,24.615L470.405,23.833L470.58,22.308L470.842,21.949L470.618,21.552L470.68,21.078L470.355,19.052L471.479,17.886L470.53,17.399L470.143,16.194L470.018,15.912L469.206,15.002L470.33,12.258L469.606,11.566L469.606,10.233L468.394,10.117L468.02,9.284L468.07,6.668L467.92,6.437L467.608,5.014L467.732,4.719L468.282,3.424L468.444,2.924L469.081,2.398L469.219,2.27L469.381,1.475L469.481,1.167L471.105,0L472.329,1.218L472.678,1.706L475.126,2.206L475.738,3.18L477.35,3.219L480.06,3.847L481.846,5.258L482.57,6.655L483.732,6.373L483.969,6.437L484.856,6.245L485.431,7.271L485.131,8.425L485.843,9.463L487.167,9.066L488.978,9.54L490.114,9.104L490.864,9.591L491.925,11.463L492.1,11.848L492.925,12.874L493.549,11.04L495.11,11.797L495.447,11.963L496.109,12.758L498.695,13.515L499.744,13.463L501.58,12.502L500.693,11.156L501.255,9.656L502.829,9.015L504.34,9.207L504.702,9.181L505.802,9.976L507.575,10.027L508.337,10.886L509.973,11.309L510.448,11.438L511.11,11.592L511.872,11.899L513.133,12.463L513.67,10.015L513.72,9.758L513.608,5.937L514.307,4.578L514.532,4.245L515.082,3.629L515.431,3.309L516.73,2.039L518.679,1.154L518.953,1.141L522.363,1.513L522.55,3.27L522.6,3.398L522.613,3.488L522.538,3.886L523.075,6.578L525.211,6.784L525.635,7.399L527.684,8.258L529.083,10.053L531.193,11.361L531.593,11.233L533.079,11.656L534.741,11.54L537.351,10.04L539.025,13.194L539.162,13.194L539.599,13.066L540.061,13.079L540.249,13.194L540.861,13.181L542.01,13.374L544.095,12.284L545.12,13.438L545.282,13.54L545.919,14.04L546.269,14.027L547.817,14.848L548.092,14.925L549.479,15.232L549.079,15.848L548.617,16.309L548.517,16.489L548.23,17.014L546.906,19.142L546.868,19.334L546.943,20.988L546.743,21.565L546.668,22.923L547.28,24.564L546.856,26.858L547.543,29.216L547.33,29.972L548.629,32.714L548.642,33.021L550.203,35.558L552.726,37.198L552.751,38.146L554.649,39.107ZM724.237,525.88L722.138,526.032L720.402,526.993L720.839,529.004L721.589,529.497L719.565,532.241L717.48,530.914L719.665,527.347L722.113,525.981Z"
          fill="#e0e0e0"
          stroke="#333333"
          stroke-width="1"
          stroke-linejoin="round"/>
  </g>
</svg>