<?xml version="1.0" encoding="UTF-8"?>
<svg xmlns="http://www.w3.org/2000/svg"
     viewBox="146.74169265984528 -19.99999999999818 506.51661468030943 640"
     width="506.51661468030943"
     height="640">
  <title>茨城県</title>
  <desc>都道府県コード: 08</desc>
  <g id="08">
    <path d="M633.258,597.295L632.947,598.3L631.355,599.516L628.53,600L621.226,599.876L618.575,598.858L612.814,594.838L607.7,590.507L599.314,584.624L592.992,580.329L589.322,577.548L588.028,576.269L583.959,571.626L582.727,569.602L581.308,565.615L579.429,559.17L577.588,555.431L574.987,552.052L573.531,550.859L568.629,547.306L565.767,545.728L562.681,544.635L558.886,543.678L548.745,542.1L546.356,541.342L544.8,540.832L543.618,537.577L540.072,532.22L538.89,529.746L537.621,526.042L535.493,522.611L533.39,520.957L531.835,518.968L530.093,518.297L528.127,517.7L527.268,516.904L528.102,516.494L527.442,515.362L526.347,515.996L526.148,515.026L524.767,512.403L522.826,510.699L521.308,510.027L521.731,509.679L517.525,506.62L515.161,505.301L512.523,504.281L507.185,501.383L504.846,499.468L503.004,496.855L496.72,491.468L495.874,492.339L493.771,495.3L492.091,498.572L491.121,503.771L490.2,505.401L488.458,504.754L487.687,505.015L487.002,507.664L487.525,509.43L487.811,510.003L488.52,513.136L488.856,513.509L490.237,514.367L490.486,514.703L491.805,516.307L493.348,517.725L490.897,517.327L486.019,515.76L484.29,514.504L482.585,513.112L480.656,510.786L478.815,509.343L476.45,507.926L475.194,507.577L472.941,511.109L472.332,512.005L471.573,513.112L470.565,513.447L466.533,514.529L466.06,514.74L462.614,516.73L459.341,517.389L455.21,515.972L452.883,515.847L451.477,515.934L446.886,517.488L445.193,518.297L442.904,519.254L440.813,519.801L436.769,521.256L434.903,522.698L433.348,524.525L432.066,527.919L431.469,528.839L428.868,531.089L426.093,534.196L424.438,535.489L421.315,537.328L418.914,538.173L415.405,538.098L412.057,537.017L409.668,535.799L407.478,534.457L406.495,533.923L405.064,533.438L404.529,533.339L403.385,533.376L401.493,534.059L398.333,535.725L394.911,538.372L393.107,539.813L389,542.87L386.636,543.293L384.595,543.169L383.14,542.609L378.212,539.515L376.943,539.304L374.193,539.664L371.655,540.758L369.402,542.311L366.652,544.399L363.156,545.567L359.1,547.505L354.682,548.872L352.268,548.536L350.564,547.381L348.448,544.212L346.843,542.299L345.026,539.913L344.13,538.136L342.998,535.19L342.65,534.768L340.646,533.562L337.473,532.729L335.856,531.959L333.044,530.07L329.062,528.516L326.934,528.503L324.607,530.032L323.662,531.139L321.658,532.096L318.56,529.995L316.357,526.452L314.155,525.135L310.92,524.513L308.929,523.456L307.461,522.114L304.337,520.236L301.899,518.011L300.978,516.631L299.435,515.574L297.17,515.051L295.416,515.238L292.504,515.909L290.563,515.972L289.107,515.449L285.822,512.863L285.026,511.93L283.134,509.555L280.671,508.187L278.033,507.316L272.869,503.05L272.446,502.664L268.812,501.271L266.734,499.953L266.249,499.318L264.482,495.425L265.328,492.862L265.988,492.115L267.046,489.851L266.535,487.922L264.756,486.155L261.521,485.632L258.497,485.732L256.444,484.836L255.859,484.351L251.554,482.173L249.824,480.866L245.457,476.572L244.723,475.277L243.254,468.057L243.13,467.422L242.595,466.153L241.164,464.634L240.641,464.086L238.265,460.998L235.714,457.835L234.805,456.652L230.712,454.273L228.298,452.343L226.157,450.064L224.913,448.569L221.093,444.072L217.211,440.11L215.307,436.834L214.001,431.862L213.254,427.999L212.209,425.469L211.748,424.609L210.716,423.288L206.435,419.449L205.141,420.708L202.901,422.203L202.292,423.238L202.205,426.055L200.699,427.438L200.662,428.722L200.749,429.245L200.077,430.641L198.011,431.189L195.174,430.491L194.589,430.267L190.396,427.887L187.845,427.924L186.414,428.173L184.398,428.173L183.005,426.366L182.93,423.674L182.694,421.231L182.607,419.972L182.507,417.778L182.457,416.881L182.233,415.273L180.504,412.48L178.749,410.423L177.592,409.076L176.696,407.543L175.974,405.136L175.726,403.652L172.926,399.175L172.453,398.514L171.084,395.758L169.678,392.178L169.056,388.074L168.446,386.826L168.011,384.144L168.832,378.229L169.031,377.693L169.218,376.108L166.891,373.912L166.754,373.438L166.742,372.801L166.829,372.015L167.886,369.194L169.367,368.732L169.865,368.907L171.109,368.645L171.047,369.731L171.171,369.93L172.553,369.856L174.257,370.941L175.041,368.32L174.494,366.56L174.668,366.473L176.323,366.735L176.858,366.873L178.028,367.06L178.712,366.136L179.757,366.236L179.732,368.058L182.706,368.957L182.681,371.079L183.739,370.392L184.174,370.105L187.186,368.657L189.537,367.185L189.836,366.947L193.557,364.413L194.104,363.864L194.913,362.841L196.306,362.104L198.273,361.305L202.54,359.595L203.026,359.345L204.395,358.683L204.73,358.546L206,358.059L207.518,357.447L210.865,356.049L212.346,355.475L217.074,353.49L218.505,352.915L220.309,352.178L220.471,352.103L220.608,351.279L222.412,348.382L223.246,345.71L224.204,340.302L224.503,339.54L225.262,338.403L225.598,337.204L228.298,334.456L228.459,333.444L226.381,328.471L225.871,326.46L225.996,325.098L228.086,321.811L228.422,321.511L228.907,319.987L231.359,316.462L234.519,316.962L236.821,315.675L237.879,314.463L238.762,315.288L239.832,315.288L240.766,314.2L240.728,313.625L241.052,312.525L241.5,311.888L241.886,311.725L241.749,311.088L241.649,310.65L244.362,310.913L244.772,312.025L244.76,312.375L243.329,314.825L243.317,316.85L243.951,317.4L245.021,316.787L245.195,316.625L246.676,316.45L246.888,316.525L248.468,317.65L250.521,317.412L250.932,318.187L251.429,319.037L249.488,320.162L249.911,321.811L250.782,322.099L251.156,322.086L251.89,321.924L251.989,322.074L252.885,322.848L253.283,322.861L253.507,323.198L256.108,321.574L257.726,318.262L257.688,317.25L255.921,317.162L256.892,309.15L256.481,306.5L257.551,303.912L259.132,303.162L260.774,301.549L262.952,300.811L265.888,300.536L265.913,299.611L268.688,298.961L269.347,298.873L270.306,297.711L272.707,297.323L275.246,297.248L275.171,296.885L277.647,296.835L277.659,293.096L278.145,292.221L278.045,290.57L277.983,290.182L277.958,288.606L279.812,286.48L279.899,286.005L280.733,284.179L280.733,283.566L281.417,283.128L281.679,285.092L283.184,286.142L283.557,287.468L285.138,287.306L285.511,288.231L287.838,288.744L288.385,287.606L290.563,287.581L292.33,288.231L293.412,287.055L292.23,285.229L292.093,285.154L292.044,284.053L293.848,284.516L294.93,284.741L295.466,284.979L295.702,285.079L296.312,285.905L296.996,284.166L297.407,283.853L297.631,284.904L298.103,284.766L298.278,284.479L298.415,284.579L302.583,284.629L302.732,283.941L305.943,283.265L307.822,284.867L308.12,284.854L310.111,284.804L315.586,282.265L315.76,282.252L316.731,281.839L316.893,281.727L318.087,280.101L318.523,279.588L318.846,278.574L319.294,278.299L319.58,277.886L319.381,277.536L319.331,276.51L318.423,275.346L317.95,272.331L317.963,271.968L318.871,270.729L319.182,270.804L321.385,270.504L322.517,270.342L324.383,270.604L327.108,273.282L327.83,272.781L328.017,272.193L328.801,271.605L330.169,273.057L330.418,273.169L331.289,273.357L331.65,273.244L332.571,273.92L336.441,273.395L335.93,271.443L335.868,268.702L337.585,267.038L339.502,266.662L340.646,265.837L344.703,264.998L345.947,265.824L348.548,266.4L349.68,265.436L350.016,266.575L350.141,266.775L351.372,269.028L354.458,273.345L356.623,273.007L357.034,272.869L358.229,272.369L359.485,272.894L359.921,272.894L360.481,272.857L362.509,273.094L363.343,273.745L366.068,273.244L366.516,271.73L367.15,271.493L367.648,271.305L368.295,270.279L368.842,270.204L369.066,269.103L370.385,267.726L371.431,264.497L373.322,262.094L372.961,260.505L373.372,258.114L372.712,257.689L372.551,253.433L374.181,249.789L374.38,249.589L374.367,249.076L374.118,248.863L373.185,247.323L373.16,245.32L374.964,244.03L374.865,241.713L375.649,240.035L376.01,240.01L377.179,239.034L376.843,237.055L378.673,233.085L381.385,231.744L383.053,228.901L382.692,228.5L382.654,228.287L383.861,227.147L384.098,224.88L384.235,224.754L384.508,222.975L383.799,221.672L384.235,221.146L386.275,221.046L386.325,220.294L387.905,220.921L388.042,221.046L389.013,218.853L390.021,218.903L390.083,218.891L391.725,218.653L391.078,216.51L391.091,215.094L392.659,215.232L393.579,214.493L396.118,213.816L395.682,212.738L393.866,211.435L393.082,210.069L393.393,209.066L391.9,207.186L391.153,204.88L391.178,204.554L391.253,202.498L391.29,201.934L391.302,200.267L390.829,198.662L392.509,196.682L392.621,196.569L392.596,195.114L392.248,194.801L389.56,191.278L390.543,189.949L390.282,189.786L390.158,186.588L390.021,186.475L389.175,185.798L389.896,184.807L390.07,182.525L390.17,181.998L390.07,181.434L389.859,181.534L389.573,181.233L389.622,181.17L389.747,181.057L389.747,180.719L389.573,178.561L390.469,176.529L390.481,175.538L391.651,172.754L391.564,172.327L391.588,170.445L391.302,169.981L391.402,167.271L390.78,166.18L390.493,165.904L390.033,163.796L389.884,163.444L388.266,160.809L387.98,160.608L386.549,161.273L385.914,160.872L386.238,159.052L385.765,155.438L386.661,155.576L389.125,154.484L388.801,153.932L388.801,153.53L388.689,153.028L388.839,152.463L388.664,151.283L387.681,149.978L387.868,149.25L387.905,148.886L387.93,148.773L388.167,148.535L388.415,147.304L387.557,146.237L387.296,145.71L386.313,144.166L384.546,142.81L383.787,141.718L384.782,141.077L384.819,139.42L384.658,138.905L384.62,137.876L383.065,136.683L381.086,136.319L380.788,134.435L380.639,134.172L382.045,134.096L381.41,131.007L380.614,130.957L380.377,130.957L380.191,129.211L381.534,128.319L382.754,126.586L382.965,125.318L384.446,123.006L385.628,122.755L387.731,123.195L388.142,123.17L388.552,123.484L388.652,123.647L389.71,123.886L390.319,122.052L390.954,121.675L391.265,121.788L393.666,121.775L394.289,121.273L396.578,122.039L396.927,121.675L397.051,121.612L399.39,121.65L399.477,121.524L400.386,119.602L400.485,119.426L402.103,118.71L402.526,119.213L402.725,119.276L404.853,118.823L405.425,117.203L406.458,116.537L407.466,116.713L407.74,116.776L408.984,116.512L408.262,115.846L408.113,115.57L407.764,114.301L406.981,113.798L407.155,111.348L406.719,110.996L406.856,110.795L407.13,110.154L407.08,109.991L406.645,108.873L406.707,108.76L405.699,106.397L405.475,106.183L405.4,105.719L405.239,105.605L405.039,105.53L404.007,104.889L403.049,103.419L401.916,102.954L401.742,102.891L401.443,102.916L401.319,102.564L399.602,101.483L399.477,101.345L398.258,99.447L398.134,99.271L396.939,98.655L396.777,98.379L395.769,95.865L395.856,95.689L394.6,93.992L394.475,93.791L394.202,92.169L394.152,91.918L394.376,91.113L394.202,90.9L394.649,89.869L394.799,89.73L395.048,89.693L395.956,89.617L396.205,89.466L396.479,88.989L396.217,88.599L395.496,87.304L394.314,86.55L394.139,86.399L393.517,85.443L394.637,84.777L394.824,84.487L394.786,83.834L394.413,83.683L393.903,82.098L393.803,81.872L393.965,80.904L394.226,80.816L396.703,79.508L396.852,79.583L397.574,79.659L397.71,79.433L398.631,77.257L398.333,75.886L398.358,75.723L397.997,75.572L397.91,75.408L398.581,74.88L398.893,73.107L398.407,71.019L397.897,70.704L397.997,68.516L397.449,67.862L397.387,67.711L398.731,66.163L398.644,63.182L398.681,62.918L398.569,61.471L398.793,61.194L398.109,57.986L398.009,57.684L396.951,56.312L397.039,55.419L397.126,55.268L396.653,53.808L395.894,53.821L395.72,53.707L394.936,53.594L394.04,51.795L394.774,48.837L394.363,48.585L394.114,48.573L393.131,48.044L392.659,46.521L393.766,42.708L393.567,40.92L393.666,40.719L393.716,38.1L394.737,36.111L394.699,35.847L394.637,35.721L394.475,35.545L393.579,33.543L393.542,31.956L394.102,31L393.194,29.892L393.467,26.517L393.393,26.341L393.268,24.653L392.26,21.593L392.372,21.291L391.738,18.91L391.676,18.746L391.514,18.18L391.564,17.915L391.912,15.295L392.086,14.968L392.086,14.048L391.924,13.67L391.613,12.889L391.464,12.448L391.626,11.075L392.447,10.118L392.646,9.815L393.069,8.253L395.16,6.325L397.76,6.01L401.257,7.598L402.003,7.308L402.402,7.22L402.75,7.17L404.529,5.355L406.309,4.889L407.578,6.048L408.524,6.199L409.158,6.073L410.9,8.215L411.622,8.039L411.858,8.329L413.289,9.236L413.351,10.08L414.459,10.836L415.031,12.095L415.044,12.574L416.487,14.552L419.137,16.227L419.312,17.26L420.768,18.683L421.439,21.593L421.315,22.877L421.788,24.729L421.663,25.975L422.422,26.567L422.559,26.794L424.065,27.209L425.434,28.267L426.753,28.406L428.52,29.627L430.759,30.206L431.917,29.552L434.567,30.408L434.791,30.37L436.931,30.131L437.08,30.206L437.18,30.219L437.317,30.181L438.213,30.559L439.258,32.561L439.283,32.901L439.905,34.676L439.83,34.953L440.465,36.048L440.602,36.401L440.9,37.647L440.614,37.912L439.47,39.749L439.445,39.951L439.93,40.807L439.494,42.066L440.241,44.633L440.328,44.873L440.602,45.175L440.801,45.061L441.859,47.037L442.095,47.352L442.642,49.92L442.642,50.234L442.667,51.618L442.58,51.769L443.016,53.795L446.886,55.469L446.998,55.683L449.088,56.413L449.237,56.526L449.287,56.539L449.648,56.564L451.328,56.425L451.714,56.589L451.813,56.652L452.124,56.765L452.473,56.614L452.647,56.463L454.339,56.841L454.775,56.69L456.33,57.608L457.562,56.702L459.316,59.219L459.59,59.521L460.673,60.414L460.872,60.628L461.394,62.515L462.838,62.301L464.555,64.251L465.401,63.635L465.7,63.194L466.459,62.465L466.67,62.075L467.641,62.276L467.902,62.427L467.977,62.528L468.213,63.735L469.283,64.553L469.781,65.761L469.955,65.773L469.992,65.786L469.992,66.025L471.448,68.226L471.747,68.088L472.046,68.34L472.22,68.314L472.705,69.685L472.867,69.685L473.389,70.415L473.514,70.654L473.526,71.283L474.858,71.748L475.268,73.056L476.6,74.05L476.786,74.088L476.973,74.327L476.911,74.49L476.811,74.867L476.836,75.106L477.645,76.955L477.869,77.081L478.168,77.119L478.217,77.119L478.504,76.905L478.802,76.855L479.611,76.339L479.847,76.15L480.258,75.861L480.432,75.685L482.124,74.641L482.324,74.478L482.473,74.415L483.568,74.339L483.381,73.61L483.531,73.383L484.265,72.868L484.439,70.906L485.77,69.736L485.783,69.585L486.318,68.767L487.886,68.101L487.935,66.365L488.047,66.126L487.127,64.037L487.176,63.924L488.072,63.547L488.383,63.572L488.57,63.396L488.831,63.043L489.005,63.144L490.548,63.685L490.947,63.182L491.531,63.144L492.788,63.685L492.888,63.572L493.585,62.955L493.535,62.553L493.485,62.452L493.398,62.15L493.535,61.873L493.634,61.672L494.12,61.119L496.72,61.748L497.828,61.018L498.898,59.483L499.097,58.137L499.271,57.86L499.632,56.237L499.906,56.111L500.03,55.897L500.067,55.507L500.08,55.092L501.125,53.745L503.626,52.764L503.813,50.398L503.713,50.234L503.402,48.573L504.335,48.107L504.572,47.956L506.376,46.559L506.451,46.333L507.334,44.86L507.459,43.312L508.603,42.947L510.992,43.614L511.229,43.488L514.078,42.028L515.024,42.72L516.405,41.059L517.077,41.134L517.226,41.21L517.985,41.474L518.197,41.625L518.421,40.769L521.046,40.719L521.27,40.656L521.183,39.762L522.465,38.176L524.468,39.296L525.426,38.705L526.447,36.653L526.633,36.401L526.671,36.199L526.795,36.061L527.778,35.28L528.96,36.325L529.072,36.225L529.421,34.89L529.57,34.399L529.47,32.586L529.259,32.183L528.935,31.906L528.861,31.667L528.786,31.491L528.624,31.188L528.438,30.899L527.368,29.892L527.206,29.677L525.675,27.361L525.738,27.096L525.028,26.026L524.282,26.076L524.045,24.829L524.02,24.64L524.207,23.457L524.219,23.016L524.356,22.764L524.58,20.497L524.307,20.384L522.788,19.376L522.751,19.275L521.395,16.807L520.984,16.454L520.872,16.441L520.213,16.731L519.08,15.988L518.956,16.126L518.222,15.497L518.259,15.282L518.458,14.615L518.67,14.388L519.342,13.217L519.416,10.143L520.063,8.429L520.238,7.951L520.399,6.678L519.13,5.015L519.416,4.07L519.628,3.894L521.407,2.772L522.266,3.062L522.216,1.55L524.431,1.248L524.692,1.311L525.638,0.996L525.713,0.68L526.397,0.277L526.696,0.013L526.77,0L527.666,2.104L527.778,2.419L528.711,3.528L529.831,3.226L530.068,3.629L529.346,4.524L530.105,6.527L529.47,9.437L531.337,10.08L531.536,10.181L532.793,11.277L532.519,11.944L533.452,12.864L533.452,13.204L533.925,13.733L534.074,14.061L535.232,16.366L535.53,16.492L536.513,17.399L536.7,17.499L536.799,17.537L536.936,17.525L537.285,17.361L538.566,19.376L538.305,20.044L538.181,20.447L538.268,20.862L538.442,21.013L540.694,21.479L541.378,21.089L543.631,21.895L543.73,22.021L544.066,22.109L544.502,22.311L544.564,22.588L544.614,22.751L546.032,23.205L546.318,23.217L546.368,23.23L546.468,23.331L547.563,23.809L547.936,23.696L548.21,23.583L550.947,22.978L551.271,22.21L552.602,22.84L552.764,22.852L554.357,22.248L554.755,24.137L555.9,24.149L556.061,24.225L558.065,24.426L559.01,25.195L559.234,25.182L559.769,25.308L560.329,25.509L560.839,25.875L561.026,25.988L561.188,25.925L561.399,25.9L564.386,26.026L565.132,26.794L565.257,26.882L565.443,27.121L565.568,27.159L565.68,27.298L565.829,27.398L567.721,28.028L567.708,28.192L568.368,28.494L568.666,28.443L569.226,28.922L569.338,28.947L570.495,28.607L570.682,28.758L571.74,30.546L571.901,30.886L573.531,31.113L573.743,31.365L574.826,32.12L574.626,32.322L574.552,33.53L576.269,34.135L576.754,35.041L576.953,35.192L577.177,35.406L577.327,35.62L577.538,35.822L578.21,36.388L580.338,36.577L580.475,37.005L580.948,37.295L581.209,37.207L581.707,37.207L581.819,36.779L582.092,35.658L583.088,35.469L583.461,35.595L584.78,35.872L586.099,36.917L586.223,36.766L586.323,36.539L587.368,35.985L587.493,35.91L587.791,35.595L588.115,35.444L588.538,34.966L590.653,37.068L590.79,37.118L591.051,37.018L592.121,37.597L594.622,37.962L594.734,38.176L595.755,39.082L596.041,38.742L596.34,39.372L598.617,41.046L598.803,39.447L599.102,39.989L599.139,41.965L601.031,41.21L601.08,40.492L599.985,40.052L599.401,39.422L600.794,40.165L601.479,39.749L601.28,39.435L601.23,38.44L601.329,38.931L601.827,39.586L603.295,39.045L605.062,40.996L605.411,41.147L606.991,41.764L606.742,44.52L608.708,44.18L608.857,44.017L609.778,43.136L610.724,43.236L609.492,44.004L610.711,44.633L611.831,46.811L611.234,47.138L611.321,51.493L611.993,52.713L613.387,53.066L613.324,56.337L614.731,57.155L611.209,59.508L609.442,59.709L609.84,58.212L606.866,58.023L606.506,60.313L606.269,59.357L605.324,60.049L603.345,60.276L601.466,61.534L599.712,63.735L598.144,66.981L595.792,73.22L595.294,75.71L594.125,76.062L591.81,80.514L589.172,88.247L587.617,93.301L585.751,98.102L584.282,103.331L583.735,107.39L583.735,110.443L584.009,111.235L583.225,113.635L584.033,115.017L582.777,115.193L581.408,118.371L579.467,124.011L578.82,126.812L578.185,131.974L577.887,136.206L578.359,140.4L578.957,141.881L577.961,142.019L577.327,143.927L575.771,145.296L574.017,144.869L573.096,145.647L572.374,147.355L571.03,148.283L569.861,150.417L569.164,152.426L568.33,157.96L568.131,162.29L566.899,162.716L564.423,165.251L563.191,168.839L562.333,169.868L561.424,172.729L559.433,175.564L558.886,175.4L558.114,177.106L557.455,179.728L557.355,182.048L556.795,183.127L554.605,184.393L553.461,186.237L553.075,188.181L552.304,189.585L550.076,196.845L549.914,198.111L550.785,200.593L547.799,203.439L547.14,207.399L545.659,212.112L545.808,215.057L544.962,215.859L545.572,218.101L544.738,219.004L543.631,221.973L542.735,222.612L543.68,224.667L542.125,224.516L541.702,227.373L539.898,226.496L539.388,227.247L540.943,228.312L540.582,229.364L537.446,228.838L536.874,230.366L537.745,229.84L541.254,230.78L541.665,231.619L539.997,232.483L538.081,230.792L536.7,235.076L536.376,238.132L538.081,238.52L536.513,238.695L536.103,241.263L535.642,246.522L536.389,250.653L536.065,252.293L538.479,251.617L543.245,251.78L543.183,256.888L536.302,256.837L536.239,258.89L540.893,258.89L539.549,259.353L539.574,261.807L537.347,261.794L537.297,267L536.19,267.213L536.177,269.841L537.272,270.154L536.986,272.844L538.38,278.199L539.661,280.05L541.416,280.588L541.889,279.75L543.071,281.889L543.232,283.791L542.262,285.067L542.225,288.281L541.478,288.744L540.731,292.508L539.624,292.846L536.227,295.56L535.095,299.299L536.065,299.811L535.431,300.962L533.838,300.574L532.718,302.462L531.262,302.724L530.926,301.437L529.881,303.237L530.279,304.9L529.607,309.775L529.819,311.463L527.728,315.538L526.372,316.9L523.236,316.85L522.054,318.35L520.86,317.662L520.25,318.312L521.034,319.049L519.864,319.249L521.432,320.849L518.483,323.323L516.48,326.272L516.505,327.372L515.621,329.383L515.534,335.555L516.007,341.276L516.181,346.284L517.45,360.032L520.039,374.661L521.942,383.769L525.837,398.938L528.239,406.346L529.184,409.837L529.707,410.498L530.74,414.475L531.561,414.662L531.337,415.908L533.863,423.014L534.796,423.2L534.547,424.036L535.866,428.223L538.305,433.943L539.748,437.768L540.308,438.254L541.366,441.506L541.988,442.378L544.887,450.088L546.082,451.222L545.995,452.517L547.861,456.477L552.117,466.514L554.568,472.004L555.576,474.78L556.671,476.709L559.085,482.011L560.404,483.255L560.566,484.475L562.109,485.807L563.141,485.67L563.677,487.15L565.381,486.628L569.749,486.342L570.769,487.698L567.546,487.885L566.302,488.656L569.711,495.885L572.76,501.831L569.724,503.523L569.438,504.655L569.923,506.284L563.092,511.072L562.718,511.097L558.45,508.722L559.097,507.291L557.467,506.396L556.87,507.876L554.046,505.985L553.274,507.366L559.894,511.06L560.168,512.477L560.939,512.788L561.723,514.367L562.034,517.787L561.798,517.899L562.208,522.027L563.241,522.176L566.439,527.584L566.426,528.752L567.098,529.933L568.766,528.889L563.788,519.95L563.477,518.11L563.353,514.467L569.089,510.425L569.413,509.891L572.362,507.826L573.37,509.828L574.602,509.294L574.203,508.523L576.456,507.242L577.6,489.751L576.53,507.304L574.975,508.112L575.51,509.978L580.574,518.943L589.384,533.774L588.364,534.171L589.16,536.806L591.972,541.429L593.117,543.603L595.655,547.604L606.145,564.932L607.277,566.423L610.662,572.097L611.719,573.314L612.827,575.338L619.882,585.828L620.454,586.175L622.57,589.489L624.075,591.202L626.626,593.125L628.53,591.909L627.099,593.448L629.575,596.402L630.483,595.421ZM547.563,272.419L546.592,269.891L546.766,249.739L546.866,249.739L546.704,269.979Z"
          fill="#e0e0e0"
          stroke="#333333"
          stroke-width="1"
          stroke-linejoin="round"/>
  </g>
</svg>