<?xml version="1.0" encoding="UTF-8"?>
<svg xmlns="http://www.w3.org/2000/svg"
     viewBox="136.85565290051454 -20 526.2886941989418 639.9999999999964"
     width="526.2886941989418"
     height="639.9999999999964">
  <title>栃木県</title>
  <desc>都道府県コード: 09</desc>
  <g id="09">
    <path d="M447.431,538.214L446.93,538.199L445.804,537.225L445.679,537.036L444.756,537.24L444.287,537.256L443.192,536.895L442.66,534.821L445.1,533.408L444.475,532.339L443.959,531.365L441.378,531.664L439.391,530.25L439.126,530.156L437.264,530.376L437.045,530.58L435.7,531.35L434.902,530.658L434.918,528.113L436.717,525.034L436.732,524.594L436.216,523.196L432.807,522.866L432.932,523.416L433.104,524.217L432.619,524.421L432.056,525.222L431.649,526.605L431.696,527.328L430.523,528.695L429.178,528.695L428.067,527.658L426.738,529.182L423.844,530.8L419.872,530.171L416.79,534.601L416.18,536.518L415.758,536.895L413.13,541.026L412.974,542.738L413.615,545.266L416.227,551.517L416.024,552.789L412.63,556.243L412.208,557.751L411.254,559.179L410.878,560.137L409.674,566.935L408.626,570.294L406.358,573.936L406.186,574.972L405.983,575.066L403.715,575.992L401.916,576.714L395.972,579.209L394.111,579.931L389.904,581.689L387.996,582.458L386.4,583.07L385.978,583.243L384.258,584.074L383.648,584.388L378.283,586.538L375.811,587.542L374.06,588.468L373.043,589.755L372.355,590.445L367.678,593.63L367.303,593.929L364.347,595.78L360.562,597.6L360.014,597.961L358.685,598.823L358.716,596.156L354.978,595.027L355.009,592.736L353.695,592.611L352.835,593.772L351.365,593.536L350.692,593.364L348.612,593.034L348.393,593.144L349.081,595.356L348.096,598.651L345.953,597.286L344.217,597.38L344.061,597.129L344.139,595.764L342.575,596.094L341.949,595.874L340.088,596.454L338.758,600L338.008,597.615L337.382,597.411L335.787,599.278L333.425,598.886L332.518,597.192L332.205,594.635L330.813,594.054L329.89,594.823L329.264,595.325L326.918,595.403L326.731,594.164L329.452,591.952L328.842,589.943L328.389,589.582L328.06,587.778L327.7,587.323L327.262,585.11L324.635,586.742L325.229,584.906L324.51,582.003L326.246,580.732L323.54,581.046L321.616,579.633L322.32,578.754L321.976,578.393L322.007,577.954L320.521,576.039L320.333,576.008L320.318,575.929L320.255,575.694L318.895,576.133L317.237,574.564L317.111,574.658L316.564,576.761L315.375,577.671L315.313,577.216L315.845,574.156L315.766,573.826L313.358,570.624L312.435,568.159L312.278,568.034L311.293,566.448L309.948,565.569L309.979,565.287L310.683,563.779L313.577,560.655L315.845,559.666L315.407,558.049L313.061,559.839L312.685,558.567L312.31,557.939L311.543,555.945L310.417,555.238L306.992,555.128L305.131,553.558L302.487,553.809L300.517,556.432L297.748,557.264L296.372,557.217L294.057,557.075L289.412,556.934L289.036,557.013L286.393,556.604L283.452,557.986L280.59,557.97L279.558,557.295L276.039,558.049L274.959,557.892L274.303,557.405L271.065,553.668L272.035,551.266L271.409,550.637L269.204,550.732L268.578,549.365L268.328,549.931L266.279,552.475L264.136,551.69L264.308,549.679L263.385,549.098L262.509,548.722L262.212,549.114L261.978,549.444L261.821,549.915L260.554,549.978L257.004,546.916L256.144,547.528L255.659,547.638L254.454,549.287L251.702,549.13L250.888,550.7L248.636,550.669L245.727,549.177L244.413,552.192L240.503,553.731L239.048,552.38L236.843,552.836L235.451,554.328L235.466,554.532L234.153,554.94L233.84,554.72L232.151,554.312L231.713,553.951L231.838,552.585L229.742,552.506L230.336,555.081L228.553,555.725L225.91,555.144L224.987,553.951L224.815,553.888L223.188,552.161L225.534,550.229L228.225,550.355L227.364,549.098L226.786,548.784L226.676,548.706L226.254,548.345L224.502,546.758L224.33,546.523L224.424,545.471L222.485,544.104L220.748,544.528L215.728,544.623L215.665,541.293L213.46,539.471L212.427,539.22L211.442,542.282L211.364,542.063L209.033,540.052L209.409,537.9L209.456,537.24L209.581,536.581L207.188,534.884L208.423,533.486L206.875,532.418L205.42,532.434L203.106,528.867L202.527,529.307L201.651,527.438L202.558,526.762L201.635,525.034L202.902,523.966L201.229,522.143L202.292,521.483L202.558,521.106L203.325,520.43L204.044,522.897L207.11,522.127L207.203,520.524L205.28,518.167L205.217,517.193L203.246,515.04L202.887,514.852L200.838,513.626L200.619,513.783L200.478,513.752L199.993,513.516L192.564,508.911L191.594,508.298L189.733,506.821L187.918,503.19L187.089,502.372L182.726,499.841L179.519,496.776L178.956,496.179L178.503,495.738L177.627,494.858L177.157,494.025L177.705,492.028L176.766,487.688L174.092,485.031L177.689,479.323L178.049,477.089L178.862,476.036L179.238,475.831L180.786,475.281L181.083,475.061L181.803,471.915L182.084,467.92L182.976,465.702L183.742,465.308L183.961,464.223L186.62,461.973L186.62,461.721L189.623,459.55L189.639,459.22L189.686,457.584L189.873,457.096L190.765,456.703L191.109,454.232L191.109,453.933L190.906,453.398L195.004,451.778L195.426,451.227L195.457,451.022L195.442,450.503L195.535,450.346L196.255,446.632L196.974,446.223L197.272,446.065L199.884,443.217L199.758,441.627L199.618,441.281L199.79,440.667L197.882,438.574L199.43,438.149L199.633,437.897L200.587,436.795L200.9,436.37L202.683,436.764L204.013,439.093L206.171,437.866L206.468,437.74L206.781,437.677L207.579,437.818L207.813,437.818L209.55,438.653L208.611,436.465L210.347,434.859L211.552,434.639L212.24,432.876L212.271,432.592L212.255,432.451L212.224,432.199L212.897,427.917L212.209,428.027L209.69,430.247L209.174,426.39L209.002,426.343L208.721,425.146L208.752,424.926L208.674,423.509L207.657,422.595L207.485,422.422L206.797,421.903L207.876,418.202L206.531,418.36L206.124,418.265L204.419,417.95L205.061,416.155L202.761,415.557L203.559,412.407L203.325,410.769L204.122,410.423L204.576,410.077L205.311,409.431L205.452,408.817L205.78,407.777L204.685,406.549L207.767,405.43L207.876,404.895L209.565,403.068L210.253,400.579L210.269,400.295L210.316,400.248L210.738,400.122L211.301,399.24L211.192,398.374L212.912,396.468L213.335,396.294L214.038,395.365L214.351,394.719L215.321,392.403L214.93,392.356L214.68,392.371L214.43,392.277L214.054,392.293L213.554,392.356L211.301,391.694L212.787,389.583L211.958,387.771L212.897,384.178L212.991,384.052L213.084,383.044L213.037,382.776L213.397,380.428L214.664,379.498L215.133,379.262L219.278,381.042L219.7,381.058L221.452,379.798L221.875,379.482L224.346,378.821L224.909,376.078L225.003,375.889L226.489,374.045L226.692,372.438L227.63,371.776L227.896,371.665L228.944,371.019L229.366,371.114L229.711,371.224L230.133,371.382L230.79,370.515L231.024,370.373L230.915,366.48L235.357,363.248L235.326,363.106L235.717,360.41L235.638,360.079L234.215,358.424L232.182,357.399L230.931,355.491L231.369,352.858L229.476,348.727L229.726,347.686L226.661,345.431L225.206,346.03L222.813,345.526L222.172,346.172L221.859,346.504L220.232,347.229L219.857,346.598L219.826,346.267L219.216,345.431L218.856,345.51L217.667,345.116L217.526,345.005L216.854,344.785L216.572,344.848L213.006,346.835L212.005,348.412L207.266,348.79L205.624,347.355L204.779,347.308L202.511,346.598L199.977,344.406L195.567,343.98L197.037,346.504L196.067,346.74L195.833,346.898L193.08,348.128L191.297,347.308L187.027,341.977L183.382,341.268L179.519,342.009L178.69,341.378L178.315,341.299L177.564,341.662L175.249,340.511L172.356,340.59L172.121,340.463L171.527,340.274L171.151,340.416L170.698,340.195L170.448,340.132L170.119,340.085L169.181,339.344L169.009,339.06L167.116,337.23L166.913,336.741L166.412,334.848L166.443,334.296L165.787,333.413L165.036,333.429L164.817,333.381L164.348,333.208L162.737,332.356L162.377,332.34L159.937,332.403L159.765,332.545L159.593,332.608L158.31,332.198L157.528,328.381L158.029,327.434L157.872,327.119L158.592,323.711L157.81,320.839L157.825,320.413L157.075,318.078L156.934,317.936L157.466,315.696L157.387,315.475L156.856,313.581L158.279,311.356L158.216,311.135L158.451,310.125L158.529,309.92L160.109,308.673L160.359,308.531L160.547,306.969L160.656,306.7L161.376,305.122L160.969,302.739L161.579,301.255L163.143,300.339L162.142,298.477L161.923,298.051L162.142,297.214L163.081,296.156L161.97,291.673L164.035,290.41L165.396,288.389L167.929,286.826L170.588,283.289L171.276,282.752L171.871,281.584L171.292,280.526L172.559,279.468L173.654,277.351L173.544,276.736L174.17,275.583L176.047,274.335L176.016,272.424L177.079,271.271L176.047,268.712L176.438,265.948L177.376,264.858L177.611,260.719L179.629,257.339L178.987,257.37L177.189,256.912L176.501,256.612L174.702,256.628L171.621,255.016L170.932,253.357L170.823,253.215L171.12,251.951L170.885,248.459L170.401,248.095L168.962,246.847L169.447,246.089L169.665,245.946L170.604,242.628L170.448,242.28L170.088,240.463L170.213,240.194L173.544,239.483L174.764,236.954L174.639,236.685L174.639,236.511L174.78,235.926L175.03,235.816L176.626,234.567L176.876,234.457L177.689,234.235L178.158,234.441L178.549,234.599L178.894,234.504L181.443,232.923L181.678,232.734L181.85,231.817L182.037,231.485L181.85,231.2L181.803,230.853L181.474,229.525L182.663,228.956L182.585,226.41L182.475,225.984L181.553,225.335L181.459,223.66L183.07,220.956L183.82,220.988L185.166,220.324L187.402,220.529L187.621,220.498L190.562,217.778L189.326,215.912L189.608,214.283L189.999,213.809L192.579,210.836L195.332,209.381L195.332,209.097L197.053,207.056L196.677,205.427L196.927,205.333L195.363,203.798L195.019,203.688L193.174,202.422L192.892,202.201L189.967,202.327L189.623,203.356L187.308,202.296L187.136,201.869L184.305,200.856L184.086,200.841L182.037,199.433L180.864,199.923L180.489,199.291L178.753,198.389L178.471,198.152L176.86,197.93L175.515,194.086L172.043,193.738L169.728,192.868L169.478,192.536L169.306,192.33L169.181,191.982L167.836,190.653L170.463,188.122L170.839,187.837L171.12,185.337L171.136,184.942L171.621,183.976L171.824,183.597L172.074,183.264L172.371,179.672L172.387,179.388L172.356,176.333L172.324,176.017L172.152,175.431L172.637,174.877L174.092,177.156L174.233,176.254L174.811,175.083L176.626,175.368L177.079,175.4L178.612,174.276L178.346,173.96L177.955,173.706L177.971,173.548L179.582,171.744L179.238,170.462L179.394,170.05L178.737,168.452L180.035,166.457L180.301,166.014L180.692,164.59L183.367,162.183L185.228,161.265L185.463,161.091L186.307,160.806L186.87,160.822L190.671,158.859L191.516,157.086L190.358,154.125L190.859,153.682L190.984,153.334L192.063,151.893L193.142,148.599L195.082,146.351L195.27,146.113L197.694,144.229L199.884,143.532L200.728,144.466L204.732,145.496L205.483,145.369L207.047,145.67L207.282,145.702L209.456,144.039L208.971,142.202L209.19,141.917L210.425,139.81L210.613,139.43L211.38,138.052L211.552,134.283L211.927,134.204L214.336,132.715L214.742,131.036L216.807,130.956L217.792,130.117L217.949,129.863L217.964,129.784L218.402,129.753L218.918,129.673L219.294,129.578L222.391,126.901L223.454,123.859L223.313,122.988L223.063,122.513L222.969,121.974L223.173,121.435L223.188,120.01L223.173,119.487L223.939,117.554L223.892,117.126L223.986,116.888L226.207,116.001L230.242,115.985L232.495,115.129L232.761,114.955L233.026,114.765L233.308,114.575L233.777,114.258L234.559,114.004L234.935,113.909L236.749,114.004L236.984,114.29L237.969,115.24L238.204,115.43L240.065,116.936L240.393,117.744L241.879,117.902L242.208,117.839L243.302,117.49L243.584,117.411L245.977,117.094L246.118,117.062L246.274,116.904L246.352,116.777L246.556,116.46L248.573,114.385L248.745,114.194L248.902,114.131L249.903,113.64L250.231,113.561L251.811,111.849L254.877,110.883L255.737,109.932L255.862,109.694L256.847,109.678L257.113,109.789L259.381,110.074L260.445,109.44L260.711,109.393L260.945,109.472L262.04,109.868L262.243,109.599L263.62,107.349L263.761,107.127L265.059,105.891L265.278,105.748L265.372,105.7L265.638,105.684L266.685,103.545L268.375,101.897L268.734,102.214L270.345,102.705L270.705,102.53L271.612,102.372L271.784,101.786L272.676,99.931L273.63,99.804L274.068,99.804L276.664,99.868L277.822,98.996L278.181,98.711L279.48,97.791L279.699,97.601L280.966,96.808L281.591,96.745L282.592,96.586L284.203,94.605L284.094,94.145L284.344,92.814L284.407,92.354L284.422,91.926L284.485,91.751L285.142,90.705L285.314,90.341L285.454,89.199L285.361,88.565L286.768,88.533L286.925,88.581L287.832,88.2L288.004,88.121L288.098,88.105L288.317,88.137L288.458,88.216L288.676,88.47L290.678,89.183L292.18,90.451L292.336,90.499L293.447,90.341L293.807,90.309L293.932,90.055L294.62,88.755L295.058,88.549L295.183,88.486L295.496,88.295L296.294,88.089L296.685,88.438L296.872,88.597L297.169,88.692L297.435,88.755L300.047,89.231L300.219,89.247L301.502,88.533L302.018,88.454L302.487,88.359L302.878,88.327L303.582,87.851L304.208,87.407L303.958,85.457L304.755,84.617L305.131,84.347L305.615,83.681L305.788,83.507L305.834,83.349L306.053,82.667L307.32,81.509L307.008,80.748L306.898,80.542L306.147,79.86L307.101,77.164L310.089,76.577L312.419,77.799L314.703,77.259L316.095,75.483L318.691,74.532L319.114,74.326L319.364,74.326L321.053,73.707L321.209,73.469L322.68,71.439L325.385,72.28L325.776,72.327L326.293,72.375L326.574,72.422L327.841,71.487L328.623,71.328L328.733,70.979L328.905,69.092L328.952,68.711L330.359,67.49L330.172,65.682L330.938,62.477L331.001,62.208L331.485,61.462L333.237,62.033L336.084,60.732L336.459,60.637L338.289,59.225L341.621,58.813L341.933,59.003L342.215,59.13L342.606,59.273L342.95,59.368L343.279,59.416L345.109,60.431L345.938,59.479L346.078,59.352L347.564,57.623L348.69,57.464L348.925,57.369L349.77,56.417L349.848,56.29L350.114,54.989L350.38,54.736L353.914,54.799L355.04,53.419L355.259,53.736L355.416,53.911L355.776,53.911L358.544,54.291L359.013,53.99L361.438,54.577L362.22,53.72L362.673,53.593L363.111,53.435L363.314,53.07L363.471,52.737L363.612,52.451L363.721,52.054L364.034,52.181L366.427,52.451L366.802,52.34L368.022,53.308L368.226,53.26L369.508,53.086L369.977,53.355L370.932,53.593L371.385,53.355L371.542,51.705L374.075,50.706L374.435,50.785L375.092,50.404L375.358,50.293L376.5,50.15L376.625,50.071L377.626,47.421L377.767,47.294L378.47,47.056L380.347,44.596L380.504,44.216L380.707,43.851L381.286,43.375L381.99,41.756L382.021,41.438L382.568,39.915L384.054,41.851L385.243,41.089L385.634,41.169L388.152,40.708L388.606,40.629L391.843,41.438L392.203,41.677L395.535,43.152L399.179,44.136L399.492,44.263L400.633,43.724L400.868,43.644L406.139,44.152L406.342,44.152L405.138,42.391L405.326,39.661L404.856,37.852L404.653,37.582L404.45,37.106L404.387,36.772L404.419,36.55L404.434,36.233L404.669,35.36L404.638,34.995L404.841,34.154L404.794,33.82L405.466,31.646L405.42,31.297L405.513,30.868L405.654,30.662L405.92,30.027L405.951,29.709L403.339,27.741L403.355,25.407L403.058,24.931L402.948,24.725L402.839,24.137L404.731,22.518L404.794,21.041L409.345,18.12L409.392,16.405L410.268,15.754L411.16,13.595L412.051,13.531L412.364,13.642L414.867,13.833L415.226,12.419L415.43,12.197L418.386,10.164L420.012,10.609L420.325,10.8L421.467,11.308L424.235,10.593L425.909,9.005L426.191,8.703L426.394,8.036L429.303,4.828L429.475,4.781L431.54,5.432L431.837,5.511L432.29,5.543L432.963,5.575L434.371,5.607L437.968,3.383L438.218,3.272L439.673,3.097L439.814,2.891L440.549,2.287L441.112,2.097L441.55,1.938L441.91,1.572L444.193,1.032L444.537,1.017L445.147,0.921L445.961,0.889L446.649,0.604L446.79,0.508L447.963,2.16L448.056,2.367L448.213,2.827L449.136,3.685L449.605,3.971L449.73,4.034L450.23,4.225L451.466,4.463L451.779,4.32L453.578,4.717L455.658,3.034L455.908,2.875L457.879,2.017L458.192,2.033L460.006,2.573L460.632,2.382L460.913,2.271L461.664,1.541L462.102,1.255L462.43,0.921L465.074,1.017L465.293,1.064L467.576,1.572L468.624,0.619L469.046,0.524L470.783,0.54L470.986,0.477L472.331,0.032L472.706,0L474.771,0.588L475.037,0.794L476.241,1.001L476.679,3.224L478.228,4.05L478.54,4.145L479.682,4.511L480.136,4.241L481.637,4.813L481.997,4.955L482.513,5.067L482.904,5.13L483.295,5.13L483.749,5.146L484.015,5.146L484.531,5.083L487.393,6.226L487.565,6.29L489.458,7.227L489.708,7.258L491.256,7.814L491.976,7.528L492.101,7.481L492.398,7.242L492.523,7.163L492.961,7.211L493.696,7.068L494.056,7.163L495.605,7.719L495.761,7.766L496.105,7.751L496.418,7.766L497.372,7.925L497.763,8.164L498.389,8.275L498.827,8.306L500.766,8.291L502.737,9.116L503.143,9.339L505.224,9.625L505.333,9.545L505.615,8.481L507.648,7.417L509.181,8.958L509.368,9.291L509.525,9.498L509.666,9.545L511.449,10.053L513.591,9.545L513.732,9.736L519.644,12.404L520.505,14.484L520.692,14.881L522.1,15.532L522.21,15.754L522.507,15.833L522.773,16.183L525.259,18.326L525.651,18.501L527.965,17.437L528.106,17.612L529.514,17.913L529.67,18.104L532.454,18.549L532.767,18.676L534.566,18.644L538.085,20.263L538.241,20.39L540.65,21.184L543.043,19.501L543.262,19.612L543.637,19.85L543.856,19.66L544.576,19.66L544.873,19.454L545.452,19.85L545.561,19.898L546.531,19.993L547.986,21.518L548.283,21.565L550.3,23.058L550.347,23.391L552.959,25.788L553.194,26.106L554.336,26.963L554.789,27.042L555.165,27.138L555.524,27.392L555.681,27.598L555.822,27.836L556.619,28.534L556.87,28.582L557.12,29.169L557.276,29.36L559.341,29.836L559.482,30.027L559.56,30.154L559.669,30.63L560.123,31.233L560.357,31.471L560.436,32.154L560.921,32.392L561.718,32.376L561.89,32.519L561.89,32.693L562.109,32.741L562.281,32.677L562.719,32.63L563.971,32.408L564.221,32.281L564.956,30.709L565.832,31.55L566.066,31.646L567.13,33.185L567.443,33.439L568.131,33.995L568.397,34.169L568.506,34.265L568.866,34.535L571.885,38.375L571.29,39.566L574.622,40.232L575.185,41.788L573.261,42.914L574.481,45.295L574.497,45.644L575.701,47.056L579.252,48.183L579.517,48.389L581.926,52.054L582.114,52.245L582.88,53.482L583.052,53.577L583.819,52.657L584.038,52.768L584.585,53.435L584.726,53.704L584.961,53.895L585.367,54.276L586.18,54.196L586.478,54.276L588.699,54.212L588.886,54.164L590.044,55.212L590.388,55.402L592.484,56.497L592.828,56.449L593.954,57.877L593.751,58.749L593.923,59.019L593.985,59.321L593.938,59.749L593.907,60.034L593.563,60.447L593.453,60.574L593.391,60.859L591.968,62.144L593.516,63.604L593.579,63.873L595.237,65.951L595.565,65.967L596.378,67.49L596.566,67.807L596.629,68.124L596.644,68.854L596.582,70.9L596.472,71.281L595.909,73.802L594.736,74.468L594.486,74.722L594.673,75.341L594.799,75.626L596.425,77.37L596.175,78.718L596.253,78.909L596.425,79.146L596.331,79.432L596.3,79.701L596.363,80.082L597.458,81.113L597.458,81.668L598.349,82.841L599.772,82.825L600.226,83.095L602.025,84.363L602.306,84.522L602.666,85.362L604.981,85.077L605.2,84.95L605.387,84.807L605.622,84.823L605.716,85.045L605.732,85.743L606.733,86.234L607.796,85.14L607.953,84.791L609.266,82.873L609.501,82.92L610.158,82.873L610.455,82.698L612.598,83.031L612.848,83.301L613.208,83.349L613.771,83.253L615.742,82.73L616.242,82.873L617.181,82.889L617.806,82.889L618.854,81.921L621.466,81.652L621.623,81.921L621.513,86.504L622.436,89.31L622.436,91.165L622.671,91.323L622.608,91.989L622.498,92.164L622.42,92.164L621.982,92.084L620.09,91.894L619.855,91.894L619.417,91.91L619.73,92.497L619.84,94.621L618.541,97.078L617.087,98.283L617.196,98.679L617.243,100.09L618.51,100.47L618.979,102.166L618.729,102.404L618.745,103.228L619.011,103.497L619.824,104.385L621.935,104.987L622.342,108.379L620.981,109.345L620.356,109.9L619.011,111.089L618.729,114.654L618.917,114.923L619.136,115.003L619.558,115.51L619.589,115.922L619.84,116.254L620.058,116.476L620.418,116.651L621.888,118.108L622.874,118.742L623.39,120.944L623.406,121.245L620.872,123.907L619.104,124.953L619.042,125.428L618.573,126.22L618.494,126.584L617.212,129.784L617.228,130.259L617.368,130.735L617.243,132.16L617.353,132.303L619.355,133.808L619.527,133.982L620.825,134.631L621.544,134.774L622.53,134.41L624.078,135.788L624.328,136.405L626.065,137.245L627.769,137.276L629.036,139.937L625.767,140.333L623.14,142.756L622.608,144.72L622.358,145.1L621.325,146.303L621.122,148.029L621.31,148.584L621.701,149.565L621.904,150.04L621.904,151.196L621.685,151.608L621.247,154.901L621.185,155.234L621.388,155.946L621.466,156.152L622.264,159.144L622.123,159.524L623.39,163.371L623.546,165.492L623.64,165.713L623.296,169.955L624.438,171.348L623.734,172.551L623.781,174.545L624.907,177.061L625.11,177.283L625.189,177.441L625.236,177.773L623.953,180.274L623.89,183.565L623.765,183.818L624.016,186.065L622.624,190.859L623.218,192.773L624.454,193.438L624.766,193.453L625.283,193.77L624.36,197.487L625.486,199.749L626.471,199.892L626.69,200.034L627.644,200.018L628.239,201.853L628.129,202.043L628.02,203.166L629.349,204.89L629.474,205.269L630.335,209.302L630.053,209.65L630.194,211.469L630.147,211.801L630.256,215.549L628.567,217.493L628.645,217.683L629.334,218.505L629.208,221.256L629.85,221.652L630.46,224.276L630.069,226.505L629.224,227.169L629.334,227.375L629.787,227.564L629.756,227.77L630.131,229.493L628.974,232.228L628.802,232.512L627.895,232.417L627.707,232.323L624.594,233.967L624.266,234.077L624.063,235.294L624.188,235.579L624.829,237.57L625.298,237.76L625.345,238.582L625.11,238.945L623.703,239.783L624.485,240.984L624.704,241.174L626.19,242.122L627.097,243.75L627.425,244.24L627.081,244.84L626.768,245.03L625.627,245.125L625.314,245.172L625.126,245.346L624.563,246.642L624.782,246.91L624.5,247.922L624.563,248.238L624.907,250.276L625.064,250.529L626.643,252.662L626.534,252.883L627.801,256.043L628.004,256.391L629.506,257.165L629.662,257.386L631.195,259.772L631.351,259.945L633.51,261.304L633.666,261.746L634.041,261.715L634.26,261.794L635.684,262.378L636.888,264.226L638.186,265.032L638.436,265.127L638.64,265.269L638.734,265.853L639.015,266.122L640.282,269.091L640.204,269.234L640.751,270.639L640.814,270.845L640.47,271.65L640.298,271.903L640.845,272.345L640.626,275.425L641.612,276.057L642.049,277.652L642.237,277.999L643.144,278.836L641.58,279.168L641.236,279.089L639.969,278.868L638.671,279.704L637.952,281.742L635.277,282.31L635.027,282.231L634.495,281.599L632.462,282.499L632.337,282.721L631.195,285.136L631.085,285.294L628.145,285.247L627.988,285.326L627.55,285.784L624.673,284.821L623.89,285.452L620.872,285.468L620.481,285.326L619.683,285.8L618.917,288.105L617.587,287.805L617.462,287.6L616.946,287.205L616.43,287.236L613.787,286.684L612.301,287L610.439,289.905L610.174,291.499L608.641,293.678L606.951,294.799L607.186,296.993L607.483,296.993L608.484,297.056L609.282,300.939L607.515,301.034L607.702,301.365L608.078,303.733L610.565,304.191L612.52,305.69L612.567,306.984L612.77,307.631L612.723,309.715L611.472,310.52L612.426,311.893L614.647,313.597L615.882,315.538L616.211,316.201L617.29,317.542L616.977,319.088L616.68,319.388L616.649,319.53L616.602,319.987L616.367,320.903L617.603,322.543L617.822,324.027L617.634,324.737L617.775,325.368L617.775,325.872L618.182,326.567L615.085,327.939L613.959,327.766L614.553,332.309L614.146,334.596L614.944,335.101L616.743,334.265L617.102,334.517L619.136,337.829L619.323,338.271L619.902,340.921L620.262,341.268L621.044,342.64L620.919,346.046L621.278,346.63L621.247,348.995L621.357,349.531L619.886,353.032L619.871,354.277L618.745,356.832L618.964,359.543L618.964,359.969L618.807,360.111L618.745,360.19L619.104,360.568L619.37,360.442L619.495,361.151L619.37,361.813L619.151,364.683L618.244,365.928L619.308,366.779L619.48,366.921L619.636,370.94L619.965,371.145L618.729,372.816L622.107,377.245L622.545,377.639L622.577,379.467L622.436,379.608L620.324,382.098L620.919,384.115L620.903,386.211L620.856,386.92L620.762,389.504L620.731,389.914L621.67,392.813L623.546,395.176L623.155,396.436L624.141,398.153L626.424,399.791L626.972,401.146L623.781,401.997L622.624,402.926L620.653,402.753L620.637,404.533L621.451,407.226L619.386,407.525L619.308,407.541L618.041,407.478L616.821,410.234L616.649,410.077L614.662,409.289L614.6,410.234L612.035,410.36L611.487,411.021L612.379,412.659L612.035,414.895L611.863,415.053L611.566,417.903L610.048,419.336L610.095,419.604L610.549,420.108L608.453,423.682L605.043,425.366L602.744,430.357L603.166,432.844L601.696,434.072L601.243,434.104L600.257,436.213L600.382,439.125L598.114,440.746L598.146,443.264L599.319,445.2L599.632,445.467L599.647,446.113L599.397,446.364L597.348,450.944L597.551,456.294L598.38,456.828L597.864,459.834L598.318,461.832L595.94,464.852L594.627,468.911L592.969,470.641L592.687,472.025L591.999,472.119L591.186,473.409L590.56,473.645L589.762,473.944L589.199,475.847L585.774,476.476L584.726,475.658L582.176,475.359L581.473,475.407L580.925,475.407L579.345,474.746L577.844,475.375L577.328,475.548L574.606,475.973L570.727,470.546L569.179,467.715L569.023,467.463L568.6,466.032L567.177,467.243L563.908,466.52L562.344,465.481L557.245,466.535L555.806,467.573L553.397,468.045L551.239,470.137L551.317,473.582L551.958,476.036L547.094,476.696L545.937,475.847L545.483,475.988L544.388,475.753L544.075,475.611L542.355,473.787L541.37,474.526L541.135,475.265L540.228,475.894L536.802,472.528L534.456,472.198L533.033,472.402L530.265,472.78L529.874,472.686L528.732,474.243L528.716,474.699L529.31,478.489L530.452,479.952L530.515,481.241L530.765,481.682L530.405,482.2L529.842,482.546L529.436,483.82L528.888,484.465L527.387,486.509L527.183,486.651L525.963,487.17L525.744,487.185L518.862,490.377L516.36,490.44L515.984,490.456L513.623,488.443L509.587,489.292L509.4,490.157L504.16,490.094L503.988,489.968L503.769,490.33L503.175,490.503L502.893,489.182L502.377,489.575L501.517,491.761L500.75,490.723L500.453,490.597L499.781,490.299L498.42,490.015L496.152,489.434L496.214,490.817L496.387,490.912L497.872,493.207L496.512,494.685L494.291,493.867L491.554,493.899L490.865,495.33L487.941,494.685L487.471,493.522L485.485,493.726L485.016,492.059L483.123,490.739L482.795,488.27L481.934,488.821L481.934,489.591L480.886,491.886L480.777,492.484L478.447,495.157L478.478,497.138L478.556,497.625L478.681,499.7L478.071,500.8L478.056,505.5L474.943,505.563L475.037,506.019L471.846,506.113L468.827,506.601L467.623,508.062L466.794,508.172L463.306,508.99L463.275,510.153L459.584,510.498L456.847,511.426L454.782,513.453L452.796,514.396L451.45,517.649L451.967,520.98L450.747,531.051L452.968,531.161L453.015,532.434L450.981,536.596L447.712,538.638Z"
          fill="#e0e0e0"
          stroke="#333333"
          stroke-width="1"
          stroke-linejoin="round"/>
  </g>
</svg>