<?xml version="1.0" encoding="UTF-8"?>
<svg xmlns="http://www.w3.org/2000/svg"
     viewBox="94.21516535086994 -20 611.5696692982601 640"
     width="611.5696692982601"
     height="640">
  <title>群馬県</title>
  <desc>都道府県コード: 10</desc>
  <g id="10">
    <path d="M461.878,439.511L461.18,439.021L460.078,438.054L459.632,437.69L458.669,436.71L456.479,437.312L454.428,437.116L452.824,436.906L452.67,436.892L451.708,436.892L445.988,436.976L443.784,435.113L443.617,434.398L443.198,434.244L442.096,436.92L437.953,442.368L435.637,443.936L434.911,444.917L433.419,446.597L434.06,447.451L434.409,447.857L434.995,448.081L433.321,451.358L430.489,455.726L429.75,456.944L428.731,458.806L428.215,459.688L425.02,464.826L422.426,470.424L422.244,471.194L421.044,473.517L420.207,474.763L418.101,477.715L414.39,481.396L413.483,483.047L414.055,486.572L413.372,488.559L410.777,489.958L410.582,490.28L410.372,491.511L411.014,495.469L410.847,497.05L411.586,499.162L411.739,499.33L411.725,499.777L411.586,499.917L411.419,500.547L412.939,501.526L413.148,501.917L413.693,503.568L412.632,505.442L412.967,506.854L411.753,507.204L411.474,507.176L411.084,507.106L410.54,507.064L407.066,507.134L405.476,509.287L404.806,509.413L404.178,509.846L404.039,510.909L403.509,514.293L403.467,516.53L404.457,518.948L404.164,520.318L401.583,521.73L399.923,521.311L399.337,521.073L397.859,519.633L396.603,519.312L396.994,518.068L395.71,517.439L394.51,518.879L392.557,518.333L392.055,517.355L389.865,518.473L387.228,517.718L386.726,518.431L388.065,519.857L385.47,522.401L384.522,522.234L381.913,522.695L381.048,524.163L380.95,524.442L380.895,524.666L380.811,524.973L380.113,526.441L378.621,527.643L376.933,526.819L375.091,527.238L374.882,527.084L374.547,526.791L373.375,524.68L371.506,522.737L370.195,522.779L368.981,521.884L366.372,522.905L366.512,524.54L365.856,526.245L365.396,529.67L366.121,530.704L365.605,532.717L365.521,533.122L363.596,534.338L363.275,534.589L362.871,535.162L362.731,535.721L362.647,536.755L360.68,538.642L360.443,539.215L357.123,540.319L354.556,542.638L354.263,542.904L351.724,542.233L351.04,541.353L348.041,540.165L347.846,540.053L347.441,539.774L344.777,541.423L343.605,540.71L341.582,540.976L341.219,540.948L339.154,541.493L337.801,543.239L336.309,543.211L334.565,544.776L334.146,545.097L330.142,545.978L329.696,546.173L327.464,547.752L325.65,548.143L324.046,549.093L322.958,551.985L321.27,553.256L321.033,553.396L317.754,553.731L317.559,553.983L316.373,554.583L316.15,554.695L314.434,560.855L312.704,563.425L311.351,564.29L311.114,564.151L309.663,565.352L309.482,566.986L308.324,568.606L308.268,568.913L308.226,569.43L307.835,571.119L307.612,571.119L306.329,571.398L305.966,571.468L304.697,571.552L304.501,571.692L302.241,572.208L301.516,573.158L299.158,573.493L298.963,573.479L298.154,572.934L296.173,573.311L296.033,573.493L294.094,574.484L293.969,574.596L292.057,575.112L291.806,575.154L289.742,574.917L289.1,573.479L288.57,573.339L287.021,572.809L286.826,572.432L286.547,571.51L284.594,571.231L283.045,570.295L281.413,570.323L281.12,570.379L279.627,571.007L279.306,571.356L276.767,572.529L276.474,572.585L274.717,572.683L274.061,574.917L273.991,575.462L274.075,576.718L273.977,577.207L272.833,578.896L272.596,579.343L272.08,581.283L272.373,582.568L270.378,584.257L269.932,586.253L268.62,587.062L268.383,587.453L266.681,588.347L267.016,589.561L264.658,592.827L262.859,593.706L262.747,594.139L261.98,594.92L260.515,594.934L257.823,595.8L256.86,597.642L256.818,599.149L256.065,599.86L255.911,600L249.996,597.977L249.703,597.753L249.076,596.846L246.146,596.972L245.197,596.428L244.179,594.697L244.5,591.962L241.738,589.38L241.821,588.389L241.654,587.97L241.179,585.415L236.869,585.08L236.618,585.262L236.255,585.471L236.004,585.485L233.283,585.499L233.088,584.899L233.2,584.229L232.656,582.693L231.763,582.707L229.377,581.409L227.745,581.507L226.015,580.739L225.987,579.678L225.82,579.343L224.174,577.5L221.16,576.495L220.644,576.606L220.17,576.83L219.5,576.16L220.658,573.716L220.867,573.339L221.76,571.259L221.956,571.161L222.514,568.899L222.597,568.592L223.574,567.391L223.755,567.293L224.313,565.491L224.509,565.059L225.206,564.263L225.15,564.039L224.467,562.391L224.383,562L224.648,560.254L224.606,559.863L224.439,555.994L224.425,555.659L224.522,555.379L224.55,555.058L224.676,554.625L224.69,554.485L224.285,553.172L223.769,552.823L223.49,550.323L220.867,547.514L220.142,547.389L220.268,546.928L220.282,546.606L220.114,546.075L220.016,545.698L220.002,545.195L219.068,543.672L219.068,543.281L219.096,543.002L219.124,542.568L219.152,541.087L221.16,540.305L221.37,539.047L221.467,538.754L224.188,537.51L224.69,537.412L225.652,536.965L225.625,534.212L225.945,533.779L226.713,533.01L226.169,530.858L224.788,529.852L224.606,529.782L224.062,527.35L223.392,526.651L225.736,525.071L225.262,524.4L224.927,524.428L224.704,524.456L223.797,523.841L223.588,523.701L222.151,522.653L222.276,522.318L222.137,521.255L222.262,520.92L221.9,520.011L221.816,519.619L221.816,519.34L221.607,518.795L220.588,517.439L219.263,518.18L218.273,517.886L217.868,517.956L217.143,518.068L216.961,518.221L215.217,518.487L214.408,517.369L212.33,517.48L212.162,517.341L211.325,517.313L211.144,517.564L209.888,516.781L209.609,516.586L208.158,516.124L205.801,516.558L205.689,516.544L205.647,516.488L205.48,516.082L204.462,515.09L202.899,511.972L202.787,511.678L203.011,511.468L203.122,509.497L203.011,509.315L202.62,508.979L202.062,506.476L201.197,505.889L200.751,504.281L200.527,504.057L199.83,502.645L199.76,502.491L199.537,502.365L199.23,502.379L197.975,502.686L197.375,502.015L196.803,501.945L196.482,501.596L196.384,501.33L196.426,499.246L195.422,498.001L195.645,497.582L196.956,493.217L198.184,493.357L198.574,493.413L199.914,493.05L199.955,492.49L200.011,492.35L200.541,492.35L200.667,492.434L201.155,493.077L200.025,495.4L200.248,496.253L200.304,496.602L201.895,498.714L201.992,498.952L202.285,499.078L202.425,499.19L202.522,499.316L204.029,499.805L204.127,499.875L205.396,499.931L205.675,500.015L206.191,500.239L206.429,500.239L208.117,501.302L208.298,501.442L208.772,501.959L208.856,502.001L209.735,502.099L209.163,499.903L211.088,498.155L213.111,497.721L215.162,496.672L216.808,496.882L217.073,496.798L219.235,495.805L221.481,496.84L221.997,494.588L221.412,493.175L218.677,490.014L218.566,489.86L218.593,488.279L217.575,485.341L216.403,484.096L216.222,483.914L216.013,483.298L215.817,482.795L215.594,482.445L217.519,480.024L220.979,477.548L221.844,478.289L220.826,475.812L221.091,474.091L220.268,471.698L219.472,471.026L218.398,471.782L218.091,471.88L218.035,471.852L217.784,471.712L215.58,472.608L215.343,472.538L213.334,469.571L213.278,469.333L211.967,467.177L211.897,466.967L212.079,466.449L211.925,465.945L211.925,465.372L211.869,465.036L210.6,464.168L210.614,464.028L210.809,462.796L210.795,461.312L210.781,460.094L210.823,459.282L210.976,458.596L209.888,456.09L208.633,454.886L208.019,454.606L206.303,453.206L207.461,449.944L207.419,449.496L207.545,447.605L207.028,445.673L207.112,445.267L208.019,443.46L207.056,441.92L207.391,440.617L206.945,438.923L206.666,438.67L205.494,436.99L208.577,436.331L208.884,435.925L209.191,435.757L210.363,434.945L210.893,432.984L212.637,432.816L212.818,432.69L214.743,432.451L217.408,431.205L218.719,431.373L218.928,431.359L222.165,428.613L223.658,428.991L224.997,428.473L225.108,428.641L225.862,427.058L226.071,426.792L226.197,426.301L226.531,426.231L228.359,425.363L227.871,424.13L229.321,423.303L229.391,423.219L229.28,421.902L229.168,421.65L229.308,420.725L229.238,420.557L228.359,420.487L228.345,420.263L227.731,418.105L227.424,417.825L226.852,416.157L227.633,414.139L228.331,413.775L229.294,411.505L228.987,409.108L229.098,408.715L228.568,407.945L228.471,407.861L228.024,406.879L227.689,401.763L228.261,400.642L227.843,399.31L228.359,397.53L227.843,395.693L229.447,393.268L229.601,393.113L228.791,391.795L228.819,390.155L230.34,387.925L230.493,387.505L230.521,387.463L230.675,387.365L231.023,386.537L230.159,385.682L229.935,385.387L228.554,384.35L228.317,382.835L228.233,382.302L227.829,380.044L227.926,379.455L227.968,379.301L228.415,378.656L228.429,378.586L228.498,378.053L228.791,371.923L227.508,370.127L227.173,369.412L227.117,368.22L227.117,367.687L227.048,364.825L226.922,364.516L226.643,363.674L226.406,363.478L224.564,362.327L224.132,361.233L222.304,359.956L222.151,359.689L219.863,359.212L217.436,360.503L214.994,360.026L213.585,357.641L211.507,356.771L211.186,356.546L208.577,356.252L208.172,356.308L207.07,356.897L205.508,356.546L205.257,355.746L204.992,355.69L202.257,355.578L201.936,355.564L200.848,356.013L200.709,356.434L200.388,357.458L199.286,357.809L198.086,356.588L195.784,357.402L195.268,357.571L194.766,357.753L194.403,357.879L192.701,358.3L191.739,358.272L189.409,357.893L186.786,358.833L185.684,359.016L184.038,360.152L182.727,361.724L181.038,365.035L178.541,367.658L177.914,367.785L174.775,367.855L170.785,365.877L168.204,365.021L164.354,362.089L163.126,361.135L161.633,361.443L158.815,361.261L158.383,361.331L157.295,361.696L156.974,361.738L155.397,364.207L155.467,368.655L150.668,366.859L150.57,366.719L150.375,366.705L150.11,366.705L149.971,366.733L149.719,366.901L148.255,366.452L144.809,366.803L144.53,366.705L142.298,366.522L142.981,364.853L141.782,363.029L141.544,362.874L141.154,362.313L141.098,362.103L141.489,361.135L141.516,360.882L141.433,360.18L141.628,359.633L141.182,357.963L138.698,357.36L138.015,357.795L137.708,357.978L136.159,358.23L134.192,356.56L129.896,355.227L125.892,353.655L124.734,353.234L122.111,351.452L119.698,350.947L118.582,350.638L116.154,350.189L115.764,346.189L116.085,342.905L116.908,339.971L114.913,339.564L115.903,337.921L115.973,336.658L115.792,335.549L115.708,333.794L116.81,332.839L116.936,331.688L116.67,331.295L115.987,330.635L116.085,329.806L115.303,328.234L115.959,326.113L115.847,323.698L115.248,322.982L114.285,322.237L114.703,320.636L114.215,318.586L114.564,318.193L114.731,317.041L114.899,316.465L116.21,312.729L118.205,309.217L117.368,306.52L117.201,305.902L117.201,305.775L117.256,305.466L116.754,304.356L117.228,301.687L118.066,300.085L120.758,298.09L121.748,294.661L121.637,294.268L120.632,291.274L121.065,290.136L123.464,289.18L125.627,286.201L127.231,284.542L128.459,281.9L127.259,279.566L128.445,277.5L128.403,275.475L127.747,274.083L125.976,272.635L124.636,272.143L125.083,269.022L125.487,268.628L126.352,267.756L126.631,267.236L126.826,266.688L127.259,265.338L127.65,264.255L127.385,260.669L128.682,258.447L129.435,258.067L129.868,257.814L130.035,257.828L131.514,257.209L133.704,257.617L134.095,257.532L132.993,254.283L133.76,252.525L133.997,251.766L134.178,251.442L134.611,251.639L138.113,251.428L140.219,249.585L140.735,247.053L140.763,246.772L141.907,244.507L141.949,244.324L142.716,242.593L141.74,241.229L141.558,239.16L142.033,237.908L143.958,236.684L145.409,236.754L146.427,235.122L147.738,234.151L148.338,232.758L149.245,232.673L149.761,232.392L151.561,232.35L151.798,232.167L153.388,232.504L153.919,232.758L154.267,233.743L155.969,234.348L159.401,232.814L160.754,232.603L160.922,232.547L161.591,232.293L161.912,232.138L162.289,231.21L164.019,230.379L164.995,230.858L165.4,231.097L165.623,231.266L166.195,230.816L166.572,230.45L167.562,229.83L168.037,229.732L168.176,229.704L168.371,229.647L169.027,229.493L169.39,229.422L169.711,229.366L169.99,229.197L170.338,229.028L171.608,228.916L171.706,228.719L173.547,226.593L173.659,226.326L173.575,225.116L173.547,224.918L174.607,223.75L174.858,223.243L175.849,220.316L174.914,219.865L174.663,219.753L172.04,218.823L170.687,216.782L170.45,216.501L168.636,214.741L169.348,211.981L169.362,211.686L168.748,210.545L168.762,210.348L169.041,209.475L169.306,209.194L169.236,207.335L168.037,207.124L167.967,207.081L167.534,207.039L167.283,207.096L167.981,206.335L168.413,206.18L168.79,206.011L169.208,205.814L170.52,204.561L170.841,204.519L171.134,204.49L171.329,204.406L173.812,203.04L174.342,202.702L175.109,203.139L177.035,202.885L176.979,202.716L177.607,201.632L177.774,201.237L177.844,201.139L178.081,200.97L180.034,199.266L180.174,199.294L181.094,199.224L181.262,199.435L181.903,199.167L182.085,199.083L184.931,198.435L185.154,198.308L185.977,197.787L186.34,197.773L186.535,197.731L186.73,197.731L188.683,198.224L189.102,198.195L190.106,198.125L190.357,198.097L192.087,198.266L192.464,198.308L193.022,197.871L193.231,197.759L194.236,197.801L194.389,197.9L194.78,198.322L195.073,198.505L196.063,199.252L196.245,199.407L197.835,200.688L198.993,199.829L200.932,196.942L201.225,196.886L202.369,195.505L202.132,195.308L202.913,193.59L203.164,193.364L204.378,193.209L204.727,193.364L206.122,194.308L206.289,194.28L207.642,196.759L207.921,197.069L208.117,197.224L208.368,197.294L210.223,197.843L210.837,197.026L211.018,196.759L211.144,196.463L212.846,195.266L212.999,195.111L213.083,193.463L213.125,193.322L214.297,192.167L214.394,191.928L214.869,190.618L214.938,190.491L216.068,189.758L216.347,189.73L217.882,189.702L218.747,190.35L218.859,190.463L219.193,190.364L219.486,190.153L221.453,189.73L222.597,188.547L222.946,188.392L224.188,188.152L224.369,187.969L225.569,187.744L227.327,186.222L229.252,186.11L229.489,186.053L229.642,186.081L229.907,186.152L231.065,185.391L231.498,185.405L233.66,184.856L233.911,184.954L234.888,185.321L236.032,184.109L239.171,184.081L241.179,182.982L243.342,181.038L243.705,181.08L244.723,180.826L245.309,180.545L247.946,179.967L248.448,179.826L249.089,180.319L252.647,180.911L252.968,180.77L253.665,180.418L253.972,180.347L254.391,180.221L254.753,179.84L255.032,179.699L256.148,179.431L256.734,177.572L256.679,177.36L257.864,175.557L258.102,175.5L259.357,174.232L259.594,174.035L260.11,173.471L260.124,173.189L259.971,170.977L259.636,170.836L260.292,167.904L260.403,167.679L260.543,167.383L260.878,166.889L262.091,165.663L262.524,165.466L262.677,165.621L262.928,165.973L263.514,166.438L265.956,166.199L267.658,166.974L268.453,168.102L270.825,168.524L271.313,168.764L273.377,170.117L273.782,170.272L275.498,172.203L275.805,172.47L276.14,172.682L278.469,173.922L278.79,173.866L280.255,175.176L280.604,175.359L283.743,175.049L283.952,175.007L284.384,174.894L284.608,174.979L287.286,174.936L287.886,175.979L288.458,176.247L288.695,176.233L290.439,176.261L291.806,174.697L291.918,174.542L291.848,174.19L291.792,173.823L291.904,171.907L293.034,168.891L295.671,166.918L295.866,166.579L295.95,166.495L296.187,166.41L298.014,165.24L299.716,164.916L300.79,165.48L301.153,165.861L303.176,166.889L304.948,164.944L305.185,164.493L307.291,160.885L306.58,159.743L306.468,159.236L307.849,156.36L308.087,155.965L308.547,153.075L308.212,151.411L308.212,150.932L308.324,149.86L308.631,149.592L308.91,149.254L309.37,148.916L309.468,148.775L309.258,148.493L308.993,148.281L308.268,147.943L307.208,145.433L307.375,144.107L307.222,143.501L306.943,142.33L305.548,140.243L304.892,138.001L304.962,135.462L308.463,135.363L311.532,136.689L312.369,135.942L312.899,135.702L313.388,136.111L313.569,136.153L313.946,136.125L318.27,138.649L320.112,138.847L320.558,138.819L320.837,138.678L321.033,138.452L324.213,136.195L329.152,134.912L330.924,131.329L333.337,130.652L334.286,131.047L335.555,130.497L340.633,130.088L340.968,130.13L345.251,129.467L345.753,128.903L349.143,128.085L349.771,127.887L350.454,127.859L350.831,127.803L353.175,127.027L353.259,126.815L353.51,124.304L352.31,122.526L352.24,122.244L352.087,121.553L351.989,121.186L351.375,119.479L351.333,119.281L347.776,117.884L347.385,117.094L347.316,116.812L347.888,114.229L348.041,113.863L348.753,112.776L349.045,112.494L350.078,110.462L350.134,110.236L349.771,108.528L348.529,107.314L347.846,105.282L347.999,105.112L348.25,104.774L348.153,104.364L348.613,103.249L348.641,103.052L348.697,102.854L348.822,102.685L349.52,101.626L349.827,101.414L349.98,101.287L350.008,101.061L350.524,98.422L350.706,98.196L353.663,96.643L353.831,96.53L354.333,95.415L354.137,93.833L354.291,93.65L354.961,92.619L355.909,92.803L356.258,92.902L357.402,92.408L357.904,92.139L360.722,92.28L361.169,92.309L361.629,92.45L361.936,92.619L362.299,93.099L364.182,91.97L364.335,91.857L366.414,93.001L366.749,93.142L367.781,93.438L368.214,93.735L370.153,94.186L370.376,94.412L371.869,96.121L372.189,96.375L373.808,94.864L375.621,94.215L375.845,93.819L376.04,90.29L375.928,89.838L375.942,86.703L375.175,84.98L375.105,84.642L373.543,81.817L373.933,80.871L374.742,79.261L374.826,78.979L374.715,78.202L374.575,77.948L374.212,76.747L373.989,76.549L373.878,76.465L373.808,76.182L372.287,74.6L372.022,74.148L370.125,71.902L369.971,69.105L369.943,68.682L369.999,67.537L369.971,67.34L369.609,65.955L369.567,65.673L369.33,63.172L369.288,62.875L369.19,62.522L369.009,62.098L368.967,61.787L368.953,61.505L368.967,59.103L369.051,58.721L369.12,58.142L369.288,57.845L369.539,57.52L369.72,57.238L369.692,56.291L369.623,55.994L369.609,55.443L369.553,55.259L369.483,54.426L369.553,54.002L369.539,53.507L369.539,53.224L369.72,50.61L369.832,50.214L370.376,48.391L370.446,48.193L370.278,46.455L370.376,46.13L370.111,44.674L370.446,44.476L370.934,43.981L371.45,43.473L374.645,43.995L374.854,44.024L379.053,44.165L379.318,44.066L379.765,44.165L384.229,44.632L384.759,44.716L387.131,43.176L387.605,42.709L387.758,42.554L388.33,42.214L388.665,42.101L389.028,42.059L390.256,41.494L390.465,41.296L391.999,39.585L393.115,40.08L393.311,40.221L394.776,40.236L397.063,41.494L397.259,41.578L398.793,42.243L400.565,42.144L401.29,41.409L404.164,40.391L404.443,40.405L405.573,40.137L406.145,40.137L406.634,39.571L406.913,38.836L408.391,35.486L408.768,35.259L409.312,34.058L411,33.294L411.279,33.054L412.66,32.446L413.093,32.135L414.306,30.41L414.836,30.113L417.682,28.869L417.85,28.614L418.031,28.218L418.352,28.19L419.342,28.19L420.333,28.148L421.212,28.133L421.365,27.95L421.505,27.101L421.547,26.677L424.769,23.722L424.951,23.085L425.983,21.897L425.83,20.695L425.537,19.988L425.16,15.703L424.895,15.618L426.067,10.257L425.76,9.267L426.053,6.084L427.657,2.25L427.699,1.005L428.62,0L432.484,1.514L435.051,1.924L435.958,4.966L436.111,5.235L436.599,5.9L436.878,6.253L438.901,6.31L439.71,6.296L439.864,6.253L440.282,6.466L440.422,6.706L441.203,7.767L441.189,7.979L441.008,9.139L440.952,9.691L442.347,12.336L443.086,14.684L443.24,14.967L443.477,16.028L443.742,16.367L444.398,17.485L444.328,17.725L444.3,18.517L445.611,19.394L448.806,20.738L449.378,21.021L450.327,22.336L451.499,25.829L451.68,26.225L452.043,26.776L452.601,27.667L452.74,27.794L454.763,28.756L454.986,28.883L457.846,30.693L461.934,32.064L462.171,32.573L463.664,35.754L464.04,36.065L464.961,37.012L465.24,37.465L465.435,39.006L465.365,39.218L464.598,41.564L464.961,42.172L464.222,44.193L464.291,46.398L463.859,47.571L463.761,47.84L463.761,48.01L464.012,49.126L464.096,49.437L465.505,51.401L467.137,54.525L468.825,55.542L471.267,54.807L474.182,56.8L474.74,56.588L475.047,56.531L475.745,56.39L477.335,57.775L481.423,57.04L481.395,56.8L481.562,56.531L481.939,56.206L482.218,55.966L482.455,55.768L483.738,54.963L484.157,54.892L486.18,54.369L487.965,55.005L488.077,55.316L488.203,55.556L488.579,56.22L488.914,57.789L489.123,58.241L490.044,59.513L490.463,59.852L491.872,63.158L489.291,66.365L489.179,66.478L488.342,66.774L488.523,66.972L488.412,68.004L488.537,68.286L490.574,68.201L490.449,69.077L490.421,69.247L492.416,70.32L492.374,70.589L492.96,72.086L492.96,72.354L493.239,72.736L493.336,72.707L493.392,72.354L493.629,72.425L493.936,72.609L494.201,72.594L494.704,72.439L494.885,72.27L495.875,71.874L496.057,71.902L499.014,70.998L499.363,71.027L500.34,70.447L502.195,68.215L502.488,67.905L502.976,67.749L503.13,67.777L503.813,66.887L503.813,66.591L504.595,66.082L505.641,67.594L505.864,67.763L507.078,69.006L507.301,69.233L508.64,70.306L510.328,70.589L510.496,70.716L511.709,71.733L513.928,69.967L514.123,69.925L514.458,70.08L514.751,70.122L514.876,70.108L515.071,70.179L516.578,69.812L516.718,69.84L517.304,69.727L518.796,71.168L519.173,71.549L521.81,74.699L522.967,74.346L523.344,74.205L523.86,74.063L524.279,74.049L524.795,74.078L527.069,74.473L527.864,74.826L528.157,74.883L528.478,74.826L530.682,74.614L530.975,74.699L531.156,74.741L531.449,74.869L532.384,75.419L532.872,75.391L535.3,75.25L536.486,74.134L536.793,73.88L537.016,73.753L537.225,73.654L537.63,73.583L538.355,73.597L538.55,73.64L538.857,73.739L538.997,73.837L540.141,74.897L540.35,76.578L540.448,76.747L540.88,77.114L541.424,77.722L541.605,77.933L541.745,78.258L542.261,78.851L542.303,79.092L542.136,81.718L542.289,81.379L543.712,80.292L543.949,80.264L545.637,79.741L547.311,80.01L548.902,78.908L551.162,79.473L551.413,79.473L551.943,79.19L552.264,79.035L552.822,78.95L555.975,80.998L556.393,81.323L557.23,82.806L560.369,82.792L561.722,83.145L562.755,85.785L562.001,87.367L558.611,89.118L558.109,89.104L557.356,89.358L557.146,89.513L555.486,90.332L553.101,92.478L552.752,93.749L552.515,94.144L551.357,95.923L551.943,97.349L551.803,97.716L552.11,98.859L550.673,100.469L550.659,100.61L551.008,100.836L551.245,101.118L549.878,102.12L549.474,102.092L547.855,101.838L547.339,102.882L547.214,103.687L545.916,101.654L545.484,102.148L545.637,102.671L545.665,102.953L545.693,105.677L545.679,105.931L545.414,109.135L545.191,109.431L545.009,109.77L544.577,110.631L544.563,110.984L544.312,113.213L543.977,113.467L541.633,115.725L542.833,116.911L542.945,117.221L543.098,117.404L543.321,117.701L545.386,118.477L548.483,118.787L549.683,122.216L551.12,122.413L551.371,122.625L552.919,123.429L553.254,123.993L554.301,123.556L556.128,124.812L556.323,124.826L558.848,125.729L559.002,126.11L561.067,127.055L561.373,126.138L563.982,126.025L564.233,126.223L565.88,127.351L566.186,127.45L567.581,128.818L567.358,128.903L567.693,130.356L566.159,132.176L566.159,132.429L563.703,133.727L561.401,136.379L561.053,136.802L560.801,138.255L561.904,139.919L559.281,142.344L559.086,142.373L557.091,142.189L555.891,142.782L555.221,142.753L553.784,145.165L553.868,146.66L554.691,147.238L554.789,147.618L554.859,149.888L553.798,150.396L554.091,151.58L554.133,151.891L554.301,152.144L554.133,152.44L553.98,153.258L553.77,153.427L551.496,154.837L551.19,154.922L550.841,154.781L550.422,154.598L549.697,154.795L549.474,154.894L548.051,156.007L547.827,156.106L547.702,156.628L547.702,156.783L547.813,157.022L546.725,159.278L543.754,159.912L543.642,160.152L543.963,161.773L544.103,162.083L543.266,165.043L543.07,165.17L542.638,165.846L543.921,166.96L544.354,167.284L544.563,170.399L544.298,171.526L544.396,171.653L545.009,173.133L547.758,174.57L549.362,174.556L549.976,174.824L551.58,175.232L552.152,175.204L550.352,178.22L550.143,181.911L549.306,182.883L548.957,185.349L549.878,187.631L548.93,188.659L548.957,190.364L547.283,191.477L546.725,192.505L546.823,193.054L545.846,194.942L544.716,195.886L545.233,196.829L544.703,197.871L544.089,198.35L541.717,201.505L539.457,202.899L538.243,204.702L536.402,205.828L537.392,209.827L536.555,210.771L536.36,211.517L536.555,211.897L537.448,213.558L536.053,214.375L535.509,215.698L535.872,217.824L535.23,219.232L535.132,219.471L534.965,220.865L534.742,220.991L533.333,222.103L533.263,222.286L533.054,223.187L533.11,223.384L531.84,225.369L532.314,227.058L532.384,227.255L531.91,229.253L532.035,229.38L532.705,231.463L532.691,231.843L533.389,234.404L532.747,237.444L532.886,237.725L532.44,238.569L533.137,241.974L534.281,242.34L534.435,242.284L534.588,242.157L536.765,242.101L537.085,242.115L538.522,242.875L538.941,243.029L539.136,243.072L539.806,243.058L540.392,243.845L540.364,244.338L540.81,246.026L540.992,246.462L542.68,248.094L542.833,248.347L543.67,249.009L543.963,249.051L544.186,249.107L544.591,249.304L544.926,249.177L545.456,249.346L545.665,249.459L548.246,249.388L550.311,250.415L550.98,250.092L551.315,250.162L552.054,250.725L555.5,250.064L558.751,250.697L562.559,255.451L564.15,256.182L566.605,255.085L566.814,254.945L567.679,254.734L566.368,252.483L570.302,252.863L572.562,254.818L574.585,255.451L575.338,255.493L576.803,256.773L581.03,256.435L581.923,255.029L585.103,253.257L585.355,253.2L585.954,253.397L586.08,253.496L587.14,253.847L587.461,253.777L588.005,254.523L588.033,254.818L588.368,255.381L589.819,254.734L590.098,254.438L590.67,253.861L592.804,254.312L594.102,253.777L596.836,255.788L596.613,256.717L598.301,260.402L597.91,262.75L599.026,264.452L600.84,265.366L602.109,266.842L602.179,267.138L601.83,269.542L601.858,269.669L597.896,272.551L597.994,276.023L597.785,276.15L597.199,276.923L596.822,276.783L596.515,276.684L596.138,276.6L595.204,277.176L594.966,277.275L594.129,277.865L593.948,279.299L592.623,280.944L592.539,281.112L592.037,283.558L589.833,284.149L589.456,284.43L587.894,285.554L587.517,285.54L583.82,283.952L583.401,284.163L582.271,284.992L581.951,287.086L581.992,287.325L581.909,288.225L581.825,288.337L580.988,291.541L581.727,293.157L580.402,295.041L582.411,295.631L582.857,295.575L583.192,295.56L583.415,295.645L583.639,295.631L583.987,295.673L583.122,297.738L582.843,298.315L582.216,299.144L581.839,299.298L580.304,300.998L580.402,301.771L579.9,302.558L579.523,302.67L579.481,302.712L579.467,302.965L578.854,305.185L577.347,306.815L577.249,307.292L574.501,308.29L575.478,309.386L575.185,310.313L575.059,310.861L574.403,311.437L573.999,311.746L573.287,312.055L573.497,313.515L572.785,316.325L574.836,316.858L574.264,318.459L575.784,318.74L576.147,318.825L577.347,318.684L576.384,321.985L576.998,322.448L577.152,322.603L578.058,323.417L578.128,324.681L578.1,324.877L578.351,325.945L578.505,325.987L578.965,329.427L581.211,327.447L581.825,327.349L581.225,331.168L581.253,331.393L581.267,331.519L581.239,331.772L580.625,333.344L579.551,333.541L578.003,334.973L578.84,336.924L577.291,336.18L577.082,336.18L576.37,336.054L576.091,336.11L575.826,336.222L573.901,337.318L572.715,335.24L571.125,334.889L570.846,335.268L569.995,336.251L569.814,336.475L568.432,336.854L570.134,338.721L569.981,339.269L570.107,339.578L570.218,340.995L567.888,343.536L567.623,343.677L566.982,344.042L566.34,347.354L566.256,347.494L566.27,347.958L566.242,348.14L565.866,348.631L562.21,350.077L562.392,350.554L562.392,350.821L562.085,353.024L561.29,353.375L561.122,353.81L561.081,355.269L561.067,355.564L558.388,357.5L558.388,357.725L556.016,359.731L555.821,360.7L555.138,361.05L554.342,363.029L554.091,366.592L553.45,369.398L553.184,369.594L551.803,370.085L551.469,370.268L550.743,371.208L550.422,373.2L547.214,378.291L549.599,380.661L550.436,384.532L549.948,386.313L550.366,387.056L551.148,387.841L551.552,388.234L552.054,388.767L554.914,391.501L558.807,393.758L559.546,394.487L561.164,397.726L562.824,399.044L563.689,399.59L570.316,403.698L570.748,403.908L570.874,403.936L571.069,403.796L572.897,404.889L573.218,405.057L574.975,406.978L575.031,407.847L576.747,409.949L576.663,411.378L573.929,412.065L573.287,409.865L572.604,410.467L572.367,410.804L571.418,411.392L572.911,413.018L571.781,413.971L572.604,415.513L571.795,416.115L572.576,417.783L573.092,417.39L575.157,420.571L576.454,420.557L577.835,421.51L576.733,422.757L578.868,424.27L578.756,424.858L578.714,425.447L578.379,427.366L580.458,429.159L580.528,429.356L581.407,426.624L582.327,426.848L584.294,428.473L584.35,431.443L588.828,431.359L590.377,430.981L592.107,432.199L592.023,433.138L592.176,433.348L593.739,434.763L594.116,435.085L594.213,435.155L594.729,435.435L595.497,436.556L593.097,436.443L591.005,438.166L592.455,439.707L592.609,439.763L593.432,440.827L595.79,441.346L597.38,440.771L596.85,438.474L598.719,438.544L598.608,439.763L598.998,440.085L600.505,440.449L600.784,440.645L601.956,440.281L601.942,440.099L603.183,438.769L605.15,438.362L606.448,439.567L609.935,438.194L611.107,435.505L613.702,436.836L615.711,436.864L616.436,435.463L618.892,435.603L619.966,434.132L620.398,434.034L621.166,433.488L624.332,436.219L625.462,436.163L625.602,435.743L625.811,435.449L626.076,435.099L626.858,435.435L627.681,435.953L627.527,437.746L629.438,438.446L631.266,436.177L631.489,435.673L632.047,436.892L634.014,436.808L634.572,437.368L633.707,439.511L636.595,442.844L637.181,443.278L638.144,443.418L641.282,442.746L642.203,443.348L644.756,443.362L647.379,442.13L649.737,442.494L650.071,442.424L654.215,442.55L656.279,442.676L657.507,442.718L659.976,441.976L661.734,439.637L664.092,439.413L665.752,440.813L668.807,440.911L669.811,441.542L670.495,443.32L670.83,443.88L671.165,445.015L673.257,443.418L673.648,444.861L671.625,445.743L669.044,448.53L668.416,449.874L668.388,450.126L669.588,450.91L670.467,452.324L670.607,452.436L671.43,454.634L673.578,457.49L673.648,457.784L673.174,460.514L673.229,460.92L674.29,460.108L674.778,458.232L674.889,458.148L676.368,459.548L677.582,459.156L677.638,459.366L677.652,459.436L677.819,459.464L679.144,461.172L679.116,461.564L679.423,461.886L678.796,462.67L680.512,463.93L682.925,463.65L681.376,464.784L682.018,467.373L681.488,469.011L683.832,467.555L684.222,469.529L684.543,469.934L684.836,471.544L685.241,471.866L685.785,473.657L683.357,475.63L683.525,476.736L682.116,475.98L683.134,473.783L681.209,472.37L678.056,473.531L676.773,474.427L677.052,479.115L677.484,482.053L677.205,482.277L676.815,482.599L676.591,482.781L672.853,482.179L671.472,482.193L670.202,482.641L669.365,482.907L667.482,483.396L666.324,484.656L666.156,485.089L665.766,488.139L664.134,487.132L663.659,486.824L661.385,485.089L658.358,481.312L657.563,480.234L655.345,477.841L652.052,475.714L649.388,474.945L649.095,474.889L646.946,475.518L642.664,478.317L639.999,479.283L637.711,479.661L636.414,479.842L634.028,480.262L633.191,480.626L628.685,483.075L627.374,483.704L626.258,484.222L624.821,484.824L621.514,485.481L620.622,485.509L618.278,485.481L614.93,484.586L611.944,484.236L607.759,484.754L607.508,484.838L606.824,485.005L606.364,485.103L605.96,485.187L604.244,485.453L602.849,485.705L598.175,486.53L593.237,486.572L592.762,486.502L589.54,485.635L588.466,484.977L587.628,484.446L584.741,482.557L583.053,481.074L582.216,480.262L577.877,476.036L575.282,474.595L574.069,474.637L573.427,474.371L573.455,473.937L572.883,471.124L571.836,470.284L568.642,467.625L568.377,467.863L568.014,467.989L567.344,467.709L566.717,467.415L565.28,466.799L564.526,466.435L561.722,465.05L560.801,464.63L560.397,464.462L560.243,464.308L560.341,463.468L559.155,462.11L558.346,461.144L557.621,460.248L556.965,459.464L554.621,456.328L554.259,455.88L550.283,454.592L547.465,451.652L545.972,450.966L544.214,451.89L544.005,452.002L542.722,450.378L541.229,450.7L540.42,453.388L539.332,454.494L537.546,455.054L537.895,456.23L534.672,456.832L532.328,458.288L532.342,458.834L532.384,459.856L529.817,460.29L526.623,460.276L523.972,459.814L522.27,459.296L520.456,458.512L518.475,457.35L519.201,456.608L514.569,455.782L513.662,455.53L509.784,453.948L504.901,452.576L504.999,456.93L502.6,456.888L501.47,455.88L499.098,455.138L494.69,455.922L491.718,454.928L489.932,453.43L489.319,452.184L485.678,448.193L480.097,449.244L480.223,447.731L479.832,446.485L477.865,445.631L477.182,445.505L475.563,445.771L474.587,445.911L473.987,445.995L468.895,443.488L468.644,443.39L467.012,442.676ZM503.451,456.23L502.948,456.118L503.451,456.23Z"
          fill="#e0e0e0"
          stroke="#333333"
          stroke-width="1"
          stroke-linejoin="round"/>
  </g>
</svg>