<?xml version="1.0" encoding="UTF-8"?>
<svg xmlns="http://www.w3.org/2000/svg"
     viewBox="-20 59.564863961029914 840 480.8702720779402"
     width="840"
     height="480.8702720779402">
  <title>埼玉県</title>
  <desc>都道府県コード: 11</desc>
  <g id="11">
    <path d="M733.936,275.499L734.793,277.34L736.778,279.474L737.363,279.955L742.568,284.641L742.902,285.29L743.654,287.57L744.198,288.971L744.219,290.645L742.693,293.385L741.878,294.87L741.481,296.439L743.884,313.043L743.759,314.11L743.424,314.925L742.484,316.075L742.191,316.64L742.066,318.145L744.281,320.612L749.987,328.557L750.238,329.037L750.509,331.128L749.506,335.831L749.82,338.507L751.784,339.991L753.435,340.513L754.627,341.182L755.086,341.704L755.881,343.711L756.131,344.526L756.027,348.748L757.887,354.035L760.353,358.59L761.231,360.262L763.739,364.775L766.477,367.575L773.729,372.045L776.697,375.576L781.295,386.208L782.695,387.963L783.238,388.652L783.949,389.654L784.618,390.949L786.457,395.001L788.422,397.298L792.183,403.416L795.089,410.933L796.301,418.303L797.764,421.435L800,428.594L798.098,433.583L797.179,437.924L795.193,440.595L793.061,445.333L792.936,451.676L792.037,456.788L792.288,458.353L791.891,463.068L793.835,465.363L793.876,468.784L793.542,470.724L792.267,475.647L793.605,481.382L792.058,484.803L792.142,487.243L793.605,490.017L795.59,496.168L791.18,495.125L790.658,495.292L788.401,496.314L784.451,497.482L783.824,497.419L782.632,496.981L781.838,496.022L780.48,493.833L780.375,492.957L780.626,491.831L781.775,489.829L782.862,488.932L783.594,488.348L784.012,487.514L783.803,486.179L783.406,485.575L782.486,484.469L781.337,484.115L780.501,484.052L778.724,484.344L778.034,484.615L777.491,484.949L776.55,485.47L775.735,485.992L775.108,486.179L774.231,486.012L773.917,485.95L772.538,485.825L772.371,485.929L771.827,487.18L771.535,487.931L770.49,489.37L769.194,489.287L767.898,488.369L767.376,487.889L765.578,486.221L765.118,485.783L763.342,483.906L762.945,483.406L762.318,482.634L761.67,482.029L761.252,481.841L760.667,481.716L759.622,481.424L758.054,481.195L757.511,481.341L757.114,481.737L756.779,482.279L756.34,482.988L756.006,483.301L755.463,483.989L755.086,484.657L754.689,485.262L753.226,486.325L752.161,486.701L751.011,487.013L750.008,487.368L749.214,486.68L748.921,486.054L747.165,485.011L746.747,484.553L745.995,483.426L745.828,483.009L745.765,482.008L745.849,481.695L746.141,481.007L746.058,480.069L746.141,479.213L746.288,478.233L746.434,477.274L747.312,475.459L747.897,474.061L748.566,473.477L749.193,472.726L749.088,471.642L748.419,470.348L748.21,470.119L747.061,469.514L746.497,469.744L745.995,471.079L746.664,472.372L745.702,472.08L744.992,472.685L745.076,472.101L744.992,472.101L744.678,472.393L744.532,473.206L743.884,473.665L742.756,474.437L740.101,475.021L739.474,474.979L738.931,474.958L737.552,474.771L735.65,474.562L734.96,474.625L733.372,475.188L732.849,475.834L732.264,476.398L730.258,477.044L728.607,477.503L726.935,477.357L725.89,476.961L725.576,476.836L724.343,476.314L723.883,476.147L721.96,476.126L721.668,476.126L721.124,475.897L720.686,475.897L720.017,475.939L719.432,475.626L718.491,475.021L718.01,474.437L717.927,474.291L717.3,473.019L716.38,471.788L714.792,469.681L712.472,467.345L709.734,467.365L709.023,468.221L708.856,469.264L706.913,470.787L705.408,471.642L704.467,471.871L703.631,471.85L702.586,471.308L702.545,471.412L702.356,472.58L702.043,473.081L701.416,473.185L700.852,472.789L700.099,472.789L699.786,472.956L699.368,473.895L699.117,474.145L699.012,474.708L699.451,475.313L699.263,476.335L699.786,476.794L701.102,477.983L701.897,478.817L702.482,479.401L702.712,479.943L703.046,480.402L705.429,482.738L705.951,483.614L705.533,486.555L704.969,487.285L702.774,490.434L702.816,491.017L702.858,491.143L702.879,491.497L702.398,492.164L702.461,492.498L702.189,492.727L701.959,492.686L701.479,492.665L701.165,493.061L699.263,493.332L698.156,493.311L698.051,493.478L697.508,493.061L696.651,492.769L696.003,495.73L695.501,496.106L694.603,496.669L693.85,497.044L692.805,497.419L690.778,498.274L690.632,498.024L691.05,493.582L691.112,492.31L687.957,490.121L687.016,490.371L686.619,490.538L685.386,491.247L684.613,491.622L681.624,492.415L681.143,492.144L680.746,491.497L680.516,490.726L680.14,489.558L677.507,488.598L675.981,488.557L673.578,488.578L671.738,488.536L671.362,488.494L670.087,488.056L668.708,487.326L665.719,484.845L664.946,484.156L663.608,483.155L662.584,482.446L662.041,482.133L661.017,481.674L660.557,481.528L659.596,481.299L658.843,481.195L657.903,481.132L657.38,481.153L656.168,481.341L653.639,482.238L651.403,482.759L647.557,482.55L644.819,481.654L643.21,481.487L642.291,481.445L640.556,481.487L639.678,481.445L636.752,481.445L635.791,481.508L633.784,481.674L633.032,482.092L631.59,482.988L630.336,483.823L629.249,483.698L628.622,483.51L627.264,483.343L626.511,483.385L625.362,483.572L625.174,483.781L624.944,485.011L624.526,487.264L624.4,487.785L623.502,488.619L623.397,489.161L622.373,489.725L621.328,489.683L620.91,489.871L620.618,490.434L620.492,490.621L619.405,491.247L619.238,492.748L619.196,493.207L618.298,493.999L616.626,494.583L616.542,495.855L615.246,496.752L615.142,497.002L615.037,497.127L614.369,497.774L614.515,499.317L614.306,499.963L614.41,500.839L614.306,502.09L614.369,503.424L614.87,503.695L615.1,504.258L614.87,504.863L614.703,504.654L613.971,506.26L613.762,507.01L613.428,508.678L613.344,509.345L610.962,509.387L610.69,509.429L610.021,509.512L609.541,508.303L609.332,506.948L609.457,506.468L609.415,506.385L608.245,506.03L607.869,506.03L607.367,506.301L607.158,506.343L606.259,506.406L605.883,507.052L605.57,506.468L605.465,505.863L604.734,506.28L603.584,507.698L603.354,507.573L603.104,507.594L603.041,507.302L602.79,507.365L602.351,506.656L602.142,505.968L600.972,506.572L600.449,506.656L599.99,506.03L599.404,506.239L597.377,507.281L596.666,507.469L596.311,506.802L596.499,506.406L596.144,506.114L596.374,505.634L596.813,504.967L597.774,504.237L598.422,503.82L599.216,503.362L599.927,503.257L600.345,503.278L600.826,502.59L600.554,502.507L599.446,502.215L598.819,502.111L596.416,501.61L595.81,501.423L595.81,501.214L595.872,500.734L595.81,500.401L595.977,499.817L595.58,499.775L594.347,499.609L593.866,499.609L593.761,499.984L593.636,500.776L592.925,500.63L592.152,500.359L591.483,500.109L590.25,499.859L589.916,500.589L589.268,501.86L588.913,502.361L587.993,502.423L587.094,502.736L587.115,503.32L586.927,503.591L586.948,504.383L586.885,504.446L585.757,504.633L585.652,504.717L585.757,505.78L585.088,505.822L584.858,505.384L584.858,505.843L583.688,505.989L583.165,506.906L582.977,507.323L582.476,507.948L581.744,508.324L580.595,508.24L580.532,508.845L580.615,509.387L579.947,509.637L579.278,509.7L579.32,510.221L578.797,510.346L578.149,510.575L577.71,510.408L578.191,511.513L578.296,511.701L577.501,512.556L576.289,512.722L576.101,512.514L575.516,512.702L575.516,513.41L575.307,513.41L574.429,513.494L574.178,513.056L573.363,512.681L572.966,513.348L572.214,514.619L572.318,515.12L570.855,515.703L569.894,515.453L569.455,515.391L568.306,516.079L568.285,516.579L567.846,517.454L567.595,518.643L565.589,518.392L565.421,518.809L564.962,519.059L564.753,518.955L564.188,519.122L564.251,519.706L563.331,520.164L562.684,520.435L562.14,520.435L562.307,519.935L561.68,519.226L561.053,519.414L560.573,519.393L560.51,519.122L560.489,518.497L560.698,517.704L561.053,516.912L562.286,512.764L562.266,512.055L562.203,511.805L562.286,510.971L562.621,509.929L562.454,509.47L562.224,508.407L562.161,507.114L562.37,506.406L562.767,503.445L561.91,503.32L560.803,503.779L560.238,504.008L559.381,504.633L557.187,505.697L556.184,506.155L555.201,506.531L554.533,506.739L553.947,506.864L552.422,507.302L550.959,508.115L550.603,508.115L549.663,508.282L548.597,508.198L545.441,508.678L544.417,509.074L543.665,509.449L542.473,510.179L541.679,510.492L542.139,509.908L542.264,509.387L543.539,507.823L544.104,507.156L544.877,506.301L545.149,506.009L545.922,505.175L546.737,505.238L547.51,505.03L548.137,505.071L548.305,505.405L549.391,504.487L549.475,503.987L549.475,503.904L551.251,504.07L552.255,503.925L554.972,502.027L555.013,501.735L555.536,501.485L555.828,501.151L555.808,501.047L557.333,499.838L558.524,499.15L558.942,498.941L559.486,498.608L560.05,496.106L559.883,491.497L559.005,490.997L558.378,490.663L558.399,490.6L557.981,490.58L558.023,490.371L557.668,490.225L556.623,489.787L555.787,489.203L556.309,488.515L556.581,488.327L557.375,487.055L557.647,486.805L558.922,485.825L559.799,485.137L560.238,484.761L560.719,484.553L560.865,483.781L561.346,483.03L561.806,481.862L562.245,480.486L561.973,478.796L561.032,478.066L560.803,477.399L559.716,476.126L558.629,475.793L558.023,476.418L556.581,477.545L556.142,477.92L555.369,478.588L553.509,481.362L553.091,482.238L552.443,483.26L551.439,484.991L550.269,486.722L549.517,487.472L548.806,487.931L548.033,488.077L547.615,488.661L546.633,488.64L546.11,488.744L546.026,488.953L546.528,489.725L546.528,489.891L545.295,491.08L544.814,491.435L543.435,491.393L543.017,491.33L542.223,491.08L540.927,491.289L539.84,491.518L539.673,492.06L539.443,493.082L539.025,493.999L537.625,494.375L537.249,494.437L536.266,494.583L535.932,494.98L535.911,495.313L535.577,495.772L534.239,496.126L533.758,495.939L532.003,496.335L531.438,496.439L530.832,496.669L529.975,496.794L529.725,497.232L528.972,498.274L528.575,499.379L528.22,499.358L528.115,499.108L527.927,497.69L527.927,497.44L527.865,497.127L527.718,497.065L527.238,497.106L526.652,497.044L526.193,497.044L526.193,497.482L526.13,497.878L526.276,498.357L526.402,498.775L525.712,498.545L524.918,498.232L524.437,498.045L523.998,497.711L523.894,497.774L523.789,498.253L523.894,498.524L523.894,498.983L523.664,498.983L523.622,499.108L523.12,499.025L523.225,498.754L523.434,498.816L523.58,498.775L523.664,498.587L523.664,498.441L523.538,498.399L523.204,498.524L523.141,498.587L522.953,498.962L521.845,498.483L521.427,498.295L520.8,497.878L520.048,497.753L519.776,497.815L518.982,497.878L518.857,497.565L518.648,497.628L518.648,497.857L517.582,498.274L517.331,498.232L516.767,498.503L516.37,499.212L516.161,499.442L516.14,499.692L515.931,499.88L515.346,500.151L514.949,500.276L514.886,500.38L514.698,500.714L514.447,500.901L513.966,501.068L513.987,501.193L514.238,501.631L515.116,502.09L515.116,502.131L514.74,502.382L514.342,502.423L513.297,502.236L513.026,502.924L512.252,503.049L511.897,503.153L511.145,503.925L510.957,503.925L510.539,503.591L510.497,503.487L510.267,503.257L509.118,503.299L508.574,503.466L507.926,503.653L507.55,503.674L506.965,503.633L506.526,503.82L506.275,504.196L506.024,504.321L505.794,504.362L505.335,503.883L504.812,503.862L504.54,503.904L504.478,504.112L504.185,504.613L503.893,504.675L503.412,504.675L503.098,504.967L502.827,505.926L502.827,506.426L502.743,506.864L502.68,507.01L502.283,507.344L501.468,507.01L500.319,507.073L499.42,507.323L499.316,507.552L499.295,507.74L499.065,507.99L498.877,507.948L497.915,507.365L497.832,507.302L497.414,507.406L496.181,507.865L495.679,507.927L494.718,508.261L494.362,508.449L494.091,508.699L493.777,509.262L493.61,509.47L493.38,509.533L492.481,509.324L492.356,509.324L491.52,509.387L490.788,509.303L490.579,509.157L490.182,508.741L490.161,508.032L489.932,507.448L489.89,507.385L489.284,507.094L488.803,507.51L489.033,507.698L489.137,508.157L488.845,508.615L487.131,509.137L486.692,509.095L486.17,508.991L485.626,508.949L485.355,509.408L484.832,509.762L484.121,509.637L483.745,509.533L482.888,509.262L481.864,509.7L481.363,509.574L480.966,509.47L480.443,509.22L480.276,509.116L479.962,509.012L479.294,509.116L478.98,509.074L478.311,508.615L477.893,508.886L477.204,509.7L476.869,510.033L476.43,510.137L475.95,510.137L475.406,509.95L474.779,509.991L474.257,509.866L473.964,509.845L473.651,509.303L473.525,509.241L472.94,509.22L472.48,509.095L472.376,509.032L472.041,508.407L471.561,508.428L471.184,508.407L470.934,508.282L470.641,508.136L470.244,507.969L469.659,507.844L469.241,507.865L468.217,508.032L467.632,507.907L466.837,507.594L466.357,507.469L465.876,507.761L465.353,508.053L464.497,507.927L463.723,508.261L463.452,508.615L463.41,508.803L463.263,509.429L462.908,509.783L462.511,510.492L462.511,510.763L462.407,511.117L462.093,511.472L461.759,511.617L461.215,511.638L460.965,511.597L460.066,511.68L459.293,511.993L458.394,512.243L458.143,512.305L457.662,512.264L456.868,511.909L456.847,511.659L456.952,511.346L457.098,511.075L457.6,509.866L457.746,509.032L457.662,508.907L456.952,508.97L456.492,509.053L455.949,509.303L455.531,509.533L454.799,509.908L454.423,510.137L453.587,510.533L452.709,510.638L452.542,510.617L451.999,510.429L451.769,510.346L451.434,510.221L450.682,510.2L450.264,510.033L449.95,509.762L449.428,507.302L449.093,506.406L449.093,506.009L449.261,505.551L449.47,505.321L449.72,505.175L449.867,504.863L449.971,504.216L450.682,503.362L450.849,503.028L450.745,502.173L450.724,501.548L450.828,500.797L450.703,500.693L450.494,500.776L449.72,500.568L449.929,500.151L449.762,499.358L449.616,499.254L448.655,498.733L448.174,498.483L447.129,498.128L446.648,498.107L445.373,498.858L444.579,499.463L444.412,499.483L443.931,499.859L444.788,499.046L445.102,498.691L444.955,498.566L444.579,498.337L444.245,498.128L443.869,497.148L443.012,497.044L443.053,496.502L442.907,496.147L442.677,495.751L442.092,495.376L441.632,495.125L441.34,494.291L441.193,493.812L441.298,493.708L441.841,493.436L441.841,492.477L442.301,492.331L442.74,491.205L442.343,490.329L442.217,489.912L442.468,489.808L443.242,489.412L442.155,488.89L441.235,488.682L438.853,488.744L438.184,488.578L436.24,488.807L435.759,488.619L435.55,488.494L435.383,487.681L434.861,487.577L434.087,487.264L433.816,487.264L433.126,487.305L432.917,487.076L432.311,487.493L431.956,487.493L431.956,487.764L431.642,487.618L431.433,487.264L430.827,487.347L430.054,487.431L429.845,487.389L429.719,487.139L429.427,486.096L428.654,485.971L428.173,485.804L428.006,485.533L428.006,485.157L427.65,484.865L427.4,484.845L426.02,485.783L424.829,486.826L424.097,486.576L423.867,486.513L423.032,486.492L422.593,486.45L421.882,486.346L421.652,486.513L421.192,486.763L420.147,487.097L419.562,487.076L419.437,487.097L418.831,487.806L418.204,488.432L417.138,487.869L416.385,486.888L416.051,486.492L415.758,486.45L414.818,486.179L413.585,485.887L411.934,484.115L411.119,482.655L410.951,482.279L411.014,482.008L410.972,481.111L410.408,480.152L409.948,479.005L409.509,477.879L409.238,476.627L409.029,476.564L408.82,476.064L408.611,475.438L408.632,475.021L408.569,474.625L407.963,473.019L407.858,472.893L407.608,472.768L407.252,471.558L406.876,470.974L406.249,470.328L406.082,470.015L406.061,469.702L406.145,468.867L406.145,468.346L406.082,468.054L406.124,467.783L406.312,467.532L406.667,466.573L407.064,465.279L407.064,464.507L406.96,464.028L406.688,462.88L406.709,462.713L406.855,462.338L406.688,462.067L406.458,461.795L406.228,461.608L406.165,461.503L406.228,461.19L405.852,460.919L404.368,460.731L403.678,460.877L402.989,461.42L401.651,462.129L400.69,462.672L400.522,462.755L399.54,463.131L399.227,463.068L399.31,462.526L399.164,462.025L398.788,461.983L398.077,461.733L397.701,461.9L397.785,461.253L397.617,459.876L397.388,459.396L397.304,458.958L397.346,458.165L397.116,457.769L396.907,457.581L396.907,456.83L397.095,456.308L397.032,455.244L396.865,454.243L396.928,453.617L397.346,453.658L397.325,453.408L396.886,452.928L396.761,452.845L396.008,452.678L396.008,452.907L395.799,452.991L395.632,452.97L394.963,452.657L394.566,452.469L393.584,452.532L393.479,452.699L393.333,453.345L392.999,453.763L392.351,453.032L391.912,452.49L391.536,451.906L391.389,451.885L391.222,451.718L390.846,451.154L390.428,450.737L389.968,450.403L389.425,450.362L388.881,450.487L388.672,450.591L388.213,450.8L387.941,450.925L387.335,451.05L386.812,451.134L386.102,451.864L385.224,451.697L384.576,451.113L384.221,450.612L383.782,449.193L383.636,448.859L383.531,448.755L383.301,448.358L383.113,448.254L382.674,448.087L382.507,449.235L382.298,449.277L381.838,449.089L381.441,448.984L380.584,449.047L379.602,449.089L378.557,448.984L377.052,448.922L376.801,448.922L375.819,449.506L374.941,449.986L374.189,450.195L373.52,450.153L373.436,450.174L372.893,450.675L372.789,450.716L371.973,450.821L371.514,450.8L370.908,450.988L370.427,451.238L369.946,451.467L369.382,451.989L368.253,451.593L368.295,451.196L367.605,451.071L367.417,451.071L367.187,451.008L366.978,451.071L366.707,451.071L366.686,451.008L366.749,450.57L365.453,450.257L364.93,450.278L364.011,450.153L363.823,450.111L363.509,450.257L363.237,450.591L362.757,450.695L362.025,450.779L361.544,450.633L360.165,451.238L359.496,451.134L359.287,451.154L358.681,451.342L357.762,451.447L357.093,450.946L356.738,450.153L356.549,449.381L356.529,448.922L356.424,448.63L356.236,448.525L355.839,448.442L355.024,448.233L354.376,448.4L354.021,448.463L353.707,448.484L353.582,448.525L353.31,449.11L352.683,450.049L352.453,450.278L351.868,450.341L351.701,450.216L351.513,450.529L350.739,451.363L350.342,451.488L349.715,451.447L349.527,451.363L349.297,451.363L347.897,450.362L347.395,449.882L347.27,449.381L347.186,449.339L346.601,449.13L345.849,448.651L345.18,448.254L345.076,448.212L344.678,448.233L344.281,448.045L343.842,448.129L343.048,447.92L342.317,447.628L342.191,447.524L341.815,446.731L341.502,446.48L340.916,446.376L340.666,445.959L340.478,445.729L339.934,445.333L339.6,445.207L339.328,445.082L338.91,444.227L338.701,443.872L338.408,444.018L338.053,444.143L337.405,443.83L337.28,443.684L337.238,443.183L336.946,443.225L335.963,443.454L335.483,443.517L334.229,443.413L333.685,443.329L333.204,443.58L332.64,444.039L331.971,444.874L331.93,445.5L331.95,445.98L331.762,446.334L331.532,446.585L331.156,447.419L330.78,447.67L330.362,447.712L330.007,447.774L329.672,447.774L329.317,447.691L328.878,447.649L327.478,447.753L326.349,448.525L326.057,448.567L325.242,448.546L324.071,448.421L323.34,448.338L321.438,447.524L320.832,446.96L320.017,446.522L319.954,446.418L319.578,446.188L318.491,446.313L317.927,446.188L317.655,445.687L316.589,445.583L316.297,445.291L316.108,444.894L315.795,444.644L315.377,444.602L315.022,444.227L314.792,444.018L313.538,443.267L312.869,443.016L312.138,442.682L311.406,441.764L310.779,441.576L310.57,441.472L309.818,441.576L309.316,441.535L308.626,441.075L308.313,440.867L308.02,440.491L307.644,440.324L306.913,440.47L306.432,440.387L304.739,439.844L304.488,439.698L303.004,438.195L302.754,437.611L302.586,436.881L302.356,436.442L301.98,435.983L301.562,435.294L301.395,434.606L301.249,434.418L300.914,434.209L299.89,433.896L299.493,433.729L298.95,433.416L298.323,433.124L298.072,432.894L297.32,432.665L296.651,432.143L296.316,431.871L295.334,431.329L294.603,430.744L293.579,429.909L293.37,429.805L292.408,429.659L291.217,429.68L290.924,429.492L290.172,429.221L290.088,429.241L289.085,429.221L288.772,429.033L288.521,428.928L287.559,428.72L287.288,428.553L286.473,428.198L286.201,428.114L285.574,427.78L285.386,427.634L284.842,427.676L284.236,427.864L284.006,428.031L282.815,428.386L282.021,428.114L281.77,427.843L281.248,427.572L280.077,427.446L279.597,427.488L278.907,427.864L278.74,427.864L278.238,427.926L277.82,427.989L277.402,427.968L276.942,427.843L275.312,428.26L274.748,428.448L274.33,428.49L273.975,428.427L273.64,428.323L273.222,428.26L272.7,428.26L271.843,428.302L271.09,427.592L270.714,427.655L270.317,427.78L269.46,428.114L269.168,428.135L268.708,427.822L268.227,427.551L267.872,427.321L267.308,427.363L266.43,427.321L266.054,427.279L265.489,427.133L265.071,426.862L264.967,426.82L264.319,426.799L263.525,426.674L263.169,426.591L262.835,426.674L262.605,426.883L262.522,427.008L262.208,427.259L261.895,426.695L261.56,426.09L261.017,425.484L260.933,425.296L260.85,424.962L259.909,424.691L258.906,424.357L258.279,424.232L257.506,424.169L256.544,424.336L255.583,424.42L254.601,423.439L253.451,422.499L253.075,422.186L252.26,421.706L251.863,421.414L250.588,420.892L250.128,420.453L249.815,420.015L249.606,419.702L249.438,419.639L248.811,419.597L248.205,419.41L247.62,419.305L246.596,419.284L245.948,419.451L244.464,420.349L243.336,421.769L243.001,422.123L242.562,422.437L241.789,422.457L241.225,422.437L241.12,422.395L240.869,422.228L239.741,421.873L238.863,421.602L238.612,421.414L237.943,421.497L237.609,421.435L236.585,420.975L235.791,420.808L234.976,420.286L234.432,419.827L234.056,419.744L233.889,419.556L233.617,418.825L233.45,418.428L233.22,417.781L233.074,417.572L232.739,417.489L232.196,417.468L231.465,417.552L230.838,417.385L230.294,417.197L228.81,416.904L228.413,416.863L227.326,415.902L226.971,415.276L226.804,414.817L226.49,414.378L226.386,414.336L226.01,414.274L225.696,413.94L225.445,413.439L224.777,412.52L224.38,412.353L223.627,411.81L223.23,411.33L223.021,410.892L222.728,410.662L222.31,410.453L222.039,410.37L221.516,410.328L220.785,409.785L220.513,409.618L220.388,409.451L219.844,408.49L219.238,407.781L218.716,407.488L218.256,407.3L217.796,407.029L217.42,406.674L215.957,405.797L214.724,405.275L211.547,402.79L211.192,402.539L210.878,402.164L210.502,401.516L210.21,401.078L209.917,401.015L208.37,401.224L207.764,401.015L207.472,400.744L206.928,400.263L206.448,400.138L205.988,400.201L205.173,400.263L204.023,400.347L203.208,400.284L202.289,400.681L201.16,401.245L200.47,401.83L199.927,402.665L198.777,403.876L198.527,404.753L198.506,405.421L198.568,407.279L197.649,408.992L197.252,409.451L196.729,409.722L194.848,411.956L194.577,412.123L193.385,411.915L192.507,411.935L191.086,411.831L190.752,412.103L190.606,412.499L190.417,412.729L189.54,412.875L189.31,413.042L188.244,413.668L187.638,413.898L187.241,414.044L186.488,414.483L186.049,414.483L185.443,414.336L185.213,414.316L184.336,414.483L183.98,414.357L183.479,413.94L182.935,413.167L182.225,412.666L181.598,412.353L180.804,411.727L179.884,411.288L179.32,411.601L178.609,412.04L178.317,412.311L177.439,412.917L176.833,413.105L176.624,413.23L176.289,413.48L175.913,413.689L174.868,413.773L174.157,413.794L173.301,413.71L172.423,413.647L172.026,414.107L171.754,414.671L171.65,415.318L171.67,415.735L170.646,417.28L169.831,417.593L169.058,417.969L168.034,418.032L167.386,418.094L167.031,418.178L166.216,418.47L165.944,418.595L164.439,419.201L163.77,419.451L163.373,420.286L163.269,420.537L162.579,421.247L162.119,421.769L161.931,421.956L161.158,422.938L160.364,424.169L159.904,424.566L159.214,424.733L158.796,424.754L158.127,424.795L157.229,425.317L157.166,425.568L157.647,426.758L157.709,427.175L158.086,428.427L157.563,429.116L156.978,429.763L156.79,430.327L156.581,430.765L156.309,431.329L155.891,431.537L155.661,432.101L155.766,432.393L155.724,432.811L155.808,433.061L155.849,433.562L155.724,434.146L155.766,434.585L155.828,434.731L156.017,435.127L156.205,435.378L156.309,435.879L156.33,436.359L155.661,437.173L155.369,437.319L150.415,439.51L148.179,439.552L148.012,439.948L147.385,440.47L147.009,440.575L144.522,441.263L141.993,439.782L134.845,437.924L132.839,439.802L128.262,442.056L127.781,442.515L125.837,443.35L125.607,443.496L122.995,448.004L121.407,448.797L117.101,442.745L112.043,442.348L109.243,438.884L108.177,436.338L104.729,433.792L103.955,433.374L103.224,432.685L102.43,432.873L101.949,432.978L101.489,433.124L98.96,433.896L98.877,433.583L98.166,433.04L98.062,432.79L97.727,431.851L97.894,431.308L97.873,430.556L97.56,428.219L90.036,425.923L88.28,427.509L87.528,427.968L85.229,428.448L84.895,428.594L82.638,430.16L80.067,429.346L78.646,427.279L75.95,427.384L75.615,427.572L72.501,427.739L68.614,430.097L66.963,428.01L65.124,423.731L63.389,424.044L57.412,421.977L54.068,419.222L53.942,415.631L54.611,413.835L53.775,412.123L53.482,406.465L52.124,404.44L47.484,401.37L45.561,398.906L39.835,398.405L36.345,399.574L31.642,397.068L31.287,396.776L28.215,396.442L25.205,397.486L18.538,393.978L14.839,395.314L14.316,394.896L14.17,394.708L13.815,394.249L12.456,392.453L12.226,392.098L11.683,391.158L11.599,390.74L12.77,386.668L11.077,384.015L12.54,383.597L13,383.305L13.71,382.783L13.961,382.574L14.881,379.566L16.469,378.124L17.451,375.534L17.786,375.075L18.517,371.189L17.368,369.079L18.58,366.321L15.529,363.103L15.048,362.874L13.167,360.701L13.313,360.032L12.77,358.172L12.665,357.754L11.307,354.641L11.119,353.721L8.569,350.545L8.151,350.587L6.312,349.709L5.267,346.553L3.01,345.383L2.299,344.798L1.567,343.669L1.108,342.938L0.334,341.077L0.209,340.659L0,338.151L0.376,337.524L0.209,332.905L0.564,332.487L0.731,330.124L1.045,328.975L0.606,327.888L0.836,327.679L1.965,326.612L2.027,324.354L3.469,321.595L7.503,320.299L9.697,320.278L10.847,319.107L11.014,318.459L13.71,317.141L17.242,312.249L16.741,310.429L19.29,309.091L19.646,308.506L21.61,307.293L22.279,304.302L25.268,301.772L24.829,299.848L25.602,296.941L25.957,296.271L27.671,293.74L27.818,293.008L27.692,291.126L27.797,290.31L28.779,286.963L31.412,286.817L31.851,286.733L35.655,284.976L36.136,284.453L38.372,283.512L38.811,283.428L41.256,283.386L43.576,284.788L46.502,285.206L46.92,286.587L47.212,287.152L49.532,287.946L50.327,288.156L51.288,290.31L54.381,290.666L54.757,290.603L57.621,289.829L57.809,289.662L60.714,288.177L60.923,287.905L63.89,287.34L65.103,288.156L65.395,288.177L68.927,287.674L70.014,286.252L73.4,285.478L73.692,285.269L75.594,285.143L76.138,285.039L78.061,284.62L78.395,284.62L78.98,282.089L79.043,281.315L79.126,280.855L80.861,278.428L81.133,275.98L83.306,274.181L83.662,274.39L85.689,273.093L88.28,269.243L90.851,260.015L91.186,259.848L92.962,258.948L93.255,258.571L98.166,258.069L98.521,257.859L101.05,255.955L102.68,251.623L105.084,250.2L107.801,249.614L111.145,247.248L111.814,246.955L117.812,245.637L118.439,245.155L121.051,242.811L123.288,242.853L125.315,240.236L128.408,239.42L128.951,239.462L131.982,239.064L133.737,240.131L137.729,237.661L138.335,238.08L138.628,238.247L143.121,240.027L144.145,241.346L147.949,242.35L148.388,241.953L152.234,238.478L157.208,236.824L157.563,235.966L160.51,233.139L160.635,231.59L160.844,230.753L161.45,229.894L161.931,229.517L164.815,227.696L164.941,227.089L165.714,224.074L164.627,222.524L165.317,217.394L166.299,214.839L166.09,212.389L169.998,210.86L171.817,212.201L173.781,212.138L176.582,215.049L178.337,218.211L178.839,218.65L179.153,218.881L181.911,218.253L184.44,219.488L186.676,217.687L187.721,215.488L187.847,215.028L187.93,214.693L188.077,214.274L189.372,212.075L193.281,211.384L194.702,211.635L198.589,207.823L196.583,205.687L197.335,204.619L201.285,205.75L204.567,204.074L205.319,205.541L208.245,206.357L210.042,204.2L211.965,205.143L211.38,207.007L213.261,207.488L215.476,209.646L216.354,210.002L218.841,210.63L222.708,208.515L223.146,206.462L221.663,202.839L221.725,199.487L222.519,194.418L222.728,192.826L223.669,192.177L224.672,191.988L227.055,188.762L232.259,188.657L233.074,188.72L233.659,188.825L234.077,188.867L235.895,188.343L235.394,186.227L236.982,183.42L236.167,180.947L235.853,180.361L233.575,178.894L233.826,177.951L234.035,177.742L234.056,177.071L233.826,176.82L232.719,173.656L232.969,171.288L232.008,165.357L232.321,163.513L232.614,163.031L236.501,160.935L237.525,157.959L236.669,152.677L238.027,150.203L243.586,144.69L246.742,140.266L247.996,138.401L249.794,134.92L250.065,133.767L253.953,125.379L258.739,117.683L259.512,116.362L261.038,113.572L262.145,111.748L266.388,105.203L268.896,100.295L268.018,99.959L267.496,99.35L266.534,98.071L268.771,95.553L269.857,94.085L273.327,91.735L279.534,83.573L281.185,79.565L281.812,79.796L282.063,80.866L285.365,83.657L293.934,83.531L295.376,83.531L295.606,83.552L298.009,83.867L301.082,84.16L304.363,83.258L305.805,84.727L306.474,85.272L308.125,86.72L309.17,87.455L316.861,92.196L319.306,93.266L319.682,93.413L327.311,97.169L328.209,97.043L329.672,96.833L332.097,96.434L333.121,96.623L336.068,97.903L336.653,99.77L336.465,102.036L344.825,100.462L350.28,106.441L351.199,108.308L353.874,110.552L358.326,112.041L364.93,110.867L368.483,111.978L370.176,113.488L373.771,113.551L373.625,107.028L380.939,109.084L386.75,111.454L388.108,111.831L395.047,113.069L393.96,114.181L396.928,115.921L399.645,117.096L402.194,117.872L406.165,118.564L410.951,118.585L414.797,117.935L414.734,116.404L414.713,115.586L418.225,113.404L423.052,112.503L422.53,110.741L425.205,109.902L426.835,108.245L428.047,104.217L430.284,103.735L432.206,106.168L432.52,106L435.153,104.616L437.39,105.644L441.611,110.049L447.568,111.978L448.111,112.649L451.622,117.347L452.605,118.522L453.691,119.864L454.904,121.311L456.68,123.345L456.534,124.604L456.764,124.834L457.37,125.086L458.749,125.715L462.95,127.791L464.079,128.336L466.231,129.259L467.172,129.699L468.175,130.119L468.718,129.93L469.115,129.573L473.901,133.557L475.469,134.815L476.326,139.03L476.284,139.679L477.245,140.078L479.064,140.015L482.951,142.174L489.451,148.505L490.705,149.721L493.234,151.943L497.56,154.773L498.814,155.569L500.423,156.554L505.251,157.854L505.962,157.959L513.36,157.896L520.362,156.659L522.452,156.282L525.022,155.884L525.628,155.758L526.318,155.611L527.342,155.36L527.718,155.234L533.988,154.458L538.461,154.982L543.477,156.324L546.988,156.366L548.325,156.324L553.279,155.339L555.431,154.437L557.103,153.662L559.068,152.719L565.818,149.05L567.072,148.505L570.646,147.876L572.59,147.604L576.018,147.038L580.009,145.591L586.426,141.399L589.644,140.455L590.083,140.539L594.075,141.692L599.007,144.879L602.33,148.463L603.522,150.077L608.057,155.737L611.464,158.336L612.174,158.797L614.619,160.306L615.205,155.737L615.455,155.087L617.19,153.201L620.011,152.467L621.265,152.069L623.167,151.398L625.236,151.377L630.838,152.278L631.172,152.006L631.757,151.524L632.175,151.188L631.527,146.786L631.109,139.763L633.032,138.422L637.755,136.681L640.64,138.799L639.114,142.09L641.225,143.223L644.36,143.118L645.196,142.447L646.429,141.42L648.289,142.195L648.707,145.612L649.919,147.876L653.075,148.401L655.207,145.906L656.043,146.178L657.046,149.365L656.9,150.685L656.92,151.754L657.15,152.551L661.059,156.24L660.745,158.902L660.411,159.803L659.031,169.737L659.763,174.242L660.787,176.338L661.832,183.231L664.194,189.244L666.493,193.874L667.287,194.984L671.989,202.504L672.407,204.996L673.619,209.038L675.124,211.614L677.068,213.876L680.015,217.331L682.92,222.022L683.296,224.723L683.379,226.23L683.547,229.915L683.693,232.03L684.09,236.133L684.215,240.655L686.556,243.69L689.942,243.69L692.345,243.271L696.63,243.209L703.673,247.206L704.655,247.583L709.421,248.755L712.89,247.834L714.018,245.49L713.872,244.611L713.935,242.455L716.464,240.131L718.324,244.967L718.993,248.065L718.951,249.007L719.16,250.304L720.393,252.774L720.874,257.253L721.751,258.529L724.134,261.689L724.656,262.652L726.914,267.632L729.296,269.578L730.676,271.838ZM371.451,112.503L370.699,112.335L371.451,112.503Z"
          fill="#e0e0e0"
          stroke="#333333"
          stroke-width="1"
          stroke-linejoin="round"/>
  </g>
</svg>