<?xml version="1.0" encoding="UTF-8"?>
<svg xmlns="http://www.w3.org/2000/svg"
     viewBox="149.8765348222296 -20.00000000000182 500.24693035553355 640.0000000000018"
     width="500.24693035553355"
     height="640.0000000000018">
  <title>千葉県</title>
  <desc>都道府県コード: 12</desc>
  <g id="12">
    <path d="M309.174,258.121L317.196,258.534L318.065,263.398L319.829,263.912L320.748,266.982L310.357,267.483L308.531,258.083ZM224.865,231.976L226.603,230.91L228.19,229.731L228.391,229.054L228.92,227.297L229.21,226.52L229.563,225.428L229.739,223.734L229.663,221.363L229.752,218.352L229.235,216.746L229.008,215.93L229.046,214.889L229.286,213.445L229.374,213.031L229.991,212.316L230.457,212.04L231.175,211.663L232.271,211.324L234.664,210.948L236.414,210.76L236.931,210.647L237.774,210.132L238.392,209.567L239.185,208.538L240.923,206.179L242.548,203.028L242.447,202.413L242.107,201.472L241.767,200.568L241.591,199.689L241.452,198.333L241.087,197.856L240.873,197.58L239.575,196.563L238.631,195.885L238.177,195.408L237.623,194.454L236.817,192.897L236.49,192.545L235.621,191.754L234.336,190.612L234.059,190.197L233.744,188.967L233.719,188.427L233.769,187.711L234.046,186.405L235.029,184.258L235.243,183.617L235.268,182.324L234.298,179.648L233.53,178.995L231.993,178.317L231.389,177.714L230.998,177.212L229.978,175.742L228.228,173.355L228.064,173.041L227.85,171.358L227.082,169.976L226.553,168.594L226.553,168.117L226.704,167.489L226.88,166.961L227.925,165.591L230.923,164.071L231.641,163.644L232.208,163.204L232.535,162.664L232.636,162.4L232.674,162.073L232.585,161.533L232.359,160.98L231.162,157.273L230.281,155.602L230.23,154.131L231.162,152.07L230.356,148.613L231.124,145.647L231.326,144.478L231.301,142.416L230.129,141.033L230.369,138.192L230.218,137.249L230.759,134.168L230.835,130.345L232.119,127.491L233.316,125.881L233.87,123.265L235.016,120.259L233.669,115.944L232.787,114.057L232.056,109.616L230.306,105.086L228.039,101.399L226.855,100.014L225.746,97.573L225.343,96.792L224.915,96.188L224.588,95.773L223.744,94.716L220.973,88.308L219.185,86.181L214.814,83.487L213.164,81.8L211.653,79.08L211.124,78.072L209.638,75.327L208.517,72.141L208.58,69.597L208.429,69.106L207.95,67.897L207.673,67.582L206.955,67.179L205.96,66.864L204.776,65.97L204.587,64.357L205.192,61.523L205.028,60.263L204.877,59.973L201.439,55.186L200.104,53.699L200.179,52.792L200.356,52.452L200.922,51.759L201.124,51.267L201.199,50.625L199.751,40.618L199.99,39.673L200.482,38.778L201.401,37.127L201.388,36.119L201.061,35.274L200.608,33.9L200.406,33.509L197.27,30.685L196.917,30.395L195.721,29.109L195.204,28L193.24,25.793L192.408,24.432L190.973,23.259L189.612,20.258L189.298,19.678L187.862,17.773L187.333,17.004L187.043,14.305L186.3,12.817L186.174,12.035L186.199,11.467L185.796,9.6L184.675,6.686L184.763,3.835L185.381,2.788L187.648,1.274L188.957,0L193.29,3.886L194.335,5.223L194.801,6.094L195.859,8.654L196.615,12.565L197.937,17.597L199.864,20.913L203.794,24.923L207.661,29.475L208.92,30.988L211.086,33.295L213.53,35.249L217.673,37.656L218.593,38.854L221.175,42.055L223.58,45.181L224.109,45.735L225.558,47.273L226.099,48.558L226.225,49.201L227.711,56.509L228.454,57.819L232.875,62.165L234.626,63.488L238.983,65.692L239.575,66.184L241.654,67.091L244.714,66.99L247.989,67.519L249.79,69.307L250.306,71.26L249.236,73.552L248.568,74.307L247.712,76.901L249.5,80.843L249.991,81.485L252.095,82.819L255.772,84.229L256.2,84.62L261.427,88.938L264.097,89.819L266.591,91.204L268.505,93.608L269.311,94.552L272.636,97.17L274.11,97.699L276.075,97.636L279.022,96.956L280.798,96.767L283.09,97.296L284.652,98.366L285.584,99.763L288.052,102.015L291.214,103.916L292.7,105.275L294.715,106.344L297.989,106.973L300.219,108.307L302.448,111.893L305.584,114.019L307.612,113.05L308.569,111.931L310.924,110.383L313.078,110.396L317.108,111.968L319.955,113.881L321.592,114.661L324.804,115.504L326.831,116.724L327.184,117.152L328.33,120.133L329.237,121.932L331.076,124.346L332.7,126.283L334.841,129.49L336.567,130.66L339.01,130.999L343.481,129.616L347.587,127.654L351.126,126.472L353.91,124.359L356.189,122.787L358.759,121.68L361.542,121.315L362.827,121.529L367.814,124.661L369.288,125.227L371.353,125.353L373.746,124.925L377.903,121.831L379.729,120.372L383.192,117.692L386.391,116.007L388.306,115.315L389.465,115.277L390.006,115.378L391.455,115.868L392.449,116.409L394.666,117.768L397.084,119.001L400.472,120.095L404.024,120.171L406.455,119.315L409.616,117.453L411.291,116.145L414.1,113L416.732,110.723L417.337,109.792L418.634,106.357L420.208,104.507L422.097,103.047L426.191,101.575L428.307,101.021L430.624,100.052L432.337,99.234L436.984,97.661L438.407,97.573L440.763,97.699L444.944,99.133L448.256,98.466L451.745,96.453L452.224,96.239L456.304,95.144L457.325,94.804L458.093,93.684L458.71,92.777L460.99,89.202L462.262,89.555L464.655,90.99L466.519,92.45L468.471,94.804L470.196,96.213L471.947,97.485L476.884,99.07L479.365,99.473L477.804,98.038L476.469,96.415L476.217,96.075L474.819,95.207L474.479,94.829L473.761,91.657L473.471,91.078L472.942,89.29L473.635,86.609L474.416,86.345L476.179,86.999L477.111,85.35L478.093,80.087L479.794,76.775L481.922,73.778L482.778,72.897L489.139,78.349L491.003,80.994L493.371,82.933L498.774,85.866L501.444,86.898L503.837,88.233L508.094,91.33L507.666,91.682L509.202,92.362L511.167,94.086L512.565,96.742L512.766,97.724L513.875,97.082L514.542,98.227L513.698,98.643L514.567,99.448L516.557,100.052L518.321,100.732L519.895,102.745L522.023,104.419L524.177,107.892L525.462,111.641L526.658,114.145L530.248,119.567L531.444,122.862L533.019,123.378L535.437,124.145L545.701,125.743L549.543,126.711L552.666,127.818L555.563,129.415L560.525,133.011L561.999,134.219L564.631,137.639L566.495,141.423L568.397,147.947L569.833,151.982L571.08,154.031L575.198,158.731L576.508,160.025L580.223,162.84L586.621,167.187L595.11,173.142L600.287,177.526L606.118,181.595L608.801,182.625L616.194,182.751L619.053,182.261L620.665,181.03L620.98,180.013L623.36,180.729L623.536,180.151L626.471,181.721L627.277,183.266L629.128,182.374L630.123,183.78L629.582,184.157L628.776,182.688L627.365,183.429L628.6,185.689L627.416,187.184L627.277,188.59L627.831,191.001L628.763,193.161L627.768,193.675L626.887,195.044L626.698,197.304L628.209,198.208L627.768,199.149L626.144,199.262L625.363,201.007L625.438,203.216L626.484,204.886L626.081,205.501L624.67,204.76L623.348,204.986L621.358,203.58L619.657,203.355L620.312,204.447L618.121,203.254L618.423,202.488L617.667,200.668L616.534,201.02L615.904,199.739L614.997,199.576L615.829,198.748L615.224,196.576L612.504,195.559L607.718,195.634L604.103,196.186L591.848,200.417L591.319,200.907L588.435,201.71L579.77,205.702L577.906,205.677L575.173,206.154L571.835,208.149L570.815,210.032L571.81,207.12L573.498,207.107L574.354,206.38L574.329,205.35L573.233,204.836L574.077,206.003L571.986,205.877L570.563,206.856L570.425,205.727L569.09,205.513L567.503,202.915L565.248,202.112L561.621,202.049L556.268,202.652L553.359,203.38L548.863,204.999L548.183,205.664L543.422,207.17L538.56,209.831L536.709,210.659L530.55,214.776L526.167,217.85L515.008,227.285L512.54,229.932L511.331,230.433L509.013,232.691L508.459,232.854L502.325,238.323L500.109,240.141L494.617,245.421L491.847,248.304L489.202,250.499L483.748,256.215L481.28,258.635L476.406,264.1L469.504,273.072L466.166,278.322L464.39,281.68L463.962,283.233L464.252,284.524L462.942,284.336L461.871,284.912L459.289,287.943L458.849,289.359L456.947,291.1L454.667,294.819L450.297,302.834L449.957,302.997L445.712,312.261L442.891,319.233L439.919,328.081L438.559,332.748L438.08,335.526L436.934,339.917L436.052,344.608L435.309,347.484L434.365,355.713L434.327,359.002L434.755,360.69L434.138,362.253L434.163,367.879L434.352,369.254L434.39,374.553L435.108,380.665L435.649,384.026L436.972,386.738L438.936,386.8L440.75,389.862L442.513,394.072L443.067,394.534L443.672,397.207L443.571,399.381L442.501,400.667L440.196,406.088L439.566,408.236L439.113,411.221L438.458,412.707L437.69,416.79L437.815,420.86L438.546,420.91L438.143,422.395L440.07,423.531L438.559,423.544L440.523,426.29L439.591,427.002L439.239,429.261L439.667,429.81L439.667,432.93L437.488,435.589L437.929,437.211L437.551,438.609L436.72,439.407L436.695,441.017L435.763,442.776L435.662,444.423L434.516,445.983L434.793,449.551L435.133,450.2L433.357,451.56L431.48,455.09L431.329,457.472L430.649,457.373L430.019,458.732L428.835,459.318L428.08,460.965L426.191,461.725L424.616,461.763L423.168,460.615L421.354,460.079L418.634,460.216L417.034,461.114L415.195,464.806L413.017,466.203L411.455,467.674L410.082,470.268L410.233,472.724L408.797,474.27L409.843,473.771L409.037,475.155L408.218,475.417L407.639,480.99L406.064,481.114L404.603,482.336L403.382,481.688L401.241,483.657L401.744,480.99L402.21,480.292L402.173,477.487L401.656,476.863L398.848,475.479L396.329,475.592L395.434,476.602L395.132,478.272L394.439,477.773L393.092,478.733L393.243,481.9L394.225,481.85L393.092,482.76L392.135,482.286L391.165,483.969L390.749,483.508L389.716,484.468L388.444,483.77L388.709,484.792L387.135,485.714L386.505,484.929L387.701,483.857L386.631,482.386L385.157,482.112L384.162,483.258L381.832,484.081L382.323,483.084L381.039,481.9L380.019,482.049L378.066,484.168L377.701,483.396L376.379,483.583L375.825,486.013L376.517,486.287L374.817,488.506L372.789,488.369L370.459,490.886L371.819,491.784L371.379,492.519L369.741,493.366L367.701,492.968L367.084,493.292L364.691,492.631L362.096,493.74L359.854,493.915L358.57,494.974L357.902,496.183L356.643,495.834L356.769,494.949L354.829,492.818L355.786,489.603L354.451,489.441L354.187,487.958L353.217,487.372L351.681,487.758L350.736,488.693L350.245,490.612L350.623,490.974L349.313,492.02L348.192,491.709L347.713,490.226L345.61,490.949L344.691,489.815L343.141,489.129L340.408,489.341L339.376,490.537L337.7,490.263L336.894,492.469L334.779,492.22L333.557,491.485L329.955,490.114L324.867,492.918L321.781,495.248L319.564,497.466L318.141,499.721L318.494,503.409L319.136,504.169L317.939,505.278L316.415,505.403L315.924,506.101L316.667,507.321L315.307,508.218L315.735,510.735L317.083,511.532L316.365,512.603L315.685,512.317L315.471,513.575L313.808,512.79L311.932,514.06L310.156,513.737L309.766,514.285L310.169,515.854L308.443,516.116L307.234,516.825L308.582,517.461L309.262,519.117L307.612,519.615L306.277,519.341L306.163,520.873L305.105,521.272L305.962,521.832L305.055,522.778L304.778,522.181L302.977,521.869L302.65,521.359L299.325,521.035L297.801,521.135L295.055,522.803L290.823,524.559L286.793,527.336L285.407,528.656L283.229,532.08L281.516,533.026L278.997,533.2L275.269,536.014L272.888,538.454L268.304,544.055L266.289,547.39L264.991,550.576L264.034,554.123L263.946,556.711L262.85,559.013L262.095,559.548L262.498,561.799L261.641,562.048L259.815,565.308L259.475,566.626L259.588,568.89L260.407,570.097L260.306,572.584L261.112,574.525L261.2,575.992L261.125,576.738L260.697,578.977L259.085,580.631L259.173,581.576L257.838,581.911L258.153,582.446L256.591,583.777L257.195,584.398L255.873,585.617L254.336,585.99L253.404,587.892L251.691,587.954L252.145,589.72L251.981,591.038L248.127,592.728L246.364,593.872L244.525,594.021L245.419,595.003L242.863,594.73L242.875,595.861L241.868,596.632L240.684,596.706L239.097,596.097L238.291,596.383L237.976,597.589L236.742,597.527L235.293,597.601L232.472,596.967L230.822,597.763L230.835,599.441L229.953,600L229.903,598.148L225.419,598.173L223.53,598.397L221.993,596.818L220.772,596.433L216.175,597.241L214.751,597.875L213.53,597.763L212.774,598.558L210.255,597.626L209.575,598.073L208.681,596.607L205.708,595.053L204.134,594.568L204.373,593.35L203.454,592.803L204.084,590.689L204.776,590.192L204.058,588.974L205.205,587.519L205.456,586.413L204.499,583.777L203.303,582.098L200.771,579.623L197.207,577.248L191.69,574.537L186.602,572.746L186.086,572.137L182.61,572.92L181.438,572.05L181.69,571.403L177.988,570.594L177.685,569.375L175.922,568.268L175.305,566.838L176.287,565.644L175.355,563.056L175.935,562.944L176.199,561.165L177.66,561.6L177.811,562.956L179.071,562.26L180.443,562.894L183.441,561.501L184.889,562.745L186.993,561.986L187.459,563.442L188.706,563.865L191.174,563.392L193.026,563.379L194.474,562.621L198.038,561.638L199.323,560.792L200.545,561.09L201.149,560.381L201.565,561.289L203.114,560.63L204.134,559.187L203.794,558.826L205.368,556.114L205.167,555.479L203.58,554.994L204.713,554.546L206.061,554.907L209.625,554.832L211.111,554.446L211.729,555.678L211.25,557.233L213.555,557.296L214.386,557.694L215.923,556.412L217.258,554.235L218.013,549.518L217.862,544.951L216.414,540.458L215.356,538.902L213.504,537.582L212.069,538.005L211.023,537.508L210.368,536.101L209.713,536.151L208.215,534.532L205.318,534.121L204.6,534.956L202.006,533.81L200.482,532.391L198.555,531.843L199.474,529.826L200.759,529.079L201.88,531.258L203.693,531.831L206.489,530.063L207.635,527.585L207.018,524.534L205.494,524.534L205.494,522.48L204.487,519.665L203.769,518.507L202.194,517.996L203.29,516.116L203.026,514.571L205.28,513.6L205.406,513.164L209.877,511.357L210.268,509.701L211.3,509.339L211.464,506.686L210.998,504.693L209.562,501.64L207.774,500.706L206.149,501.005L205.545,500.133L203.882,500.432L205.494,498.949L205.469,497.852L204.587,498.064L204.776,496.17L205.746,495.348L204.461,494.052L205.57,493.155L205.859,491.522L206.854,491.435L207.245,490.151L206.842,489.416L208.605,488.88L208.807,486.312L210.116,486.287L209.21,481.999L207.61,479.357L206.451,478.334L206.552,476.664L205.645,475.28L201.136,473.659L202.182,470.929L201.943,470.093L203.013,469.432L203.202,467.861L201.099,466.701L201.854,466.203L200.746,464.956L201.665,464.744L201.061,463.546L201.136,460.615L202.043,456.1L203.139,454.94L203.089,454.179L204.071,452.371L205.658,451.759L206.401,449.663L208.454,449.065L209.562,447.892L212.232,447.044L213.782,444.898L216.401,444.161L218.593,442.864L220.734,442.028L221.867,440.93L222.421,437.323L222.988,436.038L222.207,430.147L220.432,424.368L217.573,419.973L213.404,415.678L214.122,414.842L213.668,412.307L214.764,413.331L215.331,412.544L215.923,409.847L214.26,407.112L211.439,404.514L209.436,403.203L204.94,400.817L202.295,399.743L201.892,400.705L200.759,400.193L201.099,399.356L198.806,398.232L192.27,396.32L187.95,395.321L188.592,394.959L195.721,394.447L199.701,393.622L199.524,392.935L200.658,392.623L199.902,394.072L202.32,393.41L201.993,391.211L201.011,389.662L203.001,388.4L202.472,389.262L202.95,390.011L204.222,388.525L210.482,384.726L209.361,382.814L206.011,383.339L203.618,379.565L209.638,372.304L213.416,378.34L216.502,376.441L216.943,377.153L216.552,378.353L218.479,377.441L217.925,377.028L215.306,372.629L211.149,369.679L210.192,368.154L212.95,364.141L219.562,367.991L224.626,369.804L227.862,371.141L231.364,371.041L232.485,373.191L234.021,372.579L232.434,370.191L231.389,369.166L229.941,366.366L231.918,365.328L232.711,366.853L234.815,365.753L235.835,367.704L237.888,366.628L236.691,364.328L234.512,365.466L233.908,364.303L239.311,361.478L240.797,361.865L240.029,360.452L241.175,361.19L242.17,360.99L242.22,357.251L240.722,357.414L240.268,356.163L237.598,357.301L235.772,352.149L236.465,351.574L235.192,351.149L235.772,349.836L235.293,348.535L234.588,348.585L233.832,345.908L234.5,342.469L233.618,342.369L233.643,340.317L234.966,340.104L236.099,338.328L236.213,336.214L238.555,335.438L239.89,334.137L243.782,332.348L242.863,332.035L244.676,331.585L244.412,332.335L251.037,330.446L252.309,330.371L254.639,330.896L255.596,323.939L260.306,322.637L261.125,325.503L261.075,326.992L257.586,327.756L256.868,325.278L256.024,325.516L257.485,330.121L258.127,329.132L262.321,327.918L262.447,328.907L265.08,327.756L264.324,326.129L263.039,321.674L262.17,320.635L261.541,317.756L268.14,314.652L272.322,323.338L271.049,324.852L271.528,325.966L272.75,325.378L273.178,324.039L274.652,323.351L273.317,322.324L271.012,317.105L273.279,315.816L275.143,319.045L276.78,317.894L274.639,314.802L278.09,312.386L280.521,314.014L281.931,316.329L284.135,318.645L284.992,317.982L283.808,317.143L282.876,315.754L283.48,314.89L282.07,312.674L282.674,311.798L280.483,310.208L280.344,309.457L281.679,307.529L283.493,308.656L281.919,307.191L284.324,303.698L285.949,304.812L286.213,304.424L288.833,306.239L290.13,304.436L285.672,301.269L289.173,296.184L292.561,298.439L294.035,296.285L290.748,293.98L295.748,286.678L298.846,288.845L300.042,287.117L299.186,285.927L297.322,284.599L300.307,280.302L301.592,280.765L303.934,277.796L305.433,277.182L310.735,282.118L314.413,284.448L316.428,282.92L315.257,281.392L314.35,282.081L311.97,280.74L313.682,279.425L312.599,277.959L311.164,279.199L310.232,277.733L311.579,276.706L311.226,276.192L312.889,274.939L315.194,274.676L321,277.232L321.554,278.109L322.335,276.994L322.108,275.754L319.829,274.676L312.423,271.606L312.347,269.952L314.703,269L326.856,268.411L326.907,267.496L322.511,267.596L320.912,266.97L320.748,266.08L321.73,265.954L320.937,261.856L321.176,262.006L320.282,257.456L322.171,256.366L323.305,256.341L322.864,255.589L323.154,253.959L322.196,253.796L321.076,255.075L319.086,256.24L318.229,255.513L319.589,252.304L318.443,250.925L317.587,251.639L318.393,252.617L316.667,255.275L311.516,254.974L312.612,253.044L313.506,253.583L314.627,252.868L314.249,251.577L315.924,249.897L315.219,249.044L313.292,250.373L309.098,245.32L307.045,247.051L310.572,251.301L309.463,253.846L303.695,246.875L302.461,246.148L297.977,241.107L295.105,238.787L293.795,236.893L287.083,230.208L285.294,227.987L283.342,226.507L283.405,225.98L280.987,223.546L278.682,222.869L277.372,224.086L270.357,225.064L269.966,222.254L273.291,221.79L274.211,222.756L276.629,222.417L276.188,219.481L269.702,220.384L269.185,216.583L272.196,216.168L272.007,214.838L268.871,213.747L270.155,210.32L269.916,209.153L270.533,207.384L269.148,206.882L268.657,207.974L269.601,208.563L268.442,211.513L265.344,210.622L264.991,211.35L262.712,211.099L260.671,211.4L258.921,212.592L257.107,207.76L256.641,208.764L258.442,213.634L256.452,216.432L253.833,211.826L249.739,215.667L248.354,214.512L247.686,215.039L248.354,215.754L246.616,217.172L246.981,217.586L253.165,215.83L254.21,217.536L251.477,218.465L247.157,219.067L243.316,222.041L242.258,224.625L249.815,230.672L250.885,232.052L238.958,240.053L236.792,237.972L237.674,236.617L237.006,235.902L235.621,237.319L234.915,236.441L233.82,237.558L234.638,237.746L237.686,240.718L237.22,241.596L233.908,243.953L233.316,243.565L232.245,239.853L231.867,239.602L230.167,241.345L223.757,239.502L223.706,235.764L224.739,233.657L223.303,232.967ZM258.619,215.754L259.588,214.336L259.374,212.981L260.583,212.492L262.233,212.83L263.745,212.027L266.377,212.567L266.629,214.361L263.77,213.772L263.946,215.114L266.805,215.692L267.107,217.398L264.198,216.821L258.644,216.419ZM238.253,358.264L240.193,359.089L239.853,359.74ZM223.832,319.058L226.389,321.136L226.112,321.473L223.605,319.333ZM317.461,511.644L318.632,513.189L317.171,512.827ZM171.766,395.483L171.136,396.22L169.877,395.846ZM200.658,495.485L200.595,496.631L199.751,495.535Z"
          fill="#e0e0e0"
          stroke="#333333"
          stroke-width="1"
          stroke-linejoin="round"/>
  </g>
</svg>