<?xml version="1.0" encoding="UTF-8"?>
<svg xmlns="http://www.w3.org/2000/svg"
     viewBox="0 0 600.000 325.991"
     width="600.000"
     height="325.991">
  <title>東京都</title>
  <desc>都道府県コード: 13</desc>
  <g id="-651.767">
    <path d="M494.487,277.650L492.749,276.432L490.376,274.719L488.486,273.641L486.265,272.435L485.238,271.776L483.436,270.710L482.637,270.710L481.812,270.748L479.185,270.710L478.906,270.862L477.752,271.179L476.115,270.913L475.328,270.583L474.973,270.443L474.326,270.380L473.895,270.279L472.512,270.900L472.182,271.433L470.926,273.146L470.367,273.235L470.012,273.121L468.883,272.042L468.515,271.801L467.589,271.509L465.127,271.991L464.023,272.778L462.767,274.060L462.412,274.427L461.676,274.998L460.407,275.442L457.920,276.102L455.269,276.394L454.127,276.394L453.568,276.255L452.680,275.887L451.856,275.366L451.399,274.948L451.107,274.580L450.777,273.996L450.219,272.410L450.193,272.169L450.181,271.230L450.270,270.608L450.358,270.393L450.561,270.088L450.841,269.809L451.335,269.302L451.538,269.035L452.439,268.134L453.289,267.474L453.518,267.132L453.721,266.586L453.759,266.396L453.810,265.774L453.784,265.647L453.530,265.115L452.947,264.366L452.515,263.998L451.932,263.529L451.031,263.021L450.473,262.780L449.572,262.552L448.925,262.501L447.960,262.412L446.958,262.310L446.577,262.247L446.057,262.107L445.588,261.854L444.687,261.143L444.205,260.801L442.961,260.154L441.769,259.595L441.058,259.164L440.639,258.872L439.180,257.527L438.254,256.005L438.153,255.814L437.670,254.469L436.985,252.211L436.465,250.701L435.958,249.255L435.133,246.679L435.006,245.842L434.625,244.344L433.483,241.845L433.280,241.604L432.354,240.436L431.415,239.536L431.060,239.371L430.172,239.333L428.243,239.612L428.155,239.371L427.393,239.447L426.835,239.421L426.670,239.371L426.188,239.130L425.718,238.838L424.247,237.912L423.358,237.214L422.965,236.440L422.356,235.577L421.557,235.108L421.189,234.803L417.167,231.644L416.926,231.314L416.507,230.832L416.139,230.362L415.911,230.172L415.467,230.045L415.124,229.982L414.794,229.804L414.426,229.512L413.843,228.992L413.031,228.078L413.081,227.584L411.254,226.619L411.203,226.784L410.671,226.239L409.706,225.921L409.161,225.566L408.323,224.450L407.575,224.132L406.052,223.105L405.456,222.724L404.631,222.864L404.047,223.092L403.705,222.952L403.362,222.635L403.147,222.483L402.728,222.305L402.398,221.836L402.157,221.443L400.216,220.910L399.201,221.493L398.566,221.633L398.173,221.519L397.120,220.910L396.853,220.745L395.267,219.666L394.899,219.501L394.531,219.501L393.555,219.527L393.263,219.501L392.679,219.616L392.578,219.679L391.550,220.085L391.093,220.136L390.433,219.971L389.659,219.552L389.279,219.311L388.873,219.159L387.845,218.398L386.703,217.763L385.460,217.370L384.800,217.344L384.470,217.294L383.924,217.065L383.468,217.053L383.125,217.179L383.024,217.243L382.402,217.205L381.945,217.103L380.321,216.304L379.369,215.708L378.583,215.137L378.101,214.629L377.999,214.477L376.540,213.576L376.223,213.551L375.817,213.487L375.779,213.437L375.906,212.637L376.109,211.914L376.058,211.774L375.969,211.711L374.256,210.632L374.142,210.582L374.180,210.074L374.053,209.897L372.632,209.250L372.239,209.097L370.615,208.704L367.608,208.717L367.126,208.640L366.542,208.374L366.402,208.031L366.123,207.448L365.730,206.902L365.628,206.839L365.387,206.813L364.892,206.763L364.740,206.407L362.469,205.913L360.807,205.316L359.107,204.974L359.005,204.923L357.483,204.073L355.871,203.223L353.765,202.906L353.093,202.867L352.750,203.413L352.649,203.464L352.395,204.504L352.344,204.695L352.166,205.189L351.862,205.672L351.456,206.128L351.101,206.281L350.682,206.179L351.012,206.978L351.139,207.283L351.240,207.651L351.316,208.387L351.456,208.628L351.913,208.983L352.052,209.097L352.141,209.757L351.316,210.252L350.682,210.493L350.289,210.683L349.971,210.480L349.743,210.582L349.604,210.544L349.527,210.582L349.134,211.153L348.690,211.089L348.221,211.825L348.271,212.383L348.411,212.840L348.347,213.322L348.322,213.500L348.119,214.020L347.929,214.578L347.307,215.010L346.964,215.238L345.822,215.403L345.480,215.555L345.239,215.835L344.731,216.152L344.655,216.063L344.363,215.682L344.287,215.644L343.627,215.835L343.133,215.898L342.904,216.012L342.562,216.241L342.295,216.507L342.092,216.444L341.864,216.406L341.597,216.431L341.141,216.431L340.963,216.431L340.722,216.583L340.189,217.116L339.707,217.154L339.263,217.573L338.679,218.093L338.438,218.321L338.070,219.019L337.766,219.552L336.916,219.857L336.636,220.085L335.888,220.339L335.837,220.466L335.723,221.037L335.710,221.455L336.078,222.153L336.129,222.293L336.218,223.143L336.370,223.511L336.649,223.891L336.763,224.018L337.004,224.412L337.893,225.642L338.248,226.201L338.895,227.266L338.806,227.685L338.755,228.535L338.451,228.522L338.210,228.535L337.791,228.814L337.423,228.903L337.296,228.802L337.157,228.903L336.395,228.522L336.002,228.522L335.888,228.497L335.393,228.269L335.025,228.332L334.518,228.472L333.921,228.687L333.820,228.776L333.020,229.335L332.932,229.296L332.665,228.687L332.487,228.307L332.462,227.837L332.348,227.558L332.069,226.987L331.422,226.518L331.092,226.467L329.925,226.340L329.455,226.289L328.783,225.528L328.339,225.351L328.199,225.071L327.894,224.209L327.666,223.879L327.514,223.194L327.425,223.130L327.057,222.991L326.765,222.813L326.499,222.813L325.763,223.295L325.446,223.232L325.585,222.914L325.788,222.432L325.763,221.696L325.446,220.466L325.357,220.110L325.382,219.590L325.522,219.476L324.469,218.651L324.139,218.689L323.669,218.613L322.413,218.499L320.980,218.169L320.206,217.573L319.660,216.824L319.647,216.101L319.368,215.657L318.708,215.352L318.175,215.073L317.757,214.959L317.592,215.086L317.199,215.847L316.678,217.065L316.463,217.243L315.892,217.814L315.511,218.042L315.346,218.220L315.168,218.613L315.118,218.727L314.699,219.083L314.521,219.121L314.306,219.108L314.191,219.159L313.988,219.311L313.862,219.552L313.735,219.717L313.519,219.806L313.240,219.730L312.986,219.666L312.694,219.768L312.529,219.527L312.479,219.438L312.428,219.476L312.288,220.085L312.149,220.440L312.098,221.379L311.819,221.696L311.692,221.747L311.464,222.014L311.172,222.686L311.184,223.105L310.525,223.955L310.423,224.450L310.677,224.843L311.502,225.820L311.540,226.099L311.819,226.569L312.187,226.797L312.174,227.723L312.593,228.941L312.644,229.144L313.392,228.852L313.633,228.738L313.849,228.497L314.090,228.294L314.889,227.317L315.346,227.076L315.613,227.051L315.955,227.051L316.158,226.975L316.272,226.848L316.640,226.518L316.919,226.505L317.605,226.721L318.163,226.708L318.214,226.518L318.201,226.289L318.252,226.175L318.911,226.036L319.051,226.188L319.355,226.137L319.444,225.820L319.508,225.718L319.584,225.680L319.774,225.731L319.863,225.845L320.117,226.340L320.117,226.556L320.003,227.406L319.977,227.533L320.066,227.749L320.345,227.977L320.535,228.307L320.840,228.637L321.119,228.967L321.411,229.195L321.931,229.652L322.147,229.893L322.185,230.400L322.515,231.073L322.578,231.517L322.845,231.682L323.162,231.821L323.581,232.227L324.228,232.519L324.659,232.481L325.699,232.570L325.864,232.621L326.511,233.027L327.412,235.615L327.476,235.717L327.476,235.526L327.336,235.158L327.755,235.158L327.945,235.082L328.110,235.374L327.793,235.475L327.717,235.628L327.755,235.970L327.793,235.983L328.123,235.970L328.339,235.881L328.529,235.653L328.618,235.552L329.036,235.691L329.354,235.831L329.696,235.564L329.848,235.666L329.468,236.313L329.430,236.440L329.455,236.795L329.417,236.871L329.557,236.846L330.064,236.364L330.216,236.414L330.242,236.554L330.216,236.795L330.356,237.214L330.495,237.214L330.622,237.582L330.800,237.785L330.863,237.912L331.561,238.038L331.587,238.330L331.510,238.927L331.625,239.218L331.701,239.206L331.790,239.041L331.904,238.660L332.056,238.571L332.348,238.660L332.246,238.977L332.208,239.041L332.246,239.269L332.792,239.130L332.767,239.269L332.982,239.421L333.477,239.726L333.579,239.891L333.845,239.701L333.921,239.688L334.124,240.018L334.226,239.916L334.289,239.878L334.365,239.942L334.289,240.170L334.365,240.297L334.962,239.789L335.215,239.802L335.330,239.878L335.393,240.030L335.469,240.195L335.431,240.386L335.304,240.589L335.253,240.754L335.330,241.084L335.431,241.299L335.761,241.794L335.672,241.946L335.266,242.352L335.114,242.847L335.215,243.202L335.342,243.240L335.355,243.494L335.304,243.773L335.469,244.230L335.482,244.281L335.710,244.116L335.862,244.154L335.977,244.382L336.370,244.484L336.636,244.662L336.814,244.991L336.966,245.080L337.296,245.093L337.423,244.700L337.791,245.055L338.260,245.372L338.438,245.474L338.679,245.803L339.225,246.742L340.113,247.351L340.164,247.478L340.113,247.910L340.633,248.278L340.849,248.366L341.039,248.544L341.369,248.963L341.826,249.584L341.953,249.762L342.092,249.699L342.511,249.267L342.752,249.039L342.815,249.039L342.892,249.369L343.031,249.369L343.120,249.597L342.765,249.648L342.765,249.813L342.980,250.206L343.018,250.473L342.942,250.676L342.574,251.881L342.156,252.185L341.877,252.160L341.597,251.970L341.318,251.970L340.862,252.135L340.532,252.249L339.923,252.363L339.136,252.858L339.136,253.264L339.364,254.051L339.339,254.089L338.590,254.368L337.905,254.507L337.791,254.520L337.461,254.926L337.398,255.167L337.398,255.560L337.245,255.827L337.017,256.170L336.725,256.779L336.218,256.614L335.710,257.007L335.520,257.362L335.380,257.565L335.127,257.806L335.050,257.933L334.873,258.238L334.238,258.682L333.947,258.961L333.249,258.847L332.982,258.834L332.665,258.542L332.716,257.997L332.741,257.768L332.690,257.616L332.462,257.083L332.158,256.398L331.955,255.979L331.815,255.256L331.688,255.028L331.282,254.875L331.079,254.850L331.003,254.672L331.219,253.962L331.206,253.733L330.762,253.442L330.635,253.302L330.381,252.998L329.874,252.871L329.747,252.718L329.633,252.465L329.518,252.363L329.239,252.122L329.506,251.843L329.734,251.716L330.305,249.166L330.559,248.519L330.813,247.669L331.168,247.161L331.536,247.212L331.828,247.301L332.069,247.275L332.234,247.275L332.386,246.907L332.614,245.918L332.665,245.791L332.792,245.461L332.944,244.788L333.122,243.164L332.944,243.114L331.701,243.037L331.358,242.873L330.901,242.873L330.432,242.961L329.988,243.570L329.354,244.192L329.201,244.344L328.783,245.042L328.136,244.991L327.920,244.991L327.209,245.334L327.006,245.448L326.321,245.689L326.232,245.613L326.220,245.093L326.486,244.991L326.511,244.852L326.461,244.700L326.182,244.725L325.940,244.903L325.649,244.763L325.446,245.334L325.281,245.791L325.192,245.867L324.938,245.918L324.925,246.083L324.938,246.336L324.570,247.110L324.405,247.389L324.012,248.087L323.822,248.455L323.809,248.646L324.050,249.267L323.987,249.838L323.822,250.396L323.365,251.183L323.175,251.703L322.972,252.350L322.248,252.744L321.956,253.150L321.868,253.264L321.627,254.698L321.538,255.319L321.576,255.700L321.601,255.814L321.792,256.170L321.677,256.436L321.373,256.728L321.259,257.197L321.081,257.984L321.779,258.491L322.134,259.646L322.324,259.735L322.566,259.684L323.010,259.709L323.847,260.014L324.418,260.230L324.659,260.255L324.837,260.230L325.002,259.151L325.573,258.263L326.232,258.986L326.372,259.583L326.423,259.684L326.917,260.154L327.336,260.344L327.514,260.521L327.565,260.889L327.831,261.511L328.199,262.158L328.389,262.361L328.808,263.858L328.821,264.264L328.859,264.873L328.719,265.254L328.757,265.812L328.719,266.586L328.808,267.056L329.036,267.703L328.998,268.312L328.859,268.959L328.567,269.454L328.339,269.543L328.123,269.695L327.971,270.152L327.831,270.951L327.806,271.560L328.021,272.169L328.275,272.626L328.427,273.197L328.491,273.704L328.757,274.009L329.683,274.339L330.115,274.669L330.343,274.986L330.394,275.087L330.445,275.912L330.381,276.128L330.343,276.622L330.952,276.762L331.409,277.282L331.269,277.650L331.257,277.866L331.307,278.056L331.168,278.500L330.863,279.794L330.990,280.150L331.143,280.632L331.358,281.000L331.447,281.520L331.675,281.698L331.929,282.066L331.904,282.408L331.536,282.662L331.498,282.865L331.307,283.106L331.358,283.499L331.587,283.728L331.878,284.248L331.904,284.349L331.828,284.806L331.346,285.326L331.168,285.593L330.838,286.126L330.813,286.468L330.901,286.747L331.143,287.141L331.257,287.547L331.130,287.813L330.838,287.851L330.292,287.712L330.191,287.686L329.772,288.067L329.468,288.245L329.277,288.816L329.049,289.285L327.831,291.290L327.285,292.013L326.879,292.406L325.928,293.739L326.258,294.208L326.410,294.551L327.374,296.098L327.717,296.695L328.262,297.799L329.100,298.192L329.848,298.471L329.912,298.864L329.569,298.953L329.201,299.042L328.389,299.283L327.666,299.512L327.374,299.753L326.854,299.981L325.991,300.400L325.585,300.552L325.167,300.527L324.646,300.514L324.494,300.527L324.139,300.615L324.012,300.603L323.339,300.362L323.175,300.235L322.794,300.070L322.324,300.006L321.779,300.171L321.601,300.171L320.713,299.841L320.751,299.613L320.941,298.623L321.005,298.078L321.043,297.418L321.005,297.202L320.929,296.796L320.865,296.619L320.421,295.908L319.914,295.286L319.546,294.728L319.089,293.942L318.632,292.267L318.594,291.543L318.594,290.122L318.455,289.640L318.302,289.285L317.186,288.245L316.133,287.915L315.904,287.851L315.029,287.636L314.369,287.483L314.191,287.433L313.773,287.141L313.430,286.494L313.392,286.113L313.405,285.923L313.773,285.238L314.318,284.489L314.496,284.210L314.839,283.525L314.965,283.055L315.308,282.865L315.422,283.017L315.524,282.700L315.486,282.598L315.384,282.091L315.194,282.129L315.143,282.078L315.194,281.901L315.118,281.736L315.003,281.812L314.965,281.850L313.950,281.152L313.519,280.632L313.456,280.543L313.164,279.883L312.745,279.490L312.250,279.211L311.996,279.071L311.540,278.741L311.299,278.424L311.248,278.310L311.121,278.234L311.121,278.145L310.943,277.904L310.740,277.955L310.652,277.663L310.436,277.511L310.296,277.536L309.751,276.584L309.789,276.013L309.751,275.595L309.535,275.036L309.281,274.719L308.672,274.136L308.482,273.818L307.974,273.044L308.063,273.006L307.974,272.512L307.759,272.232L307.556,272.156L307.429,272.321L307.238,272.499L306.490,272.169L305.792,271.903L305.158,271.547L304.917,271.281L304.587,270.761L304.549,270.710L304.003,270.012L303.851,270.050L303.914,269.822L303.762,269.682L303.254,269.365L303.166,269.302L302.544,269.441L302.290,269.340L302.011,269.352L301.580,269.390L301.250,269.035L301.224,268.781L301.047,268.794L300.907,268.490L300.577,267.842L300.603,267.792L299.055,266.865L298.763,266.637L298.243,266.117L298.103,265.888L298.268,265.787L298.268,265.343L298.205,265.318L298.065,265.254L297.887,264.620L297.558,264.341L297.139,263.808L296.060,262.831L295.794,262.387L295.654,261.372L295.337,260.521L294.906,260.115L293.713,259.506L293.332,259.240L292.736,258.656L292.508,258.771L292.381,258.732L291.810,258.732L291.708,258.631L291.632,258.314L291.493,258.352L291.632,257.946L291.721,257.438L291.734,257.362L291.125,256.677L290.148,255.675L289.932,255.725L289.831,255.687L289.780,255.370L289.742,255.256L289.628,254.951L289.590,254.850L289.361,253.810L289.260,253.492L289.082,253.124L288.625,252.363L288.524,252.084L288.105,250.866L288.054,250.536L287.331,249.204L287.217,249.153L286.735,249.039L286.405,249.039L285.517,249.178L285.111,249.267L284.717,249.293L284.096,248.899L284.261,248.493L284.172,248.557L283.855,248.544L283.791,248.607L283.588,248.404L283.449,248.214L283.246,247.618L283.233,246.311L283.093,245.803L282.789,245.727L282.966,245.321L283.005,245.131L282.916,245.029L282.801,244.979L282.472,244.890L282.370,244.560L282.307,244.294L282.243,244.014L282.167,243.850L282.218,243.723L282.522,243.164L282.497,243.101L282.180,242.961L281.672,243.101L281.304,243.177L281.165,243.037L281.025,243.152L280.505,243.215L280.429,243.456L280.365,243.456L280.061,243.177L279.680,243.304L279.668,242.822L279.528,242.568L279.312,242.238L279.160,242.264L278.957,242.327L278.754,242.352L278.627,242.403L278.297,242.302L278.094,242.467L277.587,242.517L277.320,242.314L277.244,242.162L276.521,240.576L276.204,240.246L275.823,240.221L275.658,240.449L275.569,240.500L275.557,240.310L275.595,240.208L274.351,240.487L274.364,240.754L274.301,240.969L273.856,240.906L273.755,240.779L273.806,240.639L273.818,240.398L273.006,239.840L272.968,239.472L273.019,239.396L272.956,239.231L272.880,239.333L272.537,239.396L272.461,239.561L271.966,239.180L271.941,239.092L271.750,238.863L271.408,239.003L271.255,239.092L270.875,239.092L270.837,238.749L270.329,238.483L269.682,238.051L269.187,237.493L268.667,236.541L268.464,236.313L267.677,236.034L267.322,235.755L267.284,235.793L267.132,236.123L266.523,236.237L264.341,234.866L263.478,233.966L262.120,233.357L262.044,233.217L262.044,233.090L261.169,232.849L260.750,233.027L260.154,233.217L259.671,233.280L259.303,233.268L257.997,232.887L257.185,232.062L257.210,231.961L257.045,231.948L257.007,232.037L256.677,232.139L256.537,232.088L256.474,232.062L256.423,232.278L256.347,232.291L256.170,232.100L256.195,231.961L255.687,231.593L254.736,231.618L253.442,230.743L253.365,230.971L253.010,231.009L253.023,230.921L252.947,230.692L252.655,230.921L251.754,230.654L251.513,230.565L251.170,230.502L251.082,230.400L250.841,230.261L250.752,230.223L250.612,229.982L250.600,229.893L250.447,229.791L250.409,230.083L250.244,230.121L250.143,229.664L249.597,228.903L249.014,228.687L248.874,228.497L248.430,228.497L247.821,228.967L247.732,229.233L246.336,229.411L245.918,229.461L245.600,229.436L245.372,229.652L244.890,229.690L244.776,229.436L244.585,229.423L244.408,229.335L243.850,229.436L243.799,229.373L243.710,229.474L243.659,229.741L243.520,229.931L242.999,229.766L242.873,229.791L242.809,229.994L242.720,229.982L242.631,229.880L242.454,229.944L241.756,229.563L241.401,229.550L241.248,229.271L241.109,229.106L240.830,229.144L240.259,229.055L240.094,228.802L240.030,228.725L239.954,228.776L239.904,228.941L239.815,228.802L239.447,228.484L238.787,228.155L238.686,228.269L238.432,228.218L238.419,227.939L237.899,227.799L236.795,228.193L236.427,228.383L236.046,228.307L234.752,228.522L234.549,228.522L234.625,228.725L234.587,228.865L234.384,229.335L234.105,229.157L233.699,229.322L233.661,229.284L233.686,229.093L231.656,229.385L230.603,228.903L230.730,228.662L230.400,228.586L230.350,228.776L230.324,228.776L229.918,228.548L229.766,228.535L229.677,228.725L229.576,228.776L229.398,228.903L229.157,228.586L229.068,228.611L228.852,228.675L228.852,229.055L228.700,229.106L228.345,229.017L228.294,228.764L227.774,228.573L226.924,228.269L226.759,227.799L226.150,228.028L225.871,227.799L225.718,227.495L225.427,227.355L225.566,227.000L225.414,227.000L224.627,226.784L224.475,226.061L223.942,225.262L223.663,225.211L223.092,224.551L223.054,224.602L222.762,224.780L222.724,224.818L222.179,224.640L222.077,224.488L221.887,224.145L221.252,223.993L220.453,224.031L220.326,223.929L219.996,223.891L219.907,223.853L219.730,223.891L219.666,223.853L219.349,223.701L218.385,223.562L218.334,223.320L218.106,223.092L217.776,223.270L217.091,223.232L216.672,223.130L216.570,223.181L216.342,223.295L216.228,223.333L215.873,223.473L215.632,223.625L215.543,223.739L215.276,224.044L215.226,224.221L214.515,224.424L213.881,224.323L213.690,224.323L213.424,224.488L213.373,224.538L212.828,224.792L211.622,224.741L211.419,224.932L210.747,225.122L210.632,225.122L210.328,225.300L210.188,225.490L209.808,225.541L209.161,225.782L208.755,225.845L208.463,225.921L208.082,226.442L207.207,226.835L207.105,227.634L207.219,228.078L207.181,228.738L207.029,229.005L206.890,229.385L206.877,229.512L206.712,229.741L206.661,230.172L206.065,230.591L205.697,230.679L205.253,230.400L204.542,230.350L204.098,230.134L203.121,229.791L202.525,229.385L202.246,229.487L201.345,230.134L200.952,230.362L200.178,230.603L199.429,231.162L199.023,230.768L198.604,230.096L198.262,229.944L197.526,229.512L197.259,229.157L196.612,228.776L196.054,228.725L195.585,228.738L195.318,228.535L194.722,228.243L194.392,228.078L194.049,227.964L192.806,227.964L192.400,227.749L192.311,227.723L192.032,227.660L191.575,227.140L191.436,226.657L191.423,225.921L191.233,225.490L190.586,225.503L190.205,225.033L190.065,224.932L189.723,224.513L189.482,224.221L189.279,224.094L188.885,223.942L188.657,223.815L188.403,223.485L188.238,223.333L187.807,223.067L187.566,222.864L187.426,222.673L187.198,222.483L186.843,222.166L186.931,221.887L187.058,221.366L187.198,220.618L186.982,220.250L186.881,219.641L186.805,219.362L186.690,219.057L186.551,218.880L186.373,218.512L186.132,218.093L185.904,217.953L185.713,217.953L185.460,217.801L185.206,217.382L184.952,217.015L184.762,216.862L184.673,216.672L184.711,216.177L183.239,215.264L182.351,214.908L181.425,214.617L181.095,214.388L181.006,213.855L181.184,213.601L181.323,213.322L181.387,213.208L181.945,212.548L182.097,212.244L182.110,211.914L181.920,211.521L181.729,211.115L181.450,210.924L180.955,210.391L180.676,209.846L180.549,209.148L180.486,209.008L180.308,208.958L179.953,208.755L179.763,208.577L179.572,208.514L179.420,208.260L179.344,207.537L179.065,207.029L178.837,206.839L178.646,206.230L178.634,206.052L178.722,205.532L178.786,205.215L178.773,205.050L178.532,204.238L178.418,203.997L178.329,203.857L178.164,203.553L178.164,203.464L178.380,202.626L178.456,201.662L178.837,201.040L178.913,200.901L178.837,200.634L178.380,199.886L178.126,199.683L177.745,199.226L177.289,199.061L177.124,198.934L177.035,198.833L176.642,198.477L176.502,198.313L175.639,198.236L175.170,198.033L174.396,197.995L173.774,197.589L173.723,197.424L173.216,196.765L173.000,196.600L172.899,196.562L172.657,196.562L172.429,196.600L172.125,196.562L171.871,196.181L171.782,196.041L171.706,196.016L171.503,195.991L171.376,195.876L171.033,195.813L170.957,195.889L170.780,195.940L170.551,195.927L170.158,195.876L169.980,195.699L169.892,195.661L169.574,195.711L169.511,195.711L168.686,195.838L168.394,195.991L167.798,196.701L167.481,196.828L167.265,196.828L167.011,196.701L166.263,197.018L165.857,197.437L165.679,198.604L165.540,199.201L165.032,199.531L164.436,200.025L164.182,200.140L163.548,200.102L162.330,200.419L161.314,200.990L160.705,200.939L160.173,200.837L159.564,200.634L159.411,200.634L158.320,200.761L158.142,200.634L157.673,200.089L157.432,199.911L157.204,199.505L156.912,199.226L156.721,199.023L156.556,198.883L156.468,198.414L156.379,198.148L155.630,197.665L155.262,197.450L155.034,197.386L154.806,197.386L154.361,197.450L153.968,197.336L153.740,197.259L153.499,197.107L153.118,196.790L152.788,196.676L152.661,196.739L152.446,196.879L152.281,196.904L151.938,196.917L151.722,197.006L151.494,196.980L151.354,196.676L151.240,196.079L151.405,195.699L151.748,195.318L151.913,195.128L152.014,194.240L152.027,193.643L152.103,193.542L152.369,193.047L152.382,192.768L152.369,192.666L151.862,191.537L151.519,191.321L151.418,190.776L151.545,189.761L151.596,189.545L151.164,189.291L151.101,189.241L150.999,188.873L150.961,188.797L150.580,188.670L150.428,188.454L150.314,188.035L150.301,187.896L150.428,187.337L150.339,187.109L150.200,187.033L149.984,186.995L149.832,186.817L149.781,186.690L149.692,186.411L149.502,186.221L149.020,186.107L148.715,185.929L148.525,185.637L148.271,185.282L146.876,185.739L146.495,185.916L146.178,186.005L145.899,186.297L145.797,186.310L145.480,186.208L144.985,186.259L144.338,186.500L143.869,186.551L143.767,186.475L143.310,186.284L142.701,186.119L141.356,186.056L140.303,186.056L140.011,185.942L139.796,185.840L139.466,185.599L138.831,184.901L138.730,184.813L138.121,184.571L137.905,184.292L137.854,184.064L137.766,183.785L137.512,183.734L136.966,183.556L136.700,183.442L136.421,183.417L135.977,183.531L135.888,183.531L135.672,183.455L134.885,182.618L134.556,182.237L134.315,182.135L133.896,182.237L133.401,182.085L132.792,181.869L131.587,182.313L131.269,182.453L131.092,182.047L130.901,181.704L130.572,181.374L130.470,181.019L130.343,180.752L130.102,180.397L129.925,180.118L129.379,179.509L128.871,179.090L128.478,178.913L128.110,178.735L127.603,178.456L127.349,178.481L127.044,178.672L126.905,178.634L126.042,177.618L125.839,177.415L125.433,177.149L125.027,176.857L124.938,176.857L124.748,176.705L124.608,176.464L124.418,175.880L123.987,175.373L123.631,174.979L123.035,174.269L122.972,174.231L122.477,174.155L122.223,174.091L121.677,173.876L119.939,172.137L119.736,171.630L119.520,171.465L118.873,170.868L118.658,170.577L118.543,170.323L118.353,170.107L118.112,169.930L117.795,169.739L117.300,169.524L117.008,169.282L116.945,169.282L116.691,169.384L116.589,169.409L115.651,169.016L115.092,168.876L114.331,168.712L114.001,168.673L113.659,168.521L112.593,168.394L112.136,168.407L111.679,168.851L111.349,169.219L111.019,169.130L110.334,169.079L110.004,168.940L109.814,168.965L109.611,169.270L109.408,169.600L108.901,169.409L107.683,168.965L107.086,168.864L106.452,168.534L105.855,167.887L105.335,167.836L104.980,167.849L104.866,167.570L104.587,167.037L104.536,166.948L104.054,166.631L103.635,166.136L103.445,166.161L102.975,166.072L102.798,166.111L102.480,166.111L101.770,166.009L101.478,166.022L100.882,166.466L100.438,166.605L99.588,166.136L99.169,166.187L98.560,166.288L97.786,165.590L97.646,165.349L97.367,164.880L96.949,164.651L96.847,164.613L96.301,164.499L95.972,164.372L95.413,164.233L94.918,164.195L94.792,164.385L94.551,164.550L94.132,164.474L93.903,164.182L93.713,163.662L93.485,163.383L93.015,162.736L92.787,162.558L92.064,162.139L91.505,161.962L90.554,161.670L90.008,161.289L88.575,160.604L88.156,160.388L87.420,159.881L87.103,159.716L86.862,159.741L86.671,159.043L86.621,158.904L86.443,158.663L86.215,158.345L86.037,157.978L85.923,157.965L85.809,157.965L85.441,157.698L85.301,157.686L84.920,157.610L84.743,157.508L84.375,156.937L83.893,156.569L83.474,156.531L83.233,156.480L82.370,156.518L81.774,156.353L81.596,156.303L81.342,156.112L80.924,155.795L80.467,155.580L80.086,155.516L79.744,155.377L79.274,155.224L78.995,154.894L78.526,154.133L78.107,153.905L77.841,153.676L77.371,153.118L77.168,152.788L76.914,152.636L76.597,152.496L76.242,152.268L76.013,151.989L75.696,151.811L75.151,151.748L74.529,151.760L74.224,151.672L73.793,151.431L73.286,150.961L73.095,150.834L72.841,150.606L72.562,150.466L72.499,150.314L71.814,149.768L71.179,148.994L71.065,148.830L70.875,148.449L70.177,147.827L69.834,147.104L69.834,146.990L69.872,146.533L69.898,146.381L69.949,146.127L69.911,145.873L69.784,145.556L69.644,145.188L68.756,143.539L68.160,142.803L67.639,141.851L67.601,141.686L67.589,141.407L67.538,141.369L67.195,141.115L65.660,139.237L65.508,139.111L65.406,138.984L65.051,138.045L63.909,134.924L63.719,134.759L63.490,134.416L63.465,134.086L63.046,133.223L62.539,132.576L62.323,132.272L62.082,131.549L62.044,131.447L61.778,131.307L61.498,130.965L61.105,130.381L60.407,129.125L60.318,128.694L60.331,128.567L60.382,128.072L60.179,128.021L59.633,128.009L58.352,128.237L57.882,128.110L57.426,127.856L57.172,127.729L56.842,127.603L56.195,127.108L55.713,126.829L55.319,126.270L53.239,124.570L53.277,124.266L53.416,123.568L53.416,123.390L53.010,122.591L52.909,122.477L52.553,122.045L52.274,121.068L51.906,120.282L51.792,119.723L51.513,119.026L51.285,118.810L50.879,118.556L50.790,118.467L50.638,118.188L50.371,117.972L50.105,117.338L49.902,116.970L49.115,116.488L48.607,115.232L48.392,115.016L48.430,113.646L48.290,113.126L48.519,112.453L48.975,111.933L49.229,111.324L49.394,109.878L49.407,108.939L49.623,108.507L49.826,107.327L50.003,106.972L49.711,106.579L48.874,104.929L48.887,104.485L48.988,104.206L49.077,103.927L48.849,103.597L48.557,103.572L47.643,103.064L47.301,102.683L46.666,102.506L46.539,102.519L46.095,102.696L45.880,102.557L45.829,102.366L45.727,102.176L45.106,101.821L44.852,101.668L44.395,101.174L44.243,100.844L44.129,100.184L44.065,100.057L44.027,99.359L44.167,99.194L44.446,99.207L44.598,98.738L44.382,98.370L44.167,98.167L43.938,98.052L43.786,97.532L43.558,97.355L43.012,96.517L42.834,95.845L42.771,95.718L42.530,95.236L42.416,95.109L41.959,94.817L41.680,94.512L41.616,94.411L41.490,93.942L41.388,93.396L41.261,92.863L41.287,92.165L41.375,91.861L41.388,91.721L41.299,91.150L41.236,91.011L40.792,90.541L40.728,90.224L40.969,89.425L40.969,88.879L41.058,88.587L41.147,88.029L41.172,87.801L41.122,87.483L41.147,86.963L41.819,86.138L41.858,85.707L41.794,85.428L41.769,84.997L41.718,84.857L41.769,84.210L41.439,83.461L41.198,83.246L40.398,82.459L40.449,82.167L40.475,81.748L40.411,81.266L40.398,81.051L40.310,80.632L40.589,79.655L40.639,79.363L40.614,78.779L40.398,77.739L40.424,77.549L40.462,77.244L40.462,76.711L40.690,76.204L40.690,75.684L40.792,75.151L40.868,74.567L40.754,73.704L40.639,73.171L40.475,72.474L40.043,72.017L38.318,72.803L37.962,72.968L37.074,73.374L36.655,73.362L36.211,73.171L35.970,72.715L35.881,72.537L35.082,72.156L34.473,71.826L34.156,71.014L33.572,70.596L33.065,70.126L32.811,69.784L32.342,69.454L31.758,68.819L31.327,68.490L31.187,68.363L30.984,68.122L30.375,67.246L29.867,66.815L29.728,66.688L29.068,65.850L28.713,65.292L28.345,64.620L28.180,64.455L28.002,64.163L28.002,63.414L28.129,62.958L28.205,62.336L28.129,61.613L28.129,60.712L28.459,60.128L28.561,59.659L28.231,58.720L27.926,57.997L27.457,56.880L26.949,56.170L26.632,55.903L26.391,55.802L26.302,55.789L25.934,55.662L25.921,55.269L25.833,54.837L25.680,54.634L25.515,54.304L25.465,54.178L25.427,53.810L25.541,53.327L25.503,52.909L25.427,52.693L25.465,52.350L25.376,52.109L25.566,51.627L25.921,51.462L26.150,50.980L26.327,50.625L26.480,50.143L26.975,49.610L27.406,49.026L27.089,47.986L27.038,47.631L26.632,46.641L26.695,46.425L27.444,45.994L28.002,45.956L28.345,45.943L28.929,45.803L29.309,45.474L29.982,44.446L30.629,43.621L30.781,43.469L31.162,43.025L31.745,42.428L31.834,42.225L32.164,41.528L32.722,41.312L33.978,40.804L34.207,40.703L34.892,40.462L35.184,40.386L35.729,40.335L36.579,40.284L37.226,39.967L37.912,39.713L38.762,38.419L38.749,38.064L38.838,37.531L39.066,37.061L39.396,36.668L40.132,36.719L40.842,36.795L41.439,36.782L42.314,36.706L42.631,36.529L42.911,36.326L43.088,36.224L43.596,36.059L44.319,35.552L44.573,35.323L45.169,34.955L45.639,34.702L46.400,35.069L47.072,35.590L47.592,35.856L48.189,36.275L48.646,36.922L49.064,37.264L49.356,37.366L50.092,37.226L50.282,37.252L50.790,37.366L51.158,37.366L51.792,36.998L52.122,36.884L52.630,36.694L53.518,36.161L53.708,36.021L54.444,35.907L54.596,35.717L54.723,35.387L55.002,35.158L56.195,35.247L56.931,35.222L57.920,35.399L58.149,35.260L59.722,33.395L60.154,33.166L60.496,32.773L61.257,31.352L61.207,29.791L61.219,29.233L61.435,28.497L62.399,27.495L62.843,26.784L63.427,26.302L64.366,25.833L65.140,25.503L65.825,25.554L66.777,25.477L67.462,25.427L67.842,25.376L68.248,25.477L68.705,25.883L68.946,26.112L69.454,26.289L70.748,26.112L70.989,26.163L71.243,26.530L71.547,27.063L71.814,27.381L72.118,27.596L74.770,29.677L75.798,30.108L77.028,30.844L77.333,31.136L77.726,31.365L78.107,31.517L78.538,31.771L79.046,32.354L79.503,33.166L79.604,33.306L79.833,33.445L80.454,33.902L80.886,33.928L81.114,34.004L81.457,34.181L81.710,34.372L81.875,34.740L82.218,35.133L82.840,35.590L83.169,35.729L83.728,36.503L83.943,36.922L84.210,37.201L84.514,37.252L84.603,37.290L84.870,37.645L85.009,38.038L85.301,38.559L86.215,39.358L86.544,39.396L87.788,39.637L88.245,39.802L88.765,39.942L89.374,39.866L89.831,39.891L90.110,39.954L90.237,40.132L90.427,40.665L90.567,41.007L90.795,41.616L90.934,41.769L91.252,41.845L91.708,42.225L92.381,42.657L93.053,42.796L93.903,43.190L94.183,43.240L94.741,43.164L94.957,43.329L95.692,43.545L96.631,43.850L96.847,43.989L96.923,44.027L97.405,44.040L98.052,44.027L98.408,43.761L98.699,43.469L99.638,42.276L100.882,41.528L101.415,41.388L102.277,41.401L102.760,41.490L103.267,41.642L103.800,41.680L103.940,41.731L104.117,41.997L104.371,42.365L104.752,42.733L105.830,43.164L106.160,43.405L106.832,43.811L107.150,44.078L108.114,44.865L108.939,45.677L109.738,45.613L110.537,45.474L111.184,45.524L111.717,45.626L112.555,45.905L113.341,46.133L113.405,46.412L113.481,46.565L113.938,47.072L114.217,47.580L114.471,48.049L114.737,47.846L114.813,47.745L115.003,47.567L115.283,47.491L115.574,47.567L116.234,47.669L116.780,47.681L116.869,47.719L117.224,47.948L117.693,48.075L118.011,48.113L118.734,48.138L119.216,48.113L119.508,48.303L119.914,48.531L120.294,48.785L120.535,48.772L121.259,48.493L121.589,48.392L121.906,48.328L122.527,48.925L123.251,48.887L123.682,48.887L124.037,48.950L124.316,49.026L124.608,49.090L124.964,49.052L125.433,48.887L126.791,48.544L127.184,48.646L127.526,48.671L127.882,48.607L128.300,48.557L128.440,48.557L129.011,48.252L129.417,48.214L130.394,48.316L130.838,48.544L131.041,48.772L131.701,49.001L132.703,48.696L132.893,48.557L133.401,48.404L133.858,48.366L134.010,48.493L134.543,48.772L134.759,48.836L135.444,49.140L135.672,49.280L136.471,49.445L136.687,49.534L136.954,49.699L137.791,49.711L137.854,49.699L138.489,49.927L138.730,50.079L139.732,50.067L140.532,50.181L140.709,50.270L141.559,50.967L142.181,51.462L142.993,51.906L143.272,52.135L143.830,52.579L144.465,52.769L144.668,52.959L145.201,53.201L145.658,53.467L145.987,53.607L146.838,53.860L147.117,54.038L147.244,54.203L147.383,54.774L147.738,55.345L148.043,55.738L148.233,56.106L148.373,56.715L148.588,57.197L149.832,58.453L150.035,58.580L151.456,59.037L151.862,59.100L152.471,58.974L152.788,59.113L153.029,59.430L153.296,59.608L153.867,59.989L154.285,60.027L154.920,59.938L155.085,60.027L155.618,60.179L156.227,60.953L156.836,61.232L157.394,61.435L158.447,62.069L158.637,62.247L158.929,62.552L159.284,62.590L159.551,62.805L159.703,63.135L159.944,63.376L160.845,63.465L161.061,63.884L161.543,63.985L162.444,63.884L162.761,64.074L162.812,64.163L163.497,64.531L164.004,65.000L165.590,65.685L166.199,65.749L167.189,65.850L167.861,65.876L168.115,65.838L169.054,65.191L170.221,65.102L170.589,65.140L170.894,65.203L171.173,65.203L171.465,65.153L171.820,65.127L172.125,64.912L172.442,64.214L172.632,64.011L172.797,63.706L172.772,63.313L172.810,62.780L173.368,62.082L173.837,61.701L174.243,61.498L174.700,61.562L175.753,61.651L176.147,61.600L176.971,61.410L177.212,61.372L177.251,61.790L177.352,61.917L177.898,62.171L178.189,62.069L178.443,61.943L178.608,62.247L178.963,62.958L179.192,63.059L179.471,63.173L179.928,63.503L180.080,63.693L180.296,64.036L180.778,64.125L181.044,64.341L181.361,65.000L181.463,65.089L182.072,65.330L182.732,65.508L183.100,65.432L183.442,65.597L183.772,65.571L183.861,65.609L184.419,65.939L185.041,66.345L185.536,66.523L185.599,66.548L185.713,66.967L186.132,67.373L187.299,68.210L187.490,68.210L187.655,68.286L188.175,68.312L188.505,68.210L189.152,67.513L189.304,67.246L189.444,67.360L189.938,67.297L190.129,67.107L190.649,66.320L190.877,65.838L190.992,65.800L191.245,65.787L191.550,65.736L192.083,65.597L192.768,65.762L193.098,65.838L193.263,65.927L193.352,66.168L193.364,66.548L193.516,67.195L193.821,67.868L194.379,68.286L195.141,68.198L195.648,68.033L195.826,68.020L196.384,68.109L197.539,67.601L197.945,67.728L198.554,67.652L198.960,67.563L199.188,67.284L199.442,67.157L199.607,67.195L200.368,67.297L200.812,67.284L201.891,67.551L201.840,67.919L201.852,67.969L202.081,67.969L202.258,67.919L202.449,67.969L202.614,67.969L203.185,68.071L203.147,68.401L204.098,68.731L204.568,68.299L204.974,68.109L205.367,67.893L205.875,67.741L206.255,67.754L206.940,67.665L207.029,67.639L207.486,67.221L207.549,67.195L208.108,67.233L208.742,67.056L209.478,66.662L210.303,66.168L210.506,66.168L211.762,66.218L212.637,66.307L213.462,66.269L214.172,66.218L214.515,66.307L214.896,66.459L215.073,66.434L215.213,65.470L215.581,65.609L215.733,65.698L215.923,66.028L216.012,66.117L216.139,66.396L216.507,67.589L216.799,68.007L217.344,68.490L218.080,68.629L218.664,68.020L219.108,67.944L219.616,67.842L219.844,67.741L220.225,67.563L220.402,67.474L220.859,67.373L221.303,67.411L221.696,67.690L222.039,68.033L222.356,68.502L222.496,68.642L222.623,68.667L222.927,69.149L223.295,69.606L223.841,70.215L224.120,69.872L224.247,69.327L224.335,69.187L225.147,69.137L225.490,69.289L226.048,69.555L226.188,69.568L226.353,69.505L226.353,69.314L226.987,69.454L227.089,69.517L227.457,69.923L227.482,70.126L227.127,70.101L227.076,70.621L227.216,71.458L227.266,72.347L227.114,72.778L227.114,73.412L227.279,73.565L227.482,73.895L227.444,74.567L227.507,74.922L227.710,75.328L227.850,76.483L227.774,77.016L228.091,76.876L228.687,77.092L228.992,77.130L229.119,77.549L229.055,77.993L229.309,78.056L230.134,77.739L230.273,77.663L231.073,77.219L232.202,76.622L232.773,76.166L233.344,76.039L234.587,76.204L234.905,76.432L234.854,76.686L234.905,76.775L235.095,76.940L235.285,77.155L235.425,77.384L235.311,77.701L235.285,77.841L235.514,78.805L235.602,79.198L235.602,79.845L235.272,80.924L234.981,81.736L234.816,81.939L234.778,82.167L234.841,82.408L234.841,82.852L234.765,83.550L234.778,83.804L234.917,84.070L235.450,84.603L235.767,85.098L236.059,86.113L236.262,86.215L236.351,86.316L236.858,87.661L236.909,87.991L236.897,88.346L237.074,88.866L237.252,89.285L237.417,89.336L237.645,90.389L238.013,91.328L238.406,92.279L238.876,93.091L238.901,93.840L238.850,94.068L238.990,94.373L239.675,95.604L241.058,97.075L242.086,97.329L242.873,97.545L243.114,97.583L243.393,97.913L244.027,98.738L244.915,99.207L245.448,98.687L245.956,98.090L246.057,98.078L246.539,98.090L247.415,97.811L247.808,97.608L247.998,97.469L248.595,97.545L248.950,97.583L249.661,97.608L249.851,97.659L250.460,97.862L251.450,96.987L252.604,96.213L252.820,96.225L253.112,96.466L253.112,96.784L253.251,97.012L253.657,97.152L254.304,97.253L254.545,98.129L254.647,98.332L254.825,98.370L255.472,98.306L255.979,98.230L256.157,98.522L256.423,98.649L256.423,98.420L256.715,98.420L257.223,98.078L257.400,98.268L257.971,98.230L258.200,98.230L258.847,98.496L259.278,98.585L259.430,99.258L259.595,99.359L260.001,99.524L261.625,99.334L262.184,99.473L264.176,99.423L264.950,99.588L265.850,100.032L265.203,100.362L265.000,100.450L265.102,100.793L265.432,101.529L265.064,102.468L264.683,102.595L264.683,103.394L264.226,103.622L264.138,103.711L264.264,104.105L264.505,104.802L264.899,105.018L265.381,105.323L265.571,105.665L265.698,105.957L265.660,106.414L266.383,106.490L266.701,107.315L266.980,107.492L267.284,107.683L267.411,107.784L267.145,108.089L266.434,108.761L266.840,108.444L266.980,108.431L267.639,107.924L268.705,107.302L269.111,107.315L269.974,107.606L270.380,107.822L271.192,108.254L271.306,108.342L271.446,109.002L271.268,109.357L271.915,109.535L272.093,109.459L272.194,109.548L272.118,110.169L272.131,110.702L272.220,111.413L272.080,111.692L271.484,112.402L271.395,112.948L271.268,113.214L271.065,113.329L270.888,113.519L270.748,113.900L270.748,114.242L271.027,114.991L271.471,117.046L271.725,117.275L272.080,117.414L272.702,117.427L272.981,117.528L273.184,117.605L273.628,117.757L273.768,117.782L274.504,117.693L275.201,117.363L275.519,117.160L276.128,116.856L276.483,116.666L276.940,116.450L277.320,116.386L277.917,116.323L277.980,116.437L277.866,117.135L277.447,118.137L277.320,118.366L277.231,118.632L277.244,118.835L277.917,119.140L278.310,119.165L278.526,119.114L279.274,118.911L279.921,118.645L280.670,118.581L280.886,118.607L281.342,118.594L281.622,118.467L281.875,118.175L281.964,117.884L281.964,117.655L282.307,117.059L282.598,116.767L282.725,116.247L282.751,116.082L282.979,115.790L283.626,115.511L284.349,115.613L284.781,115.371L285.187,115.130L285.580,115.232L286.253,115.498L286.735,115.600L287.598,115.460L287.940,115.435L288.435,115.549L288.765,115.689L289.006,115.803L289.222,115.904L289.539,115.930L289.932,115.904L290.224,116.437L290.300,116.488L290.693,116.589L291.176,116.602L291.290,116.666L291.543,117.110L291.785,117.135L292.229,117.237L292.749,117.199L293.206,117.363L293.612,117.363L293.980,117.275L294.259,116.995L294.830,116.310L295.185,116.082L295.743,116.463L295.997,116.501L296.568,116.412L296.822,116.501L296.961,116.589L297.405,116.805L297.735,116.881L298.154,116.995L299.004,116.628L299.727,116.856L300.044,116.945L300.628,117.046L301.072,116.742L301.301,116.361L301.757,116.399L302.189,116.488L302.557,116.526L303.990,116.082L304.231,115.701L304.143,115.321L303.952,115.156L304.358,114.813L304.866,115.054L304.904,115.105L305.094,115.600L305.107,116.183L305.437,116.539L305.614,116.666L306.223,116.729L306.921,116.678L307.035,116.678L307.784,116.856L307.974,116.805L308.114,116.628L308.380,116.158L308.609,115.942L308.901,115.790L309.700,115.511L310.119,115.460L311.159,115.080L311.502,114.991L311.578,115.042L312.377,115.524L312.529,115.562L312.732,115.359L312.745,115.194L312.834,115.003L313.582,114.800L314.547,114.737L315.232,115.016L315.562,114.737L315.613,114.623L315.676,114.255L315.676,113.836L315.904,113.037L316.171,112.796L316.577,112.796L316.818,112.732L317.059,112.314L317.110,112.149L317.338,112.111L317.782,112.123L318.163,112.529L318.353,112.491L318.569,112.390L318.772,112.073L319.140,111.920L319.635,111.958L319.939,111.933L320.485,111.781L320.941,111.641L321.906,111.603L322.096,111.793L322.134,111.882L322.477,112.161L322.642,112.161L323.263,111.514L323.568,111.425L324.215,111.324L324.431,110.753L325.306,110.905L325.649,110.867L325.953,110.664L325.953,110.626L325.217,110.246L325.014,109.878L325.002,109.776L325.395,109.636L325.611,109.472L325.763,109.192L325.814,109.116L326.144,109.002L326.638,108.774L326.816,108.621L326.829,108.418L327.006,108.228L327.336,107.632L327.806,107.403L328.021,107.441L328.909,107.086L328.909,106.896L329.087,106.845L329.189,107.112L329.848,107.048L330.077,106.997L330.711,107.112L331.231,107.454L331.587,107.606L332.513,108.012L332.665,107.695L332.716,107.644L332.995,107.543L333.109,107.581L333.109,107.695L333.033,107.860L332.919,107.886L332.741,107.835L332.652,108.063L333.071,108.139L333.109,108.025L333.299,108.025L333.299,107.644L333.211,107.416L333.299,107.023L333.388,106.972L333.756,107.251L334.150,107.403L334.822,107.670L335.393,107.860L335.292,107.505L335.165,107.112L335.215,106.769L335.215,106.414L335.609,106.414L336.091,106.465L336.497,106.426L336.624,106.477L336.674,106.744L336.674,106.947L336.827,108.139L336.916,108.342L337.207,108.368L337.550,107.441L338.172,106.566L338.387,106.198L339.098,106.097L339.605,105.906L340.075,105.817L341.547,105.488L341.953,105.640L343.069,105.348L343.348,104.967L343.361,104.688L343.640,104.346L344.465,104.231L344.782,104.181L345.949,103.863L346.305,103.090L346.495,102.239L346.635,101.783L347.535,101.592L348.627,101.427L349.286,101.630L349.642,101.681L350.796,101.719L351.189,101.427L352.230,100.425L352.230,100.285L351.799,99.638L351.875,99.473L352.306,99.385L353.131,99.397L353.486,98.915L354.133,98.788L354.729,98.408L355.351,97.773L356.328,96.327L357.166,94.880L357.711,94.030L358.066,93.294L359.614,90.973L360.261,90.414L360.629,90.110L361.835,89.158L362.342,88.638L363.256,88.917L364.157,89.983L364.347,90.541L365.134,91.150L365.362,92.559L364.994,93.713L364.613,94.690L364.207,95.324L364.093,95.959L363.687,96.137L363.319,96.454L362.583,97.025L361.517,97.849L361.289,98.052L360.629,99.118L360.401,99.283L359.970,99.854L360.667,100.336L361.543,100.704L361.835,100.831L361.797,101.009L362.152,101.021L362.139,101.072L362.659,101.351L363.395,101.770L363.535,105.627L363.065,107.721L362.609,108.000L362.253,108.165L361.264,108.748L359.982,109.751L359.995,109.839L359.754,110.119L359.322,110.334L359.284,110.575L357.013,112.161L356.176,112.288L354.691,112.149L354.691,112.212L354.615,112.631L353.714,113.405L353.575,113.126L353.042,113.088L352.395,113.265L351.722,113.214L351.075,113.900L350.847,114.153L350.200,114.864L349.730,115.422L348.665,116.729L348.550,117.160L348.170,117.655L348.830,117.389L349.832,116.780L350.454,116.463L351.316,116.133L353.955,115.739L354.844,115.803L355.630,115.663L355.935,115.663L357.153,114.991L358.434,114.623L358.916,114.521L359.475,114.344L360.299,114.027L361.137,113.646L362.977,112.758L363.687,112.238L364.157,112.035L365.083,111.654L365.806,111.755L365.476,114.242L365.298,114.826L365.349,115.904L365.540,116.805L365.679,117.186L365.400,118.049L365.337,118.746L365.387,118.962L365.400,119.558L364.372,123.022L364.068,123.682L363.903,124.342L363.915,124.875L363.966,125.103L364.372,125.116L364.892,124.964L365.413,125.547L365.273,125.966L365.730,125.966L366.275,125.737L367.049,125.357L366.986,124.875L367.468,124.735L367.633,124.824L368.026,124.608L368.166,124.266L369.841,124.469L370.044,123.479L370.412,122.743L370.437,122.324L371.401,121.753L371.757,121.804L372.569,122.007L373.787,121.525L373.698,121.106L374.332,120.041L374.662,119.482L375.347,119.800L375.550,120.167L376.286,120.091L376.464,120.091L376.464,119.508L376.959,119.343L377.111,119.520L378.126,119.381L378.786,118.670L378.697,118.505L378.304,117.579L378.672,117.719L379.204,117.528L379.649,117.427L379.610,116.995L380.169,116.945L380.727,116.729L380.664,116.272L380.714,115.777L381.666,115.841L382.288,115.524L382.706,115.003L382.859,114.661L383.303,113.887L384.280,113.760L384.280,113.379L384.470,113.747L385.028,113.709L384.939,112.821L385.028,112.758L385.967,112.593L386.018,112.542L386.005,111.882L386.157,111.654L386.145,111.172L386.893,110.905L387.667,110.855L387.959,110.436L388.505,109.370L388.784,108.761L389.812,108.977L390.370,109.180L391.017,109.408L391.613,109.535L391.715,108.863L391.804,108.558L392.210,108.558L393.237,108.698L393.567,108.723L393.428,109.218L393.491,109.497L393.428,109.890L393.428,110.068L393.935,110.233L395.953,110.652L396.473,110.728L397.399,110.981L397.627,111.045L397.221,111.616L396.879,111.603L396.282,111.692L395.623,112.073L395.077,112.428L394.278,113.037L393.910,113.595L393.707,113.988L394.011,114.242L393.859,114.572L394.151,115.130L394.747,114.965L396.435,114.103L396.930,113.925L397.310,114.445L397.754,114.382L398.731,113.874L398.909,114.445L399.277,115.042L399.480,114.991L399.531,115.232L399.746,115.219L399.937,115.321L400.901,114.128L401.510,113.785L401.599,114.293L401.852,114.775L402.170,114.242L402.918,114.179L403.096,114.153L403.515,113.925L403.832,113.925L404.809,114.217L404.847,114.293L404.745,114.686L404.910,115.828L405.316,116.831L405.875,116.767L406.103,116.729L408.095,116.691L408.171,116.133L408.450,114.737L408.615,114.115L409.237,112.770L409.376,112.948L409.567,112.441L409.376,111.971L408.958,111.743L408.894,110.626L408.983,109.586L408.894,108.850L409.072,108.304L408.958,107.023L409.516,106.477L409.605,106.376L409.681,106.160L410.772,105.411L410.836,104.346L412.244,103.863L412.992,103.204L413.031,102.823L413.170,101.567L414.071,101.034L414.172,100.882L414.426,100.412L414.769,100.247L415.644,100.285L416.507,99.816L416.596,99.359L417.344,98.661L417.446,98.230L417.801,96.352L417.991,95.324L418.144,95.147L419.108,94.982L419.730,94.957L420.872,95.096L421.392,95.248L422.305,95.350L423.358,94.652L424.564,93.903L425.186,93.561L426.860,93.421L427.672,93.371L430.121,93.371L430.844,93.396L432.303,93.371L433.065,93.396L434.410,93.535L436.706,94.284L439.916,94.462L441.794,94.030L443.900,93.282L444.915,93.117L445.359,93.104L446.146,93.155L446.768,93.244L447.580,93.434L447.960,93.561L448.811,93.942L449.267,94.208L450.130,94.792L451.247,95.629L451.894,96.213L454.393,98.281L455.548,98.890L456.614,99.258L456.931,99.296L458.466,99.334L460.471,99.309L461.752,99.347L463.947,100.146L464.264,101.123L464.455,101.770L464.785,102.316L465.191,102.544L467.690,101.871L468.337,101.567L469.365,100.971L469.695,100.831L470.482,100.615L473.121,102.455L473.070,103.508L472.727,107.226L472.841,107.441L474.542,106.718L475.417,106.414L476.039,106.097L476.800,105.627L477.219,105.310L477.752,102.836L478.475,103.077L478.932,103.432L479.020,103.293L479.947,103.305L481.533,103.077L481.799,102.747L482.192,102.760L482.383,102.798L482.611,102.607L482.560,102.328L482.966,101.770L482.954,101.478L482.916,101.364L482.878,100.882L484.717,98.243L485.187,97.634L485.529,95.185L485.098,94.449L483.106,92.495L482.827,92.114L482.637,91.658L482.142,91.163L481.482,90.465L480.378,89.475L479.947,89.095L480.099,88.232L479.731,87.737L479.820,87.255L480.023,87.052L480.378,86.265L480.645,86.126L481.266,86.126L481.736,86.456L482.269,86.367L482.522,85.948L482.687,84.971L482.725,84.882L483.588,85.339L484.299,85.364L485.085,85.161L486.341,84.451L487.965,83.182L488.105,82.307L488.701,81.596L490.985,81.571L492.926,83.525L494.259,85.288L495.020,86.316L495.553,87.382L495.616,87.509L496.022,87.991L496.809,88.498L497.291,88.765L497.849,88.727L498.217,88.727L498.674,88.917L498.915,88.917L500.527,88.930L500.907,89.069L501.948,89.513L502.201,89.615L503.077,89.945L504.472,90.072L505.855,89.691L507.543,89.145L508.025,88.676L508.469,88.130L509.789,87.661L510.372,87.610L511.958,87.788L513.113,87.940L513.570,87.953L514.090,87.991L516.310,87.509L517.249,86.862L517.795,86.481L517.922,85.796L518.175,85.555L518.252,85.555L518.175,86.037L518.772,85.529L519.584,85.783L519.013,84.692L519.444,83.575L519.914,83.385L520.865,83.893L521.043,84.083L521.601,85.161L521.690,86.075L521.170,86.697L520.612,87.192L520.117,88.359L519.381,89.881L519.267,90.681L519.140,91.493L519.076,92.216L519.140,93.003L518.899,93.574L518.823,93.840L518.873,94.677L519.013,95.020L519.647,95.959L520.003,96.352L521.462,97.215L521.715,97.748L522.375,98.319L523.213,98.027L524.177,97.761L525.065,97.443L526.283,96.555L526.626,96.048L526.930,95.489L527.387,94.918L527.666,94.652L528.034,94.068L528.313,93.612L528.643,93.282L529.100,93.155L530.419,93.345L531.282,93.586L531.777,93.700L532.132,93.853L532.665,94.360L533.198,95.007L533.528,95.426L535.012,96.987L535.393,97.355L536.903,98.750L537.334,99.156L538.413,99.918L539.504,99.994L540.379,98.788L540.620,98.167L541.077,97.113L541.217,97.025L542.371,97.126L542.625,97.190L543.361,97.329L543.894,97.164L544.566,96.733L545.353,96.289L545.810,96.010L546.381,95.794L547.878,95.540L548.576,95.604L549.527,95.895L550.301,96.822L550.631,97.329L550.809,98.446L550.454,99.144L549.845,99.626L548.944,100.374L547.979,102.049L547.764,102.988L547.853,103.724L548.994,105.551L549.654,106.350L550.657,106.718L551.177,106.769L554.476,105.805L556.366,104.942L556.798,104.802L560.490,105.678L560.807,106.439L560.921,107.188L560.870,107.644L560.731,108.012L560.287,108.761L559.500,109.370L558.498,109.966L554.336,112.073L552.890,113.976L552.649,114.712L552.433,115.574L552.433,116.247L553.169,118.163L554.235,120.079L554.526,122.413L554.755,122.845L557.191,126.156L558.599,128.199L559.145,128.897L559.982,129.734L562.114,130.673L563.180,131.587L564.525,135.292L564.486,137.093L564.195,137.981L562.837,140.950L562.444,142.765L562.380,143.767L562.418,144.516L562.850,146.216L563.230,146.799L565.019,148.373L566.225,149.477L566.681,149.959L567.798,152.128L568.559,153.448L569.194,154.108L570.501,155.047L572.302,156.468L572.607,156.848L573.114,157.508L573.305,159.386L573.546,160.604L574.015,161.860L574.485,163.167L574.624,164.017L572.378,168.394L569.968,171.668L568.864,173.102L568.001,173.876L566.834,174.599L566.123,174.751L563.687,175.017L560.363,175.538L558.853,176.007L557.851,176.527L557.204,176.908L556.353,177.898L556.227,178.481L555.897,180.486L555.846,181.920L556.150,183.062L556.874,185.282L556.747,189.469L556.861,192.755L556.607,195.102L556.125,196.625L555.719,197.703L554.983,200.140L554.704,201.078L552.509,202.715L550.098,204.187L547.929,205.545L546.558,205.215L542.625,205.684L539.453,204.847L535.533,202.715L530.762,202.550L530.356,208.843L519.863,210.201L519.660,209.173L526.651,208.336L527.108,201.802L519.914,202.588L519.191,203.489L512.276,204.301L512.060,202.297L512.872,200.698L511.108,201.231L511.641,206.763L508.482,207.156L508.545,209.605L507.898,210.810L508.939,214.160L506.909,217.205L503.216,211.635L500.577,213.437L495.807,206.648L497.063,205.494L497.938,206.230L498.915,205.012L504.587,201.231L505.386,202.449L506.642,201.332L506.401,199.175L504.790,197.399L503.838,197.488L504.726,199.619L496.543,205.062L495.781,205.062L494.271,202.956L500.159,198.046L503.445,195.661L502.468,193.313L501.262,193.415L496.568,197.310L492.406,200.431L490.528,198.198L492.381,196.676L491.759,195.902L489.907,197.437L489.310,196.968L489.272,194.100L491.201,194.265L489.260,192.070L487.877,193.275L486.595,196.397L485.948,196.067L484.679,201.180L485.390,201.180L485.428,206.851L482.687,205.265L481.038,208.476L480.416,219.628L479.731,228.497L478.285,230.438L477.866,237.721L478.386,240.208L480.657,246.527L479.731,249.305L481.875,249.965L483.144,253.721L479.452,255.408L482.548,258.885L484.413,256.969L487.293,259.671L491.391,253.771L499.512,252.693L501.833,256.449L508.406,268.083L509.928,269.644L512.732,274.897L504.840,279.262L498.941,277.016L497.596,274.643L495.781,275.887Z" fill="#e0e0e0" stroke="#333333" stroke-width="1" stroke-linejoin="round" />
  </g>
</svg>