<?xml version="1.0" encoding="UTF-8"?>
<svg xmlns="http://www.w3.org/2000/svg"
     viewBox="-15.600020746074733 -20 831.200041492164 639.9999999999927"
     width="831.200041492164"
     height="639.9999999999927">
  <title>神奈川県</title>
  <desc>都道府県コード: 14</desc>
  <g id="14">
    <path d="M704.526,229.348L704.609,231.012L695.482,236.421L698.832,238.473L707.484,233.37L711.252,240.553L709.661,241.246L705.168,246.405L689.007,237.364L685.071,234.507L685.853,232.732L684.597,229.403L689.481,226.99L702.404,221.914L704.247,225.049ZM731.99,224.355L720.658,230.485L714.574,219.14L712.508,218.502L709.466,214.563L711.196,212.51L740.224,196.751L744.243,203.105L740.754,204.992L746.309,214.424L746.839,216.394ZM649.624,308.141L652.192,312.049L644.014,316.565L645.047,318.81L649.736,320.278L655.011,317.48L660.426,311.799L667.18,315.263L663.775,318.893L665.255,320.362L660.593,325.515L658.221,324.573L664.724,330.862L667.934,329.172L670.139,331.472L670.139,338.259L665.143,338.37L665.171,345.628L668.632,352.442L670.53,352.636L670.558,365.349L656.881,368.783L655.206,367.01L651.997,368.284L649.736,371.94L651.299,372.992L650.769,375.567L645.689,378.89L640.386,375.844L639.185,376.897L646.135,383.238L647.866,384.041L648.061,386.976L650.378,387.336L654.202,382.158L655.96,378.087L663.384,381.355L673.879,380.524L674.381,387.031L669.413,387.806L669.748,392.181L667.097,392.375L665.394,389.883L663.357,391.295L665.394,394.285L662.687,397.662L659.7,397.579L659.756,402.009L657.579,403.282L652.332,398.659L653.448,402.036L655.039,402.839L657.384,406.521L654.369,410.812L652.304,409.4L648.508,409.981L647.308,411.642L650.489,413.303L649.485,416.347L651.076,415.794L654.453,417.178L657.635,413.524L660.091,414.604L662.798,419.226L663.971,424.706L666.371,424.761L674.019,430.407L674.633,428.525L672.623,426.754L673.935,425.647L670.558,421.8L674.856,420.527L677.424,423.128L678.15,419.697L675.107,417.122L676.921,415.24L674.884,410.812L681.108,409.538L685.713,410.867L691.072,416.154L689.035,417.593L688.951,420.139L690.877,420.61L692.189,423.571L683.871,424.402L685.993,425.979L686.914,429.383L690.43,428.442L688.84,433.534L691.352,434.337L696.431,438.432L695.371,440.646L697.994,442.749L698.441,444.797L700.423,443.33L701.148,448.449L704.414,449.888L712.117,451.243L725.71,451.548L728.194,452.101L733.749,451.05L734.363,449.611L739.275,449.666L737.07,451.575L738.94,453.816L743.322,453.318L747.258,457.136L748.095,456.528L750.775,459.654L751.417,462.752L746.085,465.021L743.211,467.123L743.294,469.309L740.727,468.147L739.136,476.639L733.665,477.994L733.637,475.311L731.46,477.773L728.139,475.284L728.278,473.679L725.04,469.558L724.231,470.941L727.357,477.275L731.013,482.032L734.558,485.324L735.647,489.251L734.307,491.27L735.088,495.529L733.274,494.616L729.562,495.003L729.088,491.574L725.096,490.44L722.5,492.348L721.328,495.169L721.189,499.124L723.673,499.124L725.682,496.358L727.273,497.409L722.919,502.193L725.347,501.308L729.702,501.502L731.767,505.152L731.655,508.47L725.236,509.299L728.25,509.742L724.65,509.935L722.612,508.608L712.508,510.322L702.181,511.345L696.18,513.806L679.685,526.496L675.833,531.776L672.791,534.07L669.692,539.156L668.771,542.749L669.692,551.262L673.237,553.832L673.795,561.349L676.307,566.267L680.941,568.257L682.95,567.539L688.505,567.925L690.71,568.975L690.068,571.296L692.524,575.33L690.682,579.613L692.273,580.359L687.918,582.21L689.956,585.111L688.588,588.288L683.118,585.276L683.983,588.067L681.276,587.21L681.303,582.458L678.122,580.469L675.554,583.923L677.926,584.088L677.34,588.011L673.293,586.879L670.446,589.254L666.818,588.122L665.924,585.111L663.022,585.415L664.529,587.873L660.761,590.083L658.333,588.536L654.732,589.116L655.681,586.796L646.442,587.707L644.07,590.636L638.655,588.536L640.525,584.199L636.841,589.006L633.184,586.381L631.566,587.404L630.003,585.193L628.133,586.16L626.374,584.42L629.528,580.525L632.124,582.182L633.994,578.231L628.802,574.861L628.886,573.313L626.29,572.788L625.76,570.025L627.965,571.462L631.845,570.302L636.701,571.6L636.925,570.578L631.984,568.312L632.654,566.267L636.478,567.677L635.836,566.157L631.677,565.742L629.472,568.312L628.97,561.791L630.198,562.73L636.283,563.78L637.008,561.901L643.512,563.559L639.716,559.525L634.385,558.088L635.445,556.209L634.608,552.671L637.483,550.764L635.92,544.629L633.352,542.307L635.864,538.963L634.468,533.738L631.677,531.776L627.77,532.384L626.625,530.864L627.63,528.32L622.829,528.542L619.257,527.795L618.392,526.247L621.406,523.953L624.002,522.1L622.606,519.446L625.565,517.041L624.895,514.497L628.719,515.327L629.584,512.866L628.133,511.069L632.012,510.682L634.748,512.617L638.767,513.723L641.725,511.456L641.558,508.663L643.623,507.115L644.014,504.322L641,502.082L638.041,498.017L636.645,499.455L630.98,496.165L629.444,497.16L624.672,495.473L623.583,496.414L621.657,493.648L622.718,491.74L621.769,489.251L623.025,487.398L620.262,485.49L620.876,483.554L618.643,482.088L619.648,479.737L616.047,474.786L606.892,465.132L600.947,461.701L600.277,456.943L598.547,455.421L598.351,451.797L594.527,448.836L590.955,448.892L590.034,447.564L593.299,444.105L591.401,442.085L593.271,439.484L593.132,436.302L591.346,430.712L588.917,430.047L593.16,425.758L595.476,425.647L595.365,422.492L593.885,419.53L591.318,417.87L586.098,420.001L584.507,419.364L581.297,420.61L581.577,418.451L580.014,415.572L576.357,417.593L575.52,413.026L576.804,410.59L575.604,407.296L569.882,402.729L564.69,401.178L560.392,402.064L557.936,407.435L552.995,408.985L543.952,407.905L532.899,404.999L526.452,404.417L524.052,405.441L520.646,403.144L512.775,406.161L509.984,400.625L505.825,397.053L501.36,395.032L488.548,391.959L480.594,390.879L468.48,390.326L460.693,391.322L453.799,393.15L452.962,395.088L451.092,392.901L442.579,391.489L436.243,394.008L431.526,393.288L425.497,393.703L424.241,394.839L418.045,395.42L419.412,394.423L410.704,395.946L402.024,394.949L384.188,396.583L376.792,398.133L368.977,400.818L364.204,405.386L360.52,405.026L319.323,415.351L313.629,416.486L304.585,419.475L294.844,424.568L287.727,427.584L279.465,432.068L270.338,434.807L264.896,437.99L261.937,441.504L247.646,454.398L243.655,457.081L235.031,461.342L225.652,469.641L221.745,473.596L213.567,478.769L209.687,484.3L207.538,493.233L208.431,500.368L207.203,504.875L207.957,512.23L207.147,517.539L204.384,522.073L204.496,528.127L203.854,529.896L206.115,533.075L205.975,534.927L203.128,538.299L202.542,542.915L205.11,548.305L208.961,551.483L210.58,557.535L206.338,562.012L206.505,564.14L209.352,565.273L209.966,569.86L209.464,573.258L207.398,574.17L211.139,575.22L214.209,579.198L216.86,580.276L218.033,579.226L221.577,579.475L223.112,581.989L222.052,582.928L225.401,584.972L224.034,587.238L219.735,585.553L219.317,587.072L215.549,586.879L212.785,582.597L208.208,582.072L204.747,577.734L198.551,575.662L194.169,577.264L190.345,576.242L184.483,580.58L185.069,581.491L180.38,586.078L177.617,585.525L171.086,587.183L167.932,587.072L166.843,586.989L165.811,586.906L165.225,586.851L160.815,587.376L155.902,586.464L150.152,583.895L148.924,582.376L145.519,581.878L137.509,582.32L136.364,582.072L135.778,581.298L134.857,581.049L132.233,580.221L131.452,579.972L130.754,579.723L130.196,579.668L129.582,579.668L126.288,579.723L124.251,577.237L123.748,577.016L121.292,576.905L120.706,576.878L115.682,575.855L114.314,576.408L113.561,576.574L107.42,576.878L105.634,575.8L105.606,571.241L107.839,569.611L107.504,566.986L105.495,566.24L104.992,565.991L103.792,564.996L105.857,561.763L106.136,561.211L106.443,558.945L106.192,558.447L105.048,557.894L106.248,554.274L103.569,551.013L103.485,548.084L99.242,543.496L99.521,541.506L95.837,541.533L95.53,541.367L89.669,540.704L89.111,540.4L82.524,534.761L82.161,534.181L77.974,528.182L77.053,527.519L72.894,522.626L72.224,522.266L69.349,520.773L69.07,520.718L68.484,516.93L68.149,516.156L68.54,513.336L68.652,512.728L69.126,507.696L64.046,501.999L63.935,500.008L64.214,499.455L65.414,497.52L65.302,496.579L65.163,496.137L64.939,495.833L63.963,493.814L63.6,492.984L61.423,489.859L61.674,485.075L60.111,483.36L59.636,483.083L58.576,482.503L60.976,478.271L58.52,475.532L58.827,472.766L57.068,468.645L58.129,464.495L57.655,463.776L57.152,457.579L58.157,455.477L58.213,454.702L58.017,451.465L59.943,448.117L63.823,444.437L64.102,440.923L68.093,435.222L68.875,434.973L70.187,432.261L76.132,425.647L76.662,424.983L79.37,423.156L84.226,422.686L84.226,419.254L84.645,418.755L86.152,415.683L85.985,415.074L85.845,414.77L85.51,413.773L87.268,408.902L89.557,399.628L88.999,398.714L88.748,396.527L91.678,392.264L91.539,391.544L91.455,389.91L93.883,388.194L94.609,387.363L97.121,379.555L97.037,378.946L96.507,378.503L93.465,373.906L93.297,373.38L89.557,369.004L89.334,366.152L89.083,365.82L89.055,365.598L89.306,365.183L89.836,364.49L90.004,363.826L88.887,362.136L88.692,361.61L87.827,359.671L87.855,359.034L87.38,356.154L90.702,350.503L92.041,346.819L89.278,345.656L88.859,346.182L86.236,343.938L86.208,341.75L86.319,341.418L86.794,340.448L86.319,339.672L86.04,339.118L85.845,337.761L84.226,330.142L85.398,328.507L81.379,323.576L78.923,319.392L80.933,310.275L81.016,307.781L80.793,307.254L80.849,306.312L80.961,305.869L81.547,303.097L81.686,302.682L81.602,302.377L81.407,301.878L79.984,299.55L75.825,297.693L75.295,297.721L71.219,297.804L65.749,299.411L62.148,296.224L57.71,296.141L57.068,296.086L56.343,296.03L55.785,295.781L52.631,295.947L49.895,299.273L46.406,299.799L43.755,298.829L41.438,299.827L33.037,300.104L30.971,301.712L30.218,301.795L23.491,302.072L23.073,301.934L20.393,300.936L19.36,300.548L13.387,301.074L10.708,299.966L5.851,300.88L5.433,300.769L4.93,300.686L4.4,295.254L6.438,288.851L9.536,287.05L10.178,286.495L13.108,284.804L13.276,284.472L14.225,279.288L17.323,278.346L17.742,272.33L14.085,267.561L13.722,265.399L15.285,262.571L14.839,259.853L17.965,257.108L19.053,254.086L23.966,249.094L23.742,247.514L24.133,247.347L28.348,244.962L28.683,244.602L31.39,242.467L31.893,242.078L37.196,237.78L37.866,237.613L38.703,236.31L39.177,235.367L41.243,234.451L41.522,234.257L43.448,232.704L52.324,231.317L56.231,227.961L59.664,229.431L59.692,229.93L61.004,231.04L63.935,227.24L66.614,225.742L67.479,223.329L67.842,222.58L70.187,220.083L70.912,219.861L77.137,219.584L77.36,219.584L78.811,218.447L87.157,219.168L87.603,218.946L87.771,218.724L88.078,218.391L93.437,213.204L98.042,214.064L98.461,214.175L100.498,213.564L100.778,213.065L104.825,212.038L105.132,208.099L107.755,203.299L113.533,200.941L115.738,196.085L119.366,192.2L121.432,180.351L126.484,179.38L127.712,181.156L134.076,182.738L138.96,180.74L139.63,180.629L141.835,178.908L146.775,180.046L152.274,176.993L154.06,177.104L154.758,177.354L157.186,177.687L158.582,174.911L163.969,168.084L164.471,167.584L168.239,165.391L168.686,165.003L170.528,163.365L170.891,163.087L173.654,161.339L175.915,155.509L178.706,155.565L180.715,150.762L180.911,150.401L182.474,148.514L180.659,146.848L180.743,142.433L180.492,141.85L181.999,138.158L180.715,136.047L183.451,131.938L186.298,129.633L189.089,128.995L191.684,126.218L191.852,125.884L195.452,121.913L196.708,118.164L195.843,114.804L195.955,114.498L195.899,113.526L194.252,111.832L194.224,111.332L195.229,107.944L194.308,105.027L194.671,104.527L194.894,102.472L194.922,101.694L193.331,100.777L192.857,100.694L192.047,99.305L192.271,99.139L192.913,99.166L193.275,99.305L192.968,98.611L189.954,98.139L189.759,92.999L190.261,92.388L192.913,88.082L195.452,87.527L195.676,87.249L196.988,82.998L197.295,81.72L198.411,75.663L199.723,73.135L199.276,70.94L194.922,66.577L200.839,62.492L199.36,60.519L193.582,56.962L193.694,56.573L191.238,54.238L190.791,51.959L191.88,46.568L190.875,44.372L192.578,40.453L192.633,40.008L192.829,38.59L193.024,38.034L194.42,36.283L193.554,32.586L191.042,28.75L190.791,28.722L189.479,26.47L189.256,26.109L187.219,23.245L187.219,22.856L187.107,22.578L186.912,22.355L186.688,22.216L186.381,21.855L186.66,18.463L187.219,18.213L187.805,17.323L188,16.712L187.749,13.764L191.433,10.984L194.448,6.257L196.932,5.784L198.132,0.945L198.411,0.695L200.337,0L201.314,0.334L202.095,0.584L202.765,0.417L203.156,0.584L203.686,1.196L204.942,2.531L205.277,2.642L205.417,2.642L206.142,2.475L206.589,2.503L207.008,2.697L207.873,2.975L208.292,3.059L208.431,3.504L208.515,3.865L208.85,4.31L209.827,4.7L209.994,4.839L210.999,5.951L211.529,6.34L211.864,6.507L212.339,6.674L214.013,6.674L216.163,6.785L217.139,7.035L217.865,7.341L218.033,7.48L218.786,7.397L219.819,7.008L220.6,6.924L221.103,7.091L221.27,7.063L221.717,6.59L222.219,6.451L222.833,6.173L225.066,5.45L225.457,6.007L225.764,6.479L226.266,6.757L227.02,6.952L227.327,7.258L227.467,7.703L227.55,7.897L227.802,8.175L228.137,8.231L228.36,8.37L228.499,8.732L228.304,9.621L228.332,9.844L228.499,10.511L228.751,10.845L229.365,11.067L229.42,11.178L229.588,11.762L229.672,11.846L230.369,12.263L230.286,12.597L230.09,14.209L230.258,15.099L230.788,15.433L231.598,17.24L231.625,17.407L231.598,17.851L231.179,18.63L231.067,18.797L231.039,19.742L230.872,21.16L230.621,21.466L230.062,22.077L229.811,22.689L229.979,23.634L230.202,24.135L230.565,24.163L230.928,24.024L231.458,23.996L231.737,23.968L232.072,23.746L232.267,23.634L232.798,23.829L233.412,24.329L233.802,24.58L234.165,24.691L234.779,24.885L235.505,24.774L235.868,24.774L236.231,24.885L236.817,25.219L238.017,25.997L238.157,26.414L238.296,27.165L238.547,27.387L238.854,27.721L239.329,28.166L239.692,28.805L240.083,29.083L240.836,29.973L241.115,30.167L242.846,29.973L243.097,29.973L244.074,30.279L244.911,30.445L245.888,30.529L247.507,29.611L249.461,29.111L250.466,29.167L250.884,29L251.833,28.194L252.643,27.665L252.866,26.72L253.145,24.858L253.787,24.19L254.987,23.69L255.406,23.885L255.741,23.885L256.243,23.69L257.192,22.55L257.667,22.3L258.978,22.105L259.09,22.105L259.592,22.022L259.732,22.077L260.011,22.355L260.653,22.439L261.016,22.467L261.295,22.383L261.407,22.272L261.965,22.355L262.16,22.55L262.495,22.578L262.607,22.634L262.746,22.856L263.165,23.468L263.64,23.523L264.002,23.468L264.393,23.468L264.561,23.523L264.896,23.773L265.705,24.83L265.789,25.108L266.794,25.747L268.022,25.803L268.775,26.136L270.143,26.248L270.366,26.526L271.008,27.082L271.148,27.248L271.399,27.443L272.125,27.721L272.739,28.444L273.157,28.777L273.883,29.973L273.995,30.39L273.883,30.612L273.269,31.613L273.157,33.142L272.795,34.476L272.795,34.615L273.074,35.116L273.213,35.338L273.381,35.727L273.771,37.006L273.799,37.284L273.688,37.784L273.548,38.618L273.576,38.896L273.883,39.869L274.246,40.175L274.692,40.981L274.804,42.148L275.055,42.537L275.362,42.648L275.669,42.926L276.228,43.26L276.507,43.343L276.618,43.566L276.814,44.678L277.26,45.539L278.042,46.401L278.488,46.707L278.795,47.346L279.102,47.985L279.075,48.513L278.851,48.986L277.958,50.042L277.846,50.236L277.623,50.681L277.344,51.07L277.484,51.932L278.014,52.293L279.493,52.765L280.917,53.321L283.261,54.794L283.205,55.572L283.345,55.878L283.652,56.128L284.043,56.712L284.461,57.379L284.852,57.629L285.159,57.629L285.522,57.851L285.913,58.518L286.192,59.102L286.415,59.38L286.611,59.88L286.722,60.325L286.89,61.297L287.225,61.881L287.001,63.076L286.806,63.909L286.666,64.354L287.225,64.854L287.587,65.16L287.811,65.466L288.202,65.799L288.899,66.216L289.15,66.466L289.569,66.994L289.932,67.188L290.546,67.439L290.881,67.633L291.272,68.105L291.802,68.772L292.025,68.939L292.639,69.689L293.672,69.662L293.979,70.356L294.007,71.523L294.23,72.301L294.956,73.135L295.403,73.218L295.542,73.274L296.184,73.607L298.166,73.607L298.724,73.802L299.254,74.052L300.203,74.524L300.622,74.858L301.376,74.83L302.269,74.913L303.301,75.524L303.72,76.08L304.892,76.775L305.451,77.025L306.121,78.081L306.762,78.72L307.963,77.831L309.191,77.442L309.833,77.08L311.256,76.052L311.703,75.886L312.652,76.525L314.215,77.08L314.94,77.414L316.057,77.497L316.783,77.942L317.369,77.803L318.318,77.136L318.401,76.441L318.653,76.08L318.681,75.886L318.904,75.274L319.155,74.858L319.211,73.802L319.016,73.079L319.183,71.801L320.579,71.19L321.193,70.356L321.667,70.217L322.309,70.134L323.342,69.745L323.956,69.662L324.179,69.356L324.654,69.078L324.849,69.078L325.91,68.772L326.245,68.467L328.17,68.55L329.036,68.133L329.119,68.05L329.538,67.8L329.845,67.8L330.85,67.967L331.994,67.633L332.078,67.355L332.497,66.855L332.636,66.688L333.027,66.438L333.585,66.216L333.781,66.16L334.143,65.966L334.311,65.882L334.981,66.049L336.069,66.105L336.6,65.827L336.962,66.188L337.046,66.577L338.581,66.799L339.084,67.05L339.195,67.105L339.474,67.05L339.614,67.105L340.144,67.161L340.34,67.327L341.624,67.272L342.628,67.522L342.935,68.05L343.103,68.3L343.968,68.578L344.024,68.522L344.498,68.244L344.554,68.161L345.475,69.217L345.922,69.3L346.759,70.578L347.011,71.718L348.267,72.079L348.518,72.079L348.294,72.635L348.741,72.857L348.992,73.357L349.439,73.718L350.416,73.357L350.667,74.107L352.035,74.58L352.872,74.885L352.956,75.302L353.514,75.441L353.765,75.358L353.765,74.746L354.1,74.635L354.24,74.607L354.63,75.108L354.909,74.913L355.077,74.83L355.216,74.524L355.468,74.552L356.11,74.913L356.137,74.913L356.221,74.607L356.752,74.719L356.556,75.108L358.231,75.886L361.469,75.413L361.441,75.719L361.496,75.774L362.138,75.524L362.585,75.802L362.92,75.052L362.976,74.83L362.864,74.496L363.171,74.496L365.237,74.163L365.851,74.274L366.437,73.968L368.195,73.357L369.032,73.579L369.06,74.024L369.451,74.107L369.619,73.913L370.679,74.441L371.265,74.941L371.405,75.163L371.489,74.913L371.6,74.83L371.712,74.941L371.963,75.358L372.884,75.497L373.331,75.441L373.554,75.691L373.805,76.136L374.364,76.163L375.48,76.775L375.759,76.664L375.899,76.83L376.038,76.858L376.15,76.525L376.345,76.497L377.183,76.747L377.406,76.441L377.49,76.025L377.629,75.858L377.713,75.969L378.606,75.802L378.885,75.941L379.192,75.969L379.36,76.358L380.141,76.302L380.504,75.969L381.006,75.997L381.676,75.913L383.909,75.636L384.049,75.219L385.026,74.469L385.723,74.469L385.947,74.774L386.896,75.108L387.761,76.33L387.928,77.053L388.18,76.997L388.235,76.525L388.487,76.691L388.515,76.83L388.738,77.219L388.877,77.275L389.268,77.497L389.408,77.664L389.938,77.775L390.329,77.914L391.78,78.331L392.227,77.969L392.366,78.331L392.338,78.47L392.897,78.414L393.036,78.053L395.102,79.442L396.609,79.414L397.418,79.998L397.39,80.22L397.669,80.526L397.781,80.498L397.865,80.164L397.976,80.192L398.2,80.275L398.73,80.109L398.786,79.97L399.037,79.998L399.009,80.164L400.293,81.47L402.386,82.081L402.973,82.109L403.754,81.998L404.703,81.692L405.373,81.415L406.768,81.804L406.768,81.998L406.88,82.22L409.057,83.193L410.425,84.637L413.914,86.832L414.891,86.638L415.142,86.11L415.198,86.054L415.756,86.499L417.012,86.943L417.347,87.304L418.184,88.832L418.966,89.721L419.998,90.416L420.808,90.833L420.864,91.388L421.478,91.388L421.729,91.249L422.259,91.027L422.566,91.388L422.622,91.527L423.404,92.138L423.515,91.861L424.073,91.777L424.185,91.61L424.297,91.861L424.213,91.999L424.269,92.583L425.581,93.472L425.553,93.861L425.469,94.083L425.636,94.277L426.334,94.388L426.446,94.027L426.418,93.611L428.4,93.166L428.344,93.333L428.372,93.638L428.511,93.555L428.763,93.194L429.377,93.222L429.879,93.75L431.051,96.277L431.163,96.527L431.582,96.861L432.391,96.777L432.726,96.5L433.256,96.666L433.452,96.583L433.787,96.555L434.094,96.444L434.345,96.416L434.68,96.944L434.903,97.333L434.931,98.111L435.545,97.916L436.019,98.361L436.131,98.361L436.243,97.972L437.08,97.861L437.303,97.694L437.527,97.916L438.113,97.777L438.922,97.555L439.425,97.777L439.48,97.889L438.978,98.777L438.894,98.972L439.034,99.25L439.118,99.694L439.229,100.111L439.397,100.639L439.927,100.777L440.095,100.861L440.234,101.027L440.178,101.333L439.899,101.972L440.374,102.111L440.597,102.916L440.625,104.999L440.96,105.944L441.183,106.249L441.49,106.583L441.602,106.472L442.104,106.499L442.244,106.388L441.992,107.055L442.969,107.666L443.611,107.638L444.253,107.499L445.677,107.277L446.207,107.277L446.961,107.444L447.156,107.527L448.3,109.666L448.384,110.193L449.054,112.138L449.221,112.582L449.947,113.804L450.226,114.387L450.394,114.887L450.757,116.553L450.812,116.72L451.008,117.192L451.064,117.387L451.147,117.887L451.315,117.942L451.65,117.859L453.213,119.469L454.19,120.553L454.162,120.691L454.022,121.497L453.799,122.135L454.022,122.08L454.134,122.58L454.301,122.746L455.222,122.746L455.418,122.802L455.781,122.635L456.73,123.552L457.344,123.996L459.242,124.968L459.939,125.607L460.442,126.967L460.665,128.578L461.084,129.3L462.814,130.855L463.484,131.716L464.014,132.16L464.294,133.16L464.517,133.271L464.628,133.299L464.628,134.02L464.349,134.187L464.573,134.548L465.41,135.381L465.884,135.742L468.341,137.214L468.313,137.297L468.843,138.324L469.066,138.824L469.345,138.796L469.373,139.213L469.904,139.768L470.601,139.712L471.048,139.685L471.439,139.851L472.444,139.629L472.583,139.74L473.393,140.24L473.644,140.462L473.532,140.823L473.783,140.768L474.649,141.878L474.704,141.961L475.235,142.794L475.626,143.211L476.63,143.794L477.747,144.21L478.947,144.738L479.254,144.46L479.449,144.183L479.784,144.321L480.119,144.766L480.259,145.543L480.119,145.598L480.929,146.848L481.236,147.347L482.213,148.291L482.603,148.791L482.966,149.68L483.022,150.346L482.966,151.262L483.831,152.789L484.055,152.733L484.39,152.983L484.529,153.455L484.864,153.372L485.143,153.76L485.143,153.899L485.339,154.01L485.422,154.205L485.813,154.704L486.539,155.232L486.957,155.454L487.739,155.898L488.409,156.536L488.883,157.591L488.967,157.73L489.665,158.563L491.284,159.673L491.34,159.618L491.535,159.479L491.647,159.756L491.563,160.034L491.647,160.117L491.954,160.062L492.121,160.867L492.177,161.033L492.009,161.533L491.842,161.283L491.284,161.589L491.088,162.338L490.53,163.448L490.251,163.892L489.386,165.086L488.8,166.169L488.772,166.474L488.828,167.084L489.386,168.111L490.056,168.583L490.335,168.667L491.395,168.916L492.791,169.249L493.154,169.36L494.828,169.888L496.615,171.553L496.866,172.108L497.089,172.885L497.089,175.161L497.145,176.299L497.871,178.991L498.596,180.24L499.183,181.128L499.992,182.127L500.718,183.265L500.801,183.542L500.941,184.181L500.997,184.542L500.941,185.596L500.829,186.456L500.522,188.038L500.467,188.399L501.89,188.926L502.169,188.926L503.034,188.676L503.788,188.76L504.402,189.037L504.653,189.231L505.742,189.62L505.937,189.648L506.495,189.509L506.747,189.481L507.584,189.509L508.254,189.537L508.896,189.287L510.263,188.621L511.101,188.26L511.575,187.872L512.72,187.511L514.031,187.122L514.618,186.984L515.148,186.845L515.064,186.207L513.864,185.763L512.524,185.152L511.659,183.376L511.101,182.432L509.566,179.963L509.314,179.407L508.784,178.658L510.319,176.521L510.961,175.911L511.826,174.745L513.78,171.553L514.143,170.804L514.45,169.888L514.925,169.61L515.594,169L515.762,169.027L516.627,169.249L517.102,169.194L517.297,168.778L517.13,168.111L516.739,167.501L516.599,167.057L516.627,166.502L517.157,165.641L517.437,165.225L518.218,164.392L518.33,163.67L518.302,163.504L517.827,162.671L517.464,162.31L517.381,161.672L517.688,161.283L517.744,160.978L518.33,160.561L518.386,160.006L517.967,159.423L517.604,159.146L517.464,158.313L517.13,157.73L516.878,156.953L516.683,156.398L517.157,154.316L517.381,153.622L517.297,153.316L517.325,152.955L517.548,152.372L516.823,151.54L515.846,151.317L515.901,150.54L516.013,150.179L515.929,148.874L515.846,148.708L515.483,148.208L514.785,147.681L513.306,147.153L512.887,146.653L512.775,145.848L512.552,144.932L512.133,144.21L511.798,143.239L511.826,142.267L512.05,140.99L512.301,140.268L512.636,140.018L512.999,139.879L513.473,139.074L513.696,138.047L513.752,137.075L513.389,136.047L513.25,135.298L513.306,134.048L513.25,133.16L513.473,132.549L513.417,131.577L513.389,130.938L512.72,128.55L512.413,128.217L511.826,127.19L511.408,126.19L511.324,125.607L511.045,125.329L510.375,125.024L509.594,124.274L509.51,124.107L509.286,123.163L508.226,121.997L507.305,123.413L507.054,125.135L506.774,125.19L506.384,125.135L505.463,124.801L504.123,124.302L503.425,124.274L503.034,124.357L502.727,124.218L502.169,122.358L501.053,121.552L501.332,120.303L501.527,119.553L502.002,119.081L502.197,118.664L501.89,118.081L501.834,117.914L501.778,117.303L501.918,116.304L502.309,114.026L502.448,113.832L502.923,113.193L504.067,112.554L504.402,111.527L504.709,110.693L505.435,109.443L505.686,108.555L505.798,107.638L505.407,106.638L505.435,106.333L505.742,105.749L506.356,104.638L506.635,104.194L507.221,102.944L507.193,102.555L507.221,102.277L507.612,102.194L507.751,102.083L508.03,101.361L508.337,100.444L508.812,100.666L509.203,100.389L509.649,100.333L509.733,100.583L509.677,100.805L509.259,100.972L509.286,101.805L509.426,101.916L510.515,101.527L510.85,101.361L511.966,100.805L512.329,100.805L513.362,100.889L514.031,99.777L514.255,99.527L515.287,98.527L515.985,97.555L516.739,97.416L517.464,97.416L518.023,97.694L520.004,97.805L520.284,97.889L520.004,100.472L519.753,101.555L519.558,102.083L519.474,102.277L519.111,103.861L518.86,104.444L518.609,104.444L518.218,104.499L517.744,104.361L517.157,104.277L516.599,105.083L516.181,106.444L515.79,107.471L514.869,111.554L514.506,111.749L514.087,112.193L514.534,112.582L514.701,112.749L514.897,113.137L515.092,113.387L515.901,113.582L516.32,114.082L516.515,114.304L517.213,114.776L517.241,115.137L516.906,116.276L517.018,116.553L517.353,116.581L517.995,116.831L518.19,117.192L518.413,118.359L518.748,119.025L519.223,120.108L519.586,120.969L519.669,121.219L519.642,121.58L519.558,122.441L520.06,122.913L520.479,122.941L521.595,123.107L522.07,122.663L523.075,121.969L523.354,121.469L523.493,121.275L523.884,120.886L524.107,120.553L524.414,119.997L525.224,119.358L526.033,119.636L526.508,118.664L526.871,118.109L527.122,117.692L527.122,117.053L527.205,116.665L527.736,116.026L527.931,115.998L529.02,115.776L530.22,115.331L530.248,115.276L529.885,114.026L529.885,113.36L531.141,112.582L532.118,112.388L532.648,112.221L533.374,111.943L533.82,111.943L534.267,112.249L534.714,112.304L535.383,111.804L535.97,109.888L536.081,109.555L536.025,109.138L535.691,108.499L535.691,108.249L536.249,108.166L536.109,107.805L535.886,107.805L535.774,107.277L535.663,107.277L535.272,107.638L534.602,108.332L534.379,108.416L534.183,108.138L533.458,107.138L532.927,106.472L532.62,106.194L532.285,106.055L531.448,105.472L531.532,104.777L531.448,104.583L530.025,103.611L529.159,102.111L528.769,101.583L528.489,101.416L527.736,100.916L527.15,100.333L526.954,100.972L526.424,100.944L526.173,100.805L525.894,100.277L525.475,100L524.833,99.833L524.666,99.472L524.414,99.416L524.052,99.666L524.024,99.583L523.772,98.861L523.856,98.416L523.828,98L523.633,97.944L523.465,97.389L523.717,96.583L524.359,95.944L524.498,95.694L523.968,94.916L523.8,94.555L523.689,94.027L523.772,93.777L523.968,93.444L524.024,93.138L523.912,92.888L523.8,92.638L523.633,92.527L523.214,92.499L522.265,93.305L522.154,93.111L522.265,92.749L522.154,92.638L522.042,92.694L521.874,92.861L521.567,92.333L521.428,92.361L521.009,92.666L520.842,92.388L520.06,91.916L519.725,91.666L519.753,91.444L518.888,91.666L518.832,91.305L518.888,91.194L519.055,90.694L518.581,90.555L518.33,90.694L518.162,91.305L518.023,91.555L517.883,91.583L517.716,91.11L517.827,90.166L517.799,89.694L516.683,89.499L516.571,89.305L516.292,88.971L516.097,88.388L515.874,88.388L515.65,87.721L515.678,87.332L515.65,87.11L515.399,87.027L514.59,87.805L514.366,87.832L514.422,87.721L514.394,87.138L514.45,86.943L515.064,85.915L514.813,85.749L514.255,86.165L513.752,85.943L513.082,85.721L512.943,85.888L512.636,86.249L512.301,86.388L511.771,86.415L511.715,86.388L511.659,85.86L511.771,85.61L512.273,85.443L512.022,84.971L511.715,85.11L511.045,85.11L511.268,85.693L511.268,85.999L511.157,85.832L509.733,81.692L508.7,81.053L508.421,80.97L506.774,80.831L506.077,80.887L505.044,80.414L504.374,79.775L503.872,79.553L503.453,79.275L503.341,78.581L502.811,77.497L502.755,76.691L502.42,76.302L501.583,75.58L501.108,75.219L500.662,74.691L500.187,74.163L499.88,73.635L499.434,73.274L499.294,72.913L499.322,72.718L499.518,71.357L499.518,71.023L499.099,70.217L498.959,70.051L498.652,69.967L498.541,70.023L498.429,70.189L498.289,70.69L497.815,70.773L497.592,70.523L496.531,70.745L496.447,70.94L496.475,71.301L496.391,71.607L495.498,71.634L494.41,71.273L493.963,71.301L493.377,71.829L493.182,72.023L492.875,72.162L492.316,72.162L491.898,72.19L491.172,72.579L489.888,74.135L489.497,74.469L489.162,74.858L488.772,75.024L487.572,75.497L487.488,75.163L486.818,73.218L486.846,71.746L486.26,71.384L485.813,70.634L485.757,70.189L484.445,68.633L484.027,67.994L484.194,67.216L485.255,65.855L485.227,65.188L485.701,64.104L486.064,63.687L486.26,63.604L486.706,63.104L486.79,61.603L487.013,61.019L487.237,60.047L487.32,59.991L487.404,60.13L487.655,60.519L488.13,60.352L488.521,60.464L488.967,60.575L489.33,60.436L489.525,60.186L489.721,59.797L490.056,59.546L490.223,59.463L490.586,59.491L490.865,59.435L491.535,58.852L491.619,58.685L491.898,58.046L492.149,57.768L492.763,57.407L493.684,56.49L494.019,56.212L494.856,54.266L495.47,53.043L495.75,52.849L496.419,53.016L497.257,53.46L498.317,53.961L498.764,54.655L498.792,55.823L499.657,57.018L500.885,57.962L503.174,58.49L505.184,58.685L505.937,58.796L506.467,58.741L508.142,60.047L507.919,60.241L507.891,61.075L508.03,61.631L508.533,63.604L508.561,64.771L508.254,65.549L508.03,66.049L508.533,66.16L509.705,65.382L510.124,65.382L510.598,65.66L511.184,65.882L511.324,65.994L511.575,67.077L511.938,67.605L512.413,68.995L512.636,69.439L513.362,69.717L514.422,70.94L515.176,71.023L517.046,71.218L517.576,71.301L518.609,72.051L519.055,72.968L519.223,73.413L519.279,74.163L519.558,74.774L519.976,75.747L520.116,75.802L521.4,74.913L521.567,74.774L522.516,74.413L523.326,74.191L523.912,74.107L524.693,74.469L524.889,74.496L525.503,74.496L526.731,75.108L526.954,74.941L527.15,75.108L527.736,74.969L528.406,74.524L528.796,74.496L529.271,74.524L529.355,73.163L529.494,72.496L528.462,70.801L527.903,69.912L526.48,67.939L526.089,67.3L525.922,67.105L525.475,66.494L525.224,65.91L525.084,64.549L525.001,64.326L524.414,63.215L524.442,62.548L524.61,61.631L524.693,61.436L525.894,61.019L526.34,60.658L527.708,60.186L528.182,59.324L528.769,58.213L529.159,57.851L530.08,57.018L530.806,56.351L531.56,56.295L532.425,55.433L532.816,55.183L533.095,55.183L533.82,55.183L534.239,55.156L534.602,55.211L534.937,55.322L535.356,54.878L535.914,54.516L536.277,54.35L537.058,54.238L538.119,53.933L538.23,53.988L538.705,54.6L538.817,54.739L539.626,54.238L540.017,53.794L540.575,53.544L542.389,53.293L542.947,52.932L543.924,52.237L544.231,51.348L544.566,50.514L544.594,50.236L544.706,49.458L544.483,48.735L544.399,47.846L545.152,46.651L545.85,46.762L546.492,45.845L546.604,45.789L546.827,45.845L547.19,45.678L547.692,46.012L548.334,45.706L549.339,45.317L550.651,44.539L550.511,43.482L550.288,43.288L549.562,42.732L549.339,42.343L549.227,41.175L549.06,40.592L548.865,40.091L548.334,38.813L549.004,38.979L549.562,38.729L550.204,38.007L550.707,37.228L550.986,36.45L551.07,36.144L551.46,34.476L551.628,34.393L552.186,33.531L553.247,33.587L556.624,34.087L559.192,35.449L561.62,36.811L561.788,36.895L564.495,37.451L567.146,38.396L570.775,39.174L571.026,39.758L571.808,39.841L572.198,39.869L572.366,39.98L572.98,40.842L573.427,41.787L573.65,42.315L574.599,42.76L575.352,42.871L580.153,42.843L582.749,43.482L583.391,43.733L585.652,44.761L585.847,45.039L585.791,45.845L585.987,45.928L588.722,47.652L588.861,47.763L588.945,47.985L588.61,49.125L588.415,50.403L588.471,50.486L589.113,50.598L589.615,50.625L591.96,52.071L592.127,52.321L592.881,53.127L594.137,54.044L595.672,54.989L598.268,56.267L598.993,56.434L599.97,56.49L600.138,56.378L600.696,56.184L601.421,56.212L602.287,56.573L602.817,56.656L603.878,56.684L605.859,57.323L607.674,58.324L609.32,59.546L609.962,59.797L610.576,60.186L611.804,60.853L612.865,61.103L613.591,61.019L615.238,60.38L615.405,60.269L616.326,60.102L616.801,60.13L618.364,60.102L618.95,60.102L619.536,60.352L622.076,62.075L622.494,62.353L624.169,63.326L624.811,63.493L625.816,63.27L627.435,62.353L630.533,63.187L630.924,63.826L631.454,64.576L632.124,64.854L632.459,65.104L633.017,65.605L633.547,65.827L634.496,65.466L635.808,65.243L636.757,65.855L639.185,67.494L640.386,67.994L641.725,69.773L642.591,70.356L644.126,70.856L644.991,71.718L645.075,71.468L647.977,72.996L647.894,73.802L649.206,75.247L650.127,76.08L650.713,76.552L651.243,76.83L651.801,76.941L652.499,77.136L652.862,77.442L653.448,78.192L654.118,78.97L654.509,79.498L660.928,84.526L661.514,85.026L662.798,85.776L663.775,87.138L664.389,88.388L665.813,89.499L668.157,90.972L668.911,91.444L669.692,91.833L669.944,91.916L670.837,91.944L672.065,91.833L672.204,92.222L675.275,91.777L676.698,91.833L677.256,92.083L678.764,93.527L680.243,95.388L680.578,95.777L682.392,99.777L683.006,102.166L683.201,103.5L684.513,107.61L685.323,109.916L686.16,112.332L687.249,115.942L688.03,118.081L688.198,118.386L689.677,120.83L691.993,122.969L692.663,123.441L693.808,124.135L695.706,125.024L697.687,126.051L698.469,126.606L699.892,127.745L700.646,128.134L701.483,128.356L702.097,128.467L703.688,128.634L705.223,128.772L706.256,128.856L707.708,129.217L708.601,129.605L710.024,130.411L710.973,131.16L711.643,131.744L712.592,132.938L712.983,133.798L713.039,133.993L712.955,134.992L712.899,135.298L712.564,136.158L712.201,136.714L710.834,137.769L709.41,139.213L709.075,139.629L708.294,140.434L707.847,140.879L707.512,141.378L707.373,141.712L707.233,142.711L707.261,144.21L707.289,144.599L708.182,147.125L708.712,148.069L709.187,148.652L709.913,149.319L711.224,150.151L712.648,150.734L713.541,150.957L715.355,150.957L719.598,150.485L723.561,149.43L725.599,148.736L726.771,147.819L727.329,147.236L729.339,145.182L731.097,143.933L735.033,143.155L736.512,143.627L737.098,144.016L738.912,145.737L739.471,145.904L740.364,145.765L742.373,143.044L742.904,142.184L745.109,141.184L745.806,141.351L746.839,141.462L747.397,141.684L748.653,142.211L751.277,142.628L753.119,142.128L753.566,141.878L757.752,141.934L759.064,141.878L760.348,141.878L763.223,143.572L764.87,144.627L768.414,146.57L771.429,148.291L775.225,151.012L777.988,152.955L776.174,155.454L787.98,164.003L790.269,168.916L795.6,170.443L791.525,176.244L793.897,178.048L790.716,182.377L781.309,176.327L777.765,180.462L774.22,177.437L776.397,174.689L775.309,173.774L772.238,175.716L768.889,168.334L771.234,165.724L768.219,166.807L764.032,157.591L759.902,157.508L755.715,154.26L755.157,156.981L757.557,156.37L759.399,158.063L759.455,160.339L750.635,170.082L743.266,174.773L743.908,176.244L749.77,173.302L750.998,173.857L753.342,180.767L753.063,183.459L739.638,190.369L738.354,180.185L738.996,177.354L737.796,173.829L736.484,174.134L736.261,178.63L737.433,192.062L734.642,193.061L727.106,197.417L721.747,187.761L722.305,186.512L726.464,184.347L726.073,183.57L719.319,186.651L725.375,198.027L705.921,208.654L704.637,204.27L707.68,202.606L707.373,200.996L704.386,202.661L703.13,199.415L699.585,201.773L698.413,196.196L698.748,202.328L700.395,207.378L702.767,211.539L699.781,214.313L697.073,213.315L692.859,214.924L692.859,220.943L687.36,222.774L686.076,224.716L680.857,226.546L680.466,220.083L685.099,218.474L681.89,212.593L682.252,211.456L686.439,209.375L685.825,208.127L680.969,210.568L678.652,209.985L681.555,215.839L667.794,216.81L665.589,211.428L662.798,212.677L665.701,215.534L665.701,217.087L659.505,217.531L655.318,222.719L655.486,226.241L653.616,229.459L649.987,229.098L648.954,230.208L653.867,231.012L653.56,238.057L656.072,239.832L657.356,238.196L657.914,241.108L659.282,239.36L659.449,247.874L663.189,242.078L663.999,242.605L660.258,248.568L661.319,248.29L665.952,251.59L670.725,244.741L670.837,247.375L675.303,248.956L677.256,245.961L678.484,246.793L676.531,249.788L670.558,252.45L673.544,255.86L676.14,253.309L676.977,254.169L682.587,244.768L686.16,246.515L680.969,256.997L683.313,258.522L687.025,250.952L687.918,253.614L692.608,255.5L687.081,266.535L689.733,267.866L696.124,255.001L700.786,258.106L696.096,271.969L690.235,271.775L692.496,274.437L691.072,277.154L688.477,274.714L687.472,275.795L691.128,280.646L689.454,283.502L692.384,284.86L690.765,289.378L681.862,298.192L679.517,296.557L681.583,294.173L678.429,291.956L675.972,293.924L666.622,286.994L657.914,288.352L649.736,292.122L647.252,289.212L644.265,291.291L647.475,296.058L657.104,293.674L659.561,295.31L660.119,298.247L650.238,300.52L649.373,301.13L642.73,299.55L639.297,305.675L641.474,310.552L647.698,307.421ZM545.18,47.902L545.934,48.207L545.543,47.568ZM660.426,218.946L664.64,219.223L669.664,223.884L666.343,227.49L667.99,230.125L666.929,231.179L660.035,224.771L657.104,222.885ZM702.181,290.237L697.855,294.506L702.042,298.774L700.897,301.462L693.389,308.89L689.509,305.73L696.096,299.245L693.277,296.39L688.002,301.629L683.397,299.439L683.313,298.137L691.435,290.126L695.008,291.457L699.25,287.244ZM650.182,378.087L653.588,381.798L649.54,386.117L646.107,379.583ZM660.51,368.921L662.994,369.503L660.649,371.386L660.538,373.74L656.825,372.272L657.3,369.558ZM773.243,184.153L779.635,186.123L777.625,187.206L779.942,191.507L764.563,199.97L762.19,196.196L759.678,197.556L761.604,201.163L759.874,202.522L750.216,207.572L745.583,204.104L741.843,197.14L758.785,187.927L764.228,184.708ZM762.86,163.421L768.582,176.049L767.633,178.214L757.613,181.572L755.771,180.573L752.84,170.776L753.259,169L760.432,161.589ZM622.857,496.165L624.867,498.46L621.322,498.294ZM704.693,424.872L706.033,426.034L704.247,428.885L702.879,427.252ZM665.952,403.393L667.515,406.244L670.362,408.376L668.576,411.531L666.622,411.863L666.79,415.24L662.854,417.289L658.64,411.199L662.212,406.798ZM513.892,408.486L515.371,411.697L518.72,412.722L514.618,414.299L507.807,414.244L506.384,411.753ZM629.277,592.569L630.421,590.415L635.669,591.575L638.906,590.995L643.763,594.393L642.395,596.492L646.359,598.702L644.879,600L640.218,597.763L639.269,595.94L635.501,596.934L628.049,594.752L627.435,592.238Z"
          fill="#e0e0e0"
          stroke="#333333"
          stroke-width="1"
          stroke-linejoin="round"/>
  </g>
</svg>