<?xml version="1.0" encoding="UTF-8"?>
<svg xmlns="http://www.w3.org/2000/svg"
     viewBox="83.82161231921054 -20 632.3567753615789 640"
     width="632.3567753615789"
     height="640">
  <title>新潟県</title>
  <desc>都道府県コード: 15</desc>
  <g id="15">
    <path d="M604.094,0L605.02,0.328L605.223,1.673L605.264,1.765L606.109,1.706L606.344,1.547L606.393,2.58L606.831,2.538L607.124,2.622L607.132,3.118L608.44,3.186L608.878,3.698L609.081,3.833L609.114,3.866L609.146,3.984L609.357,4.102L609.926,4.715L610.169,4.833L610.243,4.841L610.454,4.774L611.664,4.505L611.794,4.455L612.858,5.892L612.939,6.236L613.207,6.833L613.995,6.682L615.262,7.976L615.457,8.093L615.944,8.253L616.399,8.564L617.601,10.278L619.826,9.371L620.768,9.648L621.377,8.925L623.416,9.211L623.522,9.665L624.764,10.303L625.698,10.253L625.885,10.32L625.95,10.421L626.194,11.185L627.388,12.446L627.16,13.336L627.566,13.84L629.808,14.227L630.206,14.277L630.466,14.571L631.619,15.378L632.309,15L633.195,15.252L633.966,14.874L634.194,14.932L635.298,15.529L637.304,15.546L638.417,15.949L638.79,16.033L642.112,15.428L642.494,15.856L642.827,16.402L644.126,16.73L644.557,17.982L646.579,17.881L648.577,18.569L648.699,18.662L649.592,18.964L649.211,19.863L649.893,20.543L650.055,20.686L650.502,21.349L650.494,22.5L650.437,22.693L649.405,23.281L649.332,23.474L648.878,23.785L648.707,23.97L648.09,24.709L647.57,24.641L647.408,24.507L647.294,24.499L647.172,24.566L646.928,25.573L647.083,25.817L647.042,27.152L648.074,28.663L648.886,28.982L647.879,29.788L647.83,29.914L647.903,30.905L647.895,31.089L647.854,31.199L647.911,31.467L648.35,31.921L648.536,33.121L648.715,33.524L649.162,34.179L648.561,35.169L648.536,35.404L648.715,35.933L648.577,38.048L648.707,38.283L648.277,39.323L648.333,39.466L648.212,40.372L648.748,41.346L648.764,41.547L648.561,42.512L648.618,42.638L648.39,43.217L648.277,43.41L648.228,44.115L647.984,44.215L647.83,44.45L647.862,44.954L647.749,44.979L647.156,46.053L647.14,46.154L647.05,46.858L646.173,48.016L645.946,48.209L645.288,48.821L645.247,48.956L644.784,51.027L644.8,51.371L645.288,53.56L645.385,53.779L646.587,55.598L646.839,55.557L647.066,55.498L647.749,54.777L648.138,54.433L648.983,53.577L649.17,53.418L649.365,53.242L649.885,53.217L650.648,53.888L650.624,54.072L650.543,54.802L651.225,56.06L651.338,56.152L651.598,56.345L651.574,56.554L651.598,56.739L651.68,56.856L652.037,57.292L651.55,58.089L651.704,59.062L651.745,59.28L651.834,59.573L651.883,59.691L652.492,60.638L653.816,61.812L653.994,61.913L654.343,62.424L654.441,62.675L654.636,62.818L654.798,62.877L655.351,62.893L655.984,63.799L656.934,64.604L657.885,64.47L657.982,64.47L658.469,64.52L658.77,64.436L659.452,64.143L659.639,64.117L660.768,64.797L660.857,64.88L661.32,65.71L661.361,65.802L662.002,66.28L662.222,66.632L662.522,66.758L662.741,66.649L663.18,66.498L663.35,66.465L664.268,66.54L664.374,66.498L664.544,66.666L664.829,66.758L664.902,66.792L665.186,66.834L665.852,66.792L666.071,66.85L666.469,67.169L666.615,67.227L667.184,67.605L667.273,67.94L668.02,67.94L668.183,67.923L669.661,67.219L669.815,67.077L670.611,66.406L670.831,66.213L672.609,65.937L672.69,65.92L674.299,65.786L674.404,65.786L675.273,67.144L676.085,67.462L676.272,67.621L676.638,67.663L676.768,67.655L676.857,67.621L676.743,67.781L676.93,68.669L676.995,68.82L677.044,69.004L677.125,69.206L677.945,69.717L678.083,69.675L678.327,69.725L678.619,69.725L678.879,69.767L679.74,69.817L679.846,69.901L680.179,70.186L680.455,70.128L682.087,70.01L682.185,70.044L682.851,70.161L682.388,71.737L682.396,71.896L683.882,73.505L684.045,73.48L684.199,73.438L684.378,73.438L684.995,73.899L685.1,74.05L685.856,74.636L686.075,74.762L686.221,74.879L686.319,75.114L686.4,75.332L687.131,75.86L687.147,75.985L687.212,76.119L687.245,76.237L687.277,76.522L687.253,76.681L687.439,76.89L687.439,77.041L689.023,78.591L689.657,78.876L690.111,80.309L690.152,80.468L690.818,82.646L690.826,82.805L690.794,83.308L693.206,84.129L693.734,84.841L693.896,84.924L694.002,84.966L694.164,85.075L694.944,85.913L695.106,86.005L695.927,86.767L695.886,87.194L695.975,87.513L696.154,88.635L695.797,90.209L695.683,91.767L696.178,92.512L695.756,92.872L695.634,92.947L694.806,93.743L694.611,93.802L693.701,94.446L693.571,94.513L691.898,96.129L691.736,96.163L690.761,96.858L690.688,96.916L690.136,97.142L690.038,97.234L690.038,98.147L690.022,98.331L689.843,98.992L689.868,99.193L689.73,99.796L689.827,99.947L689.843,100.399L689.08,101.001L688.983,101.177L687.984,101.771L686.985,104.174L686.838,104.533L686.684,106.216L686.473,106.458L686.221,106.76L686.083,106.877L685.921,107.186L685.206,107.873L685.076,107.956L684.93,108.032L684.434,108.383L684.231,108.483L682.339,109.58L680.122,109.931L679.626,110.659L678.887,110.985L678.611,111.019L678.286,111.086L678.14,111.128L676.378,112.349L676.215,112.483L675.947,112.717L675.777,112.751L675.168,113.119L675.094,113.495L674.64,113.562L674.485,113.554L672.837,113.981L672.731,114.098L672.479,114.734L672.317,114.867L672.236,114.926L672.114,115.043L672.041,115.144L670.603,115.788L670.506,115.896L670.416,116.08L670.1,116.959L669.953,117.009L669.791,117.042L669.58,117.16L668.508,118.172L667.249,118.766L667.176,119.017L666.827,119.41L666.55,119.627L666.518,120.263L665.503,119.895L665.267,119.912L663.789,118.364L662.173,118.69L660.565,118.096L659.127,120.07L658.437,120.045L658.364,120.029L657.844,119.845L657.763,119.719L657.438,119.585L657.3,119.502L657.007,119.217L656.764,119.042L655.984,118.682L655.911,118.582L655.554,118.197L655.505,118.13L654.4,117.461L654.246,117.293L653.353,117.126L653.206,117.076L652.727,117.185L652.557,117.193L651.606,117.26L651.46,117.226L650.583,116.775L650.437,116.808L649.738,115.922L649.568,115.804L649.527,115.804L649.438,115.93L648.756,116.265L648.626,116.181L648.447,116.03L647.83,115.679L647.611,115.629L646.222,116.315L645.401,116.331L645.207,116.357L644.581,116.566L644.386,116.666L643.542,116.766L643.623,116.884L644.516,118.18L644.402,118.423L644.118,118.807L643.988,119.008L643.94,119.058L643.81,119.184L643.469,119.393L643.469,120.639L642.892,121.902L642.9,122.094L642.949,122.212L642.916,122.554L642.892,122.63L642.364,122.881L642.291,122.83L641.893,123.575L640.642,123.759L640.691,124.018L640.634,124.787L640.642,125.005L639.659,126.803L639.456,127.003L639.302,127.07L639.408,128.124L640.114,128.901L640.09,129.42L639.903,131.251L639.927,131.317L641.471,132.764L641.43,132.956L641.479,133.223L641.414,133.549L641.438,134.369L641.885,134.895L641.86,135.163L641.714,135.831L641.657,136.032L641.341,136.483L641.235,136.651L641.389,137.846L641.341,138.03L641.235,138.824L641.089,138.999L640.853,139.517L641.341,143.896L641.454,144.748L641.479,144.815L641.649,145.007L641.763,145.158L641.974,145.233L642.299,145.726L641.844,146.687L640.366,147.313L639.367,148.324L638.953,149.427L637.304,153.804L636.703,154.623L636.671,154.798L636.931,155.742L636.776,156.777L636.801,156.944L636.931,157.086L636.996,157.195L637.093,157.429L636.996,157.604L636.866,157.671L636.833,157.963L636.516,158.414L636.654,158.481L636.663,158.565L636.459,158.631L636.419,158.648L636.451,158.732L638.531,158.79L639.351,159.074L639.513,159.024L640.358,158.69L640.423,158.765L640.48,158.957L640.528,159.191L640.894,159.441L641.162,159.475L641.552,159.416L641.755,159.291L641.714,160.853L640.813,161.788L640.472,162.172L640.317,162.806L641.17,163.583L641.99,165.286L641.462,166.388L641.397,166.672L641.397,166.805L641.251,166.789L640.049,167.298L639.919,167.431L639.205,167.774L639.026,169.068L638.766,169.368L638.685,169.894L637.312,170.745L636.346,170.937L634.137,170.937L632.228,172.398L632.106,172.431L632.48,173.232L632.585,174.609L632.585,174.751L632.537,174.818L632.236,175.002L632.033,175.344L631.854,175.694L631.416,177.18L631.725,178.273L631.749,178.49L631.871,179.758L631.749,180.05L631.789,180.684L631.7,180.801L631.611,181.118L631.586,181.585L631.611,181.785L631.708,183.512L631.952,183.729L632.098,183.871L632.017,184.255L632.033,184.496L632.033,184.663L631.846,185.531L631.741,185.472L631.505,185.397L631.343,185.406L631.083,185.447L630.945,185.414L630.855,185.431L630.587,185.581L629.182,185.781L629.491,186.69L629.507,186.857L628.914,187.958L628.224,188.492L628.029,189.409L629.329,190.986L627.712,193.996L627.842,194.621L627.915,194.713L628.963,195.13L629.475,196.431L629.58,196.623L629.564,196.689L629.377,196.964L628.979,197.423L628.874,197.606L628.801,197.848L628.858,198.015L628.809,198.357L628.76,198.548L628.63,199.265L628.419,199.39L628.297,199.732L628.232,199.966L628.695,200.833L628.768,201.016L628.833,202.15L628.744,202.308L628.403,202.667L628.411,202.767L628.451,202.9L628.062,203.759L628.313,204.142L628.192,204.459L628.24,205.151L627.704,206.226L627.599,206.359L627.534,206.417L627.363,206.567L627.201,206.759L627.087,206.817L626.689,207.034L626.51,207.059L626.056,207.342L626.031,207.442L625.763,208.459L625.682,208.659L624.886,209.134L624.456,210.326L624.358,210.459L624.334,211.192L624.236,211.359L624.837,211.942L624.87,212.051L625.17,213.551L624.634,214.35L624.659,214.475L624.983,215.167L625.04,215.234L625.073,215.367L625.105,215.567L625.26,215.808L625.333,216.008L625.617,216.541L625.804,216.716L626.121,217.691L626.056,217.774L625.869,217.983L625.804,218.083L625.576,218.441L625.552,218.524L625.414,219.49L626.072,220.94L626.925,221.848L627.03,222.006L627.623,222.631L627.834,224.038L628.159,224.205L628.281,224.305L629.605,224.663L629.727,224.771L630.937,225.504L631.042,225.629L631.197,225.854L631.31,226.162L632.252,226.603L632.569,226.753L632.756,227.411L632.805,227.544L632.805,227.669L632.74,227.794L632.512,228.618L632.512,228.801L632.683,229.468L632.894,229.642L633.544,230.192L633.804,230.334L634.437,230.825L634.559,230.858L635.322,231.166L635.485,231.324L635.534,231.433L635.607,231.566L635.867,231.774L635.948,231.791L637.84,233.014L637.946,233.064L638.124,233.256L638.303,233.347L638.417,233.522L638.384,233.639L638.88,234.962L639.148,235.029L639.391,235.029L640.066,234.987L640.204,235.004L640.707,235.104L641.048,235.054L641.568,234.505L641.787,234.505L641.885,234.505L642.145,234.53L643.168,234.679L643.363,234.704L643.623,234.205L644.524,233.939L644.671,233.747L644.833,233.639L645.052,233.497L645.158,233.389L645.393,233.314L645.669,233.173L646.693,232.498L646.969,232.615L647.131,232.715L647.611,232.94L647.724,232.981L647.96,234.521L647.968,234.696L648.228,235.196L648.382,235.304L648.861,236.236L648.894,236.403L649.276,237.41L650.21,238.392L650.364,238.484L651.005,238.991L651.444,240.048L651.541,240.256L652.402,240.406L652.492,240.489L653.304,241.263L654.238,243.361L654.352,243.427L654.75,244.642L654.051,245.333L652.914,245.707L652.8,245.749L652.679,245.782L651.671,245.982L651.55,245.99L651.363,246.389L651.225,246.523L649.966,247.088L649.917,247.222L649.552,247.388L649.495,247.479L649.089,248.212L648.991,248.478L648.626,249.035L648.545,249.143L647.44,250.841L645.466,251.673L645.336,251.747L644.979,252.496L644.963,252.687L644.89,252.862L644.784,253.053L644.305,253.469L644.029,253.711L643.842,253.944L643.663,254.16L643.404,254.576L643.363,254.75L643.209,255.133L643.103,255.291L642.997,255.432L642.876,255.532L641.073,256.747L639.757,257.869L639.643,257.953L638.839,258.551L638.815,259.217L638.222,259.749L638.173,259.824L638.124,259.998L638.084,260.339L637.726,260.73L637.572,260.855L636.906,261.262L636.922,261.47L636.411,261.903L636.232,262.052L635.712,262.668L635.192,264.73L634.267,265.037L633.861,265.187L632.845,265.678L632.886,266.102L633.203,266.916L633.211,267.024L633.121,267.914L633.121,268.18L632.821,269.901L632.033,270.607L631.879,270.79L631.375,271.522L631.392,271.779L630.839,272.644L630.912,272.81L630.717,273.974L629.832,274.281L629.629,274.298L629.32,274.323L629.101,274.414L629.028,274.431L628.939,274.489L628.89,274.838L628.825,275.087L628.508,275.229L628.338,275.403L627.818,276.467L627.761,276.575L626.965,277.024L625.958,277.115L626.307,278.154L626.186,278.295L624.261,280.049L624.041,280.198L624.066,281.204L623.952,281.303L623.879,282.491L623.871,282.633L623.424,283.09L623.546,283.746L623.7,283.895L623.863,284.087L623.895,284.195L623.903,284.485L624.09,284.735L624.521,285.889L625.122,286.097L624.935,287.268L624.878,287.434L624.683,287.459L624.407,287.393L624.326,287.393L624.277,287.36L623.968,287.11L623.871,287.127L622.409,287.277L621.654,287.625L621.231,288.307L621.02,288.307L620.192,289.038L620.086,289.129L618.917,290.425L619.274,290.915L619.136,291.92L617.983,293.149L617.983,293.888L617.95,293.921L617.065,294.669L616.805,294.868L616.326,295.109L616.204,295.125L615.481,294.287L615.099,294.32L614.775,294.411L614.636,294.743L614.174,295.549L614.052,295.707L613.491,296.147L613.353,296.23L612.46,296.537L611.875,297.185L611.656,297.284L611.355,297.583L611.193,297.774L611.063,297.915L610.218,298.181L610.056,298.455L609.504,299.069L608.675,298.779L607.611,299.086L606.978,299.626L604.931,300.149L604.704,300.307L604.517,300.597L605.345,302.59L606.044,302.988L605.191,304.142L605.15,304.383L604.785,304.781L604.574,304.839L604.005,305.545L604.005,305.694L603.989,305.952L603.656,306.964L603.632,307.08L603.64,307.346L603.729,307.404L603.753,307.421L603.802,307.562L603.77,307.902L603.77,308.126L604.054,309.172L604.111,309.429L604.533,309.919L604.679,310.16L605.158,310.367L605.232,310.425L605.134,310.989L605.061,311.263L604.346,311.67L604.338,313.595L604.501,313.827L605.175,314.923L605.305,315.089L605.808,315.827L606.677,315.786L606.921,315.927L607.294,316.151L607.676,316.425L608.578,317.495L608.505,317.569L608.634,318.324L608.651,318.631L608.708,318.822L608.773,318.988L608.773,319.079L608.748,319.229L608.805,319.793L608.74,320.017L608.366,320.374L608.415,320.531L608.667,320.797L608.724,320.913L609.236,321.684L609.219,321.817L608.87,322.182L609.439,323.269L609.999,323.376L610.234,325.334L609.999,325.541L610.259,325.914L610.324,326.064L610.364,327.117L609.365,329.281L609.317,329.456L609.552,330.89L609.56,331.139L609.958,332.938L609.585,333.278L609.357,333.485L608.781,334.397L610.064,335.094L610.056,336.23L609.958,336.412L609.95,336.727L610.088,336.835L611.615,338.203L611.753,338.708L611.875,339.007L612.289,339.769L612.541,339.844L613.499,340.424L614.645,340.167L614.848,340.184L614.913,340.184L615.043,340.258L615.278,340.391L615.27,340.54L615.416,341.187L615.384,341.311L614.596,342.057L614.279,343.383L614.295,343.723L614.287,343.856L614.23,344.038L613.646,344.742L613.654,344.892L613.849,345.356L611.932,346.541L611.469,347.063L611.372,347.179L610.608,347.568L610.462,347.742L610.259,348.041L610.105,348.14L609.804,348.306L609.56,348.422L608.505,349.051L607.749,348.331L607.108,348.206L606.888,348.273L606.271,348.256L605.678,347.369L605.435,347.27L604.354,346.632L604.2,346.624L603.364,346.516L602.795,345.637L602.519,345.82L602.356,345.878L600.821,345.72L599.863,345.364L598.905,345.513L598.377,345.008L598.287,344.974L597.719,344.809L597.605,344.834L596.647,345.215L596.549,345.339L595.924,346.35L595.429,346.574L595.291,346.682L594.966,346.574L594.868,346.474L594.324,346.342L594.218,346.309L594.04,346.201L593.081,346.458L592.204,345.72L590.734,345.463L590.369,345.521L589.508,345.704L589.24,345.803L588.517,346.3L587.827,346.234L587.339,347.32L585.707,348.695L585.13,348.546L585.057,348.447L584.245,347.568L584.139,347.469L582.702,346.831L582.109,345.496L581.833,345.215L580.59,344.394L580.395,343.715L578.682,343.88L577.707,344.361L577.35,344.477L575.847,345.182L575.717,345.248L574.198,344.817L574.085,344.875L573.313,344.8L573.191,344.751L572.761,345.364L572.712,345.496L572.712,345.596L572.761,345.836L572.737,345.861L572.509,345.944L572.363,345.977L571.624,345.836L571.486,345.869L570.779,346.209L570.495,346.267L570.422,346.275L570.146,346.325L569.163,346.259L569.122,346.938L568.806,347.369L568.375,347.9L568.221,348.935L568.724,350.013L568.773,350.104L569.09,350.7L568.936,350.816L567.904,351.512L567.725,351.753L567.571,351.951L567.498,352.092L567.693,353.219L567.392,354.147L567.482,354.23L567.79,354.602L567.912,354.768L568.034,355.017L567.953,355.282L567.311,356.624L567.108,356.831L566.946,356.996L566.67,357.734L566.629,357.974L566.889,359.282L566.662,360.144L567.051,360.467L567.092,360.682L566.767,361.129L564.696,362.811L564.542,362.777L562.917,362.289L562.82,362.165L561.269,361.527L561.098,361.552L560.424,361.651L560.107,361.767L559.157,361.684L559.06,361.626L558.475,361.444L558.256,361.245L557.208,361.005L556.85,360.401L556.68,360.061L555.64,359.506L554.203,360.285L553.967,360.392L552.79,360.127L552.741,360.235L552.473,361.096L552.343,361.204L552.018,361.709L551.864,361.924L551.092,362.728L550.954,362.719L550.142,362.811L548.477,363.514L547.291,363.316L546.487,362.802L546.203,361.999L544.367,362.744L544.229,362.777L543.263,363.042L542.719,363.887L542.605,364.011L542.508,364.078L542.305,364.144L541.963,364.21L541.143,363.249L540.615,363.175L540.453,363.208L540.209,363.365L540.087,363.448L539.884,363.523L539.34,363.672L539.251,363.804L538.463,364.351L538.26,364.467L537.212,364.997L537.05,365.046L536.83,365.129L536.701,365.22L536.067,365.32L535.815,365.303L535.239,366.032L535.092,366.115L534.41,366.057L534.24,365.874L533.744,365.03L532.973,365.369L532.826,365.46L532.323,365.957L531.413,366.007L529.862,366.562L529.74,366.62L529.667,366.645L529.472,366.744L528.376,367.059L528.303,367.001L528.23,366.885L528.221,366.81L528.27,366.669L528.303,366.529L528.205,366.495L528.067,366.197L527.953,365.99L527.491,365.51L527.328,365.444L527.101,365.419L526.971,365.386L526.524,365.278L525.257,366.462L524.12,366.984L523.901,367.092L523.811,367.141L523.763,367.208L523.657,367.381L523.543,367.39L522.601,367.771L522.423,367.787L521.554,367.58L521.472,367.539L521.367,367.373L521.277,367.116L519.312,366.355L518.971,367.108L518.995,367.232L518.955,367.373L518.021,367.638L517.493,368.284L517.257,368.524L517.07,369.385L516.534,369.816L516.339,371.074L516.185,371.281L515.885,371.985L515.625,372.1L515.608,372.125L515.617,372.307L515.097,373.028L514.951,374.948L514.951,375.196L514.983,375.817L515.04,376.032L515.072,376.099L515.081,376.214L515.316,376.926L515.332,377.017L514.609,377.191L514.431,377.274L514.22,377.448L514.082,377.621L513.294,377.936L513.066,378.085L512.409,379.004L513.643,379.699L514.26,380.493L514.341,380.592L514.358,380.915L514.455,381.089L514.634,381.751L514.756,381.875L515.121,382.62L515.097,382.934L515.064,383.282L515.072,383.48L515.121,383.72L515.535,384.242L515.714,384.523L516.201,385.052L516.299,385.152L517.062,385.417L519.19,384.821L519.799,385.367L519.97,385.483L520.481,385.557L520.197,386.203L521.196,386.368L521.359,389.057L521.48,389.156L522.317,389.76L522.553,390.14L522.739,390.446L522.739,390.67L523.015,391.224L523.056,391.373L523.064,391.704L523.024,392.084L522.617,393.945L522.593,394.276L521.903,396.352L521.903,396.617L522.244,398.833L522.179,399.089L521.895,400.421L521.878,400.817L521.895,400.975L521.919,401.107L521.724,401.239L521.529,401.33L521.082,401.347L520.847,401.347L520.4,401.495L520.246,401.686L519.945,402.066L519.751,402.074L519.466,402.512L519.458,402.694L518.589,403.827L518.435,403.926L517.809,404.207L517.801,404.257L518.029,404.679L518.41,405.034L518.427,405.249L518.337,405.464L518.354,405.861L518.427,406.026L518.443,406.299L518.549,406.687L518.597,406.861L518.532,407.043L518.516,407.258L518.581,407.407L519.483,408.523L519.466,408.696L519.483,408.895L519.434,409.068L519.369,409.2L519.093,409.572L519.06,409.878L519.044,409.969L518.987,410.217L518.67,410.837L518.557,410.977L518.402,411.143L518.216,411.349L517.972,411.647L517.826,411.845L517.744,411.961L517.493,412.225L517.29,412.391L517.241,412.49L517.29,412.812L517.671,413.308L517.712,413.506L517.704,413.573L517.728,413.804L517.371,414.854L517.265,415.093L517.127,415.333L517.046,415.589L516.949,416.143L516.916,416.407L516.949,416.647L516.965,416.82L516.916,417.142L516.867,417.465L516.875,417.828L516.965,418.035L516.94,418.126L516.884,418.324L516.859,418.465L516.802,418.663L516.77,418.828L516.656,419.291L516.624,419.398L516.551,419.547L516.445,419.762L516.356,419.96L516.339,419.985L516.071,420.233L515.917,420.357L515.787,420.414L515.43,420.439L514.983,420.53L514.796,420.613L514.634,420.753L514.496,420.91L514.333,421.158L513.229,422.736L512.88,422.876L512.815,423.025L512.368,423.645L512.23,423.736L512.173,423.769L511.978,423.818L511.799,423.826L511.604,423.975L511.369,424.132L511.247,424.355L511.182,424.694L511.158,424.809L511.093,425.066L511.06,425.223L510.695,425.594L510.541,425.636L510.37,425.702L510.208,425.892L510.126,426.098L510.061,426.23L509.948,426.42L509.858,426.511L509.688,426.618L509.525,426.775L508.827,427.345L508.713,427.552L508.632,427.791L508.632,427.948L508.567,428.023L508.258,428.188L508.128,428.32L507.86,428.526L507.454,429.088L507.397,429.361L507.389,429.46L507.308,429.699L506.512,429.798L506.455,429.964L506.228,430.789L506.171,430.88L505.367,431.97L505.391,432.086L504.644,433.804L504.53,433.96L504.384,434.456L504.336,434.629L503.913,435.356L503.938,435.752L504.214,437.742L504.725,437.932L504.831,438.097L504.969,438.279L505.091,438.403L505.667,439.303L505.765,439.451L505.887,439.806L505.911,440.046L505.952,440.112L506.025,440.202L506.358,440.615L506.585,440.822L506.861,441.143L506.975,441.21L507.893,442.01L508.088,442.167L508.754,442.654L509.574,444.305L509.647,444.528L509.655,444.602L509.655,444.784L510.541,445.551L510.662,445.815L511.345,446.377L511.458,446.533L512.108,448.052L512.246,448.423L512.254,448.63L512.295,448.836L512.352,449.009L512.254,449.546L512.222,449.678L512.238,450.264L513.367,450.264L513.619,450.28L514.731,449.967L514.804,449.901L515.747,448.993L516.015,448.803L516.551,448.423L516.664,448.242L516.754,447.623L516.81,447.392L517.314,446.121L517.493,445.782L517.598,445.527L517.712,445.262L518.516,445.279L518.581,445.328L518.638,446.484L518.678,446.641L519.612,447.037L519.815,447.086L520.043,447.194L520.084,447.384L519.978,447.697L519.751,448.036L519.759,448.721L519.84,448.877L519.937,449.001L520.246,449.133L520.571,449.257L520.717,449.381L521.091,449.925L521.261,450.354L522.13,451.51L522.26,451.782L522.902,452.277L523.089,452.31L523.56,452.351L523.698,452.393L523.819,453.498L524.014,453.762L524.721,454.299L524.624,455.313L524.575,455.561L524.932,455.775L524.981,455.817L524.924,456.634L524.485,456.848L524.396,457.863L524.429,458.028L525.517,458.275L525.428,458.894L525.281,458.976L525.509,459.438L527.158,459.735L526.841,459.966L526.475,460.032L526.451,460.494L526.524,460.568L526.906,461.566L526.987,461.872L526.638,462.185L526.37,462.317L526.167,464.198L526.053,464.494L525.216,465.847L525.176,465.954L524.997,466.969L524.981,467.183L524.948,467.381L524.794,468.766L524.729,469.104L524.575,470.415L524.575,470.753L524.624,471.446L524.624,471.768L524.388,472.303L524.242,472.501L524.023,472.831L523.909,472.996L522.772,475.156L522.382,476.541L522.341,476.805L522.406,479.409L522.439,479.673L522.488,480.374L522.512,480.539L522.626,480.959L522.674,481.074L522.78,481.305L522.894,481.552L523.048,481.841L523.202,482.121L523.568,482.747L523.746,483.052L523.235,484.231L524.315,486.126L524.461,486.291L524.664,486.48L524.843,486.645L524.924,486.695L525.947,487.387L525.964,487.502L525.744,488.376L525.639,488.59L525.623,488.656L525.558,488.829L525.411,490.617L525.493,490.773L525.566,490.897L525.663,491.053L525.882,491.383L525.988,491.548L526.159,491.877L526.321,492.322L526.467,492.396L527.393,493.912L527.377,494.06L527.499,495.016L527.905,495.205L528.002,495.255L528.108,497.586L528.173,497.742L528.213,497.866L528.278,498.014L528.757,498.656L528.701,498.813L528.798,499.562L528.668,499.752L528.368,499.957L528.254,499.99L528.043,500.188L527.953,500.303L527.726,500.493L527.588,500.592L526.995,500.748L527.296,501.539L526.995,502.774L526.264,503.556L525.996,503.647L525.972,504.907L525.687,504.948L525.631,505.055L525.817,506.043L524.786,507.92L524.469,508.933L524.753,509.245L524.737,509.41L524.778,509.608L525.2,510.225L525.281,510.39L525.639,511.18L525.809,511.336L526.483,512.415L526.638,513.699L526.695,513.97L526.686,514.094L526.67,514.217L526.727,514.538L527.036,515.164L527.076,515.263L527.076,515.32L526.987,515.559L527.214,517.115L527.255,517.197L527.685,517.567L527.62,517.855L527.117,518.81L527.117,518.991L526.557,519.353L526.443,519.394L526.386,519.427L526.199,519.625L525.566,519.978L525.476,520.233L526.061,521.13L526.167,521.254L526.67,521.46L526.776,521.591L526.914,522.546L526.264,523.031L526.134,523.089L525.923,523.78L525.923,523.87L525.972,524.611L525.826,524.701L525.712,525.121L525.769,525.195L525.85,525.253L526.418,525.302L526.508,525.442L526.565,525.606L526.581,525.878L526.557,526.1L526.532,526.256L525.85,526.643L526.085,526.906L526.215,527.095L526.183,528.321L526.118,528.395L525.225,528.445L524.908,529.489L524.023,530.41L524.591,530.756L524.453,532.097L524.014,532.771L524.096,532.903L523.365,533.084L522.284,532.812L521.992,533.075L521.927,533.133L521.838,533.199L521.586,533.371L521.513,533.371L521.472,533.355L521.513,533.314L523.015,531.447L522.195,529.522L521.952,529.325L521.415,528.584L521.294,528.321L521.099,527.408L520.879,527.021L520.806,526.881L520.741,526.701L519.702,526.33L518.524,526.635L518.28,526.676L517.533,527.145L517.395,527.26L517.233,527.4L517.014,527.589L516.916,527.745L516.932,527.885L514.553,528.313L513.627,527.507L513.221,527.589L513.042,527.622L512.717,527.745L511.02,526.585L509.598,527.013L508.616,526.421L507.665,524.603L506.845,523.459L506.796,523.278L506.65,522.628L506.65,522.529L506.707,522.373L506.959,521.69L506.918,520.406L507.349,519.23L507.138,518.876L507.584,517.51L507.625,517.386L507.511,516.489L507.349,516.226L506.813,515.674L506.593,515.493L505.724,513.641L505.586,513.345L503.207,512.546L501.542,511.493L501.412,511.419L500.234,510.859L500.153,510.785L499.828,510.266L499.617,509.945L499.511,509.715L498.829,507.681L498.277,506.916L497.944,506.751L496.084,505.969L495.32,505.458L495.337,504.997L495.377,504.857L494.996,504.207L494.841,504.009L494.703,503.391L494.614,503.227L494.183,501.86L493.371,500.32L493.404,499.999L493.509,499.323L493.517,499.2L493.063,498.582L492.981,498.442L492.738,498.319L492.648,498.343L492.177,498.351L491,498.319L490.837,498.113L490.553,497.726L490.464,497.569L489.936,495.798L488.441,495.559L486.192,494.678L485.656,495.263L485.631,495.988L484.697,498.22L484.527,500.073L484.705,500.649L484.023,503.77L484.177,503.82L484.397,506.315L484.567,506.726L484.657,507.426L484.056,508.118L483.95,508.488L482.074,510.209L482.05,510.456L481.968,510.95L481.879,511.057L481.367,511.065L480.791,511.089L480.214,511.089L480.027,511.106L479.922,511.336L479.824,511.485L478.167,512.209L477.859,512.382L477.152,513.386L476.9,513.567L476.096,513.921L475.934,514.061L474.951,514.505L474.634,515.205L474.415,515.337L473.554,517.287L473.392,517.715L473.108,518.044L472.775,518.044L472.117,518.201L471.954,518.193L470.281,518.785L469.859,519.213L468.827,519.271L467.934,518.884L467.82,518.834L466.488,518.102L465.636,518.094L465.522,518.012L464.872,517.724L463.979,518.719L463.857,518.834L463.142,519.164L462.931,519.188L462.736,519.254L462.403,519.452L462.314,519.542L462.038,519.814L460.657,520.711L460.348,520.661L457.749,520.39L457.49,520.332L457.335,520.39L454.891,520.308L454.769,520.291L452.909,519.987L452.608,520.283L452.324,520.571L452.129,520.686L452.283,521.534L452.227,521.723L452.324,522.735L452.283,522.85L451.967,523.911L451.902,524.142L451.796,525.664L451.796,525.828L451.804,526.116L451.764,526.363L451.804,526.849L451.837,526.956L451.845,527.276L451.886,527.449L451.902,528L451.796,528.165L451.65,528.354L451.553,528.527L451.512,528.864L451.463,529.086L451.455,530.485L451.463,530.649L451.488,530.83L451.593,531.077L451.65,531.282L451.674,531.455L451.812,532.911L451.837,533.075L452.048,533.881L452.064,533.997L452.032,534.663L452.048,534.909L452.137,536.538L453.242,537.845L453.396,538.108L454.281,539.029L454.322,539.194L454.387,539.243L454.517,539.358L454.728,540.057L454.809,540.205L454.874,540.657L454.826,540.822L454.355,541.759L454.127,542.31L455.037,543.954L455.077,544.152L455.524,545.154L455.516,546.979L455.581,547.242L455.467,549.297L455.337,549.527L454.281,549.906L453.339,550.785L453.153,550.637L452.283,549.643L452.154,549.511L451.025,549.248L450.773,549.075L450.172,548.903L449.977,548.821L448.767,548.155L448.677,548.221L447.581,548.878L447.37,548.599L447.191,548.5L446.923,548.418L446.663,548.401L445.023,548.319L444.73,548.475L444.064,548.763L443.861,548.706L443.309,548.599L442.919,549.199L442.83,549.306L442.944,550.226L442.651,550.875L442.554,550.941L440.832,551.845L440.726,551.977L440.426,553.513L440.41,553.645L440.32,553.719L440.142,553.842L439.735,554.459L439.662,554.557L439.63,554.672L439.614,554.787L439.346,555.436L439.402,555.675L439.256,555.872L439.167,555.971L439.565,557.154L440.288,557.86L440.499,558.855L440.466,558.986L439.865,560.169L439.695,560.333L439.281,560.966L439.191,561.18L438.858,562.683L438.899,562.847L439.126,563.307L441.197,564.121L441.222,564.236L441.579,565.229L441.636,565.443L441.725,565.846L441.766,566.01L442.464,567.045L442.318,568.507L442.269,568.63L440.905,569.082L440.686,569.114L440.288,569.131L439.922,569.246L437.949,569.722L437.656,570.051L435.163,570.437L434.968,570.412L432.012,570.65L431.273,570.97L430.72,570.74L429.315,571.135L428.284,573.22L425.409,573.968L423.557,575.281L423.443,575.413L423.281,575.495L423.021,575.511L421.949,575.396L419.431,573.927L419.212,573.943L419.106,573.918L418.822,573.68L418.513,573.82L418.026,574.255L416.239,573.483L414.201,573.541L414.16,575.019L414.542,576.324L415.354,577.539L415.517,578.221L415.606,578.574L415.508,579.345L416.126,580.807L416.548,581.004L416.702,581.127L416.824,581.291L416.767,581.373L416.499,581.57L416.337,581.767L416.158,581.923L416.093,582.547L416.093,582.826L416.288,583.795L416.02,585.477L415.882,585.707L415.078,587.381L415.143,587.677L415.557,588.341L414.331,590.442L414.193,590.705L413.161,591.837L411.984,591.238L411.772,591.016L411.147,590.688L410.156,590.877L409.092,591.558L408.954,591.607L408.905,591.657L408.792,591.853L407.257,593.002L406.599,594.758L406.534,595.874L406.566,596.087L406.607,596.292L406.542,596.382L405.746,597.293L404.731,597.277L404.593,597.285L404.26,597.129L403.911,596.522L402.351,596.546L402.221,596.497L401.97,596.563L401.848,596.587L400.02,596.768L399.817,596.661L398.964,595.898L398.778,595.931L397.421,595.209L397.226,595.086L397.048,594.93L396.049,593.806L395.813,593.716L394.611,592.928L394.327,592.789L392.946,592.543L392.483,591.886L391.493,591.435L390.071,591.574L389.73,591.304L389.584,591.099L389.495,591.008L389.243,591.123L388.536,591.837L388.341,592.124L388.26,592.297L388.195,592.428L387.813,594.134L388.008,594.216L388.098,595.505L388.09,595.669L387.789,595.997L387.651,596.112L386.92,596.85L386.782,596.883L386.092,597.933L386.124,598.056L385.783,599.139L385.133,599.295L384.971,599.377L384.76,599.598L384.516,599.672L384.337,599.713L383.931,599.918L383.744,600L381.673,599.655L381.3,599.368L381.316,598.761L381.243,598.589L381.056,597.99L381.04,597.802L381.016,597.629L380.983,597.523L380.415,597.047L380.301,596.973L380.033,594.422L380.073,594.274L380.025,593.675L380.049,593.503L380.146,592.822L379.326,590.77L379.277,590.541L379.221,590.45L379.026,590.426L377.799,590.368L377.621,590.36L375.631,589.105L375.355,589.055L375.014,588.743L374.77,588.456L374.372,587.791L374.38,587.586L374.25,586.216L375.079,584.599L375.29,584.607L375.809,584.254L376.086,584.197L378.295,583.154L378.441,582.9L378.628,582.703L378.879,582.448L379.172,581.775L379.359,581.685L379.57,581.324L379.448,581.151L379.416,581.094L379.342,580.79L379.521,579.805L380.439,578.057L380.601,577.983L380.699,577.942L381.113,577.112L381.202,576.94L381.259,576.341L380.309,575.273L380.171,575.199L379.416,574.444L379.196,574.255L379.139,573.877L379.05,573.705L378.506,573.048L377.872,572.876L377.044,572.358L377.158,572.095L377.255,571.726L377.304,571.504L378.14,570.42L378.352,570.231L379.797,568.622L379.846,568.425L379.854,568.153L379.846,567.702L380.13,565.501L380.09,565.262L379.903,564.564L379.781,564.219L379.805,564.145L380.471,562.699L380.471,562.576L380.585,561.385L380.171,560.81L379.943,560.605L379.44,560.301L378.961,558.855L378.961,558.764L378.725,558.781L378.579,558.838L378.124,558.624L378.043,558.567L377.32,557.869L377.166,557.877L377.101,557.836L376.857,557.803L376.784,557.737L376.216,557.318L374.754,557.45L374.599,557.433L373.933,557.482L373.877,557.408L373.405,557.532L373.332,557.458L373.137,557.4L372.975,557.343L372.512,557.08L372.39,557.08L371.213,557.063L371.221,556.644L370.287,556.118L370.238,556.02L370.1,556.02L369.97,556.003L369.54,554.976L368.273,554.886L367.899,554.845L367.42,554.623L367.257,554.582L367.144,554.574L366.811,553.481L365.511,553.168L365.389,553.218L365.324,553.004L365.381,552.864L365.43,552.725L365.471,552.305L365.544,552.133L363.562,552.125L362.855,552.355L362.717,552.207L362.595,551.952L362.49,551.812L361.97,550.456L361.946,550.382L361.402,549.864L361.272,549.725L361.125,549.577L361.004,549.495L360.874,548.475L360.874,548.303L360.849,548.147L360.857,547.596L361.207,546.059L361.702,545.278L360.727,544.587L360.208,544.25L359.574,543.814L357.852,544.02L356.983,544.135L356.22,544.406L355.14,544.201L354.945,543.864L353.84,541.981L353.588,541.989L353.41,542.063L353.564,540.55L354.051,539.038L354.019,538.273L353.588,538.182L353.377,538.166L353.191,538.1L352.565,537.303L352.468,537.278L351.753,537.335L352.183,535.962L352.224,535.288L352.5,533.158L352.533,531.011L352.581,530.822L352.59,530.312L352.646,529.72L352.638,529.275L352.695,528.938L352.33,526.947L352.695,526.404L352.703,526.092L352.914,525.063L352.858,524.882L352.711,524.644L352.679,524.553L352.817,523.936L352.825,523.656L352.492,522.867L352.89,522.085L352.833,521.904L353.02,521.196L352.849,521.097L352.849,520.447L352.898,520.201L352.768,519.23L352.736,519.04L352.622,517.641L352.378,517.575L352.338,517.551L352.208,517.37L351.761,516.835L351.566,516.621L351.193,516.119L350.941,515.987L349.771,514.761L349.747,514.604L349.479,513.773L349.455,513.534L349.211,512.398L348.618,512.118L348.488,510.39L348.285,509.855L348.253,508.603L347.473,507.311L347.335,507.023L346.799,507.097L345.597,506.306L344.573,506.454L343.794,506.15L343.396,506.471L343.209,506.652L343.095,506.71L342.957,506.866L340.781,506.701L340.553,507.047L339.538,507.014L339.343,506.883L338.953,506.718L338.766,506.594L338.588,506.496L338.328,506.315L337.443,505.656L337.386,505.491L336.971,504.528L336.907,504.388L336.176,503.918L335.25,504.775L333.682,504.182L333.528,504.643L331.546,505.343L331.441,505.392L331.359,505.392L331.221,505.351L331.002,505.392L330.783,505.598L329.296,505.376L329.134,505.648L328.452,506.339L328.362,506.463L327.591,507.368L327.477,507.344L326.17,507.278L325.975,507.303L325.333,506.891L325.236,506.825L325.098,506.866L324.756,507.031L324.521,507.187L323.14,507.78L323.059,507.821L321.93,508.027L321.686,508.043L320.143,507.871L319.94,507.838L319.396,507.599L319.25,507.517L319.193,507.5L318.941,507.442L318.73,507.426L318.308,507.484L318.227,507.862L318.162,508.175L317.975,508.414L317.747,508.529L317.358,508.801L317.228,508.974L316.683,509.122L316.277,509.245L315.092,509.599L314.239,510.571L312.111,511.896L311.283,511.806L309.748,512.193L308.505,512.917L308.416,512.95L307.011,513.221L306.791,514.324L305.995,514.341L305.768,514.505L304.014,514.588L302.292,515.411L302.284,515.485L302.47,515.781L301.358,516.744L301.455,517.666L299.766,519.427L299.498,519.534L298.556,520.151L298.418,520.192L298.645,520.916L298.734,521.081L299.246,521.632L299.149,521.723L298.71,522.299L298.661,522.422L297.638,522.957L297.622,523.155L297.606,523.303L297.565,523.426L296.769,524.874L296.672,524.956L296.623,525.006L296.542,525.203L295.892,525.713L295.356,527.071L295.575,527.926L294.397,529.251L294.706,530.09L294.349,531.381L294.625,532.13L293.366,533.536L292.944,534.58L292.895,535.107L292.838,535.543L292.741,535.715L292.578,535.863L292.026,536.266L291.937,536.431L291.344,537.031L290.556,537.122L290.442,537.352L289.752,538.709L289.654,538.955L289.354,539.432L289.045,539.81L288.225,539.383L287.583,538.47L285.496,537.812L284.651,538.174L283.709,538.1L282.775,538.536L282.645,538.454L282.272,538.404L282.077,538.561L281.776,539.251L280.111,539.967L277.813,542.039L277.699,542.22L276.66,543.42L276.611,543.609L276.4,545.664L275.799,546.544L275.718,546.708L275.644,546.856L275.474,547.933L275.815,548.147L276.124,548.5L276.262,548.722L276.27,549.873L276.944,550.736L277.586,550.958L277.407,551.549L277.114,552.067L276.83,552.371L276.051,553.464L275.912,553.768L275.945,554.541L275.961,554.96L275.823,555.527L275.555,555.609L274.832,556.447L274.759,556.677L275.125,557.54L275.32,557.795L275.758,558.329L275.726,558.46L275.661,558.542L275.758,559.035L275.839,559.093L276.051,559.142L276.213,559.241L276.513,559.734L276.603,559.923L276.741,560.769L276.733,561.073L276.684,561.196L275.783,561.582L275.636,561.623L275.653,562.297L275.555,562.437L275.425,562.289L275.279,562.075L275.125,562.009L275.019,562.19L275.011,563.283L274.532,564.342L272.907,565.016L272.607,565.221L272.022,565.427L271.779,565.427L271.283,565.87L271.113,565.862L270.04,564.843L270.032,564.449L270.081,563.365L270.13,563.25L270.162,563.143L270.187,562.971L270.211,562.502L270.244,562.33L270.325,561.812L270.325,561.607L270.333,561.171L269.131,559.389L268.855,559.241L268.213,559.068L268.059,559.101L266.824,558.542L266.767,558.386L266.727,557.852L266.711,557.565L266.589,556.932L265.606,556.48L265.59,556.546L264.493,557.951L262.674,558.378L261.367,558.337L261.172,558.419L259.206,558.279L258.954,558.148L258.678,558.156L258.516,558.033L256.461,557.639L256.323,557.556L256.096,557.597L255.836,557.45L254.999,556.981L255.202,556.044L254.366,557.252L254.138,557.63L253.269,558.715L253.099,559.98L252.481,560.629L250.443,561.763L249.826,561.681L249.509,561.673L249.2,561.722L248.737,562.149L247.487,562.05L246.885,562.51L245.797,562.371L245.489,563.472L245.391,563.644L244.969,563.874L244.774,563.907L243.88,564.121L243.726,564.293L243.336,564.605L242.979,564.597L241.964,564.811L241.744,564.794L240.664,564.638L240.372,564.597L238.585,564.112L237.789,563.159L236.53,563.71L236.295,563.882L235.816,563.767L235.678,563.578L234.833,563.324L234.679,563.348L233.688,562.749L232.559,563.373L232.413,563.431L232.275,563.504L232.063,563.595L231.162,563.266L230.26,563.431L229.261,562.905L229.156,562.987L228.953,563.036L228.685,563.127L228.563,563.316L227.832,564.145L227.726,564.277L227.645,564.342L227.377,564.498L227.101,564.991L226.029,565.213L225.574,565.156L225.314,565.065L225.257,565.082L224.38,566.018L223.698,566.166L223.406,567.127L223.333,567.209L221.789,568.088L221.538,568.712L220.669,569.426L220.587,569.517L219.418,572.128L219.288,572.284L219.255,572.391L218.508,573.491L218.476,574.115L218.508,574.206L218.5,574.805L218.614,574.846L218.963,575.864L218.857,576.103L217.899,577.096L217.932,577.211L217.371,577.851L217.201,577.983L216.86,578.04L216.657,577.876L214.894,578.393L214.667,578.524L213.798,579.14L213.448,579.272L212.945,579.313L212.847,576.858L211.767,576.201L211.044,576.103L210.931,576.176L210.452,576.669L210.167,576.776L208.129,576.414L208.104,575.799L207.26,574.937L207.455,574.321L206.837,573.705L205.985,573.894L205.351,573.459L205.213,573.278L204.718,572.949L204.563,572.958L204.06,573.138L203.824,573.147L203.418,572.892L203.321,572.703L203.248,572.572L202.175,571.644L201.818,571.759L201.42,571.595L201.177,571.118L200.194,570.667L200.437,570.026L200.673,569.788L203.004,566.65L203.499,566.519L204.409,565.533L204.563,565.476L204.409,564.794L204.279,564.654L204.458,564.227L204.531,564.162L204.182,562.732L203.426,562.174L203.353,560.596L203.069,560.021L203.036,559.882L203.012,559.824L202.939,559.684L203.629,559.561L203.881,559.454L204.766,558.551L204.807,558.403L204.945,557.737L205.002,557.622L205.408,556.85L205.546,556.768L206.196,555.264L207.195,554.048L207.398,553.883L207.609,553.694L207.885,551.689L207.593,549.881L207.471,549.536L207.414,549.437L207.292,549.38L206.789,549.133L206.618,549.084L206.261,549.059L206.009,549.149L205.798,549.322L205.708,549.437L205.546,549.577L205.416,549.651L204.303,549.371L204.165,549.281L204.084,549.215L203.93,549.133L203.727,549.108L203.662,549.084L203.134,548.253L203.321,547.703L203.402,547.571L203.394,546.067L202.947,545.483L202.915,545.352L200.031,544.974L199.812,544.875L199.642,544.735L199.105,544.3L197.879,543.971L197.083,543.116L194.833,543.757L194.614,543.823L193.875,543.691L193.591,543.601L193.071,543.897L191.333,543.075L190.846,544.16L190.773,544.415L190.391,545.122L189.384,545.911L188.271,545.697L188.003,545.533L187.053,544.974L186.549,543.51L185.932,542.499L182.497,542.236L181.538,541.948L179.76,540.534L178.298,540.115L177.291,540.731L175.764,541.044L175.642,541.052L173.855,541.948L173.319,542.82L171.256,543.354L169.136,542.902L168.828,542.713L167.536,542.458L166.505,541.43L165.871,541.652L165.287,541.471L164.986,541.414L164.799,541.414L164.556,541.512L164.263,541.669L163.581,542.392L163.654,543.477L163.216,544.102L163.264,544.217L163.817,544.571L164.109,544.661L164.694,544.965L164.97,545.393L165.279,545.533L165.465,545.582L165.66,546.396L164.921,547.456L164.312,547.686L164.117,547.727L163.248,549.782L164.377,550.925L164.434,551.064L164.312,552.084L164.483,552.379L164.743,552.881L164.816,553.201L164.816,553.744L164.84,553.875L165.79,554.467L165.904,554.549L166.01,554.598L166.058,554.705L166.464,554.96L166.546,555.009L167.26,555.305L167.341,555.379L166.659,556.759L166.684,557.039L166.976,557.663L166.416,558.238L166.269,558.378L164.783,558.879L164.783,558.994L164.158,559.438L163.541,560.448L163.427,560.67L162.574,561.673L162.412,561.738L161.997,562.395L161.957,562.494L161.811,562.897L161.689,562.995L161.616,564.309L161.876,564.942L161.315,565.689L161.275,565.813L160.349,566.963L160.129,567.028L158.806,567.989L158.741,568.063L158.489,568.967L158.464,569.172L158.473,569.525L158.424,569.599L158.05,569.829L157.904,569.936L157.49,570.248L157.384,570.453L157.319,570.527L156.377,571.726L156.182,571.997L156.077,572.137L155.094,573.36L155.102,573.475L155.143,573.656L155.256,573.951L155.443,575.93L155.078,576.677L153.616,577.038L153.299,577.153L152.942,577.342L152.966,578.508L152.446,579.009L152.406,579.157L152.406,579.263L152.3,579.428L152.235,579.485L151.756,580.166L151.293,580.437L150.595,580.848L150.018,581.192L148.816,581.907L148.515,582.079L146.696,583.154L145.518,583.557L145.177,583.721L145.153,584.041L144.755,586.093L144.495,586.462L144.284,586.569L142.343,588.071L142.254,588.12L142.14,588.087L142.018,588.12L141.669,588.112L141.425,588.087L140.8,587.956L140.662,587.89L139.728,588.489L139.46,588.546L138.461,588.924L138.339,589.146L138.193,589.318L137.892,589.687L137.778,589.859L137.316,590.171L137.202,590.286L137.161,590.344L137.405,589.671L136.097,587.783L135.927,587.603L134.928,587.053L134.733,586.971L133.815,585.92L133.961,585.231L133.994,585.091L134.091,584.935L133.937,583.942L134.254,582.547L134.181,582.333L134.44,581.784L134.514,581.677L135.001,580.273L134.156,579.116L134.042,578.196L133.839,578.048L133.791,577.671L133.872,577.4L133.872,577.285L133.848,577.153L133.709,576.127L132.759,575.322L132.564,574.321L132.028,573.902L131.906,573.795L131.679,573.541L131.444,573.204L129.251,571.636L128.893,571.102L128.869,570.987L128.999,570.338L129.113,570.207L129.835,569.04L129.364,567.488L129.762,565.509L129.421,564.581L129.949,563.028L130.006,562.634L129.909,561.894L129.974,561.516L129.982,560.999L129.308,560.342L129.551,560.005L129.738,559.348L129.535,558.008L129.486,557.556L129.738,556.735L129.21,555.215L128.593,555.001L128.26,554.311L127.228,553.752L126.108,552.01L125.742,551.13L125.019,550.604L124.361,549.412L124.378,548.13L124.386,547.949L124.532,546.634L124.158,545.919L124.11,545.467L124.727,544.406L124.889,544.324L125.425,544.242L125.49,544.102L125.466,541.792L125.263,539.843L125.092,539.671L125.555,539.12L125.693,538.807L126.14,537.96L126.156,537.821L126.067,537.705L125.848,537.459L125.287,536.645L125.149,536.094L124.418,535.543L124.435,534.219L124.11,533.758L123.955,533.552L123.834,532.804L123.882,532.59L123.744,532.138L123.533,532.121L122.932,532.105L122.672,532.08L120.772,532.714L120.471,532.788L120.073,532.648L119.911,532.565L119.781,532.557L119.497,532.648L117.369,532.352L117.084,532.13L116.963,531.982L116.5,531.414L115.2,530.707L115.013,530.657L113.819,530.007L113.56,529.933L113.072,530.032L112.894,530.106L112.049,530.155L112.016,529.152L111.992,529.045L110.148,527.359L109.864,527.169L108.792,525.458L108.15,524.027L107.704,523.689L107.541,523.549L104.528,521.566L103.822,520.505L108.053,520.225L108.8,519.904L108.321,519.583L110.035,518.793L112.471,518.505L113.876,518.036L115.606,516.958L117.214,516.687L120.942,515.707L121.633,515.205L123.744,514.341L126.944,513.435L128.219,512.843L127.992,512.546L129.04,512.3L130.639,511.468L131.801,511.131L134.782,509.698L137.437,508.661L138.428,508.142L142.684,506.619L144.446,506.216L147.581,504.915L150.765,503.968L151.853,502.807L154.647,500.88L157.409,499.397L159.139,497.561L156.361,500.715L157.084,500.542L157.474,501.629L157.896,501.473L157.595,500.649L158.513,499.422L163.662,498.179L168.958,496.745L169.396,496.712L173.839,495.049L177.234,493.475L179.573,491.539L180.694,490.79L183.682,489.191L184.34,487.387L186.265,485.566L189.205,484.882L190.415,483.942L192.332,482.887L192.917,481.577L194.127,480.728L195.841,479.995L198.001,478.074L199.154,478.148L199.195,477.068L200.616,476.121L200.933,476.409L202.768,475.931L203.824,476.508L204.693,476.409L206.196,475.807L208.129,474.224L209.298,473.895L210.557,472.823L212.027,471.965L213.01,470.613L213.026,469.244L213.432,469.434L214.439,468.7L214.967,466.894L215.82,466.556L217.997,464.437L220.23,462.87L220.977,462.086L221.749,460.659L221.416,460.511L221.968,459.414L222.244,459.645L223.219,458.094L224.299,457.285L225.907,456.823L226.622,457.211L228.717,457.541L229.797,457.904L231.194,458.003L232.461,458.655L233.728,460.065L235.012,460.263L235.653,460.024L236.457,460.271L237.635,460.189L238.488,460.981L240.372,460.973L242.216,460.593L243.093,460.799L246.293,459.851L248.12,459.001L250.735,458.11L252.644,458.176L253.456,458.787L256.25,458.292L259.88,456.782L261.285,455.899L261.57,455.28L262.983,454.497L263.868,453.556L263.681,452.871L265.46,446.616L265.5,446.69L263.811,452.426L264.51,454.043L265.963,453.399L265.411,453.325L264.566,452.351L265.232,451.287L266.207,452.417L266.8,451.98L265.947,450.998L268.579,449.034L269.22,449.967L268.441,450.883L271.421,448.853L269.919,446.93L270.763,446.187L270.341,445.659L271.884,444.429L273.931,446.971L275.117,445.997L274.938,445.741L276.132,444.99L280.786,441.094L283.125,438.997L286.186,436.099L287.583,434.539L288.257,434.109L291.855,430.69L293.187,429.253L297.07,425.503L297.719,424.611L298.783,423.802L300.83,421.241L302.178,420.076L303.973,418.142L307.238,414.854L313.589,408.142L313.419,407.357L314.962,407.58L316.009,407.506L317.674,405.919L317.983,405.133L318.901,404.761L319.908,403.447L320.793,403.728L321.865,403.273L324.643,401.14L324.854,400.511L325.609,400.627L327.185,399.42L326.917,398.345L327.656,398.08L328.899,398.543L329.012,398.022L330.149,398.37L332.017,397.667L332.139,397.187L333.365,397.063L334.819,396.178L334.811,395.542L336.598,394.847L337.061,393.854L338.969,392.969L338.044,393.978L339.376,394.02L339.132,393.457L340.894,392.514L341.544,392.845L341.609,391.547L342.226,391.588L342.291,390.662L343.55,390.571L345.109,388.552L348.22,383.82L350.437,380.154L351.696,377.53L352.281,377.05L353.28,375.147L354.035,372.986L355.424,370.362L355.716,369.418L356.309,368.748L357.885,365.626L358.689,363.382L360.776,358.62L360.939,357.808L360.727,356.425L360.752,354.834L361.621,354.561L363.091,354.503L364.472,353.318L364.959,352.208L365.016,351.214L366.315,350.493L367.16,349.118L368.687,347.444L368.671,346.822L369.686,345.704L370.563,344.229L370.522,343.052L372.618,341.137L373.219,339.861L374.697,338.302L375.801,337.788L376.216,337.034L378.197,335.956L379.009,335.086L380.91,334.24L382.161,332.855L384.792,331.296L386.189,329.746L388.236,326.296L389.746,323.078L390.713,320.705L390.94,319.486L392.077,318.316L392.995,317.047L394.083,316.184L395.025,314.607L395.488,312.608L396,311.255L396.991,309.371L397.202,307.96L397.949,306.798L398.039,305.038L399.062,303.586L398.932,302.83L399.858,302.033L398.396,300.821L399.842,300.423L400.824,299.028L401.718,295.2L402.311,293.498L402.286,292.709L404.008,286.014L404.853,282.093L404.731,281.204L405.178,280.182L404.934,279.101L404.406,278.819L404.869,276.642L405.429,276.409L405.6,275.154L406.047,274.082L406.501,273.766L407.395,271.455L406.932,270.682L407.541,270.175L407.435,269.593L408.166,268.122L408.743,266.334L408.93,264.954L409.433,264.297L410.96,260.913L411.163,259.815L412.065,257.254L412.576,256.53L412.552,254.834L413.072,254.418L413.705,252.346L414.103,252.405L417.417,248.079L417.758,247.03L418.871,246.057L419.464,244.992L420.26,244.284L423.939,240.165L425.953,238.209L429.258,235.57L433.539,232.382L439.281,228.918L439.955,227.736L443.48,226.07L444.714,225.346L445.315,224.513L446.468,224.288L447.841,223.322L449.108,222.781L450.497,221.581L452.576,220.124L453.445,219.765L455.394,218.208L457.327,217.083L457.879,216.442L461.201,214.492L461.77,213.809L466.878,210.218L469.014,208.351L470.46,207.384L471.037,206.692L474.789,203.692L474.383,203.092L475.999,201.975L476.811,202.558L477.087,202.241L478.671,202.867L478.915,201.316L479.589,202.158L479.621,201.341L480.441,201.275L480.352,200.766L479.564,200.658L478.988,200.091L480.758,200.333L482.09,199.816L484.429,199.441L485.201,199.049L485.006,198.19L485.509,197.982L488.409,198.123L489.4,197.99L493.063,196.773L493.282,197.415L496.295,196.522L499.024,195.313L501.241,194.613L504.839,193.054L505.44,193.054L510.67,191.252L511.84,190.585L513.107,190.193L514.252,189.184L514.398,188.042L517.087,186.532L516.924,186.29L519.986,180.325L520.749,178.965L516.973,186.29L517.736,187.658L518.687,187.733L520.546,192.353L520.067,192.962L518.191,194.346L518.719,194.997L520.408,193.804L521.066,194.113L521.464,195.705L522.155,195.422L521.862,194.204L522.008,193.604L523.194,193.496L523.527,194.321L525.022,193.471L523.974,192.82L522.609,192.603L522.211,191.611L523.69,190.835L523.527,190.377L521.83,190.81L521.139,190.218L519.807,186.882L521.147,186.048L520.303,184.547L523.933,181.944L524.753,182.186L525.151,182.728L527.198,181.335L527.645,180.601L528.441,180.459L532.672,177.188L536.229,174.167L541.768,168.926L544.051,166.563L548.485,161.704L551.588,157.888L552.319,157.128L556.103,151.958L556.956,151.148L559.839,146.336L563.064,141.866L564.729,138.916L567.059,135.23L568.586,133.332L568.538,132.22L571.908,126.284L572.209,126.117L573.281,123.984L573.045,121.735L573.744,122.028L573.857,121.091L573.07,120.648L572.355,121.174L572.85,120.104L572.866,117.996L573.93,115.06L575.003,113.035L575.067,112.542L576.757,109.856L578.341,106.408L578.6,104.056L578.137,103.312L577.536,103.412L576.245,102.098L576.96,100.089L576.984,98.833L577.618,96.858L577.35,95.191L578.186,93.391L578.357,92.395L577.983,89.615L578.235,88.685L578.211,86.851L577.61,86.315L578.154,85.05L578.641,83.031L578.828,81.356L578.243,80.25L578.211,78.089L578.828,76.136L578.795,73.865L579.169,71.921L578.763,71.36L578.803,69.868L579.145,69.407L579.153,68.108L578.511,65.761L578.755,63.95L579.713,61.829L579.656,61.057L580.192,60.319L581.183,57.225L580.273,56.353L580.403,55.406L579.827,54.491L580.135,54.265L580.119,52.931L581.597,51.061L581.963,50.004L581.768,49.157L582.45,48.687L583.019,47.563L582.946,46.531L583.417,45.961L583.108,44.719L583.912,44.459L584.294,43.36L586.259,41.22L586.941,40.171L587.169,38.635L586.803,37.855L587.315,37.276L587.494,36.092L590.271,32.945L590.872,31.484L591.944,28.017L592.7,27.202L592.7,26.01L593.593,25.187L593.374,24.776L593.756,23.608L593.195,23.827L593.569,23.004L594.519,22.811L594.722,22.265L594.048,21.727L594.884,21.425L595.965,19.813L597.037,17.469L596.338,16.713L596.257,16.066L597.02,15.966L598.694,14.067L599.433,12.983L602.397,7.917L602.584,7.085L603.664,5.421L604.639,3.236L604.679,0.58ZM267.718,149.87L267.799,148.917L268.822,148.55L269.431,147.673L269.391,146.837L270.495,146.077L270.747,144.824L270.503,144.289L269.48,144.172L270.195,143.838L271.787,142.275L272.29,142.275L272.851,140.554L273.63,140.788L273.996,139.927L275.141,139.751L275.661,137.863L275.303,137.445L275.571,136.717L276.432,136.509L278.016,134.686L278.162,133.106L277.447,131.97L278.284,131.786L278.666,131.125L278.39,130.598L278.658,129.211L279.186,129.185L279.226,128.483L279.925,128.048L280.81,128.14L281.216,126.543L282.377,123.608L283.831,121.266L284.749,119.117L284.286,118.523L285.764,118.105L287.031,118.456L288.144,118.096L289.492,117.21L289.898,117.252L291.108,116.29L292.123,114.608L294.422,113.479L296.655,111.044L297.703,108.617L299.303,108.023L300.44,107.161L301.601,105.588L301.374,104.718L302.121,104.249L302.69,103.312L303.729,102.659L303.372,100.566L304.371,99.62L305.061,99.721L304.948,100.717L305.476,101.453L306.742,101.211L306.937,100.39L308.001,100.842L308.237,99.754L309.658,99.871L311.25,99.729L311.827,99.243L313.646,97.092L314.158,95.417L313.622,94.363L315.075,92.763L315.36,91.951L314.945,89.933L314.361,88.878L314.897,87.32L315.928,86.893L316.813,85.695L317.033,84.321L317.382,84.263L317.561,82.646L318.056,81.373L319.445,80.954L319.745,80.284L320.322,80.258L320.598,79.421L320.281,77.929L319.583,77.996L319.185,77.142L320.038,76.555L320.801,76.941L321.548,76.48L322.555,77.041L323.961,76.622L324.375,75.809L326.048,74.754L326.251,74.033L327.152,74.31L328.484,73.74L331.229,74.083L331.985,73.849L332.838,74.083L333.975,73.765L334.584,75.013L334.299,75.675L335.071,76.329L335.818,76.488L334.348,78.055L334.632,78.256L333.91,79.22L333.252,79.563L332.984,81.389L332.821,84.305L332.131,85.946L332.456,89.506L332.058,92.06L332.293,92.772L332.058,94.069L332.57,95.2L332.22,96.514L331.944,98.59L331.579,99.687L331.757,101.119L331.197,101.83L330.905,104.19L330.409,104.667L329.321,107.689L329.207,108.91L328.395,109.504L328.054,110.91L328.371,112.115L328.021,116.666L327.51,117.293L327.071,117.101L326.535,118.247L325.853,119.05L325.268,120.388L325.211,121.542L324.196,122.906L323.961,124.403L323.449,124.779L322.442,126.242L322.239,127.764L321.378,128.048L319.656,130.364L319.404,131.852L317.577,134.536L316.83,136.132L316.935,136.926L316.188,139.785L314.759,141.765L314.409,143.002L313.354,145.024L313.094,146.077L313.784,148.124L313.784,150.43L313.086,151.983L313.094,154.706L312.834,154.848L313.597,156.502L313.459,156.944L315.465,158.398L316.123,158.314L315.481,159.066L317.268,160.343L319.607,161.237L319.753,161.587L321.483,162.422L324.407,163.424L325.284,163.516L326.494,162.781L326.803,162.155L328.038,161.128L328.915,161.362L329.8,160.485L330.71,160.744L331.538,160.201L332.302,160.861L332.838,160.569L335.436,160.569L336.013,160.176L338.669,159.408L339.4,158.105L339.351,157.061L340.098,157.671L340.854,157.704L341.828,157.27L342.738,157.429L343.956,157.253L345.288,156.243L346.579,154.973L346.458,155.617L347.042,156.443L348.025,156.343L348.269,157.312L349.04,158.272L348.188,159.734L348.651,159.976L349.073,161.821L348.789,162.998L349.032,163.533L347.7,165.595L347.197,167.381L346.636,168.658L346.685,170.219L346.068,170.595L345.231,171.855L345.174,172.69L344.029,173.9L343.777,175.544L343.315,176.195L343.477,177.764L342.9,179.758L342.169,181.276L340.301,183.145L339.676,185.664L339.181,185.806L338.368,186.757L337.077,189.943L335.591,191.344L335.461,193.02L334.957,193.629L334.129,196.172L333.292,197.24L332.846,199.415L332.123,200.391L331.627,201.716L330.807,202.825L331.035,205.109L330.45,206.942L330.45,207.859L329.8,209.193L330.092,210.468L329.833,210.843L328.801,210.701L327.42,210.876L326.324,211.767L326.113,212.667L324.781,214.292L324.61,214.909L322.994,216.45L322.385,218.374L320.752,219.091L320.687,219.69L318.868,219.382L316.627,220.59L316.001,221.906L315.481,221.998L314.588,223.064L313.955,223.039L311.071,224.038L310.649,224.813L308.31,226.828L306.767,227.661L306.946,228.585L306.686,229.576L304.038,230.384L302.276,232.598L300.196,234.371L299.084,236.153L297.979,236.436L297.403,237.385L295.405,238.767L294.958,238.567L294.389,239.574L293.366,240.406L292.862,240.273L291.88,240.822L290.71,240.906L289.459,242.179L288.038,241.68L285.902,242.295L285.301,242.112L284.237,242.453L283.198,241.638L281.858,241.263L281.801,241.68L280.672,241.297L278.82,241.746L277.504,243.044L277.285,243.535L275.409,243.261L273.963,244.584L273.963,245.308L272.924,245.175L272.347,245.924L272.794,246.365L271.779,247.28L271.389,245.349L270.763,245.358L270.162,246.481L269.35,247.18L268.351,248.478L265.825,249.21L263.178,249.701L263.689,249.035L262.52,249.302L262.715,248.752L261.269,248.287L260.895,247.696L260.148,247.887L259.596,248.528L259.174,247.862L258.232,247.812L256.445,247.047L255.868,247.271L254.918,245.765L255.86,244.817L254.593,245.191L253.878,244.95L253.448,244.001L252.766,243.81L252.579,242.928L253.383,242.811L253.553,241.114L254.958,240.315L254.967,239.715L256.339,238.017L257.038,238.65L258.15,238.767L258.321,238.059L259.271,238.25L259.832,237.751L260.871,237.66L261.147,237.177L261.789,237.793L263.105,237.66L263.811,237.967L264.55,237.285L264.599,236.12L265.598,236.161L265.533,235.812L267.32,236.686L268.01,235.87L268.505,235.945L269.691,234.671L272.558,229.692L273.379,227.761L273.939,225.812L273.419,224.904L273.484,224.18L274.15,224.013L274.248,223.33L275.076,222.281L275.271,219.824L274.743,217.958L274.126,217.283L273.078,216.741L272.112,214.909L272.899,214.334L272.631,213.626L273.882,211.976L273.874,210.684L275.084,210.093L276.481,208.351L277.927,207.059L278.934,205.176L279.169,204.225L279.876,203.609L281.021,203.333L284.7,201.433L286,200.049L286.276,198.774L287.283,198.457L287.502,197.556L288.387,197.548L289.159,195.864L289.135,194.563L288.509,191.978L288.55,191.569L284.936,186.832L282.67,184.53L279.445,182.453L277.415,181.877L274.166,182.027L272.428,182.511L270.999,183.487L270.804,184.096L270.69,186.59L270.073,187.358L268.814,188.033L267.807,189.318L268.124,189.985L267.775,190.969L267.377,190.802L266.589,193.179L266.711,194.246L266.053,194.888L266.053,195.689L265.484,196.081L264.461,195.672L264.217,194.738L262.008,193.346L261.431,193.312L260.92,192.678L260.522,192.995L259.734,192.095L259.425,190.969L258.898,191.119L258.556,190.043L259.758,189.668L259.872,190.085L260.652,189.576L259.986,187.691L260.774,186.649L260.79,185.08L260.408,184.972L260.619,183.721L260.213,183.337L260.603,182.845L260.164,181.151L259.019,181.168L258.792,180.242L257.403,180.559L257.614,179.524L257.168,179.374L257.817,177.764L257.192,176.762L258.922,176.57L260.083,175.761L261.058,175.794L261.643,174.943L261.773,173.775L261.212,172.899L260.765,171.321L260.969,170.503L260.278,169.977L261.05,169.886L261.553,168.55L261.407,167.765L260.725,167.782L261.098,166.513L260.725,164.677L260.213,163.708L260.92,163.299L261.756,161.988L262.244,162.038L262.512,161.287L263.511,159.917L263.462,159.366L264.112,158.974L263.876,157.855L263.04,157.587L262.56,157.955L261.968,157.429L262.674,156.627L262.357,155.976L262.763,155.216L263.389,155.5L263.706,154.096L263.949,154.28L264.688,153.328L264.152,153.153L264.591,152.309L265.354,153.119L266.646,152.685L267.515,151.983L267.328,150.463ZM325.934,72.323L326.137,73.287L325.617,73.899L325.463,73.228L324.919,73.22L325.317,72.508ZM527.791,20.72L528.213,21.148L529.927,21.408L530.024,22.005L528.408,23.709L528.343,25.28L528.018,25.573L528.27,26.48L528.896,26.774L527.815,27.286L527.198,29.335L527.32,30.368L526.467,31.308L525.72,32.668L525.639,33.39L524.9,34.313L522.829,35.731L521.635,37.217L520.051,38.635L519.011,39.08L518.825,38.593L517.005,38.585L517.208,37.956L518.061,37.259L517.801,35.152L519.101,35.236L519.775,34.456L519.344,33.364L519.629,32.181L518.719,31.182L519.328,31.039L520.116,29.914L521.432,29.788L521.253,29.066L521.984,28.882L522.09,28.26L522.731,28.176L523.3,26.825L522.894,25.767L523.56,25.767L524.323,24.65L524.51,23.567L525.874,22.928L526.459,22.995L526.272,21.904L526.938,21.089Z"
          fill="#e0e0e0"
          stroke="#333333"
          stroke-width="1"
          stroke-linejoin="round"/>
  </g>
</svg>