<?xml version="1.0" encoding="UTF-8"?>
<svg xmlns="http://www.w3.org/2000/svg"
     viewBox="40.45706878960482 -20 719.0858624207904 639.9999999999964"
     width="719.0858624207904"
     height="639.9999999999964">
  <title>富山県</title>
  <desc>都道府県コード: 16</desc>
  <g id="16">
    <path d="M651.899,0.043L653.743,2.813L661.607,7.988L662.031,8.353L663.196,9.234L664.871,12.97L667.669,17.435L668.41,17.929L673.222,22.33L673.285,22.609L673.37,25.228L675.575,25.1L676.041,24.906L677.313,24.649L677.991,24.842L681.107,26.538L681.594,26.667L684.985,28.513L686.194,29.994L686.512,30.38L687.253,30.96L692.807,31.732L693.548,31.496L693.888,31.518L694.312,31.732L695.35,32.097L696.134,31.904L701.094,30.251L701.772,30.316L703.341,30.359L703.892,30.402L704.252,31.582L704.125,32.14L704.443,34.093L704.846,34.63L705.694,35.832L705.651,39.287L707.559,40.725L707.919,42.163L709.382,44.288L709.954,44.932L710.187,45.232L710.145,45.597L708.979,47.807L708.619,48.623L707.41,50.061L707.856,50.511L708.385,55.597L708.449,61.626L708.279,61.99L706.881,62.205L706.457,62.42L704.846,65.187L704.973,66.367L705.948,68.233L705.566,71.666L705.545,72.138L705.503,75.484L707.22,78.594L709.106,79.967L710.06,82.262L712.985,86.809L715.677,88.267L716.546,90.068L718.157,90.626L719.534,94.593L718.877,96.738L719.004,97.917L719.534,101.412L719.047,103.127L718.411,104.006L720.17,105.722L720.149,107.072L719.979,108.059L720.234,109.988L720.085,111.017L718.708,115.069L719.598,117.491L718.559,122.657L719.789,126.708L717.902,129.752L717.605,130.095L717.266,131.788L717.33,132.088L718.263,133.481L723.985,137.574L724.6,138.453L725.194,139.117L725.511,139.396L726.91,140.488L727.419,143.103L729.899,145.203L730.259,147.881L730.323,148.224L730.323,148.524L730.111,149.231L730.238,150.216L730.768,150.602L731.065,153.002L733.269,156.023L731.997,159.686L731.807,159.964L731.128,161.4L731.319,161.957L730.492,165.598L730.895,168.19L730.641,168.597L730.556,168.961L730.174,170.76L732.57,173.502L733.078,173.716L735.685,175.151L736.13,175.622L739.543,180.548L738.907,182.304L737.211,183.932L736.576,187.401L731.722,195.323L732.061,195.537L734.286,199.884L733.99,202.003L736.703,203.908L735.537,207.355L734.456,207.912L734.308,208.361L734.414,208.875L734.371,209.174L734.35,209.303L733.99,209.453L733.184,211.336L733.311,211.765L734.117,212.45L732.676,215.211L730.98,215.853L731.785,220.626L731.955,221.182L732.061,225.142L731.425,226.233L731.234,226.811L731.616,228.544L730.81,232.332L731.043,232.867L730.45,234.75L731.404,238.409L734.011,239.971L734.922,243.651L732.866,245.919L733.29,249.32L736.809,250.583L737.042,250.625L737.169,255.225L736.66,258.219L736.364,258.562L736.321,260.444L736.385,260.765L737.868,263.716L737.296,265.727L738.42,266.775L736.766,271.565L734.965,273.896L732.76,274.602L733.078,275.65L733.227,276.377L734.689,278.858L734.774,282.835L733.566,290.318L732.146,293.931L732.146,295.834L731.976,296.39L731.319,300.986L729.793,301.841L728.309,302.781L728.14,302.91L727.525,304.983L727.398,305.817L726.486,308.852L726.274,312.891L728.182,318.683L728.67,319.431L731.213,323.833L732.527,329.068L731.149,330.842L731.171,333.299L728.945,334.901L723.265,333.961L722.565,333.812L721.463,334.324L717.224,333.961L715.316,335.136L713.409,335.029L712.01,336.867L711.861,337.038L708.64,338.832L708.449,338.939L705.333,343.169L703.807,344.13L703.256,344.323L701.073,346.138L694.799,349.727L694.396,349.834L694.206,349.834L693.718,349.834L691.259,351.457L691.196,351.82L690.263,353.145L689.924,353.721L687.91,355.964L688.419,360.129L688.483,360.684L689.119,363.183L688.207,366.044L688.059,366.429L687.91,366.664L687.868,367.069L687.783,367.71L687.041,369.824L686.66,370.123L686.469,370.358L686.406,370.678L686.066,371.02L686.066,371.148L686.469,372.685L686.3,373.219L685.77,376.593L687.084,377.596L687.614,377.938L689.903,377.34L690.115,377.255L690.602,377.02L692.001,377.169L692.531,377.191L694.184,376.678L698.254,377.746L698.72,377.703L699.504,377.596L700.098,377.874L702.747,377.959L703.192,379.326L701.857,380.714L701.603,381.098L701.433,381.482L701.221,382.101L700.628,382.977L700.246,383.681L699.716,384.706L699.441,385.197L699.271,385.453L699.229,385.645L698.805,385.987L698.72,386.158L698.148,387.716L698.869,390.342L698.975,390.705L699.928,393.202L700.013,393.501L699.95,393.565L698.127,394.163L697.724,394.462L695.435,395.807L695.053,396.041L692.044,399.649L691.641,399.521L691.047,398.517L690.899,398.154L689.521,397.023L683.481,397.386L683.141,397.237L680.365,397.343L680.259,397.877L678.712,399.456L674.939,400.652L673.794,403.661L673.858,404.109L673.794,407.439L673.815,408.25L673.837,409.765L673.794,410.555L674.07,411.707L674.049,412.561L673.243,414.46L669.725,413.841L667.372,414.545L663.514,418.706L663.133,422.462L663.196,423.486L663.451,426.515L663.641,426.857L665.274,430.825L665.528,431.294L666.736,433.961L665.422,438.398L665.613,443.731L663.366,444.093L661.797,447.037L658.936,447.293L656.944,452.881L655.99,453.926L654.506,458.575L654.294,462.328L653.446,464.737L653.892,465.804L653.955,466.465L652.959,469.45L650.988,471.347L650.924,471.902L647.427,473.415L643.463,473.565L643.188,473.97L640.644,477.295L640.136,477.658L638.482,477.765L637.592,477.189L633.629,477.018L634.307,478.361L632.993,481.538L632.887,481.9L633.099,482.412L632.993,482.604L631.721,482.881L630.915,483.435L630.619,486.164L631.763,489.34L631.679,491.386L627.99,494.604L625.765,498.313L623.815,499.059L622.713,502.362L619.385,502.191L615.104,501.126L612.602,499.485L609.953,499.868L608.448,502.788L606.541,502.49L600.288,504.152L599.355,503.683L592.318,501.808L591.682,501.872L587.698,500.806L587.231,500.082L587.062,499.741L584.349,495.67L582.123,494.476L580.258,490.768L577.079,490.533L576.21,489.02L573.603,488.402L572.5,486.782L571.737,485.823L569.978,483.84L569.999,481.623L568.452,479.662L568.388,479.044L568.219,475.974L568.155,474.716L566.248,472.733L564.001,472.818L562.666,471.731L557.685,471.411L556.201,472.285L554.484,473.266L549.058,473.415L547.765,473.394L542.021,472.051L541.788,473.223L541.576,473.842L538.142,479.235L533.034,483.179L530.787,482.625L527.184,479.811L525.213,479.278L522.564,482.561L522.436,482.561L518.96,480.195L518.685,479.854L517.498,478.575L516.629,477.232L516.099,476.251L513.216,475.441L510.016,476.272L509.295,474.588L505.649,474.247L503.445,471.88L498.146,472.605L497.32,471.944L496.408,471.71L494.077,470.43L493.822,468.917L493.229,468.149L488.248,462.669L488.036,458.383L488.078,458.084L487.909,452.667L488.46,451.9L488.905,450.897L488.863,450.471L488.481,449.383L488.184,447.485L488.015,446.397L484.645,442.707L484.411,443.71L483.988,444.328L483.267,445.331L482.144,446.162L477.65,446.952L476.506,448.828L474.916,448.658L474.619,448.466L471.525,448.274L468.684,450.385L465.229,451.089L464.7,453.648L462.665,456.89L463.534,458.319L463.661,461.262L462.856,462.754L458.256,464.119L457.472,465.59L454.907,464.311L453.635,465.569L449.248,464.972L446.98,467.467L444.352,467.424L443.483,467.936L442.19,469.236L440.028,469.428L436.594,472.797L432.694,472.392L429.896,469.642L429.239,466.614L427.862,466.23L426.759,463.415L429.261,459.641L432.673,458.063L432.228,457.103L431.656,455.099L432.207,454.779L432.355,452.028L435.407,450.129L434.453,444.627L434.708,441.811L432.376,441.662L427.777,439.358L425.615,441.171L423.983,441.342L422.245,444.157L418.493,442.558L416.543,442.686L412.622,440.574L412.134,440.233L411.244,438.931L408.955,438.355L404.78,440.851L403.36,441.129L398.654,443.987L397.891,446.504L394.733,448.85L394.097,449.468L393.482,450.172L392.02,446.952L390.642,445.97L390.176,443.646L387.505,440.979L383.966,444.627L382.927,446.632L382.376,448.764L379.96,451.303L378.561,453.862L378.094,454.16L376.42,455.994L375.551,455.994L370.146,456.528L368.408,460.131L366.606,460.856L366.119,460.366L363.978,461.454L364.402,466.081L364.72,466.87L363.575,467.914L361.837,467.232L361.392,466.763L359.569,469.919L359.273,470.089L358.531,468.32L358.404,467.424L358.255,465.889L358.34,465.207L357.704,461.432L356.941,460.579L354.313,456.762L354.165,456.122L353.804,454.523L351.43,453.99L350.392,452.113L350.837,451.43L350.837,449.682L350.837,449.191L349.311,447.25L342.91,449.042L340.811,448.701L340.303,448.594L339.116,448.978L338.586,450.257L337.907,451.089L335.385,447.122L332.206,446.546L331.952,446.696L331.676,447.037L330.15,447.314L327.5,445.672L326.377,448.466L324.003,451.964L323.24,452.326L323.028,452.582L322.816,453.115L319.679,454.011L319.107,454.416L318.196,454.63L317.602,454.48L315.589,457.039L316.458,460.771L312.727,461.347L312.24,461.411L310.438,463.735L308.764,464.268L308.764,464.673L307.534,467.914L307.28,468.277L305.627,473.117L303.295,474.801L302.108,478.511L300.9,479.427L300.73,479.449L300.603,479.342L300.179,478.553L298.441,477.935L297.763,479.896L294.605,480.493L292.761,484.522L292.337,484.97L292.273,485.183L292.358,485.375L292.634,485.865L293.079,487.229L289.836,489.617L289.603,490.32L288.077,494.221L283.668,494.178L283.392,494.412L281.654,496.096L281.252,496.48L283.223,499.634L283.774,502.873L283.265,507.135L279.45,508.222L277.5,507.668L277.203,507.455L272.244,506.858L271.12,507.327L270.251,508.009L270.039,508.648L269.912,508.776L268.937,508.84L268.81,508.925L268.322,509.756L266.394,512.42L263.447,514.551L260.777,515.019L259.992,515.318L258.127,517.981L258.36,520.474L258.827,521.07L260.84,521.624L260.713,522.775L260.204,523.52L258.911,526.78L258.784,527.227L257.343,530.082L257.11,530.699L255.859,533.873L252.744,536.408L251.896,539.986L258.594,542.286L257.894,543.287L256.474,544.608L254.969,545.566L254.439,545.587L253.613,552.04L254.185,553.297L253.019,555.064L249.395,557.428L247.466,559.855L247.254,560.174L243.99,563.538L238.712,563.134L235.194,564.177L232.099,562.772L231.929,564.603L231.76,564.837L231.06,564.837L231.06,568.861L233.01,570.521L229.831,574.034L228.517,574.609L228.241,577.248L225.995,579.824L225.91,580.25L226.016,580.441L226.079,580.761L225.889,582.506L227.182,583.783L223.918,584.932L223.854,587.04L221.438,588.657L220.971,588.572L220.632,588.678L220.484,589.21L217.94,589.551L217.538,589.721L215.969,588.721L211.984,589.147L211.772,589.189L209.653,590.062L209.038,589.977L209.314,593.148L204.926,595.914L204.693,597.383L201.556,600L199.649,598.915L199.458,598.83L198.483,597.149L196.278,599.021L195.473,597.127L195.155,597.212L191.467,597.766L189.644,596.978L190.344,593.084L192.294,591.232L191.361,589.743L193.862,586.188L194.159,585.677L194.964,582.357L196.681,581.037L196.236,578.76L197.275,573.906L200.263,569.904L199.458,569.01L198.716,565.029L195.855,563.113L194.668,562.602L191.976,558.173L191.658,557.726L192.188,555.021L191.997,554.595L189.983,551.699L188.818,547.185L188.584,546.78L187.715,544.949L185.108,545.055L184.473,543.649L184.155,543.053L184.07,542.627L183.625,542.116L181.675,539.326L181.018,539.155L177.308,536.6L172.603,537.388L171.67,536.323L171.289,535.961L170.674,535.343L170.229,534.896L167.58,532.616L159.165,529.506L155.35,526.737L153.463,528.676L152.382,531.125L148.143,533.298L148.228,533.958L145.791,537.345L140.068,540.902L138.754,542.521L138.16,542.755L135.977,540.37L135.447,540.284L134.663,540.774L134.112,541.221L132.649,541.605L134.239,538.602L133.688,535.833L129.682,536.536L129.491,535.322L130.191,533.106L131.738,533.298L132.141,533.106L133.921,530.699L133.836,530.231L133.9,526.844L132.077,526.63L131.653,524.948L131.844,524.585L131.971,521.752L130.53,521.07L128.431,522.86L128.982,524.159L127.456,529.166L125.761,531.53L125.782,531.764L127.096,534.768L126.46,536.195L123.832,536.301L122.666,536.429L119.656,536.301L119.868,537.26L119.72,537.665L117.537,538.112L115.205,536.791L115.015,536.77L114.061,535.3L112.068,534.981L110.394,536.195L109.08,537.132L107.342,538.282L107.532,538.602L107.469,541.072L108.762,545.758L111.009,550.379L110.881,550.912L109.143,554.468L108.147,558.428L107.766,559.216L104.777,564.922L102.975,569.798L102.742,571.735L104.078,572.523L100.75,574.247L100.135,576.099L98.482,575.652L97.931,575.482L96.362,576.056L91.975,575.801L91.572,575.503L88.245,575.992L87.99,574.907L85.023,573.012L81.017,574.502L80.105,575.205L76.735,578.951L76.714,578.887L75.845,577.419L75.718,576.972L75.442,573.161L75.336,572.437L75.252,571.841L75.018,571.245L74.319,569.542L74.192,568.712L75.315,565.859L75.442,565.242L75.061,560.685L75.379,560.238L74.573,557.236L71.055,553.744L73.026,550.102L72.348,548.399L72.263,542.947L71.521,541.2L73.471,537.175L76.46,537.515L76.82,537.302L77.435,537.217L79.724,534.193L82.988,533.362L83.454,532.297L86.061,531.36L87.587,528.569L87.206,527.866L86.528,524.671L84.514,522.988L84.387,521.603L82.077,518.727L82.458,513.166L82.267,511.568L82.331,509.948L80.762,506.965L79.872,501.445L79.915,500.998L80.105,500.529L80.105,499.57L80.084,499.485L78.791,498.355L78.749,498.142L79.067,497.609L78.961,494.221L78.791,493.389L77.223,491.684L76.862,490.768L75.93,489.873L73.09,486.654L72.051,485.418L71.776,485.439L71.097,485.695L67.346,481.261L62.365,481.644L61.644,481.09L61.305,480.536L62.64,476.379L62.386,474.311L60.457,473.458L60.669,472.499L60.584,469.3L62.216,466.678L62.831,466.358L65.141,466.422L65.586,466.635L66.922,467.381L69.041,464.823L69.38,464.375L72.645,460.963L78.728,456.741L79.597,455.056L75.951,453.904L74.489,451.622L74.383,451.025L74.319,447.783L74.785,447.058L80.826,441.107L79.639,439.763L78.664,439.465L79.385,437.716L79.957,436.862L80.826,435.476L78.77,431.294L78.918,430.292L81.907,423.102L83.793,421.651L83.348,416.636L83.03,416.551L81.441,417.02L78.918,413.948L78.537,411.814L79.745,408.058L79.915,407.588L79.427,403.149L79.342,402.637L78.643,399.521L80.063,397.813L80.805,396.874L81.653,395.38L81.865,390.833L82.818,391.174L83.073,391.025L84.705,389.573L84.832,388.698L84.917,387.801L85.404,387.588L85.659,387.31L85.849,386.649L87.079,384.492L87.121,384.044L87.206,382.763L87.587,382.336L88.605,380.756L88.965,380.265L90.767,376.337L90.618,374.159L92.802,368.628L93.162,368.222L93.437,367.347L93.331,366.728L93.565,364.934L93.734,364.015L90.873,359.402L90.258,358.463L90.025,357.224L87.164,355.814L86.295,354.212L85.913,353.572L83.666,350.282L81.144,349.3L80.678,349.385L79.512,350.197L78.982,350.218L77.074,350.71L76.057,348.189L77.901,343.596L77.286,340.435L78.77,337.849L78.283,335.307L78.346,334.431L78.007,332.337L75.188,331.248L74.319,330.008L74.022,329.666L74.425,326.547L74.764,325.991L74.107,321.953L75.697,321.183L75.358,319.687L74.806,319.089L72.496,316.247L72.539,315.862L72.433,315.264L72.305,312.229L70.631,310.69L71.521,307.441L71.458,302.375L71.712,302.097L71.224,300.729L72.39,298.592L73.026,298.485L78.537,296.71L78.452,296.411L79.999,295.15L80.233,294.765L81.928,292.777L81.865,290.617L81.865,290.275L81.843,290.083L81.865,289.634L81.822,285.828L82.543,283.904L83.497,283.412L87.079,283.027L88.478,279.948L88.287,279.734L86.93,278.558L89.092,274.324L89.347,274.068L92.314,272.186L93.141,271.309L92.929,269.384L94.073,267.759L94.222,267.203L94.582,266.475L94.836,266.155L95.175,266.133L98.228,264.444L97.634,261.043L96.023,259.973L96.362,258.455L96.68,258.134L96.808,257.898L96.871,256.957L97.401,254.84L97.147,254.454L96.85,254.219L96.638,253.92L96.044,252.337L93.989,251.053L91.869,251.845L88.944,250.369L88.838,250.069L90.385,245.641L89.749,244.464L91.466,239.714L92.632,238.216L90.767,235.82L87.142,234.707L84.747,231.797L84.345,231.369L81.123,230.235L80.614,229.315L80.317,228.63L78.389,227.196L77.859,226.918L77.859,226.661L77.541,225.42L74.891,223.622L74.976,222.167L75.294,221.717L75.654,221.61L76.311,221.589L77.35,220.861L77.477,220.39L77.816,219.748L77.731,215.789L79.321,213.477L81.674,213.07L86.676,214.611L87.439,213.092L89.686,212.856L91.381,212.749L93.077,213.434L95.557,212.557L96.829,204.615L99.075,202.881L100.983,203.566L101.216,203.352L101.322,203.266L102.488,203.009L103.081,202.881L104.671,202.26L104.819,201.982L108.677,200.247L109.822,198.128L109.906,197.678L109.822,197.057L110.542,196.501L110.818,196.115L112.407,193.567L112.725,191.362L112.853,191.127L115.46,188.407L116.731,181.833L116.668,181.426L116.604,180.976L117.961,178.92L115.502,176.329L115.523,174.658L115.332,174.037L113.637,172.752L113.34,172.302L111.602,169.689L111.729,167.976L112.344,167.762L114.506,166.733L114.824,166.284L116.647,164.677L116.795,164.42L117.494,160.821L118.851,157.586L118.109,154.908L116.413,151.93L116.413,151.309L116.032,146.338L115.502,145.867L114.76,144.988L115.438,142.01L115.778,141.603L117.728,138.71L118.046,138.624L119.593,137.467L119.635,137.124L119.508,136.867L119.254,136.46L119.021,135.367L119.126,135.131L119.402,134.874L119.593,134.638L119.911,134.124L120.504,133.738L120.971,132.881L120.949,132.388L122.687,128.144L122.56,127.844L121.882,124.158L121.67,123.708L120.971,122.657L120.525,122.271L121.246,119.056L121.585,118.777L124.171,118.456L125.188,116.934L124.277,115.669L124.298,112.668L127.69,110.331L123.705,106.729L125.422,104.5L124.574,102.034L125.485,101.841L126.481,101.734L129.004,100.79L129.894,100.512L131.144,97.917L131.441,97.124L132.225,95.687L133.942,95.73L134.79,94.979L135.193,94.336L138.69,87.688L138.012,83.42L140.428,80.803L137.524,78.144L135.913,74.369L135.15,68.598L135.892,62.827L138.33,60.639L138.52,60.338L140.47,56.412L143.12,53.193L143.777,52.85L145.43,51.927L147.232,47.078L148.716,47.335L149.542,47.185L151.047,45.79L153.887,45.533L155.562,43.601L156.134,43.151L157.597,42.85L158.084,42.593L161.2,41.562L161.412,41.133L163.51,36.197L165.375,36.218L165.757,36.068L166.138,33.278L168.576,30.874L168.851,30.638L168.936,27.59L171.374,26.495L171.437,24.949L174.574,25.615L177.923,23.253L178.326,22.996L183.307,20.806L187.101,20.398L190.534,24.026L191.276,24.091L193.459,26.581L195.537,26.302L198.801,27.675L200.581,30.337L205.859,24.262L207.682,18.981L207.661,13.957L208.869,12.819L208.847,12.154L209.589,10.715L215.948,10.951L217.94,13.614L220.887,14.644L221.734,15.933L224.723,15.782L226.821,14.795L227.924,14.709L228.75,14.473L229.047,14.644L233.159,13.657L237.101,14.881L240.132,12.691L244.223,10.865L246.279,12.046L247.063,12.411L247.36,12.39L247.741,12.819L248.78,13.463L249.522,13.828L250.857,15.675L253.782,17.65L251.451,18.616L251.006,20.248L248.314,23.21L244.392,26.151L240.62,31.239L238.882,31.99L236.932,34.759L237.419,39.223L240.069,44.867L240.768,47.807L238.161,49.867L237.016,51.799L235.723,56.305L230.785,58.837L226.228,68.641L223.557,71.666L220.187,77.457L218.597,77.479L215.206,80.954L213.532,86.101L210.67,85.35L208.169,88.01L208.72,95.515L210.246,96.437L211.73,101.476L212.345,107.458L215.672,113.118L223.027,121.993L228.326,127.094L233.731,131.081L237.695,134.595L245.367,139.631L248.801,141.474L253.189,146.06L254.312,148.567L257.279,152.102L258.827,151.823L261.497,149.209L264.973,152.83L262.43,155.508L266.775,160.5L268.704,160.436L274.533,163.456L272.561,163.478L277.627,167.847L284.346,169.625L286.275,168.468L287.059,166.241L295.877,169.304L294.944,170.696L292.846,169.904L292.21,171.296L294.245,172.003L293.693,172.988L296.131,174.487L293.142,176.586L289.094,175.601L287.526,176.179L283.096,174.38L284.283,175.644L284.77,178.235L281.718,176.543L282.269,179.113L286.148,178.364L295.008,180.826L292.93,184.917L294.457,185.859L296.025,183.225L301.239,186.544L303.549,188.9L307.661,190.27L309.399,190.206L310.205,187.658L304.524,185.752L299.268,182.026L299.904,177.25L298.462,175.815L300.158,174.894L301.705,170.975L311.625,174.209L312.727,176.993L311.392,178.556L319.806,181.597L324.681,184.81L327.331,185.238L336.572,187.658L341.998,189.542L346.28,189.992L349.438,188.6L351.557,186.651L355.436,187.979L358.149,188.15L371.545,186.116L374.322,186.223L374.894,183.546L376.102,184.231L379.896,183.182L384.241,182.818L395.856,185.902L403.868,186.373L411.477,188.429L417.031,189.092L419.341,190.227L424.831,189.306L424.28,188.257L429.684,188L437.294,188.921L438.587,187.722L446.132,185.473L446.98,182.904L452.66,177.229L454.293,173.695L453.996,172.324L455.819,169.604L461.223,165.834L462.389,163.949L468.515,160.264L468.494,159.343L475.912,156.151L477.099,153.88L482.631,151.609L486.743,147.11L487.421,140.596L486.425,136.867L487.76,134.938L486.086,133.288L487.824,131.874L490.452,125.315L490.813,123.193L494.882,118.456L495.984,116.312L499.312,112.346L500.117,108.08L498.655,106.644L497.595,102.42L503.466,94.615L504.314,90.283L504.505,85.093L503.254,79.945L501.622,76.192L502.195,74.926L503.996,75.698L504.229,73.918L501.05,75.763L497.998,71.044L498.21,69.199L504.568,58.193L505.395,53.751L510.546,47.722L511.945,45.082L516.078,41.713L523.517,38.408L526.612,37.699L532.483,35.338L534.984,33.879L536.574,31.561L538.905,30.316L543.78,28.792L547.617,26.538L553.467,21.858L558.257,20.248L560.122,20.183L566.841,18.165L583.268,16.362L588.524,16.104L589.86,15.525L601.136,14.365L603.955,14.344L610.674,13.421L613.154,10.586L618.113,7.129L619.512,4.316L626.528,4.037L635.918,2.942L643.718,1.117L649.97,0Z"
          fill="#e0e0e0"
          stroke="#333333"
          stroke-width="1"
          stroke-linejoin="round"/>
  </g>
</svg>