<?xml version="1.0" encoding="UTF-8"?>
<svg xmlns="http://www.w3.org/2000/svg"
     viewBox="230.26569655507774 -19.99999999999818 339.46860688983725 640"
     width="339.46860688983725"
     height="640">
  <title>石川県</title>
  <desc>都道府県コード: 17</desc>
  <g id="17">
    <path d="M466.87,302.499L465.721,301.723L465.196,300.998L464.905,300.855L464.497,300.602L464.347,300.433L464.23,300.441L463.922,300.298L463.114,299.834L461.507,300.551L460.317,301.411L458.768,300.93L457.153,301.318L457.036,301.251L456.711,301.344L456.278,301.377L455.454,301.765L454.28,301.825L453.947,301.318L452.79,300.914L452.007,299.868L449.509,299.775L449.218,300.34L449.226,300.602L448.751,301.049L448.76,303.022L448.044,305.097L445.97,307.483L445.271,306.438L443.989,305.898L443.173,306.008L442.315,305.029L442.024,305.004L440.675,303.579L439.184,303.739L437.227,304.599L437.069,304.7L435.754,305.628L434.521,305.367L434.496,305.974L433.539,306.404L433.506,307.601L433.397,307.694L432.44,308.638L432.29,309.735L432.14,309.794L431.407,309.785L430.583,311.724L430.5,311.893L429.276,312.298L429.084,312.399L428.51,312.517L428.285,312.694L427.627,313.453L426.511,313.554L425.92,314.102L425.595,314.161L425.013,314.06L424.305,315.965L423.655,316.327L423.397,316.462L422.356,317.726L421.59,319.269L421.516,319.387L420.558,320.246L420.267,322.514L420.566,324.78L421.199,326.263L422.34,327.308L421.391,328.336L421.657,330.013L420.283,332.624L420.125,332.877L419.792,333.172L419.117,333.155L418.809,333.719L418.693,334.031L418.202,335.05L417.852,335.16L416.861,335.53L416.47,335.573L416.112,335.648L416.445,336.617L415.77,337.493L417.336,338.908L416.003,339.826L415.995,341.005L416.353,341.502L415.953,342.1L414.938,342.226L414.804,342.335L414.521,343.598L414.696,343.75L414.971,344.163L415.054,344.339L415.321,345.788L415.371,345.906L414.688,347.573L414.696,347.766L414.513,348.103L414.28,348.255L414.155,348.457L414.08,348.549L413.972,348.65L413.93,348.743L414.022,349.172L414.122,349.332L414.172,349.433L414.155,349.568L413.547,350.022L413.422,350.056L412.656,351.193L412.523,351.352L412.257,352.523L412.548,352.868L412.756,353.053L412.906,355.006L412.906,355.25L413.572,356.42L413.864,357.472L413.331,358.742L413.056,360.156L412.998,360.257L412.281,360.888L412.157,361.065L411.307,361.469L411.066,361.553L411.016,362.226L411.699,363.253L411.815,363.429L412.481,363.934L412.556,364.178L412.548,364.834L413.514,365.852L412.981,366.66L413.006,366.837L413.031,366.996L412.531,369.579L411.507,370.647L411.457,370.74L411.332,371.606L410.708,372.607L410.6,372.759L410.316,372.977L410.35,373.221L410.316,373.398L409.867,374.23L408.351,374.912L408.293,375.021L407.669,375.265L407.436,375.315L406.978,375.416L406.936,375.45L406.844,375.534L406.095,375.265L405.212,375.946L404.713,379.066L403.739,379.411L403.072,379.142L402.406,379.184L401.524,379.276L401.224,379.873L399.259,379.268L398.335,379.427L397.71,380.336L397.744,381.891L397.61,382.143L397.56,382.328L397.152,382.614L396.894,382.623L396.753,382.665L396.628,382.841L396.594,383.413L397.635,384.119L397.76,384.607L397.76,384.708L397.968,384.817L398.726,385.38L398.843,385.649L399.042,386.011L400.308,386.456L400.466,386.624L401.407,387.767L402.831,388.205L403.564,389.146L403.106,389.734L402.431,391.6L402.681,392.063L402.073,393.802L402.115,393.92L403.264,394.5L404.097,394.189L404.904,394.693L405.137,395.315L405.221,395.433L405.337,395.525L405.437,395.676L405.229,396.508L405.204,396.878L405.154,396.97L405.029,397.096L404.896,397.693L405.529,398.113L405.762,399.449L404.563,400.113L404.43,400.121L404.33,400.247L404.188,400.533L404.13,400.751L403.68,401.39L403.764,402.146L403.439,402.49L402.273,403.23L402.173,403.331L401.324,404.994L401.857,405.456L401.932,405.54L401.382,406.749L399.975,406.901L399.6,407.094L399.317,407.85L399.334,409.345L399.326,409.521L399.334,409.597L399.334,409.731L399.359,410.579L398.693,411.36L398.601,411.512L397.993,412.007L398.027,412.125L395.862,412.822L395.612,412.864L395.154,413.703L395.346,414.241L395.246,414.35L395.271,416.34L394.921,417.616L395.579,418.221L395.629,419.413L395.67,419.648L395.654,419.799L396.561,420.916L396.778,421.151L396.911,421.739L396.286,422.041L396.545,423.627L396.411,423.846L396.253,425.071L396.37,425.205L396.711,425.692L397.818,426.12L397.952,426.943L397.927,427.287L398.118,428.286L397.535,429.301L397.777,430.543L397.052,432.347L397.452,433.338L398.201,433.145L398.41,433.136L398.868,432.817L399.051,432.784L400.042,433.17L400.924,434.462L401.074,434.714L401.415,435.343L402.54,435.897L402.631,436.383L402.873,436.753L403.997,438.565L403.93,438.925L403.838,439.63L403.88,439.873L403.772,440.217L403.63,440.377L402.773,442.549L402.831,443.405L402.123,444.948L401.982,445.141L401.582,445.762L401.432,445.929L401.399,446.433L401.382,446.609L400.899,447.456L400.824,447.716L400.724,447.825L400.533,447.909L400.5,448.261L400.45,448.605L399.808,449.175L399.709,449.234L399.334,449.1L399.251,450.886L398.918,451.473L398.626,451.842L398.068,452.512L398.343,453.737L398.376,453.938L398.568,455.682L398.501,455.866L398.027,457.342L398.177,458.18L399.167,459.387L399.792,459.203L399.917,459.236L400.092,461.206L399.351,461.776L398.177,464.6L398.118,464.994L398.926,466.637L398.585,467.182L398.36,467.517L398.077,468.204L398.46,468.321L398.926,468.849L396.553,471.187L396.37,471.472L396.395,472.745L396.436,472.98L397.011,473.876L398.443,474.329L398.102,474.991L395.712,476.649L394.43,477.99L394.296,478.166L393.464,479.171L392.939,478.878L392.764,478.794L391.857,478.769L391.615,478.894L390.974,479.925L391.007,481.181L390.924,481.558L391.682,481.893L391.782,482.705L391.257,484.338L391.39,484.556L391.674,484.774L393.63,484.623L395.104,486.365L395.371,486.264L395.479,486.256L395.887,486.742L397.002,488.006L397.369,488.358L397.51,488.718L398.127,489.388L398.193,489.714L398.235,491.045L398.11,491.255L398.127,491.338L398.634,491.782L398.643,491.816L398.643,492.192L398.568,492.377L398.551,492.552L398.901,494.721L399.517,495.893L399.492,496.529L399.567,497.157L399.417,499.341L400.325,500.471L400.375,501.015L401.166,501.676L401.432,502.931L401.582,503.208L400.983,504.304L399.958,504.672L399.775,505.09L398.493,505.417L397.594,506.605L397.352,506.638L397.211,506.722L396.037,506.588L395.271,508.17L395.562,508.856L395.595,510.997L395.862,511.667L395.087,513.097L396.47,514.469L396.786,515.648L396.661,515.824L396.811,517.614L396.761,517.857L396.32,518.977L396.37,519.303L396.644,519.972L396.736,520.207L396.769,520.441L396.811,520.725L396.919,522.222L396.969,522.398L397.311,522.975L397.327,523.083L398.127,525.057L398.168,525.241L399.309,525.826L399.525,525.909L400.466,527.381L400.541,527.531L401.024,528.184L400.849,529.956L400.874,530.165L400.941,530.357L400.974,530.625L402.123,531.544L402.448,531.736L403.247,532.614L403.289,533.918L404.08,534.152L404.313,534.144L405.92,533.993L406.137,534.085L408.351,534.085L408.418,534.202L408.993,535.356L409.359,535.665L410.383,535.874L410.541,536.083L410.674,536.233L410.974,536.158L411.332,536.426L411.216,536.743L411.449,538.114L411.515,538.247L412.898,538.732L413.272,540.295L413.264,540.37L412.64,540.412L412.19,540.646L412.14,540.704L412.065,540.821L411.54,542.718L411.282,543.061L411.157,543.721L411.016,543.88L410.816,544.047L410.716,544.23L410.683,544.281L410.658,544.464L410.025,545.141L410.242,545.492L408.543,547.514L408.443,547.556L408.043,548.14L407.877,550.12L406.453,551.164L406.436,551.298L405.013,552.417L404.629,553.812L405.454,555.04L405.079,555.917L404.388,555.624L403.83,555.95L403.68,556.017L402.248,557.253L402.198,557.487L402.115,557.629L401.915,557.921L401.774,558.322L401.574,558.38L400.874,559.633L400.541,559.775L400.117,560.034L399.492,561.278L399.484,561.411L399.384,561.654L399.359,561.804L399.392,562.764L399.434,562.931L399.409,563.674L398.818,565.168L398.634,565.394L397.311,565.811L395.745,567.222L394.779,567.047L394.596,567.055L393.297,567.147L392.864,567.589L392.723,567.69L391.707,567.973L391.582,568.024L390.608,568.241L390.425,568.382L390.283,568.875L390.266,568.983L390.716,569.418L390.849,569.601L392.248,570.127L392.281,570.21L391.873,571.012L391.957,571.087L392.073,571.245L392.215,571.563L392.298,572.214L392.315,572.305L392.381,572.381L392.523,572.439L392.631,572.464L392.773,572.514L393.064,573.065L392.948,573.224L392.814,573.399L392.856,573.532L392.864,574.075L392.856,574.25L392.898,574.392L392.906,574.617L394.138,575.21L394.23,575.402L393.98,576.695L394.022,576.837L393.697,578.272L393.672,578.389L393.647,578.422L393.505,578.498L393.331,578.681L393.314,578.765L393.389,578.931L393.497,579.015L393.597,579.274L393.655,579.374L393.622,579.465L392.906,579.799L392.814,579.908L392.723,580.041L392.656,580.191L391.973,580.7L391.948,580.792L391.515,581.485L391.299,583.495L391.407,583.654L391.024,585.239L390.117,587.132L390.067,587.274L390.025,587.316L389.9,587.366L388.793,588.2L387.635,589.751L387.535,589.927L387.619,590.594L387.694,590.836L387.685,590.944L387.102,592.854L387.219,593.112L387.261,593.529L387.202,593.646L387.127,593.746L385.845,593.905L385.562,593.988L385.412,594.005L384.896,594.063L383.697,595.122L383.53,595.256L382.956,595.714L381.282,595.706L380.866,595.389L379.8,595.447L379.592,595.314L379.059,595.081L378.809,595.139L378.718,595.147L378.476,595.122L378.31,595.156L378.043,595.072L375.545,595.456L374.571,595.998L374.371,596.031L374.08,596.273L374.03,596.373L373.022,597.374L372.956,597.465L371.832,597.907L371.332,597.69L370.474,598.566L369.842,598.041L368.734,598.466L368.559,598.683L367.76,598.791L367.51,598.708L367.435,598.716L367.235,598.808L365.853,599.85L365.728,600L365.412,599.858L365.154,599.658L364.646,599.366L363.888,599.808L363.663,599.733L363.047,599.892L362.872,599.933L361.532,599.408L361.474,599.275L361.524,598.633L361.465,598.433L361.257,597.857L361.24,597.682L360.733,597.299L360.649,597.165L360.524,596.498L360.691,596.273L360.816,596.14L360.899,595.973L360.991,594.313L360.066,593.688L359.525,591.77L358.984,591.511L358.634,591.353L357.96,590.936L357.036,589.835L356.236,589.493L355.953,589.61L354.413,589.393L353.78,588.684L353.68,588.534L351.707,587.049L350.891,586.974L350.666,586.999L350.566,586.974L350.458,586.949L349.858,586.548L349.708,586.44L349.067,585.339L348.951,585.314L349.1,583.762L347.335,582.427L346.902,581.76L347.027,581.026L346.678,580.016L346.686,579.949L345.787,579.073L344.762,578.639L344.604,578.564L343.33,578.848L342.406,578.381L342.314,578.314L341.865,577.596L341.748,577.413L341.09,577.171L340.857,577.137L340.474,576.77L340.391,576.637L339.667,575.427L339.483,575.226L339.1,575.193L338.892,575.126L338.834,575.051L338.759,574.934L337.843,574.734L337.685,574.617L337.535,574.534L336.511,574.584L336.419,574.534L335.836,574.342L335.137,571.888L335.062,571.596L334.979,571.546L334.846,571.579L333.638,571.596L332.872,570.97L332.822,570.97L332.031,571.137L331.906,571.204L331.09,571.663L330.15,571.396L329.983,571.396L329.259,571.905L329.242,572.013L329.05,572.472L328.135,572.714L327.26,573.491L327.169,573.365L326.311,573.057L326.103,573.215L325.67,572.606L325.495,572.497L324.929,572.255L324.721,572.139L324.637,572.205L324.479,572.33L324.071,572.547L323.938,572.664L322.597,573.307L322.048,573.891L320.474,573.716L319.417,572.706L319.1,572.631L317.901,572.389L317.602,571.713L316.719,569.843L315.845,569.568L315.67,569.576L314.537,570.277L313.863,571.204L312.889,572.013L312.797,572.113L312.006,573.716L311.432,573.708L310.624,574.709L310.524,574.792L310.308,575.151L310.166,575.226L309.417,576.603L308.875,576.887L308.701,576.979L308.251,576.954L308.084,576.962L307.285,577.146L306.053,576.562L305.179,575.669L304.97,575.761L304.554,575.961L304.429,575.919L304.296,575.961L304.179,576.086L303.164,576.82L303.022,576.829L302.764,576.587L302.697,576.445L302.464,575.844L302.506,575.544L302.281,575.143L302.039,575.101L300.649,574.767L299.583,573.491L299.134,571.997L299.05,571.855L298.617,571.079L296.419,570.678L295.886,570.16L295.77,569.977L295.611,569.451L295.52,569.351L295.253,569.251L295.178,569.025L295.445,567.848L295.553,567.673L295.611,567.314L295.703,567.097L295.686,566.963L295.054,565.978L294.92,565.937L294.804,565.795L294.213,565.352L293.905,565.511L293.422,565.861L291.515,565.778L289.517,566.813L288.684,566.796L288.559,566.872L288.051,566.68L287.726,566.496L286.519,566.513L285.586,566.137L285.17,565.937L283.796,566.012L283.43,566.329L283.363,566.437L282.814,567.272L282.714,567.272L280.882,567.581L280.382,566.897L280.291,566.705L279.808,566.187L279.608,566.162L279.108,566.17L277.568,565.143L277.218,565.018L277.152,564.968L277.068,564.835L275.403,561.395L274.945,561.111L275.203,559.708L275.128,559.491L274.97,557.771L274.046,557.27L273.988,557.119L273.971,557.061L274.013,556.643L273.263,555.432L272.789,552.693L273.388,551.465L273.322,551.056L273.68,549.878L273.105,548.917L273.097,547.915L273.838,546.712L273.938,546.486L273.78,545.985L271.923,545.392L271.556,545.467L271.223,545.166L270.865,544.999L269.791,544.331L269.441,543.412L270.041,542.434L269.425,540.738L268.734,540.487L268.65,540.512L267.576,540.429L266.186,538.398L266.294,537.746L265.886,536.869L265.003,536.743L264.096,535.941L263.288,535.69L262.73,535.849L261.423,535.489L261.381,534.787L260.799,534.177L259.958,534.595L259.55,534.369L259.317,534.42L259.2,534.445L259.008,534.361L257.06,533.918L256.785,534.487L256.186,534.06L256.785,532.723L255.436,533.04L255.395,532.907L255.503,532.597L255.003,531.603L255.678,530.8L255.17,530.7L255.728,529.948L254.953,529.856L254.787,529.922L253.58,529.421L253.696,529.12L253.913,528.61L253.729,527.164L254.221,526.294L252.955,525.935L252.797,525.834L252.056,525.475L251.714,525.483L250.266,524.304L251.723,522.874L252.422,522.598L253.938,521.394L256.727,518.718L259.533,515.356L259.342,514.051L260.366,512.102L261.098,511.6L262.447,510.102L263.013,508.964L263.155,507.534L264.521,506.588L264.529,505.986L265.228,505.291L266.053,505.701L266.81,505.618L267.043,505.057L267.793,505.274L268.792,504.856L270.274,504.948L271.273,504.421L271.157,504.061L272.364,504.061L274.729,502.931L277.501,501.191L278.001,500.546L281.148,498.169L284.404,495.139L284.654,495.039L287.518,492.184L289.217,490.66L291.79,487.947L293.73,485.754L295.487,484.162L297.218,481.742L299.084,479.707L300.266,477.713L302.198,475.703L303.871,473.089L305.004,471.899L307.818,468.12L308.567,466.712L309.092,466.226L310.624,464.039L311.94,461.835L313.688,460.041L313.405,459.404L315.079,457.719L315.778,456.604L316.994,455.715L318.026,454.256L318.876,453.502L321.89,449.485L322.931,448.571L325.612,444.822L325.512,444.177L326.627,443.22L328.101,441.291L329.342,439.999L330.066,438.456L330.732,438.011L331.423,436.836L332.681,435.637L332.881,434.982L334.496,433.245L335.836,431.416L335.778,430.812L336.686,430.166L337.119,429.226L341.757,423.325L341.898,422.284L342.573,420.647L342.131,419.631L343.663,417.591L344.238,418.028L345.895,415.878L345.162,414.837L345.653,407.623L345.703,407.673L345.204,414.896L346.369,416.684L346.469,416.281L347.585,415.5L348.043,414.409L346.711,413.368L349.334,409.698L350.025,410.176L351.19,409.303L352.731,407.64L355.82,403.322L359.184,397.743L362.331,392.701L365.845,386.473L369.867,378.503L370.957,376.661L377.152,363.581L378.243,360.939L379.942,357.48L382.023,352.472L384.405,346.411L386.012,341.687L386.669,339.481L388.018,334.318L389.442,328.134L390.533,322.387L390.841,321.342L390.633,317.777L390.266,316.074L389.592,315.273L388.351,314.582L387.777,315.172L387.86,314.253L386.894,314.38L385.912,313.107L385.845,311.868L386.386,310.696L387.169,309.987L389.151,307.618L389.017,306.48L388.36,305.434L387.627,305.451L387.61,304.894L388.551,305.274L389.667,304.456L390.333,303.275L390.924,300.99L391.465,296.283L391.449,295.026L391.082,294.072L390.133,292.992L390.599,292.781L391.316,291.432L391.399,290.259L391.157,289.103L389.309,287.145L388.451,286.782L387.011,286.622L386.844,285.71L386.286,285.212L385.154,285.28L385.071,284.849L384.213,284.757L384.305,284.031L383.822,283.22L384.246,281.887L383.872,281.735L384.854,279.979L384.962,278.485L383.364,278.713L382.914,278.13L383.114,277.514L383.98,277.168L383.347,276.594L382.448,274.964L381.524,274.888L381.807,273.521L381.632,272.17L380.749,272.71L380.408,271.477L379.475,271.587L378.451,269.966L378.393,265.954L377.677,264.89L377.494,262.077L377.902,262.001L378.626,260.954L379.875,259.923L378.285,259.796L378.901,259.205L378.926,258.039L379.534,258.132L379.9,257.566L379.45,256.839L380.45,256.121L380.183,254.862L379.659,254.769L380.466,254.152L379.617,251.592L379.767,250.983L379.417,249.944L379.792,248.245L379.758,246.893L380.4,246.276L379.817,245.65L379.625,244.222L379.908,243.343L377.585,240.274L375.537,238.929L372.581,238.65L372.098,239.741L371.998,240.798L371.324,242.032L370.3,241.948L369.467,242.7L369.084,242.396L368.543,243.106L368.734,241.533L366.203,242.37L365.637,242.049L364.904,240.637L364.496,238.481L365.42,236.638L365.703,234.482L366.286,232.875L365.337,231.767L365.978,230.997L365.737,230.397L366.311,229.712L365.97,226.362L366.211,225.076L366.811,224.417L367.41,224.408L367.835,222.987L367.41,222.132L366.653,221.481L367.693,221.202L367.535,220.169L366.969,220.203L367.235,219.146L368.634,217.868L369.683,217.622L369.384,216.615L370.966,216.48L371.515,215.075L371.182,214.094L371.449,213.603L372.198,214.034L372.931,213.73L373.622,212.485L373.83,210.615L372.689,209.396L372.673,208.803L373.572,205.908L374.488,205.087L375.787,205.341L376.927,204.401L377.36,203.343L378.168,202.742L379.692,199.71L379.925,198.669L381.665,194.705L381.274,194.036L381.89,193.477L381.957,191.8L381.091,190.292L380.191,190.309L380.15,189.843L379.292,189.979L379.525,188.64L379.334,187.954L379.733,187.454L379.159,186.912L379.975,186.192L379.592,185.472L378.826,185.556L379.292,183.735L378.909,183.175L379.159,182.057L378.418,180.65L378.493,179.828L379.384,178.387L381.574,176.133L382.556,175.794L383.247,174.107L382.423,172.573L382.764,171.759L383.888,172.234L384.646,173.505L385.645,173.327L386.819,172.429L387.685,170.886L387.71,169.868L386.653,169.521L386.486,168.639L387.094,167.995L387.019,167.257L387.818,166.061L390.325,165.892L391.424,165.493L392.789,165.375L392.856,164.544L393.347,164.111L394.713,164.857L394.854,163.814L396.17,162.839L397.169,162.822L396.969,161.703L398.185,161.957L399.026,161.482L399.525,162.254L400.175,161.932L400.15,161.16L400.983,160.346L401.957,160.159L401.898,159.235L402.506,158.658L403.722,158.607L405.054,158.09L406.361,158.285L407.552,157.547L408.751,156.419L409.759,155.138L410.466,154.943L410.958,153.925L411.565,154.272L411.948,153.679L414.53,153.102L415.321,153.407L416.178,152.61L417.585,152.279L417.702,151.77L418.685,151.659L420.733,152.024L421.091,152.771L423.506,153.67L424.222,153.721L425.088,153.127L424.879,152.262L425.645,152.007L426.628,152.296L426.778,152.737L425.945,153.492L427.452,155.146L428.043,154.824L429.9,155.655L431.266,155.944L433.148,155.732L434.738,154.714L437.352,153.704L439.576,152.347L440.558,151.549L444.222,149.818L444.763,150.141L446.295,149.606L446.861,148.546L449.143,147.027L452.44,145.644L453.048,145.083L455.387,143.853L457.81,142.987L459.193,143.182L460.875,143.098L462.348,142.088L463.606,140.5L465.179,139.176L465.571,138.455L465.329,137.13L466.553,137.691L468.169,137.487L469.784,136.969L471.949,135.815L472.781,135.127L472.823,134.27L474.438,133.454L474.83,132.555L476.045,131.875L476.986,130.05L477.702,129.863L477.952,129.124L477.186,128.3L478.502,128.148L478.127,127.545L479.659,127.731L480.242,127.179L481.291,127.128L482.623,124.886L484.197,124.878L485.987,123.179L487.386,122.559L488.577,122.423L490.075,121.446L491.341,121.48L491.741,120.716L493.198,120.716L497.003,119.586L499.434,119.467L500.442,120.359L501.349,120.521L503.672,119.561L503.281,119.314L504.93,119.102L505.837,118.745L506.953,117.641L507.261,118.201L509.393,118.295L510.983,117.411L511.866,116.137L511.391,115.423L512.94,115.466L513.797,114.225L514.355,114.913L515.421,114.854L516.395,113.656L518.51,113.8L519.251,112.951L519.001,111.804L520.284,111.948L521.141,111.566L522.007,110.571L523.664,109.824L524.264,110.826L525.271,110.384L527.236,109.11L527.12,109.722L527.561,110.588L528.818,111.243L530.084,110.741L530.334,110.274L531.599,110.673L531.999,111.328L533.14,111.532L534.647,110.818L535.688,110.724L535.979,111.362L538.527,110.954L540.525,110.401L541.025,110.605L540.434,112.059L541.158,113.826L542.507,114.625L543.165,114.446L543.756,114.888L545.105,114.769L545.804,115.185L545.08,116.749L547.145,119.705L546.529,120.673L546.762,121.353L546.137,121.582L545.871,122.262L545.23,122.27L544.838,123.876L544.181,124.759L544.256,126.067L545.038,127.859L546.054,129.421L548.86,132.232L548.743,133.93L549.26,134.507L549.734,136.502L549.659,137.063L547.128,139.244L543.564,140.5L541.949,140.891L536.529,141.417L535.796,140.814L533.781,140.28L533.131,139.669L529.268,140.008L526.512,140.831L524.572,141.782L523.29,143.284L523.123,144.031L522.615,143.072L521.866,143.564L520.25,145.915L519.493,148.121L519.16,149.793L518.685,150.455L518.344,153.356L518.677,155.07L517.428,156.156L516.72,157.538L516.553,158.972L516.728,161.253L517.236,163.653L517.678,164.323L518.568,164.433L518.793,165.298L518.11,165.621L518.119,166.647L518.918,168.563L519.734,169.648L521,170.131L523.031,169.368L524.314,168.376L524.713,169.207L523.315,171.055L523.398,171.649L522.815,172.946L521.291,173.098L520.708,174.277L521.15,174.912L522.399,175.039L523.864,174.404L524.056,174.031L524.755,175.675L523.265,177.294L523.306,178.235L523.964,178.633L523.789,179.37L522.84,179.574L522.407,180.65L520.342,181.972L519.534,184.972L517.036,186.92L517.195,185.59L516.42,185.006L515.263,184.607L515.005,183.862L514.838,184.98L515.113,185.556L516.079,185.955L514.705,186.149L515.979,186.539L516.32,187.522L515.604,187.996L514.23,187.564L514.372,188.03L515.862,188.615L515.762,189.665L515.446,188.945L514.097,188.869L513.589,189.725L512.324,189.919L512.765,189.403L512.474,188.844L511.233,189.259L510.667,188.53L510.508,189.335L509.351,189.106L508.419,189.445L509.16,187.996L508.985,187.361L508.219,187.581L507.394,187.234L507.353,187.657L506.204,187.946L506.029,188.53L505.363,188.589L503.839,187.547L503.015,187.624L502.457,188.259L501.224,188.056L500.2,187.513L498.818,187.996L498.344,187.064L496.886,186.293L496.728,187.547L497.178,188.284L495.288,187.937L495.438,187.352L494.58,186.793L494.039,185.666L493.248,185.98L493.922,186.717L494.097,188.479L493.406,188.403L493.256,189.14L491.965,188.996L491.749,188.234L489.901,189.242L489.784,189.725L486.97,191.071L484.938,191.766L484.23,191.741L481.799,194.341L479.534,194.959L479.001,196.052L479.118,197.043L478.577,197.5L478.635,198.169L477.644,200.938L477.486,201.853L478.302,202.454L476.27,203.529L476.154,204.901L473.164,206.738L472.623,208.778L471.999,210.403L471.233,210.945L470.875,213.653L471.624,215.465L470.641,216.116L470.092,217.157L469.168,217.242L468.277,218.9L466.953,217.91L465.662,218.519L465.021,218.469L464.613,219.171L462.998,219.662L462.34,219.357L459.867,219.975L461.516,220.584L460.908,220.922L460.7,221.828L461.899,222.141L462.049,223.088L460.808,223.241L460.05,225.592L459.318,225.728L457.985,225.339L457.544,224.611L457.511,225.686L456.237,226.565L454.73,227.132L454.155,226.413L453.805,225.178L452.89,225.017L452.49,223.774L451.158,222.674L450.475,221.608L449.451,221.98L449.392,220.939L448.718,220.711L448.477,219.882L448.01,219.899L448.019,221.219L446.437,220.812L445.254,221.227L444.73,220.305L444.946,219.425L444.447,219.645L443.922,218.443L444.138,219.797L443.606,220.372L442.215,218.748L441.524,218.655L441.99,217.208L441.299,216.116L440.475,216.294L440.708,214.898L439.75,214.914L439.234,215.769L438.535,216.065L439.276,214.627L440.025,214.094L441.166,212.088L441.915,211.402L443.764,210.708L444.105,210.09L443.381,210.107L443.322,209.531L442.398,209.252L441.715,209.701L440.716,209.751L440.175,210.403L439.034,210.336L438.635,210.835L439.426,211.351L438.352,212.358L437.91,213.289L437.352,212.79L437.302,211.783L436.345,212.866L436.22,211.402L435.604,211.741L434.913,211.25L433.489,211.529L433.189,210.319L432.723,210.166L432.382,211.216L432.581,211.834L434.355,212.824L434.746,213.62L435.321,213.653L434.63,214.745L433.472,214.17L432.923,215.041L431.399,214.627L430.758,213.899L430.799,212.57L430.075,212.502L430.175,213.171L428.368,214.661L428.11,215.685L429.159,215.067L430.641,215.608L430.367,217.233L431.657,216.505L432.465,216.869L432.107,217.682L432.523,218.342L434.272,219.442L433.239,221.929L433.131,220.956L432.673,220.576L432.748,219.628L430.608,220.432L430.358,221.523L429.134,220.44L427.902,220.474L428.376,221.557L429.65,223.444L429.043,224.163L427.769,224.527L427.361,226.565L426.37,226.853L426.886,227.09L425.254,229.086L425.029,230.033L424.396,230.228L424.188,231.217L423.281,231.894L423.456,233.078L422.115,233.408L421.574,234.592L421.632,235.395L421.083,236.088L421.083,236.756L420.341,238.228L420.783,238.989L419.792,239.716L419.018,239.826L419.734,240.232L419.492,241.567L421.074,243.283L421.024,241.889L422.49,241.703L421.824,240.798L422.59,240.299L423.073,240.654L423.722,240.325L424.371,242.125L426.328,242.759L425.987,244.585L424.838,247.121L424.788,248.431L424.28,249.023L424.288,251.583L423.447,251.66L421.657,250.155L421.199,251.727L420.849,251.972L419.117,250.51L418.809,251.026L417.785,250.95L417.519,251.49L417.177,254.457L417.452,255.361L416.919,256.037L417.377,256.797L417.877,258.673L418.518,259.019L418.526,259.839L417.81,259.779L416.761,260.371L415.695,261.368L415.162,262.77L415.346,263.344L417.269,263.826L419.151,265.186L421.124,265.532L421.549,265.861L422.939,265.844L423.439,265.253L423.522,263.817L425.121,264.755L426.661,264.037L427.236,262.643L427.827,262.094L427.153,260.768L427.944,258.943L429.226,258.343L430.55,258.14L430.974,258.698L432.448,259.222L433.772,259.948L434.663,259.416L436.328,259.889L437.769,260.911L437.119,261.697L435.654,262.305L435.92,264.653L437.028,265.971L438.327,265.827L440.3,266.089L440.908,265.625L442.956,266.199L443.073,266.621L441.857,269.037L441.324,268.758L441.124,269.577L444.796,272.094L445.679,273.031L446.711,272.567L446.32,271.114L447.053,271.747L447.71,271.232L447.694,271.975L448.618,272.009L448.768,272.609L450.433,271.486L450.908,271.849L451.699,271.004L451.249,270.287L450.516,270.793L449.925,269.864L452.032,268.707L453.048,270.278L454.388,269.619L455.004,267.686L453.189,267.052L453.656,266.571L454.888,263.065L456.07,263.234L455.929,261.9L456.595,259.34L456.728,258.039L458.435,256.324L458.751,254.921L460.675,254.059L461.024,252.961L461.441,252.885L462.357,254.119L463.148,253.231L464.43,252.623L465.113,253.003L465.979,252.665L467.502,253.028L468.327,252.488L468.668,252.834L468.002,254.085L467.036,253.899L466.278,254.811L466.453,256.358L467.169,256.949L467.169,258.115L466.587,259.213L466.853,260.312L466.528,261.19L466.92,262.5L467.602,263.733L467.194,264.442L467.436,265.701L467.044,265.98L467.036,267.669L466.187,268.657L466.495,269.451L466.428,270.911L465.654,273.985L466.154,274.112L465.229,276.138L465.754,277.548L465.696,278.755L466.636,280.739L466.72,282.005L466.054,284.022L465.412,285.111L465.679,287.693L466.728,289.769L467.328,290.562L467.203,291.744L466.079,293.127L466.695,295.363L466.495,296.772L468.194,299.623L467.927,300.661L466.945,301.462ZM423.755,252.344L424.155,252.276L424.063,254.33L423.472,253.781L423.397,252.192ZM463.131,232.3L463.947,232.359L464.746,233.805L465.254,233.898L464.93,234.803L465.412,235.59L466.636,235.894L466.278,236.283L466.287,237.348L467.319,238.076L467.536,238.904L466.628,238.608L465.854,238.946L464.58,240.265L464.78,240.705L463.88,242.159L464.438,243.216L464.838,244.67L466.487,245.363L466.353,246.538L465.754,246.58L466.428,247.442L465.346,248.558L464.771,248.558L464.022,249.437L463.323,249.158L461.649,249.335L460.608,249.809L460.292,249.597L459.576,250.265L459.193,251.364L458.718,251.355L458.493,250.476L456.853,251.195L455.995,250.755L456.603,249.504L456.12,249.192L455.721,249.868L454.971,249.944L454.93,248.211L454.014,248.803L454.438,249.352L454.247,250.223L454.771,250.992L454.205,251.152L453.223,250.079L452.756,249.15L451.382,249.226L450.999,250.02L449.709,250.764L447.236,253.747L447.144,254.997L446.403,256.223L445.72,255.403L445.021,256.045L444.571,255.665L444.213,254.026L443.805,253.671L441.532,254.702L439.884,256.172L439.842,256.941L438.776,258.149L438.343,257.38L438.66,255.563L438.185,254.034L437.577,253.874L437.91,253.316L437.719,252.513L436.903,251.355L437.136,250.73L436.636,249.859L435.596,249.344L435.571,248.549L434.58,247.594L432.298,247.273L431.191,246.293L430.974,244.475L430.208,243.884L428.685,244.382L427.86,243.917L427.727,242.624L427.968,242.261L426.72,241.271L427.211,240.232L427.902,240.054L427.71,239.462L426.978,239.91L426.62,239.082L426.678,237.627L428.227,238.109L429.184,237.729L429.284,236.723L430.566,237.315L430.425,238.194L430.991,238.862L432.29,239.75L432.665,239.378L433.347,240.341L432.365,241.204L432.348,243.96L432.473,245.016L433.081,245.025L433.031,243.909L433.664,244.518L434.755,243.816L434.496,242.463L435.129,241.55L435.587,242.548L436.828,241.491L436.453,240.629L436.961,239.682L437.869,239.665L438.252,240.181L438.077,241.542L439.351,242.201L439.542,241.331L440.25,240.908L440.2,240.248L441.008,240.68L442.906,240.798L443.272,240.409L443.064,239.504L445.479,240.536L446.603,241.787L447.036,241.517L445.87,240.071L444.297,239.217L444.088,238.515L444.58,237.847L444.288,236.604L445.879,237.424L447.061,239.335L447.611,239.394L448.127,238.481L449.334,238.033L449.967,239.259L450.034,240.942L451.399,242.117L452.14,241.846L453.039,242.168L453.223,243.486L454.272,243.368L455.171,242.692L455.337,240.739L455.845,241.364L456.695,241.491L456.811,240.536L457.469,240.257L458.926,240.959L459.509,240.054L459.567,239.039L459.084,238.557L459.676,237.873L459.925,236.714L459.859,235.539L460.325,235.26L461.949,232.824ZM419.667,89.904L420.258,90.976L419.65,90.908ZM426.178,82.24L426.57,82.436L426.853,83.627L425.57,82.946ZM432.082,0L432.456,0.026L432.748,1.033L431.216,1.92L431.516,2.612L430.217,3.073L429.834,3.807L429.417,2.33L430.425,1.34L430.416,0.768Z"
          fill="#e0e0e0"
          stroke="#333333"
          stroke-width="1"
          stroke-linejoin="round"/>
  </g>
</svg>