<?xml version="1.0" encoding="UTF-8"?>
<svg xmlns="http://www.w3.org/2000/svg"
     viewBox="26.597093328731717 -20.000000000003638 746.8058133425511 640.0000000000036"
     width="746.8058133425511"
     height="640.0000000000036">
  <title>福井県</title>
  <desc>都道府県コード: 18</desc>
  <g id="18">
    <path d="M664.687,143.202L667.243,144.203L667.576,144.124L668.751,143.822L669.18,143.965L670.625,143.122L671.593,143.679L672.085,144.06L672.689,144.331L672.927,144.044L675.562,142.057L675.943,141.882L676.086,141.866L676.562,142.025L678.086,141.819L678.42,141.405L680.531,140.595L681.738,141.596L683.373,139.927L684.326,140.34L686.469,139.498L686.596,139.323L688.517,137.415L688.612,137.224L689.168,136.763L689.549,136.699L691.407,135.666L696.169,134.935L696.677,135.094L696.995,135.03L697.455,135.078L697.63,135.062L698.106,134.95L699.122,135.396L699.519,135.65L701.551,135.539L702.345,136.143L705.536,136.159L706.632,135.284L706.949,135.03L709.235,133.011L710.22,132.899L710.506,132.868L711.045,132.709L713.49,132.406L713.601,132.438L713.935,132.677L715.078,135.459L716.491,136.318L716.888,136.874L717.047,138.464L718.46,139.895L718.968,142.9L718.587,144.172L715.903,144.553L714.475,145.729L714.014,145.825L712.696,147.526L708.553,148.972L707.299,150.784L706.219,150.975L705.981,153.2L702.504,156.061L703.885,156.808L704.076,159.383L703.488,160.241L704.044,161.893L703.838,162.466L703.599,165.008L703.996,166.533L702.71,169.584L702.615,170.252L702.599,171.03L703.314,173.699L701.52,175.86L701.615,176.289L702.282,178.735L702.012,179.021L700.504,181.039L700.599,183.39L700.583,184.136L700.758,186.042L700.234,188.488L699.408,189.521L703.377,191.125L705.362,191.284L708.458,192.316L709.077,192.364L709.791,192.522L710.22,192.729L711.712,193.015L712.712,197.398L712.919,200.129L712.538,204.13L713.078,207.084L711.553,207.782L710.918,209.37L710.807,209.656L711.204,211.513L711.236,212.434L712.76,214.466L715.316,214.942L721.127,217.799L721.365,218.149L722.603,218.403L725.096,217.799L727.096,218.244L729.128,219.403L731.272,219.387L732.7,220.625L733.113,220.942L733.462,221.196L733.399,221.847L733.51,224.148L732.002,226.085L731.605,226.529L730.144,228.878L728.604,232.575L729.081,234.956L730.303,236.193L731.097,236.685L733.018,236.987L733.732,236.4L736.59,237.288L736.352,238.383L737.447,238.922L739.845,241.985L742.734,242.127L744.274,244.364L744.369,244.745L744.941,245.887L745.004,246.205L744.877,248.251L746.608,249.441L748.259,252.455L749.005,254.676L748.418,256.167L748.561,258.688L747.338,261.21L746.576,261.686L747.195,263.113L748.64,264.049L749.212,265.746L750.196,266.222L750.021,268.997L751.736,270.709L752.244,271.661L752.625,274.102L753.244,274.959L753.292,275.133L753.403,275.815L752.768,280.27L752.752,280.508L752.165,281.348L751.784,281.903L751.434,282.442L750.894,282.822L749.704,284.55L745.719,285.612L745.227,286.183L737.733,285.929L737.813,286.769L736.812,289.734L736.558,293.427L735.368,295.471L736.114,302L735.368,303.03L734.653,305.899L734.51,306.168L734.717,307.657L733.177,308.798L731.684,311.888L731.399,313.536L731.287,313.631L728.287,314.359L727.715,313.536L725.905,313.963L725.35,313.884L723.635,313.155L723.635,310.7L723.667,310.43L723.762,308.972L722.333,308.909L718.412,306.501L713.586,307.356L712.696,308.212L712.538,308.545L711.093,309.448L710.633,309.606L708.823,310.478L706.743,312.506L704.107,310.097L702.298,309.036L701.885,308.941L697.694,308.022L697.44,309.701L697.487,310.193L697.074,311.064L696.677,311.333L696.265,313.044L694.264,315.421L691.867,316.514L690.867,318.193L688.184,318.367L687.739,318.114L685.755,316.862L685.183,316.973L684.215,316.957L682.897,318.763L682.532,318.922L680.516,319.936L676.705,319.73L676.229,319.587L673.419,317.829L672.895,318.209L671.704,318.542L669.609,320.363L669.466,320.664L668.418,322.549L667.338,322.47L665.417,323.611L664.1,323.595L662.496,322.201L661.559,319.017L661.544,317.116L661.417,316.704L661.718,315.104L661.067,313.551L660.734,313.234L660.591,313.013L660.337,312.632L659.559,310.905L657.717,308.877L655.463,310.985L654.383,313.821L654.129,314.771L651.192,315.88L648.223,315.183L647.954,316.07L648.795,318.811L646.001,321.441L645.477,320.696L642.429,319.936L640.46,320.253L639.46,318.019L639.047,318.082L637.047,317.037L636.777,316.91L636.475,316.815L636.237,316.498L635.84,315.389L635.475,315.088L634.078,314.169L632.173,316.15L629.505,315.928L627.394,319.064L627.251,319.429L626.854,320.728L626.87,321.108L627.219,322.122L627.267,322.597L624.854,324.371L624.552,324.735L624.012,324.83L623.679,324.894L621.885,325.448L621.393,326.018L619.853,327.365L618.583,327.254L617.138,326.002L616.614,326.129L614.979,326.62L612.582,325.432L612.026,325.179L608.692,325.353L606.644,326.604L604.04,325.511L603.532,325.242L602.087,325.147L601.976,324.973L599.293,323.31L599.023,322.898L596.388,320.775L595.261,320.633L594.943,322.169L592.847,326.335L590.291,328.727L590.133,330.089L589.958,330.469L590.212,333.573L590.45,333.811L590.228,336.218L590.498,336.978L589.91,338.023L589.879,338.53L587.656,340.271L587.656,342.472L586.64,344.483L585.338,344.246L583.195,341.047L582.909,339.891L582.909,339.559L582.83,339.306L582.56,338.878L582.036,337.326L582.083,336.883L581.702,334.903L579.877,333.7L579.115,332.29L576.289,330.136L575.606,328.853L574.78,329.107L574.479,329.344L570.764,329.93L570.669,330.231L569.478,330.39L569.192,330.311L567.922,330.136L567.731,330.263L565.668,329.043L563.842,326.604L562.492,326.383L559.793,327.951L557.682,328.552L556.809,329.186L555.777,330.263L554.491,329.249L553.856,328.996L550.395,329.329L548.172,328.948L544.616,326.684L544.251,325.781L542.06,324.339L540.726,324.387L540.361,324.181L538.837,324.514L538.218,324.751L536.598,324.973L536.424,324.466L534.677,323.817L532.899,321.282L532.852,320.759L532.439,319.888L530.375,320.728L526.993,320.728L526.644,318.288L524.024,317.591L523.723,317.369L520.436,316.229L517.896,318.209L513.991,320.633L510.419,321.488L509.879,323.009L507.212,324.624L506.878,325.131L505.433,327.539L505.148,328.157L501.322,328.378L500.004,329.107L499.543,328.125L499.385,328.046L496.638,328.727L496.114,328.885L495.527,328.869L493.653,332.179L493.495,332.496L493.86,333.826L493.002,334.492L492.621,334.777L492.383,334.967L492.256,335.172L492.558,337.643L491.542,339.321L491.383,342.71L490.653,344.072L491.494,346.399L493.51,347.713L494.003,348.014L493.526,350.705L494.463,354.568L494.368,355.122L494.59,357.164L494.352,357.829L493.971,358.557L492.764,360.884L492.399,361.058L491.748,362.213L492.034,363.274L493.256,364.825L493.034,366.012L492.844,366.344L490.272,367.088L490.018,367.088L488.001,368.054L486.541,369.557L486.747,372.738L484.477,375.523L483.778,375.254L483.62,375.238L480.016,381.361L477.031,382.231L476.555,383.924L477.19,385.411L477.095,386.044L478.174,387.468L478.349,388.101L478.412,388.196L478.714,388.496L480.698,389.525L479.809,391.502L478.635,391.803L478.349,391.977L475.38,394.666L476.348,397.687L473.284,399.221L471.395,402.21L471.284,400.549L468.093,398.003L466.727,397.861L465.807,396.026L462.854,394.397L460.837,393.938L459.774,394.302L457.98,392.688L457.265,392.309L455.868,391.138L454.789,391.455L452.947,392.673L447.708,387.215L447.057,387.215L446.39,387.088L444.263,388.481L442.596,388.133L441.246,386.645L438.912,385.886L437.214,386.566L436.626,387.69L435.356,384.81L435.182,384.62L434.229,383.924L432.26,384.494L430.863,382.769L429.244,382.659L427.021,376.33L426.831,375.918L425.561,374.621L425.116,374.573L421.639,373.909L420.306,375.206L420.131,375.08L417.384,374.067L417.241,373.956L414.844,375.238L413.892,374.289L413.812,374.051L413.717,374.035L413.558,374.194L413.384,374.383L413.161,374.7L412.78,377.77L410.589,378.434L410.367,377.627L408.192,375.997L407.208,376.251L406.795,376.82L405.239,377.168L404.953,377.406L404.858,378.134L404.604,378.672L404.683,381.773L404.033,383.244L403.779,383.893L402.493,384.652L401.222,386.851L400.699,389.303L399.238,390.047L398.365,392.973L397.444,394.049L397.222,394.318L396.872,396.627L398.158,398.161L403.429,399.774L404.763,402.068L404.81,404.392L404.588,404.614L405.239,407.84L406.62,411.54L408.287,413.153L409.542,417.106L409.319,420.615L409.859,423.398L410.256,423.429L411.002,424.062L411.891,426.543L413.193,427.381L415.146,432.55L415.209,433.071L416.638,436.533L417.051,436.944L418.607,442.254L418.258,442.617L417.702,443.218L416.019,446.425L413.812,448.795L412.971,449.996L414.749,455.02L414.511,455.368L414.955,457.106L414.543,459.049L414.352,459.207L414.495,459.744L414.749,460.281L413.574,460.913L413.368,460.929L412.542,459.823L411.859,458.622L411.193,457.137L408.287,457.169L406.319,456.347L405.477,456.237L404.334,457.074L401.222,457.311L400.492,455.652L398.587,454.467L398.158,454.641L395.761,455.115L393.364,454.278L389.617,453.946L389.236,453.662L387.521,452.224L387.855,451.244L387.744,450.913L385.934,449.917L385.235,451.766L385.584,455.336L385.569,455.542L384.87,456.853L384.664,457.248L383.044,459.017L383.997,461.166L384.156,461.466L384.457,462.145L384.394,462.429L384.33,464.42L382.441,466.236L382.235,466.52L382.108,467.816L382.203,468.274L383.616,470.737L383.409,471.338L383.06,472.617L383.663,475.159L383.632,475.302L383.06,476.723L382.727,477.102L382.108,477.655L382.679,482.644L381.917,483.813L381.79,483.892L379.234,481.792L378.916,480.781L377.535,480.528L376.63,479.771L375.694,478.476L370.248,476.439L369.026,477.465L368.438,479.486L367.073,480.307L367.263,482.755L365.025,483.813L364.437,484.792L362.707,485.313L362.31,485.155L361.818,484.934L361.5,484.555L359.738,484.255L359.468,483.75L359.024,482.013L358.071,481.871L357.849,481.965L356.404,480.892L355.198,481.113L355.007,481.018L352.578,480.244L351.578,482.976L350.784,482.786L350.085,482.66L348.244,482.06L342.322,483.671L341.481,483.386L341.195,484.965L342.576,487.002L341.814,488.171L339.861,489.37L338.162,494.454L336.035,494.217L335.067,496.901L334.193,498.305L333.796,501.715L333.368,502.078L333.384,502.267L333.844,503.325L331.034,507.207L330.081,507.602L329.113,507.034L326.827,507.349L326.176,506.56L324.382,507.207L322.302,506.639L319.032,509.906L318.127,510.285L317.015,507.476L315.761,505.803L314.888,503.483L314.078,502.82L313.856,501.81L311.999,500.389L311.094,500.058L308.728,501.099L306.188,498.195L305.712,498.084L303.521,498.021L303.425,495.938L303.267,495.654L302.266,492.196L301.711,491.502L300.774,489.07L298.805,488.549L297.011,489.023L295.948,493.144L296.075,494.706L295.138,497.595L294.884,498.621L293.614,501.731L291.995,506.986L289.581,508.17L288.931,509.717L288.867,510.08L288.28,511.216L288.502,511.8L288.883,513.425L287.708,516.123L287.835,516.928L286.311,518.238L285.914,518.522L284.898,520.194L284.93,520.4L285.597,521.662L284.834,526.332L284.342,527.578L284.707,529.487L284.628,529.992L283.961,532.878L281.818,534.929L281.739,535.181L283.421,536.222L283.072,538.541L284.231,541.159L283.977,544.55L282.882,545.543L280.865,546.174L279.754,545.827L277.897,546.442L277.246,548.524L275.341,550.101L275.023,550.322L273.15,552.245L273.42,553.049L273.451,557.843L271.927,562.698L270.276,562.872L266.656,564.306L264.243,566.324L258.607,568.184L256.511,567.664L255.416,566.576L255.257,566.498L253.4,564.196L253.495,560.98L254.051,559.025L252.638,557.717L252.479,558.016L249.145,557.575L248.192,556.487L245.239,555.761L244.176,557.165L241.858,556.975L239.27,555.493L238.222,555.462L235.444,556.818L232.665,556.345L231.014,559.372L231.014,562.793L230.109,566.592L229.76,567.68L230.316,569.508L230.808,569.918L229.57,573.67L228.268,574.473L225.156,574.142L223.187,572.598L220.965,573.071L220.822,574.615L221.52,576.365L220.488,578.256L217.71,578.823L216.392,580.525L215.63,580.856L215.281,582.322L215.218,582.605L214.249,586.041L212.376,586.797L210.312,589.791L209.661,592.265L208.137,592.753L206.724,592.107L204.866,594.061L202.707,593.257L200.437,591.65L197.563,590.453L197.214,590.405L195.071,591.162L195.261,593.572L193.086,595.321L190.594,595.699L188.704,594.423L187.276,594.959L184.18,592.722L183.132,593.809L182.068,593.494L180.862,594.707L180.893,595.29L179.973,597.29L177.48,598.503L177.21,598.188L176.607,599.291L175.003,600L170.987,598.708L170.59,598.582L169.447,597.416L166.764,597.684L164.97,596.251L161.81,595.872L161.906,595.494L160.27,593.478L158.905,593.32L158.238,591.603L156.412,591.729L155.857,591.808L154.507,592.028L153.777,590.847L153.507,590.547L152.491,590.437L152.189,590.327L148.665,589.003L144.712,585.41L143.299,587.033L142.092,587.443L140.616,586.277L137.869,585.458L135.297,583.535L132.281,583.567L132.106,583.378L131.503,583.267L131.09,582.842L129.344,584.15L129.248,584.623L129.105,585.473L126.899,582.464L122.945,582.212L122.247,581.959L120.786,581.833L120.231,583.204L117.421,584.575L117.294,584.591L117.008,584.402L116.5,584.039L115.166,583.378L113.182,581.203L113.182,580.935L112.658,580.305L110.308,580.73L109.927,580.73L106.958,580.352L106.545,579.911L105.101,578.776L104.926,578.918L102.291,579.438L100.989,578.792L100.338,579.06L90.669,579.233L86.319,577.09L86.319,576.254L85.621,573.354L86.605,572.803L86.954,570.501L88.415,569.209L87.669,566.308L86.51,566.151L85.097,563.14L85.827,561.421L86.145,561.39L86.7,560.602L87.002,559.908L87.573,558.363L86.414,557.07L86.065,553.144L85.43,551.883L85.16,551.646L82.89,550.306L82.43,550.369L79.937,550.637L79.667,550.416L77.762,549.281L75.158,551.583L73.285,552.119L72.507,550.101L69.872,548.414L70.237,547.609L70.459,547.31L69.919,546.3L71.269,544.408L72.047,544.361L72.364,544.329L70.665,540.954L70.427,540.686L70.332,540.56L70.062,540.323L66.522,540.386L66.156,539.929L66.347,539.598L66.807,538.951L65.14,534.266L65.109,534.172L62.68,534.424L62.457,534.519L57.075,530.496L56.694,528.335L54.757,526.347L54.488,526.016L53.122,525.464L52.963,525.07L50.995,521.488L51.185,521.252L51.265,518.901L53.059,515.24L55.059,513.204L55.281,512.1L56.694,511.484L57.123,508.754L58.171,508.233L59.203,509.417L60.076,508.565L58.361,501.841L58.234,501.289L60.092,498.479L58.822,497.058L56.948,496.048L55.202,495.969L55.027,495.306L53.662,493.664L52.963,493.507L50.693,491.817L50.312,491.47L48.248,490.033L47.693,488.786L47.312,488.802L46.645,488.865L46.597,485.013L46.613,484.823L46.708,484.744L47.391,484.397L47.661,482.439L49.01,480.481L48.931,478.097L50.36,476.36L50.82,475.839L51.217,475.191L51.947,474.37L52.043,471.496L55.297,469.316L60.663,467.215L62.235,466.931L65.394,465.541L63.759,468.732L61.283,469.821L60.727,471.496L61.965,472.648L61.695,474.623L60.219,475.712L59.901,475.017L58.52,476.47L59.235,478.176L58.091,478.807L57.726,480.718L55.98,481.95L56.424,483.118L58.711,481.823L59.346,483.434L60.012,481.018L62.33,479.723L63.791,480.355L63.95,481.476L60.981,485.629L61.918,487.76L62.743,488.202L64.093,487.302L65.442,487.918L65.458,486.023L66.506,486.165L66.458,483.671L67.792,482.723L69.062,484.144L68.078,487.113L69.506,487.965L70.872,486.244L72.967,486.86L73.983,485.155L73.348,482.565L73.682,481.034L75.222,481.286L75.968,480.023L77.302,480.181L76.968,478.744L74.301,476.865L73.063,476.723L70.983,477.528L69.983,476.218L73.078,475.681L73.078,474.259L71.951,472.08L71.84,468.1L73.253,468.258L74.126,470.848L77.73,471.274L80.175,471.069L80.493,469.648L81.556,470.658L81.556,473.675L80.651,477.07L79.572,479.028L81.096,480.007L78.937,482.076L80.842,483.671L80.159,484.681L81.064,485.36L78.683,487.334L79.556,488.502L79.572,491.091L78.27,492.859L77.46,492.638L76.794,494.264L77.603,496.427L75.904,497.453L76.619,499.884L77.635,501.352L79.111,501.084L78.953,502.22L80.572,505.014L81.985,505.834L90.431,508.88L94.051,507.697L95.829,505.408L97.274,506.56L98.496,505.913L98.353,504.382L100.29,504.556L99.735,506.355L100.957,507.886L104.799,508.075L106.752,507.255L106.831,506.039L107.879,506.702L110.53,506.087L110.641,504.351L111.531,502.204L112.975,503.167L116.357,502.22L119.23,500.421L122.961,495.543L124.041,493.775L126.454,491.533L127.756,490.523L129.232,490.933L130.169,489.923L133.122,489.702L133.963,488.234L133.694,484.965L136.98,481.176L138.663,480.623L139.806,478.176L142.203,478.697L144.743,477.402L145.664,475.491L150.062,474.986L150.332,473.012L153.126,473.691L155.238,472.633L154.301,474.417L156.587,475.617L157.159,477.528L154.65,477.734L153.713,479.739L154.92,481.239L156.936,480.892L157.428,483.165L158.778,486.386L157.174,487.176L154.968,485.739L154.682,483.56L152.713,482.36L151.332,482.502L147.426,485.076L141.79,489.323L140.139,488.66L140.155,490.57L141.917,489.986L142.378,490.57L144.394,489.607L144.68,490.444L142.822,492.607L142.473,494.122L144.918,495.78L144.87,497.611L142.013,499.426L140.409,502.299L138.837,504.209L139.679,505.582L138.488,505.519L138.091,506.908L136.869,507.507L137.123,509.038L135.535,507.57L131.598,506.687L128.232,506.923L126.724,508.012L121.723,506.86L119.389,505.377L117.484,506.402L115.23,506.576L113.658,508.17L114.944,507.744L119.453,507.933L122.326,509.275L125.39,512.384L133.979,510.742L135.107,512.368L136.901,513.551L138.314,512.226L141.727,513.646L142.648,514.514L147.998,515.555L151.141,514.23L151.157,513.236L152.999,511.263L153.936,509.306L154.237,506.829L155.952,505.976L156.762,508.075L158.476,508.675L160.08,507.428L160.064,509.149L161.906,509.732L165.128,509.938L169.002,509.338L170.272,509.638L171.907,508.754L172.447,507.476L174.987,505.929L175.607,508.533L176.702,508.975L178.433,508.312L180.671,512.163L181.592,512.478L184.1,511.847L184.307,509.89L185.116,509.417L185.196,506.813L188.403,507.113L190.213,504.966L192.372,506.276L193.578,505.534L195.372,502.804L192.991,501.478L193.991,499.379L195.245,500.247L196.404,497.595L196.897,497.958L199.643,493.254L200.405,490.965L200.548,483.071L201.072,481.792L203.088,481.397L204.803,482.881L206.502,482.755L207.74,480.576L206.502,478.081L204.152,477.655L203.104,478.776L200.326,478.302L199.516,480.876L198.77,481.065L198.595,479.344L196.611,478.681L194.483,479.281L192.832,480.655L192.118,483.923L192.451,485.155L189.07,487.397L188.514,488.297L186.339,488.234L183.735,489.56L183.005,485.976L183.64,485.171L182.687,482.676L183.83,480.434L183.957,478.681L183.068,476.344L180.75,475.144L179.115,475.475L176.226,474.228L173.13,474.07L171.669,475.128L168.955,473.738L169.415,471.29L172.352,469.237L176.305,465.431L177.099,463.456L178.496,462.003L180.75,461.497L180.576,459.744L182.211,457.959L183.703,457.848L185.577,459.08L188.26,458.638L192.816,457.106L195.817,458.069L195.611,459.302L197.674,461.561L199.199,460.107L200.453,460.692L200.818,464.341L201.469,465.446L200.088,466.963L200.913,468.463L202.294,468.811L201.437,470.185L203.009,472.127L202.088,473.043L204.549,475.191L205.724,474.007L207.518,473.833L209.264,475.128L210.217,474.512L211.026,472.333L209.693,471.732L207.216,467.5L208.2,465.936L209.232,467.436L213.106,470.943L215.17,470.295L216.758,472.396L216.551,473.422L219.79,476.218L220.854,476.344L219.79,478.555L218.345,478.981L218.536,480.481L219.711,482.202L221.679,483.181L223.235,482.502L223.68,485.518L225.759,485.881L225.648,484.176L227.363,482.913L228.093,481.16L228.919,484.192L230.919,484.034L231.729,484.729L233.189,483.655L234.015,481.223L232.11,479.344L232.094,478.27L233.951,479.107L234.428,478.428L236.206,479.155L236.492,480.623L239.683,481.002L242.747,479.518L243.144,477.97L241.874,477.544L241.493,475.381L239.127,475.459L240.524,473.817L240.286,472.87L238.841,472.996L238.254,470.832L239.111,469.758L238.19,468.905L236.46,469.632L236.619,467.689L234.999,466.094L233.555,466.362L231.554,464.783L232.554,463.488L232.173,462.113L230.268,461.134L227.68,461.166L227.617,458.401L229.538,458.085L230.84,457.011L231.681,453.662L232.38,456.079L233.507,457.043L235.65,455.589L237.27,456.49L237.73,457.99L239.492,458.433L239.905,461.719L242.382,462.335L243.35,463.124L245.89,462.271L246.43,458.922L247.399,457.327L250.733,457.137L251.256,455.779L250.304,453.346L251.955,452.366L253.574,452.603L253.654,451.086L254.956,450.533L254.67,449.064L253.352,447.247L254.876,446.599L254.003,444.087L252.542,443.297L253.987,441.859L253.527,439.899L254.051,438.998L253.336,437.497L250.875,437.228L249.097,438.224L248.065,437.765L248.7,435.932L247.621,434.352L245.763,434.399L243.128,436.074L242.35,437.228L241.08,434.636L239.349,433.166L239.603,431.854L241.239,431.491L243.509,429.357L245.319,429.088L245.684,427.081L244.874,424.836L243.144,424.773L240.683,423.888L237.793,423.935L238.667,422.196L237.444,421.042L237.666,419.382L239.365,419.208L241.826,420.426L242.398,419.351L240.254,418.07L239.794,416.916L236.889,415.509L235.714,417.279L233.396,418.734L232.3,417.121L232.157,414.56L233.443,413.991L232.951,412.979L235.015,411.461L238.413,411.809L238.54,413.042L239.778,414.655L240.842,414.544L244.255,416.299L245.557,415.335L247.668,415.809L249.24,416.805L247.954,422.512L250.701,424.773L253.082,423.319L255.575,424.346L255.861,426.733L255.083,426.622L254.479,429.215L256.511,432.518L258.956,432.566L259.957,433.941L264.799,432.597L265.958,429.31L269.149,427.871L270.371,428.741L272.388,431.554L273.308,431.791L274.833,429.31L273.832,426.654L275.944,424.125L279.183,424.299L280.77,423.777L281.008,425.706L280.738,429.721L281.691,430.827L283.215,430.859L282.739,432.423L283.66,433.214L288.597,433.103L293.916,431.222L296.186,429.974L296.218,429.958L297.17,429.152L297.361,427.081L299.536,425.974L299.679,424.141L300.996,423.461L303.044,421.105L301.25,418.924L302.314,417.785L304.696,417.691L304.648,420.805L307.426,422.86L308.617,424.978L310.284,425.421L314.713,423.556L318.095,420.046L320.143,416.141L320.746,412.331L317.873,409.389L317.746,408.441L315.729,407.033L314.888,404.724L313.126,403.649L310.919,404.535L309.061,403.538L310.967,400.945L310.554,399.806L310.935,396.753L311.951,395.741L311.935,393.954L310.125,392.325L311.506,392.435L313.491,391.091L314.713,389.082L316.396,384.557L315.761,382.896L315.301,377.263L312.888,373.545L312.903,371.519L313.935,370.997L313.158,368.75L310.189,369.446L308.998,370.396L307.712,372.912L308.157,373.497L310.427,371.962L310.76,375.143L308.601,376.441L307.363,375.143L305.283,374.32L307.029,372.58L306.68,369.415L307.188,365.822L304.457,363.226L304.711,361.723L306.775,359.174L308.426,358.684L308.474,357.56L309.712,357.291L310.078,355.66L311.094,355.803L311.364,354.014L314.539,353.872L315.602,355.708L317.809,355.55L319.778,353.65L319.937,351.165L321.731,349.692L324.477,346.399L324.62,345.386L328.462,344.768L330.605,340.857L332.526,341.586L333.161,339.543L334.384,339.432L336.146,337.928L336.48,336.059L338.083,336.091L339.702,338.102L341.036,341.538L343.354,342.662L344.624,344.689L344.767,346.763L346.323,349.597L346.164,351.386L342.798,348.125L340.163,344.705L339.131,345.449L339.353,347.713L341.528,349.455L342.258,352.542L343.735,354.726L344.624,354.932L347.482,359.333L347.498,360.298L346.164,362.942L346.37,364.967L347.879,366.471L348.307,368.054L347.132,370L349.212,372.437L350.387,372.595L348.99,374.842L348.752,376.915L350.514,377.548L350.53,381.488L348.466,381.44L347.783,379.732L346.386,379.747L343.973,381.44L341.592,384.842L340.845,388.307L344.926,391.502L346.386,391.407L347.18,393.701L349.768,395.393L349.53,396.959L351.213,399.189L349.974,401.372L352.546,403.206L356.499,403.443L360.389,402.273L360.357,401.261L358.262,400.818L360.754,400.533L360.976,401.878L364.596,400.929L364.501,399.379L362.564,398.651L359.913,398.968L359.849,396.279L361.993,396.2L364.533,397.639L365.85,396.706L365.85,389.983L364.088,389.999L363.993,389.161L366.47,389.082L370.042,387.879L371.852,385.87L371.756,384.62L369.486,383.007L369.407,380.016L368.851,377.817L369.581,376.52L368.232,374.779L368.486,373.165L370.296,372.896L370.915,371.503L372.36,371.535L375.122,369.225L374.408,367.642L374.36,365.521L376.408,363.559L378.266,359.618L376.948,357.164L377.551,354.647L376.71,353.159L375.535,353.254L371.756,351.354L372.979,350.12L376.202,349.629L378.901,346.906L379.028,343.913L379.71,342.852L379.615,339.559L378.504,337.785L378.678,336.677L377.313,333.763L378.488,331.15L378.393,329.534L379.123,326.889L377.71,324.308L373.947,318.779L372.693,314.534L370.724,312.49L369.057,309.812L368.216,307.372L366.882,305.708L366.565,303.474L365.422,302.333L363.818,297.531L363.04,297.642L360.929,295.091L359.182,294.298L357.785,292.571L354.388,289.813L351.228,286.088L350.054,285.374L349.339,283.409L346.386,280.444L344.497,277.955L343.132,277.147L341.115,274.61L334.828,269.092L332.177,265.873L330.081,263.986L326.62,259.91L326.192,258.276L324.811,257.784L325.922,256.182L325.319,253.311L325.668,250.631L326.779,248.235L325.985,246.236L326.335,245.38L325.35,240.842L326.668,235.717L326.922,232.766L326.541,231.909L326.192,227.497L324.795,225.37L322.858,223.545L320.476,222.117L321.35,221.069L320.143,217.228L319.556,217.482L317.444,214.926L314.253,212.624L311.236,208.068L310.998,206.131L308.426,204.877L306.664,201.876L307.68,200.288L306.236,198.446L306.49,197.43L308.95,195.175L307.807,192.999L310.125,192.046L309.284,190.648L309.442,188.568L311.268,187.726L311.57,186.36L313.3,186.154L315.094,184.009L317.539,183.39L318.73,181.468L320.238,181.515L323.525,177.607L326.62,174.827L327.065,173.366L330.415,168.297L333.288,165.93L333.669,163.991L332.701,163.419L333.749,157.253L336.21,155.997L335.575,154.472L337.369,151.436L338.274,147.303L337.686,146L338.559,143.885L338.797,141.787L340.337,142.375L341.227,140.928L340.242,139.211L341.322,137.749L343.402,132.581L343.608,127.811L342.02,126.491L344.052,125.68L347.212,120.877L349.038,120.511L349.704,119.573L352.721,117.505L352.483,116.09L352.88,113.004L353.689,112.081L355.547,110.538L355.817,106.768L356.944,105.257L358.976,104.716L359.055,103.284L361.707,103.379L364.723,101.438L367.263,98.781L371.645,94.835L375.598,90.045L376.63,87.196L374.074,85.414L376.376,82.135L384.934,67.235L386.362,65.037L389.76,66.996L391.22,66.9L391.792,65.913L393.126,66.693L393.983,64.496L392.935,63.939L396.364,57.983L394.888,57.123L392.57,61.104L390.157,59.687L392.903,54.735L395.364,51.597L395.396,49.941L394.158,48.348L396.73,47.265L396.825,45.991L395.142,44.748L395.952,42.454L394.856,40.208L393.523,39.205L391.808,36.672L392.11,35.987L394.729,35.477L395.078,34.76L393.602,32.243L391.602,30.856L390.951,28.705L396.094,27.733L398.508,28.434L399.746,26.984L401.127,26.634L402.445,27.462L403.413,25.55L404.255,27.08L406.366,26.522L408.589,28.642L411.748,28.61L417.829,26.124L425.338,21.598L432.244,16.769L435.293,14.905L443.469,8.959L448.74,4.655L451.597,1.897L452.534,0L455.297,2.248L455.948,2.232L457.36,2.918L457.662,3.109L460.075,3.794L459.139,5.452L459.488,8.21L459.075,9.182L458.853,9.756L461.155,10.713L461.472,10.585L462.949,10.76L461.885,12.195L462.854,12.386L461.568,13.916L462.52,15.813L462.314,16.403L462.393,16.658L464.965,16.052L463.822,18.602L464.965,19.415L465.489,18.331L469.204,19.176L469.569,19.335L469.792,19.287L470.236,19.192L471.014,19.622L472.617,18.825L473.729,19.989L473.808,21.327L476.301,22.013L477.364,21.71L478.904,22.188L480.635,23.718L482.318,23.957L483.096,25.63L482.889,26.873L485.541,30.745L487.589,30.904L487.747,30.856L489.065,31.334L490.24,34.569L489.097,36.433L489.764,38.185L491.812,39.46L492.494,39.778L493.129,40.352L493.828,40.208L497.368,41.339L497.67,42.295L497.48,42.725L496.067,45.019L496.082,46.93L497.178,48.762L496.495,51.008L496.622,51.788L495.479,54.129L496.384,59.353L497.813,61.662L497.734,62.458L497.765,62.569L497.876,62.856L499.639,63.811L499.94,67.091L500.083,67.505L499.591,70.18L500.464,70.721L503.639,77.28L503.798,77.535L503.925,77.63L504.592,77.869L507.529,79.827L508.482,79.811L508.863,79.859L509.784,80.846L509.958,81.212L510.911,82.517L514.403,81.928L514.594,81.928L515.642,80.336L515.769,80.129L516.467,79.524L519.087,79.381L519.881,79.763L521.659,80.48L523.961,80.448L524.58,80.798L525.549,81.164L525.787,81.021L527.374,81.053L531.185,79.079L534.82,79.238L535.741,78.569L536.328,78.267L537.456,79.111L537.678,79.381L537.932,79.461L539.139,81.339L539.17,81.594L538.996,82.008L538.884,82.692L538.678,83.026L538.17,85.27L538.313,85.7L538.821,85.891L538.996,86.082L539.297,87.085L539.52,87.435L540.536,88.422L544.727,89.186L545.552,90.666L545.711,90.936L546.569,93.785L548.601,96.219L551.252,96.856L551.712,96.935L552.141,97.699L552.062,98.272L552.506,99.417L552.633,99.688L553.125,100.149L553.395,100.133L555.332,98.733L555.554,98.495L555.808,98.415L556.047,98.495L556.84,98.113L557.237,97.938L558.904,99.64L561.254,100.754L562.778,100.404L563.096,100.388L563.953,100.436L564.286,100.261L565.318,99.72L566.747,97.094L567.017,96.951L567.43,96.267L567.62,96.108L569.16,94.198L570.256,94.214L571.764,91.159L571.939,90.968L573.796,89.424L575.082,87.658L577.241,86.321L577.575,86.305L579.242,86.83L580.925,90.395L581.496,91.684L583.782,92.146L584.386,92.289L586.402,94.214L589.402,94.548L590.45,93.435L593.006,92.209L593.26,91.986L594.038,91.573L594.34,91.334L594.499,91.207L594.896,91.429L595.975,91.891L596.308,92.098L597.134,93.259L597.531,92.957L599.166,93.546L599.341,93.785L601.008,92.305L602.754,91.843L603.119,90.968L603.151,90.761L604.532,89.79L604.85,89.79L606.644,90.3L608.2,89.424L608.438,89.297L609.946,88.979L610.041,88.979L611.502,90.172L613.804,90.14L614.058,90.077L614.217,90.172L614.36,90.729L615.693,95.408L616.805,95.774L616.979,95.869L618.932,95.774L619.218,95.933L619.519,96.156L621.266,96.537L621.409,96.76L621.52,96.903L621.917,97.031L622.647,97.094L622.996,97.476L624.378,99.783L624.536,100.038L625.267,100.738L625.711,100.802L626.965,101.263L627.188,101.613L628.045,102.981L628.22,103.109L629.982,104L632.411,103.459L632.712,103.602L634.665,104.429L636.38,106.1L636.364,106.227L637.031,108.152L636.793,109.552L637.618,110.825L640.984,113.37L640.698,116.328L640.92,116.376L642.143,118.476L642.429,118.682L643.572,119.446L643.778,119.493L643.969,119.541L644.397,119.493L645.953,119.637L649.716,122.468L649.906,122.754L651.113,124.106L654.05,124.519L654.59,124.296L656.114,124.948L657.876,127.048L659.162,127.843L659.829,128.145L660.861,128.638L661.893,132.295L663.655,133.488L663.48,136.652L663.322,136.97L663.084,137.224L662.766,137.653L663.004,138.925L663.163,139.18L664.131,139.911L664.163,140.245L664.56,141.342L664.671,141.723L664.576,142.947ZM389.538,26.475L389.744,28.323L387.632,28.689L387.887,26.969ZM296.218,429.958L296.186,429.974L296.218,429.958ZM65.426,465.509L65.521,465.462L65.426,465.509ZM243.445,451.75L245.208,453.03L243.731,453.441ZM228.188,414.339L229.189,414.718L228.696,416.884L228.935,419.445L227.045,420.157L227.252,415.509Z"
          fill="#e0e0e0"
          stroke="#333333"
          stroke-width="1"
          stroke-linejoin="round"/>
  </g>
</svg>