<?xml version="1.0" encoding="UTF-8"?>
<svg xmlns="http://www.w3.org/2000/svg"
     viewBox="90.05281379607914 -19.999999999996362 619.8943724078563 639.9999999999964"
     width="619.8943724078563"
     height="639.9999999999964">
  <title>山梨県</title>
  <desc>都道府県コード: 19</desc>
  <g id="19">
    <path d="M501.342,79.593L501.644,79.423L504.078,79.329L505.362,81.195L507.683,81.93L509.721,80.516L510.023,80.384L512.099,79.951L512.778,79.536L514.363,78.104L521.157,80.177L521.44,82.288L521.459,82.966L521.308,83.456L521.61,84.305L521.705,84.531L522.346,85.021L522.422,85.303L524.705,84.606L525.12,84.474L525.554,84.38L526.272,84.21L526.932,84.832L527.63,85.209L530.744,87.508L531.707,89.808L534.236,92.936L538.802,93.294L542.69,98.758L544.124,98.042L546.483,93.972L546.691,93.84L548.446,93.087L548.88,92.672L553.013,90.637L554.825,88.941L561.279,90.618L563.562,91.956L565.808,91.334L566.148,91.24L566.714,90.769L566.865,90.411L568.884,90.373L573.357,88.394L573.621,88.262L574.225,87.527L574.621,87.659L574.716,87.678L574.98,87.791L575.32,88.074L575.867,88.846L576.376,90.053L576.697,90.825L577.056,91.843L576.943,92.352L576.584,92.973L576.584,93.953L576.678,94.726L576.584,95.404L576.452,95.894L576.452,96.704L576.641,97.025L576.829,97.194L577.226,97.929L577.603,98.532L578.32,99.437L578.471,99.568L579.018,100.04L579.679,100.982L579.887,101.245L580.038,101.377L580.509,101.735L581.132,102.414L581.642,102.772L581.925,103.148L582.472,103.657L583.095,104.109L583.434,104.976L584.095,105.334L584.963,105.748L585.057,105.937L585.322,106.427L585.793,106.634L586.246,106.653L587.209,106.219L587.586,106.031L589.455,105.183L589.926,105.673L590.096,106.427L590.228,107.011L590.342,107.934L590.266,108.574L590.153,109.139L590.153,109.705L589.907,110.251L589.907,110.835L589.87,111.155L589.832,111.362L590.077,112.493L590.096,113.114L590.04,113.434L589.738,114.489L589.832,114.941L589.851,115.168L589.926,115.695L589.889,116.147L589.832,116.467L590.7,117.315L590.964,117.541L591.323,118.351L591.266,119.048L591.323,119.198L591.342,119.669L591.417,119.971L591.379,120.442L590.643,121.327L590.625,121.892L590.681,122.231L590.643,122.476L590.549,123.078L590.455,123.399L590.455,123.983L590.191,124.849L590.266,125.188L590.738,125.696L590.813,125.847L590.908,126.469L590.889,126.619L590.794,126.939L590.776,127.693L590.908,128.277L591.021,128.86L591.153,129.369L591.229,129.482L591.53,129.802L592.021,130.122L592.134,130.254L592.399,130.781L592.474,130.913L592.663,131.648L593.248,132.551L593.493,132.74L593.663,133.305L593.908,133.418L594.135,133.644L594.38,134.039L594.21,134.548L593.908,134.529L593.757,134.717L593.795,135.47L593.871,135.602L593.984,136.318L594.154,136.675L594.644,137.203L594.927,137.372L595.588,137.749L595.701,137.956L595.758,138.163L595.984,138.314L596.475,138.125L596.607,138.106L597.286,138.295L597.664,138.709L598.645,139.255L598.966,139.293L599.211,139.65L599.117,139.952L599.004,140.253L598.985,140.724L599.891,142.512L600.212,142.927L600.023,143.322L599.796,144.584L599.57,145.054L599.551,146.071L599.381,147.634L599.098,148.292L598.607,148.857L598.362,149.573L598.513,150.137L598.475,151.625L598.702,151.851L599.249,153.206L600.098,153.733L600.325,154.128L600.608,154.806L600.891,155.051L601.061,155.352L601.155,155.446L601.589,155.71L601.834,155.954L602.136,156.707L602.269,157.31L602.665,158.157L602.967,159.211L603.344,159.681L603.457,159.794L603.892,160.66L603.892,160.848L603.741,161.601L603.703,161.94L605.949,163.766L606.383,164.368L606.892,164.669L607.59,165.215L607.949,165.347L608.232,165.479L608.723,165.761L609.232,165.893L610.61,165.648L611.195,165.667L611.421,165.723L611.365,166.25L611.346,166.382L611.44,166.852L612.195,168.208L612.629,168.847L612.931,169.205L613.214,169.356L613.252,169.468L613.516,170.259L613.743,170.579L614.29,171.275L614.743,172.216L614.781,172.574L615.026,172.931L615.234,173.119L616.46,176.488L616.838,177.504L616.951,177.636L617.121,177.767L618.781,179.8L619.14,180.082L619.197,180.119L619.215,180.421L619.253,180.59L619.819,181.625L620.461,182.415L621.423,184.202L621.574,184.598L621.707,184.936L621.744,185.219L621.688,185.482L621.669,185.651L621.631,186.14L621.631,186.272L621.99,187.044L622.745,187.721L622.952,188.135L623.084,188.304L623.764,189.151L624.5,189.734L624.575,189.903L624.877,190.054L625.141,190.298L625.349,190.43L625.896,190.938L626.368,191.201L626.689,191.295L627.368,191.277L627.953,191.352L628.293,191.54L628.538,191.841L628.934,192.086L629.274,192.236L629.538,192.405L629.765,192.763L630.274,193.365L630.557,193.609L631.01,193.854L631.52,194.682L631.822,195.039L632.331,195.208L632.69,195.359L633.105,195.415L633.596,195.66L634.049,195.998L634.332,196.205L634.521,196.262L635.162,196.431L636.087,196.393L636.351,196.45L636.804,196.488L637.332,196.883L637.729,197.503L637.917,197.616L638.333,197.691L638.484,197.71L638.88,197.992L638.993,197.992L639.125,198.011L639.314,198.406L639.559,198.745L639.748,199.008L639.805,199.159L640.012,199.911L640.276,199.892L640.616,200.062L641.409,200.607L641.862,200.852L643.409,201.585L643.994,201.999L645.032,202.319L645.636,202.507L646.41,202.958L646.655,203.146L647.165,203.842L647.41,204.143L647.618,204.707L647.863,205.027L648.316,205.102L648.58,204.933L648.712,204.726L649.241,204.764L649.844,204.914L650.203,205.046L650.788,205.178L650.901,205.215L651.354,205.46L651.656,205.968L651.807,206.231L652.638,206.983L653.298,206.87L653.751,206.814L654.676,207.322L655.147,207.171L655.789,206.701L656.11,206.682L656.884,206.795L657.223,206.795L657.412,206.758L657.922,206.852L658.129,206.814L658.582,207.359L659.092,207.698L659.148,207.792L659.45,208.375L659.582,208.676L659.96,208.657L660.526,208.714L661.168,209.409L661.847,209.767L662.489,209.88L663.81,210.35L664.357,210.557L664.583,210.199L664.791,209.88L664.999,209.842L665.357,209.992L666.093,210.049L666.452,210.143L666.81,209.748L667.301,209.278L667.792,209.259L668.943,209.391L669.32,209.56L669.679,209.597L670.49,209.786L671.094,209.936L672.113,210.35L672.227,210.331L672.491,210.218L672.566,210.218L672.887,210.481L673.415,210.707L673.755,210.914L674.019,211.102L674.227,211.347L674.34,211.61L674.585,211.93L675.284,212.569L675.51,212.757L675.737,213.302L677.605,215.183L678.19,215.409L678.473,215.484L679.002,215.559L679.077,215.597L679.719,216.368L680.096,216.8L680.568,217.346L680.775,217.966L680.926,218.229L681.134,218.399L681.228,218.399L681.662,218.718L682.096,219L682.323,219.226L683.248,220.317L683.399,220.354L683.738,220.147L684.003,220.129L684.55,220.429L684.946,220.617L685.38,220.805L685.927,221.257L686.513,221.915L686.701,222.216L686.965,222.611L687.098,222.893L687.211,223.269L687.569,223.626L687.777,224.002L687.966,224.434L688.117,224.453L687.305,227.725L685.626,228.044L683.587,231.241L681.096,233.121L681.266,235.113L681.134,235.527L680.738,236.128L680.36,236.298L680.172,238.591L680.379,238.835L680.53,238.929L680.662,239.08L680.738,239.268L680.738,239.531L682.115,241.467L682.266,241.711L683.153,243.234L683.323,243.253L685.022,245.847L685.607,248.346L684.663,249.53L684.531,249.906L684.399,250.865L684.361,251.166L683.21,253.815L683.889,255.3L683.153,258.946L683.455,260.487L685.116,262.065L685.041,262.328L688.947,264.733L689.947,266.067L685.946,268.829L688.89,271.779L689.192,273.263L688.305,274.973L687.55,279.068L687.343,279.932L686.456,282.806L686.305,282.994L684.588,283.37L682.795,286.281L682.455,286.694L682.587,290.169L684.625,290.488L684.833,290.958L684.588,290.864L684.154,290.845L684.003,290.958L684.55,291.897L684.871,291.953L685.946,292.573L685.927,293.099L685.777,294.489L685.531,294.827L686.154,296.799L685.475,299.09L685.493,299.428L686.607,300.573L686.645,301.231L686.569,301.437L687.154,303.709L686.305,306.244L683.87,308.929L683.757,309.155L682.002,311.032L680.115,311.464L678.19,313.022L676.341,315.801L677.209,317.228L676.19,319.724L676.359,320.119L676.303,323.103L677.53,324.23L676.473,325.506L676.341,325.75L674.982,328.997L673.095,328.96L671.566,332.901L669.698,334.084L669.452,334.271L668.207,335.379L667.905,335.641L665.357,337.124L665.017,337.462L661.375,342.078L660.432,343.955L658.79,343.73L658.318,343.561L657.11,343.486L653.392,345.55L650.052,344.78L648.561,345.944L648.108,346.019L644.806,347.37L640.503,346.3L639.673,345.099L636.257,345.756L634.86,353.768L632.407,356.395L630.916,359.678L627.01,361.272L625.236,364.518L625.028,367.181L622.292,367.875L622.103,368.213L620.725,368.626L620.442,368.551L617.328,367.969L613.705,371.477L613.497,371.702L613.384,371.852L613.082,372.002L607.439,371.514L606.458,372.283L606.307,372.283L602.099,372.471L601.608,372.621L600.023,374.309L599.777,374.815L599.192,376.447L597.381,377.46L595.399,380.029L594.512,379.279L594.493,378.941L592.172,377.947L589.53,380.216L583.529,381.154L582.227,382.204L582.038,382.335L580.641,382.954L580.321,383.592L579.754,384.473L579.301,384.586L575.716,387.492L575.376,387.755L573.546,389.199L573.319,389.442L570.469,391.055L570.205,391.167L570.356,392.236L567.035,395.611L566.299,397.655L564.185,399.511L564.487,401.348L563.43,403.26L563.676,404.722L566.148,407.946L565.865,412.014L563.77,412.651L563.128,416.156L563.015,416.381L561.034,417.524L560.599,417.899L558.505,419.117L557.127,423.447L557.486,427.119L555.976,427.457L555.504,427.981L554.164,429.256L549.258,430.305L546.974,433.266L546.691,433.528L544.955,434.24L544.521,434.296L543.558,434.465L538.67,437.8L538.406,437.837L534.594,438.212L531.405,441.209L531.141,442.09L530.046,440.516L529.857,440.254L529.404,439.786L525.743,435.757L524.932,434.914L521.176,436.507L519.063,435.757L518.949,435.214L517.779,434.633L514.816,436.188L514.175,436.975L513.325,437.575L512.608,437.818L510.325,438.549L509.796,438.793L506.022,440.704L504.342,444.001L502.436,445.125L501.908,445.406L501.153,445.837L500.323,446.586L497.586,445.2L496.85,445.125L495.812,445.219L495.209,445.368L492.717,445.762L491.661,445.706L490.906,445.574L488.339,445.125L487.792,444.975L483.904,445.462L483.376,445.593L482.376,445.799L481.64,445.893L474.582,447.729L454.464,452.674L444.689,455.296L440.235,453.386L439.555,453.386L436.932,453.592L436.593,453.798L435.121,454.247L434.8,454.285L433.969,454.697L433.781,454.734L431.818,454.903L431.497,454.922L430.384,454.903L429.855,454.959L428.478,455.146L428.251,455.128L426.251,455.39L425.024,457.675L424.326,457.75L422.759,458.124L422.023,458.162L419.381,458.087L419.155,458.218L418.098,458.892L414.116,459.061L414.003,458.499L412.625,451.981L412.474,451.25L409.228,436.451L408.889,434.802L408.587,433.453L408.473,432.928L403.737,428.862L398.264,428.825L397.49,428.825L391.64,428.862L391.168,428.881L385.695,429.555L384.94,429.724L384.204,429.893L382.544,430.268L380.543,430.68L379.807,430.811L377.278,430.98L376.165,430.98L373.108,432.366L371.994,432.516L370.767,432.666L370.598,431.935L370.484,431.523L370.145,430.118L369.654,428.113L369.428,427.251L369.39,427.063L369.163,426.201L367.974,421.348L367.654,420.111L367.314,418.724L367.163,418.087L366.955,417.243L366.653,416.025L366.408,415.05L366.144,414.02L365.974,413.232L365.88,412.782L365.597,411.62L365.427,410.871L363.521,403.11L363.068,402.885L360.671,400.711L360.426,400.598L358.557,400.279L358.293,400.186L356.274,396.773L356.274,396.417L354.33,393.605L352.367,395.349L352.103,395.461L351.764,396.174L351.537,397.017L348.782,397.58L348.461,397.767L346.706,398.592L346.461,398.798L345.611,399.529L345.102,400.261L341.573,402.042L340.78,402.06L340.157,402.248L338.666,406.053L338.685,406.297L337.836,408.415L337.553,408.546L336.515,410.421L336.062,410.646L334.647,411.527L334.364,411.808L332.948,413.326L332.703,413.813L331.533,415.5L330.759,415.875L330.268,416.137L329.891,416.269L328.627,416.662L327.966,416.962L327.721,417L327.362,417.337L326.683,418.574L323.777,420.56L323.795,424.74L323.72,425.189L323.644,425.414L323.475,425.695L324.06,427.082L324.399,427.532L324.173,429.499L324.173,430.099L325.966,434.259L326.079,434.615L325.683,437.294L325.456,437.837L325.135,438.081L324.984,438.343L324.664,438.793L324.286,438.905L322.663,441.322L322.625,441.565L322.154,442.315L321.927,442.615L321.776,442.858L321.569,443.195L322.512,444.301L322.757,444.731L322.965,447.036L322.965,447.335L322.927,447.616L322.757,448.459L322.814,450.164L322.89,450.595L322.682,453.311L322.644,453.592L323.078,456.888L322.588,457.675L322.569,458.068L322.814,459.567L322.776,460.11L323.286,462.076L322.323,464.941L323.135,468.256L323.55,468.574L324.796,470.821L325.4,471.252L325.758,479.322L320.946,482.468L320.719,482.767L319.87,485.8L316.794,487.99L316.36,488.102L311.793,491.996L312.699,498.566L312.189,499.633L314.51,502.946L314.227,505.004L315.435,508.803L316.719,510.843L317.643,514.136L317.115,515.577L316.983,515.933L317.417,518.066L316.511,520.853L316.794,523.753L313.812,526.429L313.095,530.208L315.681,533.799L315.964,534.267L317.492,536.624L317.039,537.634L316.907,538.475L318.474,540.346L319.115,545.62L320.795,552.278L322.38,553.381L324.06,559.103L321.078,564.001L323.418,568.227L324.173,570.676L323.909,573.181L324.116,573.685L324.607,575.854L321.757,578.321L319.172,577.256L317.115,577.368L317.455,578.433L313.774,577.835L314.624,579.125L313.057,581.817L312.982,582.527L311.925,584.695L308.226,586.863L306.886,589.087L305.131,593.964L302.187,595.534L301.81,597.646L299.262,600L297.035,599.066L294.865,595.684L293.6,595.926L293.506,595.889L292.77,595.179L292.279,595.104L291.015,592.787L287.109,594.114L286.693,594.133L280.824,591.741L278.578,592.656L274.936,592.021L274.03,592.451L268.803,591.834L268.312,592.806L262.386,591.03L260.858,589.685L260.688,589.517L259.027,585.442L258.801,584.994L258.669,583.854L258.518,583.536L256.442,579.798L255.951,579.387L254.989,577.2L253.403,576.901L253.139,576.826L250.648,575.274L250.082,574.994L248.138,574.34L244.798,575.835L244.005,576.153L242.552,574.975L242.231,574.078L241.627,572.171L240.25,571.068L240.193,570.694L239.325,564.675L238.853,564.282L238.551,563.291L238.551,562.786L238.004,561.889L238.683,558.037L238.174,555.737L238.193,555.307L236.985,552.109L236.702,549.585L236.494,548.743L235.588,547.098L234.947,542.964L235.268,542.198L233.041,539.635L232.078,537.073L231.625,536.848L229.776,534.978L229.889,534.547L229.682,534.192L229.247,533.35L227.606,529.385L226.511,528.112L226.247,527.925L225.416,526.429L225.115,525.849L224.813,525.4L224.341,524.988L223.775,524.52L223.643,524.277L223.643,523.604L223.718,523.248L224.303,521.265L224.397,520.872L225.039,519.244L223.548,516.138L223.926,515.558L223.812,511.629L223.586,511.311L223.454,509.421L224.586,506.632L224.699,506.09L224.813,505.678L225.096,505.229L226.945,502.515L225.794,498.529L224.36,497.293L223.982,494.972L222.925,494.111L222.642,493.55L218.547,491.191L218.453,490.555L218.038,488.739L217.169,489.769L214.943,489.694L213.376,490.742L209.772,489.001L209.357,488.758L208.847,488.196L208.394,487.578L206.828,485.407L206.469,484.995L204.563,482.355L201.317,481.925L200.996,481.794L197.486,481.943L194.41,484.115L191.07,485.238L190.277,486.867L188.352,488.308L185.465,489.151L184.672,489.694L184.54,489.731L182.993,489.806L180.407,489.937L180.124,490.311L179.916,491.547L179.596,492.333L176.312,495.665L176.01,496.226L173.953,498.903L173.274,498.847L172.915,498.734L170.462,497.368L170.084,497.237L168.556,496.563L167.971,494.523L164.536,491.36L162.007,491.135L161.686,490.967L161.535,490.686L161.101,490.667L159.705,490.836L157.667,489.769L157.421,489.843L155.364,487.204L155.572,484.078L153.798,482.917L153.534,483.048L153.722,480.708L153.76,480.389L153.741,480.296L153.439,479.584L152.175,478.648L151.854,478.648L152.59,476.982L154.232,476.42L155.685,474.623L155.987,474.304L156.855,473.05L156.723,472.301L156.081,471.346L155.798,471.121L155.383,469.604L155.213,469.211L155.383,466.702L155.572,466.14L155.289,464.455L155.043,463.724L153.194,458.892L153.118,458.462L153.232,457.338L153.326,456.738L153.213,454.566L151.59,452.861L151.269,452.543L149.042,453.123L148.514,453.086L148.098,453.03L147.211,452.262L147.098,451.943L144.796,449.92L141.625,449.115L142.097,447.804L142.078,447.41L142.003,447.054L141.984,446.624L142.059,446.211L142.059,445.668L142.21,444.75L142.361,444.563L142.456,444.319L142.55,444.02L143.305,442.24L143.626,442.015L144.607,439.111L145.626,437.95L145.872,437.781L146.513,436.413L146.966,436.113L147.079,436.039L147.589,435.832L148.551,435.289L148.759,435.083L149.948,434.334L151.024,431.261L150.42,428.787L150.457,428.525L150.344,427.719L153.005,425.62L154.175,424.009L154.496,423.728L157.1,422.285L157.478,421.348L157.214,420.129L157.308,419.717L157.195,416.962L157.138,416.718L157.534,414.9L157.478,414.263L157.667,413.045L157.685,412.708L157.704,412.108L158.327,408.021L158.044,404.928L158.214,404.554L157.742,402.51L157.534,402.004L157.119,400.636L156.949,399.942L156.931,399.417L156.836,399.286L156.647,399.061L156.44,398.742L155.836,395.255L155.893,394.824L154.949,394.149L154.741,394.055L152.326,393.042L150.967,390.886L150.571,390.249L150.439,389.386L150.325,389.124L148.985,386.967L149.25,382.729L149.42,382.129L149.948,380.441L154.213,378.735L154.628,378.378L155.157,377.216L155.364,376.803L155.855,373.296L156.044,372.883L156.383,372.246L157.308,370.876L157.893,363.542L158.082,363.073L158.025,362.06L158.233,361.385L158.346,361.235L158.516,360.841L157.931,357.483L157.95,357.164L158.082,355.4L158.27,354.781L158.346,352.117L158.44,351.892L158.78,349.059L158.704,348.702L162.988,343.073L164.045,342.435L162.101,339.038L162.007,338.832L161.837,338.644L160.516,335.81L160.818,333.502L160.931,333.22L159.233,331.006L156.968,329.936L157.685,324.755L157.723,324.323L158.61,321.114L158.327,313.473L155.76,312.215L155.402,312.121L153.76,311.389L152.722,309.324L149.967,307.183L149.099,305.437L149.57,301.212L149.91,300.705L147.589,298.526L146.853,295.578L147.042,295.165L147.136,294.658L147.098,294.226L147.098,292.855L146.891,292.291L146.872,291.803L146.74,291.24L145.702,290.639L146.004,288.836L146.079,288.516L147.211,286.751L147.325,286.3L148.608,283.877L148.608,283.576L148.476,282.525L148.57,282.299L148.4,280.083L147.4,278.505L147.381,278.035L147.193,277.509L147.155,276.889L147.079,276.325L146.928,274.653L146.815,274.466L146.494,274.334L146.06,274.184L145.909,274.184L145.419,274.221L144.286,273.733L143.928,273.752L143.475,272.756L143.437,272.418L143.664,271.441L143.758,270.821L143.796,270.633L143.966,270.314L143.833,267.495L143.248,267.289L144.551,262.61L144.437,262.291L143.267,261.445L142.89,261.276L141.531,260.581L141.361,260.167L141.248,259.885L141.078,259.754L139.738,258.814L139.587,258.382L139.927,257.499L139.927,256.954L140.135,254.342L140.153,254.079L140.55,252.744L140.682,252.293L141.588,250.376L141.305,247.557L140.965,246.373L139.625,243.967L138.134,244.042L137.549,244.136L133.548,245.02L133.265,244.869L133.058,244.719L132.944,244.474L132.397,242.444L131.869,241.937L130.265,240.753L129.717,240.358L128.83,239.568L128.793,239.418L127.943,237.783L127.736,237.538L127.132,235.94L127.075,235.508L126.905,233.459L125.83,231.391L125.584,230.432L124.207,229.755L124.056,229.586L121.885,226.747L121.64,226.465L119.753,225.6L119.413,225.318L118.054,224.246L118.168,221.276L117.96,220.881L117.904,220.824L117.696,220.693L117.602,220.204L117.62,219.564L117.771,218.53L117.941,217.628L117.677,217.27L116.828,214.356L117.866,213.077L118.054,212.776L118.205,212.306L118.3,211.76L118.187,210.914L118.224,210.575L118.281,208.789L118.375,207.886L118.47,206.87L118.338,206.607L118.017,205.291L117.734,204.858L117.507,203.635L117.3,203.24L116.582,201.961L116.318,201.717L114.318,200.457L114.016,200.174L113.28,198.82L112.959,198.5L110.487,195.077L110.053,192.612L110.808,190.562L110.921,190.374L111.487,189.414L111.883,189.169L112.015,188.963L112.091,188.624L112.619,188.699L113.11,188.662L115.563,185.915L115.96,185.821L118.073,184.428L118.564,184.428L119.998,183.525L120.413,183.356L122.206,179.197L122.244,179.047L124.358,177.504L125.131,177.523L125.584,177.241L126.32,177.015L128.132,174.869L128.698,174.568L128.83,174.399L129.208,173.929L129.981,172.367L134.435,168.678L134.548,168.433L134.681,167.135L134.624,166.758L134.832,166.589L135.341,166.213L137.209,164.876L137.436,164.801L137.776,164.556L138.153,164.161L140.833,162.712L141.04,162.429L141.21,162.335L141.776,162.072L143.626,160.585L144.286,160.359L141.663,155.917L141.059,155.691L140.682,155.559L140.229,155.446L136.907,153.771L136.662,153.225L134.926,150.476L133.284,150.156L132.642,150.062L132.303,149.704L131.699,149.121L131.378,147.746L128.472,145.732L128.396,145.506L128.189,144.414L127.849,143.849L127.283,143.021L126.981,142.87L126.717,142.475L126.32,142.211L125.735,141.571L122.621,142.908L121.904,142.833L121.565,142.663L121.017,142.381L120.3,142.042L119.734,141.74L116.79,140.253L115.526,137.636L115.092,137.184L113.657,135.979L113.242,135.451L113.544,133.775L113.695,133.474L113.695,131.855L113.865,131.704L113.997,131.233L113.959,130.8L115.318,127.956L115.601,127.542L116.752,125.979L116.96,125.753L118.168,125.32L118.262,125.018L118.847,124.661L119.111,124.642L120.583,122.608L121.716,119.443L122.848,119.707L125.66,116.618L125.773,116.034L125.735,114.866L125.396,114.734L125.66,113.868L124.226,111.457L124.207,111.212L124.848,109.912L124.641,109.78L125.471,106.408L125.735,105.918L126.83,104.599L127.056,104.411L129.132,101.811L129.472,101.434L129.812,100.869L129.793,100.642L129.736,100.058L130.17,99.267L131.265,96.29L131.548,95.8L131.718,94.839L131.982,94.5L134.02,92.747L134.209,92.182L136.813,86.472L138.021,86.001L138.474,85.341L138.455,85.153L138.776,84.305L138.946,83.947L139.115,83.08L139.644,80.083L139.757,79.423L139.833,79.178L139.908,78.537L140.153,77.519L141.758,71.978L142.248,71.073L143.23,69.942L143.682,69.47L145.362,66.85L145.626,66.473L146.589,65.964L146.947,65.606L152.156,64.38L152.496,64.437L153.817,65.323L154.119,65.945L154.326,66.36L154.553,66.68L156.459,68.264L156.931,68.679L158.025,69.489L158.421,69.715L158.648,69.791L158.969,69.904L160.195,70.865L160.95,71.45L161.29,71.714L161.762,72.241L163.404,75.955L165.102,78.273L165.932,79.329L168.027,81.214L168.405,81.534L169.367,82.495L169.895,83.193L172.953,84.154L175.123,81.817L175.406,81.609L175.5,81.496L175.765,81.27L176.538,80.422L176.878,79.574L179.143,77.651L179.426,77.199L182.238,72.901L182.672,72.204L183.955,70.375L184.068,70.074L185.748,67.302L186.012,66.982L186.578,65.832L186.899,65.304L188.069,62.608L188.56,62.174L190.673,60.402L194.561,55.934L194.92,55.368L196.165,53.954L196.297,53.765L197.675,51.898L197.977,51.71L200.185,48.711L200.374,48.164L201.846,44.129L201.959,43.167L204.261,38.603L204.506,38.395L204.695,38.301L205.412,38.093L205.809,36.735L205.997,36.264L208.054,34.717L208.3,34.528L208.432,34.378L208.639,33.868L209.545,31.152L209.715,30.209L210.432,28.511L210.602,28.058L210.659,26.36L210.64,26.002L210.451,22.399L210.715,22.21L214.716,17.512L217.773,15.418L219.415,15.361L219.226,11.625L220.34,9.7L220.51,6.662L221.491,5.756L221.736,5.398L222.057,5.096L225.096,3.19L225.605,1.548L225.605,0.736L227.681,0L228.228,0.075L232.286,0L233.871,1.699L236.872,3.114L237.193,3.303L238.457,4.039L239.155,4.228L240.363,4.435L240.703,4.548L241.684,4.964L242.326,5.247L243.76,5.171L244.081,5.171L249.082,6.964L249.403,7.36L249.799,7.7L249.95,7.832L250.516,8.209L252.082,9.021L254.743,9.191L255.385,8.794L256.8,9.115L257.48,9.228L257.989,9.266L258.367,9.379L261.367,10.889L261.783,11.097L263.179,11.833L263.689,12.097L268.822,14.757L269.105,14.852L270.86,16.003L270.841,16.267L270.917,16.399L271.124,16.455L271.351,16.682L271.671,17.418L271.709,17.644L272.143,18.21L272.483,18.342L272.785,18.625L272.992,18.701L274.483,19.814L274.747,20.399L274.578,20.833L275.295,22.417L275.521,22.531L276.691,24.285L276.691,24.889L276.484,25.172L276.314,25.511L275.333,28.134L275.2,28.549L272.521,31.756L273.068,32.416L273.162,32.718L272.558,35.679L272.407,35.943L270.879,36.547L270.935,37.829L271.049,38.131L271.218,38.376L271.181,39.602L271.011,39.829L270.652,40.111L271.105,40.753L271.351,41.319L272.389,42.941L272.747,43.242L273.408,43.884L273.464,44.185L273.672,44.902L273.993,45.317L274.804,47.844L274.842,48.183L276.616,51.238L276.823,53.727L277.05,53.841L278.126,51.295L280.994,51.389L281.353,51.71L285.391,54.614L285.825,54.896L287.071,56.348L287.222,56.499L291.374,55.5L291.562,55.274L292.846,55.179L293.091,55.179L293.204,55.066L293.582,54.557L295.978,55.406L296.299,55.764L297.507,56.405L298.337,56.292L298.696,55.971L298.79,55.632L298.922,55.123L299.205,54.651L301.376,51.804L301.734,50.918L302.017,47.58L301.187,45.279L302.904,45.166L303.15,44.996L305.433,44.77L306.49,43.77L306.565,43.186L307.264,42.016L307.283,41.847L307.207,41.526L307.358,40.941L307.886,39.489L309.962,37.509L310.094,37.245L311.623,37.546L311.755,37.848L312.208,38.584L312.68,38.471L317.605,39.621L319.059,40.621L319.379,40.809L321.135,41.903L321.55,42.186L325.569,42.299L325.947,42.488L327.815,42.941L328.362,42.941L332.005,42.544L332.269,42.092L332.741,41.488L332.986,41.394L334.854,41.337L336.987,39.583L337.251,39.338L338.157,39.282L338.478,39.451L338.61,41.394L340.799,41.224L341.252,41.149L343.271,40.715L343.592,40.64L343.743,40.79L344.083,41.187L346.328,43.091L346.725,43.337L348.404,44.544L348.744,44.638L351.028,45.053L352.349,44.053L353.613,41.036L353.651,40.847L356.595,39.847L358.784,40.168L359.275,39.206L359.595,38.867L361.162,40.225L361.539,40.526L362.049,40.64L362.351,40.602L364.37,42.922L364.691,43.091L365.238,43.205L365.521,43.28L365.974,44.6L365.899,45.147L366.125,45.505L366.484,45.996L369.937,47.486L372.145,46.769L372.541,46.599L371.673,50.39L370.617,51.465L370.654,51.955L369.541,55.255L369.465,55.839L369.484,56.989L369.22,57.253L368.597,57.819L368.276,58.158L368.88,59.742L368.861,60.496L368.88,64.135L368.937,64.324L369.182,68.49L369.201,68.792L369.371,68.943L369.446,69.131L369.314,69.791L369.56,70.036L369.748,70.356L369.937,70.696L370.579,71.299L370.767,71.638L371.013,71.883L371.353,72.204L371.749,73.373L373.73,74.127L374.146,74.277L378.014,75.672L378.505,75.804L381.373,74.372L381.675,74.108L382.091,73.712L382.242,73.618L384.487,75.276L385.016,75.54L386.016,76.106L386.205,75.898L386.846,74.994L390.413,73.184L390.809,72.732L391.262,72.562L391.979,72.788L392.489,72.996L393.187,73.354L393.753,73.354L393.942,73.373L394.282,73.429L395.395,73.542L395.773,73.429L395.943,73.391L396.339,73.259L399.396,71.733L400.132,71.733L401.717,73.203L402.057,73.222L402.133,73.203L402.378,73.259L402.529,73.335L403.038,73.655L403.17,73.712L403.491,73.768L405.265,73.316L406.964,74.805L407.077,74.994L407.341,75.126L407.586,75.182L408.908,75.559L409.398,75.578L410.304,75.804L410.606,75.936L411.153,76.125L411.512,76.294L411.965,75.352L412.078,74.862L414.947,68.245L415.305,67.83L415.683,66.341L415.569,65.964L416.022,62.401L417.249,61.345L417.192,58.724L417.381,58.234L417.551,58.215L417.985,58.215L421.08,56.744L422.137,54.105L423.646,54.425L424.08,54.331L425.496,52.935L425.76,52.539L427.251,50.786L427.459,50.484L429.44,49.183L430.818,46.411L432.403,46.618L432.988,46.562L435.517,46.694L435.894,46.599L436.894,46.939L437.347,47.259L440.801,47.618L441.216,47.467L441.688,47.203L443.613,46.712L444.104,47.561L444.311,47.882L445.538,49.503L445.859,49.918L445.991,50.088L446.463,50.465L449.803,49.258L455.823,52.426L458.54,51.483L461.315,51.785L461.635,52.049L465.882,54.312L469.033,53.256L474.204,53.709L475.94,55.934L480.13,58.705L481.357,60.534L481.621,65.643L482.376,67.189L481.772,68.811L481.885,72.053L484.904,74.541L490.302,76.407L491.868,76.125L493.529,79.989L495.02,81.873L498.53,79.744Z"
          fill="#e0e0e0"
          stroke="#333333"
          stroke-width="1"
          stroke-linejoin="round"/>
  </g>
</svg>