<?xml version="1.0" encoding="UTF-8"?>
<svg xmlns="http://www.w3.org/2000/svg"
     viewBox="192.9129845850257 -20 414.17403082994133 640"
     width="414.17403082994133"
     height="640">
  <title>長野県</title>
  <desc>都道府県コード: 20</desc>
  <g id="20">
    <path d="M500.946,163.95L501.012,164.182L500.428,166.201L498.843,167.376L498.35,168.319L498.07,169.891L498.366,170.545L498.333,170.727L498.333,170.801L498.432,171.165L498.925,172.754L497.75,174.822L496.978,177.022L496.879,177.362L496.78,178.04L496.575,178.271L496.863,179.479L496.616,180.422L497.183,180.86L497.536,181.282L497.602,182.704L497.216,183.953L497.676,184.879L497.618,185.367L498.021,185.756L498.177,185.987L498.103,186.665L497.454,187.227L497.503,188.261L497.61,188.914L497.569,189.658L496.986,190.625L498.161,190.865L497.676,192.593L497.487,194.527L497.717,196.883L499.147,197.147L499.804,197.329L501.225,197.627L502.77,198.676L503.452,198.924L505.809,199.85L508.34,200.635L509.498,201.618L510.41,201.47L510.591,201.362L510.994,201.106L512.456,201.461L512.719,202.445L512.604,202.767L512.653,203.18L512.637,203.329L512.407,203.899L512.44,204.023L512.67,204.353L512.809,204.444L513.516,205.518L513.113,206.502L514.428,206.609L514.592,206.667L516.621,206.46L517.484,206.725L517.632,206.625L517.714,206.609L517.87,206.609L517.985,206.617L518.043,206.7L520.869,207.757L520.828,205.138L521.756,203.684L521.945,203.659L522.586,203.444L522.841,203.403L524.5,203.511L525.379,203.329L526.102,203.891L528.37,205.618L529.89,206.121L532.239,207.286L534.088,207.245L534.457,207.171L535.928,205.626L536.922,203.676L537.694,202.75L538.664,202.081L539.313,201.974L540.857,201.42L542.23,201.643L542.796,201.66L543.799,201.412L544.012,201.337L544.308,201.23L544.612,201.131L545.968,200.651L546.674,201.37L547.323,201.164L547.512,200.561L547.594,200.313L548.235,200.048L548.424,200.056L550.034,200.123L550.19,200.156L550.338,200.627L551.259,200.833L551.908,200.486L552.146,200.453L553.682,200.627L553.871,200.759L555.095,201.271L555.925,202.676L557.363,202.957L558.792,202.197L560.14,202.478L560.23,202.635L561.306,203.387L561.561,204.031L562.645,204.709L562.785,204.824L562.949,205.32L563.023,205.502L563.064,207.187L563.064,207.501L563.097,208.203L563.294,208.625L564.05,209.682L563.878,213.292L563.837,213.606L563.828,213.647L563.566,214.027L563.541,214.118L563.483,214.465L563.722,215.795L563.771,216.108L563.911,217L564.724,217.611L564.855,217.785L565.365,218.289L565.159,218.776L565.069,218.834L565.053,218.858L564.962,219.106L564.067,220.419L564.05,221.385L564.527,222.161L564.436,222.252L563.492,223.681L563.796,224.762L563.492,225.811L563.738,226.595L563.401,227.255L563.598,230.268L563.861,230.846L563.919,230.896L564.231,231.35L564.165,231.581L564.346,232.992L563.779,234.329L563.368,234.544L562.908,235.732L563.245,236.714L563.426,236.879L563.787,238.15L563.796,238.282L564.313,238.323L564.354,238.422L564.272,238.967L564.338,239.115L564.404,239.891L564.362,239.941L563.508,240.427L563.796,241.153L562.719,241.665L562.522,241.706L562.448,241.995L562.325,242.152L561.881,243.084L561.816,242.985L561.027,243.29L560.148,243.068L558.242,244.685L558.119,244.693L557.346,244.594L555.777,245.328L554.643,245.468L554.537,245.543L553.51,245.642L553.197,246.796L552.507,247.275L552.327,247.374L552.146,247.613L550.33,248.001L551.02,248.991L551.185,249.139L551.447,250.137L551.25,250.904L551.817,251.811L551.283,252.875L551.234,253.114L551.538,254.252L551.464,255.366L551.489,255.629L550.807,257.551L551.817,258.375L552.179,258.54L552.918,259.249L553.559,260.725L553.469,261.129L553.444,261.607L553.452,262.324L553.46,263.198L553.345,263.924L553.337,264.006L554.085,264.517L554.118,264.715L554.118,265.053L554.208,265.35L554.101,265.655L554.142,265.778L554.914,267.048L554.947,267.188L556.13,268.935L556.27,268.976L557.568,268.449L557.716,268.531L557.749,268.548L557.93,268.49L558.562,268.045L559.031,268.441L559.515,269.85L559.359,270.864L559.959,272.322L559.45,271.886L557.412,273.344L556.278,274.77L556.41,274.976L556.525,275.272L556.648,275.635L556.755,275.742L557.445,276.475L558.045,278.206L558.028,279.137L558.094,279.227L559.704,281.089L560.049,281.921L559.745,283.247L558.423,282.638L557.149,283.223L556.993,283.272L556.024,283.148L554.816,283.766L553.625,284.022L552.491,285.051L552.828,286.344L552.31,286.287L552.261,286.262L551.981,285.957L551.875,285.875L550.881,285.249L550.741,285.249L550.437,285.117L550.273,285.068L549.525,285.035L549.468,284.994L548.58,284.705L548.523,284.631L548.441,284.565L548.268,284.491L548.211,284.351L547.274,283.107L547.241,282.901L547.11,282.399L547.775,281.031L547.488,280.652L547.414,280.603L547.101,280.603L547.069,280.685L547.044,281.015L546.255,281.229L546.025,281.196L545.302,281.114L544.53,283.684L544.398,283.931L544.99,284.664L544.965,285.891L545.023,286.048L545.212,286.254L545.549,286.295L545.902,286.69L546.641,286.509L546.822,286.501L546.954,286.575L546.995,286.666L547.405,287.497L547.537,287.629L547.8,288.576L548.309,288.922L548.638,290.396L548.868,290.594L548.933,290.701L548.868,291.862L548.736,291.986L548.802,292.158L549.722,293.995L550.322,294.579L550.421,294.818L550.445,294.851L550.511,294.859L551.899,294.604L552.754,294.876L552.918,294.991L553.657,295.452L553.764,295.304L554.257,295.32L554.356,295.403L555.58,295.337L556.056,295.995L557.083,295.839L557.19,295.748L557.617,295.683L557.856,295.641L558.439,295.814L559.219,295.378L559.819,296.177L559.942,296.498L559.942,296.662L559.992,296.893L560.205,297.428L560.131,297.626L560.214,298.251L560.14,298.449L560.986,299.066L561.109,299.149L561.643,299.511L561.775,299.494L561.972,299.478L562.251,299.873L560.871,300.803L561.265,301.215L561.586,302.647L561.692,302.688L562.506,303.281L562.826,304.548L562.374,305.001L562.185,305.256L562.202,306.877L561.635,307.141L561.339,307.198L559.737,307.931L559.68,308.104L559.556,308.844L558.373,309.305L558.357,310.177L558.34,310.432L558.324,310.597L558.324,310.827L558.874,311.724L558.883,312.02L558.94,312.243L559.039,312.555L559.031,312.744L558.957,313.016L559.384,313.09L560.928,314.744L561.093,316.216L561.397,316.422L561.635,317.195L561.627,317.278L561.553,317.533L561.536,317.722L561.479,317.886L561.487,318.084L561.586,320.362L561.61,320.593L561.454,321.621L561.503,321.851L561.906,322.821L561.939,322.953L561.528,323.422L561.413,323.677L561.084,324.738L560.978,324.795L560.403,325.503L560.353,325.683L560.025,327.016L559.91,327.073L559.384,328.298L559.261,328.52L558.579,329.959L558.973,330.354L559.252,330.223L559.556,330.157L561.331,330.749L562.3,331.834L562.399,332.031L562.415,332.656L563.434,333.108L564.395,333.051L565.8,333.815L566.326,333.807L566.646,334.711L566.581,335.106L566.696,335.46L568.298,335.451L568.446,335.443L568.659,335.32L568.807,335.213L571.346,335.41L571.625,336.915L571.724,337.161L571.674,337.745L573.301,339.265L573.112,340.876L573.712,341.895L574.271,342.216L575.996,342.142L576.366,342.676L576.538,342.808L580.022,343.999L580.194,344.427L580.071,344.879L580.005,345.807L579.865,345.971L579.931,347.787L579.783,348.034L579.865,349.02L579.915,349.184L580.219,349.915L580.399,350.203L580.687,350.647L580.966,350.877L581.854,351.337L582.264,352.577L582.987,352.922L583.152,352.906L584.154,354.155L584.228,354.516L584.762,355.74L584.803,355.904L585.017,356.635L584.959,356.898L585.699,357.752L585.888,357.843L587.087,359.107L586.611,360.192L587.062,361.021L586.775,362.548L586.643,362.729L586.257,363.747L585.633,364.314L585.271,365.496L585.173,365.578L584.893,365.784L584.713,365.899L584.138,366.063L584.803,367.106L584.343,368.707L584.376,368.871L583.538,369.084L583.332,369.199L583.152,369.265L581.648,369.109L581.451,368.969L581.016,368.822L580.851,368.863L579.75,368.805L579.496,368.83L578.806,368.74L578.206,369.946L577.343,370.513L577.253,370.644L576.604,371.408L576.489,371.58L575.873,372.187L575.684,372.228L575.026,372.089L574.566,373.238L573.219,373.878L573.03,373.878L572.956,373.887L572.874,374.1L572.899,375.241L572.365,375.701L572.167,377.252L572.217,377.416L572.052,378.064L571.896,378.245L570.647,381.125L570.598,381.339L570.401,381.749L570.245,381.675L570.007,381.593L569.875,381.536L569.481,381.437L569.267,381.429L568.692,381.265L568.585,381.24L568.47,381.183L568.421,381.101L567.682,380.452L566.909,380.649L566.77,380.625L566.712,380.6L566.49,380.461L566.425,380.428L566.318,380.403L566.285,380.411L566.137,380.403L565.447,379.763L565.127,379.763L563.796,380.428L563.623,380.485L563.549,380.502L563.385,380.551L562.9,380.502L562.752,380.477L562.67,380.469L562.424,380.469L562.12,380.313L561.898,380.223L561.586,380.124L561.388,380.198L561.216,380.395L559.663,381.183L559.384,381.577L559.302,381.667L558.866,381.421L558.636,381.306L557.659,380.584L557.593,380.625L557.412,380.797L557.281,380.912L556.032,381.536L555.818,381.478L554.134,380.871L553.953,380.805L553.091,380.477L552.918,379.968L552.77,379.829L552.663,379.722L552.581,379.574L552.302,379.312L552.22,379.164L552.138,379.025L552.031,378.918L552.088,378.631L552.055,378.549L551.981,378.483L551.973,378.352L551.866,376.538L551.842,376.456L551.834,374.872L551.842,374.543L551.579,373.854L551.719,373.706L551.99,373.46L552.105,373.345L552.097,372.844L552.129,372.59L552.614,371.153L552.598,370.94L553.058,370.472L553.436,368.822L553.263,368.895L552.302,369.207L550.798,368.559L550.642,368.345L550.544,368.189L550.577,367.951L550.379,367.377L550.256,367.344L550.018,367.295L549.878,367.221L548.999,366.211L548.868,366.227L548.646,366.178L548.482,366.047L547.8,365.455L547.66,365.603L547.446,366.022L546.493,365.882L545.212,366.317L545.195,366.4L544.645,367.713L544.07,368.148L543.076,367.968L542.928,367.927L542.197,367.401L542.024,367.295L541.046,366.465L540.899,366.293L540.833,366.227L540.693,366.26L539.814,366.449L539.617,366.482L538.664,366.556L538.606,365.71L538.467,365.636L538.072,365.661L537.957,365.767L537.029,366.531L536.216,366.556L536.109,366.597L535.903,366.859L535.788,367.056L534.203,367.229L533.965,367.229L533.151,367.032L532.987,366.95L531.237,366.9L531.056,366.777L530.292,366.301L530.152,366.219L529.52,365.784L527.376,365.283L527.17,365.332L526.973,365.012L526.916,364.881L526.25,364.749L526.193,364.864L525.289,365.726L525.059,366.359L524.993,366.613L525.026,366.753L525.018,366.827L524.714,367.336L524.681,367.59L524.221,368.025L523.227,368.124L523.12,368.198L522.372,368.247L522.734,369.249L522.611,370.702L522.454,371.087L521.51,372.327L521.386,372.532L521.329,372.754L521.288,372.902L521.132,373.041L520.77,373.09L520.244,372.811L520.105,372.655L519.061,372.286L518.897,372.508L518.848,372.557L518.741,372.557L518.182,372.598L518.1,372.696L516.293,373.131L516.227,373.066L515.685,372.434L515.496,372.311L513.738,371.046L513.582,370.907L512.333,370.866L511.864,371.974L511.766,371.925L511.675,370.841L510.903,369.511L510.887,369.363L510.533,368.263L510.394,368.083L510.303,367.771L510.279,367.639L509.991,367.36L509.835,367.229L509.383,366.523L509.276,366.276L509.079,365.997L509.235,365.874L509.309,365.776L509.326,365.242L509.252,365.135L509.203,365.004L509.178,364.445L509.843,364.183L509.909,364.068L510.172,362.778L510.131,362.647L509.893,362.36L511.059,360.964L511.117,360.783L511.544,359.641L511.618,359.493L511.708,359.37L511.708,359.107L511.199,358.344L511.1,358.294L510.788,357.604L510.862,357.416L510.747,357.161L510.098,356.676L510.008,356.643L509.876,356.52L509.728,356.463L509.539,356.216L509.523,356.118L509.383,355.797L509.285,355.699L509.194,355.674L509.161,355.617L509.17,355.502L508.406,355.001L508.282,354.96L506.048,353.801L505.826,353.686L505.218,353.366L505.037,353.276L503.731,352.618L503.567,352.569L503.345,352.553L503.049,352.503L502.433,352.364L502.154,352.536L500.995,352.462L500.313,352.109L500.067,351.945L500.001,351.887L499.828,351.739L499.689,351.567L497.512,350.786L497.372,350.786L496.748,350.819L496.468,350.696L496.041,350.515L495.893,350.466L495.367,350.376L495.063,350.293L494.513,349.973L494.373,349.891L493.067,349.275L492.377,348.535L490.611,348.568L490.372,348.535L489.469,348.856L489.469,349.209L489.247,349.924L487.924,350.753L487.784,350.885L487.678,351.041L487.25,351.435L487.176,352.758L486.692,353.596L486.774,355.222L486.059,355.247L484.728,356.159L482.986,358.204L482.871,358.286L482.954,359.855L482.962,360.011L482.937,360.75L482.863,360.947L482.551,361.686L482.477,362.097L482.083,363.279L481.992,363.501L481.935,363.567L481.828,363.649L480.932,364.322L480.85,364.527L480.678,365.119L480.366,365.209L480.283,365.25L480.177,365.34L479.174,367.327L479.125,367.746L478.484,369.503L478.402,369.741L477.441,371.046L477.309,371.128L476.71,371.941L476.652,372.023L476.11,372.639L475.954,372.885L474.261,374.831L473.341,375.602L473.128,375.791L472.618,376.965L472.479,377.194L472.232,377.695L472.117,377.835L471.386,379.041L471.337,379.172L470.778,379.968L470.589,380.272L469.365,382.143L469.242,382.34L468.256,383.177L468.108,383.546L467.771,383.915L467.656,384.014L467.615,384.063L467.492,384.153L466.547,385.171L465.216,384.752L464.986,384.449L464.567,384.03L464.403,383.891L463.491,383.07L463.129,382.611L462.39,381.601L461.675,379.985L461.47,379.755L461.322,379.64L460.993,379.386L460.459,378.967L460.319,378.918L460.221,378.885L460.048,378.787L459.572,378.434L459.366,378.253L458.537,377.564L458.438,377.424L458.348,377.244L458.216,376.973L457.641,376.587L457.493,376.562L455.226,377.096L455.07,377.252L454.651,377.473L454.536,377.638L453.804,378.778L453.607,378.983L453.18,379.476L452.966,379.87L452.268,382.282L452.161,382.725L452.128,383.004L452.096,383.111L452.046,383.398L451.816,384.703L451.742,385.08L451.668,385.236L451.529,385.605L451.537,385.687L451.34,385.975L450.814,386.18L449.68,388.666L449.598,388.912L448.711,389.675L448.596,389.822L448.522,390.241L448.398,390.454L447.922,391.75L447.733,392.094L447.758,392.349L447.766,392.447L447.618,392.693L447.47,392.857L446.566,393.989L446.468,394.071L445.991,394.645L445.876,394.859L445.515,396.327L445.605,396.384L445.326,396.95L445.334,397.057L445.958,398.106L445.843,398.483L445.991,398.541L446.008,399.049L445.958,399.304L444.734,400.648L444.241,400.534L443.748,401.911L443.108,402.797L442.993,402.805L442.738,402.961L442.697,403.092L442.171,403.28L442.081,403.379L441.579,404.059L441.456,404.24L440.865,405.478L440.881,405.666L440.824,405.871L440.75,405.937L440.75,406.642L440.684,406.773L440.552,407.502L440.733,407.732L441.358,408.257L441.547,408.453L442.097,409.593L443.379,410.24L443.625,410.371L443.937,410.519L444.176,410.642L444.323,410.716L444.636,410.749L445.991,410.167L446.246,410.445L446.418,410.56L446.533,410.732L446.665,410.798L446.911,411.158L447.059,411.404L447.15,411.88L447.183,411.978L448.448,412.855L448.587,413.453L448.85,413.707L448.998,413.863L449.278,413.904L449.992,414.043L450.748,415.24L450.855,415.478L452.301,416.207L452.498,416.256L452.662,416.313L452.925,416.412L454.067,418.346L453.78,418.444L452.975,419.091L452.728,419.206L452.654,419.247L452.564,419.37L451.397,420.001L451.233,420.173L451.085,420.279L450.986,420.312L450.173,420.894L449.951,421.058L449.861,421.132L449.885,421.295L449.828,421.861L449.779,421.967L447.84,423.573L447.503,424.253L447.339,424.458L447.281,424.532L447.035,424.663L446.246,425.597L445.926,425.695L445.728,425.818L445.392,425.81L444.471,426.481L444.455,426.547L443.674,428.357L443.494,428.431L442.869,428.824L442.656,428.824L441.736,429.43L441.563,429.471L440.495,430.667L440.281,430.683L440.051,430.651L440.018,430.798L439.961,430.888L439.788,430.995L439.542,431.412L439.493,431.494L439.164,432.387L439.353,433.46L440.429,434.95L440.569,435.089L440.889,435.679L441.021,435.802L441.892,436.35L442.007,436.457L442.319,437.014L442.409,437.186L442.508,437.718L442.631,437.906L442.771,438.479L442.828,438.594L442.787,439.036L442.746,439.429L442.721,440.207L442.705,440.354L442.754,440.723L442.713,440.96L442.647,441.165L442.565,441.296L442.113,441.853L442.483,443.121L442.598,443.277L442.524,443.67L442.459,444.12L442.45,444.398L442.491,444.611L442.582,444.669L442.606,444.693L442.697,444.865L442.647,446.158L443.239,446.625L443.387,446.748L444.208,447.124L444.315,447.247L445.26,448.483L445.326,448.557L445.926,448.851L446.032,449.269L446.501,450.169L446.575,451.061L446.599,451.249L446.862,451.945L446.952,452.051L447.322,452.763L447.339,452.829L447.725,453.172L447.963,453.344L448.661,453.86L448.891,454.081L449.13,454.964L449.179,455.071L449.269,455.136L449.36,455.185L449.31,455.325L449.039,455.725L448.982,455.93L448.111,457.19L447.971,457.403L447.708,457.746L447.602,457.877L447.109,458.516L446.944,458.63L446.788,458.712L446.665,458.826L446.418,458.925L446.139,458.925L445.696,459.047L445.392,459.178L445.285,460.855L445.203,461.068L445.227,461.51L445.194,461.641L445.203,462.5L445.161,462.606L445.161,462.696L445.178,462.876L445.178,463.506L445.096,463.686L445.424,464.43L445.507,464.545L445.926,466.581L445.958,466.81L445.4,467.882L445.161,468.233L444.899,468.601L444.899,468.773L444.825,468.929L444.323,470.074L444.176,470.204L443.839,470.548L443.773,470.703L443.305,471.218L443.19,471.415L443.19,471.595L443.001,472.167L443.034,472.453L442.721,473.909L442.541,474.179L442.459,474.407L442.401,474.546L442.237,474.824L442.13,475.004L441.489,476.01L441.768,476.574L441.736,476.713L441.054,477.604L440.815,477.833L440.29,478.438L439.936,478.152L439.731,477.948L439.164,477.899L439.016,477.882L438.145,477.212L437.381,476.084L437.274,475.732L437.102,475.626L436.823,475.511L436.478,475.421L436.346,475.405L435.574,475.38L435.418,475.454L435.319,475.503L435.064,475.585L434.144,475.994L434.087,476.108L434.046,476.362L434.037,476.762L433.964,477.138L433.791,477.523L433.684,477.678L433.06,478.471L432.945,478.561L432.197,478.798L432.107,478.831L431.671,479.125L431.425,480.711L431.359,480.874L430.776,482.06L430.653,482.166L430.168,483.662L429.675,483.931L429.568,483.972L430.004,484.455L430.135,484.479L431.745,485.027L431.827,484.978L432.361,484.847L432.477,485.002L432.748,485.296L432.789,485.378L432.772,486.007L432.764,486.195L433.553,487.037L433.331,488.051L433.191,488.296L433.117,488.451L432.928,488.565L432.846,488.631L432.698,488.941L432.624,489.048L432.575,489.105L432.55,489.268L431.622,490.412L431.137,490.625L430.965,490.772L430.546,491.654L430.472,492.063L430.184,492.684L430.053,492.766L429.798,493.035L429.691,493.15L429.535,493.207L429.009,493.975L428.886,494.057L428.747,494.294L428.566,494.424L428.237,494.816L428.089,495.029L428.311,495.544L429.108,495.617L429.264,495.691L429.815,495.985L429.913,496.017L430.176,496.548L430.127,496.998L430.209,497.635L430.201,497.798L429.535,499.318L429.437,499.579L429.461,499.979L429.453,500.077L428.796,500.78L428.418,501.76L428.426,501.834L428.508,501.989L428.566,502.152L429.617,502.054L429.749,501.981L430.702,502.128L430.916,502.332L431.22,502.601L431.31,502.699L431.441,502.748L431.597,502.871L431.786,503.116L431.901,503.189L432.082,503.418L432.205,503.508L432.312,503.533L432.485,503.704L433.232,504.039L434.777,504.096L435.04,504.161L435.073,504.243L434.941,504.464L434.884,504.635L434.662,504.962L434.547,505.068L434.005,505.746L433.931,505.868L433.799,506.048L433.405,506.718L433.438,507.101L433.512,507.763L433.479,507.877L433.208,508.825L433.052,509.086L432.969,509.355L432.945,509.535L432.92,509.625L432.912,510.09L432.896,510.262L432.813,510.556L432.871,510.752L432.896,510.923L433.273,511.16L433.495,511.209L433.898,512.295L433.865,512.417L433.898,512.564L433.175,514.254L433.019,515.201L432.271,515.528L432.09,515.536L430.751,515.12L430.538,515.283L429.798,515.413L429.708,515.438L428.697,515.658L428.623,515.797L428.073,516.287L427.958,516.401L427.292,517.005L426.175,517.316L426.085,517.299L426.044,517.226L425.953,517.16L425.888,517.128L425.797,517.071L425.674,517.022L425.501,517.022L425.304,517.03L425.165,516.981L424.811,516.809L424.688,516.752L424.154,516.32L424.064,516.287L423.85,516.328L423.768,516.369L423.316,517.054L423.382,517.952L423.078,519.748L423.71,520.785L423.809,521.005L423.875,521.168L423.932,521.421L424.228,522.752L424.236,522.964L424.269,523.021L424.285,523.184L423.957,523.69L423.875,523.829L423.349,524.906L423.489,525.175L423.661,525.404L425.699,525.853L427.925,527.044L428.221,527.077L428.41,527.501L428.393,527.599L428.352,528.505L428.278,528.644L428.303,529.264L428.237,529.492L427.991,529.892L427.868,529.925L427.695,530.006L427.506,530.055L427.046,530.716L427.194,532.16L427.555,532.315L427.868,532.437L428.385,532.805L428.607,532.87L429.847,532.96L429.921,533.074L430.225,533.416L430.324,533.547L430.759,534.289L430.883,534.395L431.129,534.877L431.269,534.95L431.745,535.252L431.893,535.366L431.967,535.505L432.016,535.57L431.836,536.19L431.869,536.37L431.556,537.862L431.507,537.928L430.653,538.645L430.612,538.866L430.414,539.379L430.299,539.608L430.176,539.804L430.053,540.538L429.905,540.733L429.839,540.97L429.757,541.214L429.732,541.28L429.691,541.524L429.609,541.891L429.535,542.234L429.494,542.576L429.272,542.854L429.083,543.033L429.042,543.196L428.985,543.319L428.977,543.49L429.059,544.199L429.001,544.313L428.886,544.534L428.747,544.607L428.664,544.664L428.615,544.746L427.473,545.3L427.334,545.414L425.723,545.944L425.616,545.822L425.222,545.594L425.082,545.504L424.589,545.145L424.376,545.056L422.757,545.643L422.527,545.798L421.221,546.76L421.106,546.849L419.865,547.534L419.438,548.456L418.682,548.986L418.617,549.092L418.42,549.32L418.304,549.41L417.171,549.516L417.105,549.565L417.047,549.744L416.998,549.964L416.563,550.233L416.505,550.307L416.366,550.951L416.489,551.089L416.653,551.195L416.752,551.22L417.089,551.692L417.121,551.904L416.941,553.975L416.998,554.081L416.949,554.22L416.325,554.211L416.062,554.22L415.914,554.277L415.273,554.595L415.092,554.611L414.788,554.717L414.55,554.855L413.293,554.546L412.792,553.714L412.669,553.494L411.469,552.769L411.198,552.54L410.96,552.475L410.606,552.141L410.113,551.733L409.317,551.847L409.103,551.823L407.862,551.823L407.698,551.823L406.581,552.883L406.449,552.891L406.186,552.972L406.219,553.225L406.195,553.535L406.129,554.154L406.03,554.342L404.831,555.63L404.51,555.728L404.239,555.76L403.155,555.703L402.966,555.687L401.668,556.184L401.413,556.567L401.865,558.246L401.906,558.564L401.413,558.768L401.232,558.809L401.06,558.89L400.945,558.939L400.173,559.55L399.827,559.803L398.809,560.3L398.636,560.341L398.472,560.455L398.406,560.561L398.464,561.522L398.464,561.718L398.529,562.183L398.513,562.329L398.85,563.266L397.864,564.798L397.823,565.361L396.664,566.664L396.5,566.754L396.27,566.599L395.925,566.477L395.851,566.403L395.062,566.053L394.931,566.053L392.902,565.727L392.746,565.841L391.899,566.183L391.094,566.037L390.585,566.444L389.418,566.558L388.235,567.78L387.915,568.041L387.767,568.171L387.512,568.383L386.896,569.516L386.666,569.573L385.738,569.499L385.532,569.442L385.269,569.312L384.801,569.255L384.653,569.263L384.538,569.304L384.456,569.451L384.16,570.387L384.021,570.485L383.84,570.583L383.7,570.746L383.503,571.096L383.314,571.552L383.24,571.666L382.657,572.725L381.967,572.098L380.332,572.742L380.11,572.685L379.716,572.636L379.453,572.595L378.779,572.595L378.245,573.182L377.99,573.32L377.67,573.687L377.571,573.727L377.506,574.224L376.306,574.941L375.797,574.786L375.435,574.949L375.378,574.965L375.197,574.974L373.365,574.925L372.79,575.397L372.708,575.78L372.593,576.301L372.576,576.472L371.985,577.27L371.985,577.653L371.96,578.077L371.935,578.337L371.672,579.249L371.689,579.461L371.672,579.575L371.656,579.868L370.719,580.699L370.489,580.943L370.391,581.106L370.325,581.359L370.087,581.709L369.98,581.896L368.444,582.23L367.343,581.921L366.924,581.945L365.519,581.432L365.396,581.416L365.272,581.375L364.993,581.212L364.706,581.22L364.295,580.935L364.18,580.829L363.843,580.723L363.342,581.945L363.03,581.921L362.849,581.937L362.29,582.442L362.183,582.539L361.23,583.077L360.918,583.248L360.417,583.932L360.787,585.064L360.811,585.178L360.318,586.138L360.466,586.35L360.647,586.936L360.696,587.066L360.951,587.506L360.951,587.596L360.852,588.084L360.787,588.345L360.581,588.776L360.499,588.866L359.949,589.932L359.842,590.828L359.858,590.974L358.872,592.415L357.788,593.392L357.098,593.188L356.843,592.96L356.309,592.594L356.161,592.569L356.104,592.569L355.972,592.61L355.824,592.228L354.198,591.967L352.817,592.48L352.177,592.464L352.111,592.496L351.864,592.643L351.717,592.667L351.618,592.602L351.495,592.545L350.961,592.667L350.87,592.716L350.09,593.839L349.917,593.929L349.597,594.043L349.539,594.165L349.252,594.1L348.997,594.157L348.94,594.319L348.332,594.45L348.677,595.467L345.67,594.344L344.117,594.49L342.967,594.987L342.86,594.995L342.425,595.459L342.277,595.475L341.151,596.216L340.387,596.33L338.711,597.681L337.684,597.868L336.049,597.827L335.959,597.925L335.392,597.966L335.318,597.852L334.225,597.575L333.067,598.617L332.927,598.389L332.862,598.324L332.582,598.397L332.41,598.405L331.695,598.429L331.572,597.746L330.561,597.575L330.496,597.551L330.183,597.347L330.011,597.184L329.641,596.191L329.731,596.012L330.093,595.532L330.2,595.418L330.471,594.328L330.134,593.53L329.255,593.44L327.99,592.569L327.924,592.366L327.02,592.846L326.034,592.976L325.919,592.928L325.435,592.854L325.336,593.066L325.246,593.196L324.572,592.871L324.506,592.903L324.12,593.253L323.989,593.359L323.003,593.05L322.962,593.001L322.937,592.83L322.896,592.659L322.099,592.431L321.959,592.472L321.54,592.154L320.3,592.342L320.037,592.407L319.922,592.716L318.665,592.366L318.542,592.464L318.073,592.35L317.654,591.235L318.106,590.412L318.123,590.16L318.073,589.834L317.999,589.623L317.498,589.672L317.408,589.932L316.849,590.005L316.726,589.899L316.578,589.826L316.512,589.826L316.266,589.843L315.51,590.144L315.255,590.16L315.001,589.965L314.976,589.859L314.417,589.444L314.27,589.297L314.196,589.199L314.171,589.061L314.105,588.996L313.859,588.825L313.793,588.8L313.694,588.719L312.676,588.89L312.421,589.061L311.977,589.322L311.903,589.313L311.328,588.931L311.041,588.874L310.901,588.841L310.712,588.752L309.981,588.76L309.866,588.768L309.718,588.849L309.496,589.118L309.324,589.378L309.003,589.558L308.757,589.558L308.445,589.492L308.248,589.378L307.935,588.939L307.861,588.825L307.755,588.784L307.467,588.198L307.311,588.1L306.736,589.159L306.695,589.281L305.167,589.411L304.698,590.103L303.269,590.64L303.08,590.616L302.833,590.575L302.529,590.494L302.299,590.502L301.938,590.697L300.582,590.396L299.95,590.86L299.892,591.153L299.81,591.796L299.744,591.869L299.876,593.782L299.777,593.88L298.561,594.832L297.551,595.019L297.543,596.338L297.485,596.59L297.197,596.623L296.787,596.549L296.548,596.517L293.919,595.605L293.673,595.654L293.057,595.736L292.975,595.744L290.978,596.2L290.699,596.305L289.861,596.143L289.729,596.11L289.483,596.175L288.21,596.981L287.93,597.135L287.651,597.298L287.109,597.306L286.928,597.371L286.78,597.461L286.607,597.494L286.484,597.575L286.55,597.64L286.632,597.713L284.496,599.129L284.307,599.227L283.379,599.731L283.14,599.74L282.327,599.593L282.237,599.593L280.856,599.894L280.692,600L279.92,599.91L279.838,599.821L279.747,599.52L279.756,599.259L279.526,598.438L279.624,598.242L279.517,597.477L279.493,597.347L279.887,596.541L279.903,596.436L279.632,595.687L279.591,595.508L279.871,594.197L279.846,593.978L280.06,593.213L279.181,592.862L279.123,592.268L279.024,592.122L278.992,592.016L278.877,591.935L278.425,591.707L278.458,591.528L278.449,591.243L278.4,590.966L277.357,590.494L277.135,589.973L277.02,589.891L276.913,589.81L276.897,589.672L276.395,588.841L276.371,588.744L275.352,587.791L275.196,587.693L275.097,587.653L274.153,587.172L274.062,587.14L273.914,587.115L273.709,587.018L273.405,586.578L273.183,586.488L272.83,585.935L272.567,585.609L272.427,585.275L272.386,585.121L272.189,583.696L272.099,583.435L272.016,583.264L271.86,582.947L271.803,582.898L271.614,582.898L271.729,581.497L271.869,581.285L272.189,580.137L272.715,580.064L272.912,580.08L273.438,579.746L274.547,578.378L274.169,576.961L274.259,576.301L274.046,576.089L274.013,576.049L273.996,575.853L274.095,575.308L274.366,575.259L275.508,574.412L276.182,574.355L276.847,573.198L277.948,572.587L277.431,571.504L277.34,571.398L276.905,570.347L276.395,570.355L276.289,570.387L276.034,570.387L275.623,570.575L275.442,570.485L275.377,570.265L274.843,569.524L274.695,569.296L274.144,568.554L274.514,568.204L274.917,566.175L274.826,565.841L274.185,564.13L275.13,564L275.878,563.397L276.026,563.437L276.445,563.6L276.363,562.712L277.422,562.663L277.012,562.199L278.252,561.148L279.008,561.645L279.148,561.531L279.517,561.156L279.821,561.001L281.054,561.042L281.284,560.952L281.218,560.471L281.218,560.219L282.401,559.428L282.508,558.809L283.321,558.051L283.182,557.227L284.808,557.097L284.89,556.918L286.156,556.787L286.246,556.681L286.41,556.681L286.575,556.665L286.69,556.461L286.402,555.54L286.722,555.043L286.575,554.701L285.802,553.331L286.197,552.442L285.687,551.497L285.843,551.008L285.671,550.062L286.361,549.442L285.95,548.692L286.361,548.219L286.213,547.469L285.162,545.814L285.112,544.387L285.162,544.207L285.285,541.794L285.301,541.484L284.512,541.06L284.463,540.856L283.929,540.089L282.886,539.494L281.785,537.976L281.432,537.976L280.815,537.642L279.698,537.781L279.616,537.569L279.172,534.632L280.322,534.901L280.544,535.048L283.214,536.745L283.412,536.704L284.332,536.19L284.915,536.59L285.285,536.598L287.068,536.622L290.6,537.34L293.147,535.635L294.174,535.219L294.593,534.991L294.897,533.71L293.887,532.437L294.166,531.328L294.166,531.197L292.991,531.148L292.736,531.14L291.496,530.814L290.929,529.688L291.118,529.149L290.452,528.081L290.305,527.811L289.828,526.914L290.321,525.804L290.091,525.535L289.91,524.963L289.795,524.743L288.136,522.964L287.873,522.36L287.56,522.205L287.38,522.115L287.068,522.025L286.862,521.96L286.607,521.87L286.271,521.895L284.48,520.173L284.291,519.952L283.872,519.446L284.406,518.711L284.849,518.295L285.86,517.683L286.566,516.842L286.796,516.622L286.887,516.556L287.634,515.83L287.889,515.765L288.464,515.495L288.546,515.185L289.195,514.238L290.165,513.675L290.526,512.662L291.405,512.458L291.545,512.646L291.8,512.948L293.32,512.744L293.385,512.523L294.084,511.935L294.149,511.315L294.034,511.005L294.248,510.596L293.509,509.641L293.541,509.445L293.755,508.506L293.55,507.616L292.86,507.24L292.457,505.991L292.539,504.676L292.145,504.202L292.276,503.108L292.153,502.43L292.276,501.899L293.147,501.76L292.975,501.286L293.336,499.906L294.043,498.975L292.605,498.248L292.457,497.325L291.586,496.14L291.8,495.65L290.962,495.225L290.822,495.241L290.682,494.694L290.617,494.539L290.674,494.212L289.853,493.525L289.573,493.141L289.319,492.872L288.316,492.161L287.938,491.597L287.832,491.442L287.602,491.295L286.271,492.177L285.843,491.703L285.523,491.393L284.899,490.968L284.389,491.18L283.116,490.739L282.574,489.93L282.532,489.865L281.111,489.505L281.013,489.53L279.928,488.255L279.723,488.083L279.509,487.585L278.72,487.43L279.016,486.171L278.614,485.705L278.49,485.664L278.334,485.566L278.186,485.452L277.932,484.732L278.359,482.607L278.367,482.55L277.644,481.479L277.488,481.512L276.913,481.111L276.839,480.883L276.404,480.776L276.346,480.686L276.231,479.763L276.979,479.133L277.562,477.841L277.274,477.13L277.891,475.863L277.817,475.528L278.063,475.004L277.94,474.824L277.11,474.318L276.839,474.424L273.503,474.146L272.641,473.68L271.441,473.835L269.174,474.743L269.157,474.416L268.993,474.064L267.605,473.557L267.334,473.017L267.851,472.461L267.703,471.881L266.717,471.276L266.709,471.055L264.54,469.648L264.507,468.83L262.881,467.072L262.963,466.679L262.987,466.532L263.242,465.076L263.439,464.913L263.62,463.89L263.678,463.735L263.793,463.645L263.973,463.604L264.688,463.35L264.885,463.375L265.222,463.367L265.386,461.747L265.485,461.559L265.493,461.395L265.518,461.232L266.553,460.34L266.208,458.957L266.233,458.679L266.841,457.91L267.005,457.926L267.153,458L267.769,457.378L269.33,457.206L270.078,455.987L270.061,455.84L269.642,455.406L269.691,454.572L270.455,453.933L270.603,453.786L271.146,453.516L271.244,453.295L271.252,453.058L268.738,449.776L268.591,448.262L266.849,446.944L266.742,446.797L265.699,446.404L264.483,444.554L263.119,444.505L262.494,444.071L262.412,443.719L261.722,442.868L261.254,442.966L260.35,442.172L259.759,442.065L259.085,441.263L258.88,441.304L258.485,440.878L258.691,439.331L258.592,439.069L258.88,438.356L258.526,437.636L257.039,436.915L257.08,436.539L256.785,435.744L255.487,435.261L255.495,433.771L255.955,431.756L255.314,429.078L254.402,428.693L253.926,428.521L253.474,427.276L253.392,427.145L253.063,426.948L252.521,426.522L252.11,426.113L251.527,425.261L251.329,424.859L250.385,423.712L250.113,422.86L250.549,422.197L250.664,421.975L250.122,421.033L249.998,420.157L249.916,420.001L249.9,418.755L248.585,417.166L248.306,417.182L248.134,417.223L246.745,416.567L246.696,416.453L246.03,417.158L245.981,417.797L244.872,418.1L243.352,418.002L243.048,417.592L242.802,417.371L242.678,416.477L241.684,414.945L241.816,414.338L241.84,413.929L240.115,413.92L239.712,413.716L239.548,413.527L238.998,412.625L237.815,413.15L236.903,412.273L236.566,412.158L235.292,412.035L235.071,412.019L234.98,412.019L234.594,412.109L233.304,412.535L233,412.494L231.661,412.199L230.774,411.601L230.412,410.912L230.971,410.535L231.283,410.265L231.965,409.306L231.538,407.822L231.817,407.511L231.119,405.994L231.144,405.297L230.248,404.887L229.024,404.928L227.734,404.1L227.496,404.199L225.713,404.379L224.563,405.018L223.947,404.863L223.651,404.986L222.813,405.232L222.262,405.838L220.529,404.092L219.839,404.026L218.302,404.748L218.105,404.871L216.955,405.207L215.756,404.715L215.517,403.412L214.934,402.92L214.901,401.583L214.523,401.37L214.293,401.271L214.022,401.107L213.792,401.066L212.913,400.476L213.266,399.861L212.929,399.197L213.948,397.393L213.825,397.007L213.537,396.072L214.343,395.014L214.343,393.694L214.614,392.619L214.597,392.406L214.819,391.25L215.854,390.101L216.355,390.126L216.553,390.15L217.538,390.462L217.727,390.528L219.099,390.684L220.028,390.479L221.079,390.692L221.334,390.585L221.663,390.282L221.991,390.003L222.484,389.453L223.158,387.574L223.634,387.033L223.618,386.245L224.193,384.728L223.897,383.768L224.053,382.635L224.16,382.217L224.021,381.076L224.357,380.313L224.086,379.459L223.749,379.254L223.347,378.787L224.193,378.311L224.341,378.155L225.705,376.718L225.803,376.406L226.814,375.66L227.118,375.381L227.192,375.257L227.175,374.962L227.693,374.363L228.909,373.911L230.289,373.788L232.195,373.296L234.8,371.999L236.591,371.432L237.905,370.422L239.211,370.841L242.005,370.094L242.719,370.234L243.04,371.843L243.919,372.204L245.381,374.034L246.959,374.625L248.29,375.372L249.169,375.315L250.007,374.289L251.346,374.264L252.734,373.961L253.088,373.23L253.737,373.058L254.451,371.711L254.23,370.004L255.117,368.969L254.994,368.534L254.796,367.541L254.887,367.237L255.051,366.629L256.407,365.414L257.22,363.616L258.633,362.475L259.726,359.6L260.169,358.853L262.067,358.45L264.187,358.927L265.715,358.015L265.649,357.202L266.471,354.918L266.75,354.623L266.972,354.13L267.909,351.649L270.028,350.129L270.283,349.603L270.176,349.258L270.94,348.239L271.121,346.325L270.62,345.692L270.727,344.805L272.501,343.49L275.689,342.446L277.513,340.613L279.263,340.679L279.813,339.717L280.117,339.339L281.711,337.958L281.99,337.679L283.116,337.063L284.315,334.843L284.414,333.922L284.619,333.635L284.586,332.919L285.096,332.155L285.227,331.933L285.745,329.861L285.227,326.933L285.162,325.207L286.073,323.858L287.158,323.101L287.059,322.443L287.528,320.938L289.269,319.754L289.319,319.556L289.483,319.071L289.598,318.882L289.549,318.553L289.113,318.117L289.031,318.001L288.867,317.681L288.571,317.097L288.768,315.18L289.376,314.217L288.859,313.732L287.856,313.707L286.451,314.267L284.841,314.39L284.02,312.95L283.896,312.827L283.461,312.753L282.927,312.522L281.07,311.255L280.216,311.272L280.076,311.436L279.493,310.811L278.367,310.218L278.145,309.379L277.283,308.219L277.192,307.56L276.395,307.346L275.59,306.548L275.566,306.309L275.566,305.807L274.506,305.371L272.682,303.248L272.501,302.359L272.994,301.009L274.383,300.441L274.415,300.186L274.613,298.72L274.859,298.185L274.941,297.864L274.991,297.272L275.229,296.506L274.087,295.205L273.906,294.752L273.709,293.32L274.637,292.867L275.032,291.911L276.954,291.121L277.209,290.874L277.217,288.856L279.797,286.987L281.226,286.773L282.845,285.768L283.264,285.587L283.601,284.73L283.576,283.709L284.381,282.885L283.954,281.493L283.346,280.817L283.683,279.351L283.338,278.222L284.406,276.879L284.2,276.344L282.984,276.434L282.27,276.138L280.668,275.256L280.043,274.572L280.01,274.44L279.821,273.138L279.361,272.636L278.646,270.295L279.345,269.018L278.893,268.037L278.556,267.6L278.852,267.122L280.134,267.312L280.462,267.262L281.193,267.031L281.596,266.199L281.226,264.938L281.366,264.798L282.483,264.855L282.951,264.344L282.984,263.429L283.946,261.813L284.258,261.789L284.488,261.541L284.512,260.379L284.512,260.115L284.718,259.629L286.681,258.021L287.273,257.617L287.281,257.402L287.602,256.883L287.536,256.297L289.023,254.887L289.582,252.471L290.181,252.479L291.167,251.902L291.594,251.176L291.693,251.044L292.654,250.038L292.934,248.702L293.081,248.652L293.303,248.017L296.433,245.708L296.631,245.6L296.844,245.361L297.058,245.213L298.298,244.553L298.315,244.404L298.348,242.663L298.159,242.292L298.422,241.252L298.512,241.153L298.923,240.551L299.038,240.469L299.72,239.38L298.619,237.985L298.865,235.938L298.873,235.765L299.292,235.303L299.112,234.024L299.555,233.751L299.087,231.919L297.953,230.987L297.978,230.359L297.953,229.897L297.871,229.146L297.83,228.948L297.846,227.652L297.699,227.214L295.472,227.066L295.135,226.983L293.18,224.564L293.04,223.829L292.03,222.665L292.038,222.483L291.488,221.129L291.085,220.593L290.296,219.428L289.113,218.966L288.037,219.032L287.265,218.66L287.092,218.553L286.451,218.148L286.205,218.033L285.999,218.024L285.868,217.983L284.858,217.801L284.282,218.313L284.118,218.338L283.272,217.834L283.009,217.768L282.853,217.603L282.27,217.281L282.261,217.157L282.007,215.861L282.376,213.837L282.13,213.424L282.335,211.417L283.625,211.483L284.052,210.203L284.808,209.914L285.671,208.476L287.1,207.229L287.133,206.435L286.69,205.204L286.805,204.147L287.117,203.932L287.61,203.825L287.651,203.75L287.569,203.552L287.61,203.411L288.119,202.18L287.856,201.66L289.393,201.726L289.738,201.949L290.378,201.907L290.576,201.767L291.562,200.478L291.668,200.321L293.205,200.263L294.56,199.676L294.585,199.461L295.349,198.726L295.735,197.569L295.71,197.313L295.538,196.899L295.867,195.965L295.949,194.511L296.524,192.709L296.893,192.304L297.666,190.138L298.775,190.038L299.383,188.898L300.254,188.757L300.18,186.69L300.689,184.97L300.221,183.936L300.122,183.755L299.49,182.216L299.416,182.084L299.317,180.91L299.292,180.513L299.44,179.057L300.936,177.444L301.848,177.171L303.211,177.411L303.524,176.675L303.532,176.344L303.425,175.897L303.441,175.591L303.433,175.004L303.425,174.69L303.45,173.399L303.425,173.225L303.869,172.059L305.331,171.596L305.931,170.983L305.972,170.777L307.048,170.735L307.179,170.793L309.521,170.653L310.055,171.091L310.112,171.232L310.342,171.621L310.499,171.67L311.665,170.272L311.813,170.181L312.7,169.66L312.856,169.544L313.563,169.312L313.588,169.287L313.555,169.172L313.185,168.203L313.144,168.063L312.865,167.045L313.087,166.441L313.119,166.375L313.284,166.242L313.3,166.168L313.366,166.069L313.473,165.878L313.678,165.481L313.826,165.208L314.056,164.869L314.138,164.629L314.204,164.48L314.302,164.331L314.82,163.793L314.648,163.263L313.621,163.23L313.391,163.122L313.087,163.164L312.906,163.18L311.328,162.767L310.688,162.965L310.482,162.957L309.94,162.899L309.751,162.99L309.669,163.023L308.782,163.255L308.576,163.122L308.067,162.733L308.272,161.426L308.338,161.219L308.182,160.623L308.182,160.573L308.313,160.441L308.338,160.317L308.412,160.226L308.56,160.11L308.847,159.29L308.88,159.042L308.897,158.885L308.954,158.794L309.012,158.645L309.365,157.536L309.118,156.567L309.094,156.352L308.897,154.737L309.677,153.868L309.808,153.645L310.17,153.131L310.195,152.991L311.148,152.361L311.337,152.361L311.411,152.361L311.567,152.32L313.998,150.929L314.845,150.225L315.058,150.151L315.65,149.778L316.858,148.138L316.931,148.097L318.18,147.401L318.238,147.335L318.78,146.623L319.519,146.664L320.259,146.209L321.902,146.35L322.329,146.151L322.6,146.209L324.802,146.573L325.665,145.952L325.656,145L326.191,144.312L325.681,142.283L324.695,140.577L324.506,140.287L323.767,138.042L323.849,136.476L324.202,135.3L324.252,134.977L324.49,134.173L324.556,134.123L325.131,133.759L325.722,133.427L325.977,131.646L326.043,131.43L326.043,130.693L326.593,129.292L327.061,126.392L327.029,124.85L326.462,123.889L326.404,123.607L326.281,123.201L327.135,122.927L327.834,122.024L328.474,120.167L328.039,119.761L328.261,118.981L327.686,117.837L327.661,117.713L327.678,116.983L327.793,116.851L327.99,115.69L327.94,113.907L327.85,113.89L326.486,113.401L326.322,112.083L327.119,111.204L326.766,109.777L325.755,109.172L325.385,107.754L325.615,107.024L325.525,106.816L325.837,105.348L325.689,104.676L325.763,104.452L326.01,104.029L325.969,102.495L325.903,102.279L325.591,100.429L326.248,100.18L326.807,99.11L326.494,98.844L326.445,98.678L326.757,97.948L326.897,97.89L326.905,97.84L326.922,97.724L326.881,97.525L326.938,97.351L327.357,97.135L327.809,95.799L326.757,95.06L326.872,94.239L326.01,92.554L325.878,92.471L327.76,89.4L328.006,88.056L328.663,87.425L328.705,87.367L328.82,87.251L329.288,86.935L329.403,86.761L329.707,86.387L329.855,86.213L329.978,85.989L330.988,85.607L331.26,85.549L332.204,84.943L332.344,85.009L332.977,85.142L333.223,85.167L333.576,85.175L333.7,85.142L333.815,85.175L333.905,85.126L335.869,83.606L336.082,83.498L336.345,83.125L336.748,81.049L336.772,80.725L337.117,80.559L338.309,80.152L340.149,79.065L340.453,78.89L341.669,78.168L342.252,77.819L342.959,77.404L343.427,77.13L343.912,76.441L343.977,76.383L344.084,76.216L344.084,76.109L344.125,75.959L344.651,75.452L344.626,74.273L344.988,74.082L345.308,73.966L346.787,73.6L347.157,72.845L346.968,70.843L346.853,70.544L346.812,70.361L346.804,70.245L347.798,69.007L347.904,68.866L348.102,68.592L349.055,67.379L349.12,67.304L349.227,67.097L349.646,66.781L349.794,66.673L350.172,66.44L350.221,66.366L350.213,66.008L350.238,65.801L350.492,64.887L350.558,64.812L351.897,63.84L352.119,63.773L353.056,62.61L353.097,62.486L353.664,61.729L353.401,61.09L353.475,59.76L353.598,59.66L353.746,59.253L353.787,59.153L354.206,58.489L354.37,58.422L355.233,57.408L355.348,57.184L355.972,56.162L356.605,55.713L356.605,55.597L358.108,55.09L358.256,54.948L358.823,54.366L358.527,53.735L358.503,53.452L359.193,52.056L359.111,51.981L358.388,51.682L358.306,51.632L357.895,51.374L357.845,51.266L357.739,51.216L357.624,51.133L356.662,50.535L356.638,50.401L356.638,49.853L356.564,49.529L356.301,49.022L356.128,48.722L356.252,47.691L356.194,47.55L355.052,46.394L355.931,44.316L356.128,44.274L356.745,44.041L357.492,42.969L357.295,42.145L357.106,42.096L356.794,41.954L356.515,41.522L355.923,41.214L355.627,41.123L355.069,40.765L355.019,40.649L355.463,40.017L355.389,38.919L356.079,38.187L356.375,38.029L356.621,37.929L356.81,37.929L357.114,37.987L357.706,38.17L358.347,37.946L359.39,38.985L360.696,39.243L361.008,39.434L363.153,39.892L365.24,39.351L365.782,38.47L367.589,37.563L367.712,37.555L369.257,37.239L370.276,36.615L371.755,37.039L373.554,38.47L374.523,38.761L377.998,39.027L378.623,40.05L379.132,41.53L380.093,42.096L380.365,42.262L381.49,42.478L382.509,41.68L382.895,40.965L382.969,40.707L383.462,39.609L385.22,40.441L385.746,40.141L386.033,40.233L386.781,40.366L387.003,40.299L389.279,39.651L390.084,40.516L391.324,40.848L391.866,41.289L392.039,41.43L392.261,41.53L395.177,41.913L395.21,42.046L395.662,42.636L395.67,44.158L395.588,44.291L395.399,44.848L395.933,45.688L395.999,45.713L396.204,45.738L396.36,45.821L396.443,45.887L396.582,45.979L397.708,46.261L397.839,46.187L398.004,46.045L398.094,45.929L398.308,45.754L398.562,45.663L398.924,45.688L399.096,45.738L399.606,45.987L399.729,46.045L399.786,46.145L399.91,46.494L400.205,48.323L399.926,50.352L399.712,50.543L399.507,50.709L398.497,51.939L397.839,53.46L397.7,53.544L397.289,54.325L397.231,54.441L397.092,55.114L397.051,55.264L396.155,56.178L395.9,56.286L395.202,56.411L395.276,56.552L395.301,56.61L395.334,56.752L395.621,57.333L395.695,58.929L396.459,59.494L396.812,60.94L396.738,61.007L396.558,61.439L396.689,61.58L396.845,62.27L396.689,62.328L395.769,63.325L395.268,63.458L392.91,66.631L392.672,66.872L392.425,67.52L393.419,67.977L393.666,68.459L394.068,68.625L394.43,68.509L395.514,69.447L395.588,69.58L395.687,69.771L396.098,70.029L396.336,70.021L396.845,69.838L397.001,69.83L397.502,70.162L397.642,70.345L398.283,70.785L399.146,70.594L399.77,71.217L399.573,71.84L400.427,72.712L400.452,73.335L402.514,73.7L402.802,73.592L403.286,73.094L403.401,73.019L404.132,73.119L405.225,73.783L405.324,76.266L405.833,76.225L406.186,76.092L407.065,75.469L407.296,75.336L409.078,74.813L409.284,74.979L409.629,74.921L409.801,74.788L410.368,74.14L410.335,74.024L411.305,73.019L411.412,72.778L411.058,71.748L410.943,71.707L410.951,71.1L410.919,71.009L410.951,70.378L411.707,69.265L411.74,69.157L411.872,68.999L413.055,66.357L413.137,66.266L414.016,65.543L414.271,64.912L415.832,64.023L415.906,63.94L416.201,62.967L416.891,62.818L417.779,61.871L417.836,61.854L418.099,61.945L418.559,62.004L419.644,61.779L419.923,61.281L420.194,61.123L420.276,61.056L420.383,60.923L421.122,60.084L421.246,59.893L421.517,59.802L421.722,59.752L421.829,59.669L422.84,60.2L423.751,60.034L424.663,60.367L424.877,60.275L425.017,60.2L425.165,60.142L426.307,59.511L427.309,60.117L427.465,60.092L428.319,60.35L428.459,60.541L428.944,60.658L429.182,60.483L430.455,59.926L431.261,60.89L433.068,61.38L433.364,61.422L434.456,61.58L434.678,61.596L435.705,61.38L436.067,61.389L436.461,61.073L436.617,60.898L437.521,60.682L437.718,60.649L438.145,60.417L438.244,60.242L438.556,59.129L439.657,59.27L440.265,58.804L441.53,58.904L441.998,58.472L442.311,58.422L442.631,58.43L443.255,58.514L445.318,57.367L445.942,56.71L446.115,55.43L446.994,54.333L447.224,53.951L448.07,52.729L447.864,53.677L448.711,54.15L448.974,54.3L449.204,54.258L449.343,54.341L451.422,54.74L451.586,54.865L451.865,54.857L452.12,54.99L454.108,55.131L454.306,55.048L455.628,55.09L457.469,54.657L458.578,53.236L458.594,53.17L459.588,53.627L459.711,54.267L459.728,54.558L459.769,55.098L459.826,55.256L461.075,55.821L461.231,55.788L461.88,55.962L462.16,56.112L463.376,57.915L463.367,58.356L463.367,58.563L463.285,59.087L463.252,59.261L463.228,59.735L463.203,59.91L463.17,60.018L463.121,60.134L463.072,61.231L463.08,61.63L464.164,62.66L464.337,62.668L464.838,62.22L465.084,62.22L465.676,62.012L465.98,61.804L467.623,61.123L468.108,60.051L468.116,58.946L468.223,58.763L468.379,58.829L468.527,59.045L468.658,59.195L468.757,59.054L468.74,58.372L468.888,58.331L469.8,57.94L469.85,57.816L469.858,57.508L469.718,56.652L469.628,56.461L469.324,55.962L469.159,55.862L468.946,55.813L468.864,55.754L468.765,55.256L468.831,55.173L468.864,55.04L468.42,54.499L468.223,54.242L467.853,53.369L467.927,53.136L468.658,52.288L468.929,52.205L469.069,51.632L469.053,51.208L469.02,50.426L469.159,50.119L469.948,49.013L470.236,48.706L470.531,48.182L470.712,47.583L470.063,47.359L469.381,46.486L469.373,45.322L469.233,45.097L468.921,44.74L468.576,44.524L468.749,43.434L468.823,43.285L468.905,43.118L469.513,42.229L469.726,40.15L469.776,39.958L470.827,38.744L470.942,38.561L473.267,36.465L474.951,35.742L475.255,35.043L475.453,34.885L475.831,34.935L475.962,35.018L476.907,34.577L477.86,34.652L478.714,34.286L480.826,34.951L481.475,35.875L482.304,36.307L482.617,35.925L482.921,35.442L483.019,35.193L483.718,33.82L483.833,33.587L484.63,33.496L485.229,32.888L485.32,32.722L485.878,32.314L486.043,32.165L486.141,31.99L486.199,31.549L486.248,31.017L486.675,29.96L487.949,28.537L487.669,27.78L488.031,26.474L487.719,25.625L488.91,24.286L488.688,23.42L489.23,22.047L489.888,21.531L489.97,21.331L490.019,21.281L490.118,21.198L490.923,19.733L490.964,19.608L490.98,19.459L490.997,19.259L492.032,18.718L492.081,18.593L492.525,18.01L492.623,17.919L492.106,17.361L492.015,17.195L491.785,16.462L491.925,16.42L492.878,15.796L493.149,15.688L494.858,13.906L494.759,12.974L495.885,12L495.696,11.7L495.704,11.625L497.446,10.793L499.221,10.709L499.451,10.543L500.256,10.526L500.478,9.411L501.899,9.136L501.989,9.103L503.246,8.37L504.799,7.978L505.637,8.07L507.789,6.729L508.652,5.747L509.852,5.389L510.262,5.264L510.813,5.114L510.944,4.939L511.339,4.664L511.569,4.548L511.758,4.306L511.823,3.99L511.906,3.606L512.333,3.548L512.546,3.565L512.801,3.623L512.859,3.64L513.006,3.723L513.557,3.965L513.762,3.998L515.323,4.173L515.57,4.156L516.712,3.948L516.794,3.906L518.19,3.307L518.429,3.148L518.774,2.982L518.913,2.94L519.012,3.007L519.661,3.423L519.858,3.398L521.181,3.465L521.296,3.49L522.076,2.574L522.167,2.449L522.857,1.749L523.021,1.474L524.525,1.699L524.747,1.491L524.968,1.449L525.108,1.491L525.19,1.491L525.297,1.441L527.302,0.733L527.458,0.267L529.043,0.866L529.98,0L530.719,0.475L530.785,0.616L531.204,1.591L531.262,1.757L532.157,2.424L532.42,2.607L532.601,2.707L532.79,2.832L533.184,2.998L533.381,3.132L534.408,3.165L534.638,2.815L536.84,2.982L536.98,2.824L537.095,2.765L537.284,2.582L537.686,2.257L538.475,2.565L539.51,2.415L540.726,3.215L541.268,3.14L541.408,3.432L542.197,4.739L542.23,6.005L542.435,6.546L542.566,8.295L543.166,8.578L543.413,9.727L543.437,9.968L543.708,10.809L543.733,10.968L544.916,12.208L545.171,12.341L545.549,12.849L545.746,13.066L546.198,13.607L546.329,13.79L546.37,13.815L546.617,13.881L546.732,15.297L546.765,15.488L546.896,16.47L546.847,16.72L546.847,17.378L547.019,17.478L546.83,18.193L546.888,18.377L546.485,19.167L546.822,19.966L546.814,20.249L546.674,20.873L546.707,20.965L546.855,21.206L546.912,21.389L546.699,22.43L546.691,22.746L546.321,23.295L546.691,25.309L546.633,25.65L546.641,26.1L546.584,26.699L546.576,27.215L546.526,27.406L546.493,29.577L546.214,31.732L546.173,32.414L545.738,33.804L546.461,33.745L546.559,33.77L547.192,34.577L547.381,34.644L547.594,34.66L548.03,34.752L548.063,35.525L547.57,37.056L547.414,38.586L547.594,38.511L547.849,38.503L548.966,40.407L549.164,40.748L550.256,40.956L551.028,40.682L551.908,40.565L553.649,40.358L554.29,40.798L554.816,41.139L555.802,41.838L555.301,42.628L554.947,44.183L554.939,44.74L554.964,44.898L554.964,45.072L555.095,46.103L555.218,46.187L555.366,46.336L555.498,46.478L556.048,47.001L556.073,47.076L556.599,48.448L556.706,48.589L556.829,48.847L556.968,48.997L557.683,48.764L559.688,48.772L559.614,48.947L559.573,49.371L559.523,49.512L559.466,49.653L559.532,49.869L559.655,49.82L560.969,50.135L561.306,51.241L561.421,51.249L561.586,51.291L562.07,51.515L562.448,51.557L563.73,51.648L564.165,52.687L564.297,52.704L564.436,52.704L564.486,52.804L565.431,53.336L565.422,53.76L566.614,53.776L566.737,53.776L567.205,54.042L567.369,54.1L567.567,54.159L567.641,54.233L568.117,54.109L568.175,54.184L568.848,54.134L569.004,54.15L570.483,54.017L571.058,54.441L571.132,54.508L571.379,54.541L571.444,54.583L571.6,54.574L572.332,55.281L572.414,55.339L572.874,55.555L573.022,55.497L573.26,55.48L573.26,55.572L573.745,57.034L574.254,57.342L574.484,57.55L574.903,58.131L574.788,59.336L574.788,59.461L574.114,60.923L574.09,60.998L574.213,61.347L574.402,62.053L574.443,62.294L574.156,64.521L574.164,64.978L574.156,65.252L574.106,65.452L572.644,67.08L572.43,67.271L571.584,68.368L571.535,68.592L571.436,68.966L571.321,69.231L572.159,69.755L572.8,69.929L573.35,70.594L573.441,70.768L573.498,71.15L573.72,71.341L574.484,72.105L574.624,72.18L575.585,73.26L575.528,73.866L575.437,74.041L575.018,74.879L574.92,74.921L574.755,74.996L573.827,76.765L573.646,77.761L573.72,78.068L573.753,78.126L573.876,78.301L573.663,78.666L573.474,78.757L573.178,79.438L572.923,79.696L572.734,79.895L572.586,80.152L570.352,81.207L570.072,81.265L569.547,81.622L569.333,81.614L568.495,83.249L568.626,84.636L568.618,84.843L569.021,85.516L569.267,85.806L569.612,86.122L569.892,86.171L571.904,87.442L572.085,87.45L573.326,87.508L573.523,87.533L573.58,87.624L573.63,87.857L574.46,89.932L574.361,90.621L574.336,90.795L574.386,91.401L574.345,91.55L574.616,94.131L574.731,94.206L575.306,94.687L575.339,94.795L575.363,94.969L575.38,95.16L575.569,95.766L575.643,95.94L575.626,96.554L575.33,96.637L573.778,96.977L573.433,97.143L572.833,97.293L572.619,97.268L571.346,98.413L570.163,99.06L568.314,99.076L567.641,99.79L567.065,99.574L566.918,99.516L565.644,99.84L565.389,99.831L564.708,100.28L564.551,100.238L564.461,100.221L564.321,100.255L563.188,100.321L562.152,101.217L561.446,101.35L561.339,101.458L560.608,101.599L560.403,101.69L559.729,102.387L558.57,102.636L558.398,102.76L558.201,102.818L558.135,102.752L557.626,102.37L556.722,102.387L556.558,102.403L555.892,102.835L555.851,102.909L555.572,103.681L555.514,103.822L554.824,104.502L554.799,104.585L554.75,105.556L554.66,105.647L553.657,106.352L553.584,106.526L553.477,106.684L553.115,107.165L552.023,106.841L551.875,106.8L551.76,106.708L551.595,106.526L550.798,105.066L550.7,105.083L549.878,104.527L549.673,104.436L548.958,104.527L548.81,104.66L548.35,105.672L548.49,105.788L547.816,106.601L547.644,106.634L546.502,108.334L545.82,108.84L544.883,108.085L544.776,107.994L544.193,107.555L544.021,107.447L543.79,107.198L543.7,107.14L543.109,107.115L542.985,107.181L542.657,107.438L542.435,107.414L541.416,107.314L541.268,107.331L540.677,107.372L540.43,107.389L539.28,107.098L539.165,107.098L539.05,107.123L538.836,107.132L538.352,107.438L538.22,107.513L536.544,107.895L536.437,107.944L536.06,108.102L535.961,107.978L535.419,108.019L535.337,108.002L534.186,109.006L534.047,109.105L534.006,109.164L533.907,109.396L533.537,110.034L533.57,110.134L532.436,110.283L531.985,110.026L531.672,110.225L530.21,111.03L530.095,111.079L529.922,111.096L529.733,111.121L528.961,111.859L528.715,111.975L528.493,112.074L528.238,112.166L527.827,112.613L527.975,112.58L528.23,112.605L528.271,112.63L528.978,112.754L529.019,113.849L528.863,114.015L528.698,114.529L528.69,114.645L529.052,115.317L529.043,115.491L528.624,117.116L529.692,118.152L529.832,118.318L530.629,119.52L532.174,120.067L532.321,120.134L532.872,120.399L532.289,122.123L532.141,122.422L531.516,123.11L531.533,123.226L531.582,123.938L531.516,124.096L530.432,125.347L530.374,125.464L529.627,125.53L529.421,125.629L529.257,125.729L529.068,125.762L528.854,125.803L528.468,125.895L528.353,125.928L528.271,125.944L527.992,126.002L527.408,126.367L527.187,126.582L526.85,126.848L526.718,126.748L526.48,126.607L525.905,126.325L524.886,126.814L524.664,127.361L524.475,127.453L524.081,127.602L523.983,127.635L523.186,127.759L521.165,128.663L520.162,128.306L519.957,127.726L519.645,127.577L518.708,127.378L518.568,127.486L517.509,127.511L517.205,127.676L516.671,127.726L516.317,128.547L515.545,129.118L514.945,130.08L514.091,130.038L512.957,130.759L512.678,131.497L512.785,132.715L513.36,133.518L512.908,134.538L512.883,134.645L512.209,135.979L512.193,136.145L511.889,137.636L510.649,138.721L508.586,138.846L508.332,138.73L508.225,138.92L508.085,139.367L507.633,140.403L508.282,142.316L508.052,142.366L506.763,142.126L505.892,142.49L505.793,142.482L505.538,142.631L505.095,142.855L504.331,144.163L504.487,146.275L504.257,146.913L504.002,147.708L503.887,148.031L503.723,148.337L503.213,148.851L502.975,149.082L502.712,150.921L503.501,151.21L504.544,152.063L504.93,152.883L504.955,154.075L504.257,155.292L504.963,156.666L504.24,158.223L503.295,159.199L502.022,160.954L500.609,161.517L500.354,162.187Z"
          fill="#e0e0e0"
          stroke="#333333"
          stroke-width="1"
          stroke-linejoin="round"/>
  </g>
</svg>