<?xml version="1.0" encoding="UTF-8"?>
<svg xmlns="http://www.w3.org/2000/svg"
     viewBox="128.4338749793169 -20 543.1322500413662 640"
     width="543.1322500413662"
     height="640">
  <title>岐阜県</title>
  <desc>都道府県コード: 21</desc>
  <g id="21">
    <path d="M335.857,301.234L336.061,300.056L337.128,297.847L338.229,297.032L338.082,295.967L338.184,295.774L338.695,293.724L339.228,292.987L338.695,288.319L339.546,286.857L339.728,284.217L340.443,282.098L340.386,281.497L345.744,281.678L346.095,281.27L348.944,280.511L349.796,279.276L350.182,279.004L350.431,278.618L350.704,278.222L351.124,277.621L351.135,277.451L351.589,274.266L351.51,273.778L351.476,273.654L351.033,273.041L350.761,271.296L350.397,270.615L349.171,269.391L349.296,267.407L348.593,267.067L348.184,265.854L347.151,265.185L346.708,264.164L347.253,263.824L348.127,262.021L348.025,260.218L348.445,259.152L347.912,257.564L346.731,255.41L345.494,254.559L345.585,253.096L345.539,252.869L345.131,252.052L345.062,251.78L343.961,250.181L341.896,250.079L340.182,247.889L339.398,247.504L339.569,246.721L337.526,246.086L337.015,246.505L335.641,246.29L335.074,245.938L334.2,245.053L333.859,243.351L334.96,240.708L336.005,239.028L336.288,238.711L337.367,237.326L337.287,235.681L337.333,235.216L337.083,235.034L336.788,234.807L335.766,233.922L334.234,233.933L332.781,233.105L331.351,232.787L329.569,233.218L328.683,233.037L328.513,232.787L324.359,230.744L322.531,230.404L321.442,228.951L321.419,228.293L321.135,226.965L321.215,226.76L321.669,225.625L322.758,225.126L322.372,223.015L322.645,220.154L322.497,218.201L321.782,215.067L320.715,214.863L320.409,214.715L319.898,214.602L319.455,214.568L317.242,213.83L315.823,213.716L312.985,212.569L313.576,211.831L313.95,210.082L313.825,208.72L313.837,208.186L313.769,206.505L314.847,205.063L315.04,204.858L314.563,203.109L314.495,202.802L315.778,201.258L315.267,199.349L315.278,198.793L315.346,198.316L316.266,196.134L315.982,195.044L316.152,193.226L316.3,192.817L315.902,191.635L316.322,191.022L316.186,189.181L315.199,188.647L317.685,186.602L317.855,185.011L318.627,184.874L319.523,183.579L322.486,182.545L323.428,181.329L323.757,181.26L324.779,180.419L326.697,180.147L326.969,179.237L326.606,177.089L325.596,176.066L325.482,174.929L325.199,174.532L324.189,173.918L323.371,171.928L323.133,171.758L323.053,171.735L323.156,171.599L323.235,171.44L323.178,170.871L323.019,170.519L323.814,167.915L323.825,167.767L323.723,167.438L323.61,166.528L323.746,166.289L325.324,164.174L326.833,163.037L327.003,162.969L327.06,162.912L327.128,162.719L328.366,160.138L328.888,157.977L328.74,157.761L329.035,155.02L329.626,154.076L329.66,153.951L330.59,153.257L330.681,153.052L330.806,152.87L330.931,152.722L331.907,152.267L331.952,152.142L331.873,152.006L331.737,151.653L331.589,151.539L331.487,151.312L331.51,151.198L331.748,150.948L331.941,150.845L331.975,150.8L332.009,150.641L332.452,148.684L332.395,148.491L332.736,146.728L332.611,146.466L330.931,145.658L330.919,145.351L330.863,145.158L330.874,144.919L330.863,144.179L330.806,143.997L330.988,143.758L331.147,143.542L330.749,142.791L330.556,142.723L330.409,142.689L330.216,142.609L330.125,142.507L330.102,142.382L329.989,141.494L329.796,141.062L329.637,140.845L329.523,140.743L330.08,139.651L330.034,139.537L328.127,138.82L327.946,138.57L327.333,137.978L327.355,137.83L327.548,137.159L327.798,136.965L329.126,136.669L329.296,136.601L330.681,136.214L330.874,136.078L331.464,135.475L333.235,135.349L333.485,135.338L334.801,135.577L336.935,133.654L338.74,133.085L338.99,132.777L339.796,130.74L339.83,129.727L339.773,129.5L339.728,128.191L339.762,127.986L339.898,127.656L339.909,127.474L340.761,125.778L341.339,125.425L341.793,125.231L342.747,123.524L343.019,123.444L343.212,122.898L343.485,122.499L343.598,122.306L343.666,121.987L345.619,120.302L345.823,120.211L346.583,119.767L347.526,120.165L348.036,118.97L346.913,117.296L347.435,115.395L349.376,113.869L349.398,113.687L351.339,112.263L351.566,109.565L352.111,108.767L352.247,108.71L354.563,105.954L354.268,105.476L355.131,104.553L355.165,104.303L355.21,104.234L355.346,103.984L355.619,103.756L355.812,103.54L355.982,102.64L356.334,102.173L357.049,99.587L357.151,99.428L357.219,99.348L357.832,99.029L358.683,98.972L358.695,98.869L358.184,96.739L356.3,96.078L356.209,95.896L355.891,94.028L356.05,93.595L355.562,93.23L355.153,93.333L354.972,93.128L354.756,92.843L353.36,92.558L352.86,92.136L352.077,90.564L351.986,90.404L348.967,90.404L348.672,90.279L346.481,90.484L346.164,90.496L345.085,90.177L345.028,88.399L343.939,87.202L343.496,86.94L341.93,85.687L341.884,85.322L341.793,85.06L341.759,84.775L341.998,82.359L341.339,81.47L341.237,81.265L339.955,79.259L339.66,79.145L338.104,78.347L338.048,78.096L336.958,75.406L336.947,75.292L338.751,73.286L339.24,72.91L341.385,72.112L342.974,73.126L343.11,73.708L344.892,73.446L345.108,73.605L347.457,73.742L348.297,73.434L348.593,73.525L349.478,73.765L349.807,72.773L351.589,71.85L350.874,71.428L350.999,70.39L351.964,67.779L353.564,64.724L353.768,64.302L354.302,62.181L355.233,60.276L355.301,59.991L354.098,57.516L353.405,55.007L353.439,53.684L353.337,53.513L354.268,52.897L354.972,52.395L355.868,51.745L356.935,51.916L357.446,52.703L357.548,52.715L358.797,53.422L359.966,53.182L360.045,52.966L359.932,52.452L361.544,52.521L362.168,52.452L363.576,52.395L363.916,51.631L363.212,50.023L363.201,49.897L364.109,48.631L364.926,45.95L364.631,45.254L365.755,44.296L366.527,44.661L366.459,46.178L366.356,46.372L366.583,47.273L367.56,47.387L367.526,49.201L367.571,49.452L366.618,50.741L366.402,50.844L365.573,50.741L365.199,51.928L365.301,52.578L367.446,52.201L367.741,53.684L366.89,55.292L367.673,55.087L367.968,54.848L368.388,54.585L368.672,54.631L369.841,55.908L370.159,55.783L370.863,54.916L373.927,53.011L375.233,51.197L375.187,50.844L377.457,49.68L378.036,48.368L379.047,47.33L381.09,48.813L385.596,50.479L387.015,51.699L387.253,51.939L387.582,52.27L387.787,52.464L388.286,53.034L390.806,52.612L392.792,53.981L393.144,54.072L394.188,55.566L394.427,55.84L394.472,56.068L394.642,56.387L394.983,57.14L396.379,57.083L396.844,58.064L396.969,58.281L397.594,60.698L398.672,62.249L398.774,62.477L398.49,63.925L398.661,64.165L400.102,66.537L400.738,66.81L402.27,67.836L402.667,69.968L403.099,70.447L401.498,72.591L400.942,75.19L401.18,76.409L400.261,77.116L399.83,78.894L399.671,79.168L398.331,81.071L398.831,81.869L397.787,82.861L397.412,84.946L398.388,85.368L400.363,85.071L400.533,85.026L400.965,86.04L402.145,85.037L402.667,85.938L402.77,85.983L403.791,86.564L405.471,85.163L405.596,84.376L407.946,82.895L407.798,81.197L408.127,81.242L409.262,80.775L409.376,80.752L411.51,80.524L412.35,81.06L412.565,80.969L413.927,80.786L414.007,80.501L414.188,80.444L414.438,80.49L415.732,79.624L415.766,78.495L417.514,77.88L416.822,77.196L416.924,76.261L416.89,76.09L416.833,75.988L416.879,75.76L418.082,74.38L418.229,72.967L418.933,72.659L420.636,70.778L419.591,69.889L419.591,67.734L419.966,67.734L420.057,67.608L420.148,66.628L421.805,67.38L423.689,66.822L426.515,67.038L428.263,65.237L428.377,65.066L429.41,63.766L431.351,62.5L431.975,61.554L431.669,60.881L432.111,57.425L432.395,57.414L433.201,56.901L433.961,56.193L434.336,55.657L430.749,54.426L431.203,52.509L432.872,51.152L433.541,49.452L433.666,49.121L434.438,47.593L434.506,47.353L435.199,45.608L435.471,45.208L435.539,44.592L434.461,44.296L434.211,43.976L434.086,42.641L435.085,41.215L435.505,41.055L436.935,40.804L438.513,39.663L439.546,38.237L439.807,37.792L439.875,37.746L440.397,37.712L440.465,37.643L440.579,37.301L441.044,36.936L441.646,36.685L444.302,37.004L444.461,37.118L445.505,37.415L447.548,36.833L447.821,34.551L447.525,32.816L446.47,31.127L446.686,30.921L447.616,30.02L447.764,29.894L450.125,29.917L450.942,27.828L451.067,27.452L452.804,26.173L452.565,25.443L452.418,25.18L452.372,25.077L452.406,24.963L452.633,24.723L453.621,22.566L455.312,22.246L455.675,21.196L456.606,21.527L456.833,21.949L456.901,22.006L456.992,21.995L457.639,21.504L458.275,19.517L459.523,18.615L460.409,16.024L460.545,15.829L461.203,14.094L461.203,13.877L462.1,13.591L463.065,12.347L463.326,12.312L465.323,12.004L464.858,10.006L465.936,8.635L466.254,8.715L466.742,8.601L467.049,8.384L468.729,7.904L468.842,7.619L468.956,7.482L469.364,7.287L470.636,5.414L471.237,3.918L472.656,4.798L473.473,4.649L473.621,4.466L473.757,4.386L475.46,4.695L476.81,6.819L477.174,6.374L477.457,5.688L478.093,5.483L478.365,5.54L479.489,5.723L482.917,4.763L483.734,5.803L483.734,6.065L483.734,7.002L483.496,7.367L484.052,8.372L485.323,8.658L485.516,9.515L485.596,9.857L487.003,11.901L487.412,12.358L487.752,14.379L487.707,14.745L487.787,15.567L487.855,16.046L488.252,16.994L488.411,16.903L489.387,15.213L489.625,15.464L490.556,15.829L491.169,15.27L490.999,14.848L490.772,12.37L491.918,11.787L492.179,12.05L493.144,11.662L494.075,9.732L496.969,9.446L497.435,9.446L498.331,8.464L498.581,8.304L499.33,6.933L500.624,5.574L500.919,4.432L501.475,3.358L503.371,1.405L504.801,2.833L505.051,4.078L505.789,4.603L506.572,6.328L506.901,5.951L507.242,5.62L508.933,4.364L509.342,3.016L511.861,1.485L512.622,1.337L514.858,0L516.084,0.308L516.561,1.005L516.822,1.188L518.922,2.319L519.966,2.25L521.975,3.107L522.906,1.599L523.78,1.508L524.937,0.537L527.401,1.771L528.649,1.851L528.513,3.358L529.024,6.305L527.389,7.322L527.31,8.795L527.015,8.966L527.321,10.04L527.559,10.554L525.732,11.399L524.393,13.42L524.983,14.927L525.721,15.133L526.073,16.754L527.571,18.227L529.659,18.444L531.498,16.64L532.656,16.537L533.348,15.841L533.814,15.567L535.221,15.59L536.436,14.254L538.785,14.573L539.466,13.9L540.84,14.585L541.26,13.797L543.723,13.066L544.154,12.267L544.086,10.691L543.621,9.926L544.71,8.19L544.994,6.819L546.844,6.442L548.365,5.312L550.023,5.414L550.181,5.517L551.033,5.609L551.646,4.603L554.052,4.181L554.654,3.735L555.04,3.198L555.267,2.867L555.391,2.33L557.196,4.306L557.287,4.889L557.446,5.905L557.65,6.488L557.673,6.716L557.435,7.253L557.139,7.664L557.23,10.565L557.208,10.725L557.321,13.02L559.988,15.955L560.306,16.366L560.443,17.177L561.691,17.862L562.179,17.988L562.622,18.341L565.46,17.953L566.64,19.221L568.592,19.403L568.978,20.305L570.692,19.86L572.236,20.294L572.52,20.819L572.985,21.538L573.621,22.223L573.768,22.406L575.63,23.673L575.698,23.673L577.117,21.915L578.172,22.2L580.102,23.707L581.305,24.004L584.041,21.892L585.879,19.004L585.993,18.673L586.118,18.045L589.194,18.764L589.886,18.775L592.792,18.695L593.711,18.17L594.506,17.702L597.173,17.873L597.889,18.456L599.092,18.41L600.113,19.472L600.147,20.145L600.238,21.789L600.272,22.12L601.101,23.171L601.089,24.358L602.032,25.42L602.44,25.933L603.03,26.801L604.427,27.132L604.892,27.942L606.595,28.068L607.593,30.054L608.785,30.693L610.238,32.873L610.329,33.056L610.579,33.444L612.713,34.014L613.053,33.98L616.822,34.984L617.321,35.235L620.669,34.345L621.691,34.505L622.497,32.942L623.916,32.736L625.255,33.615L627.548,34.186L627.264,36.959L627.605,37.529L627.094,40.325L627.446,42.116L627.457,42.288L628.263,42.732L628.479,42.961L628.842,43.052L630.011,43.748L630.238,43.714L631.033,43.006L632.429,43.257L632.61,43.314L632.894,43.326L633.235,43.486L634.12,44.045L634.358,44.193L635.425,44.706L636.912,44.615L638.547,45.254L639.637,46.863L640.193,47.604L640.953,49.475L640.942,49.726L642.338,51.334L642.531,52.35L645.232,55.692L645.698,55.806L648.774,56.011L648.978,56.615L648.955,58.406L649.012,58.68L649.126,59.717L649.16,60.356L649.126,61.223L650.692,62.511L651.339,65.043L650.726,65.419L650.976,67.186L650.397,67.825L650.386,68.064L650.045,70.892L651.566,72.819L650.624,74.323L650.465,74.437L649.898,75.269L649.773,75.406L649.409,76.843L649.671,77.355L649.625,79.76L649.602,79.966L647.888,80.877L647.593,81.083L647.298,81.413L647.026,81.561L642.701,84.752L642.395,85.63L642.19,85.698L641.805,87.544L640.476,88.935L640.34,89.117L639.75,90.12L638.388,90.917L637.559,90.906L636.787,94.244L634.733,96.192L634.824,97.001L634.381,97.719L634.37,98.015L633.553,98.573L630.84,100.795L630.556,101.467L630.556,101.831L630.522,103.437L630.204,103.779L629.773,103.813L628.445,106.045L628.399,107.31L627.752,108.016L626.209,107.936L626.016,108.13L626.526,109.872L625.97,111.022L624.96,111.341L624.506,111.409L622.735,111.147L622.327,111.808L622.792,112.411L623.416,113.767L622.452,115.531L623.439,118.765L624.075,119.459L624.336,121.258L624.381,121.44L625.244,122.385L627.457,123.603L628.445,124.013L630.125,123.888L630.408,124.628L628.933,126.483L629.41,128.043L628.944,130.069L629.784,131.002L630.374,132.925L629.262,134.063L629.296,135.475L628.831,136.658L628.252,136.908L626.016,138.297L624.041,138.593L620.476,141.175L620.465,143.963L620.113,144.304L617.457,145.396L616.912,146.716L615.63,147.342L615.902,149.321L616.152,149.947L617.73,151.744L617.4,152.802L617.332,153.621L617.219,154.064L616.878,154.804L616.606,156.828L616.56,157.181L614.642,157.965L613.961,159.831L614.211,161.059L616.731,163.993L618.195,164.595L618.195,165.289L618.229,165.618L619.341,166.721L620.442,167.017L620.567,167.927L621.759,169.53L622.066,170.689L623.621,171.508L624.427,172.372L624.62,172.144L625.8,172.122L628.365,173.872L629.103,174.191L629.705,174.293L629.875,174.463L631.01,176.453L633.235,176.282L635.176,175.509L636.56,175.543L637.276,176.214L636.436,177.544L636.163,180.192L636.572,180.999L636.799,181.442L636.912,181.601L637.514,182.204L637.582,182.658L637.423,182.92L637.196,183.59L637.128,183.863L634.722,185.499L634.075,187.579L634.211,188.488L632.713,189.533L631.453,191.397L631.543,193.783L632.259,197.827L631.543,200.69L631.362,200.996L630.658,202.053L630.703,203.041L630.42,203.438L630.284,204.711L628.626,207.777L627.071,208.629L626.685,209.015L624.483,210.923L624.063,211.445L623.303,212.774L620.885,212.683L618.365,215.215L613.961,216.657L611.509,218.473L611.362,219.7L612.054,220.574L611.805,223.219L610.749,224.626L610.896,225.103L610.545,225.83L607.616,227.93L606.322,231.357L606.016,232.038L605.63,232.447L604.495,235.602L604.585,236.725L602.474,237.985L599.546,237.326L596.924,237.882L596.311,238.915L594.801,242.886L592.849,244.463L591.725,246.948L589.852,248.627L589.625,249.466L589.5,249.886L589.773,251.258L589.943,251.859L588.717,253.289L589.024,255.648L588.036,257.508L587.139,257.746L586.651,258.755L584.733,259.175L582.883,259.209L581.725,260.626L580.511,260.706L578.672,259.674L576.492,258.857L574.472,256.328L573.257,255.829L572.815,253.606L571.827,253.413L567.968,254.445L566.163,253.867L564.347,255.262L561.873,256.045L558.275,257.837L555.641,258.517L553.734,258.687L552.054,259.311L551.339,260.139L551.362,260.547L551.26,260.717L550.84,261.103L549.444,262.134L549.307,262.565L547.423,264.55L547.219,264.765L546.05,265.423L546.606,266.069L547.071,266.352L547.446,267.532L546.981,268.586L547.174,270.162L547.026,270.74L546.81,272.305L547.219,273.631L546.424,275.728L546.447,276.816L545.789,277.564L544.858,280.16L544.177,280.919L543.723,281.304L543.269,281.724L542.917,281.871L541.464,281.576L540.181,281.86L538.286,281.644L538.025,281.554L536.663,281.123L536.39,281.089L535.698,281.055L534.268,282.642L533.961,284.24L533.984,284.534L533.609,286.019L533.609,287.843L532.497,289.305L532.894,290.597L533.065,291.129L531.657,293.622L532.122,294.539L531.634,295.389L532.849,296.205L533.167,296.261L533.541,296.488L533.859,296.624L534.381,296.918L534.427,298.765L535.233,299.445L535.562,301.246L537.219,301.925L538.808,301.461L539.08,301.291L541.203,300.294L542.156,300.385L544.551,302.797L545.312,301.959L546.47,301.619L546.878,301.449L547.73,301.665L549.319,300.781L551.782,300.532L552.111,300.396L553.893,301.54L555.584,301.483L556.822,302.05L556.788,303.013L557.752,305.108L557.366,305.538L557.957,307.588L557.015,308.913L556.583,309.287L555.811,309.808L556.311,310.759L557.537,311.586L559.387,311.993L559.807,312.05L561.589,311.461L562.122,311.337L562.247,311.337L562.554,311.359L564.313,311.529L564.778,311.688L566.038,312.899L567.673,312.175L568.433,313.42L568.66,313.681L569.217,313.964L571.6,313.975L571.566,314.541L571.385,315.379L572.758,317.496L572.928,318.73L573.269,319.036L573.689,319.602L575.789,319.738L577.321,319.319L577.389,318.436L578.309,317.462L578.377,317.621L580.295,318.527L580.533,318.47L580.919,318.447L582.735,320.644L582.758,322.364L582.872,322.579L583.042,323.791L583.791,325.092L583.632,325.398L583.03,326.315L583.405,327.492L584.71,329.077L584.983,329.631L585.789,330.808L586.356,331.374L587.105,331.963L587.559,332.234L587.673,332.415L588.297,334.136L588.956,334.373L590.215,334.905L591.101,338.605L590.465,341.389L590.454,343.448L592.247,344.116L592.656,345.213L592.599,345.733L594.654,346.729L595.142,347.724L594.744,348.709L594.881,349.071L594.597,351.208L595.142,351.797L595.425,351.74L596.356,352.849L597.173,352.996L598.422,354.093L599.069,353.957L600.022,355.133L600.136,355.62L600.999,356.219L602.883,356.287L604.563,358.843L606.004,359.386L606.152,359.589L608.558,361.41L608.763,363.502L612.236,368.036L612.225,368.364L612.088,368.669L611.339,369.042L611.135,369.245L610.079,370.127L610.011,371.28L610.59,371.88L610.613,372.083L609.58,373.767L607.423,374.005L606.572,374.864L606.368,374.762L606.141,374.74L605.301,375.802L605.267,376.186L605.743,378.097L604.313,379.329L604.279,379.555L604.268,379.781L604.131,380.041L603.904,382.278L603.439,382.29L603.167,382.256L602.179,382.606L601.929,382.663L601.77,382.787L601.691,383.002L601.441,384.414L601.169,384.64L600.817,386.652L600.783,386.855L600.669,387.398L602.917,389.827L602.962,390.957L605.959,392.9L605.97,393.205L607.332,394.041L607.537,394.844L606.822,395.612L607.196,396.357L609.114,397.058L609.341,397.544L609.364,397.995L612.497,396.742L614.154,396.527L615.346,397.171L619.954,397.555L620.329,397.408L621.475,398.108L621.646,398.357L621.305,399.08L621.407,399.543L620.556,401.294L620.953,402.277L620.147,404.061L619.114,404.931L619.273,406.207L619.353,406.331L619.954,406.478L620.057,406.794L620.851,407.348L621.067,407.303L622.066,408.782L622.054,408.861L621.464,411.797L621.816,412.791L622.02,412.949L622.236,413.085L622.406,413.141L622.962,413.785L622.554,415.523L623.643,415.738L623.938,416.427L624.222,416.664L625.721,418.425L625.857,418.391L627.82,418.888L627.877,418.978L628.626,420.096L630.386,420.706L631.089,420.412L631.952,420.999L632.395,421.428L632.985,422.083L634.824,420.864L635.142,421.067L635.289,421.281L635.811,422.06L637.196,423.043L637.548,423.415L637.934,423.946L639.069,424.894L638.99,425.345L639.08,425.56L639.273,426.316L639.466,426.294L640.624,426.881L640.329,427.558L641.532,429.194L641.736,430.47L643.723,431.474L642.747,432.761L642.247,434.668L642.486,435.323L641.282,435.514L641.112,436.248L641.282,437.185L641.101,438.697L641.646,439.351L641.532,441.168L642.088,442.894L643.042,443.413L643.325,444.643L643.03,445.94L642.985,446.211L644.007,447.531L643.711,448.095L643.87,448.524L643.78,449.381L642.815,450.193L642.724,450.498L640.624,450.78L640.272,450.362L640.079,450.103L638.865,450.385L638.365,451.784L637.026,452.562L636.129,453.87L636.016,454.299L635.221,454.671L634.869,454.761L633.836,455.765L633.711,455.855L633.394,456.16L632.417,457.321L631.021,458.167L630.408,458.742L629.671,459.757L630.249,460.457L630.511,460.761L632.985,463.14L633.45,463.107L633.802,463.231L634.086,463.321L634.517,463.445L634.767,463.569L635.198,463.783L635.562,464.618L637.854,467.076L638.013,467.38L638.263,468.169L638.581,468.541L637.9,470.075L638.558,471.315L638.763,471.687L639.682,473.164L639.421,473.908L640.204,475.463L641.918,475.914L642.27,475.925L643.893,475.993L643.893,476.173L643.507,477.706L644.903,479.465L644.483,481.234L643.904,481.55L642.486,482.125L638.967,484.48L634.086,483.488L631.623,483.454L631.112,483.443L630.306,482.891L629.035,483.601L628.763,483.657L625.074,481.313L624.767,481.11L623.178,480.738L623.791,484.796L623.904,485.089L625.448,484.897L626.299,485.359L626.787,485.359L628.308,487.455L629.75,488.278L630.488,489.337L630.556,489.619L631.646,490.204L631.623,490.633L631.453,493.968L631.385,494.216L631.453,496.187L632.906,498.474L633.11,499.51L632.542,500.164L633.11,501.2L632.156,502.056L632.395,503.363L632.179,504.039L632.883,505.345L632.338,506.573L633.405,508.465L633.609,508.938L633.167,509.625L633.564,510.897L633.405,511.179L633.178,511.201L632.951,511.201L632.826,511.348L631.078,511.528L630.965,511.776L628.717,511.956L628.91,513.093L627.786,514.141L627.639,514.996L626.004,516.088L626.004,516.438L626.095,517.102L625.777,517.226L624.075,517.169L623.655,517.383L623.144,517.901L622.951,518.059L621.907,517.372L620.193,518.824L620.76,519.466L619.296,519.534L619.41,520.761L618.831,520.536L618.626,520.48L617.593,521.313L616.288,521.493L617.173,523.857L617.298,524.318L616.742,527.121L616.231,527.605L616.992,528.63L617.196,528.945L617.934,529.969L618.025,530.273L618.274,530.397L617.786,533.109L617.491,533.109L617.23,533.03L614.279,532.715L613.099,533.897L611.498,534.325L610.454,534.055L610.193,533.863L607.026,533.548L606.526,532.783L605.335,532.625L604.733,532.614L604.2,532.772L604.075,532.715L603.201,532.918L602.951,532.929L602.474,533.829L603.201,536.429L603.064,537.498L602.872,537.296L601.543,536.8L600.442,538.061L600.783,539.254L600.545,539.49L598.66,540.761L598.354,540.66L597.775,540.694L597.696,541.875L596.492,542.089L595.936,541.909L594.847,541.684L594.608,541.639L594.517,541.65L594.881,543.158L594.517,543.912L592.769,543.743L591.101,544.519L589.977,544.643L588.899,546.027L587.06,546.477L585.811,548.074L585.562,548.502L584.358,550.066L583.235,549.503L582.27,550.549L581.555,552.203L580.215,552.675L578.581,552.248L577.514,554.666L575.811,555.285L574.324,555.375L574.222,555.645L574.143,556.904L573.189,556.916L571.941,559.48L569.886,560.143L567.945,557.905L567.639,556.41L566.583,555.217L565.948,553.17L565.312,552.327L562.486,554.61L561.861,554.644L561.827,554.036L560.579,553.238L560.318,553.125L559.341,551.685L557.208,552.54L554.756,552.417L554.154,551.899L553.746,550.111L552.792,549.143L553.643,548.592L554.245,547.186L553.632,544.103L552.928,543.428L551.021,544.069L550.828,543.991L550.227,543.664L549.239,542.033L548.502,542.112L547.65,543.338L545.528,543.057L543.076,544.126L541.861,544.126L540.976,544.789L540.499,544.767L538.638,544.486L539.08,543.417L539.058,542.888L538.07,542.967L537.752,542.213L537.366,540.919L537.605,540.761L539.012,539.512L539.478,538.488L538.831,537.386L536.345,536.407L536.39,536.733L536.413,537.003L532.701,534.302L531.895,534.37L530.306,532.659L527.911,531.68L525.471,530.239L525.471,529.575L523.269,529.834L521.952,530.656L521.305,530.025L519.852,530.734L516.492,530.746L516.311,531.005L514.62,530.993L513.416,529.868L513.031,531.038L512.191,531.826L510.817,531.511L508.876,532.243L507.911,533.751L507.696,535.146L508.127,535.799L508.218,536.62L506.992,536.857L506.958,537.903L505.618,537.813L504.79,539.209L504.597,539.31L503.155,539.782L502.758,539.794L501.396,541.526L500.794,541.245L500.658,541.189L499.5,541.166L498.558,541.797L498.218,543.023L496.981,543.057L494.949,545.093L493.905,545.386L493.78,543.552L490.091,543.664L489.818,544.238L489.342,544.384L489.035,545.993L488.399,546.601L488.252,546.454L487.264,545.746L486.788,546.893L486.583,546.691L485.619,547.084L485.278,546.724L482.474,546.297L482.202,546.803L482.111,546.859L481.714,546.769L480.102,545.993L480.034,545.487L477.332,543.349L476.913,540.761L477.185,540.356L477.264,540.142L477.457,539.962L477.367,538.938L477.094,538.815L476.424,538.275L476.118,536.744L474.801,536.181L474.881,535.495L473.791,534.516L473.7,534.201L473.314,533.132L470.17,533.953L469.898,534.088L468.626,534.876L467.457,533.852L466.163,534.662L465.448,534.302L464.79,532.828L462.951,530.712L462.304,529.98L460.965,528.461L457.469,527.414L457.333,527.369L456.345,526.547L453.905,526.142L453.553,525.928L449.796,524.893L449.693,525.996L448.57,527.301L449.024,528.956L447.65,529.8L447.174,529.586L446.527,528.855L442.872,529.147L442.588,529.114L442.032,527.313L442.611,526.153L442.145,524.285L442.781,523.316L442.032,522.573L440.261,522.776L439.103,522.315L438.592,521.932L437.219,521.527L437.333,520.243L436.084,517.462L436.288,516.359L438.479,514.399L438.944,514.231L439.535,513.758L439.421,513.577L439.035,511.9L438.49,511.731L437.798,509.625L436.118,509.242L436.163,508.96L435.289,508.082L433.848,508.375L432.633,509.445L431.771,509.501L431.464,509.602L430.976,510.21L430.318,509.659L429.852,508.071L429.784,507.868L429.841,506.325L429.773,506.111L429.693,505.807L429.909,503.881L429.398,502.946L430.193,502.417L431.09,498.913L430.329,496.75L430.193,496.458L429.342,495.41L427.764,495.635L425.289,495.128L424.835,494.689L424.211,494.182L423.11,491.478L422.611,491.928L420.25,491.714L418.785,490.869L418.763,490.666L418.309,489.055L413.644,489.1L413.666,488.266L412.713,487.444L412.565,485.145L411.385,484.119L411.09,483.838L409.75,483.905L408.967,482.44L409.149,481.313L408.229,479.904L406.129,480.096L404.915,479.375L405.04,477.921L407.23,475.463L407.378,474.415L408.15,473.908L407.48,473.028L407.514,472.904L407.9,471.833L408.683,471.608L409.398,470.435L410.341,469.917L407.9,469.759L403.519,471.101L401.407,470.909L399.398,471.89L399.115,472.465L398.649,474.122L398.649,474.381L399.353,477.199L399.081,480.434L397.707,481.989L394.722,483.071L390.863,485.066L389.955,485.551L389.149,486.069L386.947,488.356L385.165,489.742L384.381,490.137L384.132,490.204L381.544,490.745L379.432,490.858L373.939,490.599L373.405,490.644L371.26,490.869L367.56,492.503L365.993,492.909L365.312,492.976L363.496,493.078L362.395,494.655L359.875,496.334L355.971,498.283L352.282,500.524L346.027,499.037L344.529,498.902L341.305,498.666L337.162,497.179L337.492,496.334L337.605,495.973L337.73,494.993L333.462,494.644L330.204,494.452L329.66,494.632L328.105,495.635L326.425,497.562L324.813,499.984L323.269,504.568L321.759,508.555L320.409,511.528L319.103,513.701L318.127,515.424L316.254,519.128L315.8,520.142L313.553,525.748L312.917,526.975L312.077,528.393L310.295,530.644L307.821,532.727L307.004,533.357L305.483,535.45L303.837,538.983L302.917,541.583L301.759,544.126L299.796,546.556L298.309,547.624L295.755,550.223L295.142,551.798L295.108,552.214L295.176,553.643L295.301,554.801L295.812,557.568L295.902,557.995L296.027,558.513L296.481,561.92L296.652,567.902L297.094,568.993L297.049,570.443L295.505,572.579L294.37,573.602L293.666,574.356L293.088,575.39L292.781,578.616L292.724,579.819L292.622,581.774L293.666,588.18L293.916,590.282L293.837,591.607L292.895,594.742L292.69,597.27L293.258,599.528L292.111,600L291.396,596.686L289.523,593.776L288.49,591.63L287.843,590.079L287.355,588.731L286.935,587.675L283.576,585.663L282.985,587.023L283.542,589.944L283.383,590.686L283.485,593.776L282.895,595.225L281.158,593.754L280.034,593.641L279.898,593.641L279.626,593.686L279.512,593.619L279.308,592.956L279.115,592.798L277.798,592.63L275.483,594.327L275.097,594.057L275.029,594.001L273.621,593.046L272.338,592.765L271.51,591.18L271.113,588.338L269.796,586.967L269.773,586.697L268.411,584.348L268.899,582.865L268.593,582.19L268.411,582.022L267.128,579.976L265.573,580.516L265.607,580.392L265.585,579.616L264.098,578.144L263.962,577.728L263.984,576.514L263.996,576.368L263.871,576.334L263.576,576.458L262.35,577.323L262.168,577.323L262.384,576.121L261.067,575.469L260.749,574.356L261.135,573.074L261.237,572.995L260.068,571.646L258.377,571.804L257.775,570.331L257.787,570.23L257.9,569.802L257.912,569.656L255.766,569.173L254.972,568.375L254.87,568.363L253.065,567.79L252.917,567.79L251.941,567.351L252.554,566.407L251.862,564.608L252.055,563.472L251.169,562.854L251.044,561.673L250.965,561.369L249.977,561.212L248.184,561.74L248.139,561.549L247.537,560.942L247.526,560.739L247.526,559.266L247.719,559.098L247.344,557.962L248.071,557.264L248.422,555.881L248.547,555.667L248.264,555.082L247.809,554.812L246.209,554.655L245.097,553.71L244.824,552.529L244.745,552.304L244.643,552.023L244.949,551.55L245.267,550.009L243.439,549.087L243.496,547.658L242.94,546.837L242.94,546.736L242.883,546.657L242.713,546.556L242.565,546.409L242.441,545.937L242.599,544.823L242.372,544.812L240.363,544.576L239.932,544.733L237.48,546.229L236.481,545.959L235.573,546.837L235.562,547.028L235.029,548.153L234.926,548.389L234.87,549.222L234.96,549.492L234.348,550.122L234.291,550.538L234.064,553.002L233.598,553.44L233.281,553.575L232.191,554.722L230.159,554.531L229.047,553.395L227.14,553.688L226.811,553.778L226.107,554.385L225.914,554.138L225.222,553.238L223.644,552.642L223.95,553.71L222.713,555.037L222.361,554.475L222.032,554.261L220.125,553.823L220.023,553.946L218.786,555.442L218.207,554.587L218.014,553.89L217.991,553.834L217.912,553.676L217.378,553.721L217.321,553.766L216.743,554.351L216.663,554.374L216.13,554.138L215.085,555.611L214.858,555.667L213.746,557.264L213.247,556.983L212.055,559.581L211.351,560.357L210.783,560.886L210.363,561.392L209.83,561.549L208.445,562.876L206.913,561.729L206.481,561.515L206.311,561.347L206.141,561.077L205.539,559.694L205.744,557.77L205.63,557.692L204.711,557.231L202.6,559.457L202.52,559.536L201.067,560.458L200.239,560.942L199.421,561.279L199.081,562.438L197.946,562.123L197.832,561.414L197.673,561.178L196.584,559.772L195.312,559.604L195.21,559.536L194.086,558.996L193.871,558.771L192.486,557.68L192.248,557.546L192.032,557.512L191.839,557.411L190.806,557.028L190.806,556.949L191.294,556.657L190.783,555.24L188.32,554.655L187.968,553.339L187.889,553.148L185.483,551.247L185.301,551.134L185.744,550.099L185.732,549.953L186.618,548.614L187.73,548.738L188.116,548.738L189.433,548.187L191.351,546.421L192.441,544.452L191.555,543.979L191.192,542.663L191.396,541.29L191.374,541.088L191.533,538.578L191.771,537.644L192.043,536.913L192.009,535.664L191.998,534.145L191.09,531.882L190.227,531.016L190.318,530.003L191.544,528.956L192.373,527.594L192.668,527.369L193.326,525.861L194.699,525.343L194.643,524.397L195.971,523.418L196.55,520.671L196.89,520.243L198.037,518.644L197.991,515.672L198.502,514.85L197.639,513.093L198.32,511.179L198.831,511.066L199.24,509.039L199.444,508.791L200.397,507.406L200.568,505.649L201.714,503.937L201.396,501.876L201.51,501.617L199.637,501.087L198.241,502.248L197.775,502.248L197.106,500.085L198.502,498.744L198.4,497.956L198.536,497.122L198.025,496.367L198.298,495.331L198.23,495.015L197.912,494.294L199.444,492.649L200.091,492.74L200.988,493.01L201.294,493.033L202.883,492.717L203.088,492.762L207.038,490.159L207.934,488.638L208.173,488.323L208.752,487.793L209.728,485.472L208.786,484.998L208.525,483.601L208.388,483.488L207.083,482.981L207.026,482.812L206.924,482.034L205.789,481.775L203.78,480.445L202.452,478.608L202.565,477.582L201.941,477.188L200.976,475.012L198.967,473.141L197.866,472.453L197.832,470.92L197.968,470.65L200.068,468.936L200.25,468.846L200.454,468.338L199.24,466.602L199.365,465.723L200.681,464.911L202.032,462.892L201.669,461.708L203.122,459.194L202.543,456.882L201.396,455.844L201.147,453.972L201.272,452.201L200.454,450.531L198.706,450.904L197.912,450.249L194.2,449.426L194.268,447.835L193.553,446.831L192.827,444.485L190.602,442.544L190.454,442.578L188.763,441.134L188.752,439.927L188.774,439.261L189.296,438.166L189.081,437.455L189.694,436.835L190.749,434.149L191.476,432.998L192.021,432.885L192.543,431.587L194.279,429.951L194.393,429.973L194.881,430.808L195.619,429.917L194.541,427.535L193.212,426.35L194.2,424.408L193.485,423.686L193.701,422.422L192.69,421.575L191.953,421.902L188.854,421.236L188.422,421.022L187.798,421.067L186.606,419.012L186.266,417.522L186.345,415.241L184.699,412.915L184.597,411.729L183.791,409.155L182.793,409.471L180.988,409.019L179.898,409.539L179.943,410.679L179.331,413.186L178.684,413.796L178.445,415.783L177.787,416.653L177.719,418.007L177.151,418.561L174.631,418.786L174.121,419.001L173.837,419.656L172.951,419.159L172.304,419.136L171.453,417.804L172.089,416.653L171.635,416.246L171.203,414.112L170.647,413.356L167.878,413.039L166.3,414.044L166.436,414.575L166.504,414.711L166.311,415.411L165.142,416.02L163.508,414.756L163.144,414.033L163.156,411.21L162.963,410.894L163.916,406.467L164.813,405.337L165.199,404.863L165.29,404.728L165.324,404.479L164.972,403.666L165.483,402.435L165.483,400.537L165.085,399.441L165.857,398.357L165.596,397.419L165.539,397.069L165.074,395.86L165.335,394.132L164.847,393.782L164.938,391.782L164.427,390.302L164.121,389.85L163.973,389.296L163.791,389.172L162.486,388.415L162.486,388.268L164.518,386.189L165.676,383.612L165.426,383.409L165.097,382.957L162.781,380.481L161.896,380.651L161.408,380.753L159.376,380.99L158.933,381.996L158.32,381.883L156.334,383.149L154.699,382.832L152.929,381.826L152.316,380.086L152.407,378.436L151.067,376.944L150.988,376.695L150.625,375.508L149.387,374.513L149.569,373.146L150.727,372.241L150.738,371.778L150.579,370.5L150.352,370.263L150.284,369.619L148.434,367.855L148.457,366.408L149.966,364.632L151.317,362.495L153.508,361.398L152.815,359.239L154.938,357.316L155.142,357.192L155.982,356.977L156.618,355.563L155.199,354.828L154.983,354.613L154.938,354.545L154.813,354.093L154.041,353.075L154.109,352.622L153.655,351.559L153.996,350.349L156.13,349.727L158.706,345.349L158.82,345.36L159.319,345.552L160.942,343.561L160.795,341.287L161.839,340.212L163.281,339.522L163.462,339.522L165.301,338.99L165.437,338.753L165.596,337.904L164.722,336.795L164.518,336.037L164.983,335.211L165.244,335.086L166.107,333.423L166.379,332.902L166.55,332.427L166.391,330.967L166.459,330.571L165.789,327.809L166.13,325.885L165.778,325.67L164.336,324.73L163.735,323.066L164.257,322.093L164.37,319.67L165.097,318.47L164.881,316.704L164.972,316.557L165.142,316.421L165.415,316.217L166.027,315.741L165.766,314.79L165.88,314.564L167.219,312.197L167.639,312.209L168.014,312.095L169.978,311.608L170.091,311.665L170.42,312.367L171.362,311.846L174.098,311.688L174.302,311.246L175.335,309.525L175.573,309.162L177.48,308.007L177.866,306.92L180.42,306.308L183.212,304.576L185.029,303.16L187.378,303.975L187.594,304.134L189.467,304.632L189.716,306.376L192.134,306.376L193.61,305.776L193.905,306.399L193.939,306.773L195.21,308.585L196.459,309.049L196.584,309.411L197.741,309.253L198.184,309.083L199.274,308.845L199.535,308.992L200.488,308.958L202.055,309.989L202.316,310.634L204.858,312.254L206.447,312.526L208.922,312.288L209.376,312.469L210.295,313.194L211.033,312.424L211.657,311.971L213.167,311.54L215.097,310.419L216.061,310.578L217.367,312.322L218.842,313.194L218.979,313.103L219.887,313.228L220.091,313.284L220.942,313.171L221.01,312.956L223.666,312.537L223.882,312.367L224.472,312.186L224.96,313.103L226.981,314.643L227.526,315.651L228.831,316.511L229.103,317.926L229.069,318.243L229.444,319.353L229.637,319.659L229.694,319.84L229.694,320.078L229.898,320.904L231.43,323.191L232.361,323.361L233.088,321.923L233.088,320.349L234.677,319.104L234.699,318.742L235.119,317.994L234.926,317.451L235.085,315.73L234.915,315.56L234.733,313.341L234.858,313.069L234.972,312.095L236.799,310.385L238.298,307.407L238.525,306.308L239.33,306.41L241.215,307.928L241.408,308.222L243.326,309.411L243.405,309.536L244.438,309.604L244.802,309.796L246.663,310.578L248.127,309.683L250.511,309.559L250.908,309.74L252.622,310.589L253.791,310.238L254.166,310.148L255.199,311.042L256.107,311.121L257.208,310.159L257.56,309.751L258.842,309.355L259.081,309.31L259.467,309.242L259.682,308.981L261.408,307.713L261.374,307.373L261.124,306.648L261.113,306.376L261.396,305.448L261.498,305.187L263.008,302.945L264.915,303.103L266.277,301.687L267.276,302.344L267.537,302.559L267.821,303.352L267.991,303.579L268.207,303.647L268.4,303.737L269.83,304.485L270.125,304.44L270.84,306.037L272.248,305.81L274.427,306.354L274.801,306.886L276.799,305.006L276.198,303.047L276.391,302.412L278.513,302.911L280.613,302.118L280.795,301.438L281.567,299.411L283.178,297.904L284.495,299.354L285.051,300.589L285.233,300.86L285.335,301.019L285.573,301.246L286.039,302.356L285.823,303.5L285.914,303.794L285.925,305.153L286.595,307.43L287.741,308.426L288.683,308.438L290.057,307.622L290.829,307.679L291.578,306.331L291.68,306.116L293.178,304.813L294.03,304.576L294.404,304.304L296.413,305.561L296.754,305.663L299.478,305.81L300.92,305.085L301.181,304.972L302.123,303.681L302.815,303.692L303.224,303.613L304.643,304.508L304.96,304.689L306.879,304.564L307.594,303.364L309.308,302.582L310.738,300.883L311.033,299.66L311.317,299.467L311.612,298.844L311.578,298.493L311.759,297.292L314.756,297.949L315.051,298.017L316.345,298.776L318.229,300.498L319.716,299.048L321.01,298.425L321.339,298.312L322.372,297.666L322.486,297.428L323.122,296.816L326.572,296.205L329.376,297.927L330.397,297.972L330.329,299.014L330.307,299.207L330.307,300.962L331.532,301.483L331.93,301.54L333.224,301.234L333.632,301.823L335.778,301.302Z"
          fill="#e0e0e0"
          stroke="#333333"
          stroke-width="1"
          stroke-linejoin="round"/>
  </g>
</svg>