<?xml version="1.0" encoding="UTF-8"?>
<svg xmlns="http://www.w3.org/2000/svg"
     viewBox="-9.60470922319655 -20 819.2094184463931 640"
     width="819.2094184463931"
     height="640">
  <title>静岡県</title>
  <desc>都道府県コード: 22</desc>
  <g id="22">
    <path d="M593.05,157.22L608.205,153.495L613.522,152.112L614.076,152.042L614.83,151.886L615.228,151.788L618.156,151.421L618.568,151.534L620.502,151.872L621.071,151.971L621.867,152.013L623.743,151.717L624.198,151.604L624.98,151.534L625.534,151.59L627.596,152.634L628.221,152.07L628.79,151.745L629.188,151.534L630.624,150.687L631.889,148.203L634.732,146.764L635.13,146.58L636.851,146.03L637.391,145.846L638.031,145.394L638.514,144.802L640.746,143.63L641.627,144.068L641.713,144.477L643.305,145.042L646.134,143.842L646.745,144.477L649.503,147.512L649.844,147.864L649.986,148.062L650.811,149.247L651.01,148.584L653.413,146.326L656.284,146.044L656.483,146.015L660.165,143.503L660.89,143.376L661.217,143.334L662.525,142.797L662.738,142.6L664.459,140.37L668.155,139.579L669.164,138.619L669.52,138.224L670.657,137.97L670.913,138.012L671.126,138.069L673.6,137.603L674.964,138.168L678.007,137.899L678.533,138.097L679.898,138.605L680.111,138.676L683.537,138.535L683.921,138.492L684.973,137.674L689.252,137.532L690.432,137.024L691.782,137.518L693.559,137.25L694.953,135.556L696.559,135.471L696.843,135.598L697.213,135.627L697.54,135.655L699.8,135.697L701.634,137.321L704.421,136.502L706.496,136.46L706.766,136.445L708.885,137.391L709.61,138.577L709.709,138.831L709.752,138.986L709.681,139.198L709.382,140.61L709.325,140.835L709.297,141.315L709.411,141.584L709.368,142.854L708.344,147.497L709.595,149.628L711.643,152.14L711.045,152.973L711.87,156.853L711.97,157.545L712.112,157.827L712.353,158.222L712.112,158.716L712.055,158.885L712.069,160L713.405,161.143L713.619,160.875L715.026,161.467L714.344,163.344L712.652,166.222L712.894,167.689L712.879,168.013L713.32,169.001L713.42,169.269L713.988,170.129L713.903,170.468L713.633,170.821L713.505,171.032L713.519,171.145L713.647,171.314L713.761,172.767L715.666,174.996L715.751,175.264L717.301,177.605L717.571,177.831L717.613,178.141L716.334,182.118L715.964,182.541L714.727,183.415L714.77,184.247L714.841,184.614L713.348,186.786L713.476,187.9L713.761,188.365L712.595,193.088L711.699,195.57L711.87,196.077L711.941,196.232L712.026,196.542L711.259,198.107L711.045,198.361L711.045,200.109L708.572,200.349L707.193,201.279L706.923,201.617L703.895,204.986L703.226,206.368L702.828,206.494L700.796,209.398L700.653,211.188L698.677,213.062L697.696,214.767L697.796,216.416L697.767,216.811L697.256,217.882L697.512,221.038L697.753,221.404L697.213,223.518L698.109,225.617L697.952,227.026L699.203,228.421L697.981,230.576L698.521,230.872L698.763,231.013L699.559,231.886L699.431,234.323L700.54,235.915L700.724,236.338L701.222,237.366L701.336,237.521L701.407,237.746L701.464,238.225L700.852,239.211L700.71,239.493L700.767,240.507L703.354,243.408L703.113,245.971L703.056,246.281L702.857,247.717L703.027,248.112L703.326,250.041L703.468,250.069L704.932,250.829L705.274,251.012L707.392,253.505L707.861,253.843L709.993,256.898L710.178,257.194L713.533,260.066L713.818,260.22L716.803,260.558L716.959,260.643L718.836,260.629L718.694,261.642L720.855,263.979L720.897,265.471L722.262,267.132L721.651,268.976L722.234,269.258L722.362,269.511L722.205,270.665L722.063,270.947L721.011,272.593L721.622,273.1L721.878,273.227L722.902,273.607L723.072,274.944L721.935,275.774L721.949,278.096L722.859,278.645L725.987,278.49L726.371,278.406L727.067,278.124L729.626,278.645L729.925,278.659L731.176,278.715L731.432,278.828L732.469,280.095L734.147,280.066L734.46,280.066L734.744,280.095L735.099,280.221L735.497,280.348L736.834,280.77L737.303,280.897L737.601,281.291L738.184,281.417L742.264,281.192L743.999,281.445L744.624,282.219L747.553,283.528L750.055,283.992L752.301,283.725L752.6,283.753L753.126,283.795L753.68,283.838L755.287,283.894L758.613,283.05L760.021,283.331L759.125,284.794L759.352,286.975L759.011,289.367L757.149,290.901L756.666,292.195L754.689,294.46L753.453,296.851L749.984,298.553L748.619,300.227L748.776,302.365L746.515,306.064L744.937,306.556L744.198,307.541L743.402,310.072L743.53,311.703L744.553,312.589L744.34,311.324L745.747,310.761L746.345,314.699L743.331,316.737L742.904,318.312L743.558,320.365L744.752,321.757L744.98,323.936L743.956,324.85L742.904,327.746L743.103,328.364L741.44,329.419L741.881,330.121L740.857,331.021L740.686,332.37L742.862,336.25L745.52,335.533L746.757,336.952L748.363,337.388L749.486,336.587L749.756,335.322L751.988,334.549L754.505,336.643L754.846,337.346L754.377,341.618L753.808,343.867L754.334,347.857L753.822,349.501L753.524,353.014L753.694,354.967L754.689,357.467L752.841,358.465L749.813,357.594L747.581,358.999L746.913,362.159L749.088,365.839L752.102,369.042L752.358,371.204L751.86,374.589L754.178,377.355L754.746,377.327L757.348,379.237L760.646,377.327L763.66,377.454L767.612,379.686L767.442,382.312L768.92,383.491L767.697,384.741L768.494,387.549L770.598,389.584L771.578,388.433L772.574,388.714L775.147,386.959L776.099,388.082L775.218,388.882L775.872,389.514L775.616,391.255L776.156,392.968L774.535,395.368L774.777,396.294L776.924,398.133L775.559,399.887L776.725,401.01L775.73,401.698L774.407,404.603L773.199,406.427L772.815,408.911L773.199,413.036L772.446,413.163L772.133,415.225L770.342,416.46L769.361,418.845L769.659,420.795L771.223,420.795L773.043,421.679L773.199,423.376L770.981,424.681L769.489,427.262L769.389,429.576L768.508,430.754L766.645,431.133L763.546,432.999L762.253,434.359L759.495,434.233L757.789,435.116L755.77,435.256L755.244,438.426L754.121,438.734L754.419,440.249L753.794,441.946L752.088,442.857L750.098,441.721L748.761,441.525L747.994,443.432L746.842,444.077L746.316,447.442L744.155,450.779L744.653,452.714L743.43,457.396L744.951,459.33L745.25,460.69L743.914,461.923L744.823,462.96L743.743,463.577L741.909,465.581L741.312,467.473L738.796,470.57L737.303,473.611L737.459,476.792L737.047,479.426L735.54,482.55L734.971,482.312L733.109,484.54L731.048,485.969L728.034,488.644L728.261,489.961L729.868,489.611L731.048,490.423L731.034,491.796L726.698,493.127L724.65,492.763L722.888,491.88L721.452,492.44L720.897,493.841L719.476,495.186L719.476,497.903L718.154,499.611L716.263,499.583L715.325,500.97L713.86,500.858L713.604,500.116L711.159,500.956L709.823,503.757L708.757,504.471L707.833,506.347L709.34,509.47L707.861,511.136L707.776,513.964L706.283,513.572L705.004,515.56L704.904,517.408L703.752,518.066L705.657,519.774L703.61,521.636L701.151,523.287L701.378,524.547L699.616,524.505L699.104,526.926L698.35,527.71L697.526,530.216L696.744,534.75L696.701,536.541L698.564,539.787L699.943,539.578L698.507,541.9L698.933,542.81L697.099,542.558L696.374,543.565L696.815,544.657L698.564,544.713L698.919,546.252L700.085,548.098L701.521,547.217L702.942,548.154L702.189,549.805L702.729,553.19L700.497,552.407L700.596,551.162L699.715,551.889L699.772,554.114L698.237,555.498L696.502,554.799L695.166,554.939L693.972,553.75L693.787,555.359L690.005,554.925L690.219,555.792L688.783,554.911L689.422,552.351L690.19,551.861L689.451,549.231L690.275,546.615L692.252,546.196L692.28,544.475L690.176,542.768L689.081,542.852L687.39,544.097L685.613,544.615L685.897,546.797L685.271,548.56L683.935,549.231L683.082,548.168L681.348,547.441L680.836,548.448L679.499,548.364L682.186,550.854L680.623,550.924L680.125,552.197L678.32,551.442L676.159,552.323L674.524,553.974L671.538,556.128L670.373,558.827L671.41,560.478L670.657,560.562L669.164,563.233L668.724,565.806L665.312,568.142L665.312,569.176L663.634,567.568L662.013,566.729L660.848,567.47L660.492,566.072L659.113,566.002L657.834,567.526L657.635,568.631L659.227,570.085L658.004,571.721L657.891,570.729L656.753,570.309L657.237,572.169L653.398,571.721L651.309,573.008L651.38,574.042L650.413,575.552L647.982,574.322L647.101,574.7L646.361,576.461L644.741,576.615L644.129,577.496L644.94,578.391L642.992,577.859L641.968,578.852L640.063,577.957L640.206,580.362L639.139,580.963L639.651,582.711L638.969,582.92L638.358,581.508L636.922,580.432L638.343,583.172L637.249,584.933L635.969,584.136L635.87,582.836L634.988,582.948L633.737,581.928L633.766,583.018L631.562,581.942L630.24,582.515L629.216,581.942L629.615,581.033L628.378,579.299L629.16,578.53L628.634,576.839L627.61,576.699L626.956,578.656L625.705,576.993L624.511,577.16L623.729,576.335L624.241,574.923L623.729,572.882L622.421,572.113L621.682,570.757L622.165,570.057L620.388,569.945L619.805,570.868L617.246,571.428L616.408,572.742L614.488,571.637L614.744,569.876L614.318,567.512L614.659,566.45L612.64,564.659L611.674,563.107L610.792,563.89L609.228,563.946L606.684,562.939L605.333,560.73L604.665,558.785L605.319,556.296L605.148,554.421L605.802,555.079L607.721,554.967L608.503,553.792L608.503,551.875L609.897,551.372L611.645,551.554L612.768,552.365L612.612,551.344L613.721,550.197L612.427,548.196L612.711,546.839L610.764,546.797L608.589,548.532L607.323,548.056L606.797,546.965L607.38,545.482L607.11,543.523L603.115,539.913L601.907,540.319L602.163,537.856L599.092,535.841L597.685,534.442L593.249,535.729L591.117,536.667L589.525,534.764L591.501,533.406L590.747,532.105L591.501,531.923L590.69,530.747L591.543,529.628L590.221,529.586L590.477,527.724L589.852,526.968L591.074,522.363L590.804,521.3L591.486,520.012L590.875,518.962L591.344,517.898L590.818,516.274L589.567,516.022L589.653,514.846L592.197,515.07L593.249,514.188L592.78,513.138L593.121,511.108L594.586,510.814L595.126,509.806L596.803,511.64L597.87,509.638L596.931,508.251L597.969,508.686L599.874,507.999L599.405,506.123L597.13,504.933L596.633,503.897L597.557,503.266L598.879,503.841L599.376,502.244L600.869,501.334L602.163,501.46L603.755,499.793L605.646,499.737L606.726,497.987L606.044,497.09L606.812,496.376L605.717,495.326L606.428,493.701L605.831,491.894L604.395,490.928L603.783,491.6L602.959,490.241L601.807,491.138L600.983,490.213L602.675,489.793L603.542,487.762L602.419,488.28L601.537,487.37L601.879,486.235L603.058,485.829L602.845,484.218L601.409,484.077L601.48,482.508L599.504,481.416L599.76,479.874L597.67,477.773L597.258,476.68L598.04,475.923L597.429,474.802L595.865,474.382L596.533,472.35L597.941,471.846L597.514,473.205L599.078,473.373L600.329,472.602L599.604,470.823L601.58,469.898L601.424,467.669L599.902,466.702L598.154,467.697L597.372,467.557L595.254,464.011L595.083,461.951L596.533,459.821L598.523,459.036L599.078,457.788L600.4,458.251L599.732,459.765L600.67,459.582L602.376,461.965L603.229,461.32L602.348,460.199L602.433,456.989L600.67,456.036L599.135,450.484L599.519,449.615L601.353,450.106L602.021,449.307L601.509,448.171L602.717,447.232L603.627,448.045L605.063,447.498L605.873,446.447L606.2,443.194L605.546,442.114L603.144,441.413L602.461,441.721L602.049,439.688L600.883,439.155L600.002,440.025L597.969,439.211L596.462,436.463L598.168,434.892L597.898,430.25L597.258,427.711L597.514,426.35L600.812,422.984L602.476,420.164L605.518,420.557L607.338,419.462L608.944,417.4L609.001,415.001L609.456,415.632L610.636,414.917L612.455,414.706L612.711,412.573L612.001,410.328L611.318,410.455L610.622,408.715L610.735,407.157L607.224,402.905L607.053,399.298L606.371,397.207L606.428,395.831L605.76,393.754L602.859,390.988L601.935,389.332L601.665,385.85L600.613,383.379L600.059,379.462L600.755,375.895L602.476,374.954L601.395,376.246L601.026,377.847L603.627,378.408L604.295,379.293L605.973,379.419L606.968,378.591L606.129,376.246L606.186,373.957L605.248,374.294L603.101,372.497L604.31,370.025L605.106,366.134L605.831,364.027L608.219,361.457L607.878,358.409L607.309,357.116L607.906,352.93L609.683,351.23L609.868,348.307L611.347,345.75L612.569,345.918L611.347,346.789L610.92,347.942L611.716,349.206L612.925,348.405L615.128,349.234L616.365,349.052L617.261,350.569L618.483,350.443L622.748,351.567L623.729,349.642L627.894,349.319L629.458,349.909L630.638,349.206L631.633,351.117L634.107,351.609L635.557,352.747L637.135,352.311L637.689,354.405L638.912,354.391L639.978,352.817L641.428,353.225L641.94,351.988L643.646,350.934L645.181,351.384L646.276,350.625L649.944,350.387L651.124,348.56L652.673,348.433L652.887,350.892L653.498,351.623L654.792,350.415L655.502,348.223L656.995,349.501L656.298,351.792L657.919,351.763L658.317,352.691L660.45,352.157L661.715,350.33L662.468,348.391L659.867,346.705L660.236,345.23L659.554,344.457L662.667,340.986L662.71,339.061L663.705,337.332L665.397,336.643L666.392,335.041L664.842,335.856L664.217,334.704L662.938,334.001L659.383,333.509L658.857,334.394L659.284,335.659L658.53,336.39L656.753,336.587L656.625,334.788L655.474,331.836L654.493,331.499L654.564,330.346L653.555,329.334L652.29,325.693L651.124,323.655L648.366,321.166L646.333,322.221L645.039,321.18L642.793,318.284L642.253,317.075L643.475,316.794L643.561,315.556L642.125,316.864L641.059,314.98L639.864,315.36L640.774,314.024L638.087,309.538L635.813,306.978L632.827,304.489L626.643,300.354L621.085,297.428L615.199,294.91L610.465,293.095L602.575,290.718L595.751,288.889L590.434,287.721L586.425,287.383L581.08,286.412L575.678,285.962L572.522,286.412L571.058,286.187L569.579,284.091L571.868,282.459L570.276,282.177L569.309,283.289L569.608,281.516L566.665,282.065L564.689,281.783L568.74,285.019L570.66,287.228L568.797,287.271L562.386,288.692L559.187,291.21L553.899,292.912L551.069,294.544L548.468,295.36L546.577,296.584L540.578,297.991L536.91,297.611L534.166,298.202L531.11,297.878L526.276,298.005L521.03,299.439L516.382,299.833L514.32,300.466L512.017,302.506L507.951,304.841L505.961,306.613L503.63,310.649L502.521,313.982L501.881,317.933L500.9,320.618L499.962,321.827L498.114,327.071L496.507,329.109L495.811,331.049L493.223,332.469L490.935,334.999L489.115,336.222L490.878,338.555L487.835,340.873L486.854,341.028L486.016,338.245L485.077,338.316L485.802,342.054L485.191,342.616L483.997,338.611L484.267,337.838L482.092,338.892L482.803,339.117L483.912,343.698L482.661,344.949L481.353,341.984L479.931,342.419L481.168,344.907L480.173,345.792L478.893,343.122L477.287,344.836L478.538,345.061L479.618,347.492L478.239,352.185L477.657,350.204L475.865,349.923L475.879,351.623L476.718,351.497L478.069,353.028L478.126,355.543L476.647,355.304L477.657,357.411L478.908,356.709L478.879,364.519L481.182,366.949L480.088,368.269L478.822,366.57L480.343,369.449L481.765,370.376L483.883,369.786L485.134,367.665L484.992,364.379L480.685,361.555L480.599,359.827L483.016,360.305L482.49,358.76L481.225,358.507L481.196,355.95L482.575,354.672L483.542,355.276L487.082,355.346L487.992,356.596L487.85,357.776L489.044,357.959L488.063,355.768L488.532,354.953L488.248,352.635L487.181,351.623L487.267,350.724L490.025,350.822L494.745,353.688L495.356,355.163L494.346,357.973L493.38,359.42L492.328,363.213L492.242,365.235L489.996,367.132L489.811,368.171L487.807,370.081L487.466,371.092L486.158,371.893L483.471,374.926L480.486,377.074L479.746,377.074L474.131,380.669L470.278,382.831L462.914,386.44L456.432,388.728L448.442,392.181L441.675,394.09L439.329,395.48L437.453,397.838L435.463,399.705L435.235,400.533L432.207,402.259L428.866,402.568L425.895,403.621L426.009,403.943L420.72,405.95L419.938,404.266L419.071,404.715L420.265,406.119L414.778,409.865L413.612,411.395L413.598,413.135L411.565,416.25L411.48,417.695L410.413,420.458L407.172,423.797L406.177,425.368L406.077,428.749L404.087,430.726L402.794,432.802L404.428,433.938L403.945,434.752L402.666,433.826L402.182,435.411L400.775,434.906L402.04,433.377L401.088,432.942L400.533,434.373L399.652,433.56L399.908,436.35L401.088,436.533L400.675,438.692L401.343,439.842L400.448,439.884L401.301,441.006L401.315,442.815L400.448,442.815L400.092,444.764L401.841,446.194L401.215,447.624L399.339,445.774L399.438,446.881L400.817,449.068L401.912,447.779L402.651,445.956L403.092,447.274L404.599,449.181L405.424,450.919L405.992,454.76L405.623,457.886L404.172,460.535L402.168,463.381L400.419,466.604L398.33,469.211L396.041,473.793L393.482,477.352L389.814,482.887L388.961,485.646L387.554,485.17L386.345,485.604L386.587,483.405L384.938,482.634L383.303,484.498L386.118,487.286L390.411,486.711L387.909,489.891L383.616,494.905L381.739,495.466L379.408,496.81L374.19,500.788L374.062,499.709L375.598,498.001L372.527,499.569L373.65,500.13L365.561,505.633L360.912,509.316L357.856,512.158L355.439,515.238L353.449,517.31L350.719,521.356L349.397,524.253L348.814,527.864L348.928,530.369L347.904,533.154L346.056,536.079L347.051,537.171L345.402,538.878L342.303,544.755L340.583,549.441L339.844,555.219L339.531,560.618L340.043,563.667L341.564,567.233L343.113,566.422L343.711,567.317L342.218,568.086L345.018,572.239L345.559,573.959L346.867,573.749L350.307,578.321L351.586,577.342L351.601,579.216L350.605,579.97L352.709,581.536L354.174,581.41L353.961,578.894L355.467,581.299L356.974,581.396L358.211,582.473L358.325,584.332L357.628,586.052L354.842,588.204L351.686,587.505L349.923,586.401L345.573,585.241L338.934,584.975L333.347,581.229L323.58,577.356L319.102,576.14L314.894,573.903L313.899,573.106L305.597,569.442L300.408,566.981L290.542,562.981L287.258,561.974L281.472,559.778L279.297,559.289L275.089,557.61L259.536,553.232L249.94,551.008L246.67,550.644L243.372,549.875L229.127,548.098L220.697,547.609L215.153,547.623L210.433,548.658L208.485,548.672L205.144,548.028L205.699,548.784L203.111,549.889L193.331,551.19L186.35,552.435L179.143,553.932L172.305,555.848L168.907,557.708L165.595,558.855L159.666,559.681L155.771,558.897L150.994,558.506L149.274,558.953L145.18,557.736L144.37,556.869L140.019,555.135L136.92,554.561L136.039,553.316L133.75,552.547L127.793,551.19L126.486,551.176L120.614,549.791L110.023,547.902L104.848,546.769L97.939,545.538L92.565,544.796L88.67,544.475L84.448,543.831L78.591,543.299L71.995,542.95L67.673,543.146L67.445,542.054L63.522,541.984L59.825,540.949L55.29,540.781L44.799,541.313L38.373,541.788L28.095,542.782L23.773,543.411L15.357,544.181L15.556,541.998L15.556,541.83L15.286,539.144L15.215,538.78L15.783,537.842L15.869,537.842L16.238,537.311L16.608,537.017L17.262,535.058L17.39,534.47L18.47,528.564L18.484,528.396L17.503,525.639L17.461,525.191L17.447,525.065L17.447,524.603L16.437,520.236L14.589,518.85L14.362,518.738L14.092,516.484L14.134,515.574L14.134,515.28L13.878,515.112L13.423,514.986L13.295,513.866L13.551,513.012L13.409,512.746L13.395,511.738L13.182,511.612L12.784,511.206L12.499,510.884L12.4,510.576L12.855,509.148L12.826,508.559L12.826,507.481L13.082,507.341L12.357,504.793L12.243,504.485L11.305,503.953L10.395,501.922L10.936,501.264L10.779,499.009L11.419,498.435L11.618,498.337L11.902,496.502L11.945,496.236L11.888,495.886L11.831,495.284L11.604,491.992L12.656,490.017L12.243,489.429L11.888,488.91L11.689,488L12.059,487.594L12.172,486.949L12.386,486.375L14.02,483.923L14.305,483.811L17.518,482.719L17.987,482.424L19.01,481.36L19.039,479.188L18.385,476.414L19.039,475.699L19.124,475.475L19.664,473.065L19.408,472.196L19.195,471.916L17.944,471.005L17.603,470.626L16.395,468.146L16.295,467.487L17.333,466.59L17.873,466.422L18.484,466.226L19.352,465.357L19.792,463.605L20.034,463.143L21.811,462.161L22.024,462.105L23.005,461.026L21.74,459.176L21.726,459.064L22.166,457.662L22.365,457.508L22.223,456.597L23.432,455.391L23.531,455.363L23.702,455.447L24.683,454.999L25.152,454.858L26.175,454.704L26.488,454.83L29.26,454.087L29.573,453.975L31.663,453.316L33.099,451.438L33.17,451.185L35.643,450.358L35.729,450.092L36.937,449.587L37.264,449.503L37.577,449.447L37.975,449.405L38.97,449.882L39.084,450.12L40.434,450.583L41.031,450.527L41.401,450.597L42.908,448.452L44.642,447.106L44.827,446.881L45.595,446.475L45.581,445.97L45.865,445.115L48.509,445.633L48.836,445.605L49.007,445.437L49.206,445.325L50.969,445.143L51.153,445.241L53.201,445.269L53.542,445.269L55.973,445.816L56.186,445.9L56.954,445.675L57.025,445.535L61.247,446.11L61.673,446.054L62.086,445.998L62.128,445.619L63.578,444.357L64.858,442.493L65.085,442.128L65.256,441.847L66.095,440.025L65.995,439.646L66.365,435.355L66.137,435.102L67.687,433.265L68.156,433.139L68.412,433.111L68.739,433.055L70.018,432.564L70.289,432.578L72.492,432.199L72.961,432.171L73.103,432.185L73.274,432.353L73.345,432.395L73.544,432.438L75.463,432.017L75.776,430.348L77.027,429.983L77.411,429.969L78.122,429.45L78.534,429.226L78.932,428.889L80.112,428.538L80.396,428.412L81.576,427.627L81.747,427.332L83.396,426.364L84.007,424.933L84.178,424.751L84.974,423.629L85.13,423.306L85.983,423.194L86.239,422.759L86.779,422.226L86.907,422.114L87.277,420.164L87.121,420.038L86.367,418.985L86.524,418.607L86.694,418.284L86.609,417.961L86.524,417.386L86.524,417.105L86.58,416.446L86.538,416.011L87.547,414.075L87.59,413.836L89.21,413.654L89.935,411.493L89.793,410.96L89.722,410.707L89.779,410.553L89.523,407.774L90.22,407.283L90.66,406.933L90.987,406.455L91.243,406.02L91.926,404.336L92.039,404.182L92.125,402.147L92.153,401.529L92.096,401.207L91.997,401.08L91.371,399.635L93.205,397.993L93.305,397.838L93.39,397.6L93.674,397.221L93.817,397.066L93.959,396.926L93.831,396.421L93.817,396.14L93.859,395.999L94.016,395.719L94.3,395.185L94.442,394.989L96.233,392.701L96.745,392.336L99.133,391.465L99.418,391.339L100.356,391.311L102.204,392.631L102.588,392.939L102.702,392.897L103.697,391.199L104.706,390.82L104.848,389.388L105.787,388.026L105.971,387.577L107.422,387.773L108.886,386.65L109,386.58L109.341,384.867L109.369,384.741L109.142,382.635L109.355,382.649L110.862,380.824L110.961,380.641L111.345,379.026L112.397,378.086L113.392,378.76L116.022,378.886L116.221,378.549L116.492,378.423L116.762,378.38L117.089,377.706L116.946,377.257L116.719,376.695L116.449,376.344L114.558,373.128L114.487,372.707L114.373,372.412L113.833,370.769L114.16,370.446L115.681,367.89L117.416,365.811L117.529,365.502L117.302,364.491L115.951,364.589L115.354,363.718L115.098,363.494L114.842,363.381L114.672,363.199L114.587,362.988L114.572,362.721L114.643,362.524L114.771,362.244L114.743,362.061L114.643,361.92L114.373,361.246L114.302,360.67L115.184,357.734L115.056,357.425L114.999,357.229L115.084,357.018L115.425,356.695L115.681,356.484L115.823,355.866L115.809,355.444L117.43,351.946L117.615,351.918L118.809,350.724L119.321,348.869L119.619,348.321L121.339,347.099L121.382,346.761L122.178,342.152L123.358,342.223L123.543,342.068L124.31,341.253L124.353,341L124.666,340.48L124.979,340.325L125.306,340.241L125.832,340.058L127.182,339.173L127.282,339.046L127.879,337.978L128.078,337.388L128.163,337.191L128.362,336.938L129.784,335.673L129.969,335.533L129.969,335.322L130.011,334.732L130.025,334.661L130.097,334.422L130.495,333.087L132.499,330.585L132.798,330.374L133.068,330.29L134.603,328.997L134.816,328.87L136.935,327.408L137.006,327.296L137.347,326.579L139.664,326.031L139.735,325.511L139.749,324.737L139.906,324.541L140.219,324.358L141.996,324.077L142.948,322.98L142.948,322.769L143.019,322.038L144.725,321.855L144.881,321.982L145.578,321.827L145.848,321.574L146.843,320.604L147.142,320.224L147.057,319.873L147.142,319.592L147.938,319.254L148.293,319.1L148.45,318.804L148.407,318.397L148.123,316.681L147.966,316.175L147.853,315.978L147.796,315.683L147.71,314.671L147.824,314.474L147.739,314.291L147.71,312.407L147.44,312.097L147.384,311.844L147.91,311.464L147.938,310.958L147.91,310.663L147.981,310.536L148.109,310.466L148.421,310.114L149.559,307.274L149.601,307.119L151.847,308.385L152.26,308.427L153.497,308.933L156.368,308.975L157.093,305.769L157.164,305.305L157.42,304.714L159.979,303.35L160.164,303.04L160.178,302.59L160.136,302.224L159.723,300.48L159.496,299.439L159.226,298.3L159.098,297.709L158.799,294.896L159.027,294.024L159.126,293.714L159.226,293.278L159.169,292.645L159.112,292.251L158.344,291.323L157.946,291.238L157.605,291.224L156.78,291.069L156.311,290.83L155.956,290.38L155.913,290.225L155.956,289.043L155.999,288.424L156.297,287.032L158.486,286.201L158.941,286.581L159.368,288.171L159.453,288.495L160.107,289.255L162.268,289.072L162.879,288.368L163.121,287.988L163.448,287.299L164.088,285.765L164.23,285.54L165.723,284.386L166.007,284.161L166.192,284.02L166.419,283.781L166.078,283.19L165.282,282.05L165.438,278.969L165.595,278.448L165.666,278.223L165.865,277.829L166.831,276.942L167.002,277.041L167.443,277.941L167.713,278.476L169.717,279.602L172.845,277.435L172.077,275.436L170.556,274.972L170.144,274.747L169.39,274.001L169.618,272.129L170.528,270.736L170.727,270.482L171.452,269.314L171.509,269.075L169.732,266.654L169.348,266.189L168.836,265.64L168.751,265.542L168.409,265.19L166.732,264.458L166.533,264.542L165.481,265.049L164.358,264.613L161.856,262.121L161.315,260.629L161.159,260.305L161.102,259.587L162.908,257.348L164.898,258.038L165.31,258.151L167.201,256.996L167.258,255.743L167.272,255.025L167.286,254.842L167.315,254.547L169.007,251.73L169.333,249.294L169.447,248.886L170.13,247.957L172.816,248.069L173.826,247.45L173.229,246.394L172.902,246.267L172.276,245.647L172.219,245.225L172.177,244.887L172.191,244.478L172.689,244.014L174.75,244.309L177.025,243.507L176.427,241.746L177.479,241.521L177.579,241.239L178.02,241.14L178.517,241.253L178.617,241.042L179.171,240.845L179.47,240.69L180.82,238.746L180.977,238.662L181.901,238.45L182.114,238.549L182.285,238.662L182.54,238.619L182.967,238.366L183.081,238.309L184.19,238.338L186.578,237.45L189.393,237.901L189.649,238.563L189.876,238.493L189.976,238.493L190.231,238.535L191.155,239.169L191.596,239.563L192.79,239.915L194.667,238.225L196.373,235.732L196.344,235.478L196.529,233.929L197.482,232.083L197.624,231.929L197.979,231.182L198.093,230.731L198.264,229.886L198.264,229.731L197.823,228.97L197.738,228.745L197.425,227.73L197.169,227.364L198.022,225.702L197.979,225.504L197.34,223.546L198.207,222.362L198.747,222.067L200.396,221.137L200.581,220.968L201.548,220.094L201.86,220.066L202.401,220.108L203.268,217.994L203.851,218.178L204.05,218.361L204.76,218.854L205.258,218.84L205.741,219.122L205.955,219.192L206.168,219.22L208.599,220.108L209.324,220.066L211.229,220.601L213.887,220.024L214.072,219.699L214.484,219.094L214.598,218.657L214.769,218.375L215.167,217.952L216.787,216.515L216.816,216.007L216.844,215.81L216.816,215.444L217.271,213.865L217.313,213.415L217.356,212.682L217.356,212.019L218.38,210.638L218.408,210.342L218.607,209.44L218.749,208.778L219.744,207.96L222.915,208.045L223.227,208.031L223.327,208.003L223.952,207.721L224.834,207.989L226.909,206.748L227.023,205.888L227.194,205.818L227.748,205.184L228.189,204.944L229.113,203.929L230.279,203.929L230.734,204L231.416,204.084L231.8,204.183L234.629,203.069L235.823,204.155L236.832,202.322L236.96,202.125L237.287,201.335L237.629,200.729L237.87,200.447L238.183,200.278L238.425,200.109L238.936,198.488L239.079,198.234L239.278,198.164L239.534,198.15L240.344,198.248L240.799,198.474L241.154,198.572L242.761,198.699L243.159,198.601L244.225,196.641L244.666,196.275L244.922,196.049L245.476,195.598L247.523,193.483L249.542,193.286L250.423,192.581L251.816,192.835L253.281,192.242L253.551,192.045L257.062,192.609L257.29,192.609L258.654,193.215L258.782,193.342L259.38,193.554L259.778,193.821L260.062,193.666L262.066,191.41L262.137,190.438L263.843,187.787L263.261,186.165L263.289,185.911L263.175,185.108L263.175,184.769L263.076,183.105L263.189,182.922L263.474,182.724L263.772,182.654L265.535,181.794L266.132,181.356L267.469,180.299L267.668,180.214L267.966,180.073L268.279,180.003L269.132,179.65L269.061,179.1L268.279,176.195L268.72,175.532L270.966,174.671L271.293,174.699L273.169,174.798L273.638,174.742L274.193,174.573L276.268,172.344L276.439,172.019L276.553,170.947L276.595,170.411L276.539,169.974L276.993,169.833L277.221,169.819L279.154,167.985L279.439,167.985L281.585,167.985L281.955,168.027L283.334,167.83L284.187,168.535L284.798,169.114L285.211,169.227L285.68,169.621L287.755,170.877L287.968,171.258L288.836,172.697L291.011,173.233L291.423,172.993L291.949,172.809L292.262,172.781L293.371,172.231L293.627,172.132L294.081,172.118L295.162,172.132L295.247,171.893L295.148,171.709L295.46,168.126L295.404,167.759L294.821,166.941L294.65,166.899L294.366,166.715L294.153,166.476L294.394,165.361L294.494,165.234L295.247,164.769L295.333,164.388L295.432,164.077L295.546,163.993L297.508,163.809L297.707,163.654L298.048,163.259L298.162,163.076L299.469,162.159L300.209,160.564L302.355,159.379L302.554,159.224L304.815,157.559L305.213,157.291L308.013,156.275L308.383,156.43L309.236,157.051L309.478,157.206L310.16,157.601L310.345,157.813L313.131,156.896L313.373,156.698L315.349,155.739L315.434,155.598L315.577,155.499L315.818,155.372L316.017,154.991L316.117,154.793L315.975,153.566L315.989,153.269L316.088,153.058L316.159,152.775L316.486,152.465L316.87,151.985L316.941,151.392L317.069,150.8L317.211,150.165L317.282,149.741L317.325,149.628L317.467,149.205L317.581,148.796L317.837,148.457L318.05,147.187L318.263,146.848L318.462,146.453L318.804,145.564L318.875,145.183L320.353,143.941L320.438,143.828L320.979,141.245L320.922,140.934L321.235,139.862L321.149,139.749L321.021,139.509L320.765,139.311L319.941,138.789L319.699,138.662L319.273,137.829L319.06,137.645L318.306,136.361L318.135,136.135L317.609,135.542L317.482,135.344L315.335,135.189L314.951,135.076L314.055,134.441L313.515,134.229L312.89,133.961L312.634,131.462L313.43,130.318L313.757,130.234L314.055,130.093L314.269,130.036L314.695,129.344L314.809,128.949L314.766,127.876L314.894,127.636L314.965,126.069L314.994,125.899L314.667,125.165L314.155,125.108L310.302,123.047L306.777,122.27L306.478,121.875L306.236,121.409L307.146,119.545L307.288,119.305L307.857,118.429L307.829,118.147L307.772,118.048L307.758,117.681L307.246,115.379L307.146,114.941L307.033,114.658L306.862,114.277L305.767,112.483L306.293,109.376L306.18,107.822L306.961,106.635L307.104,106.565L307.473,106.494L307.63,106.551L308.554,107.299L308.767,107.398L309.378,107.695L309.62,107.78L309.961,107.765L310.26,107.765L310.473,107.85L310.629,107.949L310.743,108.006L310.899,108.119L310.97,108.246L311.127,108.274L313.06,107.737L314.212,106.692L314.411,106.494L315.363,105.647L315.491,105.406L317.24,105.025L317.396,104.983L318.676,104.757L319.045,104.474L321.363,105.195L321.675,105.18L322.969,104.615L323.239,102.977L324.49,100.052L324.433,99.798L324.49,99.586L323.794,97.707L323.41,97.622L322.756,97.212L322.713,96.916L322.614,96.577L322.756,96.068L322.784,95.771L322.798,94.966L322.841,94.81L322.884,94.5L323.026,94.033L323.296,93.581L323.765,91.942L323.822,91.744L323.694,90.6L323.637,89.935L324.32,88.777L324.547,88.466L324.675,88.254L325.613,87.081L325.812,86.897L326.196,86.332L326.296,86.035L326.523,85.654L326.466,85.512L326.011,85.399L323.339,85.3L322.045,84.721L321.746,84.424L321.562,84.382L321.348,84.226L321.036,83.83L320.837,83.703L320.51,83.279L320.239,83.067L320.012,82.982L319.856,82.813L319.33,82.346L318.96,81.993L317.311,81.739L317.083,81.866L315.264,82.035L315.164,81.753L315.022,81.484L315.008,81.357L315.662,79.661L316.799,78.445L316.813,78.276L316.771,77.583L316.941,77.131L318.093,74.502L318.107,74.219L317.965,73.116L318.05,72.339L317.595,71.42L317.425,71.363L316.472,70.854L316.202,70.727L314.823,70.6L314.439,69.709L314.695,69.342L315.264,68.663L315.577,68.437L315.818,68.027L316.031,67.885L316.941,66.556L317.211,66.458L317.396,66.26L317.837,65.793L318.064,65.652L318.562,64.577L318.69,63.87L319.415,62.343L319.713,62.088L320.552,61.721L322.159,59.741L322.201,59.458L322.287,59.359L322.415,59.176L322.67,58.638L322.813,58.525L323.14,58.327L323.268,58.058L323.509,57.634L323.893,55.881L322.528,54.424L322.543,54.099L322.571,53.01L322.5,52.868L322.031,52.359L321.832,52.09L320.908,52.317L320.765,52.402L317.979,51.454L317.752,51.412L316.998,50.577L317.183,50.506L318.036,50.04L318.875,47.451L319.088,47.267L320.097,45.216L320.211,44.934L320.638,42.189L321.391,41.68L321.547,41.623L322.841,41.213L323.04,41.058L324.121,39.685L324.305,39.417L324.604,38.752L324.732,38.101L324.746,37.408L324.817,36.969L324.917,36.771L326.509,36.064L326.95,35.922L327.12,35.837L327.39,35.71L328.727,35.752L328.954,35.781L329.551,35.936L330.034,36.134L330.333,36.318L330.518,36.927L331.84,38.879L333.347,40.039L333.603,40.067L334.584,40.152L334.939,40.506L335.55,41.001L336.46,39.954L336.873,39.558L338.052,38.016L338.109,37.776L337.626,36.799L338.735,35.059L338.92,34.748L339.204,34.267L339.304,34.026L339.446,33.63L339.758,33.163L340.299,30.645L340.242,30.149L340.569,29.159L340.569,28.848L340.768,28.508L341.578,27.616L341.692,27.348L342.275,26.753L342.531,26.527L343.398,24.546L343.526,24.277L343.526,23.98L343.981,23.343L344.393,22.734L345.36,20.88L345.303,20.484L344.578,16.96L344.436,16.762L343.867,15.474L344.009,15.162L344.009,14.072L343.981,13.761L343.981,13.605L344.052,13.421L344.038,11.935L344.094,11.708L344.052,10.944L344.194,10.576L344.379,7.674L344.905,7.447L345.672,7.235L346.156,7.235L346.582,7.065L346.796,6.867L347.066,6.725L347.35,6.527L348.203,5.423L348.388,5.196L348.843,4.602L349.084,4.233L350.591,2.053L350.691,1.699L351.16,1.005L351.245,0.765L351.302,0.793L354.316,0.127L354.757,0.057L355.88,0L356.889,1.812L357.145,2.704L357.358,4.828L356.676,6.272L356.576,6.612L356.278,7.617L356.264,7.815L356.107,9.783L356.107,10.194L355.851,10.859L355.965,11.185L356.974,11.892L357.102,11.991L357.188,12.204L357.316,12.515L358.339,13.039L358.623,13.166L359.505,13.803L359.59,14.044L358.609,17.568L359.05,17.724L359.149,19.847L359.022,20.088L358.993,20.229L358.922,20.696L358.751,21.432L358.78,21.687L359.121,22.437L359.391,22.423L360.244,22.791L360.614,22.763L360.727,22.763L361.054,22.876L361.296,22.975L361.381,23.116L361.495,24.376L361.552,24.8L361.58,25.267L361.723,25.664L361.737,26.017L362.49,27.206L362.618,28.876L362.547,29.046L362.647,29.838L362.647,30.064L361.68,31.89L361.595,32.229L360.742,33.559L360.685,33.8L360.457,35.158L361.239,35.611L361.339,36.035L361.353,36.403L361.509,36.828L361.509,37.86L361.538,38.186L361.467,38.568L361.325,38.879L361.879,41.1L363.628,42.741L363.372,43.123L363.016,46.306L363.67,47.621L365.746,49.234L366.528,50.789L367.765,51.341L368.035,51.412L369.968,52.359L370.181,58.115L369.513,60.533L369.485,60.858L368.945,64.761L370.65,65.567L371.93,67.235L371.845,67.447L371.617,69.186L372.612,71.321L372.74,71.462L372.811,71.618L374.276,74.176L373.479,74.657L370.252,78.898L370.309,79.166L370.053,81.3L369.982,81.47L369.925,83.477L369.783,83.943L369.684,85.272L369.67,85.512L370.11,88.042L369.982,88.339L369.897,88.452L369.741,88.96L369.783,89.723L369.641,90.077L369.2,95.602L368.504,96.633L368.248,97.114L368.106,97.424L367.736,100.066L367.58,100.377L367.182,101.253L366.869,101.522L363.656,102.807L363.258,104.079L363.13,104.531L362.931,107.723L363.94,109.348L364.026,109.545L364.125,110.195L364.424,110.675L365.447,112.3L367.267,113.062L367.423,113.133L368.134,113.641L368.092,113.966L368.546,116.593L368.703,116.833L368.845,117.003L368.916,117.102L368.93,117.497L369.058,118.019L369.371,119.05L369.527,119.432L369.883,120.971L369.755,121.253L369.968,123.583L369.499,126.662L369.485,127.113L369.471,127.368L369.328,128.285L369.371,128.765L369.072,130.135L369.115,130.318L369.2,132.394L369.129,132.704L369.328,133.622L369.044,134.328L367.082,135.415L366.84,135.627L365.959,136.841L363.955,138.422L364.04,139.029L364.011,139.226L364.466,141.09L363.656,143.404L362.76,143.969L362.604,144.124L361.879,144.534L361.495,144.689L361.41,144.745L361.069,144.971L360.585,146.001L360.401,146.128L359.633,147.003L358.894,149.191L358.652,149.36L358.083,150.701L358.012,150.927L357.941,151.11L357.827,151.251L357.714,151.943L357.714,152.352L357.657,152.663L357.671,152.987L357.728,153.255L357.742,153.552L357.387,154.539L359.775,155.146L361.509,156.67L361.595,156.91L362.263,157.488L362.576,157.531L362.974,157.559L364.651,157.122L364.893,157.361L366.115,158.645L366.201,160.282L366.13,160.734L366.044,161.58L366.101,161.905L367.494,165.545L367.679,166.095L367.892,167.364L367.75,167.788L367.622,169.678L367.75,169.974L368.063,171.117L368.276,171.286L368.76,172.005L368.859,172.57L368.205,173.515L367.978,173.754L366.883,175.109L365.646,175.532L365.092,176.787L365.334,176.787L366.286,177.492L366.514,178.028L366.528,178.099L366.499,178.338L366.357,180.101L366.556,180.003L367.892,180.877L367.736,183.232L369.286,185.22L369.471,185.164L371.006,185.968L372.058,185.841L372.385,185.855L372.499,186.066L372.74,186.193L374.645,186.363L377.233,188.746L377.673,190.283L378.825,190.79L379.109,190.889L380.957,191.918L381.227,192.003L381.739,192.045L383.289,190.029L383.516,189.606L385.99,187.096L386.232,186.504L386.388,185.573L386.601,185.291L388.549,185.192L389.715,185.136L389.814,185.108L390.411,184.699L392.586,184.064L394.036,182.978L394.633,181.751L397.15,180.905L399.467,179.269L402.111,179.156L402.353,179.255L404.798,179.579L406.234,181.568L406.504,181.878L407.684,183.514L408.025,183.979L408.409,184.402L408.722,184.586L411.437,185.897L412.617,185.108L414.294,185.164L414.948,184.388L415.261,185.756L415.332,186.236L418.417,188.012L418.63,188.435L419.427,189.084L419.711,190.832L420.791,191.763L421.659,194.766L420.265,196.81L420.052,197.149L419.967,197.459L419.881,197.868L419.029,199.968L419.128,201.392L419.299,201.631L419.384,204.592L419.1,205.029L420.223,207.368L419.739,208.595L419.668,208.891L419.228,210.384L419.171,210.652L419.171,211.16L419.27,211.343L419.697,211.695L420.052,212.005L420.28,212.343L420.507,212.78L421.133,213.908L421.332,214.049L422.156,215.007L423.393,217.994L423.72,218.629L423.876,218.896L423.791,219.22L425.184,220.629L425.525,220.798L426.25,222.729L427.928,224.659L427.686,225.237L428.17,228.35L428.852,229.59L429.008,230.224L429.222,232.126L430.131,234.535L430.117,234.859L430.501,236.591L429.989,239.493L430.402,240.169L430.402,240.549L430.629,241.295L430.984,241.591L431.638,246.126L431.681,246.408L432.719,247.238L433.174,248.675L433.415,249.351L434.51,250.238L435.107,249.999L437.623,248.872L439.088,249.365L439.514,249.576L441.391,250.745L441.59,250.801L442.784,251.026L443.509,252.674L443.879,252.984L445.442,255.8L445.556,256.039L445.656,256.898L445.826,257.236L447.077,260.305L447.205,260.432L448.357,261.445L452.821,262.783L453.19,262.051L457.128,262.515L457.811,262.191L460.554,262.67L462.246,261.98L466.667,263.782L466.98,263.768L469.923,262.769L470.875,264.514L471.245,264.57L471.799,265.105L471.87,265.133L472.823,264.95L474.458,267.498L476.135,268.202L478.055,266.429L478.339,264.838L480.557,263.655L481.879,259.981L482.888,258.306L485.675,256.673L486.471,255.039L486.527,254.504L487.707,252.477L487.068,251.505L489.84,251.956L489.584,251.153L491.134,251.069L493.081,251.871L495.228,250.013L494.858,248.379L494.702,247.999L494.901,246.112L494.332,244.267L492.569,241.084L494.816,237.394L493.55,233.084L492.356,232.253L491.091,227.237L490.608,223.264L489.428,221.855L489.527,221.221L489.868,220.46L488.717,218.685L488.504,218.333L486.556,215.627L487.096,212.78L489.342,210.765L489.129,208.58L489.811,206.48L489.484,204.874L489.584,204.606L489.982,203.52L489.285,201.039L488.319,199.503L487.409,196.641L487.622,195.09L485.874,192.595L486.257,191.791L485.575,186.842L489.015,183.909L489.342,183.824L491.66,182.174L492.299,179.89L492.47,179.664L496.095,177.295L495.825,171.215L495.37,170.891L494.432,169.198L494.119,168.958L493.508,166.462L494.233,164.303L493.849,162.822L493.877,162.413L493.693,161.284L493.707,160.988L494.076,160.395L493.749,157.912L493.778,157.7L493.934,155.654L493.877,155.33L493.835,154.045L493.963,153.41L493.991,153.199L493.991,152.973L493.835,151.237L493.65,150.913L492.939,150.08L493.095,149.826L493.209,149.643L493.38,149.417L493.735,148.852L493.764,148.669L494.986,146.848L495.271,146.764L495.512,146.425L495.626,146.227L495.868,146.044L496.038,145.634L496.337,143.616L496.251,143.348L494.901,140.214L494.901,139.763L495.071,138.281L494.816,137.942L494.375,136.897L494.503,136.685L494.56,136.516L494.617,136.177L494.602,133.029L496.792,131.533L497.303,130.601L497.574,130.347L497.758,130.318L498.256,130.093L499.208,129.796L499.493,129.697L499.862,129.5L500.445,129.217L501.327,127.946L501.511,127.579L502.578,126.436L502.791,126.224L503.857,125.56L504.198,125.391L504.98,123.979L505.193,123.88L505.833,122.284L505.819,122.101L506.942,119.234L507.411,119.093L508.008,119.079L510.667,117.737L511.051,117.186L511.69,116.635L511.875,116.48L513.197,115.859L513.439,115.717L515.515,115.294L515.685,114.658L515.941,114.122L516.14,114.037L517.619,112.723L519.083,114.842L519.083,115.11L520.604,117.681L520.803,117.751L522.21,117.991L522.395,118.076L524.201,119.714L524.542,119.884L525.978,125.73L526.106,126.294L526.319,127.17L526.39,127.509L526.518,128.102L526.717,128.878L526.902,129.612L527.129,130.53L527.286,131.166L527.399,131.646L527.655,132.69L527.897,133.622L528.793,137.278L528.963,137.928L528.992,138.069L529.162,138.718L529.532,140.229L529.788,141.287L529.873,141.598L530.001,142.148L530.925,142.035L531.764,141.922L534.067,140.878L534.906,140.878L536.811,140.751L537.365,140.652L538.872,140.341L540.123,140.059L540.677,139.932L541.246,139.805L545.369,139.297L545.724,139.283L550.131,139.255L550.714,139.255L554.837,139.283L558.405,142.346L558.49,142.741L558.718,143.757L558.974,144.999L561.419,156.148L561.533,156.698L562.57,161.608L562.656,162.032L565.655,161.905L566.452,161.397L566.622,161.298L568.612,161.354L569.167,161.326L570.347,161.044L570.873,160.988L571.797,159.266L573.304,159.069L573.474,159.083L574.512,158.942L574.91,158.899L575.749,158.914L575.991,158.899L577.469,158.772L577.611,158.744L578.237,158.434L578.478,158.406L579.587,158.067L579.843,157.912L581.819,157.757L582.331,157.757L585.686,159.196ZM529.063,298.483L529.063,298.469L529.063,298.483ZM529.063,298.469L529.063,298.483L528.977,298.483L528.977,298.469ZM528.977,298.469L528.977,298.483L528.892,298.469L528.892,298.455ZM528.892,298.455L528.892,298.469L528.807,298.469L528.807,298.455ZM528.807,298.455L528.807,298.469L528.721,298.469L528.721,298.455ZM528.721,298.455L528.721,298.469L528.721,298.455ZM656.981,342.251L658.758,343.754L658.801,345.061L656.881,344.316ZM786.605,338.302L788.183,338.653L789.605,340.635L787.828,341.913L785.766,341.97L785.454,339.833L784.018,338.316ZM681.902,598.463L682.997,599.958L682.144,600ZM684.845,549.078L685.328,550.197L683.608,549.889ZM349.482,571.316L351.288,570.589L352.695,572.91L351.43,575.245L348.772,573.805L347.791,574.546L346.625,572.952L347.592,572.211L346.454,570.659L346.383,569.582L347.535,568.729ZM627.909,581.215L628.861,583.382L627.724,581.872ZM597.102,470.472L596.988,471.593L596.078,471.467Z"
          fill="#e0e0e0"
          stroke="#333333"
          stroke-width="1"
          stroke-linejoin="round"/>
  </g>
</svg>