<?xml version="1.0" encoding="UTF-8"?>
<svg xmlns="http://www.w3.org/2000/svg"
     viewBox="41.13339626493689 -20 717.7332074701262 639.9999999999964"
     width="717.7332074701262"
     height="639.9999999999964">
  <title>愛知県</title>
  <desc>都道府県コード: 23</desc>
  <g id="23">
    <path d="M589.64,160.927L590,160.695L593.03,160.034L593.228,160.034L595.014,160.355L595.537,160.337L597.575,159.23L597.989,159.016L602.678,155.907L602.498,155.747L602.353,155.604L602.624,155.425L603.003,155.354L603.327,155.157L603.724,155.014L604.914,154.996L605.527,154.639L606.14,154.3L608.936,152.531L609.477,152.388L609.765,152.46L611.605,152.817L612.218,152.585L616.6,151.584L616.78,151.566L618.133,151.388L618.674,151.281L624.444,153.281L624.967,153.353L625.869,153.514L626.5,153.442L626.626,152.888L626.644,149.994L628.863,149.583L631.531,147.493L631.748,147.279L631.459,143.08L631.604,142.919L631.784,141.508L631.91,140.865L633.299,139.846L636.274,140.507L637.068,140.078L637.573,140.06L638.24,140.239L638.781,140.328L639.196,140.382L642.334,139.203L643.361,137.684L646.716,137.398L646.806,137.13L648.068,134.807L648.411,135.021L649.042,136.308L649.276,136.397L649.439,136.648L650.124,137.612L650.557,137.863L651.242,138.006L651.783,138.006L652.486,137.612L652.865,137.041L653.352,136.451L653.677,136.272L653.929,136.254L655.534,136.237L655.949,136.433L656.255,136.505L656.887,136.63L658.149,137.469L658.311,137.487L659.285,136.916L659.844,136.54L662.08,136.165L662.297,136.344L662.441,136.397L662.982,136.773L663.126,136.916L663.18,137.219L663.343,137.434L663.667,137.755L664.893,138.667L664.947,138.899L665.507,139.328L666.066,139.292L667.725,138.631L668.266,138.595L668.41,138.595L668.735,138.756L669.005,138.988L670.231,138.828L670.43,138.256L671.53,138.149L671.692,138.613L671.8,139.328L671.764,139.882L670.772,141.686L671.692,144.134L672.72,144.384L672.99,144.17L675.75,144.938L676.002,144.259L676.579,144.116L679.302,143.705L680.222,144.402L680.528,144.313L682.278,144.813L682.368,145.188L682.422,145.564L682.512,145.671L684.676,146.35L684.965,146.117L685.812,145.349L685.956,145.278L687.435,145.992L687.634,145.707L687.85,145.242L688.914,145.403L689.166,145.51L691.33,145.224L693.314,144.17L693.458,144.617L696.236,146.528L698.165,146.725L698.904,148.476L698.309,150.87L698.075,151.12L697.281,152.174L697.083,152.567L697.895,154.746L698.273,155.104L698.959,155.55L699.103,155.604L701.321,155.979L701.591,157.479L703.16,157.426L703.539,157.408L704.152,157.247L704.296,157.39L704.603,157.89L707.146,155.604L709.544,156.211L709.707,156.461L710.951,156.372L711.149,156.157L714.738,156.247L716.992,155.836L720.671,152.871L722.348,152.62L724.819,150.995L725.143,150.959L726.099,149.941L726.333,149.923L728.858,148.833L732.266,148.511L738.867,150.977L735.981,151.995L733.366,151.62L732.735,152.21L732.717,152.728L732.771,153.156L732.843,153.692L733.637,154.478L734.052,154.639L734.809,155.979L733.529,156.765L730.12,156.622L729.255,157.801L729.111,158.319L728.696,161.409L726.55,164.981L726.514,165.356L726.496,165.588L726.478,166.499L726.405,168.089L724.007,169.553L723.484,169.41L720.959,168.535L718.669,171.375L718.741,172.286L718.94,172.696L719.625,174.589L722.799,177.75L724.223,178.304L725.558,177.661L725.81,177.554L727.938,178.482L728.371,178.929L728.479,179.054L729.129,179.75L729.615,180.339L731.87,183.41L731.797,183.714L730.878,185.196L730.625,185.517L729.471,187.285L729.183,189.659L730.138,190.605L730.661,190.891L732.591,191.48L733.565,194.015L729.597,196.764L727.055,195.336L726.712,194.658L726.153,193.515L725.937,193.39L724.71,194.515L724.458,195.015L724.368,195.3L724.169,195.961L723.971,199.87L724.981,201.316L725.414,202.066L725.125,202.369L724.891,202.547L724.53,202.833L722.636,204.297L722.456,204.582L721.645,206.528L721.23,207.402L720.923,207.884L720.148,208.776L717.407,209.008L716.577,208.045L716.469,207.634L715.928,205.617L715.351,205.136L712.574,206.189L712.195,207.955L712.141,208.741L712.087,210.24L712.141,210.436L712.592,211.007L713.187,211.311L714.233,211.507L714.666,211.525L715.171,211.632L716.144,212.81L716.217,213.309L716.289,214.112L716.162,214.666L716.036,215.058L715.748,216.165L716.126,219.733L716.289,220.483L716.631,221.928L716.92,223.249L717.443,225.461L717.497,225.925L717.479,226.496L717.244,226.888L713.998,228.619L713.674,229.368L713.584,229.957L712.664,234.024L709.021,233.971L707.452,233.329L706.929,233.275L704.08,231.67L704.026,231.866L702.583,235.469L702.187,235.915L702.024,236.004L701.934,236.165L701.97,236.54L701.934,237.182L701.267,237.663L701.339,237.985L701.682,238.377L701.718,240.767L701.826,240.999L701.682,241.249L701.79,242.533L701.862,242.908L702.006,243.157L702.205,243.799L702.565,245.975L702.619,246.493L702.421,246.867L701.97,247.063L700.96,247.491L700.852,247.848L700.96,248.294L700.582,248.775L699.319,250.006L698.977,250.327L698.093,250.523L697.895,250.363L695.731,250.595L695.64,251.522L695.64,251.789L694.432,253.18L692.178,253.537L691.781,253.769L691.583,254.019L691.565,254.999L691.475,255.659L688.535,256.355L688.102,257.264L688.012,257.407L685.325,259.261L685.055,259.422L683.107,261.062L682.765,261.169L682.386,261.437L679.843,264.61L679.338,266.304L679.248,266.607L679.23,266.697L679.176,267.445L679.176,267.713L678.941,267.891L677.138,269.496L676.886,269.817L676.777,270.066L676.525,270.815L675.768,272.17L675.641,272.33L673.928,273.453L673.261,273.685L672.846,273.792L672.449,273.988L672.053,274.648L671.999,274.969L671.025,276.003L670.79,276.199L669.294,276.11L668.284,281.956L668.23,282.384L666.048,283.935L665.669,284.63L665.02,286.983L663.505,288.497L663.27,288.533L661.215,292.971L661.233,293.505L661.052,294.289L660.728,294.557L660.295,294.967L660.187,295.234L660.259,295.483L660.421,295.875L659.303,299.6L659.393,300.33L659.736,301.186L659.862,301.364L659.898,301.595L659.736,301.952L659.646,302.201L659.664,302.54L659.772,302.807L659.988,303.039L660.313,303.181L660.637,303.466L661.395,304.571L663.108,304.446L663.397,305.729L663.252,306.121L661.052,308.758L659.123,312L658.708,312.41L659.393,314.495L659.537,314.869L659.628,315.403L662.026,319.482L662.369,319.928L662.657,320.64L662.838,321.21L662.423,322.065L662.08,322.119L661.738,322.279L661.485,322.706L658.149,322.546L656.887,321.691L655.552,322.884L655.065,324.933L654.939,325.164L653.027,327.48L652.757,327.462L653.045,330.133L653.009,330.294L652.577,332.466L652.432,332.556L650.575,333.98L648.735,333.731L648.501,334.301L647.311,336.028L647.13,337.845L645.85,338.325L644.588,340.48L644.443,340.533L643.957,340.142L641.612,338.468L640.422,338.503L640.061,338.664L637.032,339.768L636.382,340.231L634.11,343.133L633.93,343.382L633.569,344.059L633.371,344.415L633.317,344.593L633.335,344.949L633.497,345.59L633.317,345.768L633.136,345.964L632.776,346.445L632.668,346.747L632.541,346.943L630.215,349.026L631.009,350.86L631.135,351.02L631.207,351.43L631.171,352.213L631.063,354.795L630.918,354.99L630.053,357.127L629.728,357.678L629.313,358.284L628.754,358.729L627.871,359.352L628.195,362.876L628.123,363.072L628.213,363.392L628.394,364.069L627.474,366.81L625.418,367.041L625.364,367.344L624.084,369.8L624.138,370.351L624.066,371.188L624.066,371.544L624.174,372.274L624.282,372.683L624.066,373.092L623.867,373.573L624.823,374.907L625.021,375.068L624.553,377.541L624.39,377.684L623.705,378.36L623.38,378.911L622.298,379.054L622.1,379.463L621.09,380.887L620.874,381.118L620.098,382.933L618.006,384.161L617.79,384.534L616.293,385.531L615.933,385.691L614.436,386.136L613.931,386.563L613.408,386.847L612.506,387.506L612.019,387.523L610.432,387.986L610.036,390.103L607.601,390.637L607.349,390.584L607.258,390.53L607.042,390.317L606.862,390.299L606.267,390.334L603.471,390.815L603.129,390.797L601.506,391.42L601.091,391.491L600.766,391.526L600.171,391.687L598.206,394.017L598.494,394.337L598.025,399.781L598.152,400.261L597.088,402.573L596.871,402.929L596.583,403.392L594.96,405.757L593.12,407.358L593.066,407.838L592.543,407.909L592.002,407.981L586.646,407.251L586.556,407.429L585.582,407.714L585.312,407.607L582.228,406.913L581.795,406.913L579.198,406.878L578.964,406.753L576.728,406.985L576.475,407.127L576.259,407.34L575.844,407.376L572.49,406.718L572.129,407.803L572.147,408.443L571.174,408.959L570.939,409.243L568.739,410.951L566.827,413.672L566.359,413.583L565.601,413.654L563.888,413.067L563.744,412.765L562.481,412.16L561.976,412.213L561.58,412.285L561.165,412.391L559.632,413.032L559.524,413.369L556.386,414.419L556.296,414.739L554.475,417.122L551.824,417.958L551.427,418.1L547.91,419.042L547.514,418.882L546.215,419.078L545.62,419.256L544.376,419.825L544.159,419.718L544.033,419.754L542.5,421.283L542.681,422.439L542.428,422.634L541.869,424.412L541.887,424.555L543.492,426.902L542.248,428.271L541.977,428.342L539.723,429.586L539.417,430.173L538.858,432.395L537.758,433.498L536.982,433.747L536.297,433.96L534.98,435.098L535.107,435.933L536.639,439.08L537.072,439.56L538.659,440.715L538.93,441.071L539.254,442.173L538.569,445.23L538.461,445.514L537.631,446.421L538.461,449.94L538.425,452.695L537.126,454.045L536.531,454.419L532.456,455.805L532.095,455.947L530.021,459.057L529.751,459.785L529.606,460.603L529.138,461.118L529.39,462.273L529.841,462.931L530.364,463.677L529.029,466.182L529.318,470.358L529.39,471.122L529.462,471.566L529.408,471.903L529.047,474.231L528.795,474.355L527.983,475.083L528.182,477.944L527.497,478.778L528.651,481.354L529.841,482.029L529.985,482.42L530.905,485.653L530.58,485.83L530.58,487.198L530.616,487.944L530.039,489.756L530.165,490.146L530.526,490.555L531.031,491.07L531.302,491.23L531.32,492.509L531.5,492.846L531.175,493.929L531.338,495.35L531.915,495.51L532.239,495.723L532.239,496.096L532.185,497.25L532.528,500.109L532.816,500.251L535.161,502.009L536.441,507.549L536.441,508.135L536.459,508.295L536.513,508.863L537.758,512.361L537.74,512.574L536.369,520.066L536.207,520.811L535.377,523.296L534.908,523.669L534.439,524.344L534.331,524.344L533.61,525.533L533.7,525.994L534.043,529.402L534.043,529.615L533.79,532.384L515.775,535.543L504.991,537.619L496.118,540.015L488.959,541.523L480.7,543.688L476.047,544.505L466.67,547.024L463.694,547.45L459.763,548.834L452.802,550.431L447.374,552.258L434.462,555.966L431.162,556.747L422.848,559.674L411.487,563.346L404.49,565.989L400.884,567.035L397.349,568.614L391.885,570.476L383.788,573.864L381.047,575.354L379.063,575.017L375.727,575.921L371.273,577.659L364.095,580.975L361.967,584.061L362.31,580L361.499,578.439L359.551,579.237L361.12,579.592L361.715,581.436L360.2,582.926L359.713,581.844L354.989,583.352L347.396,587.058L338.831,590.019L333.98,591.969L328.894,593.015L326.496,592.855L323.196,593.777L320.274,593.76L316.469,592.448L314.251,592.891L308.697,591.136L307.164,591.189L299.139,592.909L285.866,596.242L275.677,599.131L274.415,600L272.287,599.752L270.285,598.156L264.677,599.131L262.405,599.947L260.962,598.475L262.477,595.568L265.398,595.674L265.777,594.185L268.446,590.32L269.744,585.515L269.726,583.937L272.179,578.599L274.09,575.389L276.759,569.962L278.058,566.503L286.786,547.113L291.853,541.47L295.821,540.21L299.608,540.956L303.882,544.416L305.252,543.848L304.333,546.598L304.405,549.597L302.259,550.307L308.39,552.329L310.5,552.223L313.98,554.529L312.502,556.924L311.564,556.8L311.726,561.537L312.52,561.519L313.71,559.035L316.685,558.698L320.166,559.869L321.987,559.834L325.774,557.882L327.361,557.758L331.473,555.594L333.637,552.453L331.743,548.852L329.183,548.053L327.776,548.337L326.063,546.031L327.902,545.001L330.752,545.108L335.675,546.598L340.219,546.208L343.808,544.38L343.844,546.102L346.747,545.871L351.129,544.629L356.143,541.098L361.246,535.241L363.122,535.312L365.159,536.839L366.963,536.2L371.994,529.686L374.591,529.597L375.204,528.799L379.604,531.177L382.003,531.301L385.663,528.604L387.052,526.438L385.645,525.497L387.485,522.072L388.927,522.959L393.562,521.965L393.49,520.971L391.272,520.705L387.286,514.687L394.716,509.698L398.611,510.408L401.984,516.355L403.553,517.03L404.148,514.917L407.159,508.011L404.166,502.862L417.565,492.224L426.924,494.267L426.816,500.944L426.888,518.486L420.847,518.521L421.243,520.314L419.981,523.03L418.556,524.699L419.097,526.261L418.34,528.071L422.722,527.219L422.921,525.604L426.762,527.042L429.972,527.663L430.711,528.32L432.532,526.562L434.209,523.509L435.58,522.196L431.18,519.657L433.037,516.728L435.436,517.456L439.06,517.527L440.936,513L439.151,512.556L439.151,514.349L437.924,514.03L433.236,514.367L433.218,513.479L431.306,512.609L431.36,496.7L434.173,496.433L443.659,496.664L443.641,499.133L448.6,499.15L448.654,496.522L451.305,494.764L452.063,495.794L453.668,494.746L454.858,495.474L456.445,494.693L454.497,493.112L453.848,491.425L448.925,493.929L443.118,492.651L443.244,492.011L438.177,490.892L438.501,469.949L438.267,464.867L438.664,463.73L441.297,463.961L444.416,457.191L442.595,454.454L441.243,453.654L437.726,457.173L431.342,458.399L428.313,448.411L436.103,445.888L435.111,443.559L432.478,439.968L427.573,436.466L422.416,434.831L419.747,434.351L418.773,435.098L423.047,435.827L422.939,439.595L422.235,440.235L418.322,439.311L415.148,440.235L414.445,438.049L415.256,436.307L412.137,436.449L412.696,439.382L410.604,439.631L409.287,440.84L405.897,439.222L401.912,440.306L399.874,438.76L398.287,439.666L397.98,438.191L396.429,436.52L395.726,434.138L393.093,432.875L393.778,434.653L390.37,433.942L385.213,432.111L385.032,430.618L383.409,430.28L377.639,427.008L377.62,428.022L381.588,431.524L380.163,433.124L377.747,430.973L376.701,432.182L379.424,434.582L376.286,439.009L377.368,440.04L376.304,441.213L375.132,440.146L373.924,441.479L367.486,435.578L364.312,439.968L362.923,444.892L360.29,448.465L361.282,449.14L362.869,448.483L362.599,450.491L361.3,450.331L360.561,451.895L361.697,453.335L360.958,457.653L362.743,458.382L362.22,460.461L358.054,465.276L356.63,465.916L355.475,467.693L353.275,467.39L350.715,468.03L349.813,465.667L351.508,464.068L353.726,463.641L354.069,461.491L353.275,460.745L354.231,459.057L355.71,458.613L355.025,456.409L353.42,455.592L353.492,454.17L349.921,452.446L349.903,454.063L347.992,454.063L346.711,452.695L344.619,454.472L340.778,456.622L339.444,456.018L336.36,451.415L333.439,451.095L330.193,451.451L329.165,453.761L329.165,456.071L324.115,455.236L322.817,452.517L321.068,452.304L320.491,450.473L318.633,449.744L317.244,450.313L313.385,449.851L314.558,452.144L312.628,453.05L311.744,454.685L309.58,454.934L305.974,459.004L303.088,460.887L300.257,456.818L299.986,455.005L296.921,453.921L296.452,452.57L292.611,452.944L288.752,454.401L288.589,455.663L283.847,457.457L280.474,458.079L280.294,459.59L275.84,460.674L271.8,459.448L271.241,460.372L266.985,459.217L263.847,455.432L263.361,454.134L260.637,452.055L263.361,450.758L260.169,449.869L258.87,448.411L259.231,446.225L255.462,443.915L252.288,440.111L250.791,435.702L251.17,433.693L252.991,434.227L250.413,431.755L246.968,431.151L246.68,432.164L238.547,429.995L235.174,428.786L232.686,427.311L231.513,427.311L227.041,419.86L226.735,417.584L227.51,417.157L226.392,415.112L225.58,409.226L226.302,407.945L231.387,407.856L231.64,405.935L227.258,405.686L226.212,404.619L233.93,392.665L232.83,392.042L233.623,390.441L237.573,391.882L238.384,390.157L235.102,388.591L238.691,377.399L242.784,377.417L242.334,374.747L240.386,374.729L240.296,376.491L239.015,376.473L239.286,362.004L239.953,361.452L240.115,357.981L239.484,357.928L239.755,355.079L240.765,355.186L241.811,351.839L240.151,348.599L241.468,341.352L242.37,341.531L244.263,335.832L242.532,335.975L242.947,333.179L241.161,332.377L240.584,336.545L238.132,346.747L236.635,360.313L233.786,362.271L236.238,364.282L235.337,366.97L234.345,371.793L232.018,377.256L227.294,386.029L229.043,386.918L231.369,389.267L230.522,390.975L228.808,390.174L228.231,393.128L227.077,392.558L227.69,389.552L224.192,387.808L223.957,388.288L219.738,386.189L217.267,388.733L215.247,388.093L213.985,390.619L215.788,391.402L217.736,389.409L220.82,390.939L220.693,394.337L217.159,399.941L210.486,397.059L210.396,401.969L211.406,401.684L214.688,403L215.337,405.17L214.436,405.544L214.418,409.048L211.424,409.332L211.28,406.415L209.567,405.989L209.945,410.808L211.893,410.88L212.001,412.765L211.154,415.77L215.013,418.064L214.652,422.172L207.908,422.456L207.096,421.532L206.916,423.808L209.675,423.897L208.827,433.515L207.06,433.658L205.726,435.649L207.006,440.626L205.275,444.555L206.357,448.234L203.399,455.467L202.93,459.217L203.489,459.43L202.678,462.095L202.696,464.583L206.339,468.172L209.783,468.812L210.036,473.751L214.292,476.078L215.824,478.707L219.034,480.466L220.297,483.539L224.174,487.163L227.149,487.429L231.495,489.898L232.686,491.425L233.696,495.421L234.778,496.558L233.173,498.049L231.189,497.89L231.135,499.506L230.089,499.115L231.64,501.477L233.876,500.34L235.409,502.258L236.401,501.796L235.751,504.407L233.912,505.17L233.425,507.248L234.669,506.839L236.653,510.745L238.402,509.769L239.015,511.367L237.104,512.876L236.942,514.509L235.174,514.474L236.996,516.426L236.004,517.385L233.515,513.941L229.241,513.071L226.248,514.332L218.8,513.479L216.852,511.42L218.205,510.656L216.762,509.68L215.446,510.23L214.76,508.295L213.57,508.917L213.516,512.503L211.424,511.917L211.767,510.71L204.896,507.354L203.075,505.738L200.821,505.064L198.152,502.879L196.673,502.986L193.733,500.891L185.817,498.369L184.969,496.7L182.787,494.711L177.485,492.704L175.736,490.058L175.411,488.548L173.067,487.18L170.993,487.393L171.354,485.955L168.847,481.94L165.836,479.631L163.798,475.581L162.121,474.053L161.435,471.583L159.416,468.936L161.291,467.515L164.068,459.554L168.613,447.932L169.983,443.15L170.037,440.928L169.226,440.768L171.877,433.64L172.598,428.662L173.464,427.631L174.077,424.821L173.608,424.199L174.672,415.717L172.977,412.729L172.977,411.146L171.047,406.807L169.082,403.712L169.478,402.2L169.172,399.158L167.765,396.721L165.511,395.084L164.681,393.715L161.183,392.238L157.648,389.73L158.298,388.413L159.596,389.053L159.524,387.434L158.045,383.698L156.35,385.78L156.602,387.559L155.052,390.744L153.356,389.303L152.094,390.157L150.219,387.274L148.56,383.645L148.812,380.993L151.643,377.559L150.327,376.26L150.165,374.427L148.938,371.224L149.912,370.085L148.974,369.177L148.632,367.041L149.155,363.784L148.92,361.968L149.696,358.123L150.147,352.373L149.263,347.424L150.886,344.397L151.463,341.531L151.427,335.512L152.473,331.914L152.797,329.19L147.983,325.627L154.078,316.882L156.999,318.556L158.478,315.937L155.719,314.334L157.937,311.234L162.914,302.522L165.944,303.039L167.585,299.511L161.49,298.441L162.806,296.107L163.78,296.267L164.862,294.272L173.229,295.751L174.311,295.519L173.68,297.426L175.015,298.441L176.656,295.679L177.016,292.864L166.611,291.028L166.232,290.173L167.531,287.268L175.321,273.382L176.836,271.849L187.854,271.849L187.891,269.549L183.202,269.406L182.03,268.194L186.195,255.124L184.789,254.09L184.464,251.754L185.384,251.789L185.528,248.936L186.538,249.025L186.394,251.843L188.053,251.914L188.179,247.705L191.822,247.545L191.858,246.921L188.323,246.51L188.63,241.998L191.876,242.515L192.128,241.534L188.359,240.607L188.486,238.02L189.55,236.7L187.259,235.362L185.276,238.841L179.775,237.681L175.826,239.233L174.762,241.57L176.259,243.568L173.59,249.346L172.093,247.349L171.462,248.704L173.013,250.933L172.31,252.307L170.921,250.345L169.064,250.452L168.775,246.35L168.054,246.778L168.018,252.681L169.911,252.164L170.831,253.341L170.831,255.517L169.695,260.189L168.018,259.689L168.27,261.651L163.581,261.615L163.527,259.6L160.768,259.761L162.572,256.212L164.862,246.457L163.473,242.908L155.142,243.889L152.274,243.193L150.706,244.477L148.848,247.277L149.75,250.434L147.514,250.719L146.9,255.624L147.405,256.872L149.732,256.872L149.732,253.394L155.394,256.337L155.557,259.547L153.645,263.291L153.501,266.162L145.999,266.197L145.981,265.235L134.241,265.288L134.259,270.12L136.405,270.102L136.405,277.981L136.171,281.386L127.983,276.52L124.864,278.017L126.27,279.55L134.061,286.02L134.223,286.573L132.474,291.545L127.767,287.927L125.206,288.925L122.934,286.074L118.967,286.608L118.426,285.788L120.175,284.505L118.714,282.491L114.801,277.143L112.312,272.58L108.958,264.2L108.309,259.992L107.984,257.96L108.183,250.951L107.552,246.154L106.74,244.549L102.268,240.839L98.391,236.022L96.659,233.364L92.169,230.492L92.133,230.082L89.554,228.476L88.562,228.904L88.49,228.869L86.128,227.192L82.737,222.874L79.041,218.003L78.373,217.093L77.923,216.468L76.516,214.933L74.965,213.309L73.847,213.274L68.942,211.507L66.724,210.615L64.253,210.383L62.143,206.171L61.242,202.583L61.566,198.567L63.063,193.587L63.189,191.48L62.792,188.142L61.133,177.964L61.296,174.857L61.386,172.946L61.873,167.821L62.792,166.178L63.911,164.981L65.714,163.356L68.166,159.962L68.239,157.658L67.535,155.925L67.265,146.421L66.543,141.007L66.345,140.186L66.201,139.507L65.389,135.111L65.191,133.27L65.083,131.001L65.137,130.339L66.111,127.837L70.168,123.709L72.531,122.011L75.65,118.15L77.49,114.11L78.95,109.98L81.565,104.367L83.982,101.041L85.28,100.04L89.211,96.732L92.043,93.155L93.377,90.902L94.387,88.953L97.958,80.046L98.679,78.436L101.655,72.551L103.205,69.813L105.279,66.361L107.425,61.637L109.824,55.303L112.276,48.019L114.837,44.171L117.506,41.111L119.977,39.518L120.842,39.231L126.018,39.536L132.798,40.09L132.6,41.648L132.42,42.22L131.897,43.563L138.479,45.925L143.6,46.301L145.981,46.516L155.917,48.878L161.778,45.317L167.982,42.22L171.985,39.553L173.734,37.047L176.62,36.886L177.702,36.779L180.19,36.135L186.069,33.539L189.477,33.181L190.325,33.109L199.053,33.521L202.407,33.342L206.519,32.483L206.916,32.375L208.16,31.749L210.991,29.547L214.49,25.912L215.77,25.089L217.213,24.319L223.344,21.15L228.087,19.431L230.269,16.96L230.702,11.821L229.584,7.343L229.584,6.931L230.323,4.299L230.774,3.385L233.966,1.827L237.32,2.131L244.281,0L248.158,0.251L246.662,1.075L245.525,2.937L244.281,3.296L243.668,4.997L243.614,5.194L244.678,6.591L243.452,7.397L243.217,9.063L239.737,12.967L239.538,15.277L241.468,16.423L244.804,16.118L246.265,18.357L245.976,20.147L247.221,22.475L249.349,22.367L249.817,22.815L251.693,24.444L251.927,28.097L253.442,29.404L253.406,30.728L260.818,30.657L261.539,33.217L261.575,33.539L263.902,34.882L267.652,35.222L268.446,34.506L270.195,38.802L271.187,39.607L271.908,40.305L275.84,41.111L278.346,40.753L279.699,42.417L279.915,42.883L281.123,46.319L279.699,51.885L278.436,52.726L279.248,54.211L278.905,57.271L279.032,57.754L279.14,58.094L279.05,60.546L279.158,60.868L279.897,63.391L280.943,64.267L281.719,63.301L282.205,63.14L283.576,63.051L285.506,61.351L287.796,60.886L289.184,62.281L289.112,62.729L291.781,63.337L292.881,66.683L293.747,66.951L294.36,69.617L294.54,69.903L293.603,70.654L292.863,70.923L289.383,74.035L289.058,75.788L291.042,80.207L290.862,82.246L293.044,82.89L293.855,83.498L295.695,84.231L298.508,83.909L299.698,85.089L298.688,86.628L299.427,89.596L298.508,91.438L299.391,94.3L299.842,94.353L305.649,93.888L306.677,95.051L307.434,95.39L309.616,94.049L308.895,91.421L310.68,89.346L310.843,87.593L316.812,89.239L317.371,89.579L321.248,90.222L322.817,91.528L323.033,91.599L328.588,93.262L330.715,95.677L331.743,96.839L334.665,100.201L335.711,102.543L336.847,103.115L338.903,101.828L340.76,103.455L342.78,102.203L343.213,101.989L348.208,100.683L348.821,102.382L348.965,102.883L350.697,104.438L350.57,105.529L352.662,106.423L353.149,108.854L354.213,109.712L354.646,109.909L354.79,111.536L354.484,111.822L354.357,112.161L353.925,112.805L354.592,116.916L358.884,120.313L358.992,121.117L361.553,122.35L362.184,122.493L362.328,122.404L362.761,121.6L367.215,122.279L367.756,122.851L369.289,122.225L369.614,122.547L370.371,120.724L371.94,121.85L372.174,122.082L373.184,121.117L373.671,118.561L374.429,118.329L374.861,117.417L380.722,117.238L380.921,120.152L382.58,119.687L385.808,116.452L387.773,116.398L388.314,114.45L389.811,113.449L391.651,113.484L391.867,113.574L392.823,114.021L394.987,111.268L395.618,111.25L397.908,110.499L398.215,110.338L399.531,108.121L401.659,108.264L401.713,106.601L403.661,106.226L403.517,104.921L402.831,103.884L403.174,101.667L404.707,99.271L407.79,98.108L409.972,98.609L411.307,97.357L411.92,95.498L413.832,97.286L416.519,97.304L416.807,96.893L422.145,96.875L424.453,95.748L425.481,96.749L427.573,95.444L431.072,95.033L431.072,96.088L434.949,98.377L438.754,99.932L441.279,102.65L442.559,102.543L448.456,106.834L448.42,106.405L448.348,105.886L452.297,107.442L453.325,109.194L452.586,110.821L450.349,112.805L449.971,113.055L450.584,115.111L451.089,116.309L452.658,116.184L452.694,117.024L451.99,118.722L454.948,119.169L455.705,119.204L457.112,118.15L459.042,118.15L462.937,116.452L466.309,116.899L467.662,114.95L468.834,114.825L470.403,117.417L471.358,117.935L471.665,118.06L474.695,117.042L475.813,118.114L476.786,123.012L475.831,125.246L474.478,126.122L475.993,127.659L476.642,130.5L477.598,131.322L481.493,131.519L484.883,130.161L486.434,132.448L486.849,132.627L488.833,133.896L488.887,134.861L489.879,134.807L494.369,131.179L495.379,132.52L496.389,135.772L498.066,137.666L498.553,140.043L501.637,143.598L504.901,142.544L506.884,138.47L508.399,138.452L508.525,136.451L508.688,136.022L511.05,135.879L513.755,134.896L515.45,131.054L518.047,131.733L520.175,130.983L521.311,128.356L522.844,126.693L524.629,127.587L526.541,125.103L526.937,124.424L528.921,121.886L531.843,121.171L533.556,118.972L535.341,118.775L537.992,117.542L540.769,117.81L541.346,116.613L540.769,114.217L540.913,114.199L541.292,114.271L543.023,114.628L543.907,114.914L545.818,114.575L545.945,112.698L546.864,112.644L547.351,112.805L550.345,110.785L550.724,110.409L550.183,108.514L551.932,106.512L554.042,107.299L554.348,107.621L554.565,105.922L553.411,101.792L554.168,100.361L554.565,100.344L555.953,100.022L556.152,100.111L556.999,99.861L557.955,99.879L559.849,100.129L560.642,101.345L565.673,101.846L566.088,102.149L567.747,102.579L570.29,101.899L572.165,100.022L576.854,100.522L577.269,100.648L577.738,100.648L578.513,96.338L579.415,95.927L579.974,95.927L580.208,95.855L581.326,95.838L582.282,98.144L582.481,98.377L583.617,100.755L581.2,102.096L579.739,104.635L578.261,104.76L575.754,106.619L575.159,106.727L574.943,107.924L574.979,108.354L575.051,108.443L575.52,108.908L575.321,110.356L576.151,113.466L573.716,116.47L572.562,117.202L572.129,117.167L570.975,117.328L570.272,119.848L569.965,120.313L569.713,123.387L570.128,123.387L570.254,123.494L570.596,124.191L570.777,124.567L570.975,125.139L571.408,128.266L571.498,128.606L571.805,129.339L572.382,130.053L573.157,131.269L573.644,131.465L574.311,132.43L574.762,132.645L575.087,132.698L575.285,132.77L577.359,133.824L577.575,133.913L577.918,134.128L580.154,136.219L580.208,136.433L581.308,138.256L581.344,138.559L581.579,138.738L581.831,138.917L582.318,140.06L584.608,141.097L584.717,141.704L584.735,142.33L584.663,142.723L585.654,143.223L585.907,143.402L585.979,143.634L586.195,143.956L586.322,145.26L588.251,146.028L587.782,147.708L587.836,148.19L587.223,151.066L587.313,151.459L587.909,153.103L587.873,153.335L587.007,155.104L587.061,155.389L587.295,157.068L587.079,157.497L587.584,159.301L587.566,159.873L587.764,160.534L587.945,160.73ZM164.285,262.061L164.303,263.523L166.286,263.523L167.946,262.578L166.232,270.708L163.744,268.622L162.842,269.513L165.204,273.008L164.411,273.56L162.517,271.385L161.634,272.295L163.996,275.771L162.535,275.432L162.463,277.75L158.081,265.038L159.596,262.061ZM181.417,250.791L183.815,251.843L180.443,262.596L180.803,262.756L178.062,266.536L173.915,266.34L176.854,257.121L175.285,256.943L176.367,253.537L178.766,250.809ZM437.311,479.827L437.51,479.827L437.239,490.697L431.072,489.329L431.09,485.475L432.027,485.582L432.063,482.509L434.624,482.509L434.678,479.773ZM425.589,436.413L426.852,436.609L431.054,439.826L432.641,442.315L432.983,444.075L429.052,445.248L427.285,444.786L425.95,440.591L426.581,436.573ZM275.948,491.194L280.781,493.965L281.646,493.681L283.937,495.297L281.123,497.055L284.315,498.334L283.053,499.47L282.638,502.968L280.673,503.252L281.322,500.624L279.356,499.523L277.769,495.368L276.489,495.261L274.018,496.984L273.658,499.736L270.448,497.748L271.692,496.504L269.853,494.444L271.962,494.391L273.459,493.503L273.207,491.905L274.758,490.608ZM311.672,465.01L310.915,467.55L309.418,467.444L309.58,465.525ZM337.821,462.22L337.28,464.281L335.963,463.784ZM336.901,457.546L336.811,458.755L335.458,458.293ZM389.09,450.864L388.585,452.837L385.285,452.855L384.96,451.913L386.89,451.415L388.152,450.1ZM139.417,388.484L143.474,390.993L147.369,395.618L149.209,399.674L147.081,400.101L147.441,401.969L149.66,401.56L150.237,408.941L143.384,410.346L144.268,414.97L140.913,415.628L139.687,413.12L139.795,410.969L136.351,393.608L135.107,389.836L135.918,388.787ZM148.83,329.492L150.976,329.795L149.407,334.977L147.604,336.669L147.802,337.399L142.428,333.856L146.882,327.07L149.137,328.531ZM318.543,552.152L319.553,552.223L319.246,554.192L318.056,554.245ZM324.422,549.597L326.712,550.591L325.486,550.981ZM325.233,547.432L326.225,548.461L324.891,549.278ZM399.243,503.181L398.629,505.703L396.934,506.555L395.185,505.17L397.024,504.176L398.395,504.673ZM153.97,266.786L158.658,280.388L156.332,280.566L151.03,281.796L151.138,282.295L146.486,283.364L146.359,282.865L143.204,283.596L142.338,282.901L142.32,276.11L141.869,276.074L141.851,266.839ZM257.175,542.588L256.67,544.717L256.165,542.961ZM255.498,527.698L253.46,528.71L253.226,526.42ZM257.031,524.255L258.131,525.497L258.059,530.112L255.534,531.532L254.903,533.822L255.949,536.075L255.624,537.584L253.406,537.442L253.334,535.011L250.972,534.567L252.558,532.686L252.739,530.751L251.927,529.597L256.201,529.012L255.624,526.793ZM256.598,507.638L259.934,509.076L258.059,511.544L251.531,513.763L250.196,510.372L253.081,510.337L254.163,508.437L255.66,509.236ZM148.614,296.107L142.987,304.624L136.153,299.243L141.274,292.739L145.656,289.941L148.614,289.299ZM223.128,427.311L220.549,429.249L220.82,425.835L225.977,421.852L227.348,424.003Z"
          fill="#e0e0e0"
          stroke="#333333"
          stroke-width="1"
          stroke-linejoin="round"/>
  </g>
</svg>