<?xml version="1.0" encoding="UTF-8"?>
<svg xmlns="http://www.w3.org/2000/svg"
     viewBox="197.26241395891702 -19.99999999999818 405.47517208216595 640"
     width="405.47517208216595"
     height="640">
  <title>三重県</title>
  <desc>都道府県コード: 24</desc>
  <g id="24">
    <path d="M522.435,294.874L525.187,294.363L525.938,294.933L525.648,296.152L526.378,296.653L526.028,297.882L527.519,298.943L526.678,300.977L527.849,301.213L528.009,302.756L527.559,303.709L528.95,303.68L529.58,302.481L529.981,303.483L531.522,302.717L530.641,302.382L530.101,301.518L531.362,301.272L531.652,300.407L530.951,299.474L531.162,298.049L530.411,297.41L530.641,296.358L529.841,295.877L532.482,295.179L533.463,296.535L533.443,297.4L534.334,299.484L533.563,300.899L534.524,301.97L535.535,300.388L536.035,300.565L535.935,302.206L537.016,300.948L536.786,304.299L537.616,305.232L541.159,306.264L542.71,305.065L543.81,304.996L544.201,307.138L545.782,307.816L547.063,307.462L547.343,307.914L545.502,308.926L545.852,309.634L545.331,310.42L545.582,312.571L544.221,312.021L543.24,312.286L544.321,312.758L544.861,313.995L543.43,315.371L546.052,315.282L547.213,314.742L546.442,315.979L546.873,317.099L547.743,316.667L549.484,317.296L549.484,318.631L548.474,319.299L548.414,320.998L547.203,321.136L547.073,321.794L548.494,321.725L549.244,323.188L548.304,323.571L547.133,324.602L546.792,325.467L547.673,324.838L550.155,323.728L551.326,322.393L550.015,321.784L549.354,322.265L549.084,321.028L549.845,319.731L550.945,319.073L551.266,319.731L551.996,319.564L551.566,318.091L553.567,318.337L554.048,317.983L553.067,317.512L552.336,316.539L553.897,315.724L555.639,316.431L556.94,316.608L557.95,316.107L557.75,315.037L559.471,316.255L559.661,317.502L560.872,318.199L560.832,319.024L561.943,318.789L562.584,319.574L561.993,321.018L561.143,320.989L560.992,321.794L562.033,322.638L561.443,323.935L561.903,325.103L561.403,325.162L560.672,326.34L561.102,327.774L562.213,328.461L562.493,330.268L563.394,331.377L562.303,332.016L561.573,331.839L560.122,333.812L560.582,334.617L559.802,335.864L558.501,336.306L557.61,337.317L557.62,339.967L557.99,341.262L559.361,341.498L558.941,341.881L557.54,341.302L556.809,342.224L557.15,343.098L558.461,343.922L558.991,345.021L558.641,346.052L556.549,346.209L554.788,345.492L555.589,344.462L554.498,345.1L553.867,345.002L554.288,341.724L553.777,340.978L552.296,340.88L551.396,341.537L550.825,342.813L550.065,342.774L550.165,341.194L551.005,340.605L550.975,339.957L549.825,341.223L548.824,340.536L549.204,341.616L549.094,342.744L548.534,343.314L548.674,344.079L547.903,344.344L547.583,343.49L546.022,342.882L544.851,341.802L545.662,343.755L546.472,345.07L546.592,346.405L547.173,347.926L546.672,348.181L544.641,346.071L544.541,346.67L545.422,347.504L545.392,348.171L543.88,349.143L541.499,349.516L541.229,350.595L540.348,350.379L540.298,349.192L539.107,347.955L538.166,348.122L537.526,347.386L536.715,348.093L536.515,349.349L534.534,349.624L534.464,350.889L533.003,351.674L532.843,350.929L530.921,350.242L527.959,350.104L526.418,349.123L526.668,350.565L527.069,350.477L529.701,351.193L529.18,352.655L528.66,352.871L529.761,354.598L530.921,355.177L532.282,354.363L534.354,354.274L534.704,352.969L535.405,352.979L535.945,352.194L535.395,351.556L535.365,350.32L537.396,349.408L537.396,348.299L539.167,348.956L539.477,349.388L539.147,352.636L538.507,353.744L539.197,353.98L539.367,353.136L540.738,352.263L540.698,351.831L542.399,351.9L542.199,350.703L543.44,351.017L543.07,352.077L544.151,352.655L544.901,353.646L544.151,354.726L542.019,355.187L541.979,355.687L543.63,355.756L543.44,358.169L543.89,359.062L544.811,358.306L545.201,356.187L546.502,354.627L548.173,353.892L549.424,351.841L550.195,351.772L550.035,352.91L550.505,352.881L550.885,351.007L551.946,350.095L552.536,350.801L554.248,351.537L553.897,350.742L555.579,351.213L556.559,350.212L557.4,350.369L556.439,351.802L555.729,351.802L554.948,353.47L554.218,354.294L552.316,355.432L552.036,356.688L551.526,356.393L550.135,357.767L548.704,358.012L547.423,361.965L547.473,364.201L547.843,365.967L549.845,368.713L551.486,369.742L552.126,370.684L551.816,371.802L550.585,372.655L550.085,373.616L550.085,375.116L549.524,375.694L549.915,376.871L552.647,378.586L552.767,380.508L554.398,381.459L553.837,382.998L554.268,383.978L554.568,383.106L555.188,384.145L554.018,385.331L552.887,384.713L551.576,385.125L550.725,384.968L550.375,385.693L549.414,385.282L548.984,385.811L547.563,386.321L547.043,386.036L544.951,386.075L544.511,387.487L545.241,387.82L545.612,389.574L544.971,390.28L543.25,390.104L541.709,390.848L540.948,390.447L539.437,390.652L537.936,392.524L537.626,395.229L537.726,396.581L536.585,394.837L535.425,394.327L534.214,394.827L533.353,394.347L531.882,394.376L531.122,394.837L528.6,394.964L526.248,394.141L524.957,393.974L524.337,393.475L521.435,393.259L521.185,392.573L520.264,393.004L519.283,392.269L518.733,392.779L518.012,392.113L517.182,392.122L516.511,390.995L514.48,391.123L514.58,391.819L512.659,391.525L511.808,390.897L511.228,391.397L511.138,389.927L510.027,388.144L508.666,387.506L507.365,387.712L506.474,387.428L506.885,386.458L507.735,386.595L508.586,386.046L509.246,386.458L510.037,386.036L510.517,384.713L511.278,384.233L512.629,384.399L512.739,383.998L514.18,384.782L514.72,384.213L515.771,384.978L514.81,385.419L516.541,385.262L517.452,383.988L517.922,384.419L519.183,384.262L520.124,386.419L519.924,384.419L522.586,385.233L523.987,386.879L523.947,386.213L525.738,386.654L525.448,386.036L526.819,386.595L526.008,387.751L526.819,388.046L526.068,388.506L526.909,388.957L526.258,389.604L527.809,389.447L527.729,388.31L528.91,386.703L527.919,386.33L529.25,386.144L530.561,387.046L531.662,386.928L531.962,387.928L531.292,388.536L531.572,389.79L531.412,391.495L532.442,391.446L531.972,390.623L532.012,388.781L532.793,389.222L533.693,388.604L533.443,389.516L534.104,389.173L533.563,391.319L534.784,390.437L535.234,389.28L535.735,390.094L535.995,388.702L536.715,387.938L537.686,387.712L538.056,386.203L539.067,386.203L537.606,388.653L538.136,389.231L539.007,387.957L539.718,388.643L540.728,388.594L541.489,389.202L541.409,388.408L540.398,388.271L539.187,387.516L539.447,386.595L541.038,387.222L542.55,387.242L541.509,386.742L540.588,385.732L539.527,385.625L539.297,384.968L540.338,384.684L541.559,383.762L540.578,383.4L540.168,384.056L537.926,385.076L537.126,384.713L536.876,383.517L536.165,384.909L536.315,386.918L535.184,385.644L533.853,386.889L533.063,387.232L532.873,385.928L534.004,386.007L533.453,385.086L532.152,385.213L532.843,381.87L531.662,382.282L531.652,381.214L533.583,381.91L534.614,381.41L533.773,380.998L534.864,379.086L536.165,379.331L537.716,380.645L540.228,381.331L541.849,380.969L542.57,381.233L543.72,380.126L543.2,380.018L542.93,378.871L542.309,379.077L542.299,379.959L541.559,379.106L540.558,380.469L540.348,379.596L538.757,379.743L539.557,378.488L538.557,379.194L537.706,379.047L538.707,377.998L537.346,377.567L537.576,376.067L538.257,375.606L537.226,375.4L536.906,376.518L535.995,377.841L535.875,376.802L534.564,377.518L534.914,376.743L533.873,376.42L532.833,376.949L531.872,376.665L531.992,375.547L531.232,374.625L532.262,374.567L533.273,373.429L534.524,374.998L534.874,374.292L535.445,375.322L535.685,374.155L534.554,373.684L535.064,373.165L536.936,374.116L537.496,373.302L538.657,372.733L537.636,372.106L536.095,372.566L535.284,371.841L536.956,371.547L537.666,370.978L537.776,370.125L536.295,369.987L535.234,370.635L534.274,372.145L534.354,372.821L531.892,372.576L530.941,372.253L530.111,371.223L530.571,369.546L529.18,369.85L528.32,370.978L527.409,371.047L526.728,371.674L525.668,371.262L524.177,372.488L524.367,370.85L523.947,370.164L524.047,368.722L523.206,368.536L524.357,367.801L524.027,366.477L524.607,365.015L525.838,365.398L525.968,364.809L524.187,364.819L523.646,365.506L523.386,367.291L521.935,367.752L521.595,368.271L523.326,369.546L522.506,370.507L522.095,369.772L521.315,369.968L522.125,371.223L521.255,371.252L520.014,372.792L521.965,372.782L522.095,373.753L523.016,373.174L523.696,374.312L525.217,375.145L526.118,376.479L524.877,377.282L525.257,376.567L523.546,377.439L522.135,377.4L522.936,377.998L522.706,378.763L521.635,379.243L520.234,379.263L519.954,380.263L519.043,379.841L516.041,379.282L515.19,378.802L516.341,377.557L516.011,377.067L515.901,377.067L516.121,376.508L517.412,376.037L515.371,376.086L514.54,377.41L513.769,377.302L513.759,375.224L514,374.292L516.011,373.988L516.561,373.508L516.011,373.057L515.601,373.871L513.359,372.272L513.709,370.419L514.11,370.811L515.29,369.929L513.679,369.85L512.739,370.321L512.288,372.027L512.008,370.988L510.257,370.056L509.837,370.576L508.996,369.929L509.156,370.792L510.637,371.223L509.987,371.635L510.757,372.027L511.268,373.135L511.098,373.939L510.217,374.096L510.107,373.449L508.936,373.37L509.687,374.91L508.946,375.263L508.256,374.586L507.355,374.724L507.855,376.282L509.356,376.802L511.308,378.106L510.847,378.782L509.717,377.89L508.366,377.586L506.855,378.312L505.664,378.165L505.514,377.39L504.033,376.116L502.892,376.135L502.972,375.42L501.631,374.812L499.75,374.92L498.038,374.037L496.027,374.223L494.286,375.694L494.236,376.41L495.066,377.008L494.126,378.106L492.405,377.89L491.054,379.273L490.933,378.557L489.803,378.518L489.392,379.861L487.891,379.851L486.911,380.576L487.311,381.184L486.721,382.076L486.49,381.125L485.64,380.057L485.069,378.39L486.871,378.567L487.211,377.851L486.741,375.733L486.16,375.694L486.841,374.223L486.51,373.253L487.241,371.89L488.061,371.566L489.012,372.419L488.782,371.517L489.362,370.929L487.891,370.429L488.622,368.87L488.372,368.173L489.553,367.958L490.383,368.379L491.004,367.487L490.313,367.291L489.543,366.339L490.223,365.614L491.024,365.79L490.964,366.614L492.895,368.448L493.495,367.605L492.665,366.683L492.304,365.231L491.744,365.29L491.464,364.407L493.455,363.789L493.846,365.192L493.886,363.515L494.986,364.751L494.906,365.79L495.517,367.055L495.527,364.947L495.076,363.613L496.728,363.887L496.037,362.985L499.499,362.828L499.489,362.112L497.488,362.436L498.419,360.199L497.838,359.562L498.689,359.209L497.878,358.404L497.288,358.856L497.498,359.768L497.048,360.876L496.107,359.219L495.096,360.396L494.906,359.228L493.265,358.355L494.006,359.16L493.585,361.053L492.304,361.602L492.525,359.964L491.764,359.787L491.624,358.64L492.935,357.855L492.425,357.561L492.675,356.678L489.603,357.492L489.683,356.423L487.511,357.06L488.292,357.325L488.352,358.051L489.232,358.856L487.951,359.856L489.002,360.307L488.632,362.044L487.391,362.701L486.701,362.603L487.001,363.427L485.81,364.574L486.02,365.182L484.739,366.467L484.049,366.124L484.749,364.319L485.99,362.691L484.819,362.72L486.17,361.278L484.799,361.435L484.529,361.994L483.308,361.72L483.178,361.082L484.079,360.435L485.55,360.425L485.27,360.043L486.18,358.699L487.181,358.777L487.291,358.002L485.94,358.502L485.66,357.973L485.109,358.875L483.728,359.219L483.718,359.689L482.588,360.513L481.157,360.356L480.937,359.454L481.357,358.561L480.226,358.679L478.955,357.875L477.714,357.953L476.854,359.326L475.973,359.846L476.363,360.445L479.496,360.288L480.876,361.406L480.206,362.308L481.027,362.446L480.546,363.162L479.015,363.848L478.855,364.407L480.026,364.496L481.427,365.408L481.177,366.339L479.285,366.084L477.844,365.555L477.824,364.643L476.724,364.721L477.024,365.467L476.263,365.888L477.644,366.604L476.734,368.369L475.333,368.134L474.942,366.771L474.392,366.643L474.532,367.693L473.792,369.585L471.68,370.36L471.68,371.194L470.459,370.605L469.949,370.841L469.799,372.282L470.379,372.233L470.799,371.164L471.02,372.841L472.571,371.792L472.331,370.664L473.181,371.655L474.522,370.792L474.932,369.458L475.993,369.291L476.674,370.144L477.564,370.233L475.743,371.674L475.883,372.027L479.686,370.772L478.595,370.095L478.665,368.811L479.125,369.311L480.906,369.34L480.156,370.772L480.906,370.909L481.057,370.076L482.748,369.213L482.858,369.674L481.797,370.497L481.937,371.007L479.516,372.615L478.735,373.498L478.445,375.831L477.994,375.233L476.333,375.733L474.962,377.596L475.162,378.704L475.903,378.537L476.453,379.577L475.613,380.773L474.422,380.812L471.3,381.341L469.398,381.714L469.318,383.517L469.769,384.282L468.888,385.448L466.957,386.281L464.895,385.879L463.694,386.252L463.054,387.232L462.404,387.379L461.143,388.957L460.632,390.486L458.641,392.22L457.8,391.73L456.77,392.171L454.998,392.309L453.918,391.946L453.387,392.367L453.187,390.76L452.477,389.917L452.236,388.536L450.966,387.751L451.736,386.497L451.486,385.419L453.007,386.164L453.007,387.604L453.978,387.673L454.328,388.761L455.028,388.545L454.798,386.781L453.647,386.556L453.667,385.713L451.826,385.36L451.676,384.527L450.405,384.174L449.725,385.115L448.844,385.438L448.604,384.35L450.165,381.919L451.866,381.214L452.046,381.841L451.356,382.351L451.056,383.684L451.776,383.939L451.816,383.057L454.338,381.008L455.259,381.89L455.038,382.733L455.819,383.184L456.539,382.841L455.589,382.184L457.43,381.459L456.529,380.91L455.469,381.429L455.569,380.086L456.81,379.743L457,379.263L455.589,378.616L454.858,377.743L455.209,378.969L452.837,379.92L453.287,378.792L451.936,378.204L451.016,380.361L450.075,379.704L449.455,380.9L448.394,380.067L447.953,380.959L444.621,381.469L444.001,382.89L444.971,383.478L444.721,384.399L445.101,385.282L443.961,384.988L444.241,384.213L442.8,384.096L442.92,383.223L441.569,382.37L441.249,383.125L441.979,384.478L443.44,385.566L443.27,386.958L444.371,388.398L443.34,389.77L442.46,391.691L441.239,391.505L441.539,392.71L441.089,393.024L441.579,394.376L440.418,395.18L440.468,394.161L439.377,393.269L437.766,392.857L438.387,392.005L437.816,391.074L439.488,388.996L439.007,387.879L438.827,384.468L438.167,383.958L437.276,385.389L436.676,387.056L437.086,387.83L436.495,388.251L435.415,388.114L434.934,389.261L435.365,390.162L434.934,391.27L434.204,391.338L433.854,390.368L434.894,388.565L435.975,387.32L435.475,386.105L434.484,387.075L433.223,385.781L432.723,386.125L433.533,387.595L433.694,388.506L433.113,388.751L431.472,387.781L429.751,387.448L429.381,386.948L430.531,386.213L430.661,385.38L430.201,384.174L427.559,383.89L426.979,384.968L426.028,384.644L426.288,385.448L427.97,386.056L427.329,388.496L427.469,389.594L428.81,390.211L428.08,390.78L428.61,392.015L428.24,392.877L428.43,394.386L429.32,395.248L429.35,396.15L430.271,397.551L431.902,397.982L431.892,398.834L431.272,398.923L428.86,398.031L429.11,396.64L428.2,395.101L427.179,394.994L427.629,394.484L426.408,393.259L425.118,393.132L425.838,392.661L425.868,391.76L424.797,392.759L423.837,391.799L424.067,393.426L423.767,393.788L422.636,393.151L422.646,394.562L423.496,395.121L425.588,394.366L425.968,395.023L426.168,396.826L427.249,397.894L426.368,398.06L424.817,397.473L423.156,398.207L421.545,397.159L420.825,399.138L421.035,399.608L421.755,398.482L422.776,399.491L422.075,401.088L422.716,401.274L423.616,399.687L424.857,400.598L425.608,399.687L426.729,399.765L427.069,400.774L427.749,400.177L427.819,401.587L428.7,401.842L427.349,403.027L426.348,402.293L425.488,402.528L424.597,403.635L425.148,404.468L424.377,405.153L423.326,404.879L420.304,406.838L419.614,406.936L419.594,405.516L420.474,404.761L420.194,403.821L419.133,403.419L417.582,403.89L417.692,403.194L417.032,402.381L415.511,402.048L414.17,402.567L413.549,401.666L413.96,400.569L412.809,398.874L412.769,397.316L413.85,397.512L413.87,396.434L414.82,395.679L415.591,396.405L416.632,396.13L417.122,395.493L415.601,395.376L414.82,393.161L415.791,392.916L414.75,392.475L413.189,393.602L413.259,394.259L412.249,395.043L413.099,395.728L412.179,395.973L411.558,396.806L411.068,396.101L409.517,396.179L409.296,395.356L408.136,395.866L406.444,395.905L406.715,397.081L407.475,397.384L408.876,396.728L408.306,397.806L408.666,398.237L410.507,396.924L411.308,398.051L411.338,399.481L410.677,400.431L411.128,401.009L410.397,402.107L410.337,403.792L410.828,404.262L412.489,404.428L412.859,405.114L411.068,406.613L408.126,406.74L407.245,407.005L406.064,406.515L404.733,406.525L402.402,407.573L402.812,409.287L401.691,409.101L401.301,409.502L400.46,408.934L399.52,410.305L399.079,409.404L398.019,410.58L397.548,411.676L395.877,412.186L394.386,412.117L393.145,413.557L392.285,413.4L392.875,412.529L392.395,410.962L391.234,410.168L391.964,409.502L392.455,408.151L393.205,409.199L394.096,409.336L393.415,408.268L393.515,407.308L391.254,407.984L390.473,407.2L389.443,408.111L388.302,408.297L388.182,408.777L389.142,409.169L388.632,410.021L389.313,411.138L386.571,412.822L386.771,413.772L385.88,413.831L386.08,414.752L385.52,414.742L385.25,415.692L384.009,416.269L384.089,416.847L382.358,417.973L381.377,418.982L381.337,417.542L380.236,416.426L380.566,415.839L379.976,415.065L379.236,415.486L378.335,416.788L377.574,416.426L377.404,415.29L377.885,413.949L377.084,412.783L377.784,412.93L378.865,412.254L380.406,411.951L379.896,411.412L378.625,411.52L378.105,411.138L378.295,409.972L377.204,410.746L377.224,411.628L375.583,411.941L373.802,412.881L373.121,415.466L370.599,415.378L370.359,414.889L369.399,415.829L368.378,416.191L368.848,417.19L369.158,416.553L370.92,416.034L370.66,416.955L371.19,417.298L371.89,416.612L371.16,415.976L373.421,415.78L373.552,417.856L372.02,418.512L371.69,420.029L372.561,421.175L372.321,422.046L371.5,422.379L370.439,421.028L369.399,420.255L367.998,420.108L367.007,421.479L367.337,422.369L365.926,422.859L364.455,422.673L363.875,423.241L363.685,422.399L362.184,422.604L361.973,423.916L360.863,424.249L359.822,425.962L359.962,426.687L360.733,426.902L360.382,428.096L358.721,427.901L357.951,428.39L357.57,430.524L357.931,431.121L357.33,431.62L357.13,430.553L356.44,430.485L355.739,429.056L354.058,429.917L354.909,431.738L354.438,432.286L355.069,433.852L356.209,434.312L356.35,434.928L355.119,436.984L354.058,437.336L353.658,438.226L353.898,439.42L354.518,439.391L355.089,441.935L357.67,442.023L358.611,443.08L355.869,444.831L356.089,446.612L356.6,447.013L358.221,446.798L357.821,447.942L358.871,448.793L360.843,448.588L359.982,447.12L360.663,446.485L362.384,447.052L363.354,446.602L365.466,446.68L365.486,447.61L366.196,448.138L364.535,447.825L363.755,448.422L363.755,449.928L363.044,450.965L363.695,451.405L362.634,452.061L361.963,453.342L362.244,454.604L361.263,455.504L361.293,455.993L360.282,457.704L360.562,458.77L359.422,458.897L359.552,458.134L358.641,458.017L359.161,455.875L358.941,454.936L357.961,454.858L357.761,455.66L356.77,456.042L355.499,455.523L354.788,455.934L354.748,456.932L355.299,457.763L354.478,458.526L354.768,459.103L353.387,459.67L352.757,460.335L350.626,460.804L351.276,460.12L352.477,459.758L352.197,458.614L351.106,458.604L351.696,457.968L351.466,457.029L350.125,456.188L350.435,455.464L349.885,454.594L350.495,453.635L350.936,454.144L352.487,453.704L350.515,452.569L349.094,453.234L347.944,454.408L348.494,457.616L347.784,458.34L346.663,458.164L346.653,457.626L344.821,455.533L345.522,454.829L345.392,453.929L344.541,452.52L345.342,451.816L346.313,451.933L346.683,451.18L348.424,450.613L348.974,449.772L350.515,448.705L349.795,448.255L350.395,446.817L351.006,447.169L351.646,446.524L351.436,445.506L352.207,445.77L353.217,445.457L353.498,444.831L352.287,444.273L351.906,443.187L352.567,442.953L350.996,442.317L350.215,444.117L349.175,444.195L348.904,445.242L347.683,445.937L346.563,448.363L345.932,449.077L344.291,449.586L344.301,450.075L342.87,449.967L342.28,450.662L342.73,451.513L339.218,452.471L338.047,453.557L337.957,454.281L339.037,455.259L340.088,457.235L340.919,457.812L340.759,458.79L340.138,459.181L338.127,459.171L337.026,461.019L336.556,460.706L334.364,461.772L333.303,461.557L332.383,462.447L329.541,462.604L329.881,463.317L329.601,464.501L330.782,465.85L331.492,465.537L332.533,467.072L331.942,467.541L332.563,468.03L333.584,467.512L334.424,467.923L335.935,468.05L337.326,467.805L337.596,467.033L339.718,467.141L340.218,467.688L341.079,467.219L341.409,467.639L343.22,467.854L344.441,467.698L344.862,468.363L346.082,468.676L344.962,469.321L344.481,468.891L342.9,469.399L343.38,470.807L342.99,473.173L343.641,475.147L343.22,476.897L343.521,477.786L345.212,477.757L345.842,478.461L346.753,478.402L347.083,479.34L350.245,480.611L351.606,480.884L352.787,482.341L355.199,483.767L355.639,484.921L354.748,485.018L352.487,486.103L349.535,488.243L348.074,487.657L347.804,488.516L345.892,486.933L345.282,485.849L343,487.031L344.091,486.973L345.912,487.93L346.743,489.171L346.333,490.109L348.594,490.51L349.425,490.998L350.095,489.914L351.056,489.757L352.057,490.705L351.416,492.464L350.575,491.956L350.555,494.593L350.085,495.15L348.084,493.353L347.363,493.372L348.664,494.838L348.404,497.016L349.535,496.576L351.426,496.655L352.537,498.149L351.766,498.598L351.436,499.8L352.027,500.962L352.197,503.267L351.366,504.039L349.805,503.892L349.305,505.308L347.213,504.791L346.733,506.177L346.032,506.187L345.592,504.127L344.831,503.16L343.691,503.033L343.21,504.039L341.659,504.254L340.538,503.17L340.428,502.427L340.949,500.513L340.699,499.673L341.419,499.79L342.04,499.038L343.28,499.487L344.001,500.298L345.992,499.917L344.932,499.399L345.702,498.97L345.632,498.296L343.621,498.481L340.879,497.729L339.928,497.202L339.168,497.416L337.406,496.703L335.645,494.593L335.895,494.183L334.524,493.489L334.905,492.591L333.243,492.19L332.303,493.118L332.963,494.349L333.974,499.087L332.403,499.663L331.212,502.183L329.641,503.746L327.379,502.984L326.349,503.775L328.74,506.47L329.631,506.324L329.891,506.851L331.212,505.406L333.534,504.293L334.694,502.564L335.985,502.437L336.025,503.599L334.474,505.504L337.036,505.426L337.626,506.685L336.766,507.203L337.366,508.531L337.186,509.156L338.267,510.005L337.867,511.265L338.367,512.515L339.338,512.964L338.637,513.481L337.346,513.12L336.566,513.491L335.815,512.817L334.374,513.276L335.445,515.375L334.314,516.03L333.784,516.82L334.945,517.816L334.154,518.138L333.474,517.64L332.733,519.007L331.652,519.075L332.003,518.363L331.712,517.23L332.323,517.396L333.273,516.732L330.982,515.375L330.111,514.282L329.231,514.009L329.181,515.112L327.379,514.965L326.018,515.981L324.397,516.381L323.246,516L322.796,516.664L323.427,517.26L325.588,518.226L327.079,518.128L327.98,517.396L328.54,518.968L327.339,520.647L327.529,522.336L328.52,522.794L328.57,523.741L328,523.419L326.539,524.639L324.998,524.22L324.117,524.483L324.117,525.537L323.587,525.459L322.516,526.406L319.584,526.435L319.174,523.751L318.693,521.955L320.044,521.731L317.893,520.501L317.713,519.934L315.781,519.212L314.68,519.622L313.029,519.202L312.259,520.11L312.039,521.077L312.529,521.906L313.61,522.131L314.43,523.351L313.249,524.2L313.8,524.844L313.039,525.205L313.249,526.65L310.818,526.845L309.267,528.153L310.147,529.675L310.988,529.802L313.169,531.315L311.228,532.944L310.508,532.368L309.287,532.242L308.216,531.627L307.656,531.939L309.117,533.286L309.287,534.652L308.796,536.018L307.896,535.735L306.975,536.057L306.605,537.179L305.964,536.574L305.444,534.291L305.844,534.144L304.804,532.388L303.042,531.637L302.282,532.359L302.562,533.256L301.721,533.774L302.302,534.603L301.341,535.676L300.591,535.657L299.59,534.915L298.929,535.257L297.098,537.023L294.026,540.857L292.015,543.559L289.303,547.812L287.271,551.537L286.08,554.131L285,555.906L284.199,557.924L282.848,560.313L281.807,562.906L281.307,564.778L280.587,565.636L279.386,567.976L277.855,572.03L276.844,575.685L273.532,583.792L272.321,587.796L271.43,591.848L271.6,592.55L271.19,594.78L270.48,595.306L269.169,595.501L269.449,596.192L270.46,596.426L271.33,595.452L270.53,597.02L268.398,599.912L267.177,598.471L263.655,597.127L261.904,596.153L260.212,595.306L258.411,594.692L255.859,595.209L255.449,596.65L256.7,597.799L257.18,599.348L256.87,600L255.149,599.903L252.817,599.523L250.446,598.101L248.874,597.507L246.863,596.358L245.812,595.403L245.212,593.991L244.762,589.16L244.872,587.143L243.561,586.773L242.17,588.039L241.099,587.796L240.138,587.172L238.948,586.179L238.557,584.113L237.797,583.129L236.806,582.876L235.295,583.149L234.174,582.408L233.063,578.18L232.793,577.624L231.382,575.422L231.302,575.12L231.773,574.028L230.642,571.085L229.901,570.052L228.891,569.223L226.709,569.574L226.029,569.038L223.377,566.699L220.875,566.123L220.435,565.802L218.824,563.901L218.173,562.702L218.513,560.81L218.934,559.66L219.104,558.734L218.063,556.315L218.623,553.361L219.554,551.762L219.624,550.972L218.854,549.548L217.763,548.67L217.262,547.363L217.282,546.017L218.473,544.983L219.104,543.617L218.743,542.018L218.793,541.783L219.214,540.866L220.144,540.486L220.164,542.818L220.054,543.442L219.714,544.739L220.164,545.851L221.055,546.466L221.365,546.69L223.677,547.285L224.007,546.378L224.417,546.222L225.308,545.12L225.188,542.515L226.249,542.057L227.97,542.242L229.041,543.452L229.891,543.715L230.412,543.666L231.612,543.091L231.612,542.271L232.103,539.823L232.503,539.423L232.853,537.276L229.801,533.754L229.211,535.257L230.111,535.627L229.831,537.413L230.001,538.457L229.381,538.789L228,538.106L227.339,537.11L227.369,536.037L227.53,535.237L228.47,533.803L228.45,532.817L227.44,532.095L226.179,530.485L225.618,528.309L225.558,527.987L226.149,527.743L226.599,528.348L230.041,528.972L230.512,528.992L231.152,528.504L231.662,526.494L231.482,525.566L230.522,524.249L230.342,523.761L231.753,522.999L233.103,523.175L235.275,524.21L237.927,523.712L238.267,523.917L239.178,524.854L239.518,525.908L240.979,525.449L241.269,525.332L243.06,524.708L243.181,524.6L243.371,523.322L243.13,522.892L242.99,522.697L242.7,522.492L241.87,522.375L240.359,523.614L238.667,523.253L237.907,521.936L238.177,520.754L238.277,519.759L239.378,518.05L241.259,517.855L242.44,518.236L241.75,517.064L241.379,515.483L242.03,515.356L244.211,516.166L246.253,515.912L247.574,516.762L248.134,516.947L248.995,517.123L249.785,517.445L251.186,518.226L251.456,518.509L253.147,520.374L253.668,520.628L254.829,519.729L256.69,515.288L256.76,514.145L257.31,512.983L257.47,511.402L256.99,508.336L256.7,508.062L256.65,506.568L257.551,505.259L258.581,504.918L259.052,504.84L260.292,504.83L261.814,506.119L262.374,507.584L263.655,509.293L264.295,509.722L265.036,509.166L265.406,507.681L265.606,507.193L267.908,505.904L268.908,504.312L268.878,502.554L268.528,501.851L267.197,500.64L265.906,498.091L266.036,496.137L265.956,495.873L263.655,493.411L263.144,492.522L263.064,492.258L263.655,491.575L265.746,491.926L266.277,491.242L266.807,489.523L265.736,488.692L265.726,487.735L265.736,487.344L266.387,486.924L266.937,484.862L267.067,484.793L268.108,484.266L268.328,484.031L269.439,482.829L269.919,481.5L270.039,479.594L270.9,478.236L272.481,478.646L272.671,479.008L273.542,479.79L274.793,480.151L276.124,477.337L276.654,476.623L277.134,478.343L277.835,478.109L277.805,477.249L278.575,476.721L278.725,478.5L278.785,478.607L281.037,479.614L281.237,479.907L282.358,478.744L282.538,478.891L282.668,479.155L282.888,479.174L284.479,479.878L284.669,479.985L286.151,479.34L286.281,479.418L288.072,479.399L288.202,479.927L289.833,480.621L289.803,480.855L291.034,481.823L292.135,481.344L292.235,481.354L293.275,482.37L295.627,483.807L296.768,483.269L297.438,482.448L297.719,482.389L298.199,481.627L297.348,478.509L297.298,478.343L297.158,477.21L296.318,475.685L296.117,475.137L295.027,474.17L294.566,473.955L294.226,473.749L295.637,470.924L295.787,469.585L295.277,468.48L295.047,468.011L294.937,467.18L294.696,466.984L295.107,464.999L295.127,463.415L295.757,462.965L295.697,461.792L294.646,460.423L294.636,460.306L295.537,458.956L296.067,458.799L297.308,459.484L297.518,459.738L299.48,459.983L301.121,460.57L301.511,460.482L301.942,460.746L302.702,460.57L302.542,460.374L302.392,459.983L300.901,458.839L300.671,458.428L300.06,458.017L297.528,455.103L297.909,454.046L299.33,452.442L298.179,451.347L298.069,450.3L298.109,450.241L298.429,449.292L298.329,448.921L298.259,448.167L298.099,447.766L297.859,447.698L297.789,447.688L297.368,447.443L296.638,446.396L296.638,446.181L297.328,444.968L298.429,444.645L299.51,443.187L299.17,441.925L298.979,441.583L297.899,438.402L297.418,437.561L297.568,437.248L298.369,436.739L298.559,436.651L298.949,436.064L298.919,435.848L298.629,433.206L300.29,432.345L300.521,431.532L301.511,430.465L301.111,428.801L300.491,428.566L300.631,427.773L300.681,427.343L300.28,427.137L299.97,426.912L298.599,425.767L298.229,424.983L299.12,423.75L299.13,423.446L299.68,422.037L299.65,420.499L297.689,419.922L296.878,420.029L295.567,419.462L294.566,418.179L294.887,417.356L294.686,416.387L295.677,415.369L295.927,413.939L296.017,413.743L297.238,413.341L297.428,412.822L299.19,411.814L299.12,411.079L299.93,410.325L301.731,410.668L302.832,408.67L302.362,408.053L302.372,405.702L300.691,405.173L299.88,405.241L299.91,405.026L299.95,403.645L300.651,403.331L300.801,403.331L301.171,403.459L302.152,402.861L302.102,402.41L302.412,401.48L303.833,399.677L303.963,399.569L305.354,398.413L305.934,398.06L306.565,398.002L306.665,396.542L306.555,396.238L306.575,394.994L306.895,394.543L305.994,393.72L305.754,392.622L304.083,391.721L303.933,391.525L302.612,391.093L302.792,389.623L302.912,389.29L303.833,388.545L303.312,387.31L302.842,387.291L302.172,385.87L301.721,385.83L301.121,384.007L300.661,383.233L298.549,382.351L296.968,380.439L296.097,380.086L296.107,379.224L295.477,378.145L295.547,376.782L295.157,375.155L295.347,374.724L296.908,373.557L299.44,373.949L300.551,373.763L301.611,372.282L302.812,371.694L303.983,371.655L305.284,370.115L306.305,369.409L304.553,367.3L303.953,365.8L303.373,365.27L301.741,365.457L301.131,364.76L299.77,364.368L299.58,363.682L297.558,361.661L297.178,360.631L297.218,360.435L297.468,359.425L297.418,359.169L296.208,357.943L295.907,356.177L296.097,355.805L296.348,355.324L295.637,353.597L295.487,353.352L295.027,351.841L294.797,351.694L293.746,351.203L293.756,349.486L294.196,348.966L294.196,348.878L293.295,346.631L292.485,346.16L292.375,344.737L289.753,341.998L288.452,341.802L288.182,341.773L287.902,341.773L287.091,341.115L286.931,340.929L287.051,339.604L286.841,339.093L288.742,337.258L288.502,336.787L289.233,334.401L290.494,332.997L290.674,332.919L291.474,332.978L292.585,331.564L292.755,331.525L293.686,330.317L293.736,330.072L293.656,329.708L293.636,329.483L293.656,329.266L293.716,329.07L293.666,328.893L293.926,327.764L293.135,325.506L294.046,324.917L295.477,322.933L296.508,322.717L297.028,322.688L298.849,322.864L299.04,322.874L300.42,322.746L300.781,322.501L300.931,322.373L301.201,322.285L301.281,322.128L302.602,320.006L303.262,319.928L303.413,319.839L305.514,319.673L305.814,319.152L306.084,318.965L306.455,318.946L306.675,319.044L308.436,319.957L311.038,320.635L313.53,320.056L313.63,319.722L313.96,318.965L315.041,318.406L315.561,317.541L317.142,317.718L317.512,317.806L319.464,318.563L322.086,318.906L322.926,318.573L323.216,318.494L325.318,316.922L325.848,317.139L328.21,317.178L330.742,317.806L331.102,316.972L331.242,316.706L331.752,315.351L331.462,312.905L331.732,312.679L332.023,310.488L332.773,309.172L333.804,308.199L333.584,307.374L333.964,305.262L334.074,304.908L335.205,303.385L336.736,302.785L336.976,302.648L337.306,302.304L337.556,302.225L338.207,301.891L338.607,300.791L338.377,299.68L335.385,299.002L334.824,298.53L334.254,297.97L333.744,297.095L333.974,295.719L333.884,295.444L334.104,294.56L335.295,293.498L335.395,291.404L334.945,289.733L334.164,288.505L334.374,286.676L333.153,286.352L332.693,286.293L328.54,287.757L328.37,287.826L326.959,288.436L326.138,288.396L325.868,288.259L325.608,288.328L323.627,290.176L323.346,290.992L319.944,290.52L318.613,289.438L318.433,287.974L319.294,286.961L319.924,283.992L319.264,282.409L318.033,281.612L317.973,281.435L316.061,279.341L316.712,278.682L315.901,277.581L315.351,277.001L315.601,276.106L314.77,275.525L314.75,275.398L314.27,274.316L313.82,274.365L313.219,274.512L313.36,275.84L311.818,275.791L310.978,275.211L310.608,275.063L309.057,273.765L307.736,276.007L302.622,279.498L301.191,279.449L301.111,279.144L300.771,278.22L300.751,278.004L300.43,277.551L300.21,275.535L296.478,275.761L295.607,274.945L294.156,275.378L293.866,275.103L293.666,274.65L292.385,274.817L291.434,274.404L291.104,273.293L290.203,272.86L289.993,272.899L288.932,272.349L287.561,271.119L285.77,271.404L283.959,270.372L284.159,268.286L283.419,267.155L283.309,267.204L283.258,267.224L282.998,267.155L281.387,266.88L281.187,265.965L280.617,266.24L279.566,264.273L280.016,263.515L280.897,263.614L281.357,262.738L281.377,261.203L280.407,260.485L279.576,258.271L280.767,256.884L280.797,256.086L281.727,255.171L282.068,254.669L282.398,254.512L282.558,254.512L283.449,252.957L284.649,251.874L284.82,250.575L286.761,249.758L287.111,248.804L286.751,248.036L287.151,247.081L287.331,247.022L287.942,246.333L288.042,246.195L287.972,245.526L288.192,245.329L288.182,244.286L287.582,243.961L287.421,242.484L287.191,242.395L286.441,240.515L286.371,240.259L285.75,239.521L285.52,238.418L285.42,238.26L285.11,238.497L285.05,238.635L284.219,238.595L283.329,237.808L282.728,237.906L282.538,237.916L281.107,238.093L277.825,235.395L277.314,234.558L277.755,233.524L278.905,235.001L279.256,235.119L282.788,236.754L284.249,237.729L285.56,237.906L285.93,237.64L287.311,235.868L289.633,235.474L289.653,233.987L290.113,233.249L290.984,232.963L291.434,232.018L291.374,231.919L291.214,231.702L291.064,231.102L291.945,229.546L292.155,229.339L292.225,228.61L292.165,228.462L292.125,228.236L292.035,228.157L291.935,228.127L291.915,227.921L291.294,227.576L291.084,227.566L291.074,226.286L290.734,226.138L290.233,225.586L290.213,225.448L290.123,223.892L289.583,222.956L289.513,222.858L289.233,221.981L289.193,221.676L288.792,220.306L287.141,220.149L286.851,220.169L285.14,219.824L283.469,219.036L283.409,218.74L282.758,217.972L282.248,218.169L282.028,216.898L285.26,216.09L285.34,216.06L287.471,213.567L286.261,212.424L286.671,211.183L286.611,210.996L286.521,209.99L284.9,208.956L284.72,207.29L284.459,207.162L283.118,204.826L282.448,204.196L281.017,203.634L280.216,202.895L280.106,202.737L280.036,202.559L279.916,201.988L278.805,200.972L278.685,200.963L278.485,200.953L278.435,200.677L278.365,200.549L277.124,199.661L277.174,199.376L276.644,198.094L276.864,197.177L276.134,197.157L275.693,197.019L274.302,197.394L273.712,196.448L274.572,195.038L274.572,194.92L274.202,194.141L274.112,194.042L274.192,193.293L274.312,192.987L274.773,191.794L275.013,191.488L275.553,190.157L275.423,189.94L275.393,188.165L274.152,187.584L272.691,187.416L272.551,187.278L271.851,187.041L271,185.444L271.05,183.925L271.74,183.432L271.77,183.382L272.171,183.333L272.321,183.244L273.732,183.757L275.033,182.564L275.133,182.445L276.974,182.475L278.105,180.591L278.405,180.493L278.595,180.354L278.735,180.433L279.496,179.753L279.566,179.585L281.187,180.453L282.278,179.871L282.298,179.516L283.048,178.628L283.218,179.181L284.699,180.197L285.69,179.26L285.81,179.23L286.611,178.54L287.792,178.451L287.952,178.49L288.902,177.011L290.934,177.06L291.414,176.33L291.484,176.29L292.235,175.807L292.415,175.866L293.736,175.353L293.826,173.883L294.486,173.39L294.827,172.867L295.247,172.601L293.926,170.618L293.866,169.809L292.795,168.309L293.596,167.036L292.355,165.733L292.745,165.171L294.056,165.585L294.296,165.566L295.087,164.382L295.537,164.421L295.747,164.52L296.698,164.707L296.828,164.747L296.948,164.47L297.168,164.263L298.369,164.016L298.419,163.809L299.2,162.26L299.49,160.394L299.07,159.467L299.95,158.598L301.111,158.055L302.082,158.272L302.212,158.312L302.502,157.917L302.562,157.7L303.483,156.772L303.573,156.624L304.723,156.17L304.924,156.061L305.294,155.746L304.113,153.998L305.124,152.606L304.713,151.787L304.663,151.708L303.923,151.53L302.872,152.369L302.332,152.192L302.242,152.093L301.871,151.836L301.781,151.856L301.061,152.893L299.36,152.409L299.19,152.636L297.228,152.508L297.048,152.389L296.438,152.389L295.587,151.343L295.487,151.214L295.067,151.333L294.857,151.303L293.215,150.306L293.095,150.277L292.395,150.148L292.015,149.112L293.436,147.759L292.195,145.883L292.305,145.745L293.045,144.53L293.396,145.182L294.436,145.518L294.496,145.646L295.327,145.369L295.477,145.261L296.378,144.55L296.398,144.441L297.328,142.368L298.529,141.123L298.589,141.025L299.1,140.788L299.28,140.669L300.761,140.086L301.331,140.995L301.561,141.123L301.801,142.298L301.451,142.921L302.162,143.938L303.082,143.977L303.312,144.155L303.333,144.501L303.323,144.629L303.793,145.597L305.024,145.468L305.134,145.705L305.674,146.554L306.905,147.473L308.036,146.781L308.156,146.614L308.536,145.458L310.998,146.564L311.098,146.683L311.308,147.255L312.439,147.897L314.06,146.89L315.941,146.811L316.081,146.1L318.353,145.587L319.003,145.982L319.994,145.804L320.194,145.863L320.665,145.834L320.905,145.873L322.166,145.913L322.826,146.416L322.016,147.67L322.156,148.717L323.286,149.408L324.607,149.418L324.858,149.319L325.248,149.536L325.378,149.635L325.938,150.375L325.708,151.076L326.449,151.619L327.74,151.846L327.83,151.906L328.65,152.626L328.88,152.646L328.97,152.606L330.121,153.268L330.732,153.12L331.912,153.337L332.783,154.117L334.434,154.531L334.975,154.334L335.495,155.222L336.626,155.282L337.987,156.16L338.497,155.933L340.699,156.19L340.869,156.219L341.119,156.733L342.73,156.673L345.532,157.424L348.394,155.913L348.674,155.805L350.896,154.788L351.216,153.436L352.507,152.873L352.767,152.695L353.618,151.481L353.788,151.205L353.868,150.958L354.598,151.205L354.758,151.343L355.309,152.192L356.49,152.419L356.61,152.458L356.94,152.587L359.011,152.468L361.323,150.365L361.463,150.207L362.414,150.711L363.525,149.892L363.775,149.664L364.515,148.727L364.585,148.667L365.406,148.44L365.556,147.71L365.666,147.443L365.566,145.922L367.387,144.925L368.958,144.807L369.779,145.29L371.15,143.799L372.231,143.582L372.541,143.513L374.362,142.506L374.562,142.466L375.783,142.664L375.933,142.713L376.954,142.308L377.464,141.232L378.075,141.015L378.215,141.015L379.726,140.639L380.616,139.237L380.817,139.158L382.168,138.921L382.488,138.921L382.508,137.558L382.108,136.294L382.148,136.126L383.318,134.951L382.918,134.299L383.158,132.116L385.49,131.197L384.349,129.893L384.409,127.235L385.41,125.832L385.38,125.704L385.53,125.151L384.669,124.222L389.503,119.963L391.264,120.764L391.944,120.437L392.365,118.184L393.325,116.811L393.195,115.971L394.556,114.715L394.516,113.608L395.867,112.472L396.337,111.325L398.049,109.842L398.099,109.605L398.739,104.613L397.818,103.357L398.129,102.833L399.97,101.914L400.19,101.696L400.11,100.559L399.9,100.361L399.48,98.255L399.47,98.077L398.819,96.05L399.5,94.922L399.159,93.686L399.32,93.538L399.39,93.518L399.85,93.459L400.45,92.687L400.42,92.381L400.841,91.421L400.861,91.174L401.331,89.878L399.54,89.75L398.919,88.108L398.849,86.396L398.899,86.228L398.579,85.279L399.74,81.885L399.94,81.618L400.68,81.203L400.781,80.134L401.431,79.085L402.732,79.342L403.472,78.205L406.114,75.731L406.314,75.81L406.875,75.256L406.675,73.88L406.555,73.781L406.364,73.306L406.224,72.95L406.264,71.812L405.544,71.198L405.074,69.684L405.034,69.338L406.635,67.863L406.885,67.803L406.755,66.774L406.094,65.764L406.034,65.685L406.164,64.398L406.084,64.052L406.314,62.359L406.475,62.151L406.885,61.755L406.975,61.587L406.625,59.102L406.845,58.557L407.195,57.934L406.695,56.755L406.434,56.429L406.905,55.25L407.095,55.052L407.555,54.745L407.775,54.686L408.026,54.102L408.076,53.924L408.266,53.359L408.326,53.28L408.726,53.161L408.846,53.042L407.765,51.596L405.974,50.854L405.554,50.378L405.394,50.279L405.694,47.744L407.305,46.763L407.575,45.743L407.655,45.525L407.385,44.357L407.986,42.583L409.066,42.554L409.266,42.554L411.188,41.504L410.737,38.591L410.948,38.195L411.068,37.997L411.068,37.799L410.407,36.213L409.106,35.817L408.026,36.025L408.096,35.193L408.266,35.153L408.366,34.896L408.286,34.707L407.956,34.519L407.845,34.38L407.605,33.895L406.384,34.014L405.644,33.518L405.394,33.251L404.983,32.002L403.102,30.169L401.351,28.851L399.73,29.555L397.848,28.266L397.598,28.157L397.408,28.217L396.508,27.602L397.538,25.937L397.528,24.381L397.919,22.944L398.659,21.874L399.029,21.685L398.669,20.575L398.599,16.312L398.519,15.966L398.339,15.747L398.639,14.726L399.36,14.429L400.09,14.002L401.371,13.189L401.441,13.12L403.302,11.157L404.113,11.563L404.213,11.633L404.033,13.328L404.563,14.548L404.713,14.786L404.863,14.934L405.244,15.123L406.595,16.134L407.815,14.964L408.286,14.825L408.656,14.379L409.156,13.913L409.777,13.229L410.828,10.939L411.268,11.187L412.249,9.779L412.449,9.729L413.369,8.43L413.84,8.638L413.91,8.618L414.42,8.103L414.47,8.063L414.94,8.023L415.01,8.162L415.03,8.212L415.201,8.827L415.711,9.58L416.802,8.261L416.892,8.152L418.573,8.539L418.863,8.727L419.173,9.223L420.264,8.053L419.994,7.111L421.385,7.637L421.995,8.43L422.165,8.648L422.786,8.113L423.076,8.033L424.757,7.776L425.738,8.777L427.529,8.946L428.49,7.934L428.77,7.815L429.18,7.428L429.381,5.257L429.431,4.89L429.971,4.334L429.891,4.096L429.941,3.362L430.031,3.154L430.501,2.162L430.511,1.994L431.312,1.22L432.192,1.458L434.354,0.139L434.734,0L436.505,0.208L436.706,0.218L436.566,1.2L436.676,1.617L436.806,1.746L436.956,1.835L437.006,1.904L437.006,1.994L437.496,2.718L437.446,3.977L439.057,4.79L438.777,6.149L438.507,6.566L438.597,6.814L438.667,7.012L438.907,8.053L439.888,8.886L441.299,9.025L441.699,9.263L441.949,9.779L441.839,9.967L441.529,11.187L440.889,11.801L441.219,12.803L441.049,12.952L441.049,14.25L441.059,14.429L441.589,14.964L441.629,15.133L443.21,14.667L444.081,14.806L444.151,15.073L444.261,16.114L445.041,16.659L444.871,17.661L445.482,19.247L444.941,20.08L445.802,20.466L445.932,20.466L447.523,20.972L447.613,20.982L448.314,21.685L450.205,22.112L450.195,22.24L450.095,22.617L450.085,22.706L450.615,24.005L452.106,23.866L453.137,25.055L453.047,25.125L452.707,26.255L452.987,27.236L454.148,27.811L453.958,28.871L454.118,28.871L455.199,28.108L455.459,27.999L455.569,28.029L455.559,28.157L455.539,29.228L455.659,29.594L456.97,30.893L456.99,31.576L456.96,31.685L458.331,31.21L459.462,33.013L459.622,33.162L459.892,33.756L459.462,35.064L460.662,37.135L460.682,37.373L461.843,38.581L462.193,41.088L462.924,42.484L464.055,42.732L465.296,43.574L465.356,43.624L465.696,43.861L467.737,42.366L468.898,42.514L469.068,42.653L469.248,43.237L469.348,43.297L469.589,43.257L469.709,43.257L470.699,43.356L472.23,44.654L472.751,43.376L472.661,40.652L472.801,39.998L472.31,37.422L472.831,36.223L475.793,37.997L476.163,38.928L476.593,40.117L477.164,41.484L478.075,43.376L479.726,45.941L480.356,48.863L481.367,48.447L482.538,50.784L483.909,50.913L485.139,51.408L487.861,52.389L488.482,52.408L489.342,53.31L490.123,54.161L490.373,54.508L490.743,55.013L492.795,57.716L494.676,60.122L495.987,61.042L496.027,61.062L496.577,60.825L498.008,61.716L498.028,61.943L500.52,63.537L501.481,65.012L503.632,67.685L506.114,69.743L506.564,70.634L506.915,73.296L506.805,77.185L506.985,78.313L507.345,80.649L509.206,85.298L510.587,87.831L512.759,90.798L513.569,91.916L512.599,92.628L512.899,93.083L511.218,93.36L510.467,93.093L508.686,91.006L506.614,88.177L506.094,87.148L502.802,88.81L500.71,91.065L498.939,91.5L493.605,91.975L489.392,93.508L489.783,95.1L489.202,95.259L490.143,98.68L485.7,99.897L485.25,98.285L482.458,98.215L482.157,98.809L479.706,100.055L478.695,100.144L475.873,102.329L476.113,102.438L474.122,104.969L473.962,106.827L472.741,110.752L474.162,111.444L472.941,115.526L472.371,116.356L472.981,116.702L472.791,117.601L470.879,117.443L470.709,116.544L470.099,117.394L470.609,118.184L469.999,118.244L470.129,119.933L471.26,118.787L472.591,118.866L472.371,119.617L471.49,119.36L471.68,120.803L470.269,120.428L471.17,121.574L468.818,121.603L470.029,122.592L470.489,124.459L471.16,125.605L471.73,125.398L472.08,123.856L473.541,122.424L478.325,122.957L478.135,124.222L479.676,124.41L479.465,126.287L475.062,126.149L472.661,127.305L472.671,128.698L473.141,128.688L472.461,129.863L472.661,131.088L473.201,131.157L472.421,132.689L472.25,134.18L472.591,134.309L473.151,137.686L472.791,139.385L470.799,141.429L469.889,142.703L469.048,145.597L468.608,145.913L469.479,146.465L468.088,149.546L466.146,152.656L466.196,153.228L464.645,155.183L462.804,158.588L461.883,158.786L462.994,159.102L459.291,163.434L456.359,167.46L454.868,168.496L456.79,168.615L454.518,170.381L445.872,181.4L443.34,184.872L440.078,190.414L438.167,194.18L438.217,194.594L436.766,198.074L435.775,200.982L434.984,204.718L435.235,205.664L434.994,208.384L433.533,214.188L433.834,214.267L433.413,216.218L432.983,216.986L432.483,219.873L432.643,223.419L433.293,225.34L434.594,226.522L435.255,225.527L437.326,227.034L436.976,227.871L437.496,228.216L439.037,225.892L440.788,227.074L439.337,229.24L441.589,230.757L442.92,228.63L444.261,230.54L443.18,232.116L441.309,232.52L441.399,235.149L441.049,239.836L441.799,243.557L441.539,246.363L441.119,246.648L439.938,249.936L438.377,249.247L437.796,252.17L435.975,252.052L435.225,253.242L434.894,254.443L435.315,255.142L437.566,254.699L438.807,255.142L439.468,254.492L441.409,255.772L443.06,252.819L443.961,252.504L443.41,253.695L445.071,254.423L445.872,252.809L446.102,253.488L445.542,255.004L446.613,255.486L449.304,254.62L450.185,255.663L451.356,256.47L451.906,256.392L454.078,257.533L458.111,257.986L458.441,257.769L460.232,258.438L463.985,258.743L466.446,259.462L467.427,260.583L468.838,261.124L471.01,261.498L473.271,263.151L475.773,269.122L476.914,271.139L477.684,272.014L477.554,272.624L478.945,274.404L481.457,275.791L483.418,276.607L486.21,277.296L486.711,278.023L488.282,279.213L490.183,279.764L495.297,280.197L495.987,280.826L497.398,280.934L497.608,281.514L501.821,284.503L502.131,284.218L503.412,285.3L504.193,286.46L505.354,287.325L505.764,288.908L506.654,288.672L507.285,287.934L508.346,289.674L510.207,291.542L512.659,293.164L515.02,294.147L518.273,293.999L518.803,294.402L521.014,295.061ZM481.437,102.329L480.676,102.942L479.425,102.368L477.664,104.079L482.728,106.452L482.337,107.875L481.207,108.31L479.065,112.155L475.753,111.246L474.072,110.426L474.932,104.722L478.465,101.795L480.806,100.608L482.177,100.717ZM500.85,281.957L501.351,283.51L500.56,283.608L500.24,282.979ZM348.344,468.724L349.114,468.852L349.465,469.81L348.614,470.132L347.033,469.067ZM346.102,464.07L347.313,465.205L346.843,465.723L345.762,464.305ZM551.045,315.763L551.346,316.697L550.655,316.343ZM553.897,312.866L553.287,314.595L551.916,314.712L552.076,313.769ZM541.579,301.223L543.15,302.019L542.85,303.286L541.599,303.591L540.828,304.662L539.637,303.719L538.837,302.324L540.078,301.596ZM555.909,296.388L557.38,296.486L557.68,297.744L557.34,298.108L556.459,300.604L556.519,301.587L555.018,301.547L553.777,302.402L553.127,303.915L551.256,304.426L550.505,305.487L550.695,306.676L550.025,306.863L549.354,306.038L549.845,305.35L549.024,304.682L548.073,305.134L548.474,303.886L547.463,304.21L546.792,303.483L545.932,303.945L545.652,302.785L547.003,300.27L547.653,299.798L551.516,299.12L553.477,298.471L554.498,297.813ZM534.494,294.746L534.154,295.788L533.823,294.992ZM536.705,289.684L537.796,289.94L536.505,290.421L535.465,291.414L533.823,291.031L534.214,290.569ZM540.938,289.35L542.52,289.674L541.279,289.763ZM554.148,282.478L555.028,282.704L554.368,284.031L555.909,286.066L554.968,287.561L555.258,289.065L555.999,289.714L554.188,290.323L554.718,289.409L554.488,288.829L553.247,288.514L551.926,288.937L550.835,290.009L550.395,291.07L547.493,291.807L546.712,293.134L546.622,294.049L545.812,293.075L545.231,293.705L543.85,293.528L543.3,294.393L543.59,295.002L542.459,294.678L541.099,295.316L539.337,295.12L538.206,294.343L537.496,294.324L537.836,293.154L539.357,291.984L539.417,291.198L540.208,291.562L541.249,290.746L542.98,290.254L543.22,290.775L544.291,290.893L545.522,290.146L545.652,289.33L544.971,289.173L545.732,287.797L546.953,288.19L547.973,287.226L546.582,287.384L545.452,286.607L544.251,287.453L543.59,287.109L544.531,286.145L546.762,286.145L548.023,285.516L548.674,285.968L550.815,284.68L552.236,283.53L553.307,283.264ZM559.912,280.256L558.641,281.996L557,281.288L557.58,280.57L558.401,280.718ZM580.876,277.187L581.207,277.689L582.738,278.21L582.708,279.39L581.317,280.905L581.136,281.898L580.786,280.639L579.515,279.715L579.495,278.594L580.616,277.827ZM526.829,402.743L525.818,403.125L526.458,402.067ZM496.127,359.866L496.507,360.7L495.667,362.25L494.446,362.387L495.457,360.209ZM534.534,387.673L535.755,388.398L534.524,388.722ZM523.436,384.566L524.917,385.879L524.557,386.174L523.256,385.223ZM530.581,381.027L530.821,381.89L529.791,381.008ZM528.119,378.4L528.91,380.341L527.869,379.753L527.669,380.361L524.817,380.763L526.588,379.243L527.939,379.086ZM529.57,377.42L531.242,379.596L530.671,380.126L530.191,379.635L529.671,380.4L529.741,378.93L530.241,378.518L529.07,378.037ZM530.361,375.616L530.791,375.939L530.541,377.616L529.891,376.91L529.01,376.773ZM528.42,374.733L529.48,375.733L528.75,375.979ZM528.87,371.252L530.181,371.576L530.841,372.978L529.53,373.861L528.53,373.606L526.468,373.763L525.908,372.998L527.559,371.449ZM546.963,349.27L547.263,350.379L546.963,352.184L545.922,353.264L543.71,350.399L545.061,350.065L545.692,351.174L545.902,349.329ZM385.88,416.397L386.891,416.651L386.671,417.151ZM442.009,395.395L442.49,396.14L443.33,396.267L443.59,397.796L442.82,397.424L441.629,398.031L441.059,395.993ZM450.815,380.998L449.515,382.263L449.685,381.292ZM484.539,375.508L484.859,376.792L484.429,377.488L483.518,376.998ZM381.557,433.353L382.568,433.588L382.538,434.85L381.607,434.791ZM362.554,428.86L362.814,430.495L362.134,431.434L361.313,431.601L361.723,430.426L361.353,429.222ZM367.537,425.845L368.268,426.53L367.808,426.951ZM367.337,424.416L368.328,425.003L367.527,425.326Z"
          fill="#e0e0e0"
          stroke="#333333"
          stroke-width="1"
          stroke-linejoin="round"/>
  </g>
</svg>