<?xml version="1.0" encoding="UTF-8"?>
<svg xmlns="http://www.w3.org/2000/svg"
     viewBox="194.67569607743644 -20 410.64860784511256 640"
     width="410.64860784511256"
     height="640">
  <title>滋賀県</title>
  <desc>都道府県コード: 25</desc>
  <g id="25">
    <path d="M310.58,542.69L308.73,540.437L309.213,540.125L309.313,539.894L309.363,539.089L308.696,536.013L309.396,532.642L306.779,533.974L305.829,535.865L305.496,536.359L303.013,536.211L302.813,536.375L302.663,536.72L302.379,537.099L299.779,539.237L297.412,538.447L294.129,539.516L293.846,540.092L290.962,545.485L289.679,545.633L287.279,547.212L285.995,547.278L285.262,546.127L281.395,544.532L279.412,544.433L279.678,543.759L279.928,542.361L281.212,541.786L280.428,539.483L279.645,539.072L277.478,539.138L274.495,537.477L273.695,535.783L272.628,535.882L269.545,533.645L269.895,530.553L267.728,526.868L267.661,526.079L270.845,523.595L272.145,521.325L271.978,518.643L271.011,517.804L270.628,515.715L271.545,513.576L272.278,513.082L271.728,511.486L274.545,508.377L275.028,507.126L276.678,505.908L275.278,502.453L274.928,502.14L274.578,500.198L276.045,497.927L274.411,495.409L274.461,494.685L273.611,492.479L270.128,491.492L268.595,491.08L267.961,489.648L267.711,488.858L266.645,487.343L265.994,487.179L264.044,484.957L263.644,482.751L261.928,482.158L263.144,479.277L262.694,478.19L264.244,476.116L263.311,473.02L262.328,473.366L261.794,473.152L260.144,472.971L260.661,469.596L260.228,468.443L256.877,469.563L252.461,469.069L250.394,469.003L248.21,468.789L249.577,467.224L249.36,466.434L251.844,463.404L252.194,463.47L253.394,462.218L252.061,460.094L251.444,457.063L250.177,456.602L247.894,457.557L246.71,457.244L244.977,454.576L244.644,454.527L245.194,453.967L247.16,454.922L250.794,455.35L252.811,454.938L253.077,453.555L252.427,451.43L252.311,448.547L249.91,448.992L247.944,447.46L248.094,447.262L248.794,443.951L248.844,443.671L247.51,442.073L246.677,439.371L245.027,438.943L244.977,438.778L242.577,436.257L242.16,435.878L241.71,433.637L242.31,431.973L245.11,430.638L248.26,427.721L250.711,428.545L251.694,427.507L252.161,426.947L252.227,426.782L252.477,426.601L253.011,422.167L252.244,418.607L251.744,417.651L250.894,416.185L251.444,415.031L252.144,413.152L254.344,411.173L254.411,408.75L254.811,407.283L254.661,405.255L252.594,403.145L253.661,401.744L254.911,397.49L256.694,396.105L257.044,391.57L256.977,391.141L257.061,390.795L257.227,390.416L257.844,389.838L257.977,389.657L257.911,388.057L259.094,388.255L259.194,388.107L259.411,386.721L259.394,386.293L259.411,386.012L259.544,385.534L260.411,384.066L260.544,383.918L260.394,379.778L261.661,376.644L261.728,376.116L260.711,374.351L260.928,372.487L259.928,369.996L262.011,367.241L262.194,366.053L262.061,365.558L262.228,365.047L262.344,364.931L263.061,362.852L264.244,362.275L263.878,358.364L260.761,357.869L258.811,356.351L257.794,352.82L257.494,352.325L257.311,350.031L256.511,348.958L256.644,345.558L255.977,345.327L255.661,342.703L255.811,342.158L256.461,339.979L255.344,337.668L255.144,337.437L253.811,334.268L253.627,331.973L252.711,330.239L252.911,327.664L250.444,324.841L251.211,322.43L249.76,321.059L249.96,319.127L249.66,318.814L250.344,316.865L252.377,316.056L253.827,314.768L253.794,309.351L253.977,309.054L254.011,307.369L252.294,304.875L254.461,303.686L254.644,303.355L255.211,303.008L255.327,300.316L257.394,297.822L256.511,296.863L257.127,295.36L258.511,294.286L257.727,291.312L258.911,288.867L259.044,288.504L261.944,286.504L263.328,284.406L263.078,282.555L263.094,282.142L265.178,280.308L265.228,278.49L266.394,277.3L265.811,275.565L265.511,275.102L265.144,273.169L263.344,273.764L261.511,275.317L260.411,279.052L259.494,279.845L256.211,280.473L255.444,281.96L252.361,283.134L249.677,281.382L249.094,280.506L248.777,279.812L248.36,279.036L247.377,278.127L247.294,276.11L244.544,271.962L244.86,269.714L245.244,269.384L244.344,266.541L241.81,265.268L242.243,264.045L241.493,261.417L239.51,260.623L239.81,257.201L238.493,254.986L235.727,254.754L229.243,250.836L228.86,249.546L228.61,248.786L228.426,247.529L226.126,245.892L224.259,242.237L224.393,240.815L223.476,239.41L222.626,239.84L219.993,237.921L219.026,237.888L218.759,237.706L217.542,237.541L217.226,237.26L215.192,237.111L214.676,235.225L215.309,234.481L215.509,233.588L215.492,233.29L215.726,232.91L216.176,232.711L217.259,230.909L217.026,229.238L217.709,226.641L219.876,223.498L221.843,222.704L222.859,219.097L222.926,218.8L223.293,217.261L224.093,216.914L225.476,215.127L228.393,214.531L229.476,212.546L228.743,210.709L228.893,209.087L231.226,208.591L233.293,210.213L236.56,210.56L237.927,209.716L239.227,205.778L238.71,205.348L238.127,203.428L238.493,202.286L239.443,198.298L239.443,194.706L241.177,191.528L244.094,192.025L247.01,190.601L248.11,190.634L250.827,192.19L253.261,192.389L254.377,190.916L257.477,191.677L258.478,192.819L261.978,193.283L262.144,192.968L263.628,194.342L263.044,196.394L262.944,199.771L264.894,202.187L265.061,202.27L266.211,203.411L268.411,203.958L274.328,202.005L276.862,199.886L280.662,198.38L282.395,198.198L283.995,193.101L283.962,188.068L283.679,187.224L285.645,185.205L285.979,184.973L287.979,183.317L288.662,181.132L290.612,180.486L291.779,180.851L293.896,180.188L295.046,179.145L295.312,175.586L294.096,172.837L294.462,170.403L292.696,169.31L292.779,169.045L295.029,166.892L295.729,163.862L295.812,163.332L295.429,161.328L295.946,160.019L296.746,155.116L296.046,153.791L296.012,153.576L297.079,151.82L297.496,151.522L299.096,150.147L298.963,149.302L300.196,146.469L299.796,144.763L299.563,144.15L300.179,142.957L300.246,142.576L300.929,140.952L303.463,139.71L305.163,134.192L306.496,130.928L306.763,129.85L307.746,126.818L307.613,125.177L308.73,120.851L310.613,120.354L312.68,120.901L313.663,123.453L314.246,124.183L315.297,127.812L315.463,128.11L315.563,130.298L317.863,130.364L318.363,130.48L321.03,133.529L323.514,132.436L324.464,132.784L326.414,134.275L326.647,135.335L327.497,136.031L328.414,138.467L329.73,140.223L330.897,143.173L331.847,142.775L335.281,139.345L337.464,139.942L339.348,139.262L340.031,140.091L342.431,139.76L343.448,140.356L344.448,139.942L347.398,135.866L346.914,134.756L346.898,134.557L347.348,134.176L347.765,130.596L348.681,129.121L349.698,126.304L351.931,126.553L353.715,121.216L355.765,119.956L356.565,118.73L355.115,116.591L355.415,114.934L356.298,115.232L362.515,113.541L364.449,114.171L365.182,114.304L366.015,114.503L367.065,111.635L369.615,112.447L369.815,112.547L371.082,112.315L372.599,113.442L372.832,113.342L373.832,113.492L374.299,115.315L374.582,115.845L376.432,116.16L376.766,116.558L377.282,116.79L377.699,116.956L379.516,116.409L380.133,115.381L382.483,114.271L382.283,111.701L383.716,110.839L384.333,108.717L385.616,107.64L391.333,109.778L392.316,111.138L393.266,111.933L394.716,112.199L395.05,113.259L397.733,115.464L397.867,115.381L398.667,114.155L398.067,108.916L398.717,108.336L399.067,107.938L399.667,106.446L399.7,106.297L399.067,103.627L399.433,102.284L399.65,101.654L398.167,99.068L398.067,98.587L398.2,97.227L398.417,96.929L400.4,95.022L400.467,92.932L400.533,92.634L400.217,91.921L400.05,91.605L399.05,89.35L400.75,87.493L400.967,87.078L401.7,85.701L401.717,85.486L401.35,81.737L402.083,79.796L403.983,80.841L404.1,81.19L403.75,82.218L405.55,83.728L405.95,84.026L409.884,84.374L412.401,85.253L414.917,84.756L415.367,84.573L417.367,85.817L418.134,87.559L421.401,87.31L422.601,86.431L423.484,86.547L425.551,87.41L428.601,87.376L429.301,88.935L430.018,90.196L430.885,91.357L431.101,91.34L432.335,90.677L432.068,90.113L431.918,89.549L432.118,89.383L432.551,87.343L432.085,85.519L432.335,85.154L430.468,79.879L431.351,78.619L433.668,76.13L435.435,72.763L436.018,72.132L436.385,71.751L434.751,66.176L434.318,65.745L432.818,62.111L432.751,61.564L430.701,56.137L429.335,55.258L428.401,52.652L427.618,51.988L427.201,51.955L426.634,49.034L426.868,45.35L425.551,41.2L423.801,39.507L422.351,35.622L421.668,32.235L421.901,32.003L421.851,29.562L420.451,27.155L414.917,25.461L413.567,23.85L413.934,21.426L414.167,21.144L415.134,20.014L416.051,16.942L417.584,16.162L418.134,13.587L419.467,11.279L420.818,10.482L421.084,9.801L421.768,8.256L421.684,5L421.951,4.435L422.051,3.671L422.351,3.422L423.984,3.057L424.418,2.459L425.451,2.193L427.734,3.904L427.968,4.751L430.268,4.053L430.668,0.831L430.901,0.498L431.085,0.299L431.251,0.133L431.351,0.15L431.435,0.399L432.435,1.395L434.951,0.05L435.101,0.166L437.985,1.229L438.168,1.362L439.568,0L443.218,0.698L443.685,0.748L445.019,2.11L445.219,2.542L447.552,9.186L449.252,9.302L450.719,11.113L452.786,10.515L453.786,11.246L453.969,11.445L455.302,14.468L455.919,13.288L457.702,12.574L460.152,13.371L461.569,14.933L463.319,15.298L465.553,13.836L466.253,13.969L466.936,13.969L472.436,19.699L474.37,18.42L475.503,18.088L476.97,19.317L477.72,19.715L479.603,21.409L480.72,21.027L482.837,21.509L485.937,23.219L486.904,25.146L488.337,25.295L491.687,27.968L491.804,29.712L489.587,32.318L489.554,34.443L492.27,37.033L492.37,37.979L492.704,38.328L492.937,40.204L492.92,40.884L491.22,42.212L490.954,44.221L492.77,45.682L493.304,47.424L493.421,47.789L495.387,49.98L495.254,52.403L496.154,54.959L498.754,56.436L501.154,56.901L504.071,55.042L504.971,55.208L505.621,53.731L508.604,53.383L509.321,53.233L510.621,52.984L514.021,56.619L514.505,57.282L514.871,57.581L513.171,61.365L510.188,64.418L510.188,64.633L512.105,65.745L512.371,65.927L512.588,66.74L513.038,67.404L513.788,69.578L513.655,72.514L514.371,73.028L513.988,75.566L514.671,77.341L514.755,77.856L515.138,79.232L514.005,80.825L514.588,82.434L514.588,85.22L513.838,87.028L514.355,88.222L514.305,88.587L514.171,88.786L513.605,89.483L512.288,91.141L510.888,97.642L511.171,98.106L511.155,102.251L511.688,103.312L514.088,105.169L515.805,104.274L516.088,103.246L515.988,103.047L515.788,102.268L518.105,100.792L522.172,101.256L522.988,102.367L523.622,105.501L524.288,106.098L523.355,107.789L524.605,109.745L525.555,109.778L526.855,110.508L527.272,109.546L528.022,109.231L531.722,108.9L532.555,108.087L532.655,106.098L533.622,104.821L533.972,101.903L534.922,101.008L535.822,97.327L535.756,95.652L537.356,94.889L540.006,95.552L541.472,95.088L542.656,98.869L542.806,100.61L545.223,104.025L545.106,107.374L545.606,109.563L547.356,112.58L548.273,112.514L548.906,112.828L553.456,113.807L554.54,113.326L556.023,114.569L555.706,116.426L556.756,117.486L555.306,120.337L557.256,122.078L558.84,125.575L557.757,126.884L557.04,125.658L556.873,125.624L554.323,128.028L553.556,129.933L552.756,130.099L551.69,131.789L550.14,135.733L549.239,136.644L549.556,137.688L548.789,139.296L548.756,140.273L548.773,142.046L551.256,144.167L551.473,144.117L554.74,146.966L555.806,150.412L556.856,151.886L556.756,154.222L562.207,155.431L563.373,156.392L565.94,155.845L567.14,158.297L566.957,160.897L567.324,163.646L569.007,165.17L569.857,168.565L567.724,172.257L568.257,173.996L566.274,176.96L564.34,178.152L564.157,179.443L565.94,181.993L565.64,182.738L565.373,182.87L562.29,185.387L562.09,185.784L562.14,188.035L563.757,189.045L566.707,191.793L568.124,194.987L569.04,195.567L568.874,197.073L570.824,199.771L573.774,201.723L575.441,202.104L575.591,203.246L575.674,203.494L577.591,204.239L577.791,204.404L578.174,206.456L579.557,207.151L578.124,210.56L577.274,211.338L576.924,211.801L575.607,214.035L569.807,217.857L569.507,217.79L567.174,218.254L566.724,218.221L565.407,217.824L564.457,217.691L562.207,220.107L562.673,221.165L562.773,221.629L562.373,223.151L563.123,224.259L562.923,225.483L563.073,226.641L561.023,228.609L562.007,231.785L562.69,231.785L564.74,230.082L567.49,230.859L567.324,231.239L567.79,234.266L566.107,236.78L565.857,239.36L564.457,241.394L564.157,241.758L563.557,244.734L562.807,244.9L561.807,247.711L563.073,250.29L562.323,251.497L562.39,255.862L560.707,258.21L560.207,258.838L559.357,262.871L557.406,264.309L557.49,265.698L555.473,266.458L554.506,268.673L554.073,269.004L552.856,271.004L551.056,272.541L550.923,274.028L552.19,275.301L553.523,278.622L553.54,280.853L553.59,282.687L553.19,283.762L552.84,285.133L552.606,288.818L552.64,289.115L552.34,291.131L552.873,293.064L554.173,293.758L552.573,296.649L549.756,299.242L547.823,300.052L547.256,300.052L545.623,299.87L544.323,301.836L544.339,302.05L543.689,303.57L543.956,303.735L547.489,306.527L547.606,306.807L548.123,308.74L551.74,309.599L552.49,311.68L551.773,312.109L551.773,312.225L553.29,312.786L553.573,312.935L553.89,312.984L554.24,313.182L556.273,314.784L556.59,315.115L558.24,315.907L558.39,316.006L560.257,316.254L561.857,318.318L562.09,318.665L562.257,319.705L563.923,320.168L564.223,320.531L564.357,321.109L564.473,328.209L565.073,330.058L564.457,330.372L563.223,332.154L562.573,334.548L562.59,337.14L560.873,339.913L562.373,340.936L562.69,340.837L563.107,341.019L566.24,343.165L568.94,341.993L571.857,344.188L574.991,347.241L575.674,349.321L576.091,349.767L577.324,350.592L579.357,350.394L579.757,351.202L579.941,351.433L580.491,351.747L580.624,352.06L580.457,352.49L580.174,352.556L580.057,353.942L581.857,353.595L584.024,354.255L585.124,356.896L585.124,357.226L584.924,357.556L584.574,358.216L585.324,363.067L582.124,364.816L581.791,364.816L579.991,364.865L578.991,367.818L579.441,369.765L579.307,370.128L578.857,371.827L576.174,373.46L575.674,377.683L575.941,377.848L576.641,378.64L579.624,379.877L581.424,382.285L581.224,382.483L580.557,382.681L580.457,382.813L580.141,383.753L580.057,384.05L579.641,385.023L579.274,385.122L578.507,385.633L578.191,385.963L577.407,387.925L577.841,388.47L578.674,390.432L578.091,391.471L577.724,392.378L578.307,396.517L578.157,396.797L577.474,397.457L577.207,397.803L576.824,400.622L576.957,401.199L576.741,403.343L576.841,403.475L577.941,405.156L578.157,406.871L577.741,406.97L575.074,409.426L575.141,410.003L575.924,412.525L577.124,413.547L577.057,415.443L577.291,416.036L577.607,416.827L577.807,416.992L578.141,419.283L577.207,420.206L576.874,420.074L572.474,424.195L571.24,426.09L569.074,425.661L567.99,427.408L567.824,429.188L566.59,429.88L566.257,430.325L564.323,435.977L564.857,437.559L564.773,437.839L564.89,440.689L565.924,443.424L568.907,443.638L568.124,445.796L568.09,446.208L567.39,447.806L567.44,448.317L566.44,449.601L565.673,449.7L565.557,449.733L565.29,449.98L565.857,452.039L564.723,453.917L565.807,457.294L565.824,457.59L566.524,461.098L566.874,461.428L567.007,463.321L566.64,463.684L563.573,465.215L563.057,466.088L564.59,468.179L563.523,476.495L563.44,476.89L560.59,479.359L559.807,481.269L557.556,483.162L557.623,485.006L555.356,487.097L555.573,488.496L553.973,490.784L553.273,494.536L552.14,495.08L549.206,493.746L541.156,500.84L542.589,502.387L542.339,503.308L542.389,503.522L540.722,505.859L540.622,510.285L542.523,512.457L538.639,513.987L538.239,517.623L538.906,518.709L536.956,520.667L536.889,520.946L537.556,523.052L537.522,525.322L536.989,525.322L534.739,525.717L534.406,525.849L532.922,528.184L530.405,528.809L530.172,528.809L529.155,529.171L528.305,530.964L526.605,531.638L526.355,531.556L524.322,531.227L523.988,531.293L520.955,532.971L520.438,533.086L518.638,533.448L516.355,535.931L514.988,535.125L512.371,535.322L509.338,536.984L509.505,539.516L509.321,539.96L509.071,541.177L507.704,541.555L507.588,541.654L506.354,543.216L505.938,543.594L504.088,544.959L502.504,544.121L502.271,544.384L498.421,547.886L494.971,548.083L494.421,547.87L494.221,547.804L492.254,547.426L491.337,546.012L491.07,545.781L489.854,545.37L489.72,545.781L489.437,546.242L488.02,548.264L487.587,548.56L485.437,549.497L484.903,551.75L481.203,553.443L480.737,553.624L475.97,556.14L471.303,554.89L468.619,554.989L468.203,554.134L467.919,554.084L464.253,553.657L463.403,554.035L461.136,552.572L459.252,552.473L458.386,550.994L457.486,551.322L454.736,550.632L453.286,549.333L451.319,548.971L450.302,549.218L448.385,548.116L448.235,548.182L447.852,548.149L446.485,546.949L446.335,546.85L444.185,546.472L442.952,545.568L443.335,544.4L442.402,543.167L442.185,543.002L441.535,542.641L441.118,542.805L438.918,542.789L437.035,541.638L436.802,539.894L438.152,537.806L437.052,536.967L434.951,536.901L434.551,536.836L433.768,536.885L433.435,536.786L431.785,537.082L430.701,536.424L426.918,537.28L426.684,538.464L423.551,538.595L420.851,540.273L418.967,539.204L418.617,538.25L418.451,538.052L414.351,536.211L413.717,538.135L413.517,538.414L411.634,539.565L409.584,538.036L408.684,536.622L408.5,536.227L406.45,536.441L405.667,534.829L405.684,534.615L405.65,534.04L405.267,533.744L403.733,533.678L402.55,531.984L403.133,530.948L402.733,528.99L402.35,528.776L401.4,527.263L398.933,528.234L398.633,528.431L397.783,528.826L397.683,528.99L395.683,531.063L394.133,534.517L394.1,534.698L392.6,535.882L392.35,536.063L390.966,536.523L390.866,536.309L389.133,535.75L388.55,534.665L387.316,536.688L387.133,536.918L389.2,540.042L386.833,542.295L387.466,544.022L388.633,544.236L388.833,544.285L391.566,545.946L391.916,545.995L392.616,545.798L392.783,546.012L394.2,547.754L395.216,547.754L395.516,547.952L398.783,548.166L399.067,547.787L401.9,548.593L403.1,546.867L403.25,546.834L403.867,547.261L404.017,547.426L404.917,547.722L406.667,546.324L407.9,546.62L407.984,546.751L408.667,548.116L406.984,550.435L408.95,553.345L408.334,553.871L408,554.052L406.084,554.808L405.934,555.054L404.4,556.6L404.3,556.962L403.817,557.619L403.6,557.553L401.983,557.192L400.05,558.096L398.583,559.543L399.283,561.088L398.8,564.195L397.5,566.775L397.417,567.12L395.416,567.531L395.05,567.876L394.85,568.337L394.633,568.271L393.05,567.959L392.7,567.794L391.95,567.728L390.633,569.701L390.233,569.734L388.05,569.043L387.399,569.98L389.466,572.15L388.133,574.27L389.916,576.768L390.016,578.115L392.216,581.418L391.516,581.862L390.95,582.733L389.85,583.554L389.7,586.003L387.499,586.857L387.199,586.759L385.949,587.564L385.833,587.629L385.033,588.845L381.649,588.763L380.066,591.227L379.799,591.162L377.832,591.31L376.499,592.46L376.299,592.509L374.649,594.07L372.182,592.378L371.899,591.457L370.649,592.936L370.615,593.528L368.799,594.497L366.099,593.051L365.982,593.33L364.715,594.464L364.482,594.333L364.165,594.563L363.665,594.727L361.782,597.864L358.715,597.815L358.548,598.012L356.382,600L354.031,599.146L353.781,599.294L353.115,599.376L353.081,599.425L349.965,597.47L349.881,597.372L349.548,595.335L349.348,595.515L347.198,596.649L346.598,594.053L348.765,589.946L348.948,589.585L349.331,587.744L349.615,587.481L350.015,587.104L350.081,586.66L352.148,585.904L354.548,584.162L354.748,584.392L356.182,583.686L356.565,583.242L355.932,579.644L355.548,579.709L352.765,577.77L349.931,575.059L349.715,575.009L349.431,576.521L347.548,577.442L344.398,576.866L342.364,572.478L342.648,570.769L342.664,570.375L343.414,566.315L343.681,566.101L343.814,565.493L343.498,565.115L340.698,564.507L339.297,565.493L339.014,565.51L337.364,566.266L336.881,565.92L336.614,565.888L336.231,566.216L334.197,567.235L333.047,566.742L332.531,567.35L329.197,568.764L324.93,568.978L325.714,567.449L326.13,563.8L324.114,563.406L322.947,561.564L321.53,561.055L320.53,558.49L320.397,558.162L318.997,557.931L316.097,559.132L315.78,559.658L315.463,559.707L314.946,559.625L312.73,560.364L312.696,558.901L311.38,555.005L309.93,552.703L309.613,552.391L309.663,549.284L310.863,546.308L310.646,545.403L310.93,544.877L310.596,542.871Z"
          fill="#e0e0e0"
          stroke="#333333"
          stroke-width="1"
          stroke-linejoin="round"/>
  </g>
</svg>