<?xml version="1.0" encoding="UTF-8"?>
<svg xmlns="http://www.w3.org/2000/svg"
     viewBox="105.5372979928361 -20.000000000003638 588.9254040143205 640.0000000000036"
     width="588.9254040143205"
     height="640.0000000000036">
  <title>京都府</title>
  <desc>都道府県コード: 26</desc>
  <g id="26">
    <path d="M567.015,429.124L567.299,429.166L568.774,431.437L569.781,431.703L571.724,430.89L572.802,431.283L573.327,433.862L574.462,435.67L573.441,436.735L573.143,436.679L571.029,439.258L571.214,439.93L570.051,441.262L571.909,441.444L573.668,441.5L577.427,441.92L580.278,440.967L580.647,441.948L580.207,444.821L581.611,444.975L582.065,445.157L582.902,444.863L583.696,447.497L582.377,449.263L582.76,450.187L581.725,452.639L583.186,453.144L583.526,455.021L585.186,456.912L585.739,457.052L586.647,458.341L586.859,459.014L587.398,460.232L588.703,460.582L591.668,461.423L592.391,463.3L592.349,463.916L593.739,466.059L592.491,467.992L592.788,469.645L593.086,469.911L594.278,472.852L592.874,473.888L592.462,474.952L590.065,477.599L590.533,478.957L589.909,479.377L589.129,481.197L589.455,482.975L590.278,483.69L590.42,485.972L589.313,487.904L586.604,490.017L586.661,490.689L588.505,493.825L588.207,496.456L590.831,498.36L591.739,498.276L592.42,499.718L594.959,501.131L596.803,501.075L597.469,501.425L598.136,503.384L597.044,503.874L596.831,505.064L596.604,505.637L598.292,505.721L601.583,507.079L602.207,508.058L603.299,508.002L605.342,506.659L606.434,506.533L608.888,501.943L609.129,501.453L611.923,500.543L613.938,501.215L616.15,499.396L616.391,499.074L616.519,498.78L616.689,498.64L618.803,498.766L619.086,498.346L619.895,496.736L622.122,495.603L621.526,498.472L622.094,501.089L622.051,501.775L621.966,501.971L621.555,502.237L623.129,504.154L623.143,504.308L623.427,506.015L623.186,506.463L623.37,507.233L622.349,509.765L622.306,512.41L622.576,512.676L623.81,514.635L624.93,517.951L624.959,519.196L626.845,518.566L627.285,518.636L627.555,518.594L627.824,518.146L630.292,517.125L631.484,517.321L631.597,517.601L632.448,519.783L633.654,520.217L634.647,521.784L636.363,522.119L636.009,525.225L635.342,526.526L638.973,526.344L641.81,525.141L642.25,524.623L643.228,525.043L644.959,524.176L645.285,523.896L645.512,523.924L645.924,524.218L647.328,523.574L647.569,523.56L648.76,522.721L651.143,523.239L651.413,523.56L651.299,524.078L651.072,524.26L650.434,527.715L650.42,528.05L650.179,529.505L651.909,533.239L654.59,533.729L656.193,532.946L656.434,531.659L656.619,531.701L659.03,534.009L661.399,535.659L661.725,535.603L662.264,538.665L661.938,539.043L660.718,539.644L660.548,539.449L658.505,540.931L656.746,541.574L656.69,541.952L656.349,542.273L656.108,542.497L655.782,544.063L655.626,544.371L653.782,547.866L654.292,550.075L656.122,549.11L656.292,548.956L656.576,550.69L656.647,550.774L659.299,552.438L659.285,552.466L658.307,553.165L658.236,555.317L659.441,557.582L660.434,557.917L660.633,558.113L662.704,558.351L664.463,559.175L664.505,561.691L664.69,561.999L663.924,563.886L663.583,564.319L662.931,566.01L662.761,566.443L662.647,567.505L662.775,567.645L663.3,568.749L663.3,568.917L662.08,570.915L662.917,572.257L664.888,571.726L665.512,571.921L666.548,571.949L666.236,573.249L666.987,575.065L666.917,575.47L668.675,576.728L668.775,576.91L668.846,577.301L669.129,577.315L669.3,577.329L670.874,578.768L671.044,579.578L671.144,579.83L671.3,580.053L672.434,581.101L674.463,581.897L671.952,581.883L668.761,583.267L668.179,584.957L668.023,585.432L668.136,587.625L668.136,587.779L667.37,590.056L667.144,592.151L664.562,593.492L664.009,594.721L663.64,594.916L662.505,595.698L662.094,596.942L662.221,597.137L661.909,598.003L662.023,598.422L662.264,599.804L661.98,599.916L660.448,599.665L657.924,598.548L655.285,598.939L655.385,597.179L655.385,596.844L654.916,595.531L653.385,594.092L651.512,593.701L649.058,596.076L648.874,596.131L648.349,595.81L645.455,596.578L645.711,595.307L643.853,595.07L643.682,595.07L642.845,594.888L642.292,592.5L642.647,591.257L642.704,591.033L642.335,587.821L642.165,587.332L641.2,585.516L641.626,584.175L640.491,582.945L638.916,582.512L638.704,582.247L638.477,580.808L636.292,579.955L635.867,580.305L635.796,580.528L635.725,580.612L635.299,580.808L633.909,579.69L633.782,579.606L632.533,580.486L632.377,580.626L631.881,581.059L631.767,581.101L631.342,580.822L631.143,580.808L630.235,580.961L629.796,578.405L628.391,576.49L626.845,577.594L626.25,578.684L626.179,578.712L625.711,578.614L625.498,578.614L624.108,580.053L623.909,580.067L623.299,581.157L623.214,581.408L623.2,581.995L623.143,582.358L622.803,582.498L622.661,582.414L620.15,580.975L618.278,582.414L615.555,580.892L615.342,580.794L615.228,580.933L614.916,580.71L614.008,578.502L616.491,574.8L616.59,574.632L616.094,572.564L616.406,572.187L616.675,571.74L614.477,571.362L614.051,572.229L613.824,572.48L613.682,572.746L613.625,572.83L613.356,573.025L612.76,573.878L612.32,573.682L610.831,573.486L609.654,575.918L609.583,577.441L608.817,578.963L607.328,580.333L605.909,582.847L604.874,583.267L604.859,583.518L604.448,585.544L604.179,585.795L602.703,585.865L602.065,587.066L601.994,589.385L601.001,590.181L600.987,590.461L600.278,592.64L599.909,593.268L599.015,598.562L598.959,598.715L598.533,597.514L597.086,596.117L596.788,595.852L594.803,595.545L593.384,596.523L593.186,596.467L592.547,595.615L591.342,596.481L591.1,596.844L591.03,596.914L590.874,596.969L590.335,596.983L589.796,597.263L588.335,597.779L588.037,597.919L586.689,599.86L585.441,599.511L585.044,599.372L584.363,599.553L584.235,599.693L583.909,599.735L580.533,599.958L580.405,600L580.334,598.771L577.412,598.31L577.1,598.226L575.583,596.774L571.625,595.754L570.42,596.467L569.937,595.74L568.235,596.578L566.604,596.746L566.079,596.397L563.852,594.958L562.462,595.279L562.221,595.14L563.157,595.056L563.412,593.729L561.923,593.548L561.81,593.506L560.604,593.38L560.434,593.324L559.455,591.187L557.27,590.531L555.866,591.871L555.54,590.265L553.838,589.497L548.575,590.517L548.263,590.419L547.597,590.489L547.214,590.349L546.689,589.986L546.462,589.93L545.582,589.665L545.724,589.525L544.192,589.287L543.994,589.148L543.426,589.064L543.185,589.022L539.98,588.812L537.1,587.346L537.37,585.418L537.341,584.566L537.526,584.175L537.923,583.909L538.15,583.644L533.824,579.299L533.639,577.51L530.008,576.504L528.717,575.554L528.902,574.73L528.831,574.395L528.831,572.592L527.256,572.83L526.292,567.268L526.15,567.072L525.88,565.605L526.022,565.437L525.98,565.06L526.008,564.878L525.696,561.761L525.171,559.972L525.398,559.651L525.483,559.203L527.582,556.631L528.589,556.324L529.426,554.828L530.675,554.213L530.121,552.647L530.604,551.473L531.682,551.305L533.1,548.453L533.384,546.859L533.313,546.37L532.972,545.461L532.575,545.265L531.611,544.482L531.497,544.217L531.27,543.616L531.242,543.196L529.568,541.224L529.455,541.113L528.533,538.176L528.533,537.868L528.363,537.463L528.235,537.211L526.93,535.267L526.731,535.141L523.171,534.82L523.1,534.722L522.93,534.288L522.646,533.827L522.66,532.806L520.675,530.079L520.533,529.925L519.256,526.666L518.235,525.645L518.121,525.435L517.143,524.567L517.313,523.644L517.199,523.322L516.717,521.756L515.653,520.497L515.497,520.203L513.384,518.972L512.405,519.503L511.653,519.909L510.32,520.762L510.107,520.93L509.994,520.972L509.838,520.972L509.171,519.098L508.703,518.79L508.291,517.993L508.419,517.783L508.447,516.915L508.107,516.691L507.979,516.621L507.838,516.398L508.703,514.677L509.213,514.243L509.497,513.641L508.986,513.837L508.15,513.585L508.206,511.137L508.107,510.983L507.88,509.29L506.986,509.346L505.001,508.044L504.646,507.946L503.923,506.533L503.823,506.071L503.852,505.637L504.093,505.218L504.263,505.036L504.462,504.714L503.965,502.923L502.916,502.475L504.192,498.85L502.589,497.464L501.582,494.763L500.845,494.917L501.029,492.467L497.653,489.905L497.341,489.891L496.93,489.653L495.611,490.871L495.54,490.731L495.142,489.681L495.043,489.863L494.291,489.751L494.064,489.415L491.752,487.722L491.398,487.26L491.199,486.966L488.575,486.756L488.405,483.115L490.462,482.611L489.426,480.105L489.525,479.531L489.582,479.335L489.54,479.139L488.589,477.599L486.915,476.717L486.178,475.694L486.079,475.288L483.866,474.196L483.114,474.784L481.398,472.74L480.305,472.502L479.979,472.628L479.256,473.286L477.256,472.628L475.142,474.28L473.61,476.423L473.44,476.647L469.993,476.269L468.362,476.829L468.164,476.885L467.993,476.899L467.71,476.871L466.674,476.521L466.305,476.451L466.646,474.826L467.965,472.053L469.1,472.628L470.022,470.891L470.121,470.723L471.171,470.121L471.412,469.799L471.44,468.58L471.596,468.524L472.802,466.255L472.859,464.07L474.235,461.031L473.951,460.064L475,459.308L473.568,457.094L473.483,455.259L472.731,454.643L472.476,452.415L470.008,453.41L467.937,452.443L467.752,452.457L467.625,452.443L467.497,452.485L467.114,452.835L466.859,452.835L463.653,453.606L463.483,453.942L462.802,455.245L462.093,454.559L461.781,454.727L460.291,452.331L460.263,452.065L460.135,451.883L459.908,450.874L459.866,450.72L459.242,449.627L458.915,449.585L457.27,450.706L456.589,450.888L454.561,452.093L454.305,452.205L453.128,453.2L453.213,453.564L453.213,454.517L453.241,454.643L453.454,456.87L453.681,457.234L454.022,457.739L454.461,458.173L456.447,458.271L456.532,458.397L456.646,460.919L454.617,461.563L451.497,461.871L451.156,462.6L449.568,462.179L449.355,464.645L448.717,466.087L449.199,467.768L448.092,468.468L446.858,470.527L447.468,471.213L447.114,472.137L446.958,472.404L448.986,471.045L449.199,470.541L449.241,468.902L449.44,468.664L450.291,468.482L450.731,470.443L450.646,470.821L449.426,473.468L450.277,473.678L453.582,470.303L454.575,470.401L454.873,470.499L457.823,471.493L458.022,472.432L457.951,472.782L457.88,473.3L457.781,473.846L457.539,475.12L457.908,477.501L457.752,479.335L457.851,479.573L457.185,479.993L456.702,480.329L456.149,480.707L453.937,482.891L451.369,482.989L449.397,482.163L449.227,482.135L447.142,482.345L445.1,483.424L443.341,481.743L443.241,481.799L442.901,482.737L440.972,482.359L439.497,483.55L438.475,482.023L438.376,481.771L437.185,480.427L438.178,478.187L436.078,476.997L434.56,476.899L432.149,475.974L430.759,474.49L430.603,474.238L430.447,473.762L430.447,473.538L428.631,473.426L427.596,471.507L427.426,467.544L425.667,467.684L422.66,466.227L421.724,467.95L419.78,469.393L416.362,468.79L415.596,466.409L413.752,465.695L413.653,465.625L411.993,464.056L414.887,460.148L414.036,460.134L413.638,458.411L413.525,458.397L412.135,457.318L412.546,455.693L413.355,455.988L415.468,454.993L415.028,452.569L415,452.275L414.787,451.995L414.759,451.799L414.986,450.047L414.121,448.534L413.993,448.422L413.043,446.46L414.504,444.695L416.901,443.616L417.128,443.476L417.653,443.125L417.752,442.901L415.667,441.92L414.759,440.519L412.972,440.379L411.965,439.159L411.667,439.159L410.22,439.608L407.596,439.244L406.745,438.683L406.461,438.557L402.475,435.502L400.362,435.053L400.191,435.053L400.106,435.123L399.95,435.319L398.39,434.983L398.078,434.815L396.617,433.413L396.433,433.315L395.014,433.147L394.546,433.147L394.248,432.586L393.823,432.25L392.376,431.871L392.121,431.773L391.596,431.661L391.142,431.745L389.979,432.18L389.269,432.6L385.482,435.179L383.581,434.843L383.014,433.946L382.83,433.525L382.603,433.035L382.404,432.867L381.865,432.362L381.808,432.138L381.085,431.227L380.546,431.086L379.071,430.133L378.745,430.4L378.503,430.89L378.135,431.185L376.603,432.614L373.567,430.568L373.425,430.792L372.39,431.479L370.007,429.979L369.198,430.063L368.815,430.105L367.893,430.568L367.454,430.568L366.588,429.376L366.503,429.138L365.567,427.54L365.454,427.344L364.872,424.848L365.908,424.021L365.709,422.746L365.879,422.269L366.447,421.932L366.702,421.75L366.759,419.731L366.759,419.507L365.865,416.521L365.95,414.543L365.085,413.772L364.943,413.506L364.092,411.739L361.964,411.094L361.922,411.094L361.071,409.285L361.369,407.041L360.773,405.737L361.95,403.661L363.666,402.806L363.964,402.679L364.773,402.245L364.319,400.225L364.347,399.832L365.468,398.556L366.886,398.037L368.333,396.788L368.617,396.592L368.971,395.947L369.156,395.876L370.404,395.638L370.702,395.722L372.177,395.512L373.596,394.095L373.794,394.123L374.844,393.898L374.844,392.383L374.915,391.948L374.461,390.77L375.113,388.399L375.851,387.403L376.092,387.361L376.489,386.323L375.95,385.944L375.851,385.86L375.766,385.649L375.369,384.007L374.163,383.474L373.964,383.32L373.979,383.137L373.837,382.871L371.425,382.141L370.489,381.229L369.837,382.225L369.638,382.282L369.425,380.766L369.496,380.373L370.049,378.296L370.248,378.128L370.149,376.177L370.163,375.868L371.681,375.012L372.035,374.128L371.979,373.876L370.205,372.304L369.993,372.121L369.099,370.858L368.915,370.676L368.645,369.09L370.262,366.732L370.305,366.451L371.042,365.763L370.532,365.019L370.404,364.5L366.943,363.924L364.305,364.008L363.964,364.107L362.603,364.387L362.461,364.261L362.106,363.377L361.922,363.335L356.801,362.647L356.064,361.987L355.908,361.383L354.376,360.092L351.936,360.569L348.787,360.527L347.496,359.376L347.624,357.831L346.872,355.697L347.085,355.655L347.283,355.529L348.049,355.037L348.092,352.819L343.666,352.763L341.638,353.072L340.361,354.532L338.149,354.448L337.964,354.644L336.319,354.757L334.489,355.641L332.914,355.529L330.971,356.68L329.042,356.315L328.602,356.203L328.262,356.189L326.631,357.34L324.063,356.652L323.964,356.666L322.56,355.711L322.319,355.529L321.283,355.36L320.985,354.897L320.219,354.321L319.51,352.047L321.595,352.187L322.815,351.148L323.68,349.042L323.709,348.578L323.95,347.961L324.432,347.778L325.836,346.444L324.929,344.337L324.815,340.883L323.624,340.531L323.014,340.714L322.191,340.756L321.822,340.644L321.652,340.56L321.198,340.166L320.418,338.72L319.014,338.902L317.042,337.442L316.602,337.68L315.794,337.736L315.538,337.961L312.702,338.312L310.73,337.835L310.233,337.371L308.177,337.863L306.574,336.964L305.893,337.666L305.269,337.512L302.744,337.624L302.531,337.694L300.673,337.638L300.56,337.385L300.063,337.161L299.581,337.301L298.517,337.259L298.333,337.287L297.51,339.801L297.326,340.026L297.028,341.866L296.829,342.245L296.758,343.818L295.24,344.941L295.099,344.941L294.616,344.787L294.389,345.04L293.084,345.629L292.857,345.728L292.56,345.615L292.077,345.798L289.453,345.77L289.34,345.91L289.226,345.966L289.042,346.037L288.333,346.346L287.779,346.43L285.964,345.896L285.893,345.7L284.971,344.267L284.701,344.141L284.474,344.014L284.304,343.93L283.765,343.72L283.396,343.354L283.226,342.371L280.545,340.251L279.24,340.377L278.971,340.349L277.893,340.475L277.935,338.34L278.063,338.088L277.964,337.512L278.106,337.203L278.588,334.913L278.928,334.646L278.985,334.281L279.198,334.084L279.099,333.677L277.836,331.289L277.737,330.755L278.29,329.168L280.46,328.002L283.297,328.283L283.765,327.201L282.914,324.433L282.772,324.096L282.56,323.899L282.588,323.618L281.808,322.424L279.964,322.326L278.602,320.879L278.276,319.094L277.184,318.167L277.013,318.026L276.857,317.071L275.51,315.764L274.091,316.607L273.141,316.438L272.73,316.452L272.077,316.199L271.708,316.045L270.049,313.347L269.68,313.29L269.396,313.136L267.794,313.796L266.29,313.052L266.162,312.925L263.013,309.763L263.793,308.034L265.879,307.416L266.262,307.233L267.637,303.944L267.666,303.494L268.375,302.848L268.645,300.795L267.595,297.295L266.659,296.1L266.815,295.988L265.992,294.666L265.723,292.065L265.552,291.854L265.098,291.475L264.801,291.137L262.914,290.181L262.574,290.294L261.311,289.731L260.9,289.351L259.949,288.972L259.51,288.902L258.332,289.759L258.091,289.745L256.46,289.45L256.191,289.436L255.283,288.198L253.921,288.353L251.652,290.603L251.24,290.743L248.46,289.323L246.843,289.675L241.623,287.903L241.311,288.423L238.474,290.758L238.29,291.179L236.871,291.925L235.581,291.123L234.091,292.079L233.595,293.598L233.396,293.991L231.354,295.046L231.226,295.369L230.219,298.757L228.928,300.064L228.134,299.741L226.488,300.514L225.637,302.581L223.354,303.804L221.807,301.301L221.893,300.219L221.822,299.516L221.169,297.984L220.602,297.871L220.034,297.478L220.389,295.763L218.914,294.216L218.829,292.923L217.921,291.39L218.119,291.32L218.361,290.926L218.261,290.743L218.261,290.547L218.361,288.634L217.822,288.662L217.651,288.536L216.63,289.225L216.446,289.422L214.46,289.858L214.205,289.844L211.665,288.831L211.538,288.944L211.453,289.169L210.63,290.097L210.559,290.223L209.765,290.772L209.467,290.758L208.687,289.703L207.268,289.141L206.97,289.07L204.105,288.184L203.85,288.142L203.268,288.227L203.297,287.931L202.318,287.411L202.134,287.242L201.212,286.722L201.041,286.581L200.914,286.314L200.786,285.991L199.836,286.174L199.665,286.258L196.715,285.217L196.658,285.049L197.821,282.096L197.665,280L197.793,279.663L196.19,277.497L196.02,277.23L192.304,275.851L191.949,273.826L191.793,273.812L190.871,274.543L188.942,274.614L188.658,274.346L186.162,272.912L184.616,272.827L181.594,271.519L177.594,270.97L176.928,269.944L174.105,269.93L172.616,268.945L172.006,268.973L170.431,267.229L168.147,266.483L167.694,264.753L166.162,264.12L165.736,264.12L165.481,263.951L165.225,263.88L163.864,264.499L162.318,264.415L157.779,261.967L156.885,260.757L156.417,259.013L158.573,255.959L158.53,255.453L158.006,254.158L159.495,251.836L158.871,249.219L157.183,247.755L156.786,247.628L154.686,246.517L154.757,244.87L154.899,244.082L154.601,243.096L154.701,242.942L155.24,242.857L155.254,240.802L157.24,239.254L157.396,238.395L155.325,232.68L156.076,230.315L158.928,225.387L159.098,223.176L158.786,220.754L157.92,219.472L157.651,218.98L157.452,217.867L157.169,217.768L157.396,216.74L157.424,216.332L157.949,216.05L158.176,216.163L159.155,214.431L159.254,213.121L160.36,212.67L160.715,212.346L161.481,209.304L162.006,208.797L162.261,208.628L162.97,208.628L163.382,208.36L165.679,206.726L165.991,206.388L167.197,205.416L167.651,205.317L171.765,208.008L172.587,207.909L173.027,207.811L173.694,207.67L175.85,209.219L176.091,210.078L176.261,210.445L179.084,213.346L183.566,213.67L184.8,214.262L184.97,214.431L185.949,215.304L186.077,215.571L187.155,216.769L186.46,218.022L187.098,219.853L187.41,220.092L188.034,220.768L191.694,220.064L191.949,220.092L193.254,220.008L194.899,217.923L197.779,217.388L198.871,216.022L200.034,216.6L201.325,215.895L201.396,215.586L202.531,213.755L202.559,213.572L202.8,212.783L202.928,212.501L203.68,211.797L204.02,211.515L205.935,209.628L206.077,207.092L210.219,207.543L210.587,207.74L212.687,207.923L213.41,208.726L214.729,208.557L215.098,207.233L214.942,206.98L214.97,205.599L215.127,205.346L215.183,202.909L215.07,202.641L214.985,202.345L214.673,200.88L214.431,200.345L214.02,199.865L214.46,198.006L213.864,195.991L214.517,194.892L214.29,192.905L214.914,190.256L216.02,188.946L215.368,186.268L215.467,185.944L215.339,185.042L215.24,184.69L213.07,181.885L213.027,181.575L212.999,180.786L212.956,180.574L212.928,179.813L212.857,179.32L212.474,178.897L212.346,178.671L212.744,177.163L212.687,176.938L211.524,175.035L211.382,174.894L211.297,174.443L211.339,174.147L211.027,171.482L208.403,169.875L208.389,169.706L208.616,168.155L208.616,167.859L210.389,167.07L210.687,166.971L211.609,162.558L211.495,162.234L211.864,161.021L210.942,159.597L210.417,159.428L208.531,159.033L208.375,158.849L207.041,158.285L211.212,154.591L212.985,151.812L212.9,151.657L211.935,150.303L212.006,150.078L212.247,149.302L212.247,149.02L212.162,146.269L212.034,145.917L211.992,145.691L210.871,143.519L210.999,143.265L210.261,140.528L209.765,140.486L209.609,140.415L208.885,139.512L209.126,136.465L209.268,136.239L209.226,135.04L208.843,134.574L206.743,134.687L206.077,134.095L204.048,134.687L203.864,134.786L203.368,135.111L202.843,135.04L200.346,135.393L196.006,137.819L195.736,137.58L194.701,136.705L193.07,137.439L190.715,136.917L188.091,138.638L187.892,138.863L187.197,139.202L187.084,139.399L187.055,139.992L186.984,140.105L184.148,140.726L183.58,142.517L183.268,142.672L182.885,143.237L180.843,142.616L180.502,142.63L176.445,145.719L176.374,146.128L175.651,148.54L175.453,148.709L173.268,149.415L172.843,148.738L172.729,148.441L171.807,147.666L170.729,148.526L169.069,148.879L168.502,148.357L166.686,149.104L166.275,148.766L165.906,148.723L165.523,148.85L163.325,149.711L162.02,149.259L160.403,150.134L159.098,149.711L159.013,149.542L158.998,149.274L157.339,147.539L157.254,144.52L155.523,143.11L155.282,142.87L153.58,141.135L154.53,140.147L154.97,138.37L154.672,136.592L155.495,135.294L155.381,134.927L154.885,133.756L153.467,133.206L153.211,131.16L152.942,131.315L150.091,130.497L149.807,129.65L148.105,128.959L147.282,126.278L147.296,126.108L146.814,125.092L146.318,124.838L143.438,123.582L142.19,122.284L141.24,122.961L141.083,122.975L138.885,121.127L138.488,121.042L137.892,120.619L138.091,118.996L137.438,117.514L135.608,115.171L134.261,114.324L133.949,113.858L132.062,114.041L132.516,112.263L132.502,111.91L130.814,110.315L130.417,110.032L129.892,109.538L129.537,109.552L129.651,107.901L127.225,107.873L126.97,107.887L125.537,106.687L127.466,104.23L130.005,102.324L130.927,100.898L131.793,95.815L131.325,93.005L133.594,91.691L133.807,91.409L133.878,91.268L133.906,91.013L134.757,88.655L134.247,87.652L134.317,87.299L133.835,86.48L133.878,86.197L133.112,82.793L133.552,80.067L133.296,79.954L131.793,80.237L131.013,78.4L131.622,77.425L131.069,74.995L131.14,74.671L131.92,72.806L130.956,72.057L130.644,71.901L130.275,71.52L130.445,71.266L131.793,68.92L131.835,67.818L133.027,66.942L135.821,67.394L136.814,66.363L138.644,67.663L137.552,68.751L138.857,69.429L140.133,68.948L139.466,70.036L138.871,73.653L139.58,74.6L140.729,73.611L143.268,73.187L144.474,75.024L146.644,73.272L148.091,73.894L150.857,75.109L157.254,74.515L159.623,73.865L162.63,72.241L165.949,71.308L167.254,70.291L170.601,68.751L174.36,66.405L176.19,64.851L177.126,63.127L177.325,61.53L175.963,60.795L175.977,59.65L177.523,59.608L176.559,58.562L178.133,57.7L179.921,57.629L179.694,55.764L180.445,53.87L182.63,53.644L184.02,52.965L185.084,49.587L185.779,48.852L188.417,49.361L189.382,50.053L191.367,49.163L192.034,49.417L193.58,47.862L197.141,48.541L198.346,47.763L199.197,49.855L200.885,48.597L202.261,49.756L204.034,50.237L205.992,48.965L206.673,47.24L205.921,46.18L207.524,44.78L207.226,43.805L210.148,43.452L211.58,44.554L213.495,42.971L216.715,41.967L218.176,40.299L220.545,39.903L221.183,37.528L222.559,37.542L223.382,34.191L224.885,33.766L226.261,34.176L230.758,30.5L232.432,27.091L232.332,26.172L231.027,24.616L231.013,22.226L232.715,21.66L234.772,22.891L235.056,21.137L237.425,21.208L240.063,20.543L241.836,19.638L243.042,17.884L242.985,18.846L244.914,19.652L247.212,18.478L249.07,18.662L253.155,15.818L254.162,14.517L253.013,13.456L253.694,12.55L255.694,11.9L257.027,15.408L259.155,16.328L259.949,15.436L261.056,14.842L262.403,15.252L263.992,13.229L264.588,14.432L266.574,13.951L268.134,12.14L268.46,11.022L269.255,12.253L271.552,11.673L272.588,10.131L275.822,10.343L277.935,7.981L278.971,8.745L280.531,6.438L281.907,6.453L282.517,8.037L283.07,7.485L285.411,8.462L286.9,8.377L290.375,6.042L293.07,4.599L293.808,3.552L292.475,1.797L293.326,0L295.184,0.269L295.382,2.278L298.162,3.651L298.063,4.387L299.936,5.986L300.304,7.018L301.638,6.778L301.496,8.108L303.581,10.414L304.772,10.669L305.241,12.197L306.631,12.31L306.702,11.206L308.9,11.136L309.056,12.324L307.865,13.13L306.985,15.79L307.751,16.158L309.652,18.52L309.822,19.369L313.865,19.1L314.73,20.684L317.921,20.854L317.368,23.117L317.822,24.121L317.07,25.932L317.865,27.417L319.269,26.526L320.914,28.619L322.702,27.926L322.801,29.496L323.723,29.764L323.822,31.801L324.617,33.865L323.907,35.223L324.531,35.746L323.184,38.206L323.581,40.002L322.872,41.119L324.503,41.529L324.631,40.893L326.957,41.529L328.886,43.961L332.446,44.922L333.326,47.933L332.205,47.777L331.411,48.64L331.425,51.721L329.978,54.562L328.702,55.792L329.695,57.502L328.687,59.17L329.283,61.403L330.829,64.384L330.645,65.642L329.056,65.218L328.829,66.462L326.971,66.956L326.262,66.546L325.042,63.296L325.425,61.869L327.099,60.583L326.815,58.887L325.51,59.17L323.808,58.053L322.248,59.65L321.595,61.12L319.638,62.152L320.191,60.922L317.624,60.484L318.078,62.448L316.744,63.226L315.978,62.463L314.574,63L313.354,64.257L312.702,66.419L311.042,68.977L310.021,69.754L307.865,73.018L307.042,75.01L306.659,78.329L305.255,82.384L304.631,83.401L304.815,85.463L304.163,88.909L302.574,90.533L299.921,91.296L299.099,93.951L296.489,96.097L295.34,97.707L295.297,98.667L290.049,101.759L289.255,104.4L287.808,105.473L286.872,107.562L286.347,109.849L283.609,112.644L280.347,116.921L279.028,119.221L278.531,121.621L277.581,124.147L278.375,126.292L278.006,130.102L279.552,131.696L280.29,134.137L282.758,134.673L283.155,135.957L284.545,135.604L285.013,134.532L286.772,134.01L287.737,132.712L288.673,129.791L288.446,127.773L287.652,126.616L285.538,125.671L285.609,123.342L287.24,121.381L289.311,121.621L290.971,119.574L295.297,118.558L295.992,117.556L296.489,114.535L297.425,113.787L297.212,111.529L296.404,108.917L296.928,108.353L298.021,109.99L300.957,110.908L302.957,108.917L302.233,107.703L304.219,107.096L304.659,105.416L305.68,105.585L306.985,103.92L307.184,101.59L308.262,100.602L309.411,101.576L308.815,105.021L309.411,107.167L306.858,106.56L305.524,107.463L305.34,108.663L306.304,109.298L305.184,110.837L306.957,113.067L308.007,113.378L306.56,115.044L307.085,117.26L308.9,118.742L310.673,118.953L311.269,118.375L313.893,119.32L314.843,118.826L315.453,120.576L317.893,122.905L313.368,124.852L312.673,126.137L311.609,126.546L308.46,125.417L308.517,127.167L306.347,125.854L306.148,124.655L307.382,124.246L307.07,122.609L306.035,122.058L303.099,122.891L301.368,125.346L300.389,128.55L300.787,131.216L301.936,134.024L304.418,136.86L306.049,136.493L308.801,137.551L310.787,137.241L313.283,138.031L315.354,137.975L315.411,139.569L317.085,140.514L316.46,142.531L318.886,144.125L320.829,144.732L323.141,147.13L324.659,147.764L326.744,147.778L330.475,148.963L334.219,149.795L337.241,145.296L337.269,143.885L338.758,142.489L340.092,142.291L341.808,145.268L341.638,146.565L343.922,147.708L344.22,149.753L343.808,151.135L345.241,153.561L344.588,155.676L344.007,159.47L342.063,162.022L340.489,162.219L339.851,164.193L340.971,166.308L339.822,167.45L338.305,167.309L337.042,168.127L337.014,170.03L338.035,168.973L339.042,169.269L338.134,171.891L336.617,171.933L336.319,172.709L337.978,173.118L338.234,173.978L337.312,175.303L336.886,177.135L337.553,177.206L336.787,179.785L336.149,179.165L334.375,180.208L335.496,183.365L336.673,182.998L337.014,184.084L339.312,183.365L338.73,181.138L341.227,181.039L340.702,179.686L341.95,179.151L341.397,176.402L342.929,176.219L343.524,174.288L344.9,173.921L346.432,171.821L348.248,171.553L349.51,170.735L351.085,170.566L350.361,169.142L350.446,167.817L351.737,167.281L350.716,166.52L348.078,168.057L348.716,166.111L350.064,165.956L352.021,164.32L351.34,162.699L352.361,161.825L351.014,160.556L351.099,159.808L352.546,161.345L354.319,161.162L353.525,162.078L354.305,163.15L356.588,162.981L358.092,163.587L359.525,162.29L360.702,162.882L361.993,162.177L362.702,163.094L363.61,161.345L365.766,162.107L365.312,163.503L367.156,165.251L365.78,165.603L364.631,167.366L362.574,167.14L362.092,169.565L367.397,168.931L368.702,170.608L368.773,168.254L371.34,166.308L372.347,169.269L374.248,168.536L373.369,165.871L372.73,165.406L373.298,162.501L373.993,160.993L375.468,159.921L374.12,158.708L375.454,156.424L372.362,156.819L370.872,153.166L371.269,151.643L373.198,149.415L373.525,147.849L372.362,147.031L369.95,147.496L369.51,149.189L368.035,150.219L367.61,154.435L365.837,155.31L364.886,154.041L362.276,153.223L360.659,153.956L359.184,153.632L358.39,154.365L356.744,153.603L355.595,154.943L354.475,155.338L352.9,154.125L351.482,153.801L349.255,154.379L349.837,153.011L348.617,152.532L349.553,151.488L351.042,151.149L350.361,149.471L349.312,148.879L349.454,147.877L351.326,147.482L352.007,146.664L351.709,144.689L349.794,144.887L347.241,143.42L345.978,138.666L346.149,134.038L347.198,132.303L347.099,130.003L348.815,127.576L349.539,127.872L349.482,131.724L350.9,132.557L353.099,131.823L355.581,128.931L358.915,127.661L359.752,127.872L361.496,126.673L365.638,121.861L368.078,122.326L368.489,123.498L370.56,124.951L374.305,123.088L375,121.211L376.092,122.326L376.83,122.016L379.113,119.024L381.085,117.26L386.447,119.221L387.425,119.236L387.681,117.471L386.546,117.245L386.688,114.662L387.411,114.535L388.163,112.813L387.028,111.585L389.057,112.362L390.844,111.289L391.425,110.131L390.574,109.101L391.241,108.183L390.617,105.741L391.44,106.108L395.312,105.755L396.191,104.117L397.113,104.682L397.95,103.538L398.05,101.124L399.965,100.714L401.355,99.627L402.39,99.571L403.596,98.413L404.305,100.517L403.128,101.308L402.844,102.945L403.894,104.71L402.787,104.315L401.652,102.959L400.716,103.778L401.128,105.077L398.702,105.727L400.191,107.364L400.631,109.284L399.61,109.623L397.525,111.811L397.638,112.249L396.915,112.771L398.433,118.106L399.17,118.911L400.56,118.304L401.539,117.09L404.376,116.864L406.39,119.49L404.773,120.647L405.454,122.016L407.95,120.732L407.511,122.552L408.518,124.641L412.163,123.554L414.617,124.175L411.794,125.417L410.39,125.671L405.596,127.548L402.688,129.495L402.603,132.063L401.95,132.797L401.596,133.375L401.184,133.841L399.908,135.393L399.979,137.523L398.773,139.273L398.532,141.022L397.922,141.332L397.837,141.403L397.823,141.572L397.865,145.014L398.461,144.957L398.801,144.943L399.298,146.058L401.142,147.341L401.482,147.652L403.511,149.161L404.135,149.302L405.355,150.769L405.511,151.361L407.071,151.431L408.745,152.334L409.879,153.603L408.22,156.114L408.333,156.607L409.865,162.614L409.085,163.376L408.163,162.318L407.227,162.783L406.844,165.223L405.582,165.773L405.383,166.76L403.596,168.578L401.993,171.849L401.922,173.949L401.752,174.161L403.511,177.361L403.653,177.713L404.872,178.206L405.114,178.502L406.844,180.278L407.184,182.209L411.993,185.803L412.192,185.718L414.362,185.493L414.39,185.578L415.88,189.763L415.468,190.341L415.298,190.637L415.624,191.045L418.787,190.989L419.028,191.2L419.114,191.313L419.326,191.553L420.844,194.568L420.56,194.596L419.865,194.638L418.66,196.329L419.142,197.231L418.943,197.499L418.617,198.217L420.972,199.725L421.667,201.528L423.341,201.049L425.667,198.992L427.369,200.006L427.61,200.204L429.837,199.964L430.248,199.908L432.277,201.105L432.518,201.317L433.085,202.444L433.397,205.951L434.433,207.106L433.922,208.487L433.653,209.107L433.156,209.811L432.873,209.839L432.22,211.374L433.482,214.064L434.518,214.205L435.185,216.797L433.88,217.951L433.568,220.008L432.688,220.5L433.312,223.091L433.312,223.838L437.199,225.753L445.837,225.598L446.419,225.358L447.582,225.936L449.936,225.471L450.093,225.344L451.383,226.358L451.752,226.752L454.405,227.09L454.745,227.09L456.844,226.71L457.312,227.273L457.312,227.513L459.085,229.456L460.277,230.047L460.731,230.371L460.986,230.54L461.1,230.526L463.61,229.301L464.107,228.076L465.412,228.189L466.036,228.414L469.568,228.639L471.539,231.328L471.667,230.568L471.752,230.146L473.313,228.977L473.681,229.357L474.22,229.456L474.376,229.625L477.071,229.597L479.369,231.314L481.823,232.046L483.142,233.088L484.22,232.722L485.483,231.272L489.015,234.482L492.164,235.664L492.433,235.763L493.341,235.861L493.582,236.129L494.235,237.185L495.44,236.987L495.937,236.917L497.568,236.804L498.164,238.339L499.384,238.48L500.845,240.281L500.759,240.619L503.582,240.957L505.185,242.238L507.582,241.999L508.604,243.04L508.958,243.153L512.547,244.307L513.979,243.674L514.518,242.688L514.76,242.97L516.987,241.886L517.809,240.098L517.781,239.578L518.859,238.494L519.809,238.775L520.745,237.804L523.511,239.803L524.788,239.324L526.476,240.464L528.703,240.127L530.646,238.564L530.476,236.41L532.391,235.735L532.703,235.777L535.27,236.847L537.299,238.283L539.228,239L540.887,237.255L542.15,237.832L543.512,237.396L543.71,238.817L542.788,240.352L542.405,240.521L542.207,240.844L542.221,241.098L542.051,241.858L541.512,242.491L541.951,244.096L543.682,244.222L543.951,244.462L544.987,244.602L545.214,244.757L546.036,244.785L548.278,246.418L549.001,246.052L549.781,247.248L549.668,248.459L551.256,251.569L553.214,252.962L553.37,254.031L553.583,254.679L553.909,255.776L559.427,259.111L561.781,259.308L562.902,261.193L562.646,264.106L564.334,264.781L564.973,267.018L564.604,268.059L566.76,269.142L567.526,271.561L567.2,271.843L566.93,273.756L569.271,277.286L569.341,279.002L570.178,279.775L570.533,280.436L570.802,281.027L571.299,281.772L573.583,283.263L576.207,282.264L576.859,280.999L579.654,280.464L580.434,279.789L581.37,276.611L582.93,275.289L584.462,274.782L584.774,276.428L585.03,276.822L585.526,278.298L584.533,279.311L584.491,280.858L582.717,282.419L582.703,282.771L582.916,284.346L581.739,286.131L579.271,287.833L579.157,288.142L578.15,290.223L578.817,292.754L577.639,293.668L577.115,294.947L577.866,295.763L576.107,297.885L576.008,300.177L575.526,300.472L575.37,300.753L573.526,301.765L574.987,303.888L574.959,305.322L574.803,305.575L574.831,310.185L573.597,311.281L571.866,311.969L571.285,313.628L571.54,313.895L571.37,315.539L572.604,316.705L571.951,318.757L574.051,321.16L573.881,323.351L574.661,324.827L574.817,326.78L575.951,329.477L576.122,329.674L577.072,331.64L576.519,333.494L576.391,333.958L576.661,336.191L577.228,336.388L577.115,339.281L577.795,340.194L577.951,342.147L578.207,342.568L579.072,345.573L580.732,346.865L583.384,347.287L583.696,350.615L582.689,351.106L582.079,352.875L581.98,352.973L581.838,353.409L581.951,353.83L581.795,354.841L580.022,357.186L580.873,359.305L580.689,360.892L581.554,362.394L581.498,362.843L580.42,365.51L580.547,369.033L580.434,369.16L579.696,370.409L579.583,370.816L579.568,371.055L579.583,371.42L579.398,372.598L579.313,372.725L578.306,372.556L578.363,373.918L578.249,374.072L577.725,374.563L577.583,374.886L577.512,375.181L577.568,375.546L577.271,379.405L575.753,380.584L574.689,384.204L573.781,385.397L575.54,387.192L575.668,388.918L575.327,390.167L575.271,392.229L573.398,393.912L572.802,395.512L572.334,396.494L573.058,397.742L573.483,398.556L574.136,401.585L573.682,405.358L573.469,405.512L573.412,405.653L573.015,406.13L572.178,407.013L570.093,406.312L567.412,408.794L565.029,409.93L564.519,411.346L564.902,413.253L565.256,413.576L567.299,415.721L567.341,415.862L568.746,416.226L569.455,418.526L570.59,419.886L570.547,420.124L569.951,422.942L569.824,423.11L571.498,424.414L573.54,424.035L573.639,426.489L574.193,428.297L573.966,429.474L572.249,429.825L569.157,429.46L567.483,428.647ZM345.042,170.904L345.822,171.708L345.099,172.934L343.709,173.766L342.858,173.315L343.837,171.468ZM348.744,158.074L351.241,158.384L349.751,159.794L346.886,160.316L347.156,157.848ZM414.731,124.104L414.645,124.147L414.731,124.104ZM410.461,118.473L411.837,118.643L411.312,119.673ZM371.61,112.969L372.915,113.816L372.333,115.425ZM411.099,97.65L411.993,98.709L412.262,103.651L411.695,104.541L409.057,103.298L410.22,102.07L409.738,101.096L410.731,100.277L410.504,98.611ZM386.574,51.41L387.269,51.82L387.709,54.803L387.071,56.315L385.78,57.601L384.787,55.467L385.383,53.94L386.589,52.767ZM391.936,37.061L392.816,39.337L391.78,38.164ZM322.829,63.635L321.056,63.395L322.375,62.788Z"
          fill="#e0e0e0"
          stroke="#333333"
          stroke-width="1"
          stroke-linejoin="round"/>
  </g>
</svg>