<?xml version="1.0" encoding="UTF-8"?>
<svg xmlns="http://www.w3.org/2000/svg"
     viewBox="172.8891318046517 -20.000000000003638 454.22173639071116 640.0000000000036"
     width="454.22173639071116"
     height="640.0000000000036">
  <title>大阪府</title>
  <desc>都道府県コード: 27</desc>
  <g id="27">
    <path d="M416.36,248.545L417.009,246.394L418.544,244.999L422.597,244.825L425.706,245.735L424.82,244.146L424.801,243.701L425.647,234.495L425.115,231.162L423.659,231.995L422.971,229.476L422.872,228.952L423.423,226.025L423.384,225.386L422.577,224.804L422.164,224.998L421.515,225.87L421.121,226.646L420.826,226.684L419.842,225.909L419.213,224.669L419.508,223.409L419.449,220.152L419.075,219.551L416.34,218.388L415.947,218.446L416.281,216.023L416.281,215.635L416.773,211.855L415.258,207.764L415.258,206.387L413.861,202.237L414.55,202.005L414.569,201.888L413.802,200.376L413.212,200.512L411.874,200.337L409.1,196.788L409.434,196.265L409.336,195.528L408.391,195.722L408.175,195.45L405.952,192.987L405.676,191.746L404.063,192.134L403.925,192.289L402.391,192.328L401.918,191.669L400.521,188.158L400.01,187.363L398.711,183.755L398.574,183.387L397.728,179.081L397.708,178.576L398.219,177.665L398.692,177.044L400.698,174.832L402.568,170.545L402.528,169.672L402.528,168.974L402.863,164.667L401.328,160.495L400.994,159.777L400.62,158.031L398.2,153.859L400.226,154.383L402.686,153.897L405.145,152.442L405.755,151.918L406.247,151.549L407.526,150.016L407.545,149.473L406.936,147.901L406.581,147.222L408.234,142.758L408.588,142.02L409.552,140.079L409.06,138.429L410.162,136.217L410.477,136.003L411.107,133.674L411.107,133.46L411.087,133.188L412.799,128.141L413.448,124.336L415.435,123.191L415.652,122.569L416.576,119.502L415.947,118.123L415.455,117.929L412.346,120.084L412.071,120.123L410.044,120.841L408.155,123.346L406.837,121.967L408.037,120.239L407.172,119.016L404.397,112.201L404.043,111.832L402.194,111.987L401.23,111.948L400.148,111.968L399.734,109.288L402.489,108.278L403.02,106.53L407.132,104.161L408.254,103.909L408.864,103.889L410.477,103.171L410.792,102.899L411.658,101.695L412.149,101.287L420.098,101.597L423.423,103.132L426.965,103.112L427.535,102.899L429.483,100.568L429.483,100.18L429.287,98.257L430.92,97.305L430.447,95.518L430.192,95.072L430.054,94.722L429.621,94.916L426.099,96.625L423.699,94.45L420.964,94.003L418.898,91.109L418.819,90.721L418.091,90.429L417.816,90.449L417.54,90.254L413.861,86.544L413.605,86.855L411.933,88.428L409.67,87.379L407.978,88.351L403.807,88.7L403.394,89.011L402.312,90.332L399.164,90.662L398.928,89.905L398.593,88.292L398.278,87.729L398.554,84.679L394.107,86.117L393.497,84.776L393.832,84.679L390.92,82.95L389.916,83.397L386.493,82.911L386.139,82.853L384.939,82.62L383.404,84.504L382.912,84.912L382.342,84.349L380.512,83.28L380.217,82.97L379.39,81.202L379.371,80.949L379.843,79.55L379.685,79.162L378.387,75.198L376.026,73.508L373.389,74.285L372.248,73.43L370.773,75.062L370.497,75.587L369.887,75.431L369.769,75.373L368.057,73.877L367.585,73.644L364.811,73.488L362.627,74.907L360.994,73.741L360.03,70.924L359.597,70.088L359.282,69.563L356.134,67.892L355.603,67.309L353.675,67.173L352.691,65.308L355.032,61.343L355.17,59.633L354.973,58.895L355.977,55.26L356.351,55.066L357.236,55.494L357.728,55.26L360.935,54.211L361.86,53.103L360.286,51.198L359.538,50.809L357.452,47.097L357.492,46.805L358.279,45.794L358.161,45.503L357.61,44.648L358.062,38.952L357.944,38.621L357.689,38.31L357.511,37.533L357.079,36.988L356.842,36.697L357.216,35.161L357.649,35.025L358.436,34.986L358.259,29.347L359.184,28.725L359.223,24.447L358.948,23.864L358.928,23.708L358.79,23.319L358.79,20.48L353.635,19.041L352.101,20.033L349.366,19.644L348.185,16.008L345.549,12.526L343.286,12.41L345.529,8.986L347.556,6.925L348.008,6.769L349.976,6.244L350.448,6.341L351.491,5.116L352.14,4.921L355.249,3.929L355.505,0.311L357.315,0L362.293,1.226L363.237,3.696L366.995,5.622L369.139,4.63L369.336,4.63L372.287,5.524L373.468,7.975L373.665,8.345L374.865,9.414L374.747,12.157L375.986,16.299L375.986,16.61L375.908,19.411L375.554,19.664L374.767,20.13L374.53,20.791L374.806,22.561L373.37,23.708L374.176,27.17L374.334,27.442L375.632,29.658L375.75,29.989L376.951,31.642L377.56,31.642L378.839,31L379.371,30.942L380.492,30.825L383.797,32.905L385.234,31.953L385.431,31.642L389.641,34.48L391.766,32.497L392.277,32.089L392.612,31.408L393.064,31.039L395.111,32.361L395.858,32.555L396.862,33.819L396.941,34.13L397.688,34.83L397.964,35.063L398.278,35.744L398.534,36.327L399.321,37.571L401.958,38.038L407.211,34.461L408.195,33.877L409.808,33.275L410.438,33.158L411.166,33.314L411.52,33.45L413.527,33.975L414.117,34.441L414.53,35.219L415.179,35.219L417.147,35.452L417.403,35.588L419.429,37.533L419.862,37.766L422.026,38.232L422.243,37.96L422.361,37.863L422.597,37.863L425.529,38.485L431.057,42.723L431.451,42.898L432.631,43.676L436.271,44.181L438.278,43.559L438.691,43.559L440.088,45.25L442.567,45.445L443.826,47.388L446.719,48.749L446.581,49.06L445.853,49.546L445.538,49.74L442.213,51.237L440.187,53.686L441.505,56.407L441.682,56.563L442.882,58.661L442.567,61.091L442.607,61.363L442.902,61.752L442.941,62.16L443.551,65.522L440.619,66.901L439.498,66.493L438.927,68.747L440.856,70.243L441.013,70.263L441.564,72.653L442.744,72.672L438.731,78.093L441.033,80.269L441.17,80.366L443.728,81.357L444.791,84.66L449.532,85.495L452.228,83.494L453.526,81.105L457.697,83.125L460.137,82.931L460.373,88.428L461.81,91.09L464.328,91.245L464.328,91.556L464.544,92.216L464.761,92.566L466.689,94.625L470.034,95.907L472.139,96.043L475.051,97.694L473.674,100.801L475.326,102.666L475.464,103.015L476.881,105.132L478.927,103.481L481.603,104.006L482.075,102.705L482.213,102.627L484.652,104.957L487.486,103.462L490.378,103.171L490.614,103.209L493.349,104.355L496.91,104.219L499.979,101.19L500.747,100.665L501.416,100.199L502.34,99.616L502.203,99.286L502.419,96.742L501.908,93.44L502.242,91.672L502.38,90.915L502.478,90.196L502.577,89.71L502.301,88.409L498.209,87.03L497.796,86.894L496.418,86.758L491.834,91.439L490.653,91.148L492.345,87.477L492.464,86.952L491.854,84.232L490.673,84.485L490.398,84.815L490.339,87.088L490.043,87.787L487.23,89.672L487.446,89.303L487.938,88.02L487.092,87.069L488.804,84.213L490.339,83.242L489.67,80.91L490.555,78.909L490.85,75.49L493.054,76.073L493.526,75.062L497.855,74.635L500.668,73.741L500.511,70.243L500.393,70.069L497.638,69.933L497.028,69.33L496.556,68.631L496.241,68.125L495.946,65.036L495.907,64.861L495.907,63.539L495.789,63.034L497.422,61.654L497.776,61.499L500.589,59.828L501.534,59.575L503.816,58.02L504.269,58.078L505.134,59.594L505.193,59.808L505.508,61.207L505.685,61.46L505.725,61.829L507.791,65.152L508.223,64.919L509.207,65.871L510.152,64.064L510.388,63.598L514.834,62.529L515.188,62.529L515.72,62.043L515.897,61.985L516.074,62.004L516.33,61.985L519.202,63.326L522.626,61.946L522.98,65.036L524.023,65.891L524.141,68.436L526.128,71.506L524.672,72.556L525.065,73.896L523.157,78.113L523.078,81.143L521.406,84.291L521.189,84.368L521.15,86.058L520.815,86.505L519.36,87.341L519.222,87.574L517.943,89.982L516.369,89.186L514.539,93.032L514.067,95.285L514.578,95.382L516.015,95.868L516.408,95.907L516.644,95.887L516.92,95.81L519.182,95.033L523.964,95.557L524.2,95.246L526.325,92.275L529.256,89.982L532.03,90.895L533.034,89.982L533.486,89.808L535.001,90.138L537.382,92.974L538.425,92.158L541.494,93.673L541.632,94.236L542.655,95.654L544.977,96.878L546.295,99.014L546.354,99.286L546.275,99.558L546.137,100.355L547.574,103.831L544.721,104.53L544.957,109.579L548.597,109.871L548.872,110.278L549.364,110.919L552.571,113.269L552.886,113.735L553.929,113.89L554.067,113.638L554.617,115.094L554.716,115.288L556.546,113.599L557.116,113.929L557.549,113.948L562.232,117.502L561.976,120.9L562.999,120.686L564.396,124.433L566.619,126.355L564.849,131.383L566.305,132.004L566.993,134.489L566.718,134.935L566.482,135.188L566.147,135.77L566.108,136.372L566.246,137.012L567.249,138.973L567.741,139.109L570.495,140.914L571.735,140.836L572.05,143.185L572.187,143.398L572.109,146.795L573.27,147.144L573.978,146.872L573.584,147.707L572.876,148.308L571.676,150.695L571.873,151.006L572.05,151.103L572.522,151.413L572.483,152.617L572.305,152.908L572.876,154.014L573.525,154.441L574.45,157.041L574.666,157.041L574.824,156.983L575.119,156.75L576.968,155.566L578.011,155.004L579.369,154.266L582.3,155.974L582.517,156.381L583.993,158.128L584.661,160.301L584.819,160.747L584.583,162.028L585.94,163.231L586.098,163.522L587.514,164.938L589.285,169.459L589.482,169.672L592.236,173.455L592.217,174.871L592.61,175.511L592.846,176.113L592.945,176.249L597.883,176.695L598.159,176.869L599.969,179.566L600.146,179.915L600.382,180.477L600.382,180.904L601.661,184.977L601.818,185.133L604.14,187.867L604.179,188.449L604.494,189.283L604.651,189.652L605.989,190.738L606.54,191.009L607.012,192.27L607.111,192.949L606.717,195.159L604.75,199.115L603.255,199.348L602.586,200.977L603.353,203.149L601.621,204.002L600.461,206.077L599.064,206.503L596.152,210.071L596.034,210.691L595.719,211.137L594.578,212.649L594.42,212.785L590.997,213.91L589.974,213.25L589.777,212.921L587.259,209.567L585.153,208.578L583.678,209.47L583.776,211.583L581.75,215.422L583.894,216.062L583.009,218.272L583.206,225.812L583.304,226.064L584.032,228.177L583.815,230.328L582.635,231.123L581.927,233.681L579.31,232.441L578.877,232.131L576.201,233.139L576.968,235.6L575.572,237.403L575.552,237.596L575.572,237.751L575.729,238.158L576.044,240.716L577.598,243.72L577.874,247.596L577.933,248.158L579.31,251.936L580.195,252.943L578.444,254.61L578.129,254.765L575.768,255.908L575.591,256.353L571.577,259.938L569.669,262.533L567.879,262.65L567.19,262.592L564.711,264.49L563.845,266.233L563.471,266.64L560.638,269.623L560.481,270.011L561.15,272.509L560.5,277.022L560.461,277.7L560.54,278.882L562.369,280.876L563.884,284.246L564.081,288.41L562.979,289.823L562.724,291.198L561.268,293.154L561.051,293.793L559.241,296.775L558.631,299.601L559.3,301.286L556.939,306.339L555.345,307.694L555.601,314.546L555.031,314.934L554.913,314.992L553.909,317.295L553.988,320.837L553.693,321.031L554.401,322.753L554.263,325.579L552.886,328.869L551.528,330.494L552.001,331.752L551.096,334.771L550.919,335.506L551.587,336.919L551.174,337.054L551.076,337.132L550.82,337.673L550.545,338.022L550.525,338.467L550.171,339.376L549.935,339.454L546.531,340.634L545.98,342.259L547.003,343.014L547.082,343.207L547.338,345.258L549.03,345.819L549.305,345.877L550.092,345.993L550.682,346.322L550.879,346.322L551.902,346.419L552.335,346.767L552.965,346.825L559.772,345.548L562.173,347.27L561.642,348.354L564.376,355.163L563.038,356.478L565.301,358.51L566.009,360.018L565.458,361.701L561.504,364.138L559.556,364.37L559.28,365.163L559.28,368.161L560.638,369.96L555.09,373.209L553.575,374.64L553.004,375.104L552.374,375.587L551.568,376.168L550.289,377.328L550.84,378.681L550.466,381.93L548.715,383.883L549.994,383.922L549.561,387.383L548.105,389.026L547.574,389.258L546.118,391.191L548.262,393.376L550.033,393.144L551.922,391.462L552.315,393.569L552.315,393.743L552.04,395.561L553.437,398.093L553.162,400.703L554.598,402.036L554.834,401.998L556.762,401.669L557.136,401.399L558.553,401.65L562.96,405.593L562.271,408.26L563.235,411.237L562.92,413.305L563.275,417.885L562.901,420.108L560.5,423.18L563.825,425.615L564.927,428.842L564.258,430.387L564.908,432.571L565.104,433.131L566.934,435.45L567.111,435.952L567.957,437.826L565.675,440.415L566.186,442.153L566.206,442.54L567.033,443.583L566.521,446.944L566.56,447.195L566.344,451.773L566.265,451.966L566.265,452.179L566.462,452.951L566.127,455.172L566.875,458.205L566.423,458.996L567.977,460.715L568.154,460.986L569.118,461.913L569.177,464.597L566.009,468.768L565.458,471.664L565.773,472.34L564.652,476.202L561.051,480.392L559.989,482.187L557.805,481.473L554.952,484.311L556.211,485.083L556.624,488.384L556.801,489.388L558.198,491.55L560.54,492.399L562.31,491.473L563.196,491.434L564.14,493.963L564.612,494.638L564.671,496.105L562.389,497.765L562.763,500.313L562.094,502.474L555.975,504.308L554.342,505.292L554.106,506.238L552.158,508.438L550.879,511.661L548.892,514.459L546.61,514.941L541.966,514.42L538.976,515.404L538.897,515.751L537.244,516.272L531.519,514.497L530.692,514.555L530.319,515.057L526.58,514.073L526.206,514.381L524.003,518.897L523.157,519.861L519.143,519.225L517.117,519.514L514.933,517.314L512.749,517.102L511.647,518.009L511.037,520.961L509.561,521.386L505.803,521.019L503.068,519.784L499.724,520.44L498.76,522.099L495.002,524.357L493.133,523.817L491.598,525.225L490.673,526.035L486.718,531.977L485.361,533.193L483.551,533.019L481.19,535.295L478.396,535.411L477.137,534.581L475.11,535.488L472.946,538.632L470.821,539.616L468.007,539.539L464.682,543.435L464.466,543.898L463.443,544.187L463.305,544.669L458.484,549.395L456.596,550.532L453.703,550.995L453.172,550.822L453.015,550.494L452.7,550.089L453.782,546.637L452.346,543.937L453.153,542.837L451.972,540.272L450.103,540.175L449.473,538.671L444.476,536.337L444.299,536.125L443.551,535.334L441.603,530.588L437.826,534.138L436.448,536.279L436.763,537.706L433.005,538.478L429.7,541.738L429.523,542.201L427.732,541.776L423.994,542.49L421.672,540.677L421.161,540.542L420.334,541.12L420.02,541.043L417.757,540.87L415.475,542.201L413.33,542.085L412.897,542.085L409.965,541.448L405.676,543.84L404.574,547.254L401.23,548.295L400.954,548.237L396.803,547.717L396.606,547.427L393.183,546.695L393.005,547.022L391.982,548.874L391.786,551.574L390.94,552.827L386.65,554.062L385.863,555.373L383.994,555.161L381.889,553.483L381.063,553.792L379.941,554.042L379.134,556.453L376.557,556.221L375.042,556.974L371.973,554.987L369.356,555.662L367.369,554.891L364.358,555.951L363.886,556.549L361.505,553.445L359.341,553.155L353.419,555.392L350.881,551.863L347.969,551.921L347.93,552.017L348.402,552.384L348.795,553.001L348.933,556.221L345.824,559.191L344.349,559.133L341.909,560.367L343.385,563.684L343.385,564.05L343.404,565.978L342.794,565.207L339.469,564.127L338.19,565.188L332.603,567.887L330.379,568.6L328.963,567.714L326.661,568.273L326.995,571.184L324.674,576.794L323.237,576.717L322.588,578.201L321.604,577.758L319.951,579.339L318.85,579.146L317.394,576.563L316.882,575.791L315.229,570.818L315.662,569.14L313.262,565.053L312.042,566.21L311.511,566.248L306.317,569.314L305.805,569.237L299.863,569.179L297.482,566.769L295.141,566.711L290.38,568.581L288.924,570.567L288.688,570.74L288.392,571.145L288.176,571.184L287.33,571.878L287.153,572.013L284.851,573.902L284.576,574.23L283.297,576.004L276.627,578.143L275.368,576.505L272.613,574.828L270.685,574.885L265.963,572.572L265.982,572.707L266.16,576.64L264.172,578.394L263.523,580.379L263.799,583.271L263.838,583.695L263.621,585.719L263.543,586.047L264.113,587.511L260.67,588.398L260.414,588.321L259.155,588.996L258.821,589.208L255.476,589.169L254.354,591.79L253.056,591.655L251.659,593.101L251.305,593.178L251.108,594.469L250.99,594.97L250.282,595.067L250.006,594.855L248.531,594.219L247.252,594.989L244.95,594.257L244.241,594.103L242.746,593.679L239.795,594.18L239.441,594.373L236.037,596.088L233.794,596.377L231.708,598.42L231.236,595.144L232.161,593.448L226.888,591.328L225.294,593.236L225.019,593.756L222.54,592.677L220.631,599.114L217.759,600L216.637,599.46L215.417,596.994L215.043,596.878L213.883,596.126L210.636,598.882L208.216,599.441L206.229,598.439L203.868,599.46L203.986,599.017L202.097,594.565L203.101,592.33L203.061,591.809L199.5,589.42L199.106,589.439L197.867,588.494L197.631,588.398L196.608,587.203L197.06,583.791L196.942,583.444L195.368,581.363L195.486,581.016L197.631,578.452L199.421,577.372L200.287,575.734L200.464,575.425L201.487,574.346L201.271,572.206L201.015,571.917L198.3,571.3L197.808,571.627L195.585,572.707L192.889,569.584L194.011,568.138L196.942,567.116L198.359,563.992L202.648,562.315L207.685,561.293L209.141,562.565L210.754,560.599L213.194,559.326L214.984,560.02L216.794,558.728L218.408,560.984L216.322,562.565L218.939,564.127L222.363,564.417L222.874,565.226L224.881,562.623L227.931,560.907L226.868,559.365L228.58,558.786L230.941,554.929L233.479,554.254L235.545,555.007L237.867,554.621L239.441,553.445L241.27,550.706L242.372,551.902L246.012,549.761L246.799,550.571L249.809,550.976L255.023,550.166L257.798,549.221L262.559,546.135L263.11,547.196L264.625,545.692L270.921,545.074L275.289,542.529L277.532,540.195L282.116,533.154L289.829,523.624L290.655,521.308L293.98,519.321L296.951,516.118L299.548,516.967L301.201,516.581L306.71,510.31L309.189,508.534L309.701,506.817L313.262,503.131L316.469,505.196L316.784,503.478L315.485,501.259L319.066,496.8L319.676,496.607L319.951,491.26L320.679,490.488L325.48,489.909L328.235,487.11L330.183,488.944L333.901,485.836L334.747,487.148L336.597,485.971L336.577,484.658L332.858,481.589L335.554,478.306L338.623,480.643L337.207,482.245L338.584,483.307L342.125,479.117L340.689,477.94L339.961,478.77L337.462,476.723L339.922,473.692L342.44,475.796L344.742,475.198L346.985,470.1L348.618,469.173L347.221,467.996L347.694,466.895L351.727,463.573L353.616,465.157L355.957,462.202L357.118,457.567L357.885,458.069L356.961,462.164L358.023,462.608L359.656,459.383L362.666,454.786L361.466,453.975L360.62,455.25L358.357,453.743L359.735,452.739L363.847,446.48L364.654,447.736L363.493,449.513L364.398,451.522L365.637,449.629L368.392,450.208L369.907,447.002L367.093,447.465L366.837,446.017L364.575,442.424L366.05,440.048L371.225,443.757L370.733,444.703L372.228,445.824L372.858,441.651L369.631,439.603L370.025,438L372.169,438.792L373.173,435.585L368.667,432.764L370.045,429.557L369.061,428.591L369.041,423.122L370.871,419.624L372.189,420.61L373.94,418.658L373.98,416.861L372.701,415.701L371.953,416.861L366.7,412.126L373.783,400.703L375.317,402.036L377.678,410.734L378.643,411.797L375.927,416.243L377.482,417.634L379.607,414.175L380.866,415.315L378.761,418.793L381.22,420.997L382.696,419.373L381.417,418.194L382.873,415.837L383.994,416.803L385.371,415.624L385.608,418.272L387.811,416.9L385.804,414.503L388.795,410.947L389.562,411.855L388.401,414.349L389.149,415.257L390.31,412.744L391.077,413.653L389.916,416.146L390.841,417.267L393.792,414.754L391.609,412.165L394.107,407.603L399.144,410.348L399.577,410.135L407.742,400.355L414.215,388.427L415.868,381.215L407.27,378.488L394.186,378.507L393.655,376.109L388.795,348.489L389.07,348.237L397.472,353.093L400.698,371.623L406.148,370.849L404.122,357.658L404.102,356.285L408.883,358.548L409.297,361.643L413.802,361.411L415.002,366.556L416.203,373.383L420.688,375.394L421.298,374.079L418.819,372.88L420.059,367.542L422.676,366.904L423.423,369.283L424.014,366.981L420.295,365.879L419.232,361.063L423.797,361.701L425.037,360.908L427.555,362.475L429.208,361.45L418.741,358.2L420.728,356.014L426.985,358.007L427.181,354.776L425.351,352.281L424.919,355.956L420.315,354.525L415.376,356.478L414.983,355.627L411.382,357.02L403.689,353.422L402.41,344.503L408.824,346.477L408.628,347.696L415.278,350.095L416.262,349.688L417.009,346.864L410.93,344.678L411.264,340.015L402.332,340.015L402.351,333.687L404.043,334.461L404.378,338.254L408.391,338.273L408.391,336.745L406.621,335.951L407.565,334.964L407.329,331.501L413.684,328.153L414.688,334.345L417.639,334.539L418.19,329.295L418.15,324.418L421.436,325.792L420.866,321.398L418.072,321.437L417.344,316.521L419.96,315.553L419.134,312.359L415.455,314.063L414.196,313.327L417.167,312.282L415.455,311.333L412.759,312.727L409.946,311.294L412.149,310.152L411.323,309.126L408.549,310.385L406.011,308.623L404.043,309.862L403.689,308.797L405.735,308.004L405.243,306.029L402.41,304.306L400.718,306.842L399.675,307.21L400.462,301.944L398.967,302.467L397.609,308.062L396.606,308.217L397.924,300.995L402.627,299.35L403.04,297.665L398.455,299.234L398.377,295.303L399.243,293.928L398.062,291.915L394.029,293.134L392.73,292.98L393.143,290.191L401.604,286.977L398.731,280.47L394.009,277.352L392.12,273.517L392.258,273.284L393.242,271.832L395.662,269.74L397.865,268.655L399.498,267.996L403.296,266.621L406.857,262.01L410.93,259.763L412.582,259.143L415.652,257.884L417.245,256.528L417.658,255.714L417.973,254.571L416.36,248.933ZM361.112,326.837L353.085,335.003L351.825,332.236L352.002,330.804L357.984,323.372ZM374.589,301.383L374.491,302.002L387.339,304.461L390.369,306.939L382.932,316.076L382.44,315.727L374.157,315.05L370.34,308.197ZM389.169,291.953L393.458,295.322L393.084,297.549L394.442,297.743L393.694,302.835L388.775,301.673L379.174,300.027L379.921,296.058ZM380.945,326.527L387.182,332.371L391.294,333.107L399.183,333.242L400.443,338.351L399.636,339.918L398.278,338.989L389.188,339.028L387.142,332.391ZM398.239,313.927L402.843,315.456L407.998,314.411L412.405,316.56L414.019,326.43L407.644,329.507L401.545,331.443L400.541,328.385L394.107,328.385L392.238,325.637L396.881,321.495L395.288,319.656L390.349,324.011L386.552,324.166L386.552,318.921L388.657,317.779L397.944,313.792ZM410.536,392.467L406.936,399.079L401.348,405.864L398.731,406.579L390.408,402.056L392.179,398.286L390.29,397.378L388.205,398.886L386.965,397.165L393.379,383.438L397.57,386.783L394.678,392.931L400.325,396.025L406.955,383.825L409.631,384.695L410.812,382.51L413.448,383.496L413.369,387.344ZM358.849,433.904L358.889,438.521L357.689,440.473L361.879,445.437L358.908,450.266L356.508,451.58L355.249,449.764L356.764,449.223L356.016,446.925L356.921,444.974L356.174,443.795L358.83,438.502ZM388.205,404.143L389.208,405.574L387.772,410.367L384.368,411.894L383.227,410.541L385.293,408.802L384.525,407.913L382.46,409.633L381.574,408.57L383.64,406.849L382.892,405.941L380.827,407.681L380.118,406.772L384.112,400.239L385.273,400.258ZM348.894,448.818L354.049,456.968L353.262,460.059L350.842,462.994L345.057,467.706L344.664,466.393L341.929,463.805L349.996,450.633ZM298.506,468.671L302.047,473.016L296.597,476.125L282.195,487.863L278.319,491.704L272.908,484.986L280.09,479.137L278.948,478.287L277.197,479.697L274.482,476.337L264.704,484.311L261.516,480.488L265.923,477.631L283.454,463.361L287.133,459.634L289.593,462.666L295.141,462.782L292.878,464.616L294,466.007L281.132,476.492L281.723,477.785L293.626,468.131Z"
          fill="#e0e0e0"
          stroke="#333333"
          stroke-width="1"
          stroke-linejoin="round"/>
  </g>
</svg>