<?xml version="1.0" encoding="UTF-8"?>
<svg xmlns="http://www.w3.org/2000/svg"
     viewBox="182.9710606476874 -20.00000000000182 434.0578787046179 640.0000000000018"
     width="434.0578787046179"
     height="640.0000000000018">
  <title>兵庫県</title>
  <desc>都道府県コード: 28</desc>
  <g id="28">
    <path d="M535.97,405.464L534.873,405.484L534.138,399.916L536.061,399.659L536.836,405.444ZM527.554,398.44L528.581,397.341L541.034,395.676L528.51,397.4ZM536.363,387.352L538.558,387.6L538.86,389.889L535.366,389.265L535.507,390.355L538.98,391.009L539.313,393.496L534.913,394.031L527.634,395.052L526.899,388.918L530.806,387.154L531.158,387.947L533.433,387.639L533.594,386.787ZM543.672,382.347L543.712,384.042L540.329,384.498L539.866,381.544L540.219,380.443L540.803,380.166L540.38,379.056L543.46,379.631ZM454.092,411.258L453.206,410.099L451.173,408.683L450.74,409.525L450.397,408.911L449.421,409.188L446.441,409.069L442.958,409.158L443.451,408L441.749,407.871L441.941,409.03L441.196,409.277L439.112,409.069L436.263,408.435L434.3,406.989L433.998,407.475L433.283,406.494L430.806,404.78L429.709,403.344L427.202,401.373L424.675,399.471L424.383,399.53L422.34,397.707L420.397,396.776L417.155,395.825L416.047,396.033L415.192,395.557L413.833,393.575L411.286,390.622L408.386,388.502L408.034,388.65L405.215,386.311L403.735,385.687L402.154,384.289L401.822,383.318L399.174,381.613L397.342,380.88L397.755,380.543L396.557,379.978L395.56,380.225L395.923,378.56L395.017,380.206L395.359,378.56L394.463,377.856L392.158,383.378L389.55,382.277L388.916,383.784L384.154,379.68L383.157,378.996L384.516,374.099L385.281,373.999L384.214,373.266L383.872,373.652L380.208,373.276L380.056,372.126L379.372,373.474L376.301,370.47L377.721,368.645L376.875,367.981L375.677,370.023L370.221,366.453L370.392,365.977L369.405,365.541L368.409,367.158L366.435,365.839L367.724,363.22L369.002,363.26L369.315,362.387L367.684,361.733L365.549,360.403L362.892,359.144L361.603,358.906L361.2,359.461L358.381,358.916L355.945,358.112L351.636,356.088L350.036,355.949L349.28,356.753L349.079,356.108L347.962,355.612L347.7,356.257L348.576,357.338L348.505,357.844L345.556,358.598L343.904,358.181L344.448,355.87L343.119,355.453L342.475,357.854L340.371,357.309L339.354,356.108L337.461,358.439L334.824,357.16L335.468,355.92L336.978,356.118L338.247,354.719L336.294,353.221L335.156,353.221L332.508,358.439L331.703,358.41L331.703,356.922L332.921,354.918L334.26,351.892L333.475,351.416L333.072,353.628L331.733,354.878L330.424,354.938L330.283,359.729L326.287,359.729L326.246,357.666L325.823,357.656L325.813,355.701L326.589,354.918L329.699,354.62L329.699,353.38L329.176,353.241L322.733,353.241L323.075,354.838L323.911,354.68L324.766,355.344L324.746,357.428L323.226,357.428L323.075,358.033L322.068,358.033L319.199,359.54L318.303,356.703L319.662,355.88L318.474,355.205L317.639,355.791L317.226,354.928L316.632,355.225L316.974,356.217L316.602,356.832L313.541,358.191L311.216,358.697L310.551,359.173L311.065,361.881L306.645,363.429L305.749,363.429L304.138,362.199L301.944,360.909L302.336,358.886L300.584,357.805L298.561,357.398L296.799,357.963L296.165,358.539L295.873,357.418L294.262,356.317L293.618,356.515L292.893,354.67L293.024,354.025L291.735,353.638L291.343,354.59L290.477,355.027L289.228,357.586L286.691,359.382L285.524,361.187L284.557,362.129L283.641,361.673L284.205,361.306L283.752,359.957L284.628,360.364L284.688,359.62L283.259,359.074L284.144,357.418L282.846,356.991L281.779,358.41L280.782,358.201L280.218,360.205L278.809,358.985L276.946,360.294L277.329,361.098L276.725,361.723L276.946,362.645L275.285,363.786L274.681,364.51L274.439,362.635L273.725,360.632L273.825,359.699L273.252,359.253L273.322,357.953L274.067,356.039L273.211,355.344L273.211,353.023L275.245,352.934L275.285,351.862L274.097,351.277L272.678,349.699L273.352,347.715L273.08,346.951L271.681,345.541L272.235,344.827L271.862,343.914L271.53,345.065L269.929,345.303L271.006,345.819L272.094,347.228L272.627,347.427L271.812,349.778L272.255,350.156L271.59,351.564L270.423,351.336L270.131,352.09L269.194,352.438L269.547,354.58L268.983,354.561L270.312,359.114L270.362,359.818L271.48,360.979L269.456,362.566L269.013,364.212L267.412,365.085L266.698,363.548L267.916,362.129L267.725,361.544L268.711,359.62L266.738,359.104L265.047,359.421L262.671,360.245L261.654,360.056L260.285,361.623L261.151,362.407L260.989,364.262L259.741,363.657L259.006,364.847L260.567,366.136L261.634,367.683L259.681,368.397L259.127,368.883L258.815,370.271L258.11,371.58L256.288,372.859L256.036,373.98L255.181,374.862L254.123,375.021L254.113,375.596L252.744,375.675L252.281,374.594L248.325,374.842L246.573,374.237L245.848,375.982L242.788,373.95L244.116,372.007L243.573,371.769L242.002,373.315L241.549,372.403L242.163,371.868L240.412,368.625L237.915,366.156L236.918,366.156L237.069,367.862L235.881,368.586L238.67,368.08L238.831,370.281L237.281,370.38L235.992,370.807L235.197,371.848L232.841,372.264L231.955,372.175L232.62,371.025L231.13,370.866L226.931,375.041L225.25,377.628L225.25,375.794L225.119,375.536L225.089,375.427L225.039,374.971L225.874,374.039L224.878,372.254L223.69,372.393L223.458,372.155L222.431,371.144L223.569,368.972L223.76,366.741L224.092,366.146L224.123,364.52L224.183,364.093L225.401,361.891L225.603,361.782L225.854,361.604L227.203,360.949L227.314,359.997L227.596,359.927L228.301,360.036L228.512,360.126L228.975,360.364L229.499,359.015L229.317,358.757L229.277,358.727L229.096,358.717L228.18,358.36L228.27,357.646L227.213,356.971L226.73,356.684L226.609,356.614L226.106,356.813L224.717,356.326L224.636,355.553L223.841,354.838L223.589,354.7L223.589,353.529L224.364,352.735L224.435,351.495L223.438,349.957L224.082,349.59L223.539,347.933L223.75,346.057L222.945,345.66L222.693,345.641L221.868,345.819L220.931,344.688L220.992,343.983L220.257,343.428L220.589,342.515L218.898,341.036L217.72,341.512L216.804,340.559L216.844,340.371L216.723,339.547L214.418,338.386L214.257,338.217L214.408,335.636L212.525,335.061L210.914,335.765L210.099,335.527L209.303,336.361L208.508,336.013L207.189,336.688L206.475,336.291L205.951,335.1L205.81,334.812L206.303,333.78L205.81,332.708L206.203,332.4L206.243,332.291L206.988,331.685L206.958,330.861L206.656,330.712L205.83,329.412L206.162,328.965L205.266,328.181L205.146,328.181L203.988,327.803L203.092,326.542L202.971,326.542L203.293,324.338L203.877,323.583L203.706,323.265L203.817,323.027L203.857,322.888L204.008,322.719L204.028,322.61L204.823,321.399L204.914,321.299L205.276,320.316L204.924,319.68L204.974,319.432L206.324,318.747L207.33,317.466L207.461,317.188L206.827,316.105L206.585,316.045L206.001,314.446L206.394,313.324L206.575,313.294L207.119,313.433L207.33,313.512L208.518,313.731L208.065,312.728L208.246,311.635L209.152,311.397L209.646,310.224L211.085,309.231L212.877,309.002L212.918,308.784L213.582,308.476L213.783,308.456L214.055,308.446L214.257,308.377L214.72,308.188L214.76,308.019L214.448,307.184L215.062,307.174L216.33,306.161L216.592,304.373L215.968,304.104L215.877,302.793L214.961,303.111L214.106,302.256L214.126,301.282L213.079,300.666L213.25,299.354L213.23,299.106L211.931,298.728L211.659,298.728L210.008,297.685L210.451,295.588L210.099,295.091L209.948,294.972L209.475,294.455L209.233,294.405L208.387,293.988L207.622,292.904L206.324,293.024L206.283,292.924L206.283,292.765L206.233,292.517L205.558,292.795L205.216,293.709L203.837,292.566L203.656,292.417L203.203,291.871L203.142,289.902L203.394,289.048L204.582,288.332L204.974,287.348L205.146,287.179L207.411,285.807L207.612,284.604L208.287,283.967L208.438,283.888L209.324,283.6L210.733,282.287L210.491,282.068L209.867,281.323L209.797,281.124L209.585,280.617L209.847,280.468L209.968,279.244L210.773,277.355L209.696,276.868L209.283,276.172L208.347,276.202L208.669,274.541L209.666,273.288L209.887,273.298L211.015,272.88L211.397,271.278L212.928,269.946L213.854,269.478L213.522,269.001L212.485,269.12L211.327,267.757L211.347,267.28L211.206,267.21L210.401,266.972L210.22,266.902L209.978,266.713L209.525,266.633L207.109,265.808L207.159,264.713L207.32,264.246L207.068,263.549L206.404,263.46L206.585,262.773L207.964,262.724L206.897,262.127L206.676,261.172L208.035,260.634L207.683,259.351L208.196,258.913L208.579,258.853L210.169,258.545L211.015,256.316L212.233,254.465L212.233,253.032L213.502,253.201L213.733,253.38L214.79,253.161L215.052,253.002L217.237,250.753L218.344,250.843L218.998,251.748L219.572,251.748L220.065,251.808L220.67,251.221L220.327,250.235L220.71,249.758L222.562,249.927L223.498,250.673L223.77,249.24L222.844,247.737L222.985,246.642L222.925,246.473L223.116,246.075L222.975,245.468L222.915,243.666L223.67,242.641L223.77,241.784L225.069,241.048L224.656,237.852L224.727,235.502L224.394,234.735L226.237,233.829L227.344,233.859L228.572,233.172L228.854,233.66L230.083,232.505L230.113,232.336L230.465,231.758L230.536,231.828L231.089,232.485L231.24,232.634L231.673,232.306L231.774,232.206L232.901,231.987L233.062,232.007L234.271,232.047L234.583,231.16L234.623,231.011L234.412,230.553L234.412,230.453L236.063,228.442L235.74,228.163L235.67,228.033L235.69,227.625L235.549,227.446L235.197,225.643L235.157,223.77L235.65,222.356L237.895,220.105L237.764,219.855L237.704,219.078L236.556,218.511L236.445,218.531L236.495,218.331L236.687,218.092L237.824,216.558L237.724,214.685L237.784,214.615L237.855,214.715L237.925,214.745L238.066,214.645L238.328,214.515L238.247,213.32L238.962,211.556L239.022,211.367L240.049,209.563L241.378,209.164L241.398,208.955L242.425,208.008L243.895,208.716L244.056,208.537L244.841,207.69L244.912,207.58L246.815,207.859L247.107,207.64L248.778,207.271L250.338,207.839L251.878,208.885L252.895,209.414L254.395,207.58L254.597,206.593L254.667,206.035L254.647,204.7L254.526,204.47L254.214,203.324L253.046,202.627L253.076,202.487L252.613,202.208L252.936,200.483L254.295,198.231L254.486,198.001L254.738,197.164L254.677,194.781L254.214,193.695L251.083,193.475L250.61,193.435L248.023,191.411L247.036,191.611L245.566,191.062L245.405,190.993L245.012,188.619L244.942,188.081L244.137,184.81L244.106,184.451L244.61,183.962L244.459,182.496L244.841,181.818L244.761,181.748L244.509,181.13L244.952,179.903L246.573,179.245L249.593,177.659L249.654,177.569L249.613,176.481L250.127,176.033L250.66,174.027L251.536,172.242L253.016,172.551L253.238,172.75L254.496,172.74L255.15,172.91L256.791,173.748L258.181,173.888L259.479,175.963L260.093,175.813L260.275,175.863L260.939,176.392L261.231,176.661L261.956,176.94L263.708,175.963L264.604,174.327L264.835,174.027L265.973,173.529L266.194,173.469L269.215,173.409L271.278,173.828L271.319,173.559L270.815,171.912L270.785,171.673L270.644,171.054L271.51,170.915L273.423,169.538L273.584,169.458L273.765,168.959L275.436,169.039L275.819,168.51L275.97,168.36L277.319,166.834L277.329,166.564L277.963,164.359L278.255,164.139L278.628,163.621L279.805,164.159L280.49,162.972L280.691,162.653L281.446,161.994L283.681,161.245L284.597,160.028L286.319,159.1L287.044,158.151L287.98,157.872L288.041,157.692L287.134,155.566L287.024,155.167L287.104,154.678L287.285,154.179L286.943,153.729L286.722,153.28L286.53,152.851L286.48,152.601L286.077,151.393L286.067,151.074L286.802,148.868L286.792,147.07L286.812,146.721L287.638,146.401L287.759,146.002L286.651,144.115L285.755,143.616L284.155,141.479L284.205,140.869L284.366,140.56L283.661,138.283L283.873,137.364L284.467,135.127L284.517,134.018L284.648,133.968L285.01,133.768L285.171,133.628L285.383,133.129L285.443,132.909L286.108,132.01L286.208,131.69L286.269,130.891L286.148,130.572L286.4,129.443L286.43,129.213L286.581,128.464L286.762,128.454L287.497,127.415L285.745,126.526L285.292,125.616L284.446,125.157L283.973,122.619L282.604,122.169L282.262,122.149L280.379,121.62L279.534,121.859L278.819,121.35L278.688,121.33L277.701,120.241L277.681,120.081L277.48,119.781L277.278,119.741L277.198,119.751L277.067,119.731L274.852,119.141L273.765,117.023L274.389,114.794L274.54,114.694L274.631,112.855L274.57,112.735L275.074,111.965L275.164,111.795L275.688,110.786L275.748,109.356L275.728,109.127L275.728,109.047L275.809,108.877L276.735,107.687L276.644,107.467L276.785,106.307L276.825,105.938L277.027,104.908L275.486,103.288L275.99,100.598L275.416,100.049L275.285,99.839L275.99,99.229L276.141,99.149L276.594,98.329L276.04,97.869L275.919,97.689L275.708,97.539L275.668,97.529L274.792,97.249L274.651,97.249L273.986,97.179L273.292,95.779L272.275,96.009L272.094,95.939L271.923,95.109L270.966,94.438L267.664,94.588L267.151,94.058L267.04,94.018L266.265,93.788L265.53,92.358L263.647,92.058L263.426,90.918L263.416,90.748L263.234,89.007L263.214,88.767L262.781,86.157L262.922,85.736L262.953,85.626L263.003,84.716L262.006,83.946L261.533,82.655L261.734,81.545L261.714,81.365L261.744,81.004L261.815,80.834L261.855,80.754L261.946,80.654L262.912,79.524L262.711,79.193L262.842,79.013L262.198,77.913L261.624,75.521L260.818,74.04L260.456,72.599L260.416,72.359L260.184,72.038L260.053,71.878L259.52,70.647L259.731,69.466L259.761,69.276L260.637,68.295L259.58,65.833L258.634,65.813L256.54,63.651L255.664,63.901L254.738,63.35L255.392,61.378L255.412,61.198L255.946,60.808L255.996,60.707L256.036,60.417L256.187,60.097L256.258,59.977L256.278,59.706L256.55,59.326L256.66,59.276L257.224,57.434L257.144,57.173L257.113,56.072L257.254,55.862L258.04,55.571L258.191,55.441L258.07,55.08L257.929,54.68L258.543,53.478L258.634,53.288L257.405,51.465L257.436,51.405L257.627,51.235L258.07,49.633L258.744,48.561L257.848,46.748L257.597,44.224L256.107,44.244L255.201,43.763L253.882,44.254L253.036,42.722L252.855,42.331L252.533,41.51L252.392,41.349L252.936,38.384L252.925,37.973L252.442,35.649L252.513,35.448L253.298,34.497L253.117,33.705L252.684,33.725L250.922,31.2L249.925,30.649L249.754,30.508L248.385,30.128L248.264,28.825L248.033,28.795L247.69,28.775L246.502,27.953L245.415,27.963L245.184,27.963L244.781,28.143L243.482,27.121L243.18,26.861L242.274,26.199L241.972,26.189L241.288,25.858L241.116,24.766L241.137,24.375L241.086,23.984L240.955,23.854L240.895,23.724L241.59,23.503L242.455,24.064L242.113,24.846L242.828,24.816L243.633,23.884L244.932,24.706L245.133,23.974L246.553,23.964L246.261,22.38L247.278,22.661L247.549,21.679L248.113,22.04L248.989,21.528L251.003,23.172L252.362,23.182L253.57,22.521L254.295,21.508L255.513,22.08L256.419,21.488L255.895,20.847L257.144,19.614L258.11,19.975L258.523,20.867L259.741,19.784L259.64,20.887L261.03,21.348L261.906,20.937L262.208,19.935L261,19.483L261.694,18L260.979,17.549L261.614,16.235L262.479,16.596L262.872,15.393L263.526,15.514L264,16.987L263.748,17.92L264.936,18.431L264.745,17.729L267.704,17.97L268.147,16.616L269.366,15.193L269.899,15.684L270.604,13.418L271.792,13.889L273.312,13.097L273.926,13.98L274.631,13.478L274.711,12.606L275.456,13.548L275.919,13.198L275.96,11.984L276.493,10.881L277.772,10.199L278.909,8.745L281.708,7.682L281.587,7.021L283.289,6.389L283.772,7.281L284.748,6.489L284.175,5.587L285.202,5.005L287.094,6.268L288.121,5.055L289.168,4.985L288.614,3.571L289.4,4.554L290.306,3.932L290.547,2.728L291.604,3.019L292.178,2.357L292.601,3.2L294.343,2.688L295.541,1.394L297.967,3.35L299.115,5.847L301.43,7.211L301.913,9.046L303.393,9.046L303.766,6.8L304.4,7.332L305.417,7.071L305.669,6.449L307.299,8.354L307.964,8.605L307.883,5.928L308.508,5.155L310.36,6.028L311.518,5.747L311.558,6.63L313.088,7.442L314.095,6.589L315.696,6.289L316.431,7.241L317.719,7.352L317.951,8.284L317.155,8.595L318.011,9.227L317.629,9.879L318.696,9.508L319.642,9.939L320.075,10.941L319.783,12.676L320.749,13.779L322.26,13.689L325.028,12.666L325.481,10.49L324.605,10.43L324.313,9.698L326.438,9.026L326.417,10.47L327.233,10.45L328.36,8.836L328.874,9.538L329.81,8.816L330.112,7.823L329.81,7.101L330.696,6.088L331.129,4.975L333.082,4.223L333.656,3.42L334.673,3.45L335.045,4.072L336.153,2.788L336.908,3.5L337.129,4.463L336.263,5.406L336.012,6.619L334.189,6.238L335.398,7.763L334.743,8.685L335.337,10.069L335.951,10.24L336.263,9.227L337.401,7.201L338.428,6.79L338.7,5.657L339.988,5.346L341.005,7.532L341.74,6.619L342.797,6.609L343.462,7.251L343.794,5.857L343.784,4.323L344.166,3.35L344.549,3.731L345.888,3.47L346.431,4.995L345.374,5.556L345.878,7.352L346.814,7.893L347.046,7.422L349.089,7.592L349.28,8.304L350.358,8.084L350.881,6.399L350.63,4.804L350.76,3.44L352.432,3.631L352.975,2.758L353.811,3.721L354.294,2.959L355.2,2.728L355.603,3.3L356.167,2.718L356.75,3.37L356.821,4.664L357.365,5.075L358.251,4.584L358.553,6.048L359.368,6.178L359.227,5.386L361.754,5.847L362.388,5.256L362.267,4.303L361.643,3.721L362.489,3.671L362.781,3.039L363.254,3.922L363.022,4.885L363.878,5.607L364.895,4.965L365.016,3.902L365.61,4.794L366.516,5.035L367.613,4.523L366.919,3.982L366.959,3.17L367.704,2.217L368.056,0.03L369.033,0L368.66,1.936L367.674,3.841L368.962,5.205L370.271,5.767L371.791,5.917L372.798,4.764L373.976,4.614L375.164,5.155L374.711,3.511L377.399,2.518L378.103,2.828L378.818,1.655L380.167,1.404L379.805,2.588L381.647,3.892L383.198,3.46L383.55,4.122L384.99,4.062L385.563,5.426L386.57,5.356L387.557,6.098L387.214,6.991L388.302,6.68L388.835,7.352L390.597,7.231L391.835,6.82L392.963,7.191L392.399,9.006L391.181,9.979L393.074,12.325L394.04,12.415L394.614,11.694L394.906,9.939L395.852,8.976L396.386,7.652L395.933,7.141L396.94,7.121L397.453,5.657L398.097,6.359L398.943,5.526L400.755,6.359L402.185,6.208L402.154,6.991L401.198,8.655L401.077,8.836L401.339,9.106L401.56,9.217L402.245,9.748L401.691,11.072L401.641,11.302L402.034,13.027L401.601,13.719L402.154,15.022L403.222,14.822L403.403,14.902L403.091,16.837L403.634,19.253L403.604,19.453L403.946,20.035L403.896,20.285L404.259,20.997L403.654,22.671L403.634,22.852L403.584,22.952L403.433,23.152L401.822,24.084L402.154,26.079L401.54,29.687L400.886,30.699L399.084,32.052L397.715,33.795L398.732,34.647L398.913,34.637L400.634,34.657L400.554,35.829L400.805,35.819L401.178,36.17L401.46,36.37L402.658,37.502L402.668,37.753L402.346,39.015L403.685,38.885L403.906,39.216L404.863,39.817L406.161,41.48L406.624,42.531L406.483,43.683L406.906,43.984L407.188,44.044L408.749,45.356L408.859,45.346L409.534,44.865L410.42,45.787L412.463,46.678L412.816,46.859L413.158,47.58L413.148,47.7L413.732,49.603L414.94,50.093L415.141,50.694L417.165,51.275L417.356,51.165L417.537,52.617L418.544,53.008L418.896,53.839L418.977,54.099L418.393,55.02L418.605,56.282L418.292,57.544L417.618,58.245L418.826,59.476L418.997,59.646L420.225,60.647L420.286,62.79L421.464,64.021L421.474,64.211L421.534,64.331L422.46,64.632L423.608,64.011L424.534,64.331L426.095,63.721L426.367,63.631L426.628,63.661L426.92,63.901L428.209,63.37L428.612,63.741L429.789,63.491L430.555,62.88L431.209,63.43L431.289,63.641L431.591,64.121L433.142,63.621L433.283,63.501L433.796,61.789L433.847,61.498L436.726,59.306L436.967,59.296L438.417,59.736L438.689,59.336L438.91,59.226L439.313,57.954L441.327,57.514L441.377,57.434L441.397,57.013L441.478,56.873L441.971,56.632L442.112,56.472L443.974,55.251L445.646,55.621L446.803,55.101L447.538,55.721L447.73,55.892L450.81,54.169L452.582,53.919L452.954,53.969L453.307,53.739L453.438,53.669L454.877,53.248L455.351,53.669L456.84,53.588L457.112,53.919L457.143,54.77L457.042,54.93L456.871,57.093L457.384,57.734L457.495,57.784L457.847,57.814L458.371,59.756L458.28,59.937L459.075,61.478L459.106,61.639L459.196,61.889L459.257,63.841L459.257,64.041L459.086,64.592L459.035,64.752L459.72,65.713L459.78,65.823L458.522,67.795L455.562,70.417L456.508,70.817L456.619,70.948L457.958,71.228L458.33,71.348L458.985,72.359L458.723,73.219L458.804,73.45L458.149,76.582L457.938,76.652L456.679,77.212L456.679,77.422L456.518,78.523L456.528,78.643L458.391,79.784L458.612,81.675L458.582,81.885L458.643,82.205L458.743,82.305L459.569,83.656L459.609,83.816L459.327,84.886L459.418,85.046L459.69,85.346L459.74,85.696L459.76,86.237L459.79,86.387L459.81,86.947L459.841,87.167L461.381,89.158L461.451,89.408L461.542,90.048L461.471,90.278L461.935,92.178L461.149,93.108L460.706,94.989L460.867,96.399L460.404,97.179L460.827,98.609L460.515,99.929L460.807,100.269L460.978,100.648L461.2,101.688L461.26,101.898L461.341,102.088L461.3,103.818L461.19,103.998L461.169,104.978L461.28,105.158L461.018,106.097L460.082,106.217L459.569,105.648L458.079,105.518L457.817,105.378L454.877,105.058L454.777,106.857L453.418,108.197L453.176,108.397L452.642,108.897L452.552,109.097L452.381,109.656L452.361,109.786L451.555,111.086L451.505,111.306L450.589,111.805L449.763,111.396L448.988,112.365L446.944,112.745L445.776,114.224L444.85,114.284L444.669,114.264L442.072,114.764L441.629,114.284L441.407,114.114L440.954,112.815L441.447,111.925L440.682,111.076L440.592,110.886L439.897,110.266L439.776,110.146L438.9,109.726L435.719,109.496L433.716,107.437L433.595,107.177L433.424,106.567L431.893,105.468L431.42,105.568L431.108,105.638L430.524,105.708L427.605,103.798L427.283,103.868L426.427,104.558L426.205,104.798L424.575,105.958L424.283,106.147L423.779,106.147L423.598,106.267L423.225,106.627L422.682,108.787L422.43,109.017L421.645,109.336L421.574,110.266L420.88,111.496L420.719,111.416L420.346,111.616L420.326,111.905L420.165,112.635L420.366,112.705L420.507,113.495L420.699,113.844L421.313,114.754L421.534,116.473L421.413,118.042L419.39,121.54L418.856,123.218L420.326,127.275L420.215,127.884L418.806,128.983L418.796,130.442L418.413,130.502L418.343,130.612L418.554,131.311L418.454,131.87L418.403,133.039L419.893,133.828L420.175,133.918L421.373,134.957L421.816,136.815L420.759,138.463L421.131,139.381L421.162,139.741L419.631,141.908L419.964,143.146L420.598,144.005L423.819,145.742L424.917,145.802L425.883,145.363L426.064,145.413L426.246,145.533L426.548,145.533L427.635,145.982L427.957,147.21L429.578,147.739L430.695,148.977L431.128,148.957L432.185,149.656L434.189,149.666L434.662,150.395L437.501,150.784L439.645,151.713L440.743,151.773L442.515,152.791L442.716,152.981L444.085,152.931L444.739,152.412L444.85,152.422L445.102,153.859L447.74,154.837L447.86,155.027L448.998,156.564L448.907,156.804L449.018,158.291L448.193,160.387L448.233,160.507L450.327,161.245L450.448,161.185L451.122,161.056L451.213,161.285L451.303,161.475L451.424,161.575L452.079,161.944L452.209,162.064L452.904,162.433L452.884,162.643L453.297,162.583L453.478,162.613L455.512,163.241L455.723,163.291L456.73,163.69L457.283,164.439L457.495,164.449L458.059,164.06L458.109,163.97L458.693,163.311L458.753,163.152L458.844,163.072L460.646,163.79L460.827,163.8L462.237,163.491L462.367,163.351L463.092,162.862L463.213,162.952L463.596,162.932L463.525,164.289L463.525,164.429L463.596,164.559L463.425,164.838L463.284,164.888L463.928,165.976L463.988,166.894L465.035,167.991L464.784,169.209L465.186,169.488L465.589,169.568L466.052,170.655L466.102,171.154L466.042,171.922L467.139,173.698L468.76,172.83L469.364,171.364L470.532,170.815L471.096,171.044L472.012,170.117L472.727,167.712L472.817,167.482L474.267,166.734L474.408,166.455L474.76,165.377L475.818,164.698L476.734,165.267L477.74,164.738L477.871,164.439L479.885,162.782L480.106,162.413L483.811,163.67L484.959,163.421L486.932,164.429L487.224,164.329L488.835,162.732L489.801,162.623L490.445,163.501L490.637,163.511L491.794,163.72L491.966,163.73L492.801,163.122L493.113,163.171L493.788,163.441L494.08,163.71L494.976,164.11L495.217,164.03L496.556,164.708L496.768,164.948L497.09,165.217L497.211,165.367L497.402,167.213L497.986,168.151L497.875,168.231L498.54,169.079L499.285,171.563L499.093,173.02L498.59,173.479L498.57,173.798L497.593,176.132L497.321,176.262L495.842,176.701L495.288,177.928L497.523,180.172L497.613,180.262L498.681,180.791L499.818,180.322L500.02,180.432L500.281,180.471L501.459,182.386L501.721,182.496L502.184,182.676L502.476,182.666L503.151,182.785L504.157,182.187L505.114,183.114L505.224,183.793L505.345,183.892L506.12,184.551L506.352,185.817L507.318,186.844L508.627,186.914L509.181,187.762L509.161,187.961L509.312,188.101L509.412,188.34L510.016,190.305L509.684,191.072L507.671,190.873L506.13,191.7L505.738,192.827L505.808,193.206L506.704,194.901L506.775,195.19L506.624,195.33L506.583,195.589L506.342,195.778L506,197.403L505.899,197.623L505.969,198.031L505.879,198.211L505.849,199.726L506.614,199.636L506.805,199.656L507.731,199.566L509.634,201.072L509.755,201.769L510.016,202.028L510.399,202.178L510.52,202.238L510.681,202.328L510.872,202.417L511.527,203.434L511.577,203.573L512.866,203.952L513.258,203.892L513.762,203.673L513.892,203.623L513.973,203.583L514.053,203.484L515.916,203.504L516.258,203.374L516.47,203.454L516.631,203.384L517.557,202.965L517.718,202.786L518.06,202.896L518.161,202.896L519.238,202.098L519.289,200.982L519.429,200.713L519.641,199.407L519.772,199.247L520.356,197.463L520.487,197.443L521.242,197.473L521.584,197.373L521.936,197.533L522.017,197.712L523.336,197.752L523.487,197.702L525.279,197.623L525.722,197.732L526.205,197.234L527.342,197.872L528.802,197.523L529.155,197.852L530.554,198.191L532.567,197.942L532.749,197.782L533.322,197.742L533.635,197.573L535.034,198.609L536.031,198.48L536.584,199.507L536.906,199.786L537.027,199.846L537.289,199.925L537.873,199.895L538.306,199.766L539.151,200.015L539.232,202.467L539.876,203.962L538.88,204.909L538.537,205.039L538.366,205.477L538.346,205.806L537.732,207.301L536.866,208.038L535.386,207.939L535.89,209.553L536.433,209.962L536.645,210.291L537.38,210.41L537.551,210.54L538.547,211.217L538.618,211.207L540.44,211.696L541.598,210.878L541.839,210.888L542.152,210.968L543.521,211.227L544.9,210.41L546.017,210.49L547.316,209.862L548.484,209.782L548.615,209.643L550.185,209.703L551.091,208.666L552.531,208.447L555.672,208.487L555.642,210.061L555.098,210.41L554.957,210.5L554.806,210.53L555.34,212.044L555.249,213.14L556.165,213.957L558.4,213.987L560.132,213.649L561.219,214.565L561.33,214.994L561.853,215.462L565.488,215.95L565.619,215.98L565.87,216.608L565.971,216.697L566.938,216.498L567.179,216.428L569.052,216.369L571.508,216.777L571.599,217.146L571.961,217.674L571.438,218.162L571.407,218.361L570.26,220.035L570.451,221.16L570.582,221.29L571.216,222.187L571.367,222.316L572.626,223.432L572.666,223.611L572.414,224.239L571.337,224.846L571.327,225.065L571.397,226.45L571.256,226.569L570.864,228.043L570.813,228.322L570.964,229.398L571.105,229.358L571.569,228.651L572.233,229.298L573.944,229.816L574.045,230.005L574.035,230.135L574.176,230.244L575.032,230.623L575.314,231.788L575.374,231.937L575.444,231.997L575.827,232.266L575.545,233.003L575.374,233.033L574.85,233.74L574.387,235.422L574.71,236.259L574.659,236.567L574.659,237.643L573.914,237.802L573.773,237.782L572.767,238.788L571.72,238.937L571.508,238.877L570.622,239.047L570.491,239.096L570.24,239.554L570.038,239.694L569.011,240.58L568.005,240.948L567.209,241.854L567.189,242.133L567.511,243.566L566.938,243.875L566.726,243.965L565.508,244.572L564.672,246.045L565.095,246.971L564.884,248.563L565.488,249.847L565.417,249.847L564.32,250.355L562.397,249.37L561.914,248.105L559.367,247.478L558.441,247.638L558.31,249.489L556.719,249.997L556.387,250.096L555.853,250.723L555.612,250.673L554.605,250.942L554.373,251.022L553.336,252.077L552.189,253.828L553.347,253.888L554.696,255.669L555.3,257.53L556.699,257.729L557.484,257.221L560.122,257.958L560.122,259.41L560.192,259.609L560.202,259.689L560.343,259.988L560.323,262.176L559.85,262.495L559.941,265.38L559.538,265.4L559.316,265.469L559.125,266.255L559.246,266.404L559.467,266.683L559.558,267.081L559.689,267.24L559.749,267.409L559.518,270.324L559.8,270.761L559.86,270.91L559.457,271.428L559.437,271.577L560.504,273.477L560.887,273.675L561.692,274.65L561.219,275.217L559.578,275.754L559.327,275.873L558.874,275.655L558.682,275.754L558.169,277.614L558.269,277.992L558.199,278.867L557.001,280.895L557.504,281.85L558.491,281.919L558.763,282.217L560.374,283.073L560.535,283.341L560.756,283.769L561.249,285.21L562.085,285.807L563.203,285.081L564.622,285.16L564.864,285.28L565.739,286.045L565.8,286.075L566.112,286.155L566.253,285.886L567.008,285.051L567.592,285.489L568.941,285.091L570.149,285.956L570.813,287.984L570.894,288.183L570.652,288.898L570.662,289.028L571.085,289.932L571.236,290.091L572.173,290.638L572.465,290.926L572.716,290.718L573.501,289.753L574.116,289.873L574.297,289.902L576.048,290.151L576.562,289.922L578.052,290.807L577.881,290.857L578.193,291.543L580.468,290.807L580.327,292.368L580.488,292.656L580.659,293.481L580.78,293.868L582.391,293.699L582.945,293.024L583.156,292.865L585.29,292.686L586.156,292.189L587.314,292.725L588.17,291.92L588.301,291.761L590.183,293.66L590.324,293.759L590.465,293.749L590.837,293.898L590.878,294.097L591.935,295.578L593.334,295.807L594.562,296.92L596.364,296.045L596.586,295.946L596.656,296.125L596.787,296.353L597.029,297.267L596.193,297.754L596.294,298.738L596.294,298.937L595.297,300.13L595.005,300.239L593.193,300.249L591.492,299.464L587.425,299.305L587.173,299.513L586.73,300.13L586.569,300.269L585.743,300.636L585.431,300.646L584.857,300.776L582.753,301.988L582.482,302.882L581.072,303.399L581.284,304.77L581.837,304.76L582.331,304.78L583.277,304.7L583.458,304.889L584.878,308.377L585.321,309.002L584.706,309.887L585.381,310.592L586.347,309.31L587.384,308.943L587.525,308.923L589.116,307.82L589.368,307.92L589.69,308.625L589.217,310.195L589.106,310.512L588.089,311.099L587.757,313.046L586.881,315.628L586.891,315.767L586.891,315.876L586.569,317.068L586.408,317.178L585.844,318.31L586.096,319.154L585.602,320.147L585.421,320.525L584.576,322.809L584.757,323.156L585.069,323.961L585.059,324.239L584.404,325.023L584.153,325.212L583.841,325.48L582.582,326.225L581.324,326.473L580.287,326.205L581.525,328.339L581.716,329.233L581.888,329.6L582.673,331.735L582.502,333.939L582.502,334.296L582.522,334.743L581.565,336.937L580.539,338.068L580.297,338.386L580.035,338.852L580.045,339.11L580.478,341.314L580.549,341.502L581.213,343.348L581.475,343.755L582.19,345.551L582.431,345.889L583.216,345.869L583.287,345.789L584.112,345.591L584.253,346.226L585.391,347.486L585.502,347.625L585.985,347.526L586.035,347.903L585.864,348.171L587.284,349.987L587.968,350.076L588.27,350.007L588.663,350.781L588.653,350.84L588.301,350.959L589.015,353.082L589.015,353.787L589.79,355.88L589.539,357.814L589.539,358.013L589.368,359.253L589.569,359.223L590.968,359.818L591.16,360.126L591.19,361.792L591.039,362.437L591.361,363.072L591.864,363.468L592.015,363.448L592.217,363.052L592.549,362.605L592.76,362.506L593.173,362.804L593.193,363.131L592.911,364.629L592.962,364.896L593.314,366.186L594.059,365.759L594.331,367.465L593.898,372.175L593.908,372.403L594.361,373.216L592.77,372.75L590.697,372.839L589.911,373.553L589.579,374.654L589.579,374.852L590.405,377.737L590.244,378.322L590.032,378.738L589.217,379.432L587.646,380.077L586.8,380.394L584.717,381.544L582.894,383.903L580.951,384.607L580.116,384.944L578.988,385.499L577.75,386.569L577.247,387.312L577.176,387.431L576.874,387.233L572.213,394.15L567.099,395.488L566.354,394.715L566.938,394.18L568.971,393.278L572.495,390.93L575.163,386.678L573.522,386.163L573.099,386.757L572.233,386.093L572.817,387.471L571.347,389.473L570.018,389.116L570.501,387.917L570.048,387.699L568.87,389.79L567.552,389.176L566.817,391.237L567.27,391.93L565.508,393.833L564.622,392.902L566.303,389.037L564.682,387.729L563.525,388.71L564.713,389.176L562.89,390.84L559.87,387.54L561.763,385.816L562.82,385.657L562.357,385.152L563.112,384.289L561.874,383.853L560.988,382.644L558.984,380.493L558.269,380.503L555.018,377.489L554.998,376.815L554.021,376.151L553.638,377.707L551.846,376.666L549.642,376.131L550.125,376.538L550.034,379.194L544.306,380.553L544.165,378.976L540.541,378.61L539.554,379.294L539.544,380.443L538.256,380.523L536.474,381.375L536.776,381.851L538.104,381.593L538.537,384.726L533.272,385.419L532.98,383.615L531.994,383.536L532.084,385.558L524.695,386.539L522.862,385.737L519.047,386.272L519.117,386.747L521.302,386.856L522.399,388.938L517.758,389.562L516.107,388.066L514.678,389.146L515.866,390.226L512.402,392.485L511.245,391.445L510.57,392.198L511.144,394.437L510.741,394.695L510.308,393.03L507.953,393.1L507.741,394.388L507.459,392.366L506.785,392L506.845,393.615L506.221,393.714L506.332,394.606L505.536,393.139L504.912,393.367L506.533,397.192L505.979,398.044L502.728,397.945L502.889,399.431L504.318,398.837L505.879,399.342L505.436,400.778L504.711,400.541L504.369,401.402L502.657,400.541L503.674,403.8L504.54,403.344L504.892,404.345L505.708,404.81L504.54,406.207L494.18,407.534L493.878,406.345L492.529,406.89L493.667,407.613L492.69,407.831L489.509,409.416L488.774,408.891L486.066,408.94L485.512,409.356L484.455,409.01L480.912,409.525L479.281,410.119L478.314,411.08L474.338,412.298L472.777,412.397L471.579,413.149L469.213,413.575L469.294,414.536L464.613,415.625L463.958,414.962L464.029,415.942L463.445,416.071L463.706,414.972L461.693,415.219L461.884,416.071L459.921,415.952L457.857,414.704L456.941,414.427L455.471,413.367L455.763,412.961ZM517.95,391.584L517.909,391.455L517.929,391.455ZM517.929,391.455L517.909,391.455L517.919,391.326ZM517.919,391.326L517.889,391.197L517.909,391.197ZM517.909,391.197L517.889,391.197L517.899,391.068ZM521.826,409.614L522.45,411.803L523.104,412.654L522.52,412.932L514.778,413.664L513.54,414.11L512.986,413.823L512.845,412.397L514.356,409.941L519.007,409.495L519.047,409.961L520.386,409.832L520.336,409.366ZM516.46,393.08L518.252,395.002L515.262,396.122L515.735,397.063L519.057,395.825L520.315,396.756L516.319,398.252L516.782,399.183L520.809,397.697L521.795,399.966L518.312,401.274L519.097,402.859L522.581,401.561L524.604,405.672L515.533,405.969L512.1,403.245L511.406,403.195L511.325,402.324L510.741,402.353L510.439,396.687L511.355,395.785L511.527,394.953L512.08,395.418L513.449,394.586L513.309,393.665ZM277.862,425.724L278.346,426.318L277.289,428.099L276.866,427.634L276.161,428.476L275.396,428.406L275.436,427.357L276.181,426.981L276.382,425.833ZM274.027,420.705L274.792,421.497L273.745,421.873ZM283.359,411.476L282.876,412.169L283.128,413.605L282.503,414.15L281.859,413.565L282.292,411.822L283.158,411ZM310.783,408.633L311.679,410.733L311.226,410.733L310.964,409.584L310.038,408.267ZM293.97,407.366L294,408.762L292.49,408.812L292.953,407.673ZM263.949,404.463L264.12,406.355L262.479,406.227L262.198,407.078L261.442,406.672L261.885,405.177L263.114,405.087ZM292.158,403.225L292.591,403.919L291.665,404.146ZM288.101,402.215L288.161,403.235L289.228,404.295L288.957,405.92L287.185,405.731L287.064,406.464L286.289,406.385L287.255,407.772L288.725,408.059L288.675,408.713L287.749,409.208L289.037,409.426L287.98,410.456L287.96,411.743L286.893,410.416L285.534,410.238L285.564,409.703L283.339,408.534L283.43,407.425L284.215,406.752L284.004,405.9L285.705,405.127L285.795,405.474L287.386,404.434L287.366,402.581ZM278.94,397.479L280.409,398.965L281.748,398.896L280.651,400.917L279.936,401.61L279.836,402.73L281.446,402.274L281.618,403.057L281.195,405.117L282.242,404.751L282.715,405.751L282.514,406.643L283.339,407.336L283.077,408.326L282.302,408.584L280.621,407.93L279.493,409.168L277.872,409.446L279.121,408.396L280.047,406.91L279.765,406.385L278.265,406.514L277.842,407.385L276.836,406.038L274.742,407.395L273.131,408.921L272.557,409.792L271.651,409.495L271.248,408.713L269.587,407.871L270.443,407.445L270.171,405.652L270.674,404.612L270.191,403.691L270.735,402.581L271.641,403.374L271.037,400.937L272.064,399.807L273.463,399.441L272.406,401.462L274.027,402.027L274.832,402.839L275.346,402.235L275.275,401.234L276.07,400.55L276.825,401.105L276.564,402.294L278.648,401.412L278.869,400.382L278.134,398.985L278.456,398.193L277.973,397.618ZM306.826,395.478L307.903,396.389L308.709,396.36L309.172,397.776L309.836,398.361L310.904,397.727L312.353,398.876L312.494,401.204L310.742,402.918L310.541,403.978L309.232,403.384L308.256,403.899L308.296,405.157L307.632,405.652L306.101,405.107L305.336,402.938L304.44,401.66L303.514,400.986L303.494,399.015L303.172,398.371L303.866,397.747L305.87,396.905L305.477,395.825ZM318.021,394.437L319.109,395.369L317.558,395.399ZM294.584,391.594L295.239,392.347L294.202,392.911L293.688,393.922L292.873,394.279L292.5,393.595L291.967,395.26L293.014,395.22L293.568,395.755L293.205,397.043L294.041,395.765L294.091,395.062L295.39,394.665L296.306,395.23L297.172,394.368L297.997,394.457L297.494,395.646L297.776,396.915L297.001,398.252L297.947,401.046L296.527,402.789L294.685,402.67L294.363,401.69L293.074,401.006L291.242,399.421L290.678,399.926L290.064,398.817L288.695,398.837L288.433,398.173L287.457,397.836L287.517,396.211L286.44,395.101L286.893,394.17L287.487,394.368L288.363,393.556L289.017,393.932L290.819,393.625L291.453,392.406L292.752,391.95L293.366,392.763ZM327.746,391.227L328.803,392.109L328.421,392.822L327.928,391.99L327.213,392.049ZM352.703,390.811L352.713,392.01L352.13,390.9ZM348.515,358.36L348.314,358.4L347.217,362.635L344.921,362.536L344.821,362.06L345.505,359.352ZM317.256,357.795L316.904,357.933L317.488,360.096L315.565,360.622L315.776,361.435L314.961,361.663L315.263,362.744L314.266,362.724L313.219,358.886ZM336.002,360.473L335.679,360.919L333.998,360.612L335.508,357.745L337.33,358.608ZM443.36,408.128L442.001,408.742L442.243,408.237ZM401.893,387.719L402.658,387.947L403.101,386.886L401.007,385.984L401.339,385.162L403.775,386.103L406.574,388.333L407.53,389.493L405.537,392.406L398.893,389.443L400.322,387.421ZM556.528,380.265L557.796,380.721L557.827,381.207L559.387,382.852L559.588,383.397L557.665,385.152L556.981,384.398L556.145,380.899ZM553.558,383.07L553.558,382.208L550.477,382.198L550.437,379.591L552.199,377.717L553.628,377.896L555.461,379.224L555.743,380.057L554.977,381.98L553.588,382.059ZM428.219,544.407L429.749,546.498L430.011,547.928L431.632,550.838L431.712,552.277L431.279,552.889L431.581,550.966L429.659,548.264L429.638,546.676L428.028,546.36L427.494,544.644ZM405.134,456.337L404.712,457.93L405.96,455.497L406.453,455.675L408.749,453.133L409.967,453.064L409.373,453.568L411.255,453.242L411.688,453.687L414.749,451.817L415.524,451.788L416.078,451.076L417.044,450.898L418.131,449.463L419.259,447.287L422.048,445.575L422.692,446.466L424.081,445.585L425.944,442.706L428.088,441.044L431.39,436.077L432.175,435.374L433.887,432.049L434.118,431.118L435.337,429.941L437.541,426.456L439.273,425.338L439.766,424.486L442.645,422.912L445.857,422.081L446.451,422.348L447.619,424.338L448.464,424.991L449.079,427.169L450.639,429.327L451.958,429.723L452.663,430.574L452.582,432.494L453.236,433.147L453.468,434.919L451.122,439.322L449.471,441.41L447.417,442.924L445.776,445.051L444.901,444.596L444.568,445.318L445.273,445.823L444.236,447.148L443.662,447.119L443.3,448.049L443.491,450.007L443.139,451.234L442.927,453.756L443.058,455.141L442.756,456.189L440.592,460.066L438.649,462.795L438.518,463.625L436.192,466.275L434.541,467.442L432.759,468.342L431.662,469.439L431.289,470.279L429.85,471.91L428.763,474.016L427.343,476.289L426.658,478.473L425.924,479.432L423.89,481.053L424.162,481.517L425.028,480.845L425.622,481.31L423.84,482.841L421.121,486.083L420.578,485.638L420.991,484.66L420.386,484.274L419.823,485.272L418.071,486.774L418.957,487.12L420.024,486.695L420.507,487.041L417.87,490.716L416.48,489.669L415.192,491.438L414.839,491.22L413.903,492.505L414.386,492.949L415.453,492.06L416.36,492.692L414.376,495.004L413.631,496.15L412.967,495.725L412.403,496.624L413.078,497.058L412.504,498.925L411.145,497.779L411.467,499.162L412.363,500.713L411.688,503.083L411.155,504.081L411.034,505.572L411.578,511.141L411.457,513.007L412.101,514.389L411.789,514.764L411.97,517.361L411.306,517.884L411.547,519.621L411.386,521.348L410.682,522.75L411.809,524.526L412.836,524.457L411.799,525.296L412.393,525.642L414.024,527.596L416.541,527.625L417.598,529.471L417.034,530.408L417.115,532.007L417.729,531.296L418.655,535.42L418.605,536.831L419.017,538.311L420.064,539.781L421.967,541.586L423.86,542.306L425.37,543.598L426.669,544.328L428.38,548.53L428.652,549.674L428.179,549.92L428.128,551.331L428.702,553.855L429.769,553.924L430.424,553.234L430.142,555.226L429.447,556.784L427.615,557.553L424.695,558.233L420.517,560.126L417.356,561.141L414.769,561.536L412.212,562.403L409.796,564.237L407.732,565.518L403.866,567.174L401.812,567.815L400.07,568.938L395.178,570.772L392.097,572.821L391,573.324L389.761,574.428L388.422,576.546L385.432,579.197L385.191,579.66L380.691,581.818L380.439,582.862L378.103,583.099L374.389,583.089L372.335,582.655L370.019,583.365L369.556,583.266L366.395,584.428L365.751,584.98L362.761,585.689L360.657,586.783L358.935,587.275L357.516,587.167L357.787,585.108L358.412,583.296L357.828,580.261L357.022,579.325L355.482,578.488L353.831,576.941L351.405,576.27L348.254,576.123L348.445,575.502L347.811,574.122L348.878,571.461L350.076,570.387L351.445,567.085L352.663,567.026L352.754,565.903L354.928,566.593L354.636,565.242L354.938,563.123L353.74,560.609L353.428,561.161L352.22,561.407L348.918,564.138L350.207,564.424L350.156,565.429L348.153,566.632L347.942,565.439L346.17,564.079L344.196,564.109L343.562,564.385L341.972,563.892L339.485,565.331L339.022,564.572L337.441,564.69L335.367,566.514L334.24,566.731L334.693,566.09L336.354,565.075L337.481,564L338.901,563.123L340.099,560.895L338.992,559.554L339.173,557.237L338.69,555.906L337.814,555.916L337.542,554.604L336.525,555.038L335.236,555.019L334.723,554.486L335.408,552.652L335.327,551.291L335.871,549.299L335.8,547.869L334.693,546.676L333.847,546.232L333.736,546.903L333.062,546.321L333.736,545.463L334.401,545.759L335.488,545.019L337.492,541.419L337.985,540.087L339.626,536.713L341.206,536.377L341.992,535.726L343.462,533.378L343.774,531.405L345.727,533.99L346.955,534.266L348.687,533.98L349.854,535.351L351.817,535.085L354.002,533.664L353.479,532.678L355.079,531.799L355.432,532.461L356.942,531.503L358.945,528.119L360.717,524.112L362.006,520.421L362.549,519.325L364.261,514.162L364.935,512.661L365.68,510.045L367.17,510.45L368.549,509.502L369.516,507.764L371.932,501.256L372.566,499.014L372.466,497.908L373.905,498.965L375.365,496.663L376.311,493.996L376.946,493.196L379.191,486.28L379.694,485.006L380.419,485.411L381.577,484.581L383.5,481.132L385.362,479.906L386.318,477.515L387.486,477.554L388.12,478.029L389.288,477.406L390.396,478.345L391.463,478.345L394,475.914L393.758,475.459L395.55,474.134L398.057,469.439L398.993,466.829L399.426,466.542L401.067,462.923L402.175,461.42L402.769,459.878L404.208,459.027L404.44,457.554ZM549.561,381.524L549.561,382.912L549.108,381.574L548.182,382.604L549.561,383.189L549.189,384.369L545.866,384.002L545.393,383.239L544.648,383.853L544.376,381.058L549.511,379.819ZM244.771,378.451L244.68,378.322L244.771,378.451ZM263.486,361.068L262.701,362.06L262.177,361.524L262.983,360.483ZM387.255,590.871L388.704,591.757L388.714,592.644L390.214,593.737L390.386,595.253L390.214,596.8L387.929,598.621L387.688,599.626L386.047,599.37L385.453,600L383.963,599.636L383.932,598.287L384.365,597.696L384.053,596.494L384.677,595.628L386.52,595.51L387.204,594.515L387.053,593.047L386.53,592.053ZM398.329,382.248L399.628,382.317L400.433,383.348L399.195,386.351L397.564,388.591L393.275,387.58L395.188,383.031L397.533,384.022L397.936,383.041L395.58,382.049L395.822,381.455ZM327.263,5.165L328.129,5.506L327.213,5.978ZM338.931,3.079L339.525,4.162L339.042,5.145L338.498,5.075Z"
          fill="#e0e0e0"
          stroke="#333333"
          stroke-width="1"
          stroke-linejoin="round"/>
  </g>
</svg>