<?xml version="1.0" encoding="UTF-8"?>
<svg xmlns="http://www.w3.org/2000/svg"
     viewBox="194.62309774225287 -19.999999999996362 410.7538045155088 640"
     width="410.7538045155088"
     height="640">
  <title>奈良県</title>
  <desc>都道府県コード: 29</desc>
  <g id="29">
    <path d="M491.925,111.854L491.658,111.854L491.108,112.117L490.54,112.953L488.989,114.479L488.939,115.808L486.953,118.122L488.338,121.813L489.956,123.01L489.923,125.569L489.155,127.029L487.687,126.865L486.936,128.128L488.688,131.409L489.639,130.95L489.973,132.475L492.659,132.934L493.093,133.049L493.176,133.016L493.36,132.934L494.595,134.82L494.261,138.297L497.281,140.019L500.268,139.544L502.553,141.594L504.322,142.512L504.672,142.446L506.174,143.168L506.725,145.021L508.31,145.71L510.445,145.431L510.779,146.185L511.263,146.644L513.682,145.923L515.134,147.284L521.357,146.907L521.724,150.268L522.258,151.022L522.292,151.383L522.859,152.924L522.992,153.432L525.378,153.514L533.904,147.694L536.107,143.955L538.693,146.12L539.31,146.365L540.712,147.333L543.281,147.415L543.047,145.201L544.049,144.955L544.799,144.873L545.6,146.677L545.634,146.89L547.018,147.858L546.601,149.35L547.519,150.317L548.87,152.154L547.786,153.252L550.973,156.744L551.073,157.039L553.125,158.367L554.226,161.007L553.175,165.957L551.74,167.645L552.041,170.088L554.26,171.891L559.933,172.677L560.4,171.317L563.703,168.235L564.137,168.121L564.588,168.35L565.956,168.416L568.308,167.399L568.592,167.285L575.516,164.842L576.284,164.941L578.319,165.482L577.969,168.53L579.27,170.579L580.021,173.366L579.854,176.856L577.869,178.626L577.502,180.101L577.652,180.56L577.268,182.854L578.119,184.313L579.07,185.247L580.004,186.033L584.993,187.164L585.377,189.015L584.71,190.85L583.625,191.407L583.208,191.538L582.657,192.112L582.257,192.341L579.704,193.341L577.819,195.88L577.635,196.47L577.001,199.992L577.368,201.368L575.65,202.99L574.398,205.185L573.914,208.837L573.464,209.214L573.948,213.292L573.097,215.552L572.863,215.994L572.263,217.386L568.041,216.338L564.104,216.273L563.219,215.912L559.716,218.532L559.232,218.663L557.83,219.22L553.459,218.647L550.205,217.386L549.588,217.239L546.952,216.944L546.084,218.385L544.282,219.318L543.732,220.579L543.565,221.136L539.41,222.102L535.072,220.972L532.136,219.449L531.769,219.286L531.151,219.318L530.701,219.63L530.2,220.497L526.696,220.776L526.446,220.923L525.345,221.054L523.142,224.591L523.009,224.853L522.558,225L522.308,225.213L521.708,225.623L519.405,225.836L519.088,225.819L516.051,225.524L515.184,225.574L513.465,225.934L511.079,229.241L509.561,230.223L510.879,233.989L510.445,235.872L510.529,236.166L510.429,236.494L510.395,236.854L510.429,237.23L510.562,237.836L510.479,238.245L508.927,240.259L508.643,240.324L506.791,242.681L505.457,242.583L505.156,242.714L503.054,245.055L501.836,249.032L502.236,249.818L499.066,252.878L499.417,253.729L499.216,255.938L499.483,256.249L500.835,257.346L501.302,257.346L501.752,257.395L503.922,257.722L508.293,262.287L508.476,264.66L509.828,265.445L511.33,269.192L511.33,269.339L510.595,270.206L510.579,273.069L512.331,273.887L512.714,274.133L513.482,276.652L513.732,277.061L514.917,279.94L514.5,280.741L514.183,281.363L514.683,284.307L516.702,286.352L516.786,286.777L516.368,288.461L516.302,288.788L516.936,290.506L520.306,293.875L520.623,295.019L522.892,295.673L523.91,296.834L526.63,296.524L527.597,297.407L528.598,299.909L531.518,303.424L529.816,304.601L527.647,307.168L525.695,307.233L523.693,308.214L521.924,310.683L520.072,310.994L515.851,310.34L513.248,312.285L512.931,313.004L513.582,315.718L513.465,317.99L514.516,319.788L514.5,321.227L515.951,321.815L518.587,325.002L522.108,326.473L522.875,327.764L523.877,330.804L524.627,330.869L525.745,333.239L526.529,333.271L527.397,335.33L525.862,336.572L525.662,337.128L525.362,339.579L527.564,340.298L527.814,340.625L530.601,342.128L531.001,343.958L532.503,345.33L531.969,346.082L531.935,348.156L532.119,348.663L531.952,351.097L530.901,351.195L529.933,351.783L527.614,353.711L527.397,353.89L525.028,356.896L524.511,358.448L524.594,359.199L522.959,360.195L522.342,359.983L522.091,359.983L520.923,360.506L520.857,362.809L520.807,363.168L522.158,363.054L524.961,363.936L524.944,367.855L525.729,368.884L523.893,372.216L520.89,371.644L519.539,372.901L519.655,374.126L516.719,375.808L516.402,376.673L514.366,377.343L514.216,377.669L513.799,380.053L512.147,381.751L512.481,383.368L511.947,384.739L513.615,386.878L515.801,387.825L517.153,387.645L520.423,388.608L520.473,391.171L519.555,393.522L519.539,394.028L518.054,396.084L518.671,397.39L520.957,399.3L521.474,399.675L522.141,400.018L522.058,400.736L521.824,402.058L522.859,402.45L523.526,405.224L521.874,407.003L521.491,408.358L518.721,409.794L519.205,414.2L519.255,414.559L518.604,415.538L518.287,415.684L516.952,416.533L516.702,417.055L517.503,418.458L519.305,423.761L519.622,424.332L520.189,426.436L518.387,428.867L516.552,429.405L515.401,431.428L515.401,431.787L516.619,433.532L517.319,433.94L517.436,433.956L517.837,434.07L518.104,434.739L518.22,435.995L518.387,436.615L517.853,438.197L517.787,438.295L517.97,440.04L519.889,441.867L517.52,444.541L516.886,446.303L521.107,451.162L522.125,451.847L522.508,452.532L524.994,454.44L525.245,455.092L525.512,455.418L524.244,455.711L523.526,455.271L522.875,455.418L520.139,454.44L516.869,454.032L516.519,453.608L514.45,452.467L513.565,452.727L512.064,454.978L512.08,455.173L513.832,457.456L513.932,459.412L512.881,460.162L512.848,462.804L512.164,466.113L512.564,466.439L512.748,467.825L513.132,468.607L513.982,470.449L513.732,472.682L511.38,477.393L511.947,477.735L512.714,478.093L514.533,479.707L514.867,480.62L516.268,483.162L516.502,485.052L516.585,485.329L518.004,490.528L517.203,491.799L516.735,491.896L515.618,493.265L513.716,494.161L509.795,491.766L508.059,490.071L507.893,490.055L506.057,490.854L504.005,489.24L504.055,488.849L501.335,487.692L501.118,486.812L498.132,486.845L497.915,486.715L495.446,487.79L495.129,487.611L492.476,486.438L492.109,486.405L491.892,485.965L491.591,485.721L489.723,487.66L489.389,487.171L485.635,485.492L485.535,485.313L485.285,482.347L484,483.227L484.05,484.661L482.882,485.052L482.081,482.184L481.197,483.374L478.978,488.067L476.892,487.464L475.44,486.16L475.123,485.558L472.487,484.873L471.052,487.138L470.852,490.316L470.051,492.532L468.199,494.536L467.832,494.927L466.097,495.807L465.88,495.921L464.962,499.359L463.878,500.059L463.861,500.711L463.878,502.307L462.71,504.702L462.343,504.849L458.622,505.419L457.654,506.136L457.02,506.347L456.003,508.547L455.986,508.97L455.852,509.882L453.784,512.114L453.667,514.133L453.183,514.264L452.682,514.296L450.23,515.322L449.646,515.469L448.294,517.814L442.638,518.189L440.936,518.743L439.435,520.697L437.216,521.462L433.778,521.186L432.477,522.114L432.31,522.391L431.626,523.938L430.425,524.475L429.607,523.172L429.991,521.674L428.573,521.039L427.305,521.511L424.318,521.397L423.717,521.462L423.517,521.365L422.917,520.925L420.08,522.635L416.626,526.478L416.793,529.767L416.593,529.946L415.008,531.868L411.788,532.649L412.005,534.961L411.921,535.206L411.254,536.655L410.97,537.062L408.968,538.543L408.785,538.559L407.116,538.657L404.78,541.408L405.448,541.669L404.146,543.818L404.196,546.39L404.263,546.927L404.48,548.115L404.447,548.278L407.083,551.387L407.35,556.009L407.45,556.384L408.601,557.604L409.268,557.734L410.82,556.97L413.44,558.792L413.223,559.899L413.223,560.534L413.089,561.526L409.469,559.801L407.216,559.508L404.864,560.778L405.164,561.591L406.766,563.788L407.066,565.334L406.215,568.686L405.147,569.5L404.363,569.467L398.624,568.426L397.873,567.417L397.506,564.944L398.473,564L397.572,561.884L395.804,561.966L395.67,561.722L395.236,561.738L394.552,561.722L391.549,560.534L389.914,559.199L389.714,560.534L391.516,564.13L388.429,568.458L388.312,570.118L386.026,572.721L386.777,574.235L385.86,575.373L386.56,580.173L387.428,581.848L389.297,580.531L392.951,580.84L394.469,583.687L394.686,583.931L395.203,583.865L395.954,583.735L398.357,585.817L398.907,587.168L398.19,588.225L398.04,588.973L395.871,590.551L395.67,590.518L394.669,591.039L393.585,594.113L394.686,598.341L394.302,598.488L393.752,600L389.897,599.008L389.38,598.634L387.895,597.609L387.144,595.755L387.712,593.592L387.895,592.551L387.862,588.664L386.31,589.298L385.609,590.827L385.593,590.86L383.173,588.55L382.79,587.07L382.523,585.492L382.589,584.972L384.191,581.377L382.623,580.026L382.189,577.309L379.753,575.683L375.765,575.536L374.28,576.463L370.91,575.032L369.141,573.616L368.224,573.144L364.787,571.452L363.252,569.858L359.097,569.305L356.277,571.566L355.894,574.95L355.059,576.219L354.058,576.333L350.488,576.968L348.619,578.09L346.6,578.497L346.2,578.774L344.148,580.579L341.628,580.986L340.627,580.303L337.674,579.376L336.239,579.457L335.204,581.572L333.736,581.409L330.8,583.085L328.581,580.254L326.762,581.409L324.676,579.457L323.442,579.929L321.69,576.854L320.205,577.228L319.804,576.594L317.702,575.064L317.302,573.828L313.698,571.355L312.847,571.989L310.628,571.485L308.142,571.794L307.274,571.582L305.939,570.704L303.22,571.127L295.978,571.322L292.892,571.078L292.041,572.038L291.857,572.298L290.839,574.039L289.304,574.674L286.435,574.202L285.15,573.226L281.062,573.893L279.577,575.064L280.678,577.684L280.445,580.563L279.477,582.044L277.759,582.808L277.074,585.346L274.638,586.013L273.103,588.078L272.803,588.436L271.168,588.095L270.284,588.404L268.632,587.981L266.113,588.404L265.195,589.689L263.309,590.014L262.625,590.892L258.938,590.844L256.669,591.575L256.736,589.933L257.153,589.363L259.539,586.924L259.622,585.085L261.257,584.337L261.14,581.653L259.389,578.074L259.138,576.87L259.305,574.804L257.486,573.86L257.003,573.909L255.601,574.202L255.267,574.218L249.962,573.714L249.177,572.819L247.626,571.827L248.009,569.923L247.008,568.1L247.125,567.954L252.514,565.155L253.048,561.168L253.148,560.827L253.732,557.897L254.617,557.083L253.899,554.17L253.282,553.698L252.314,553.047L252.297,552.022L252.831,550.736L253.048,549.613L256.068,549.613L257.019,544.86L255.284,542.125L255.534,540.236L256.736,538.136L259.255,539.113L260.707,541.05L263.693,541.701L266.98,540.741L266.179,535.238L267.781,533.773L268.682,529.832L268.465,526.25L267.214,523.938L268.065,520.029L266.496,514.704L263.61,514.541L262.609,510.175L260.106,508.709L260.573,503.953L258.855,502.405L256.802,502.731L254.166,502.275L253.515,502.161L251.613,499.913L245.39,500.923L245.04,501.102L243.588,500.108L242.47,496.035L244.005,494.275L244.539,493.428L244.239,490.674L246.808,488.149L246.842,487.969L246.558,486.894L246.358,486.6L245.957,486.193L245.34,485.166L244.172,482.966L244.272,480.652L242.537,478.485L240.118,477.898L239.951,477.36L238.916,476.545L236.597,472.291L236.53,471.183L233.677,470.563L228.989,470.808L228.839,470.612L227.837,468.656L227.52,467.873L227.254,467.58L226.503,467.466L224.317,467.352L221.28,466.145L220.863,464.352L219.195,464.532L217.726,462.755L217.276,462.217L216.125,461.939L214.623,459.853L214.69,458.662L216.559,455.548L217.576,455.173L218.31,454.847L220.046,453.608L220.162,450.412L219.028,445.585L218.361,445.357L218.694,443.661L221.748,442.34L222.098,442.552L224.801,441.508L224.067,439.192L224.083,438.654L226.553,437.496L228.071,435.963L228.321,435.734L234.612,434.119L234.778,434.07L235.629,433.255L235.963,430.906L236.147,430.58L237.398,425.408L238.382,423.549L238.766,422.945L239.433,416.892L239.817,416.68L240.918,413.286L241.819,412.29L243.588,412.258L244.906,410.985L247.642,409.467L248.477,409.304L249.494,408.635L249.595,408.554L251.163,407.982L253.232,408.129L256.052,407.607L258.838,405.877L258.888,405.273L259.355,403.152L258.07,400.981L258.087,399.398L259.522,398.647L262.375,393.962L264.444,393.652L267.23,392.412L267.581,391.057L269.566,389.865L271.251,385L269.216,384.478L268.298,383.172L267.547,382.404L265.362,380.07L266.046,377.343L265.545,375.971L269.116,372.95L269.216,370.044L271.669,368.427L272.853,366.614L275.189,368.068L276.724,368.378L278.76,367.137L280.311,367.055L283.465,363.233L286.034,363.217L287.169,363.952L288.771,363.723L292.942,365.7L294.243,367.708L297.463,367.855L299.999,371.415L301.534,370.893L305.072,373.62L306.023,373.163L308.075,369.554L310.311,369.211L313.281,366.092L315.516,365.487L315.516,363.56L316.968,360.571L316.918,360.261L316.784,359.297L316.884,358.676L316.868,358.415L316.618,357.272L316.067,355.965L313.865,354.217L313.464,352.388L313.414,351.963L313.531,351.424L313.331,350.754L312.53,349.202L312.446,348.647L311.579,346.523L311.896,345.395L311.195,343.468L311.162,339.693L310.661,337.798L305.188,334.383L305.439,332.422L302.819,332.438L301.384,330.085L296.662,328.075L295.895,329.104L295.044,332.34L294.727,332.536L293.893,332.961L292.992,333.01L291.49,333.337L289.822,332.177L290.205,331.245L288.454,330.444L288.12,329.104L288.136,328.843L286.768,326.865L286.551,326.849L286.418,326.113L286.652,322.812L287.486,321.472L286.852,319.674L286.868,318.791L285.784,317.99L285.584,316.257L283.932,315.146L283.949,310.144L284.082,309.588L282.881,307.675L282.864,307.364L282.981,307.021L284.132,304.078L283.748,302.803L283.548,302.132L284.065,299.058L283.615,297.194L280.278,296.115L279.427,296.426L278.693,292.566L278.726,291.83L279.177,289.672L280.061,289.23L279.46,287.529L280.478,285.861L279.694,284.929L280.812,283.424L280.328,281.33L281.146,277.879L277.024,270.861L276.173,266.411L275.923,265.445L274.638,262.206L274.488,259.8L276.424,259.391L278.109,257.018L279.193,254.285L280.845,252.42L281.045,251.618L282.43,250.783L287.619,249.228L288.187,247.395L287.87,245.235L289.805,243.827L289.755,242.583L289.354,242.01L288.554,239.866L287.803,239.899L286.301,240.684L284.316,239.964L283.131,238.131L282.981,237.279L282.631,234.48L281.563,233.825L283.982,231.419L285.834,232.024L286.735,230.502L289.788,226.949L290.739,223.674L290.472,223.101L290.94,220.645L293.626,217.108L293.576,214.831L292.758,214.045L292.608,213.816L291.29,212.358L291.674,211.687L291.04,209.116L291.323,207.232L291.156,206.577L291.156,206.397L291.223,206.233L291.407,202.351L291.373,202.138L291.807,199.287L291.106,198.403L291.09,198.075L290.656,196.601L292.591,194.406L291.874,192.816L291.724,192.39L290.172,190.424L290.005,189.949L289.455,188.098L290.022,186.787L289.088,184.05L286.268,181.986L288.303,179.38L288.62,177.496L288.32,173.611L288.587,171.858L287.769,169.334L288.353,167.072L284.616,163.728L283.415,163.515L283.098,163.744L281.463,164.023L281.262,164.056L280.044,162.925L280.278,160.711L279.093,158.564L279.327,157.023L279.327,156.875L278.993,155.088L277.391,156.515L275.89,156.711L274.071,154.859L275.306,153.219L275.756,153.022L276.991,151.629L277.358,148.694L276.274,148.661L277.759,147.005L278.076,144.25L277.608,143.102L278.693,142.118L279.377,141.626L279.911,141.216L280.395,140.823L281.679,139.609L286.385,136.854L285.233,135.329L285.233,132.787L285.467,132.114L287.119,131.917L290.472,129.851L290.94,128.424L290.339,127.144L288.42,125.422L289.555,124.306L287.236,118.532L287.686,117.613L285.65,116.153L279.878,117.236L279.344,117.186L278.977,116.891L278.109,116.809L277.942,116.809L277.442,116.53L276.774,116.432L276.541,116.382L275.106,115.907L274.889,114.168L274.822,114.003L273.954,113.364L274.422,111.985L277.308,110.984L277.508,110.919L277.809,110.148L277.825,109.77L278.059,109.475L278.276,109.015L278.359,108.95L278.71,108.835L278.142,107.637L278.292,107.013L279.06,104.454L278.66,103.387L279.811,102.008L280.979,99.218L281.095,96.822L280.495,95.361L280.745,95.197L280.678,92.194L281.529,90.24L281.629,90.191L282.113,89.863L281.896,84.052L283.248,82.903L285.25,78.618L284.683,77.189L285.2,74.792L286.735,72.263L286.919,71.722L288.153,70.063L288.37,68.897L289.304,67.699L289.138,64.168L287.853,61.31L286.301,59.619L286.234,58.617L286.268,58.042L286.818,54.215L286.251,52.096L286.385,51.767L288.787,49.238L289.104,48.893L289.838,47.414L291.941,45.804L292.525,45.854L294.043,45.755L295.661,43.554L299.065,40.514L299.215,40.136L301.217,39.167L301.484,39.036L302.969,37.623L302.219,36.768L301.051,33.564L301.001,33.088L300.767,29.801L299.449,27.254L299.182,25.085L299.048,24.74L299.032,24.608L299.048,24.444L300.233,22.915L299.582,20.828L301.851,19.973L302.219,20.236L304.438,21.288L305.038,19.119L306.039,18.445L306.223,16.62L305.606,14.829L305.522,14.615L305.355,8.22L306.106,6.346L304.287,5.804L306.006,2.548L305.923,0.756L307.174,0L308.959,0.839L311.095,3.683L311.262,3.962L312.129,4.521L315.032,3.568L315.166,3.453L316.134,2.17L316.751,4.275L317.118,7.941L317.085,8.155L317.135,8.598L316.968,8.796L317.285,10.522L317.452,10.752L318.586,17.294L320.438,17.015L320.438,19.135L320.522,19.53L320.305,20.499L321.823,21.617L326.095,22.8L326.311,24.904L331.4,30.015L331.133,30.327L330.666,30.639L330.449,31.099L330.483,32.102L330.166,34.369L333.553,36.095L337.323,36.341L337.607,36.39L338.274,36.489L338.508,36.653L340.31,36.932L340.143,37.097L341.178,37.409L341.445,37.475L342.062,37.902L342.512,38.066L343.297,37.984L343.664,38.099L349.854,36.9L351.856,37.803L352.24,39.693L353.891,38.115L356.461,38.888L357.612,41.401L357.812,41.467L359.231,41.615L359.364,41.664L361.116,41.878L360.816,43.439L359.714,43.537L359.998,43.702L361.633,43.324L364.253,45.016L364.87,45.427L366.789,45.229L368.791,44.244L369.358,45.098L370.777,44.26L375.432,45.459L377.217,47.168L377.584,47.266L381.021,47.809L381.104,49.254L381.255,49.205L385.226,48.942L385.609,48.893L385.759,48.728L386.56,48.515L387.028,48.679L388.496,49.09L390.081,46.806L390.431,46.642L392.15,46.034L392.784,45.706L393.418,45.689L393.601,45.624L393.685,45.542L393.968,45.114L395.387,44.096L396.137,45.098L396.371,45.164L398.04,44.014L400.375,44.375L400.726,44.687L402.428,46.33L402.928,47.743L402.995,47.562L404.046,41.336L404.48,40.596L405.314,38.033L405.331,37.705L406.499,36.768L406.582,34.041L407.333,32.627L409.068,32.545L409.385,32.25L409.869,29.867L409.886,29.571L411.104,29.078L412.772,26.12L414.524,24.509L415.425,22.718L415.509,20.927L416.893,18.067L418.645,18.297L419.163,18.527L419.863,17.524L420.18,17.294L420.247,17.196L420.414,16.883L420.681,16.587L421.181,15.568L423.768,16.012L423.451,16.538L423.083,16.982L423.667,19.414L423.551,19.612L420.631,23.967L421.699,26.564L422.066,26.827L422.199,26.662L422.449,26.777L425.653,28.569L427.855,26.876L430.809,28.569L430.975,28.667L431.376,28.503L431.443,28.076L431.459,27.385L431.559,27.09L432.277,25.808L432.51,25.791L434.146,24.099L434.396,24.099L434.946,24.214L435.03,24.181L435.731,22.899L437.549,21.6L439.201,23.852L439.718,26.86L440.786,26.679L441.02,26.695L441.52,27.024L441.654,26.975L442.238,26.465L442.421,26.301L443.889,25.265L444.04,25.364L445.675,26.679L446.175,26.449L446.259,26.35L446.342,26.087L446.843,25.676L449.412,26.679L449.679,28.371L449.929,28.684L451.781,29.193L453.116,30.639L452.616,32.217L453.75,34.353L453.95,34.928L454.384,38.707L454.317,38.97L453.9,40.432L454.551,43.242L455.535,43.455L455.736,43.455L457.921,43.734L457.621,45.229L461.025,44.326L461.642,44.704L461.859,44.638L464.746,41.845L466.948,42.305L468.75,43.997L469.3,45.542L469.3,45.936L469.184,48.006L472.287,47.546L475.257,48.86L477.059,49.156L477.393,49.024L477.109,47.398L476.976,46.905L477.343,45.886L477.192,45.657L477.676,44.194L479.011,43.274L479.445,43.044L480.096,41.599L483.132,40.021L483.399,37.557L484.3,34.879L484.3,34.698L484.167,32.118L484.35,31.559L485.034,29.571L488.788,27.944L491.742,27.961L492.859,29.012L495.095,32.907L495.529,33.12L495.829,35.897L498.532,37.623L498.682,39.298L498.783,39.611L498.099,41.681L500.117,43.587L496.564,47.743L496.43,47.792L491.041,49.139L491.408,51.258L492.259,50.93L493.343,52.211L493.443,52.704L496.23,54.018L499.083,54.593L499.567,54.56L502.32,54.823L502.987,57.106L503.054,57.615L503.521,59.077L503.638,59.241L504.539,60.801L504.689,63.396L504.722,63.626L505.557,64.546L506.124,64.792L506.141,66.927L506.491,66.943L507.525,67.518L507.559,67.863L507.726,67.912L507.876,68.043L507.943,68.421L508.043,68.667L507.926,69.883L507.575,70.227L506.107,72.822L506.358,73.823L506.624,74.185L506.725,74.349L505.974,75.925L504.522,76.401L503.755,77.633L503.721,80.112L499.85,80.768L497.548,83.723L496.931,84.167L494.745,83.871L492.309,82.246L486.419,79.521L485.835,79.324L483.916,76.861L483.182,78.585L484.033,79.98L489.506,84.479L491.892,84.183L492.209,84.167L493.21,84.002L494.695,85.316L496.08,85.381L496.18,85.152L496.697,84.758L496.864,85.02L497.248,86.859L498.282,88.09L498.399,88.517L499.65,91.652L500.034,91.8L500.301,94.262L501.302,94.803L501.319,96.543L500.952,96.871L501.068,97.987L500.902,98.217L499.884,99.366L499.583,99.465L498.916,101.056L499.517,102.337L498.933,103.928L495.696,105.29L495.412,107.457L493.41,109.262Z"
          fill="#e0e0e0"
          stroke="#333333"
          stroke-width="1"
          stroke-linejoin="round"/>
  </g>
</svg>