<?xml version="1.0" encoding="UTF-8"?>
<svg xmlns="http://www.w3.org/2000/svg"
     viewBox="113.96324674072093 -20 572.0735065185581 640"
     width="572.0735065185581"
     height="640">
  <title>和歌山県</title>
  <desc>都道府県コード: 30</desc>
  <g id="30">
    <path d="M230.865,147.088L229.578,148.235L227.233,147.391L227.608,145.511L230.214,145.081L231.24,145.782ZM227.526,142.994L229.285,143.042L230.018,145.033L228.243,145.368ZM226.142,144.38L227.494,145.511L227.119,147.359L225.685,145.989ZM145.333,57.974L146.766,58.086L145.251,59.06L145.072,62.474L144.03,63.049L142.743,66.352L140.576,66.751L140.479,68.585L139.241,68.857L138.312,67.899L136.097,67.564L135.608,66.607L133.963,66.479L134.892,64.485L136.244,63.352L138.606,64.054L141.228,63.735L144.225,58.788ZM148.656,57.607L148.363,59.283L146.913,58.07ZM163.446,54.097L165.857,54.879L162.192,56.267L161.556,57.208L157.501,58.661L151.571,56.299L154.047,54.48L158.885,55.086L160.384,54.24ZM307.748,42.972L307.732,41.376L307.732,41.072L306.51,38.327L308.53,37.305L309.752,37.353L312.326,34.894L312.212,32.228L311.886,31.717L311.495,31.414L311.527,31.334L313.938,31.286L316.039,34.208L320.942,32.356L322.734,32.595L324.705,35.166L325.096,34.671L327.588,33.793L329.233,34.431L331.4,33.873L333.941,35.517L335.195,34.894L337.329,35.086L337.997,33.09L338.925,32.883L339.609,32.627L341.352,34.016L342.9,34.192L343.551,33.106L347.102,32.085L347.803,31.047L347.965,28.811L348.812,27.279L348.959,27.007L351.793,27.614L351.956,27.853L355.393,28.285L355.621,28.332L358.39,27.47L359.302,24.644L362.853,22.664L365.28,23.191L365.639,23.191L367.414,23.287L369.304,22.185L371.177,22.329L371.438,22.393L372.122,21.913L372.545,22.025L374.467,23.526L377.562,22.935L379.044,23.287L379.191,22.904L381.928,20.205L385.039,19.566L384.778,18.384L385.918,16.612L389.046,13.673L390.658,17.602L391.277,18.257L391.424,18.432L395.561,20.364L396.083,21.61L397.63,21.69L398.607,23.814L397.939,24.724L399.129,26.959L398.233,29.817L398.493,30.153L398.624,30.424L399.063,30.568L401.458,30.185L403.022,29.243L407.012,25.331L407.126,24.931L407.973,24.692L408.153,24.309L410.905,21.083L413.235,21.147L414.994,20.333L416.786,17.73L418.463,16.979L419.506,17.666L421.819,17.57L423.773,15.685L425.272,15.829L426.396,14.823L429.67,9.904L430.436,9.233L431.706,8.067L433.254,8.514L436.365,6.645L437.163,5.272L439.932,4.728L442.196,5.751L445.307,6.054L446.529,5.703L447.034,3.259L447.946,2.508L449.754,2.684L451.562,4.505L453.24,4.265L456.563,4.792L457.263,3.994L459.088,0.256L459.397,0L462.492,0.815L462.801,0.399L463.486,0.351L468.226,1.821L469.594,1.39L469.659,1.102L472.135,0.288L475.979,0.719L476.126,3.067L477.38,6.23L477.624,7.172L478.455,11.517L482.478,18.368L481.68,21.738L482.153,23.782L481.061,25.251L481.827,26.161L480.833,27.79L481.42,29.45L480.556,29.881L480.116,31.989L480.084,32.707L480.801,36.475L481.631,36.172L484.889,37.225L485.329,39.045L484.824,42.046L485.019,42.701L485.394,43.946L484.27,46.819L484.156,47.154L484.172,47.457L485.345,49.325L485.215,49.867L485.199,54.751L486.811,55.836L487.007,57.528L488.065,58.31L488.049,59.171L488.668,60.927L487.854,62.235L487.626,65.458L487.756,66.176L487.968,66.192L489.303,68.123L489.287,68.378L489.613,69.686L491.323,70.468L490.948,71.377L492.577,72.51L494.043,72.191L494.923,72.143L495.737,71.728L496.047,71.537L496.878,68.378L497.627,67.373L502.237,69.335L503.637,71.633L506.195,71.617L505.95,73.531L511.293,76.865L511.782,78.716L511.814,82.4L512.499,84.282L512.189,85.383L513.036,87.456L513.118,87.999L513.899,89.514L514.095,90.168L513.981,90.694L514.03,91.109L514.421,92.895L516.571,94.601L517.108,95.877L517.353,96.993L517.369,97.248L517.271,97.854L517.401,98.795L517.45,99.098L516.033,102.016L516.033,103.897L513.851,104.487L510.951,107.532L508.768,107.867L506.765,111.39L505.836,111.837L502.383,109.175L500.885,109.685L498.409,106.209L495.265,106.066L493.994,104.105L489.922,102.175L488.359,102.398L487.251,101.681L484.742,101.697L481.664,105.428L480.149,105.508L478.162,106.719L476.663,106.416L474.383,104.997L473.226,106.767L470.832,108.345L470.734,111.183L467.248,114.132L467.737,115.471L467.069,118.133L469.203,120.413L469.936,121.162L470.832,122.437L472.819,122.947L471.174,127.697L469.236,128.86L468.893,130.183L466.173,131.394L464.153,131.697L461.368,136.27L459.967,137.003L459.951,138.549L461.205,140.668L460.749,142.739L460.7,143.328L457.98,145.017L455.227,145.527L453.207,145.384L451.676,145.941L451.578,146.021L450.585,146.674L449.77,146.833L447.099,148.315L445.812,149.558L444.086,149.59L443.206,150.561L442.131,153.875L441.756,154.082L441.105,159.991L440.73,160.58L439.769,162.396L438.547,167.445L438.368,167.763L438.042,170.056L437.212,170.853L437.049,170.9L430.908,172.477L430.664,172.7L429.181,174.196L426.771,175.327L426.754,175.852L427.471,178.113L424.832,179.132L424.49,178.925L421.509,180.215L421.184,181.871L421.835,182.094L422.943,186.806L422.829,189.926L421.135,191.136L420.418,191.454L419.424,191.821L417.6,194.861L417.535,196.023L419.001,198.06L420.125,198.331L420.565,198.856L421.998,200.591L423.627,200.416L424.034,202.166L426.999,203.344L429.133,203.455L429.866,203.567L430.126,203.853L430.436,204.617L431.413,206.527L431.56,206.718L436.137,206.479L438.922,207.084L438.987,208.166L441.251,212.319L442.261,213.115L442.424,213.64L444.786,214.212L446.48,216.329L446.382,218.588L447.523,220.736L448.125,221.738L448.516,222.136L448.712,222.422L448.989,223.472L448.956,223.647L446.448,226.113L446.741,228.801L446.219,229.628L444.721,231.346L445.812,235.323L447.229,236.293L447.571,236.118L453.647,235.132L455.504,237.327L456.139,237.438L458.713,237.883L460.716,237.565L462.394,239.076L461.938,243.72L464.381,245.151L465.359,249.413L468.177,249.572L469.708,254.771L468.877,258.587L470.099,260.844L470.311,264.341L469.431,268.188L467.867,269.619L468.649,274.991L465.44,275.929L462.525,275.293L461.107,273.402L458.648,272.448L457.475,274.498L457.231,276.342L458.925,279.012L457.996,283.652L455.048,283.652L454.836,284.749L454.315,286.004L454.331,287.005L455.276,287.641L455.879,288.101L456.579,290.946L455.716,291.74L455.146,294.6L455.048,294.933L454.527,298.826L449.265,301.558L449.151,301.701L450.129,303.48L449.754,305.339L451.269,306.308L452.035,307.181L457.214,307.674L457.54,307.658L458.908,307.372L459.381,307.324L461.156,308.246L460.993,310.263L461.238,311.438L462.948,314.932L463.062,317.552L461.466,318.283L461.384,320.077L459.055,322.459L458.648,323.015L458.583,324.619L460.798,323.904L464.398,323.952L465.066,323.095L466.906,322.777L467.802,321.522L470.262,321.11L471.874,321.522L472.738,321.221L474.334,321.554L474.627,321.205L476.126,319.188L478.504,318.537L479.172,316.06L480.849,315.313L481.794,313.868L482.022,311.057L480.947,308.5L482.397,307.356L486.388,306.705L487.642,307.658L490.444,308.118L491.942,307.499L492.936,305.799L493.115,305.545L493.946,304.608L496.959,304.846L504.028,304.656L506.683,304.243L507.987,305.1L508.834,305.307L511.261,305.005L513.427,305.498L514.258,304.878L517.776,307.292L518.167,308.5L520.219,309.993L520.61,310.612L522.06,310.247L523.77,313.249L524.976,312.788L527.012,314.694L528.787,313.566L530.954,316.33L533.821,314.694L535.254,314.853L536.264,312.788L537.665,312.709L540.548,313.614L541.525,314.281L543.985,313.884L545.988,312.121L546.379,311.851L548.35,311.454L550.175,310.358L553.66,309.739L554.638,309.627L555.452,308.388L555.827,305.085L558.58,302.877L562.635,303.417L564.134,304.973L567.49,306.625L568.385,307.086L570.112,308.468L573.402,309.866L574.852,308.96L578.745,309.103L581.123,310.692L581.547,313.344L583.078,314.662L581.514,318.172L581.449,318.68L581.71,320.22L582.084,321.665L584.446,323.92L584.381,324.27L584.967,326.874L583.941,329.097L582.003,330.78L581.97,332.97L582.785,335.098L584.56,336.527L585.814,338.844L585.7,340.13L584.186,342.733L583.273,347.543L584.967,351.479L584.691,352.987L584.006,354.859L583.453,357.938L584.511,359.89L587.134,362.984L587.851,363.508L591.923,364.444L596.239,368.252L597.347,369.124L600.898,368.553L602.543,369.902L603.748,371.584L605.589,376.375L604.823,378.151L604.954,378.643L607.25,382.228L607.69,383.132L609.498,390.015L611.323,391.221L613.782,390.777L615.395,391.189L616.633,392.791L617.268,396.153L619.206,397.77L620.77,398.785L622.513,399.181L624.777,397.12L626.911,397.723L626.732,401.005L627.465,408.869L628.442,411.168L630.153,412.721L633.427,414.592L635.984,415.559L639.844,417.873L643.64,418.491L646.441,418.65L646.946,417.588L646.164,415.068L644.128,413.197L644.796,410.851L648.95,410.01L651.882,411.009L654.635,412.388L657.485,413.974L663.219,416.161L665.206,418.507L664.44,419.252L657.99,427.684L654.96,432.661L655.384,434.53L654.276,437.605L652.028,439.918L652.664,442.342L654.439,442.247L654.374,444.196L653.429,445.891L653.006,445.02L654.325,444.18L654.162,443.055L649.813,444.164L650.106,445.02L647.94,445.859L646.49,450.058L644.177,450.47L645.399,453.907L645.317,456.236L646.653,456.299L646.278,457.931L646.914,458.96L648.657,459.277L649.781,457.978L651.002,458.089L652.012,456.093L652.908,456.362L653.087,458.168L651.572,459.419L651.719,461.447L647.663,464.836L647.875,461.273L645.888,460.465L644.438,460.766L643.558,461.874L642.337,461.494L643.737,463.427L639.323,461.89L637.645,462.207L636.749,463.173L636.896,464.725L634.518,464.741L630.886,465.612L628.768,467.402L626.993,467.639L625.787,469.999L626.325,473.198L628.084,474.845L632.84,474.94L634.469,476.396L634.078,479.341L634.697,482.366L633.801,484.55L632.97,482.619L633.117,480.307L632.303,477.726L631.358,478.882L630.071,478.629L628.377,481.241L629.175,482.508L628.393,483.695L630.153,484.091L627.563,486.862L626.927,484.93L625.412,485.31L626.699,486.134L626.488,487.637L625.217,486.656L623.588,488.35L624.223,489.126L619.663,490.74L619.891,492.022L621.992,493.447L620.786,493.922L622.513,495.267L621.715,496.011L623.702,496.581L622.415,498.401L624.549,500.269L625.803,498.765L625.429,497.167L629.99,493.526L631.716,493.59L630.69,497.99L631.814,499.43L632.026,501.076L630.429,500.997L630.364,502.026L632.384,502.754L635.854,501.456L638.541,499.288L638.786,501.472L637.922,502.247L637.434,505.429L636.815,506.473L637.906,507.233L634.909,510.049L633.036,510.129L632.123,509.179L629.191,509.227L627.416,509.923L626.895,512.043L624.5,512.993L622.627,511.11L620.998,510.54L618.506,511.3L617.512,512.993L617.659,515.54L614.808,514.385L612.202,515.809L611.567,517.075L609.433,518.119L609.531,519.717L606.99,519.353L604.156,521.394L604.156,522.771L602.967,522.154L602.234,524.021L607.544,522.597L608.896,521.11L611.209,520.176L614.352,520.255L616.16,519.433L618.376,519.97L619.158,521.03L616.193,521.79L614.369,523.404L615.085,525.966L612.789,526.125L613.066,527.691L609.743,528.403L609.563,529.383L607.625,530.665L605.931,530.253L603.341,532.468L603.113,534.334L600.295,534.034L599.904,536.122L596.712,537.182L597.086,538.067L595.164,541.167L593.78,540.218L594.431,539.111L593.079,537.941L591.678,538.083L589.919,540.171L588.926,540.044L587.704,542.274L586.368,541.863L584.984,542.543L584.886,543.713L582.638,545.437L581.645,545.232L582.768,547.208L580.309,547.762L580.244,546.481L578.81,546.085L577.035,548.141L575.927,548.568L576.807,550.482L576.4,551.414L574.982,550.829L573.94,551.873L571.04,550.513L570.161,551.367L567.31,549.976L564.395,552.253L563.613,554.751L561.398,556.126L559.818,558.134L559.329,557.486L556.609,557.66L555.045,559.589L553.888,559.083L552.52,561.138L552.357,563.209L551.624,563.731L551.689,566.055L551.005,567.936L549.572,568.363L548.595,569.611L548.709,571.35L546.689,574.164L545.76,577.404L544.783,577.973L544.213,582.208L546.705,582.825L546.689,584.041L548.611,585.4L551.298,583.646L551.657,582.761L552.764,583.852L551.152,583.82L548.448,585.622L550.321,589.161L552.194,590.441L550.712,591.01L552.39,592.132L553.009,593.475L552.097,593.823L550.631,592.005L549.018,592.1L550.272,594.154L548.888,593.222L548.024,593.759L548.35,595.387L547.047,597.441L546.591,596.287L545.223,596.208L543.626,593.68L542.16,592.78L540.678,593.017L538.121,592.527L536.655,595.497L536.753,597.03L535.531,599.779L532.827,600L530.612,598.657L529.814,599.115L529.243,597.788L530.579,597.077L530.954,594.265L530.058,593.033L528.054,591.784L528.266,589.92L529.26,589.951L533.544,587.265L535.596,586.759L537.486,585.495L541.265,583.773L541.753,581.829L540.776,579.996L540.58,577.262L539.717,576.645L539.212,574.701L540.727,574.796L540.923,572.915L538.886,572.346L537.632,573.816L537.648,575.586L535.808,576.218L535.401,575.017L536.329,574.116L537.144,571.682L536.606,570.592L533.381,570.576L533.136,569.216L530.156,569.975L528.787,571.54L526.149,570.196L525.106,571.572L523.51,572.393L522.418,573.848L521.457,573.389L520.904,569.659L521.816,568.647L520.464,568.205L516.359,573.057L514.567,573.452L509.86,570.623L509.583,568.505L508.54,568.126L507.205,569.09L507.449,572.156L505.902,572.694L505.429,570.291L507.042,567.936L506.081,567.161L503.589,566.735L502.351,565.011L502.546,563.383L501.341,563.367L501.129,565.106L499.777,566.466L496.715,566.75L494.662,565.786L490.346,565.517L488.456,566.655L488,565.328L485.866,564.363L482.299,564.853L482.185,562.703L481.029,563.083L480.54,560.838L479.481,561.423L477.25,558.83L475.865,558.909L473.78,558.055L470.148,557.597L470.066,555.984L468.6,555.968L467.656,554.846L465.766,554.688L465.228,553.565L462.15,557.692L459.381,557.138L458.175,555.32L456.612,555.241L455.52,553.865L454.592,555.431L453.061,553.28L451.204,553.549L450.08,556.443L449.2,557.043L447.523,554.719L446.48,555.446L444.183,554.64L444.151,557.454L443.304,557.391L442.522,555.13L440.421,553.929L437.766,554.482L437.994,552L437,551.778L436.006,549.232L433.074,548.236L431.283,549.501L429.312,549.517L428.009,550.229L427.113,548.979L425.516,549.517L423.497,548.742L421.184,548.964L421.444,547.746L419.538,545.975L417.307,547.129L415.352,546.212L414.668,547.92L413.902,546.18L412.648,546.86L412.208,545.564L409.423,544.504L406.54,545.595L404.031,543.587L402.077,542.796L402.468,541.705L403.836,541.309L404.064,539.127L401.197,536.881L397.32,536.992L396.229,534.746L396.327,533.354L394.698,533.67L393.558,532.863L391.799,533.781L391.457,532.341L393.411,530.839L393.151,529.463L391.896,528.244L390.365,527.928L387.449,529.589L386.407,531.108L385.821,529.779L386.049,527.327L383.214,527.137L381.765,529.035L379.256,530.064L376.927,528.608L375.233,530.174L375.852,526.409L374.516,525.713L371.307,528.624L370.46,527.628L368.587,528.371L369.125,524.606L369.776,523.261L367.87,523.752L367.219,522.375L368.669,522.059L367.268,519.385L364.042,517.186L362.088,516.569L361.029,517.217L359.921,515.002L357.38,515.208L356.224,513.705L354.79,515.683L353.846,514.037L354.611,513.23L353.471,512.692L354.188,511.822L352.95,510.999L353.911,508.673L348.65,511.315L348.633,509.907L346.679,509.559L347.591,507.976L346.027,508.325L345.799,506.995L346.565,505.523L346.223,503.165L344.382,506.521L342.199,505.239L341.694,503.324L340.375,503.419L339.528,501.424L341.238,500.855L339.039,500.554L338.404,498.75L339.854,498.069L336.938,496.233L337.704,494.064L338.827,493.875L338.551,491.864L337.704,491.579L338.958,490.345L340.114,491.294L340.912,489.838L339.968,489.632L340.407,487.258L342.492,486.925L343.079,485.5L342.264,484.677L340.994,485.706L339.039,485.263L339.674,484.028L338.86,482.809L340.082,482.888L341.303,480.212L343.095,478.771L342.509,477.346L344.024,476.523L342.655,476.365L341.401,478.661L340.978,477.299L339.658,476.317L340.57,474.734L340.652,470.522L337.247,466.895L334.983,467.006L335.57,465.454L335.114,464.298L333.452,464.614L330.944,463.189L326.92,463.268L325.422,461.051L324.721,462.666L319.525,461.621L316.3,459.53L314.28,459.261L312.244,457.392L312.309,456.394L310.957,456.172L310.338,454.715L307.862,453.891L307.39,451.959L308.823,449.678L310.908,448.584L311.267,447.65L313.205,447.935L314.264,447.095L313.857,445.796L315.095,444.782L314.297,443.309L313.124,443.261L313.678,441.914L314.932,441.55L315.127,440.235L313.857,440.203L312.293,438.207L309.67,437.953L310.501,436.559L311.935,437.161L316.121,437.335L317.685,436.701L319.33,437.494L320.812,435.988L321.936,437.43L321.04,438.175L320.682,441.059L322.099,439.95L322.978,440.663L320.649,442.231L319.786,443.831L321.366,443.721L322.229,442.707L323.565,443.008L322.734,445.764L325.959,446.002L325.454,443.974L327.23,443.277L326.643,441.978L328.142,441.914L329.266,442.802L332.051,443.641L329.836,439.728L331.465,439.062L333.289,439.538L335.146,438.048L333.973,437.937L332.23,436.369L333.843,435.957L335.032,431.266L336.384,431.741L335.097,433.485L335.651,435.608L337.475,435.957L337.492,432.692L342.134,431.012L340.587,429.713L340.994,428.318L340.342,427.082L340.945,426.195L342.769,426.004L342.085,424.911L342.004,422.644L343.812,420.346L342.101,418.65L340.342,420.394L340.864,423.643L336.628,423.659L337.313,422.454L333.648,420.092L331.595,415.622L327.621,413.371L326.79,414.259L326.383,413.086L325.031,412.595L324.412,414.116L322.93,414.402L321.496,416.272L320.226,416.605L319.085,415.813L318.515,414.053L319.932,413.435L319.037,411.247L321.952,409.582L321.138,406.935L318.564,405.429L318.597,403.764L316.072,403.827L315.991,405.175L314.329,404.176L310.664,404.525L307.797,405.333L306.82,406.824L306.918,403.574L305.517,401.29L304.002,400.878L304.849,399.134L304.751,395.534L302.943,392.711L300.63,390.412L298.073,389.333L295.499,389.793L294.457,391.157L292.339,391.126L290.89,392.933L289.847,392.093L290.71,390.729L289.456,388.477L288.006,387.51L284.977,387.034L282.615,385.194L281.703,383.624L280.041,382.593L278.282,382.418L275.969,380.959L272.679,381.276L269.405,380.975L264.127,381.926L263.345,382.624L259.192,382.418L257.432,381.324L256.764,380.055L257.318,378.357L257.09,376.549L258.784,375.724L258.866,373.456L258.165,371.472L255.787,369.394L253.653,368.95L250.2,367.157L250.2,365.015L247.871,364.015L249.027,362.016L247.708,361.254L244.548,364.412L242.789,364.047L242.056,362.238L239.319,362.111L237.479,361.477L236.615,359.668L233.309,358.7L232.054,357.811L231.24,355.827L231.387,353.018L228.569,352.019L225.962,349.638L226.093,345.035L223.812,344.162L222.802,342.845L220.017,341.479L222.02,340.495L220.994,338.606L221.255,337.082L217.362,332.764L218.421,332.224L217.802,329.763L215.424,330.097L215.033,328.779L217.818,327.62L216.222,324.143L213.958,321.84L212.948,319.998L208.892,316.552L203.484,313.947L196.545,311.629L194.134,311.104L191.74,311.581L186.951,314.233L182.569,314.265L182.536,314.884L178.301,315.329L177.601,312.931L176.444,312.677L174.669,314.392L172.046,315.742L170.711,317.918L166.345,319.728L164.7,319.712L164.993,317.489L164.342,314.074L168.17,312.184L167.811,310.707L168.495,309.389L164.798,306.292L165.84,303.512L169.554,303.035L170.955,303.671L173.073,303.655L172.503,304.767L174.392,305.021L177.34,302.797L178.122,300.812L177.568,299.048L175.63,298.587L177.976,295.887L176.672,295.251L174.164,296.236L175.076,293.551L174.441,292.185L176.2,291.915L175.809,290.66L174.131,289.245L172.926,290.008L172.095,291.883L169.538,289.929L168.414,290.326L170.271,286.957L172.893,287.164L174.05,284.892L175.614,285.257L176.396,284.399L178.448,284.908L179.832,282.826L179.784,281.936L176.949,280.951L179.458,279.409L180.94,280.283L182.178,279.171L180.647,277.947L180.875,275.913L183.058,275.786L183.954,276.676L185.859,275.357L187.195,275.627L187.667,273.163L189.769,271.399L194.444,271.161L192.554,267.219L191.186,267.966L190.404,266.551L188.107,266.98L187.961,264.723L186.983,265.311L186.723,267.727L187.358,268.3L184.393,270.461L181.934,270.716L179.93,269.81L180.37,271.463L176.51,271.717L173.545,269.667L176.542,268.141L178.399,268.109L179.572,264.294L178.301,262.752L176.135,262.943L175.891,261.432L173.073,258.539L171.444,259.223L169.945,258.364L170.906,257.633L172.486,257.935L175.467,256.806L177.519,257.347L178.22,256.536L180.647,256.886L182.227,254.183L181.51,252.068L182.878,250.764L182.292,249.953L183.188,248.093L185.468,248.459L189.475,248.141L190.371,250.605L191.87,250.669L193.629,249.381L193.287,246.725L196.594,244.404L198.499,244.276L200.438,245.342L201.757,243.275L204.673,244.181L206.318,243.465L207.931,241.748L208.273,239.824L210.26,240.571L211.905,240.396L213.941,238.885L213.86,237.756L211.433,236.77L210.895,235.02L209.446,235.291L209.429,233.891L207.963,233.016L206.269,233.191L207.67,231.489L212.084,232.189L213.892,231.935L213.192,229.756L213.534,228.133L215.619,227.21L216.987,228.292L217.525,227.369L221.353,225.683L222.363,225.986L222.395,227.592L224.415,226.208L223.47,226.113L224.024,223.345L222.395,220.131L219.642,220.433L217.59,219.59L219.479,218.747L219.675,216.042L218.942,214.61L217.574,213.862L215.652,214.228L214.088,215.406L211.107,215.04L211.824,212.717L211.058,211.444L212.003,210.298L211.368,208.42L206.758,207.052L206.774,205.254L205.553,202.787L199.689,202.405L198.613,201.1L193.58,200.527L192.847,199.174L190.844,199.636L189.215,198.617L187.57,200.065L187.032,199.397L182.097,200.384L180.81,201.339L180.093,199.524L175.793,196.834L177.568,195.688L177.471,196.5L179.995,198.092L181.917,196.596L181.51,195.864L184.638,193.444L184.98,192.537L184.084,189.64L185.175,185.994L184.361,185.962L185.371,184.355L186.283,184.275L186.315,185.994L187.488,186.313L188.352,183.017L191.023,181.521L193.287,176.649L193.841,174.419L193.108,171.856L194.378,168.305L196.708,167.938L198.695,169.276L198.89,170.98L202.686,171.426L205.943,172.318L206.351,174.133L207.263,173.91L207.621,171.776L209.625,174.308L210.358,173.082L209.983,170.343L206.97,168.416L204.461,168.464L203.174,166.298L204.982,163.909L204.249,160.389L202.93,159.227L203.288,160.58L201.138,162.699L198.956,162.014L198.581,160.628L200.047,159.577L199.737,157.873L201.464,156.742L203.744,156.184L207.963,155.866L209.25,156.28L216.026,155.738L217.378,157.554L219.561,157.905L220.945,156.933L222.102,157.411L221.923,158.669L224.04,159.02L224.057,157.65L226.076,156.375L227.852,154.56L228.438,154.814L231.338,152.728L234.351,152.919L235.931,152.298L238.212,153.253L239.449,152.791L239.091,150.593L240.573,148.793L244.32,149.112L243.668,147.646L239.971,147.757L237.804,149.558L231.061,149.733L232.348,145.097L235.508,144.316L235.035,143.058L232.462,144.619L230.23,143.328L230.735,142.659L229.872,138.182L229.904,134.836L227.738,130.501L227.656,128.78L228.845,125.338L225.571,124.477L224.757,127.394L225.685,128.796L227.917,133.673L225.93,131.33L221.988,125.593L220.587,124.828L217.688,125.497L215.065,127.346L213.86,126.868L213.892,128.318L212.41,128.175L211.954,126.087L212.54,125.29L211.026,123.553L209.885,125.593L207.784,124.35L208.354,122.118L207.621,120.652L206.432,116.38L208.55,115.695L210.504,118.883L209.055,119.313L212.996,120.461L213.192,116.874L210.667,116.635L209.722,115.264L208.582,111.327L210.244,110.561L210.227,109.35L207.833,109.382L208.061,107.979L210.423,107.66L209.706,104.806L208.729,105.061L208.208,103.738L207.556,104.902L204.999,105.858L204.477,104.918L208.11,103.467L208.696,102.558L207.507,100.82L202.148,101.41L198.19,101.25L192.342,99.927L190.616,98.986L187.097,94.458L188.873,93.533L196.431,95.239L199.07,98.253L200.552,98.221L201.708,99.704L204.07,98.093L199.004,90.662L197.652,91.396L196.871,90.359L197.864,89.673L195.437,87.6L194.411,88.812L196.089,90.455L196.773,91.938L192.717,88.413L187.944,85.255L184.719,83.469L185.322,81.491L186.772,81.316L181.233,78.397L172.389,78.62L168.952,78.125L167.274,77.423L166.476,75.924L168.17,73.802L169.619,67.899L169.766,69.59L172.291,69.383L173.35,67.389L171.965,68.202L171.818,66.862L172.877,67.117L173.415,65.666L172.095,63.049L170.043,62.857L172.128,61.07L170.157,59.443L171.151,54.767L172.959,52.325L173.398,50.17L174.685,48.862L176.233,48.351L178.171,49.5L180.337,48.83L183.139,45.957L185.371,48.543L187.211,47.649L187.619,47.377L189.866,47.888L190.078,48.128L190.257,49.899L189.41,50.793L189.264,51.048L188.547,52.405L187.065,53.299L185.289,55.421L185.192,55.708L186.495,57.432L186.592,57.719L186.218,60.544L187.065,61.533L187.26,61.613L188.286,62.395L188.612,62.379L191.56,64.357L191.593,64.788L190.762,66.639L192.326,70.324L192.228,70.691L194.183,69.846L195.828,70.675L197.832,70.213L200.519,67.931L201.48,68.553L201.79,68.649L202.8,70.691L203.728,71.138L206.106,70.404L207.686,65.075L209.739,65.969L209.967,65.538L211.286,63.958L215.652,65.713L214.886,67.117L215.277,69.83L217.004,68.139L218.86,67.899L221.678,66.479L221.972,66.32L224.415,65.905L225.653,66.256L226.239,66.384L228.145,66.99L229.204,66.352L230.425,66.878L230.654,67.054L231.24,66.974L231.338,66.559L231.501,65.49L231.794,65.426L232.95,64.23L234.025,64.341L234.954,62.171L237.723,62.203L238,62.028L239.042,61.469L239.254,61.533L242.105,60.799L241.632,59.586L241.697,59.315L241.877,57.639L241.844,57.288L241.616,54.894L242.153,53.251L243.799,51.798L243.652,48.543L243.636,48.431L247.545,50.346L249.141,50.298L251.422,51.687L252.464,53.043L257.986,51.272L259.045,49.803L259.273,49.532L261.179,47.968L261.325,47.856L262.026,47.282L262.205,47.25L262.449,46.914L262.645,46.771L263.85,45.127L267.792,43.579L269.73,43.626L271.701,45.622L276.621,45.67L277.044,45.733L281.344,43.195L281.784,43.163L282.794,42.206L284.781,45.59L284.423,46.978L285.791,51.096L286.215,51.735L287.42,53.873L288.332,54.033L289.7,52.724L290.515,53.091L291.052,51.862L292.241,51.926L294.164,47.282L293.887,44.871L295.792,44.409L296.965,45.143L298.806,44.552L303.432,42.317L304.491,41.44L307.243,42.333ZM174.897,170.757L178.383,171.442L176.412,174.117L174.636,173.368L173.773,172.206ZM187.716,175.024L185.925,174.483L185.517,173.098L186.12,170.009L188.498,168.973L187.912,171.171L189.704,173.974ZM209.592,330.144L211.188,331.907L215.945,330.795L215.766,333.383L211.905,334.256L211.042,331.939ZM330.927,430.363L332.328,431.694L331.139,431.821ZM593.861,295.49L594.285,295.474L594.415,295.712L596.142,295.633L597.021,297.698L596.076,298.619L596.435,301.034L595.474,301.431L595.571,301.955L596.484,305.498L598.536,308.118L600.181,309.294L600.214,310.898L598.683,313.233L598.422,314.535L598.373,316.282L599.448,317.902L601.696,319.013L602.706,318.474L602.429,316.774L602.885,313.868L601.419,313.264L602.38,310.819L607.348,316.552L606.778,320.046L606.127,320.697L605.328,324.682L605.328,326.016L603.374,326.953L602.527,327.032L601.142,326.604L599.399,324.635L596.598,324.333L594.871,325.079L595.066,329.319L593.617,331.113L593.324,331.224L592.249,327.096L593.307,324.095L594.285,323.587L594.48,323.619L596.598,322.078L596.744,321.348L597.445,320.316L596.907,318.998L594.562,316.965L593.829,317.092L593.324,317.155L593.112,316.917L591.63,314.138L588.062,313.836L586.238,315.123L585.391,313.487L584.707,308.801L585.603,307.69L584.87,306.212L587.101,303.671L587.215,302.051L590.229,297.825L588.47,294.314L588.665,293.011L590.261,294.314L593.193,295.474ZM198.092,231.298L201.969,232.587L200.47,232.698L199.851,234.209L196.708,232.03ZM173.236,274.864L174.408,275.484L174.213,276.819L172.926,277.168ZM180.142,248.983L180.256,250.367L181.445,251.988L177.487,250.017ZM181.608,241.557L183.318,242.114L182.504,242.718ZM183.595,238.758L185.061,240.38L188.009,240.651L187.162,241.843L183.269,241.859L182.374,240.46ZM326.757,440.425L326.709,441.93L325.666,441.471ZM325.552,434.863L325.324,436.353L324.64,434.895ZM444.493,557.644L445.861,559.083L445.389,560.601L443.516,559.162ZM630.723,482.318L632.205,483.189L630.837,484.075ZM656.524,243.275L656.654,243.704L657.485,245.151L661.232,249.158L661.362,249.588L661.15,252.768L663.251,256.917L665.418,258.889L665.988,260.033L666.037,262.895L664.408,265.486L660.661,267.584L660.336,268.379L659.733,270.795L658.528,271.701L657.485,271.002L655.4,268.22L654.488,265.836L652.012,263.737L649.992,263.753L649.227,263.88L647.549,264.437L646.083,266.567L646.164,268.999L646.637,269.444L647.419,274.435L647.158,277.009L646.262,278.901L646.148,280.76L643.118,287.99L641.229,289.452L640.382,289.039L637.629,286.004L637.189,285.543L634.909,284.272L633.622,283.748L632.221,283.462L631.309,283.16L629.159,281.777L625.836,282.19L622.285,280.871L621.226,281.078L621.829,283.652L622.953,285.559L621.031,284.939L617.969,285.257L616.177,288.038L616.014,289.659L615.574,291.581L616.812,293.726L619.565,294.314L622.024,292.296L623.376,292.487L623.849,292.82L624.077,293.138L624.468,293.837L624.158,295.918L623.963,296.093L621.047,297.11L620.575,297.301L618.197,298.047L617.643,296.332L616.16,294.806L615.607,294.473L611.29,295.283L611.42,294.314L611.42,293.694L611.632,292.614L609.075,290.834L607.56,291.581L606.908,291.454L605.784,290.262L605.687,289.897L605.426,285.384L602.853,282.349L602.885,282.19L602.673,281.03L602.608,280.506L602.559,277.995L603.83,275.897L603.178,275.643L605.459,272.957L607.088,272.861L607.267,272.845L609.221,271.399L609.498,271.002L610.15,269.587L610.231,269.349L610.02,267.091L613.163,266.328L614.711,264.453L614.906,264.278L614.743,261.067L618.115,257.315L620.884,255.645L621.471,256.075L621.666,256.17L622.252,256.106L625.168,256.218L626.406,255.757L627.791,256.377L627.416,257.839L628.214,259.111L629.387,258.587L630.055,257.076L630.218,256.806L631.488,255.9L634.844,256.17L637.01,255.423L638.476,253.515L640.138,252.974L645.659,252.609L646.979,250.319L647.549,250.176L649.943,249.174L650.432,249.142L650.904,249.015L651.018,247.043L653.038,244.865L653.169,243.974L653.185,243.561L654.179,241.414L654.797,241.207L655.742,240.507L659.375,239.951L659.733,239.808L660.873,237.47L662.616,238.822L661.753,241.621L660.889,242.734L657.485,242.161ZM563.873,588.94L564.802,589.43L563.531,591.026L563.287,592.622L561.968,592.685L560.795,591.421ZM560.225,570.876L561.528,572.141L561.479,574.1L564.46,573.879L566.284,574.464L569.184,573.326L570.65,573.863L573.533,573.753L573.321,575.238L577.703,574.922L579.331,576.993L580.96,577.325L582.345,576.708L584.251,577.831L586.124,576.376L586.938,577.167L584.088,579.98L582.084,580.438L582.035,583.631L579.641,583.346L579.315,584.247L577.344,584.705L577.344,585.527L575.292,584.12L574.331,585.606L573.223,588.814L572.555,587.66L569.607,586.522L569.004,587.234L570.926,588.561L570.764,591.279L569.232,590.647L568.711,589.556L566.186,588.782L565.405,589.114L566.496,586.491L565.893,585.859L567.115,584.405L564.541,582.904L560.909,583.109L562.049,581.876L560.062,581.402L558.987,582.366L558.303,580.659L556.983,582.082L555.42,581.924L554.1,583.267L552.797,582.034L554.084,580.28L553.986,578.305L555.175,577.546L554.247,576.772L554.817,575.776L556.12,575.981L558.286,572.188ZM497.92,569.611L498.376,570.291L496.356,571.034Z"
          fill="#e0e0e0"
          stroke="#333333"
          stroke-width="1"
          stroke-linejoin="round"/>
  </g>
</svg>