<?xml version="1.0" encoding="UTF-8"?>
<svg xmlns="http://www.w3.org/2000/svg"
     viewBox="-19.999999999985448 82.14679331996376 840 435.70641336006884"
     width="840"
     height="435.70641336006884">
  <title>鳥取県</title>
  <desc>都道府県コード: 31</desc>
  <g id="31">
    <path d="M752.962,204.609L752.908,205.254L752.944,205.576L752.584,207.562L753.431,209.871L755.213,211.249L755.123,212.877L755.069,213.074L754.817,213.825L755.592,218.496L755.628,218.925L755.952,222.038L755.97,222.342L756.366,224.382L759.733,224.919L761.048,227.477L762.435,227.888L762.633,227.96L763.551,228.908L769.458,228.64L771.169,229.838L771.475,231.323L771.799,231.448L773.618,231.037L774.86,233.541L776.049,233.667L776.301,233.667L777.868,234.167L777.94,234.185L778.318,234.454L778.534,234.776L779.525,235.598L778.714,237.065L778.444,237.208L777.184,238.299L777.418,238.675L778.444,239.659L777.544,244.47L780.299,247.367L779.939,249.209L779.867,249.871L779.615,251.945L779.777,252.338L778.12,254.466L777.976,254.77L777.976,254.913L778.012,255.325L777.904,257.882L776.967,259.688L776.805,259.991L775.905,261.368L776.013,261.583L775.851,264.872L775.581,265.051L774.464,269.038L776.409,272.828L780.371,273.882L780.605,273.918L780.749,273.9L781.109,273.972L781.469,274.508L781.505,274.794L783.27,276.742L783.504,276.778L784.783,277.69L786.296,277.261L789.663,278.208L790.276,278.244L792.725,279.048L793.571,283.588L795.084,284.41L795.894,286.036L799.028,287.627L797.713,289.485L797.389,289.503L797.119,290.844L797.065,291.255L796.614,293.274L796.831,293.846L796.722,295.275L796.542,295.847L795.354,297.455L795.246,297.848L794.868,298.742L794.58,298.992L793.931,299.349L793.697,299.438L793.607,301.422L792.545,305.424L792.166,307.067L793.427,311.14L793.139,311.694L793.049,312.784L795.912,316.606L797.515,317.5L799.496,320.875L799.28,321.59L797.803,322.161L797.767,322.786L797.785,326.001L796.47,329.948L796.488,330.519L797.209,332.68L797.299,333.126L797.641,333.894L798.037,334.698L798.649,335.501L798.325,336.394L798.181,337.269L798.379,337.983L800,341.786L799.892,342.108L798.217,342.608L796.921,344.304L793.841,345.964L792.202,348.142L788.205,349.481L786.854,350.659L786.494,351.231L785.269,353.355L783.162,352.391L782.496,353.319L781.974,353.712L780.839,357.657L780.821,358.139L778.408,360.869L778.138,361.137L777.454,362.083L774.464,361.94L774.14,362.833L773.852,362.976L770.43,365.438L768.882,365.688L769.134,366.795L769.188,367.223L770.088,370.168L770.016,370.65L766.325,369.9L760.922,370.007L760.526,370.114L758.491,371.006L758.077,371.542L756.474,374.468L753.341,376.217L752.044,375.717L751.522,375.236L750.333,374.29L750.009,374.201L748.91,374.468L746.587,370.757L744.102,370.507L741.167,369.008L739.996,368.704L737.745,368.722L737.349,368.365L734.702,367.812L733.91,366.616L734.054,364.403L731.821,361.173L730.416,361.03L729.047,359.531L727.12,359.941L723.987,362.083L722.276,362.262L720.728,363.886L717.504,364.368L718.08,366.581L717.72,368.704L718.386,370.507L715.289,373.879L715.109,374.29L712.066,375.36L711.579,375.753L706.771,378.091L705.871,379.322L705.583,379.482L702.953,380.838L702.197,380.963L700.504,382.176L698.253,381.82L696.272,383.104L696.38,384.603L695.192,387.796L693.013,389.152L692.941,389.509L690.131,392.631L689.825,393.13L687.376,395.645L687.124,395.663L684.711,395.342L683.666,396.323L683.27,396.412L680.893,396.359L680.281,396.323L676.211,395.396L672.681,396.305L671.691,397.34L670.358,396.858L668.071,397.376L667.693,397.483L662.597,399.159L661.3,397.911L661.138,397.393L660.202,396.502L659.806,396.43L657.861,395.824L657.5,395.289L656.744,393.38L656.762,393.112L656.69,392.47L656.762,392.078L656.51,390.972L656.294,390.865L654.079,390.776L652.152,389.152L649.289,390.811L649.091,390.829L647.398,393.005L647.362,393.326L647.164,393.986L647.254,394.45L646.101,396.323L642.734,398.036L637.205,397.465L635.963,398.803L633.117,398.981L632.055,400.122L632.091,401.781L630.884,401.977L630.488,402.12L629.894,403.493L629.804,403.672L629.624,403.743L628.921,403.565L626.886,404.385L624.509,403.476L623.555,404.171L622.853,404.082L619.809,404.546L619.557,404.724L617.918,403.707L616.171,403.654L612.948,405.063L613.596,405.901L613.272,408.309L611.705,411.055L611.255,414.069L609.418,415.442L605.979,417.046L604.106,418.812L601.117,418.402L598.145,416.619L598.829,414.497L598.289,412.589L599.046,411.019L598.073,409.557L596.759,405.473L595.822,404.795L594.057,402.619L593.409,402.156L590.402,400.747L589.825,399.355L590.456,398.374L590.384,397.304L589.897,396.823L590.762,394.968L590.636,392.845L591.86,391.525L591.932,390.008L593.319,389.045L595.912,383.015L594.868,381.409L595.228,378.858L596.326,377.073L595.642,376.378L595.444,375.735L594.724,373.844L592.869,372.398L587.61,373.683L587.376,373.862L585.593,374.54L584.603,374.593L582.37,371.863L582.442,371.56L580.749,369.507L581.451,368.615L581.848,368.133L584.045,367.687L585.503,366.438L583.901,361.851L584.909,360.352L585.215,359.941L588.421,355.8L588.024,354.23L587.628,354.051L585.431,353.533L585.791,352.855L583.594,351.552L580.911,347.553L581.217,345.286L583.054,343.733L582.172,340.965L578.876,337.93L578.408,339.251L578.156,339.394L577.76,339.519L574.968,340.037L572.033,339.376L568.63,337.68L568.269,337.644L567.063,335.984L567.279,334.126L563.155,330.43L562.921,330.287L561.552,329.573L560.634,327.68L560.742,327.198L558.185,324.019L557.915,323.751L557.897,323.59L558.005,323.465L558.311,323.233L558.365,322.965L557.068,322.072L556.906,322.09L556.618,321.947L556.312,322.018L556.096,322.108L555.934,322.018L554.961,321.875L554.727,322.036L552.206,321.054L551.72,320.875L550.855,321.34L550.477,321.786L549.937,323.608L549.847,323.947L548.802,324.34L545.093,323.983L544.697,324.072L541.995,326.608L541.833,327.858L538.7,325.412L538.628,325.197L536.467,323.912L534.684,325.644L533.766,326.394L532.847,327.216L529.101,327.019L526.706,323.965L526.418,323.822L525.572,323.286L525.374,323.304L522.979,322.697L519.845,322.626L519.485,322.322L518.314,320.715L515.685,320.643L513.686,321.965L512.57,321.643L512.264,321.768L508.284,321.125L505.673,320L505.565,319.571L505.186,319.196L504.7,319L503.187,317.803L503.223,317.321L503.241,317.142L503.205,316.964L501.999,316.571L501.351,315.963L500.954,315.66L500.792,315.517L501.873,313.32L501.909,313.105L501.837,311.533L503.332,310.051L503.728,308.997L503.584,307.889L506.735,305.406L506.879,305.049L507.185,304.816L508.068,304.691L510.013,301.868L509.941,300.886L509.652,300.582L509.472,300.242L507.437,298.366L507.654,296.973L508.014,296.419L509.526,294.471L509.652,294.149L510.247,291.487L510.121,291.147L509.652,290.147L509.184,290.433L506.393,290.611L505.763,289.342L502.701,289.468L500.936,288.449L500.396,288.449L498.181,289.253L496.56,291.719L495.12,291.415L493.463,292.666L490.312,294.006L489.375,295.079L487.052,293.31L484.837,292.666L484.567,292.434L483.36,291.969L480.677,292.738L479.074,294.739L477.526,294.578L474.482,297.008L474.32,298.777L469.278,302.78L466.811,301.368L465.082,301.69L464.055,300.618L463.497,300.653L461.804,301.797L460.508,304.191L459.355,309.247L459.337,309.64L461.012,312.105L461.156,312.248L461.39,312.462L461.534,312.695L461.642,314.32L460.31,317.303L458.275,318.75L457.861,320.822L457.753,321.018L455.177,321.393L451.954,320.715L451.774,320.661L450.153,320.857L449.883,320.875L447.128,321.161L446.209,322.501L445.111,322.822L441.671,323.34L441.509,324.037L441.437,324.197L441.311,324.429L439.474,325.965L439.06,325.983L438.394,326.412L438.16,326.68L436.449,327.698L436.017,329.394L434.468,329.323L434.234,328.859L432.325,330.234L429.93,329.323L428.219,329.609L427.355,330.876L422.654,330.805L422.186,330.876L421.088,331.359L420.367,334.644L420.926,335.662L422.889,335.966L423.483,337.751L422.312,338.108L423.015,339.947L421.934,342.197L423.375,345.643L421.286,346.464L418.35,348.589L417.936,348.589L415.973,350.32L415.559,352.302L415.415,352.659L415.325,352.819L415.091,353.212L413.65,354.658L413.506,354.944L412.534,356.586L412.228,356.639L410.571,358.728L410.481,358.978L411.003,361.726L410.859,361.851L408.194,360.834L407.924,360.62L403.728,362.279L400.72,361.815L396.344,360.013L396.074,359.781L395.426,358.87L395.372,358.478L395.858,356.3L394.381,351.605L394.219,351.302L394.093,351.195L393.949,350.874L393.193,350.409L392.851,350.374L391.158,347.928L389.537,347.035L390.708,344.018L390.023,341.786L389.933,341.483L388.115,339.93L388.331,338.787L385.936,336.698L386.116,334.787L384.963,332.948L385.251,332.591L385.125,331.144L382.586,330.037L382.37,330.144L382.136,330.662L379.074,330.519L379.272,327.68L377.111,329.501L375.347,329.198L375.275,328.805L374.914,327.448L373.384,326.608L373.24,326.555L370.791,325.965L369.476,324.072L367.513,322.786L366,319.786L363.785,318.964L363.803,318.803L363.713,318.714L363.443,318.41L361.768,319.214L361.516,319.696L360.166,320.107L358.869,318.678L358.545,318.357L356.348,317.464L356.33,316.874L354.997,313.391L354.133,312.677L353.647,312.248L353.377,312.069L352.638,313.32L352.206,313.802L351.035,314.106L350.531,314.159L348.856,312.462L347.488,312.802L347.272,314.517L345.957,313.588L343.544,313.963L342.878,313.838L341.473,311.962L337.637,312.034L334.396,309.122L333.928,308.961L331.478,308.05L330.02,308.657L327.463,307.961L326.328,307.478L324.851,306.799L322.168,309.265L322.222,309.622L322.366,310.265L322.33,310.926L322.33,311.337L317.612,312.605L314.371,312.409L313.218,311.194L312.804,310.908L312.75,310.837L312.588,310.265L312.048,309.318L309.058,309.425L308.68,309.104L305.979,308.05L304.124,305.888L300.432,302.78L300.108,302.172L297.659,300.1L292.743,299.867L290.546,297.955L290.167,297.866L289.015,297.991L288.709,297.83L284.189,298.706L282.01,299.831L278.372,296.865L276.175,297.419L273.78,296.115L272.934,296.49L271.259,295.275L267.117,293.989L266.991,294.078L265.982,296.937L262.399,299.653L262.831,301.833L264.632,302.78L264.776,304.03L263.029,305.388L263.389,306.603L260.922,309.229L260.49,309.283L258.221,312.266L258.311,313.891L257.086,314.427L256.816,314.677L255.682,315.678L255.448,318.321L255.502,319.732L255.303,325.108L255.087,325.34L256.132,327.876L254.043,331.466L253.737,334.073L252.062,335.109L253.088,338.965L252.89,340.001L252.566,340.429L251.09,341.911L252.854,345.411L251.017,347.91L250.621,348.089L249.883,350.213L249.937,353.248L250.729,355.176L250.477,355.675L249.307,357.675L248.838,357.728L247.236,358.513L247.002,362.244L246.263,363.868L245.399,364.207L244.354,364.778L244.246,365.135L244.102,365.938L243.994,366.259L243.004,367.259L239.33,365.885L236.629,366.277L233.657,368.098L233.657,369.008L231.352,370.882L227.607,370.917L226.04,368.936L221.016,368.008L219.935,369.418L219.251,371.934L218.909,372.273L218.476,372.488L218.008,372.541L215.901,373.344L215.775,373.719L214.929,376.074L214.371,376.949L215.019,377.859L215.109,378.501L217.72,381.659L219.917,382.283L220.223,382.515L222.114,385.798L221.772,386.744L224.149,391.007L223.159,392.666L223.969,395.61L224.185,395.824L224.761,397.233L224.725,397.376L224.509,399.462L226.13,401.121L226.328,401.014L226.31,403.547L227.733,405.527L227.985,405.865L226.346,409.058L226.256,409.111L225.698,408.915L225.536,408.772L223.501,409.646L222.276,409.058L222.042,406.543L221.142,405.919L220.637,403.672L218.621,404.135L218.386,404.26L216.478,403.065L216.406,402.798L214.479,402.174L214.064,402.334L211.813,402.067L210.265,405.295L208.86,406.4L206.501,405.651L203.025,406.561L202.773,406.561L202.431,408.095L201.044,409.414L196.416,409.753L195.678,410.502L195.678,411.465L195.084,413.124L194.958,413.266L193.193,413.48L193.049,413.658L192.004,414.568L191.104,413.48L190.51,413.07L187.538,413.124L187.52,413.338L186.404,415.192L186.224,415.602L182.694,416.565L182.154,416.815L180.659,417.26L178.246,416.03L177.724,416.03L176.661,415.87L176.067,415.959L175.239,416.048L175.005,415.852L169.476,412.963L166.865,413.641L166.505,413.73L165.964,413.819L165.766,413.587L165.55,411.626L165.496,411.233L162.201,407.774L159.013,408.166L157.645,406.953L155.502,408.166L153.467,410.092L153.232,410.252L150.909,410.698L150.063,412.767L150.045,413.284L150.153,415.299L151.396,416.476L150.531,417.046L150.135,417.671L149.235,419.864L150.495,421.29L151.342,421.754L153.593,426.425L153.377,430.097L155.79,433.359L155.52,435.338L156.15,437.424L159.679,440.382L159.643,442.45L160.49,444.125L160.184,444.446L160.562,447.886L160.022,452.876L159.481,453.321L156.51,455.085L155.123,457.705L152.368,457.473L151.9,457.509L150.693,457.847L150.153,458.239L146.047,458.809L145.237,457.705L140.861,457.473L140.158,457.758L137.097,458.934L135.566,460.413L134.9,460.484L133.279,462.123L133.063,462.266L131.983,462.889L131.839,463.424L131.388,464.03L131.01,464.333L129.516,464.707L128.507,466.435L128.147,466.328L127.877,466.417L127.787,466.684L126.868,467.308L122.258,463.762L119.611,463.745L118.729,463.638L117.342,463.21L114.227,466.72L113.938,466.952L114.353,468.181L112.75,469.232L112.39,469.891L111.489,471.405L111.417,471.601L109.977,472.492L108.104,471.779L106.033,471.975L104.448,469.553L104.268,469.588L102.755,469.178L102.575,469.196L101.423,470.515L100.018,468.252L96.813,468.163L96.596,467.931L94.507,465.081L92.328,466.631L90.636,467.058L90.402,467.361L88.115,472.652L88.241,473.151L89.519,474.772L89.159,476.571L89.753,478.905L88.763,481.843L88.709,485.975L89.861,488.451L88.997,489.234L88.907,489.448L88.835,489.858L88.565,490.125L86.134,492.315L85.99,492.369L81.686,492.03L81.614,492.244L80.497,494.292L79.128,495.111L79.308,496.375L77.382,497.711L77.274,497.853L74.86,494.862L72.447,493.775L71.763,491.924L71.727,491.318L69.8,489.377L68.72,486.67L68.522,486.171L65.928,482.716L62.651,483.322L59.86,482.378L58.041,483.963L55.916,484.141L55.898,484.568L56.438,485.495L56.348,488.647L56.528,488.843L54.979,490.392L52.98,490.41L48.91,488.059L47.596,488.184L46.731,486.937L46.443,486.866L46.209,486.652L43.346,486.136L42.788,486.207L40.735,486.652L40.068,487.044L38.646,487.685L36.665,487.347L34.882,487.899L34.468,488.166L33.838,488.771L29.912,489.092L27.265,490.214L26.994,490.143L26.76,490.018L26.58,489.893L25.752,490.036L25.536,490.445L23.825,490.552L23.411,490.819L21.79,489.697L18.891,490.944L17.936,490.054L17.9,489.662L15.703,487.169L15.469,487.08L15.235,486.688L13.506,486.937L13.308,487.133L12.642,487.952L12.48,487.863L11.093,487.721L10.481,487.792L9.797,489.787L7.221,491.318L6.411,490.659L5.258,492.066L4.556,492.44L3.8,492.832L3.566,492.85L3.44,492.369L2.539,491.55L2.449,491.3L1.459,489.929L1.207,489.787L0,488.665L0.324,486.1L3.187,484.693L2.647,483.339L2.341,483.197L2.593,482.075L2.881,482.021L3.71,481.202L3.548,480.935L0.9,478.245L1.261,476.856L1.297,476.5L0.54,475.77L0.792,475.663L0.576,474.843L0.468,474.683L1.567,471.334L1.531,471.031L1.567,470.853L2.107,470.515L2.935,469.748L2.287,467.86L4.178,465.544L4.412,465.33L5.475,464.6L5.601,464.279L5.511,463.068L5.511,462.836L4.988,461.108L4.934,460.573L3.368,458.114L3.296,457.669L2.521,455.067L3.854,453.588L3.998,453.107L4.736,452.786L5.114,452.662L6.249,451.058L5.943,449.365L5.997,448.866L5.475,445.373L5.727,445.123L6.285,443.947L6.321,443.733L6.285,442.521L6.339,442.379L7.365,441.559L7.059,440.935L7.239,440.489L7.257,440.044L7.293,439.509L7.347,439.42L7.672,439.242L8.77,438.154L9.22,437.905L9.346,437.816L9.616,437.602L11.201,436.229L11.291,435.641L11.165,434.269L11.471,433.859L12.516,433.181L15.001,433.52L15.217,433.591L17.414,433.056L18.531,431.719L18.657,431.345L19.035,430.775L19.323,430.65L19.953,430.097L20.313,429.901L23.069,429.295L24.599,428.19L25.122,428.243L28.003,427.512L30.272,424.838L30.452,424.321L32.523,423.269L32.505,422.823L32.577,422.645L32.919,422.164L33.135,421.861L34.18,418.687L34.198,418.188L33.495,415.78L33.495,415.388L33.405,414.889L33.441,414.265L33.495,412.91L33.261,412.589L31.947,411.055L31.659,410.805L31.28,408.576L31.046,408.13L28.813,407.506L26.832,405.437L26.688,404.991L27.283,401.96L28.201,400.515L28.291,400.229L28.183,399.873L27.066,396.466L26.148,395.146L25.968,394.985L25.824,394.985L25.536,395.039L23.447,393.219L22.438,393.202L21.97,393.13L20.349,390.793L19.791,390.829L19.287,390.651L19.287,390.419L19.107,390.294L18.729,390.347L18.44,390.704L18.17,391.4L16.766,392.131L16.352,392.238L14.857,392.435L14.533,392.399L13.578,392.72L13.452,392.934L13.074,393.469L13.056,393.879L12.93,394.093L12.624,394.165L11.039,394.7L9.328,393.041L9.184,392.488L9.526,391.543L9.724,391.168L9.977,390.651L10.067,390.312L9.004,387.743L9.13,387.475L9.58,383.925L9.652,383.515L11.309,383.104L11.507,382.212L14.749,380.66L14.947,380.517L15.757,380.713L15.973,380.874L16.496,380.446L16.946,380.214L18.657,379.036L18.927,378.786L19.197,378.233L19.341,378.18L19.539,378.18L19.917,378.233L20.746,377.555L21.034,377.591L20.692,376.699L20.71,376.449L23.681,375.468L23.915,375.414L24.005,375.378L24.365,374.754L26.202,372.862L26.526,372.488L28.939,371.863L29.209,371.702L29.732,371.488L30.236,371.221L30.578,371.113L31.28,370.792L32.541,371.506L32.955,371.363L33.081,371.042L33.297,370.65L34.27,369.757L34.558,369.668L36.575,368.544L37.043,368.579L40.861,367.08L44.03,367.384L46.119,365.438L46.389,365.314L46.497,365.296L46.876,365.153L47.65,364.385L48.136,364.171L49.145,363.547L49.523,363.243L49.955,362.547L50.135,362.279L50.243,362.155L50.405,362.083L51.18,361.994L51.468,361.994L52.098,361.833L52.44,362.387L53.052,362.868L53.106,363.315L55.988,363.868L56.96,362.922L57.086,362.815L58.671,362.065L58.995,361.815L59.391,361.798L59.715,361.708L62.327,361.155L62.723,360.245L62.867,359.977L63.623,358.496L63.641,358.299L66.307,356.8L67.315,354.854L71.205,353.355L71.457,353.605L72.97,354.604L73.276,355.051L73.78,355.229L74.338,355.461L74.554,355.497L77.454,355.158L80.803,355.907L82.766,354.979L84.873,352.641L87.358,353.587L87.574,353.462L90.744,353.283L91.032,353.105L91.68,352.855L92.094,352.444L92.419,352.337L92.491,352.105L94.706,351.284L94.832,351.356L95.948,351.945L96.542,352.141L97.479,351.498L97.821,351.266L97.965,351.016L97.875,350.445L100.828,348.999L101.225,348.767L101.243,348.392L101.044,348.303L100.864,347.714L100.756,347.41L100.45,346.036L100.252,345.857L100.126,342.34L99.964,341.84L99.928,341.733L99.928,341.411L99.352,339.269L99.478,338.93L98.055,337.68L97.641,335.662L96.272,333.805L96.326,333.591L94.886,331.698L95.3,329.876L96.434,329.037L97.443,326.537L97.605,326.287L99.19,323.447L96.56,322.018L95.012,318.571L95.03,318.107L94.165,317.392L94.471,317.071L93.661,315.678L93.463,315.517L90.834,312.069L90.87,311.766L92.725,310.39L92.851,310.265L93.409,309.3L93.931,308.657L93.319,306.978L93.049,306.871L92.851,306.692L92.707,306.245L92.779,305.138L92.761,304.673L93.373,303.012L93.103,300.796L93.085,300.564L93.373,298.17L92.419,297.062L93.157,293.774L92.346,292.809L92.941,290.701L95.156,288.038L95.534,287.591L95.462,286.912L95.624,286.429L96.668,285.429L96.813,284.195L97.785,283.373L98.163,282.658L98.379,282.087L98.901,281.139L99.622,279.602L100.396,278.655L100.684,278.851L104.448,279.37L106.357,276.921L105.907,273.793L107.87,274.329L109.184,273.704L108.806,272.166L108.896,271.487L108.914,270.879L108.734,270.593L106.843,268.519L106.213,266.571L103.386,264.318L103.962,260.689L107.491,257.846L107.329,257.524L106.699,255.217L107.744,254.556L107.113,251.874L107.708,249.37L106.321,246.008L104.088,241.107L100.216,232.862L98.379,231.287L96.434,229.695L95.588,228.998L94.237,228.461L92.166,227.674L89.771,226.744L87.34,225.688L82.262,223.487L78.948,222.092L75.527,219.426L73.438,217.816L70.142,215.006L68.197,213.307L64.037,209.692L63.623,209.352L60.778,206.846L60.256,206.399L59.049,205.379L58.743,205.11L57.194,203.75L56.906,203.518L55.321,202.139L54.925,201.781L53.431,200.493L53.034,200.153L52.764,199.902L52.35,199.562L52.116,199.365L51.828,199.115L51.702,198.971L51.288,198.631L50.135,197.414L49.937,196.895L49.775,196.358L49.541,195.678L48.532,192.832L48.388,192.295L46.605,187.139L46.407,186.656L44.426,182.037L44.228,181.517L41.833,176.164L39.96,172.762L39.348,171.58L38.628,169.932L37.925,168.5L36.827,166.136L36.395,165.115L36.521,162.07L37.115,160.422L37.781,158.542L42.86,154.924L47.92,150.642L53.269,148.815L56.816,148.457L59.535,148.851L62.849,148.654L63.803,150.768L66.072,150.553L71.115,147.848L77.958,146.289L78.804,146.379L76.481,148.116L75.131,147.579L75.005,148.779L71.133,153.974L66.397,157.127L67.135,158.703L64.902,159.778L64.542,158.291L63.029,158.613L64.037,163.915L69.53,163.485L72.303,169.556L67.963,171.562L66.919,172.744L72.519,181.589L77.111,187.175L83.486,193.226L91.302,199.383L99.784,203.965L107.942,207.598L110.427,208.01L114.245,209.352L115.055,209.03L118.927,210.461L119.215,210.085L124.581,211.947L127.859,211.947L129.642,212.788L132.955,212.644L138.808,214.881L140.357,214.523L148.766,216.742L151.972,216.366L154.349,217.261L155.411,216.581L158.383,216.402L160.544,215.293L166.775,213.056L169.224,210.032L168.9,208.189L169.836,207.67L170.232,204.037L171.691,202.354L173.168,198.488L171.763,197.182L173.582,195.087L177.958,192.635L178.588,189.771L180.065,187.784L181.56,186.906L184.495,186.387L186.746,184.991L188.565,184.597L191.86,185.009L195.372,184.346L196.65,183.29L202.395,180.049L203.205,178.921L206.105,177.202L208.32,174.946L208.356,173.496L209.851,172.386L212.372,172.69L215.631,172.099L217.414,171.204L220.475,170.917L222.871,168.858L223.897,169.682L229.191,169.735L231.226,166.942L233.261,166.691L234.882,168.267L237.655,168.356L241.131,166.96L244.372,166.261L245.291,164.506L250.603,161.981L254.907,161.802L256.564,162.178L263.425,160.834L265.154,163.754L266.505,164.828L268.9,164.685L271.619,166.96L275.383,168.535L277.075,168.374L286.188,170.076L288.385,169.789L293.823,172.063L294.634,173.012L296.975,172.636L301.729,174.803L302.251,177.131L303.476,176.2L304.772,177.328L308.626,178.832L310.985,179.1L320.89,178.313L323.051,178.903L327.895,178.868L329.57,177.99L332.433,179.691L335.512,179.817L337.961,181.034L341.383,181.607L359.139,183.057L363.767,182.95L367.873,183.236L379.236,182.986L385.233,183.004L394.255,182.592L395.444,182.252L411.831,181.213L416.856,180.425L424.149,179.942L428.201,179.351L429.498,178.492L434.738,178.313L435.854,177.238L437.889,178.384L441.527,178.384L444.769,176.218L449.091,177.274L454.457,177.041L461.804,175.376L466.198,172.01L466,170.523L468.467,170.828L469.764,169.843L473.69,171.437L476.157,170.702L477.76,169.109L477.742,165.527L478.948,165.795L479.705,167.425L484.945,168.231L485.305,167.318L489.573,167.837L491.212,165.634L491.608,167.353L494.958,167.318L495.948,165.616L497.479,165.76L498.271,167.103L501.693,164.882L502.719,162.858L501.927,161.873L503.962,159.634L503.728,158.327L505.493,156.643L507.005,158.004L508.77,162.715L509.941,162.303L511.795,166.96L511.075,167.747L514.479,169.825L518.747,170.344L527.589,170.38L534.54,170.004L545.741,168.697L548.172,167.515L549.037,165.598L552.08,166.404L553.142,165.33L554.655,166.172L557.572,166.44L559.319,164.434L561.948,164.81L562.669,165.688L564.956,165.527L564.974,164.273L567.315,164.936L573.546,164.416L575.941,163.61L580.353,162.84L589.051,161.73L589.717,160.655L593.337,160.888L599.064,159.796L604.394,157.915L604.34,155.031L605.06,156.482L607.744,156.428L607.726,155.497L612.57,158.578L613.632,159.796L615.325,160.1L613.884,157.145L612.408,157.145L609.724,155.3L609.598,153.079L610.715,152.774L611.183,154.583L612.894,153.025L613.938,155.192L615.433,154.529L622.654,153.777L630.362,151.986L634.972,150.606L641.455,147.955L650.459,144.766L656.222,141.685L659.013,140.556L660.706,137.528L659.932,136.722L661.624,134.804L661.48,132.726L664.974,130.414L667.783,131.22L669.818,129.303L669.08,128.389L669.71,125.97L673.204,126.525L673.402,125.701L670.304,124.285L669.998,121.453L671.385,120.019L673.204,119.643L675.779,120.037L676.733,119.32L677.039,117.958L679.453,118.675L681.001,118.263L681.163,116.954L684.279,116.703L685.053,117.761L688.961,119.123L693.265,118.711L696.56,117.098L698.649,113.351L696.777,111.702L698.685,110.519L698.847,109.551L697.335,107.436L699.19,106.916L700.234,107.203L701.423,105.858L700.936,109.121L702.161,110.985L704.898,111.864L705.096,111.021L707.455,111.989L709.634,112.025L713.614,110.878L715.937,108.959L715.433,106.414L715.667,102.147L715.775,102.38L716.009,102.613L716.099,103.312L716.063,104.011L716.37,105.966L717.594,106.557L718.134,106.575L719.755,107.758L720.295,108.224L722.618,110.053L723.339,109.73L723.753,109.73L725.698,109.712L727.823,111.182L728.435,111.218L728.849,111.272L729.065,113.602L731.514,114.283L731.821,114.534L733.603,115.52L736.755,120.037L737.529,120.001L737.853,121.417L736.449,123.12L736.323,123.478L737.187,127.636L737.205,128.371L736.233,133.675L736.485,133.962L737.061,135.431L737.385,136.13L738.898,138.872L741.257,137.994L742.878,138.854L745.543,138.818L745.993,143.333L747.596,146.576L746.389,148.493L745.597,151.359L745.255,151.663L745.201,151.771L747.398,155.031L747.236,155.371L746.137,157.521L746.389,158.237L746.605,158.882L746.335,159.115L744.931,159.634L744.679,160.01L744.733,161.981L744.877,162.446L743.868,165.742L743.67,165.831L743.184,166.512L743.148,166.995L743.022,167.21L742.752,167.783L742.68,168.303L742.59,168.482L741.635,169.18L741.599,169.502L740.429,173.03L742.085,174.015L743.652,173.567L747.398,177.435L749.091,177.471L750.981,181.876L749.415,183.63L749.361,183.97L748.983,186.083L749.937,188.285L750.171,188.571L750.585,189.144L750.657,189.574L751.306,192.152L752.746,194.801L753.773,199.079L754.925,201.048L754.691,201.37L755.051,201.96L753.323,203.983L753.16,204.162L753.088,204.305Z"
          fill="#e0e0e0"
          stroke="#333333"
          stroke-width="1"
          stroke-linejoin="round"/>
  </g>
</svg>