<?xml version="1.0" encoding="UTF-8"?>
<svg xmlns="http://www.w3.org/2000/svg"
     viewBox="237.81026446165924 -20 324.37947107667424 640"
     width="324.37947107667424"
     height="640">
  <title>島根県</title>
  <desc>都道府県コード: 32</desc>
  <g id="32">
    <path d="M487.082,344.443L486.943,345.195L486.347,344.663ZM513.479,342.571L513.639,342.954L513.166,342.914ZM518.162,341.558L518.82,341.737L518.389,341.952L518.548,342.366L518.034,342.09L517.438,342.167L517.782,341.609ZM499.24,338.759L499.651,338.892L498.901,339.389L499.152,340.141L498.957,340.581L497.944,339.987L498.422,339.772L498.335,339.337ZM503.419,416.519L503.383,416.595L503.686,417.329L503.661,417.426L503.589,417.573L503.532,417.68L503.435,417.95L503.476,418.108L503.964,418.581L504.416,418.429L504.504,418.408L504.54,418.347L504.545,418.23L504.653,418.077L504.689,418.016L504.961,417.925L505.054,417.935L505.481,417.879L505.599,417.848L506,417.639L506.077,417.441L506.159,417.339L506.267,417.324L506.318,417.359L506.318,417.426L506.462,417.476L506.622,417.466L507.084,418.133L507.218,418.154L507.506,418.159L508.102,418.678L508.184,418.663L508.226,418.663L508.277,418.709L508.539,419.086L508.858,420.058L508.889,420.16L508.863,420.241L508.601,420.654L508.431,421.519L508.472,421.647L509.038,422.237L509.675,422.415L509.742,422.543L509.85,423.179L509.932,423.25L510.308,423.688L510.374,423.78L510.359,424.166L510.349,424.345L510.374,424.487L510.374,424.599L510.575,425.286L510.57,425.429L510.272,426.335L510.21,426.421L510.112,426.559L510.092,426.61L510.097,426.737L509.506,427.037L509.454,427.185L508.807,427.948L507.984,428.157L507.835,428.141L507.398,428.457L506.611,428.63L506.509,428.686L506.329,428.844L506.246,428.879L506.139,429.042L506.103,429.149L505.784,429.531L505.157,429.683L505.095,429.663L504.386,429.566L504.087,429.76L504,429.877L504.036,430.269L504.01,430.436L503.558,430.828L503.481,430.889L503.445,430.915L503.316,430.986L503.003,431.296L502.91,431.347L502.895,431.373L502.885,431.525L502.879,431.652L502.828,431.78L502.915,431.958L502.622,432.192L502.607,432.232L502.617,432.578L502.607,432.64L502.448,432.975L502.376,433.047L502.525,434.044L502.509,434.186L502.597,434.669L502.273,435.127L502.165,435.163L501.954,435.254L501.913,435.392L501.533,435.814L501.754,436.557L501.774,436.684L502.221,437.386L502.237,437.538L502.386,438.032L502.386,438.098L502.412,438.443L502.376,438.535L502.072,438.744L502.005,438.805L501.466,439.466L501.651,440.005L501.414,440.223L501.26,440.32L501.25,440.371L501.26,440.457L500.946,441.413L500.977,441.459L501.039,441.693L500.967,441.724L501.183,441.932L501.173,442.034L501.07,442.43L501.826,443.198L501.872,443.274L501.635,443.508L501.553,443.523L501.481,443.844L501.569,443.884L501.723,444.271L500.905,444.672L500.839,444.672L500.674,444.545L500.571,444.413L500.546,444.362L500.556,444.306L500.515,444.271L499.99,444.306L499.898,444.261L499.785,444.245L499.697,444.205L499.271,444.144L499.204,443.417L498.947,443.203L498.849,443.162L498.35,442.624L498.243,442.618L498.191,442.603L498.052,442.517L496.747,442.385L495.996,443.035L494.953,442.949L494.819,442.801L494.577,442.654L494.474,442.654L494.243,442.42L492.418,443.839L492.321,443.727L491.786,443.391L491.354,443.381L491.19,443.33L490.156,443.061L490.064,443.081L490.038,443.122L489.966,443.168L489.796,443.371L489.709,443.503L489.447,443.32L488.249,443.29L487.463,444.54L487.416,444.657L487.303,445.008L487.247,445.079L487.134,445.196L487.067,445.293L486.99,445.491L485.509,446.02L484.574,445.943L484.265,445.898L483.802,445.893L483.407,444.876L483.15,444.85L482.651,444.205L482.589,444.154L482.332,443.971L481.16,443.854L481.037,443.834L481.001,443.712L480.734,443.213L480.965,443.127L480.965,442.888L480.898,442.756L480.97,442.344L480.261,441.744L480.178,441.693L480.106,441.673L479.932,441.673L479.546,441.398L478.903,441.429L478.657,440.834L478.605,440.722L478.641,440.366L478.467,440.325L477.793,439.766L477.372,439.923L477.32,439.928L477.228,439.893L477.161,439.852L476.806,439.201L476.595,439.313L476.446,439.333L476.092,439.425L475.994,439.45L475.912,439.501L475.382,440.035L475.32,440.254L474.786,441.317L474.817,441.424L474.693,442.181L474.323,442.501L474.22,442.578L474.128,442.913L473.963,443.02L473.65,443.178L473.429,443.229L473.156,443.274L473.033,443.259L472.812,443.427L472.637,443.584L470.545,444.017L470.478,444.052L470.128,444.434L469.753,444.383L469.645,444.367L469.573,444.317L469.496,444.24L469.362,444.174L469.332,444.144L469.255,444.113L468.946,443.727L468.149,443.218L467.789,443.183L467.753,443.107L467.64,443.03L467.589,442.959L467.43,442.72L467.394,442.715L467.214,442.832L467.085,442.918L467.023,442.934L466.802,443.015L466.679,443.046L466.371,443.208L466.314,443.244L465.99,443.274L465.99,443.142L465.8,442.791L465.743,442.715L465.409,442.649L465.348,442.679L465.142,442.735L464.993,442.598L463.79,442.354L463.739,442.313L463.338,442.252L463.05,441.51L462.438,440.879L462.382,440.757L462.238,440.157L461.317,438.993L461.364,438.85L461.379,438.723L461.245,438.621L461.148,438.606L459.873,438.316L458.901,438.621L458.763,438.749L458.752,438.815L458.598,438.855L458.444,438.881L458.146,439.105L457.328,438.998L456.886,439.461L456.881,439.578L456.182,439.873L456.1,439.908L455.848,440.071L455.75,440.056L455.359,440.325L455.102,440.915L455.169,441.301L454.717,441.8L454.593,441.896L453.792,442.603L453.684,442.654L452.81,443.356L452.635,444.128L452.419,444.296L452.373,444.317L452.337,444.357L452.239,444.449L451.91,444.891L451.884,445.099L451.53,445.491L451.206,445.643L450.543,446.284L450.46,446.32L450.352,446.609L450.296,446.706L449.864,447.138L449.823,447.311L449.962,447.438L450.034,447.468L450.62,448.465L450.635,448.546L450.764,448.683L450.846,448.775L451.494,449.39L451.303,450.005L451.298,450.167L451.293,450.193L451.247,450.213L450.856,450.279L450.702,450.249L450.347,450.462L450.296,450.447L450.07,450.198L449.998,450.177L449.756,450.167L449.7,450.218L449.453,450.32L449.376,450.376L448.106,451.041L448.003,451.077L447.967,451.174L447.906,451.189L447.484,451.489L447.448,451.539L447.319,452.54L447.227,452.581L446.852,452.708L446.821,452.754L446.898,453.425L446.78,453.542L446.446,453.928L446.389,453.984L446.302,454.207L446.245,454.263L446.024,454.563L445.983,454.654L445.345,455.051L445.304,455.076L444.975,455.376L444.867,455.427L444.41,455.604L444.256,455.675L443.978,455.996L443.911,456.062L443.721,456.239L443.654,456.244L443.572,456.234L443.526,456.275L443.063,456.996L443.017,457.408L443.012,457.499L443.12,458.043L443.135,458.119L443.202,458.327L443.197,458.525L442.806,458.957L442.241,458.983L442.143,459.028L441.87,459.399L441.783,459.496L441.459,459.917L440.616,460.191L439.516,460.349L439.47,460.862L439.156,461.126L439.747,461.466L439.485,461.807L440.03,462.929L439.259,463.162L439.146,463.477L438.488,463.95L438.364,463.945L438.21,464.112L438.159,464.163L437.871,464.28L437.47,463.955L437.1,464.071L436.946,464.031L436.714,463.95L436.658,464.148L436.128,464.371L436.617,465.001L436.653,465.128L436.755,465.163L436.874,465.224L436.817,465.366L436.776,465.442L437.187,466.133L437.403,466.382L437.069,466.473L436.977,466.509L436.925,466.656L437.028,466.676L437.074,466.742L437.023,467.027L436.889,467.717L436.396,467.91L436.195,467.9L435.918,468.077L435.871,468.123L435.871,468.326L435.727,468.499L435.573,468.423L435.475,468.448L435.378,468.011L435.373,467.905L435.162,467.285L435.018,467.692L434.211,467.996L434.072,468.291L433.239,468.489L433.044,469.047L433.203,469.113L432.509,469.743L432.448,469.819L432.036,470.194L431.445,469.809L431.45,469.651L431.234,469.377L431.188,469.321L430.633,469.23L430.371,468.875L430.309,468.885L429.703,468.946L429.667,469.052L429.62,469.093L429.543,469.083L428.988,469.494L428.392,469.052L427.667,469.372L426.49,469.534L426.356,469.595L426.094,470.509L425.672,470.946L425.657,471.052L425.163,471.966L424.675,473.265L423.976,473.666L423.405,473.605L423.205,473.666L423.04,474.108L422.984,474.305L422.639,474.569L422.578,474.656L421.997,475.224L421.822,475.295L421.488,475.249L421.431,475.219L421.123,475.351L421.046,475.452L420.701,475.747L420.619,475.742L420.634,476.29L420.146,477.086L420.151,477.157L420.146,477.183L420.105,477.213L419.987,477.35L419.961,477.446L419.905,477.776L419.411,477.908L419.339,477.923L419.123,478.811L418.846,479.151L417.74,478.913L417.751,479.912L417.874,480.059L418.028,480.146L418.208,480.176L418.666,480.11L419.113,480.069L419.827,480.019L419.905,479.978L420.424,479.735L421.159,479.948L421.323,479.988L421.688,480.44L422.125,481.754L422.274,481.835L422.973,481.896L423.225,481.794L424.449,481.008L424.901,481.262L425.138,481.759L425.323,482.915L425.883,483.042L426.248,482.991L426.433,482.981L427.364,483.316L427.729,483.291L427.929,483.326L428.633,483.468L428.983,483.854L429.538,486.648L429.589,487.099L429.852,487.677L430.16,487.961L430.191,487.987L430.294,488.139L430.453,489.229L430.412,490L429.975,490.228L429.821,490.309L429.343,490.334L428.438,491.394L427.662,491.272L427.497,490.983L427.487,490.882L427.22,490.623L427.245,489.847L426.731,489.858L426.613,489.842L426.495,489.873L426.238,489.822L426.166,489.792L425.605,489.847L425.436,489.619L424.85,490.294L424.67,490.375L424.557,490.709L424.516,490.765L424.182,490.856L423.755,492.179L423.775,492.301L423.647,492.61L423.626,492.686L423.657,492.915L423.58,493.001L423.544,493.072L423.539,493.087L423.606,493.224L423.642,493.325L423.272,493.548L423.117,493.487L422.572,493.482L422.449,493.533L421.997,493.533L421.827,493.203L421.786,493.163L421.262,492.778L421.179,492.712L420.892,492.408L420.845,492.032L420.136,491.936L419.971,491.972L419.411,492.489L418.419,492.134L418.11,491.855L417.992,492.19L417.951,492.109L417.545,491.992L417.458,491.911L417.488,491.434L416.445,491.389L416.224,491.378L415.597,491.541L415.468,491.414L414.512,491.424L414.615,491.617L414.419,491.754L414.312,491.906L414.296,491.997L414.306,492.093L414.06,491.946L414.06,492.656L414.075,492.686L414.157,493.371L413.679,493.589L413.438,493.589L413.294,493.538L413.186,493.553L412.826,493.888L412.738,493.878L412.147,493.406L411.993,493.279L411.685,493.807L411.577,493.878L411.592,493.923L411.587,493.989L410.8,494.602L410.759,495.337L410.667,495.474L410.405,495.829L410.276,495.814L410.178,495.758L410.137,495.763L410.06,495.712L409.803,495.398L409.207,496.594L407.017,497.709L406.796,498.459L406.801,498.606L406.806,498.738L406.77,498.814L406.472,498.849L406.349,498.829L405.716,498.586L405.603,498.621L405.434,498.611L405.357,498.657L404.642,498.449L404.524,498.383L403.922,498.809L403.151,499.731L403.09,499.893L403.012,500.02L402.93,500.142L402.925,500.177L402.874,500.299L402.899,500.486L402.832,500.577L401.964,501.038L401.851,501.064L401.758,501.033L401.439,500.902L401.352,500.856L401.1,500.668L401.049,500.592L400.843,500.577L400.689,500.547L400.062,500.283L398.91,499.295L398.813,499.25L398.73,499.255L398.226,499.513L398.155,499.64L398.098,499.685L397.995,499.706L397.897,499.782L397.815,499.822L397.759,499.893L397.615,499.837L397.414,499.767L396.72,500.831L396.181,500.724L395.728,500.152L395.625,500.157L395.291,500.299L394.967,500.015L394.818,499.843L394.304,500.172L393.888,500.081L393.816,500.152L393.029,500.618L392.88,500.633L392.783,500.598L392.675,500.496L392.248,500.06L391.467,500.192L391.256,499.843L391.174,499.812L390.917,499.599L389.205,499.584L389.086,499.615L388.542,499.549L387.981,499.914L388.079,499.422L388.305,499.25L388.459,498.794L388.418,498.647L387.935,498.181L386.809,497.562L386.516,497.268L386.614,497.142L386.187,496.625L386.043,496.599L385.935,496.483L385.75,496.427L385.061,495.829L384.609,496.017L384.511,496.589L383.951,497.187L383.262,497.537L382.486,497.248L382.501,497.679L383.041,498.662L382.995,499.473L383.103,499.615L383.041,499.908L383.067,500.035L382.835,500.461L382.363,500.598L381.417,500.491L381.103,500.972L380.137,501.727L380.116,502.163L379.612,502.736L379.453,502.837L379.042,503.04L378.985,503.126L378.785,503.855L378.779,503.941L378.718,504.093L378.6,504.068L378.44,504.174L377.813,503.333L377.592,503.293L377.356,503.582L376.919,503.531L376.543,503.095L375.916,502.908L376.004,502.249L375.983,502.102L376.194,501.104L375.577,500.405L375.366,500.218L375.34,500.202L375.155,500.111L374.636,499.827L374.441,499.817L374.307,499.858L373.891,499.848L373.706,499.853L373.402,499.908L372.991,499.99L372.786,500L372.153,500.334L372.025,500.461L371.937,500.567L371.855,500.668L371.613,500.653L371.377,500.542L371.207,500.476L371.069,500.44L370.19,501.378L369.053,501.829L368.961,501.859L368.555,502.047L368.38,502.026L368.287,502.016L367.845,501.96L367.763,501.895L367.393,501.793L367.244,501.768L367.167,501.692L367.11,501.636L366.416,501.408L366.344,501.388L366,500.907L365.948,500.841L365.861,500.709L365.784,500.674L365.681,500.592L365.63,500.415L365.594,499.802L365.347,499.767L365.183,499.787L365.044,499.772L365.013,499.827L364.874,500.197L364.812,500.339L364.021,500.998L363.939,501.069L363.419,501.398L363.383,501.454L363.378,501.525L363.394,501.727L363.486,501.971L363.543,502.031L362.998,502.751L362.895,502.781L362.838,502.943L362.808,503.019L362.73,503.11L362.535,503.268L362.53,503.384L362.463,503.931L362.401,504.103L362.108,504.782L362.047,504.747L361.759,504.504L361.651,504.417L361.353,504.255L361.291,504.245L361.25,504.26L361.193,504.311L360.767,504.443L360.186,504.083L360.001,504.022L359.96,504.007L359.903,503.967L359.512,503.531L359.42,503.435L359.168,503.379L359.122,503.293L359.05,502.852L359.029,502.766L358.942,502.644L358.968,502.599L358.973,502.487L359.009,502.361L358.926,501.991L358.87,501.955L358.279,501.758L358.253,501.439L358.289,501.378L358.34,501.352L358.453,501.261L358.813,500.77L358.865,500.684L358.875,500.405L358.844,500.294L358.572,500.152L358.474,500.126L357.744,500.218L357.657,500.339L357.631,500.37L357.585,500.41L357.359,500.324L357.317,500.258L357.024,499.559L356.978,499.493L356.803,499.452L356.449,499.179L356.341,499.209L355.76,498.677L355.39,498.637L355.318,498.616L355.03,498.601L354.968,498.672L354.063,498.647L353.837,498.697L353.251,498.733L353.179,498.682L352.439,499.26L352.341,499.427L352.408,500.192L352.495,500.207L352.619,500.187L352.727,500.283L353.025,500.506L353.03,500.744L352.938,500.972L352.922,501.043L352.938,501.748L352.927,501.895L352.912,502.178L352.86,502.214L352.768,502.457L352.717,502.548L352.799,502.822L352.835,502.898L352.984,503.333L352.953,503.48L352.531,504.129L351.884,504.696L351.39,504.807L351.318,504.873L351.586,505.344L351.051,505.38L350.964,505.42L350.583,505.957L350.47,505.973L350.419,505.988L350.264,506.038L350.1,506.352L350.12,506.489L350.09,506.631L350.126,506.702L350.331,506.98L350.347,507.061L350.177,507.31L350.079,507.376L349.673,507.786L349.642,507.821L349.632,507.907L349.606,507.978L349.982,508.611L349.833,508.91L349.781,509.021L349.442,509.796L349.514,509.908L349.596,510.222L349.478,510.313L349.149,510.46L349.041,510.515L348.013,511.113L347.751,511.143L347.524,511.163L347.468,511.143L347.442,511.052L347.01,510.936L346.332,510.389L345.941,510.713L345.869,510.794L345.838,510.956L345.71,510.986L345.396,511.113L345.329,511.169L345.293,511.837L345.268,511.872L345.185,511.999L345.232,512.065L345.17,512.622L344.599,512.657L344.152,513.209L344.142,513.3L344.096,513.427L344.044,513.422L343.535,513.325L343.443,513.396L343.35,513.396L343.15,513.31L343.011,513.27L342.893,513.25L342.62,513.017L342.497,512.915L342.25,512.799L342.05,513.361L341.13,514.217L340.703,514.227L340.184,514.576L340.194,514.682L339.983,514.991L339.433,515.108L339.366,515.108L339.258,515.082L339.243,515.239L339.089,515.351L338.95,515.457L338.883,515.528L338.539,515.548L338.482,515.588L338.328,516.049L338.323,516.13L337.87,516.363L337.86,516.459L337.382,516.611L337.331,516.611L336.832,516.773L336.765,516.788L336.467,516.97L336.297,517.628L336.41,517.709L336.205,518.18L336.148,518.195L335.953,518.205L335.891,518.226L335.84,518.281L335.768,518.327L335.619,518.297L335.542,518.271L335.197,518.701L334.673,518.722L334.575,518.641L334.462,519.253L334.483,519.314L334.514,519.8L334.395,520.012L334.221,520.286L334.277,520.336L334.39,520.432L334.472,520.442L334.56,520.437L335.259,520.771L335.346,520.893L335.382,521.237L336.323,521.895L336.688,521.419L336.77,521.46L337.212,521.51L337.284,521.581L337.372,521.611L337.572,521.556L338.534,521.601L338.703,521.642L338.857,521.667L338.945,521.697L339.089,521.996L339.053,522.128L339.407,522.694L339.392,522.801L339.258,523.301L339.325,523.322L339.454,523.868L338.95,523.985L338.847,523.954L338.405,524.46L338.323,525.138L338.359,525.26L338.179,525.538L338.081,525.563L338.014,525.654L337.937,525.745L337.778,526.195L337.166,526.934L337.099,527.061L337.176,527.546L337.166,527.698L336.554,528.34L336.488,528.391L336.493,528.507L336.169,529.064L336.045,529.18L336.004,529.418L335.948,529.443L335.902,529.473L335.83,529.58L335.619,529.843L335.516,529.863L335.367,530.409L335.403,530.475L335.048,530.591L334.966,530.596L334.966,531.319L334.909,531.446L334.889,531.461L334.832,531.461L334.508,531.588L334.442,531.603L334.349,531.699L334.308,531.795L333.933,531.921L333.758,532.473L333.984,532.746L334.041,532.907L334.385,533.368L334.39,533.464L334.447,533.555L334.436,534.46L334.138,534.662L334.061,534.687L333.953,534.743L333.753,534.824L333.737,535.067L333.691,535.087L333.521,535.148L333.455,535.249L333.064,535.855L332.966,535.972L332.925,536.801L332.863,536.887L332.257,537.696L332.211,537.746L332.077,537.903L332.169,538.029L332.128,538.146L332.164,538.262L332.077,538.975L332.267,539.551L332.324,539.586L332.257,539.971L332.725,540.183L332.786,540.223L333.09,540.466L333.187,540.592L333.321,540.703L333.419,540.794L333.635,540.956L333.768,541.007L334.251,541.234L334.051,541.75L333.599,542.215L333.557,542.321L333.403,542.553L333.419,542.604L333.583,543.559L333.563,543.711L332.863,544.226L332.622,544.342L332.334,544.625L332.293,544.721L332.488,545.868L331.964,546.849L331.969,547.046L331.609,547.844L330.781,548.344L330.679,548.38L330.499,548.764L330.53,548.865L329.419,549.314L329.322,549.405L328.52,550.794L327.584,551.375L327.224,552.239L327.173,552.28L326.679,552.886L326.576,552.936L326.006,553.083L325.358,553.007L324.967,553.406L324.803,553.426L324.417,553.497L324.309,553.497L323.929,553.527L323.867,553.431L323.364,553.578L323.281,553.643L323.292,553.865L323.194,553.982L322.968,554.047L322.808,554.138L322.32,554.482L321.451,554.34L321.276,554.699L321.251,554.83L320.701,556.108L320.685,556.158L320.608,556.638L320.875,557.113L320.582,557.916L320.063,558.617L320.027,558.638L319.693,559.042L319.606,559.132L319.107,559.865L319.035,559.92L318.835,560.208L318.963,560.274L319.03,560.289L319.112,560.359L319.215,560.486L319.282,560.526L319.369,560.47L319.482,560.445L319.508,560.44L319.58,560.374L320.207,560.435L320.315,560.405L320.413,560.38L320.48,560.369L320.603,560.369L320.649,560.344L321.426,560.642L321.672,561.207L322.222,561.546L322.402,561.727L322.695,562.015L322.69,562.237L322.711,562.353L322.711,562.459L322.582,562.707L322.541,562.777L322.51,562.919L322.49,562.984L322.407,563.07L322.31,563.257L322.294,563.388L322.284,563.787L322.279,563.848L322.253,563.949L322.382,564.352L322.963,564.645L323.014,564.837L323.096,564.918L323.148,564.983L323.235,565.14L323.276,565.175L323.374,565.19L323.446,565.205L323.533,565.276L323.605,565.523L323.914,565.973L323.78,566.366L324.135,566.916L323.872,566.795L323.405,566.674L322.721,566.886L322.598,566.866L322.135,566.891L322.037,566.881L321.441,567.194L321.035,567.174L320.932,566.906L320.845,566.684L320.819,566.659L320.3,566.578L320.156,566.603L319.868,566.699L319.801,566.78L319.647,566.856L319.488,566.805L319.153,566.75L319.04,566.785L318.963,566.8L318.922,567.199L318.819,567.27L318.809,567.3L318.788,567.391L318.588,567.714L318.521,567.779L317.693,567.986L317.632,568.021L317.478,568.132L317.375,568.127L317.272,568.067L317.22,568.067L316.758,568.168L316.634,568.223L316.604,568.309L316.645,568.41L316.439,568.945L316.367,568.955L315.622,569.55L315.596,569.611L315.55,569.777L315.493,569.803L315.349,570.03L315.334,570.055L315.401,570.333L315.457,570.438L315.442,570.605L315.421,570.787L315.57,571.579L315.498,571.654L315.575,572.204L315.611,572.26L315.349,573.087L315.293,573.133L315.231,573.133L315.18,573.148L314.542,573.894L314.46,574.071L313.977,574.061L313.823,574.015L313.226,574.434L312.913,574.52L312.445,574.777L312.301,575.468L312.203,575.751L311.956,576.008L311.921,576.306L311.283,577.415L311.144,577.617L311.119,577.849L311.694,578.202L311.787,578.752L312.167,578.847L312.28,578.948L312.656,580.476L312.774,580.683L312.954,581.283L313.036,581.364L313.987,582.397L313.925,582.644L313.977,582.69L314.069,582.765L314.1,582.841L314.074,582.897L314.023,582.922L313.946,583.219L313.982,583.28L314.851,583.905L315.02,584.091L315.02,584.102L314.964,584.197L314.907,584.57L314.902,584.722L314.727,585.463L314.738,585.569L314.794,585.77L314.887,586.446L314.861,586.572L314.619,587.197L314.537,587.262L314.229,587.313L314.162,587.333L314.054,587.524L314.002,587.56L312.908,587.293L312.81,587.358L312.707,587.403L312.424,587.539L311.859,588.396L311.823,588.543L311.823,588.835L311.797,588.971L310.892,590.09L310.815,590.191L310.61,590.231L310.522,590.291L310.075,590.332L309.576,591.128L309.659,591.662L309.638,591.788L309.53,591.909L309.438,591.975L308.733,592.136L308.502,592.257L308.584,592.539L308.723,593.894L308.291,595.028L308.158,595.174L308.101,595.23L308.065,595.305L307.885,595.794L307.186,595.975L307.027,595.89L306.543,596.076L306.502,596.277L306.43,596.323L306.302,596.348L306.61,597.401L306.698,597.643L306.322,598.942L306.24,598.978L305.942,599.275L305.438,598.952L305.387,598.514L304.528,597.617L303.953,596.524L303.634,596.398L303.624,596.247L303.695,596.01L303.762,595.869L303.685,595.799L303.474,595.859L303.438,595.854L303.341,595.718L302.503,595.058L301.804,594.957L301.701,594.962L301.603,594.57L301.526,594.318L300.806,593.607L300.375,593.673L299.783,593.431L299.475,592.942L299.182,593.169L299.018,593.219L298.961,593.29L298.57,593.884L298.462,594.182L298.02,595.124L297.876,595.25L296.822,595.955L296.704,596.177L296.658,596.308L296.185,596.771L296.139,596.907L296.123,596.892L296.057,596.791L295.738,596.373L295.661,596.328L295.614,596.277L295.604,596.202L294.869,595.779L294.802,595.728L294.406,595.406L294.386,595.27L294.314,595.159L294.216,595.104L293.985,595.3L293.99,595.965L293.584,596.282L293.98,597.799L293.79,598.408L293.096,598.806L293.024,598.746L292.623,598.68L292.53,598.68L291.816,598.806L291.738,598.852L291.409,599.325L291.327,599.406L290.808,599.471L290.751,599.441L290.201,599.431L290.093,599.466L289.996,599.456L289.836,599.426L289.826,599.491L289.662,599.622L289.574,599.612L289.245,599.562L289.204,599.537L289.178,599.516L289.014,599.401L288.839,599.325L288.798,599.285L288.752,599.255L288.603,599.26L288.515,599.275L288.263,599.239L288.109,599.234L287.554,598.917L287.477,598.842L287.425,598.771L287.395,598.58L287.153,598.348L286.31,598.746L286.228,598.776L286.109,598.771L286.017,598.796L285.78,598.318L285.313,598.313L285.158,598.831L285.174,598.978L285.03,599.859L284.927,599.909L284.649,600L284.572,599.914L284.49,599.788L283.657,599.491L283.447,599.522L283.246,599.94L282.897,599.955L282.578,598.842L282.526,598.751L282.434,598.554L282.367,598.449L281.843,598.066L281.19,598.227L281.056,598.136L280.722,598.066L280.285,597.507L280.177,597.295L279.894,597.124L279.802,597.144L279.139,596.827L279.092,596.766L279.098,596.635L279.067,596.509L279.036,595.224L278.871,595.083L278.702,594.978L278.573,594.842L278.496,594.731L278.198,594.58L278.044,594.534L277.699,594.786L277.232,594.554L277.077,594.166L276.959,594.136L276.347,593.799L275.988,593.955L275.473,593.068L275.571,592.524L276.209,591.833L276.281,591.617L276.029,589.843L274.913,589.364L274.661,588.553L274.25,587.862L273.998,587.792L273.921,587.706L274.163,587.293L274.224,587.232L274.034,586.168L274.25,585.538L273.685,585.135L273.695,584.727L273.664,584.495L273.633,584.359L273.638,584.303L274.106,583.587L274.204,583.502L275.15,583.048L275.263,582.029L275.443,581.626L275.566,581.47L275.864,581.187L275.982,581.041L276.116,580.829L276.162,580.784L276.682,580.643L276.882,580.623L276.964,580.592L277.154,580.527L277.262,579.357L277.684,578.822L277.54,577.859L278.023,577.022L278.121,576.896L278.255,576.568L278.332,576.371L278.383,576.29L278.45,576.134L278.527,575.806L278.527,575.67L278.722,575.277L278.753,575.181L278.825,573.93L278.892,573.874L278.62,573.405L278.65,573.228L278.075,573.329L277.874,573.486L277.453,573.582L276.481,573.345L276.317,573.345L276.198,573.38L276.044,573.4L275.18,573.471L274.836,573.057L274.507,573.289L274.358,573.334L273.284,573.743L272.543,573.244L272.502,573.138L272.559,572.931L272.62,572.674L272.579,572.578L272.158,572.542L272.106,572.633L271.721,572.668L271.659,572.759L271.644,572.779L271.582,572.916L270.605,573.43L270.184,574.283L270.055,574.414L269.988,574.651L269.382,574.762L268.724,574.434L268.621,574.409L268.606,574.328L267.912,573.96L267.824,574.01L267.238,574.555L266.616,574.742L266.22,574.616L266.143,574.55L266.02,574.495L265.902,574.53L265.269,574.782L265.202,574.752L264.987,574.505L264.935,574.424L264.575,574.066L264.498,573.985L264.087,573.733L264.051,573.632L263.491,573.284L262.781,573.445L262.653,573.385L262.128,571.831L262.401,571.337L262.473,571.296L262.612,571.271L262.807,570.645L262.915,570.499L262.966,570.005L262.581,569.661L262.524,569.677L262.509,569.672L262.463,569.576L262.38,569.308L262.344,569.248L262.55,569.026L262.375,568.218L262.159,567.996L262.159,567.915L262.206,567.042L262.935,566.427L263.069,565.715L263.121,565.533L262.493,564.287L262.031,564.125L261.429,564.418L261.26,564.605L260.648,564.635L260.607,564.685L260.196,564.64L260.072,563.141L260.129,563.065L260.185,562.187L260.154,562.116L260.16,562.015L260.154,561.808L259.784,561.773L259.62,561.505L259.065,560.228L258.011,559.865L257.821,559.496L257.81,559.38L257.821,559.117L257.846,558.966L257.908,558.698L257.975,558.542L257.934,558.421L258.515,558.289L258.581,558.284L258.705,558.198L258.756,558.022L259.116,557.693L259.126,557.502L259.131,557.491L259.306,557.39L259.558,557.042L259.666,557.002L259.908,556.88L260.273,556.633L260.391,556.678L260.694,557.027L261.09,556.148L262.344,555.643L263.357,554.275L263.753,553.967L263.779,553.941L264.061,553.633L264,553.527L263.845,553.441L263.763,553.168L263.717,553.118L263.542,553.052L263.254,552.84L263.27,552.744L263.321,552.643L263.424,552.552L263.609,552.35L263.768,552.199L264.046,551.396L263.825,551.188L263.64,550.284L263.275,550.173L263.671,549.249L263.65,549.127L263.851,548.794L263.897,548.718L263.948,548.551L263.686,548.051L263.593,547.783L263.588,547.349L263.701,547.303L264.169,547.698L264.329,547.662L264.539,547.718L264.663,547.778L264.704,547.794L264.832,547.748L265.305,547.804L265.454,547.223L265.521,547.116L265.588,547.066L265.675,546.95L265.778,546.869L265.758,546.773L266.112,546.192L266.287,546.04L266.513,545.848L267.161,545.954L267.521,545.206L267.649,545.121L267.691,545.065L267.29,544.246L266.57,543.943L266.477,542.75L266.441,542.634L266.477,542.002L266.267,540.966L265.999,540.547L266.225,540.279L266.38,540.249L265.948,539.278L265.979,538.924L266.061,538.732L266.169,537.63L266.087,537.59L265.516,537.681L265.454,537.665L264.827,537.408L264.802,537.751L264.221,537.731L263.11,537.059L262.349,536.24L262.262,536.164L262.277,536.113L262.313,535.951L262.416,535.825L262.277,535.218L262.262,535.087L262.267,535.031L262.247,534.96L262.303,534.606L262.37,534.414L262.833,533.934L262.648,533.605L262.576,533.494L262.802,532.179L262.802,532.022L262.776,531.957L262.622,531.84L262.653,531.673L262.663,531.618L262.637,531.567L263.121,530.778L263.141,530.687L263.203,530.429L263.121,530.434L262.961,530.485L262.833,530.566L262.247,530.424L262.19,530.353L262.216,530.08L262.319,529.964L262.488,529.529L262.452,529.423L262.211,528.983L262.123,528.988L262.02,529.043L261.758,529.079L261.26,528.897L261.265,528.816L261.229,528.507L261.193,528.239L261.398,527.764L261.445,527.632L260.545,526.813L260.519,526.585L260.447,526.484L260.905,526.342L261.203,525.867L261.244,525.654L261.275,525.568L261.183,525.487L261.167,525.361L261.254,525.017L261.265,524.926L261.568,524.02L261.625,524.809L262,524.764L262.545,525.057L262.812,524.951L263.234,525.426L263.856,525.745L264.647,525.158L265.578,525.629L266.462,524.926L266.945,524.986L267.269,525.523L269.017,525.391L270.724,525.133L272.158,524.698L273.438,524.435L275.057,523.752L275.993,523.565L276.954,523.048L278.039,522.927L279.756,522.431L281.462,521.789L281.678,521.465L282.377,521.348L283.19,520.847L284.428,520.306L286.932,518.6L288.053,517.725L288.839,516.657L288.988,516.16L288.649,515.695L289.291,515.477L289.811,515.675L290.356,515.199L290.433,514.525L290.643,514.495L291.384,513.685L291.373,513.108L291.106,512.774L291.337,512.556L291.07,512.171L291.512,512.282L291.985,511.7L291.975,511.376L291.029,510.875L290.834,509.806L290.566,509.791L290.376,509.067L291.116,508.885L291.06,508.464L292.232,508.161L292.525,508.52L292.982,508.312L294.113,508.799L294.741,508.226L294.36,507.477L294.941,507.715L295.27,507.573L295.424,506.727L295.116,506.261L295.774,504.954L296.098,505.289L296.781,504.98L297.48,505.041L297.933,505.415L298.627,505.279L298.889,504.423L299.002,503.384L300.056,502.335L300.488,503.754L301.141,503.131L301.377,503.501L301.567,502.589L302.035,502.087L302.559,502.376L303.87,501.586L304.297,500.461L304.266,499.767L304.76,499.503L305.037,498.834L304.744,498.069L305.31,497.806L305.562,497.37L305.448,496.827L306.698,496.381L306.754,495.971L307.577,496.022L307.823,495.469L308.255,495.378L308.81,495.778L310.065,494.694L310.579,494.663L311.221,494.156L311.458,492.925L311.828,492.985L311.617,491.967L312.023,491.485L312.352,491.526L314.105,490.542L314.064,490.243L314.686,489.371L315.318,488.134L315.144,487.819L314.66,487.865L314.352,487.733L314.285,487.216L313.93,487.312L313.864,486.775L314.1,486.298L314.511,486.435L315.061,485.872L315.478,485.842L316.028,485.4L316.403,485.598L317.159,485.502L317.226,484.903L317.863,484.939L317.678,484.259L318.393,484.254L318.922,483.803L319.446,483.843L319.719,484.219L320.469,484.259L320.464,484.548L319.488,485.121L320.125,485.497L321.302,485.725L322.191,485.324L322.49,484.34L322.012,484.158L321.765,483.311L322.536,483.032L322.31,482.109L323.615,481.429L323.173,480.795L323.379,480.648L324.058,481.774L324.474,481.459L323.4,480.085L323.292,478.872L324.366,478.202L324.89,478.426L324.757,478.634L325.307,479.019L325.636,478.816L325.517,477.837L325.805,477.284L325.178,477.72L325.209,478.228L324.561,477.264L324.89,476.736L324.957,476.097L325.399,476.229L325.857,475.731L325.728,475.28L326.217,475.437L326.335,474.991L326.931,474.666L326.592,474.067L326.787,473.656L327.26,473.458L327.805,473.62L327.677,473.24L328.113,473.245L328.211,472.91L329.018,473.077L329.568,473.417L330.432,472.631L330.74,471.504L330.098,470.758L330.771,470.123L331.188,470.017L331.146,469.54L331.409,469.149L331.583,469.54L332.236,469.534L333.928,468.697L335.516,467.615L337.274,466.524L337.464,466.138L337.428,465.397L337.87,464.93L337.927,464.249L338.379,464.442L340.739,463.244L343.037,461.746L344.096,460.831L344.826,459.963L344.785,459.43L346.239,458.602L346.476,458.165L349.062,455.757L350.136,454.619L351.005,454.319L351.077,453.293L351.467,453.272L351.822,452.759L353.601,452.403L353.925,451.91L354.608,451.966L355.045,451.29L355.796,451.931L356.253,451.987L357.446,451.702L359.168,450.935L360.057,449.933L360.767,449.969L361.43,449.654L361.373,449.146L361.851,449.532L363.059,448.983L363.856,448.348L364.396,447.723L364.319,447.224L365.157,446.401L365.455,444.759L366.817,444.495L367.105,443.971L367.079,443.391L366.416,442.929L366.401,441.83L366.699,441.795L367.588,440.905L367.856,439.974L368.205,440.447L368.498,440.31L368.945,440.859L369.753,441.19L369.979,440.869L368.961,440.229L368.632,439.7L369.238,439.628L369.167,439.389L368.545,439.394L368.627,438.972L369.547,438.962L370.287,438.576L370.411,438.154L370.94,437.533L371.346,438.265L371.444,437.869L371.829,437.726L372.261,437.131L371.999,436.918L372.96,436.877L373.305,436.45L373.017,435.936L373.14,435.142L373.819,434.878L374.821,434.766L375.001,434.598L374.528,434.247L375.541,433.998L376.25,434.12L376.62,433.82L377.371,432.762L377.571,431.988L377.515,431.342L376.59,430.538L376.163,430.559L375.937,430.075L376.754,429.856L377.407,430.136L377.571,429.643L378.065,428.869L377.864,428.37L378.353,427.887L379.031,428.131L379.756,427.205L379.381,426.233L379.746,425.755L379.525,425.358L380.543,424.339L381.525,424.182L381.797,423.815L381.262,423.184L381.607,423.26L381.597,422.568L382.46,422.741L382.645,422.074L382.455,421.687L382.203,421.947L381.915,421.117L382.532,421.438L383.385,421.417L384.666,420.959L385.298,420.272L385.57,420.374L386.501,419.961L387.416,419.401L388.192,418.261L388.737,418.144L389.822,417.324L390.264,416.076L390.032,415.883L392.253,415.282L393.281,414.604L393.584,414.125L393.25,413.163L394.217,413.04L394.777,413.647L395.692,413.484L396.304,413.02L396.011,412.47L397.389,411.466L397.748,411.456L398.376,410.998L398.931,411.14L399.882,410.865L400.257,410.442L400.046,409.597L400.483,408.945L400.545,408.496L400.869,408.639L401.439,408.109L402.437,407.62L402.647,407.278L403.676,407.1L403.794,406.83L403.963,407.014L404.765,406.112L405.367,405.959L405.747,406.183L405.994,405.571L406.349,405.678L407.567,405.097L407.85,404.603L408.739,404.593L409.001,404.766L409.67,404.277L409.824,403.91L410.872,403.757L411.577,403.859L412.06,403.563L412.929,403.446L413.371,403.191L414.605,402.85L415.463,402.315L416.07,401.78L416.836,401.402L417.452,400.541L418.213,399.781L418.532,399.093L419.262,398.558L419.73,397.9L421.354,395.142L422.454,392.673L422.871,391.25L423.606,389.103L423.924,387.792L424.336,385.399L424.505,382.174L424.408,380.643L424.217,380.47L424.289,379.816L424.12,378.78L423.786,378.3L423.107,377.918L422.639,377.892L422.074,376.932L421.4,376.509L420.341,376.447L419.987,375.825L419.498,375.36L418.686,375.375L418.624,375.084L418.008,374.773L417.221,374.9L417.211,375.166L416.147,375.049L415.874,374.885L416.306,373.716L416.049,373.507L416.527,373.348L416.399,373.047L416.794,372.868L416.733,371.77L417.273,371.53L417.802,372.189L418.29,372.031L418.45,372.337L419.046,372.245L418.846,371.883L419.067,371.525L419.611,371.98L419.94,371.372L418.933,370.519L419.462,370.172L419.91,370.897L420.47,370.943L420.12,370.673L420.475,370.244L420.532,370.759L420.917,370.223L421.267,370.514L421.755,370.141L421.791,369.575L422.3,369.85L422.958,369.692L423.452,370.478L423.236,369.707L423.755,369.539L424.639,368.946L425.174,369.054L425.22,369.641L426.084,369.973L426.438,370.397L426.67,369.881L425.868,368.584L426.145,368.144L426.623,368.466L427.029,368.374L427.235,368.696L427.559,368.369L428.109,368.405L428.361,368.808L428.885,368.778L429.003,369.207L429.451,369.13L429.075,369.529L429.507,370.06L431.245,369.917L432.34,369.135L433.707,369.243L435.203,369.227L436.355,368.798L436.421,368.267L436.971,368.66L436.946,368.997L437.742,368.854L438.205,368.385L437.856,367.925L438.077,367.297L437.326,366.75L435.594,365.693L434.591,365.166L434.098,365.1L433.27,364.635L433.46,364.267L433.872,364.564L434.735,364.293L435.383,364.272L435.501,364.017L436.267,364.104L436.612,363.705L437.28,363.578L437.583,363.087L438.298,363.363L439.105,362.903L439.737,362.745L440.261,362.867L441.146,362.545L441.721,362.591L442.395,362.239L443.582,362.116L443.762,361.789L444.358,361.534L445.263,361.646L445.567,361.386L445.567,360.711L446.05,360.318L446.219,359.802L447.911,358.641L448.363,358.795L449.026,358.718L449.386,358.933L449.468,358.422L450.347,357.308L451.314,357.466L451.53,357.803L452.116,357.696L453.164,356.955L453.956,357.026L454.398,356.326L455.236,356.842L455.483,356.168L455.976,355.651L456.747,356.132L457.925,356.275L458.362,356.127L459.451,356.234L460.171,356.157L460.737,355.8L462.191,355.83L462.608,355.994L463.79,355.641L464.633,355.191L465.127,354.614L465.959,355.094L467.296,354.859L468.571,355.304L468.787,355.002L469.558,355.058L470.725,354.486L471.887,355.202L472.76,355.335L473.783,354.926L474.174,354.149L474.087,352.717L473.603,352.732L473.12,352.446L472.915,351.899L473.28,351.889L473.295,351.413L473.017,351.122L473.28,350.411L473.064,350.268L473.059,349.465L473.588,349.245L474.272,349.675L474.272,350.094L475.058,350.053L475.305,349.793L474.647,349.046L475.629,349.266L475.973,349.02L476.534,349.583L476.703,349.046L476.873,349.327L478.03,349.455L478.024,350.314L478.395,350.319L478.585,349.726L478.934,350.181L479.212,350.099L479.921,350.703L479.937,350.442L480.687,350.335L480.564,349.823L481.649,349.89L481.906,350.248L482.075,349.946L482.985,350.519L483.479,349.639L483.222,348.985L483.098,348.12L482.651,347.604L483.073,347.011L483.402,347.512L483.91,346.975L483.551,346.596L484.203,346.289L485.005,346.249L485.118,347.328L485.633,347.456L486.434,347.277L486.63,346.919L486.064,346.172L486.769,346.325L487.319,345.691L487.185,345.236L487.889,345.082L488.11,345.394L488.434,344.627L488.326,343.671L487.278,343.2L486.404,343.031L486.177,342.499L486.62,342.361L487.128,342.612L487.91,342.289L488.337,341.66L489.082,342.075L489.288,342.775L489.719,342.202L489.406,341.926L489.678,341.271L490.85,341.435L492.3,342.08L493.102,341.742L493.626,342.325L494.187,342.433L494.577,342.039L494.428,341.374L494.073,341.471L493.642,341.174L493.868,340.821L493.241,340.704L493.282,340.386L494.5,340.448L494.428,339.88L493.909,339.905L493.919,339.353L493.642,339.194L493.657,338.294L493.277,338.56L492.994,338.186L492.567,338.304L492.31,337.567L493.236,337.224L493.78,337.383L494.027,337.076L494.438,337.265L494.325,338.166L494.69,338.447L495.06,338.191L495.549,338.442L495.739,338.237L496.011,338.81L496.87,338.462L496.865,339.163L497.266,339.209L496.891,340.243L497.435,340.586L498.196,342.243L498.649,342.499L498.988,342.341L498.962,342.765L499.476,342.545L499.584,342.064L500.031,342.202L500.972,341.681L501.435,341.742L501.646,342.238L500.617,342.208L499.846,342.494L499.924,342.883L500.294,342.939L500.576,343.788L501.234,344.029L501.209,344.489L501.533,344.52L501.327,345.538L501.702,345.942L502.53,345.891L502.91,345.676L503.399,346.254L503.758,346.029L503.666,345.666L504.257,345.788L504.817,345.543L504.458,345.231L504.509,344.658L504.771,344.515L504.869,343.763L505.573,343.829L505.866,344.571L505.717,345.364L506.365,345.231L506.812,345.384L506.91,345.052L507.326,345.2L507.542,344.791L507.3,344.331L507.917,344.612L508.138,344.284L508.277,344.909L508.848,344.724L508.842,345.354L509.382,345.256L509.536,345.783L510.123,345.676L510.241,345.2L509.701,344.878L509.588,344.331L509.711,343.706L509.315,343.706L509.773,343.343L509.269,342.596L510.128,342.003L510.261,342.566L510.765,342.545L510.518,343.676L510.595,344.52L511.459,344.085L511.896,344.351L512.456,344.32L512.657,344.694L513.5,344.54L513.603,344.151L514.071,344.075L514.035,343.323L513.7,342.914L514.194,342.96L514.235,342.346L513.999,342.131L514.256,341.737L514.749,342.509L515.022,342.202L515.916,341.931L515.808,342.433L516.985,342.182L517.026,342.637L515.669,342.985L515.387,343.456L515.469,343.85L516.882,343.706L517.412,343.435L517.499,344.1L518.805,344.024L519.196,343.43L519.643,343.481L519.581,343.001L519.972,342.924L520.342,343.573L519.689,343.829L520.728,344.146L521.123,343.108L522.028,343.088L522.162,343.645L522.393,342.545L523.051,342.269L523.303,342.683L523.833,342.699L523.601,343.343L524.079,343.103L524.547,343.354L524.65,342.627L525.051,342.422L525.879,343.011L525.817,343.205L526.737,342.883L526.578,342.469L527.524,342.898L527.457,343.425L527.745,343.405L527.678,343.901L528.182,343.354L528.541,343.369L528.762,343.886L528.876,343.134L529.189,342.847L529.873,343.63L530.089,343.563L530.546,344.075L530.957,344.049L532.412,344.499L532.181,344.98L531.209,345.579L530.834,345.614L529.796,346.116L529.585,345.63L529.112,345.993L529.04,346.428L527.971,346.678L527.57,346.356L525.195,346.75L523.771,347.057L523.067,346.944L522.224,347.011L521.843,347.302L520.316,347.537L518.733,348.1L518.754,348.345L517.808,348.402L517.032,348.289L516.019,348.391L514.492,348.913L513.048,350.135L511.598,351.168L511.408,351.705L511.238,352.175L511.202,353.044L511.325,353.336L511.639,354.011L511.839,354.42L512.045,354.89L512.22,355.227L512.755,356.198L513.438,357.727L513.495,357.875L514.06,359.193L514.117,359.331L514.626,360.803L514.667,360.956L514.955,361.769L515.022,361.963L515.068,362.116L515.124,362.264L515.453,362.612L515.572,362.709L515.608,362.75L515.69,362.821L515.757,362.878L515.875,362.975L515.952,363.046L516.065,363.143L516.492,363.511L516.605,363.613L517.057,364.007L517.139,364.073L517.582,364.461L517.669,364.538L518.013,364.829L518.162,364.957L518.975,365.672L519.093,365.769L520.28,366.801L520.836,367.286L521.776,368.088L522.373,368.548L523.349,369.309L524.295,369.707L525.745,370.335L526.439,370.637L527.123,370.902L527.714,371.127L528.099,371.28L528.341,371.479L528.896,371.934L529.42,372.383L530.526,374.737L531.163,376.136L531.559,377.096L531.389,377.81L531.569,378.576L531.271,378.765L531.451,379.423L531.497,379.515L530.49,380.327L530.325,381.363L531.132,382.006L531.312,382.562L531.852,383.154L531.903,383.236L531.898,383.409L531.872,383.603L531.98,384.042L531.605,384.221L531.045,384.067L531.173,384.96L530.628,385.659L529.554,385.511L529.472,385.455L529.251,385.726L529.045,386.165L528.896,386.435L528.834,386.598L528.726,386.802L528.449,387.037L528.408,387.389L528.11,387.675L528.063,387.812L528.084,388.006L527.976,388.134L527.344,388.894L527.174,389.496L527.405,389.771L527.195,390.71L527.467,391.026L527.385,391.71L527.39,391.776L527.467,392.408L527.292,392.883L527.297,393.015L527.277,393.331L527.318,393.459L527.374,393.51L527.452,393.54L527.626,394.02L527.477,394.203L527.318,394.479L527.282,394.514L526.752,394.907L526.742,394.994L527.493,395.978L527.549,396.024L527.781,396.422L527.693,396.513L527.94,396.717L527.935,396.85L528.377,397.834L529.127,398.242L528.675,399.052L528.629,399.124L528.341,399.837L528.017,400.077L527.899,400.597L528.31,401.137L528.295,401.198L528.685,401.729L528.804,402.305L529.21,402.661L529.174,402.758L529.338,403.37L529.338,403.462L529.348,403.492L529.395,403.635L529.431,404.639L529.487,404.69L529.575,405.082L529.605,405.169L529.657,405.337L529.713,405.362L529.708,405.47L529.595,405.536L528.752,405.949L528.778,406.112L528.737,406.183L528.639,406.249L528.372,406.433L528.202,406.377L527.883,406.208L527.847,406.188L527.215,406.422L527.195,406.489L527.102,406.519L526.984,406.636L526.799,406.708L526.716,406.759L525.812,406.81L525.75,406.845L525.041,406.575L524.439,407.243L523.879,407.508L522.923,407.294L522.095,407.391L522.033,407.38L521.874,407.314L521.73,407.263L521.643,407.136L521.211,406.85L521.139,406.779L520.028,407.207L519.741,407.763L518.98,408.191L518.975,408.247L518.759,408.67L518.718,408.746L518.605,409.006L517.859,409.164L517.767,409.189L517.654,409.194L517.561,409.266L517.109,409.48L517.073,409.51L516.795,409.78L515.973,409.622L515.957,409.495L515.782,409.357L515.685,409.199L515.505,409.245L515.422,409.245L515.201,409.271L515.155,409.291L515.124,409.327L515.073,409.403L514.95,409.602L514.842,409.688L514.554,409.867L514.415,409.928L514.194,410.147L514.086,410.188L514.055,410.193L513.978,410.229L513.382,410.784L512.477,410.697L511.387,411.125L511.253,411.115L510.678,411.436L510.595,411.461L510.318,411.716L510.256,411.828L510.22,411.92L510.102,411.961L509.742,411.757L509.542,411.849L509.444,411.879L509.3,411.955L509.151,412.017L509.074,412.062L508.385,412.241L508.292,412.348L507.768,412.888L507.665,413.066L507.64,413.076L507.573,413.091L506.725,413.372L506.719,413.443L506.817,413.698L506.735,413.687L506.498,413.881L506.39,413.866L506.334,413.866L506.293,413.881L506.216,414.039L506.139,414.11L505.65,414.446L505.522,414.512L505.373,414.635L505.311,414.589L505.08,414.533L505.023,414.574L504.098,415.017L504.041,415.271L503.568,415.388L503.548,415.506ZM321.395,479.917L321.636,480.313L320.881,480.633ZM322.968,478.923L323.286,479.587L323.081,480.206L322.346,479.912L322.608,479.456L322.397,479.085ZM321.189,478.659L321.348,478.832L320.721,479.542L320.3,479.506L320.171,479.156ZM285.225,492.514L285.652,492.423L286.567,492.793L286.654,493.153L285.888,493.295L285.194,492.95L284.706,492.95L284.608,492.504ZM500.89,241.941L501.193,242.25L500.859,242.569ZM505.517,232.998L506.031,233.333L505.995,233.842L505.599,234.131L505.856,234.316L506.221,235.676L505.568,235.918L505.254,235.269L504.303,235.078L504.226,234.821L505.357,232.905ZM496.952,231.751L497.106,232.029L496.572,232.364L497.353,232.251L497.245,232.74L498.721,232.828L498.7,233.147L499.25,233.616L500.288,233.626L499.219,234.723L500.206,234.939L500.828,235.444L500.582,235.748L499.795,235.928L499.26,236.309L499.096,237.128L499.543,237.385L499.415,237.905L498.808,238.019L499.086,238.297L498.572,238.775L497.78,239.002L498.037,239.671L499.718,239.265L500.253,239.295L499.995,238.863L500.731,238.672L501.054,239.084L502.453,239.481L502.329,239.826L503.239,240.48L503.573,241.097L502.571,241.195L502.072,240.886L501.615,240.155L501.527,239.548L500.962,239.723L500.381,240.773L500.288,241.18L499.533,241.051L499.615,240.639L498.746,241.118L498.433,240.541L498.016,240.546L497.867,240.171L497.019,240.253L497.749,241.277L497.384,241.401L497.903,242.008L497.538,242.225L497.502,242.765L497.862,243.161L497.456,243.156L497.225,242.806L496.793,242.786L496.083,242.245L495.199,241.931L495.132,241.535L494.325,241.777L496.119,243.028L496.299,243.578L496.15,243.892L495.431,243.722L494.865,243.933L495.497,244.237L495.379,244.556L494.341,244.577L494.228,244.721L494.834,245.184L495.055,245.616L495.703,245.436L495.503,246.11L494.382,246.249L493.333,245.637L492.809,245.575L492.552,245.899L493.061,246.45L492.809,247.032L492.392,246.749L491.693,246.754L491.292,247.243L490.891,247.186L490.969,247.639L491.513,247.659L491.956,248.056L491.642,248.575L490.665,248.616L490.382,249.044L489.766,249.234L489.586,248.822L490.018,248.544L489.632,247.721L490.12,246.97L489.987,246.162L490.321,245.776L490.048,245.549L490.105,244.175L490.552,244.556L490.496,243.995L490.763,243.686L491.282,243.65L490.619,243.167L490.866,243.084L490.691,242.564L491.462,242.487L491.4,241.468L491.015,241.458L491.082,241.025L490.562,241.035L490.28,241.411L489.653,241.19L489.581,240.624L490.434,240.613L490.722,239.99L489.966,239.512L489.853,239.239L490.367,238.935L489.591,238.044L489.735,237.493L489.334,237.457L488.943,236.016L488.969,235.655L489.56,235.856L489.889,235.645L490.141,234.713L490.701,234.553L491.303,235.47L491.786,235.367L491.714,234.481L491.123,234.012L491.801,233.786L491.565,233.302L492.022,232.936L492.218,233.461L492.644,233.286L492.516,233.791L492.994,234.146L492.485,235.089L492.588,235.645L492.922,235.851L492.65,236.381L492.907,236.685L493.395,236.633L493.811,234.672L494.166,234.584L493.775,234.023L494.012,233.909L493.282,233.605L493.374,232.998L493.801,232.251L495.23,232.277L495.585,232.421L496.603,231.792ZM489.776,227.115L489.946,227.646L491.22,227.141L491.832,227.244L491.642,228.114L492.336,227.939L492.788,228.3L493.302,228.145L493.369,228.856L492.809,229.279L492.979,229.701L492.542,229.918L492.449,230.294L492.829,230.577L491.868,230.968L491.709,231.607L491.02,231.839L490.547,232.199L490.377,232.689L489.956,233.075L489.118,232.864L488.717,233.276L488.172,233.121L487.057,233.405L486.229,233.173L485.329,233.642L484.861,234.615L485.242,235.552L485.987,236.057L485.612,236.309L485.699,236.834L486.136,236.994L486.609,236.68L487.596,238.291L487.771,239.378L487.396,239.805L486.661,240.207L486.846,240.871L486.769,242.014L487.062,242.147L486.774,242.837L486.311,242.719L485.992,243.861L485.365,244.011L485.386,243.465L484.831,243.666L484.507,243.506L484.46,243.038L483.9,243.388L483.381,243.043L482.744,243.079L482.034,243.372L481.906,242.961L481.068,241.452L480.775,241.169L479.546,240.958L480.081,240.32L479.685,239.558L479.263,239.476L479.603,239.218L479.669,238.652L479.217,237.833L479.49,237.385L480.204,237.241L480.425,236.994L480.471,236.314L480.25,235.691L479.207,234.728L479.649,236.18L479.484,236.819L478.857,237.545L478.163,237.385L477.829,237.777L477.593,237.442L476.6,237.514L477.063,238.245L477.14,239.079L475.814,238.549L475.953,237.241L474.858,238.271L475.063,238.709L474.544,238.873L474.791,240.145L475.516,240.341L475.135,240.577L475.331,240.855L475.5,241.823L475.901,242.075L475.511,242.307L476.364,242.883L476.816,244.268L477.325,245.071L477.145,245.683L477.834,246.949L478.076,246.924L478.312,247.592L477.973,248.55L477.49,247.953L476.667,247.541L476.421,246.913L475.901,246.682L476.2,246.517L474.112,245.544L473.861,244.597L473.156,244.572L472.462,244.114L471.938,244L470.936,244.309L470.797,244.031L469.99,243.558L470.92,243.043L469.655,243.244L469.368,242.631L469.995,242.384L470.123,241.447L470.535,241.097L470.627,240.572L469.835,240.773L469.347,240.016L470.149,239.965L470.355,239.62L470.2,238.822L470.673,238.817L470.997,238.394L470.966,237.885L471.47,237.88L471.522,237.565L472.287,237.638L473.321,237.061L472.37,236.695L472.457,236.33L471.979,236.494L472.616,235.969L472.493,235.81L473.203,235.217L473.696,234.26L474.436,233.755L474.801,233.137L475.475,232.714L475.644,232.318L476.174,232.797L476.215,233.523L475.871,233.642L475.865,234.254L476.318,233.925L476.647,233.992L476.914,233.09L477.459,232.931L478.281,232.967L479.089,234.234L479.52,234.136L479.376,233.42L479.669,232.982L480.435,232.699L480.353,231.617L480.636,230.597L480.574,229.093L480.389,228.542L480.698,228.181L481.206,228.32L481.546,228.774L481.942,228.501L482.091,228.867L482.867,228.537L482.63,228.243L482.882,227.97L484.322,228.707L485.55,228.666L485.679,229.361L485.977,229.541L485.643,230.175L486.085,229.866L486.995,229.686L487.375,229.274L487.293,229.871L487.493,230.402L487.709,229.753L488.265,229.104L489.154,228.624L489.185,228.217ZM483.227,257.408L482.8,257.901L482.8,257.474ZM491.097,256.348L491.539,256.955L491.21,257.762L490.902,257.233L490.886,256.425ZM487.314,255.906L486.969,257.181L487.005,257.536L486.558,257.742L486.645,257.063L486.244,256.106L486.609,256.261L486.933,255.885ZM478.955,249.609L480.317,249.754L480.852,250.067L481.063,249.795L481.962,250.222L482.6,250.258L482.81,249.831L483.458,250.484L484.281,250.546L484.718,250.952L485.113,251.642L485.617,251.729L485.355,252.141L485.699,252.496L486.393,252.727L488.008,254.018L488.871,254.193L489.123,253.89L489.683,253.874L490.429,254.147L489.946,254.486L489.668,255.186L489.272,254.944L489.025,255.592L489.313,256.014L489.205,257.171L488.403,257.593L487.75,257.449L487.457,256.976L487.591,255.962L487.936,255.397L486.681,255.602L486.064,255.314L485.915,254.877L486.301,254.63L485.936,254.45L485.252,253.674L485.016,253.941L485.283,254.641L484.856,255.181L484.944,255.608L484.599,255.767L484.43,256.261L484.193,255.515L483.797,255.011L483.422,255.145L483.509,256.137L483.294,256.358L482.805,255.885L483.011,255.654L482.744,255.145L482.193,254.98L481.155,255.366L480.929,255.649L479.86,255.952L479.253,255.5L479.628,255.109L479.89,254.281L478.96,253.555L478.873,253.01L479.608,252.516L478.95,252.161L479.099,251.585L478.482,250.808L478.631,250.361L478.374,249.805ZM507.29,227.656L508.046,228.176L506.714,229.145L506.195,229.073L506.925,228.599ZM517.761,223.941L517.844,224.327L517.448,224.235ZM520.481,224.008L520.306,224.456L519.977,224.018L520.255,223.549ZM524.516,184.8L525.2,184.966L525.287,185.911L525.853,186.148L525.632,186.608L526.043,187.058L525.976,187.336L526.999,188.173L527.189,187.915L527.477,189.056L528.521,189.583L528.932,189.253L529.014,188.819L529.616,189L529.328,189.857L528.958,189.877L529.462,190.9L531.05,189.671L531.446,189.129L531.579,189.315L530.993,190.156L531.055,191.019L531.965,191.391L532.309,191.964L531.888,192.511L532.032,193.017L532.752,193.002L533.26,192.743L533.739,192.196L534.474,192.754L534.592,192.506L535.229,192.609L534.9,192.955L534.247,193.069L534.211,193.688L534.741,193.528L534.561,194.184L535.039,194.132L535.45,195.124L536.088,195.371L537.342,195.077L537.481,195.34L538.581,195.428L538.314,195.826L537.589,195.898L537.275,196.734L537.625,197.147L538.519,196.843L538.139,198.087L538.231,198.608L538.658,199.294L538.946,198.84L539.347,199.279L539.553,198.69L540.241,199.072L540.231,199.459L541.085,199.676L540.529,200.93L541.372,200.905L541.506,201.209L542.174,200.982L542.19,201.421L541.465,201.88L541.604,202.246L541.131,202.577L540.591,202.659L540.863,203.351L540.062,205.115L540.545,205.461L540.55,205.91L540.118,206.369L540.663,207.71L540.766,209.283L540.38,209.567L540.236,210.083L540.38,210.588L539.897,210.738L539.589,212.037L539.856,212.486L539.614,213.033L539.589,213.997L539.213,214.461L538.057,214.544L537.866,214.848L537.018,214.626L537.075,215.559L536.653,215.513L536.561,215.956L536.114,216.152L535.198,216.003L534.515,216.194L534.391,215.75L534.787,215.678L534.89,215.281L535.661,214.642L535.589,214.389L536.16,214.018L536.078,213.084L536.597,212.837L536.417,212.605L535.944,212.77L535.502,212.378L535.384,211.909L536.042,211.924L536.191,211.687L535.193,211.181L535.08,210.825L535.461,210.31L535.024,210.501L534.926,210.887L534.556,210.944L534.628,211.965L534.463,212.672L533.862,212.945L534.345,213.693L534.165,214.482L533.949,214.317L533.775,214.884L533.235,215.095L532.587,214.992L532.366,214.554L531.734,214.915L530.654,214.291L530.135,214.471L529.014,215.699L529.318,216.477L529.657,216.719L529.534,215.467L530.942,215.657L531.538,216.188L531.718,215.436L532.541,215.24L532.736,215.75L533.358,216.034L533.882,215.936L533.708,216.926L534.073,217.101L534.422,217.879L534.062,218.761L534.314,220.354L534.571,221.147L534.947,221.369L534.494,221.601L533.79,221.426L533.158,221.879L532.273,222.044L530.999,221.39L530.197,221.256L529.749,220.998L529.446,220.271L529.354,220.828L528.891,221.106L528.135,220.539L528.223,220.266L527.4,220.039L527.148,220.359L526.814,219.653L526.146,219.648L526.105,220.653L526.552,221.168L525.92,221.364L525.663,221.003L525.786,220.385L525.082,219.756L525.159,220.503L524.907,220.55L524.902,219.874L524.619,218.998L524.999,217.936L524.501,217.833L524.028,219.421L524.388,219.73L524.151,219.977L524.408,220.72L524.341,221.606L523.658,221.781L522.635,221.73L522.244,222.204L521.488,222.683L521.077,222.652L521.458,222.276L521.91,221.436L521.915,221.08L521.278,221.627L521.123,221.421L520.722,221.817L520.717,222.462L520.172,223.209L519.473,223.322L519.478,222.194L520.208,221.452L520.142,221.07L519.761,221.008L519.664,220.513L518.563,220.379L518.995,220.983L519.401,221.013L519.293,221.493L518.836,222.024L518.317,222.024L517.571,222.436L517.073,221.622L517.453,221.065L518.219,220.462L518.317,220.081L517.88,220.086L517.556,219.668L517.787,218.838L518.265,219.044L518.985,218.782L519.134,217.977L518.856,217.39L517.772,217.08L517.181,217.508L516.204,217.74L515.412,217.745L514.687,217.204L514.523,216.833L513.536,216.415L512.847,215.766L513.089,215.539L512.729,214.724L512.97,213.6L512.688,213.332L512.215,213.657L511.824,213.136L511.259,213.234L511.156,212.961L510.534,212.981L510.631,212.527L510.133,212.362L508.837,213.167L508.488,212.868L509.007,212.13L508.714,210.49L509.367,209.897L509.896,209.046L509.696,207.906L509.927,207.617L510.22,206.07L509.49,205.234L508.925,205.301L507.742,205.156L507.568,203.805L507.763,203.283L508.442,202.943L509.177,201.503L509.403,200.223L509.434,198.551L508.976,197.772L508.652,197.803L508.4,197.354L508.488,196.956L509.058,196.982L509.629,197.261L509.583,197.622L510.056,197.632L510.2,198.112L511.115,199.067L512.225,198.799L511.356,198.272L511.336,197.436L512.544,197.132L512.945,197.416L513.7,197.472L514.071,196.956L513.541,197.225L512.801,197.188L512.23,196.6L510.894,196.786L510.395,197.142L509.984,196.796L510.426,196.646L510.847,195.02L510.781,194.473L511.469,194.669L511.603,195.103L512.6,194.597L513.073,194.757L513.248,194.349L512.832,193.358L513.104,192.619L513.711,192.64L514.122,191.819L514.4,192.026L515.716,192.015L516.06,191.499L516.744,191.127L516.697,190.879L515.659,190.177L515.438,189.495L515.51,188.953L516.564,189.067L516.985,188.938L517.602,188.354L517.993,188.364L519.288,187.781L520.183,188.189L519.998,188.695L520.769,189.216L521.288,188.674L521.895,189.118L522.152,188.576L522.635,188.168L523.123,188.256L523.586,187.543L524.239,187.073L524.676,186.526L524.845,185.622L524.737,185.327L524.048,184.795ZM524.902,183.767L524.655,184.516L524.455,184.211L524.922,183.395ZM524.27,183.307L524.331,184.031L524.028,183.364ZM291.332,0.272L291.193,0.972L290.957,0.726ZM290.633,0.021L290.793,0.34L290.124,0.434L290.016,0Z"
          fill="#e0e0e0"
          stroke="#333333"
          stroke-width="1"
          stroke-linejoin="round"/>
  </g>
</svg>