<?xml version="1.0" encoding="UTF-8"?>
<svg xmlns="http://www.w3.org/2000/svg"
     viewBox="112.39664641374111 -20 575.2067071725323 640"
     width="575.2067071725323"
     height="640">
  <title>岡山県</title>
  <desc>都道府県コード: 33</desc>
  <g id="33">
    <path d="M216.472,497.022L216.008,495.256L216.313,494.672L217.459,493.846L217.357,492.322L218.619,490.384L220.461,488.718L220.926,485.869L220.795,485.612L219.794,482.378L218.75,482.05L218.199,481.979L216.98,482.421L216.704,482.606L215.559,482.492L215.675,480.326L216.704,478.873L217.763,479.187L216.995,476.935L217.212,476.095L216.893,475.368L217.836,471.691L217.821,471.321L217.981,470.822L218.938,469.653L219.33,469.14L219.968,467.972L219.736,467.601L218.648,464.28L218.46,463.938L217.386,463.468L217.328,463.197L217.459,460.147L216.806,458.166L215.82,457.595L216.11,454.787L216.008,454.616L216.124,454.06L216.153,453.889L214.833,453.162L214.964,452.663L213.803,452.478L213.412,452.193L211.7,449.598L211.308,449.17L209.132,448.258L207.044,446.632L207.435,445.178L205.201,440.686L204.911,438.619L205.375,437.321L204.229,436.365L202.271,437.021L200.501,436.551L200.545,435.239L200.008,435.082L197.267,435.196L196.861,434.34L193.162,432.03L193.626,431.431L192.625,426.809L192.639,426.196L191.044,424.57L190.957,424.299L190.783,422.316L190.449,422.43L190.028,421.931L189.825,421.631L188.389,420.19L187.939,419.848L187.403,419.563L186.822,416.666L187.403,415.382L187.374,414.983L189.158,413.742L189.317,412.457L190.783,411.444L188.824,408.976L188.65,408.705L188.911,405.936L188.911,405.637L189.187,404.466L190.202,404.252L190.71,401.141L192.161,400.913L193.016,399.143L192.958,398.644L192.886,397.402L195.453,392.278L195.613,392.092L195.831,387.881L195.7,387.481L195.221,387.081L194.119,386.596L193.06,386.282L192.016,387.267L191.102,386.096L187.78,385.097L186.561,383.055L188.215,380.642L186.793,379.072L185.401,376.701L184.269,376.53L182.5,374.974L182.514,371.346L181.528,369.476L181.992,367.805L180.44,366.776L180.774,365.734L181.296,364.705L180.541,362.349L180.019,358.892L178.003,358.42L176.552,356.92L176.03,355.178L176.088,354.906L175.044,353.392L176.335,352.606L177.22,351.135L177.553,350.42L178.395,349.192L178.714,349.177L179.86,347.406L180.063,347.348L180.585,346.305L180.73,345.534L179.25,344.033L179.657,342.647L178.67,341.333L176.741,340.732L177.916,338.317L179.236,337.56L178.235,335.388L178.569,335.002L178.525,334.83L178.046,334.187L179.105,333.287L179.105,332.772L179.091,330.857L179.265,330.514L179.99,330.171L180.469,329.813L180.701,329.256L180.875,329.142L180.977,328.899L181.31,328.498L181.658,326.855L183.747,325.868L180.73,323.681L180.454,321.308L181.658,319.878L182.935,319.278L183.153,317.562L184.095,317.148L183.965,314.545L184.473,313.716L184.415,313.044L184.458,312.2L184.327,310.728L182.645,307.567L181.296,307.639L179.671,306.423L179.468,305.951L179.497,305.322L179.57,304.679L176.712,303.935L175.9,304.135L175.522,304.25L174.275,302.09L174.231,300.417L172.81,298.543L172.795,298.214L170.199,297.399L169.822,297.499L170.445,299.115L167.573,298.257L166.079,296.097L164.643,295.697L163.497,293.894L163.105,292.621L164.396,290.161L163.729,288.244L163.352,287.958L162.163,287.299L162.105,285.754L161.96,285.64L162.453,283.937L162.482,283.809L161.031,283.293L160.668,283.022L158.652,281.763L158.522,281.548L159.073,278.858L158.29,278.171L158.246,277.942L157.013,277.699L156.81,277.613L155.591,277.141L155.519,276.897L155.026,276.568L154.939,276.311L154.605,274.093L154.068,273.978L153.749,273.835L152.241,273.349L150.921,271.402L150.05,268.382L149.905,268.254L148.281,267.295L148.208,267.08L147.889,266.55L147.86,266.379L146.917,264.632L145.713,260.582L145.902,260.338L146.25,259.379L146.38,259.079L145.887,257.375L145.089,256.817L145.916,255.872L145.96,255.729L147.135,254.712L146.757,253.553L146.67,253.309L148.193,251.391L149.383,250.961L150.108,248.47L149.992,246.007L148.788,242.628L148.716,242.227L148.846,241.811L149.557,240.909L149.818,240.809L152.255,237.558L151.602,235.166L149.151,231.6L148.701,230.01L146.96,228.377L146.569,226.658L148.672,224.179L148.6,222.389L150.137,221.558L149.963,218.778L149.281,217.518L150.776,216.715L151.109,216.472L153.561,215.34L154.562,212.144L154.837,211.886L156.824,211.213L157.999,208.461L157.579,205.409L156.824,202.542L157.129,200.178L157.637,199.762L157.608,198.372L156.665,196.494L156.375,196.365L155.838,196.035L155.809,195.82L155.824,195.677L155.635,195.333L155.606,195.304L155.417,195.218L154.504,194.215L154.315,194.086L152.125,193.842L152.052,193.684L149.514,192.179L149.136,189.785L148.672,189.469L147.628,188.179L146.888,187.706L146.467,187.176L146.569,186.788L146.061,186.229L145.858,186.057L145.858,185.34L145.902,184.752L144.683,183.534L144.611,183.276L143.436,180.824L143.029,180.623L142.174,180.236L140.955,178.386L139.577,178.529L139.011,177.569L137.039,176.522L136.777,176.45L135.922,175.919L135.457,174.342L133.354,173.066L132.397,171.674L132.716,171.015L132.73,170.455L132.977,169.623L133.151,169.021L133.514,168.562L135.066,167.486L134.921,166.468L136.023,165.808L136.922,164.159L136.98,163.987L140.447,164.259L140.563,164.216L142.522,162.452L142.739,162.236L142.797,161.907L142.87,161.734L143.566,161.103L142.638,159.109L142.681,155.781L143.479,153.414L143,151.534L143.291,150.085L142.261,148.779L142.159,148.377L144.001,144.115L144.19,143.871L145.553,143.527L147.309,142.278L148.991,144.575L149.165,144.761L151.747,144.833L152.879,146.655L153.807,145.593L153.952,145.579L155.171,145.909L155.316,145.88L156.592,147.832L158.261,147.674L159.769,148.248L160.93,147.531L160.988,147.373L161.713,146.153L162.003,145.622L163.294,144.775L162.96,143.785L163.193,143.599L165.702,140.772L166.819,141.116L167.53,141.202L169.662,141.216L173.376,144.072L174.115,143.57L174.188,143.355L174.405,143.283L174.696,143.369L175.508,141.977L176.712,141.676L177.017,141.432L177.379,140.944L177.495,140.513L178.366,140.011L178.54,139.896L179.845,138.576L180.382,138.518L181.615,137.327L184.081,136.38L184.647,136.15L188.172,136.337L188.824,137.227L192.132,136.767L192.567,136.452L193.539,136.179L193.916,136.15L196.135,136.337L197.252,134.227L199.646,132.806L200.081,132.447L200.516,128.428L200.211,125.657L200.458,125.399L199.776,124.049L199.805,122.384L196.962,120L196.454,118.32L196.672,116.727L194.728,114.099L194.902,111.141L193.089,107.378L192.407,107.005L191.392,105.856L192.117,104.089L192.436,103.586L193.133,103.127L192.132,102.179L192.045,100.556L192.059,100.139L192.741,98.473L194.612,98.114L194.801,97.984L196.44,96.433L198.166,95.456L199.268,96.433L201.836,96.117L204.491,98.904L204.534,99.22L204.708,100.8L204.868,100.987L205.303,100.915L205.593,100.843L207.696,100.297L212.15,102.624L212.338,102.782L213.005,102.71L213.484,102.638L214.34,102.768L214.761,102.768L216.704,103.759L217.908,103.4L218.344,103.199L221.187,102.423L221.332,102.093L222.231,100.599L222.246,100.426L224.639,100.383L225.118,100.714L225.843,101.59L226.684,100.857L226.801,100.714L228.222,100.541L228.324,100.426L228.802,99.091L228.802,98.315L229.397,97.712L233.125,97.439L234.242,96.376L234.518,95.14L234.721,95.14L237.52,94.408L239.421,95.011L240.552,94.12L241.8,91.52L243.613,91.735L243.946,91.606L245.499,92.109L245.557,92.324L247.094,93.287L247.283,93.186L248.907,92.813L249.314,94.623L250.039,95.126L250.227,97.151L251.214,97.625L252.853,96.921L252.984,97.036L253.433,97.194L253.506,97.151L254.826,94.58L254.623,94.307L253.477,92.712L253.491,90.672L253.332,90.758L252.026,89.422L252.2,87.741L252.229,87.626L251.765,86.491L251.591,86.319L250.938,83.948L251.736,82.612L249.821,79.177L250.097,78.416L248.574,75.771L248.327,75.585L246.557,75.082L244.454,72.538L244.382,72.02L243.859,71.287L244.309,70.583L244.991,68.686L245.092,68.384L246.79,67.737L247.167,67.694L247.515,67.521L247.79,67.248L248.342,65.221L249.212,64.086L253.259,64.833L254.521,66.429L257.538,66.4L259.395,64.891L259.395,64.158L261.789,62.691L263.964,62.375L266.924,63.482L267.721,62.677L267.808,62.418L267.925,61.771L268.012,61.484L268.853,61.024L269.549,60.751L270.144,59.442L270.332,56.438L271.623,55.805L272.001,55.762L272.944,54.151L273.147,53.749L272.508,52.196L272.465,49.752L273.06,48.04L273.379,47.896L274.858,45.883L273.437,43.064L274.626,41.871L274.887,41.526L275.047,40.691L274.22,37.585L275.569,36.75L275.816,34.65L277.498,31.759L276.657,29.716L276.831,29.529L276.991,25.199L276.947,24.062L277.136,21.933L278.05,21.127L278.267,20.926L279.254,20.494L279.181,19.185L281.009,16.782L281.357,16.738L283.344,14.623L283.054,13.645L284.461,12.551L284.345,11.543L282.895,10.781L282.546,9.025L285.433,6.837L286.245,4.534L286.347,4.462L289.683,5.499L291.032,6.477L291.714,6.175L293.643,7.226L295.413,6.78L298.343,9.169L300.098,8.262L303.739,7.557L303.986,7.686L304.914,7.586L305.219,7.658L306.989,9.198L310.949,9.385L312.922,11.054L313.183,11.543L316.156,14.047L317.65,15.789L319.826,16.638L320.131,16.897L322.539,16.81L322.974,17.573L323.105,18.034L323.148,18.091L323.482,18.321L324.41,19.3L327.021,19.458L330.822,18.436L330.822,18.105L330.851,17.573L330.735,17.055L330.691,16.767L332.853,14.781L334.042,15.328L334.956,15.717L337.016,16.278L338.191,15.789L340.163,16.523L340.541,16.652L343.152,18.998L346.241,18.94L347.373,20.451L347.91,20.552L349.853,20.249L350.912,20.998L351.086,19.616L352.189,19.343L353.538,20.71L353.944,20.667L354.887,20.422L355.235,20.034L355.83,19.026L356.047,19.17L356.439,19.516L357.135,20.091L358.209,22.897L358.223,23.372L359.993,24.091L360.254,24.35L361.298,25.501L362.386,25.17L362.589,24.782L363.939,24.134L364.156,24.379L364.229,24.451L364.214,24.58L365.998,25.242L367.217,27.659L368.798,28.695L369.857,30.22L371.83,30.695L371.946,30.738L373.179,31.414L373.469,32.507L373.527,32.824L374.948,33.068L376.689,31.601L376.53,33.888L378.996,34.003L379.184,33.586L379.358,33.5L381.404,34.392L381.505,35.557L381.273,35.844L382.201,37.326L382.056,38.865L383.986,40.548L383.812,41.468L385.277,42.719L385.349,42.964L385.9,44.761L384.957,47.192L386.263,47.911L387.627,49.881L387.902,49.91L388.511,50.284L388.627,50.542L388.729,50.629L388.86,50.873L390.049,54.655L389.657,56.409L389.701,56.725L390.223,57.458L390.441,57.645L393.966,59.097L396.388,59.471L399.768,58.134L399.985,58.307L402.132,59.126L402.248,59.025L401.828,56.811L401.9,56.61L403.235,54.928L403.481,54.885L404.265,53.562L404.381,53.332L405.541,52.167L405.73,51.851L405.802,51.721L405.918,51.434L406.252,49.838L407.833,48.443L408.167,48.443L410.531,46.732L412.214,46.07L411.053,43.295L411.924,41.482L411.358,40.001L412.301,39.713L411.822,38.275L410.241,38.031L409.791,37.211L410.372,34.564L411.257,34.176L411.634,34.118L415.42,34.176L416.116,33.154L417.494,32.924L419.423,33.658L420.961,32.55L421.149,32.924L422.397,32.982L422.745,31.615L424.123,30.795L424.312,30.579L424.848,30.234L425.182,30.22L426.662,28.983L426.763,28.796L426.821,28.666L426.952,28.105L429.722,27.688L430.607,27.429L431.347,26.35L433.566,26.12L433.784,26.105L435.09,25.947L435.235,25.99L437.831,26.537L439.906,26.235L439.993,26.077L440.326,24.408L441.965,23.242L443.039,20.839L442.952,19.53L442.836,19.343L442.647,19.17L442.531,19.055L441.182,17.069L441.197,16.753L442.125,12.68L443.169,10.752L444.533,9.831L444.983,9.802L445.809,10.666L447.202,10.406L449.189,11.543L453.251,8.32L453.381,6.895L455.833,4.937L457.08,5.067L458.371,3.455L460.533,2.836L461.505,3.21L461.722,3.397L463.506,3.915L465.378,5.34L466.132,4.477L468.671,3.397L470.005,2.39L471.166,2.634L472.471,0.648L474.255,0L474.69,0L476.112,0.821L478.578,0.72L479.086,1.742L481.334,1.598L481.711,1.368L482.088,2.174L482.19,2.447L481.711,4.592L481.61,4.851L480.391,6.42L480.101,6.866L479.927,7.989L481.566,9.5L481.711,9.773L481.943,10.018L482.001,10.809L480.435,13.083L479.724,13.184L479.477,13.371L479.361,13.659L476.823,15.659L476.939,16.551L476.62,17.4L475.416,18.595L475.474,19.861L475.445,20.034L474.574,21.803L474.705,21.919L475.024,22.163L475.546,22.652L476.518,22.969L476.547,23.113L476.533,23.257L476.504,23.645L477.722,24.609L478.114,24.767L478.418,25.069L478.505,25.415L480.609,26.321L483.815,26.839L484.061,26.738L484.961,26.997L486.571,25.933L488.689,25.99L489.631,27.285L489.922,27.53L492.446,27.587L494.375,28.076L494.534,28.062L495.216,28.494L495.448,28.609L497.378,31.069L500.395,31.227L501.135,30.565L501.874,29.961L503.31,28.565L505.051,29.601L505.109,29.774L507.633,31.745L507.764,30.738L509.94,28.695L510.259,28.623L513.247,28.911L514.088,28.594L514.161,28.321L514.596,26.853L514.901,26.494L515.597,26.12L515.989,26.264L518.019,27.055L518.208,26.925L518.991,27.04L519.122,27.112L519.296,27.04L519.542,26.983L519.775,27.098L519.905,27.084L520.95,27.803L520.906,28.019L520.659,28.206L520.572,28.306L520.587,28.436L520.804,28.652L522.864,31.212L522.777,31.601L523.517,33.126L524.619,33.701L524.808,33.816L528.13,36.794L527.956,38.29L528.928,39.627L529.218,39.656L531.959,41.022L534.324,41.554L536.572,41.137L536.891,41.037L537.094,40.922L537.472,39.857L540.126,42.302L540.837,44.531L539.357,45.783L539.111,47.609L541.272,50.83L543.042,51.88L542.752,52.426L544.521,52.843L544.841,52.987L545.16,54.252L542.578,57.588L542.331,57.918L541.519,59.126L542.81,62.821L541.635,63.827L539.865,64.186L539.546,64.575L538.98,65.293L540.344,66.946L540.286,67.191L542.084,69.39L542.882,69.347L544.318,68.801L544.507,68.657L548.743,67.622L550.237,68.786L550.817,70.31L550.977,70.827L551.528,71.388L550.643,72.825L550.353,74.88L551.194,76.174L549.105,81.031L547.988,81.807L547.93,83.028L546.944,84.092L547.045,85.802L546.349,87.296L546.741,87.684L546.799,88.546L546.291,89.336L546.755,90.457L549.178,91.592L549.7,91.965L551.122,93.718L551.876,94.264L552.935,97.554L553.718,98.731L553.109,99.995L553.544,101.532L552.993,103.242L555.386,104.678L557.794,105.008L559.303,103.586L562.074,102.294L563.553,101.188L563.916,98.76L565.178,96.548L565.439,94.609L564.917,93.933L567.513,92.799L568.92,92.842L570.24,93.661L570.443,93.517L572.895,93.143L573.461,93.215L574.229,92.655L576.144,93.388L577.783,92.727L578.349,92.87L578.494,92.813L578.567,92.669L579.045,91.563L579.364,91.448L580.336,91.29L580.307,89.954L581.163,89.034L583.455,88.891L584.456,87.813L588.909,88.273L591.622,86.894L592.55,85.385L592.478,85.011L592.637,84.48L592.666,84.221L594.03,82.468L594.189,82.454L596.496,81.117L598.048,82.425L599.832,82.497L600.006,82.583L600.209,83.474L600.151,83.79L600.209,84.307L600.195,84.523L600.804,86.06L601.094,86.491L602.661,86.98L602.98,87.037L603.734,87.756L603.865,88.172L604.909,89.178L609.014,87.828L609.319,87.741L611.161,87.325L612.235,87.713L613.032,86.879L615.876,86.146L619.154,86.894L619.647,86.922L621.562,86.965L621.881,86.894L622.722,86.103L624.666,86.362L624.869,86.348L626.842,84.322L627.089,83.919L629.352,81.405L629.41,81.117L631.165,80.025L632.122,77.453L632.035,76.246L633.631,75.211L635.444,75.498L636.807,74.521L637.417,74.42L639.535,73.328L639.767,73.199L640.492,72.207L644.365,70.324L644.757,70.008L647.208,69.146L647.353,68.815L649.848,66.098L649.312,64.646L649.602,62.936L649.137,61.153L651.734,60.765L652.981,59.457L654.36,59.313L656.884,57.588L658.436,57.257L659.538,58.465L660.67,58.58L662.468,61.182L662.352,62.965L662.991,63.928L661.728,66.501L660.96,69.39L660.22,70.037L660.278,71.603L660.191,71.733L655.839,74.018L653.504,74.967L652.865,76.734L653.228,77.625L653.344,77.726L652.793,78.703L653.01,80.815L652.285,81.52L652.329,82.037L653.489,86.75L653.591,87.526L654.156,90.945L654.389,91.046L656.506,91.836L657.928,91.549L661.656,94.465L662.338,94.522L666.849,94.839L667.516,96.404L667.603,99.837L667.241,101.044L666.965,101.374L665.007,104.621L664.543,107.105L665.21,107.507L665.166,107.708L666.849,108.714L667.299,110.365L667.473,110.696L667.502,112.62L667.4,113.424L667.11,114.846L664.949,117.488L663.484,116.727L661.264,115.219L659.016,114.4L656.608,114.932L656.187,115.248L653.446,114.846L653.344,115.004L652.213,116.224L651.981,116.483L649.863,115.463L648.383,116.827L648.354,117.129L646.439,117.703L644.96,120.302L644.873,120.575L643.843,123.116L643.959,124.839L643.582,125.025L643.379,125.169L643.277,125.126L643.176,124.982L643.089,125.083L643.234,127.782L641.594,129.992L641.319,130.337L641.246,130.624L641.406,130.595L643.06,131.413L643.147,132.533L643.335,132.892L640.1,136.136L639.39,138.174L639.448,140.872L639.955,143.47L640.158,143.728L640.129,144.316L640.231,144.503L640.695,144.905L638.316,147.803L638.316,147.947L638.621,148.607L638.563,148.822L638.113,150.099L636.372,150.042L636.14,150.013L634.516,150.329L634.371,150.472L633.747,150.946L633.529,150.73L632.731,149.783L632.63,149.683L632.122,150.515L632.079,150.759L630.309,152.424L629.903,151.72L628.133,152.71L626.537,152.667L623.883,153.973L624.362,155.078L624.26,158.464L624.855,163.068L622.983,164.13L622.838,165.364L621.75,166.841L621.837,169.437L622.041,170.312L621.765,170.886L621.852,171.129L621.649,172.707L622.983,174.873L622.592,176.938L621.243,175.862L618.574,175.618L618.022,176.307L618.516,177.726L617.645,178.572L616.935,178.486L616.108,178.486L615.165,177.181L613.569,177.052L610.421,180.293L610.044,180.523L608.521,180.838L608.188,180.58L606.36,180.336L606.36,182.401L604.605,185.068L603.386,188.279L601.094,188.724L600.543,188.81L599.803,189.441L600.311,191.29L598.353,192.064L598.672,193.44L600.209,194.301L598.222,194.372L597.961,195.361L598.918,195.49L599.281,196.494L599.049,197.167L598.976,198.744L602.458,199.934L603.11,200.049L603.459,200.321L603.72,200.421L604.88,200.765L605.083,200.866L605.054,201.554L606.722,203.517L608.217,203.345L608.695,204.033L607.361,204.707L605.156,206.627L604.605,208.934L602.98,209.536L602.661,209.522L601.225,211.327L600.761,213.72L602.11,213.677L602.704,214.68L604.256,215.383L603.096,218.105L602.922,219.867L602.545,220.082L602.849,220.813L602.951,221.099L603.85,222.174L604.198,222.489L602.168,224.38L600.891,224.796L600.674,224.91L599.702,225.827L599.411,227.56L596.148,229.537L595.901,229.781L595.335,231.199L593.624,232.23L593.261,233.462L593.348,236.298L594.001,237.085L594.262,237.3L596.249,238.947L596.742,237.63L597.714,237.229L597.787,237.587L597.787,237.816L597.845,237.959L599.716,237.787L600.819,239.348L602.037,239.95L602.385,240.021L603.067,240.766L603.285,240.938L603.792,241.654L603.154,244.675L605.533,246.179L605.925,246.179L607.796,246.723L607.825,247.081L607.578,248.971L609.087,249.859L609.058,251.262L610.291,252.493L611.611,252.035L611.741,253.925L612.641,254.311L612.264,256.888L610.436,258.348L609.551,258.363L610.001,259.565L609.943,259.809L609.275,260.081L608.985,260.181L608.594,260.195L608.304,260.224L607.346,260.667L607.288,260.982L604.706,261.312L602.632,262.743L601.921,264.432L600.615,264.776L600.354,266.35L601.007,267.796L599.295,267.481L598.991,267.366L598.208,267.166L597.946,267.209L597.381,268.826L598.222,271.13L598.57,271.216L599.484,272.776L599.295,273.177L597.845,275.023L595.901,276.01L595.829,276.368L596.336,277.284L595.814,278.7L595.684,278.844L594.538,280.589L594.509,280.747L594.291,280.99L594.233,281.19L594.073,281.534L594.32,281.991L593.479,283.079L593.014,286.255L593.189,286.255L594.48,288.072L596.148,288.616L596.322,288.616L597.613,289.746L597.134,290.39L598.324,292.264L598.759,292.478L598.802,293.665L597.729,294.538L597.671,294.695L597.105,295.139L597.816,296.684L597.105,298.171L597.308,298.586L598.062,300.302L599.092,300.874L600.993,299.902L602.139,300.402L603.285,299.201L604.46,299.544L606.78,298.529L609.493,299.358L609.275,303.077L609.508,303.32L612.829,304.993L613.003,306.18L612.945,306.452L614.265,307.825L615.963,307.138L618.4,309.269L617.921,310.585L618.98,311.385L618.893,312.401L620.242,314.031L621.431,313.773L621.794,313.802L622.954,314.374L622.65,317.076L623.433,319.464L622.505,319.993L623.941,322.209L623.839,323.996L622.722,325.139L622.722,326.826L623.085,327.026L624.231,328.055L624.347,329.17L626.349,329.871L627.074,329.585L627.248,329.685L627.944,330.099L629.468,331.071L629.337,332.1L630.657,332.615L630.918,332.629L630.976,332.672L631.237,333.044L630.483,334.987L629.816,334.644L629.511,334.516L628.496,334.359L628.09,334.459L627.93,335.831L625.986,336.774L625.624,337.031L625.333,337.188L623.578,340.361L623.491,340.975L623.448,343.319L622.969,344.176L622.693,347.391L621.054,350.52L622.534,351.978L622.867,352.32L624.579,352.12L626.015,354.692L624.811,356.035L624.884,356.692L624.927,356.849L625.116,357.22L625.116,359.863L624.405,358.763L624.129,356.335L622.026,354.035L620.213,353.42L615.919,352.563L614.077,351.577L611.524,351.935L608.289,352.978L607.259,355.135L606.36,355.206L605.17,353.049L603.502,352.692L603.879,356.292L601.471,357.42L601.544,356.349L600.383,354.52L599.847,355.149L600.514,356.949L600.325,358.635L600.935,359.62L600.296,361.434L594.987,362.049L592.391,361.863L590.839,362.963L588.851,363.663L587.604,361.877L584.209,360.349L583.948,361.463L580.177,360.406L581.555,359.406L583.194,359.449L583.455,357.692L581.685,354.52L577.899,354.849L576.724,355.306L573.823,354.478L571.981,355.263L567.615,353.963L562.103,350.82L562.364,349.263L561.653,348.22L561.247,349.506L560.086,349.42L558.563,351.463L559.129,352.349L560.753,352.406L563.423,353.22L566.135,355.406L570.603,357.235L570.298,359.406L566.657,360.577L565.918,359.863L565.424,360.892L565.7,362.763L567.093,362.477L567.122,363.663L568.645,364.063L570.313,362.62L572.184,362.963L572.228,363.748L573.722,362.634L574.926,363.534L569.225,366.276L567.049,367.69L570.908,366.248L571.56,366.919L574.592,366.591L576.927,366.876L576.608,367.79L579.219,365.891L581.323,365.377L581.41,364.091L583.368,363.663L585.065,363.977L584.978,366.505L587.792,369.19L588.14,370.661L589.272,370.732L589.373,371.803L588.184,371.789L588.213,374.845L587.43,375.045L586.864,373.117L585.631,372.517L585.994,375.116L585.181,375.559L584.804,377.158L582.73,377.558L580.554,377.016L581.207,379.143L578.871,379.986L578.697,380.585L576.159,381.542L574.65,380.871L574.128,381.485L575.274,382.256L577.174,382.598L578.407,381.956L579.002,382.77L577.74,383.869L576.623,386.082L574.795,386.139L574.708,387.667L570.211,387.652L571.821,389.594L573.272,389.308L573.098,391.207L570.908,390.408L569.471,392.991L567.31,392.834L564.598,392.063L564.119,392.877L567.47,395.86L566.034,396.046L565.569,397.516L564.627,397.673L562.886,400.285L560.608,400.128L560.507,398.644L559.013,399.186L557.896,396.76L557.345,398.458L556.329,399.2L554.487,399.1L554.124,400.313L555.198,400.97L556.373,409.775L555.981,410.945L557.171,411.83L558.491,411.002L559.071,408.762L560.797,408.22L561.493,411.373L558.287,412.115L557.664,415.511L556.358,416.124L555.705,419.277L554.284,420.262L554.516,421.217L552.659,421.717L550.599,419.791L548.395,419.563L546.726,420.404L543.521,419.448L543.55,422.43L542.723,423.614L541.142,423.871L540.881,424.698L539.749,422.715L537.588,424.684L538.255,427.194L539.401,427.979L539.473,429.377L537.457,430.917L534.614,429.947L532.888,431.473L530.872,435.567L530.146,434.896L527.97,435.752L526.563,435.21L523.183,435.039L520.007,438.889L517.323,439.93L514.915,440.301L512.028,436.779L506.792,438.205L502.89,437.848L502.266,436.964L500.148,436.679L499.553,434.64L500.018,432.258L499.684,431.374L501.889,427.152L503.281,427.836L503.949,426.31L504.95,426.282L503.934,424.185L501.947,424.712L499.887,426.981L499.046,425.854L497.436,427.394L498.48,428.706L497.174,430.632L496.217,429.719L495.173,425.226L494.52,424.384L489.994,423.956L488.993,425.44L486.6,425.14L483.699,423.586L476.17,421.788L472.979,421.417L470.933,422.002L469.57,423.243L466.712,424.898L466.698,426.096L467.626,427.508L466.785,428.065L464.623,427.494L465.465,428.778L464.261,428.935L463.405,427.594L462.143,427.266L460.04,429.405L454.832,430.846L452.569,427.722L449.624,429.691L451.336,432.187L450.582,432.729L455.76,438.39L456.863,438.176L456.355,436.166L457.574,434.825L459.866,433.342L462.665,432.244L462.941,432.515L467.728,431.816L473.312,431.987L474.212,432.957L476.185,433.085L476.344,432.515L479.463,431.374L480.116,430.304L481.566,430.418L485.439,429.733L490.096,430.375L490.038,432.044L491.111,434.54L492.213,433.713L493.896,436.38L493.867,440.087L495.231,441.542L496.826,442.269L496.362,442.925L494.041,442.497L491.677,443.909L490.415,444.208L489.298,446.133L488.544,449.413L489.399,450.411L488.805,451.779L489.167,452.863L490.574,452.82L488.485,453.747L488.471,455.842L489.98,455.856L489.472,457.111L486.904,455.657L485.12,457.211L484.612,458.764L485.12,459.491L483.67,460.945L481.914,459.848L482.292,457.923L481.218,457.054L479.608,457.04L478.578,457.71L476.982,460.119L475.372,460.019L472.674,466.874L475.445,469.041L472.863,469.81L472.892,471.535L473.82,471.649L473.951,474.114L475.532,476.009L477.476,475.653L478.201,476.479L477.171,477.462L476.402,479.329L474.531,476.622L473.066,475.582L471.615,475.368L470.875,472.162L469.715,470.708L468.932,468.442L464.478,467.088L460.257,468.784L457.632,470.979L455.905,472.96L457.153,474.883L456.819,475.767L455.195,475.995L454.716,477.505L456.921,478.161L456.239,480.526L454.498,482.449L455.775,484.957L457.095,485.925L458.415,488.589L456.906,490.342L454.382,490.185L452.83,491.325L452.845,489.971L451.554,489.914L451.583,492.749L449.624,492.464L450.567,493.888L448.551,495.327L445.882,496.509L446.448,499.757L444.489,500.17L444.141,500.996L447.115,505.254L448.493,506.065L448,508.799L448.304,511.206L446.129,511.434L445.345,513.142L443.503,513.484L441.414,510.693L439.876,511.135L440.036,511.918L441.646,512.886L441.037,513.641L437.338,514.139L434.596,512.701L434.335,513.626L431.318,513L428.069,510.266L426.647,510.522L422.339,510.28L419.67,510.665L416.29,507.931L415.376,506.578L412.765,504.385L410.662,503.944L408.689,504.656L407.572,503.175L405.628,503.36L401.828,502.776L400.29,503.445L398.419,502.049L399.043,501.551L398.448,500.241L397.2,500.412L397.287,502.149L396.127,502.747L395.46,501.138L393.182,503.089L388.41,504.812L389.73,506.037L387.96,507.646L388.279,508.443L385.48,507.646L385.422,509.184L386.437,509.554L385.973,510.807L385.9,515.933L386.64,516.787L386.858,519.407L388.584,519.563L387.902,520.631L389.962,522.026L391.833,525.229L391.093,525.94L389.672,524.474L388.105,524.702L382.245,521.528L382.1,521.997L379.851,521.684L377.211,520.076L375.935,522.268L374.484,522.054L372.831,519.734L372.337,516.787L370.089,514.281L369.625,512.63L368,511.163L367.696,510.223L368.914,510.238L369.886,509.17L368.842,506.863L366.956,507.432L366.216,507.076L365.824,501.523L364.33,501.323L364.113,502.819L362.546,502.719L361.85,503.673L362.27,499.842L361.298,499.942L361.444,495.925L362.531,493.86L358.586,492.792L357.266,491.809L354.727,485.142L354.887,480.839L355.902,479.158L355.003,478.745L352.929,475.838L353.277,471.592L352.406,471.763L351.812,475.895L352.015,480.939L351.043,482.435L351.072,486.638L348.504,486.624L344.82,485.341L344.834,483.632L343.558,483.632L343.587,487.877L352.058,491.182L352.464,492.393L354.959,502.491L353.465,502.89L352.174,502.406L350.027,500.255L349.273,502.249L344.037,500.284L343.746,501.067L336.581,498.404L337.19,472.76L330.416,472.903L329.893,471.392L325.411,471.763L324.729,472.76L327.355,472.475L330.343,474.698L330.242,478.816L327.224,478.745L327.253,481.822L320.769,481.666L320.842,478.602L323.38,477.42L324.004,478.061L323.888,475.396L320.595,475.753L320.523,474.955L318.318,474.94L315.359,474.299L314.619,476.793L313.937,476.565L310.412,478.959L311.689,480.996L310.659,481.965L310.02,483.703L306.916,482.976L305.944,483.432L305.828,485.028L302.666,484.586L299.823,485.27L298.865,486.951L298.967,488.162L297.052,490.399L295.79,490.47L295.558,489.117L292.367,488.404L288.755,488.661L286.637,490.726L285.259,490.897L283.402,493.618L282.72,495.769L286.129,499.614L287.812,499.771L288.827,500.782L286.115,501.993L285.361,503.089L284.302,502.42L278.05,502.548L276.875,505.339L273.582,505.225L269.68,503.801L264.487,506.863L260.12,507.717L255.333,502.406L255.638,502.292L254.826,498.56L252.693,497.848L252.78,500.184L249.85,497.677L249.836,495.697L248.197,491.51L245.121,487.421L245.963,486.51L245.223,485.712L243.395,486.381L243.439,484.643L242.003,483.318L241.8,485.227L238.188,482.592L237.085,480.925L236.331,478.446L235.069,478.431L236.331,480.597L236.099,482.036L241.292,485.84L245.179,490.926L247.79,495.626L248.139,497.107L249.589,498.09L250.329,501.067L252.07,501.936L253.868,502.149L254.362,503.801L252.853,508.173L252.998,509.939L254.1,511.96L252.577,513.455L249.444,514.495L247.848,514.609L245.557,513L245.673,513.726L244.019,513.114L243.207,513.669L241.945,513.099L240.436,514.837L238.956,517.413L236.186,519.293L233.27,518.453L232.24,518.851L230.935,517.897L229.034,519.008L228.628,515.919L229.31,514.025L231.123,512.174L232.995,511.875L233.56,510.665L236.07,510.181L236.737,508.529L233.981,505.126L232.284,506.82L231.979,506.407L223.885,511.633L220.868,511.59L220.94,502.519L220.244,502.192L220.36,498.66L217.546,498.574ZM468.946,424.527L469.265,425.098L468.177,426.481L467.38,424.798ZM525.504,449.512L526.491,451.523L525.243,451.394ZM523.488,447.431L524.054,447.445L524.823,449.869L524.59,451.394L523.096,451.751L521.008,450.995L520.137,452.121L519.296,450.596L521.66,447.873L523.372,448.158ZM520.717,448.871L519.078,448.914L519.615,447.188ZM469.773,425.939L470.556,428.535L469.787,428.336L469.251,426.438ZM398.578,528.061L397.578,530.438L396.809,530.794L396.228,532.659L395.532,532.175L394.198,529.599L394.763,528.858L397.128,529.058ZM389.44,527.777L389.817,528.801L388.337,528.446ZM363.271,524.759L364.055,524.645L364.765,527.022L366.854,527.905L369.712,527.478L370.611,530.253L368.624,530.581L367.42,531.847L364.577,531.292L363.735,530.082L363.808,528.332L362.749,527.236ZM406.325,514.039L407.238,515.306L406.15,516.972L405.135,514.651ZM363.025,506.08L363.997,506.777L363.213,507.39ZM330.561,505.951L331.373,507.019L330.125,508.258L329.777,507.461ZM341.817,506.023L342.499,507.874L341.469,507.318L339.569,508.159L338.133,506.379L339.366,506.25L340.047,505.026ZM327.413,483.418L327.079,486.524L326.992,491.951L326.223,492.948L320.16,492.877L320.305,484.686L322.873,483.475ZM439.92,531.819L439.209,531.805L437.512,532.004L437.773,530.652L439.267,530.168ZM485.99,481.965L484.699,483.803L484.192,483.831L483.699,485.911L483.728,486.125L482.698,487.806L482.567,488.162L481.175,487.934L480.768,487.906L479.956,487.136L479.782,486.894L478.36,486.951L478.36,486.282L480.319,484.031L483.292,481.851ZM259.134,593.562L260.222,594.67L259.424,595.011L258.322,597.271L258.554,598.707L256.871,600L254.594,598.792L253.404,596.518L253.825,594.585L256.581,595.04L258.67,594.571ZM240.465,570.43L241.422,570.828L241.263,572.307L242.771,572.819L243.163,573.743L244.338,573.487L245.76,575.108L244.933,577.909L244.918,579.346L243.7,578.279L242.612,578.407L241.683,576.26L239.986,576.246L240.813,573.288L239.783,573.203ZM249.052,569.491L251.852,571.866L251.968,574.497L250.111,574.397L250.401,572.762L249.139,571.781L248.603,570.373ZM281.981,563.006L283.156,563.29L283.852,565.737L280.69,566.163L279.05,570.131L275.293,571.994L272.61,570.188L272.378,568.937L273.654,568.453L273.437,567.486L275.7,565.41L276.323,567.401L278.369,567.785L279.37,564.059L280.588,564.201ZM281.604,558.227L280.371,558.213L281.371,556.221L282.068,557.629ZM282.764,553.12L281.342,555.595L279.718,554.685L279.906,553.419ZM239.145,551.071L240.305,551.157L241.234,552.764L239.812,552.565ZM261.194,541.339L262.412,541.382L263.544,542.535L265.473,546.419L265.894,545.139L267.779,545.736L264.661,547.7L264.82,549.364L262.18,553.703L262.296,555.282L263.921,556.392L265.313,555.766L267.054,556.733L269.143,555.51L268.171,556.932L269.404,559.194L268.65,561.143L265.734,560.915L263.5,560.033L262.63,561.413L259.555,559.279L258.452,557.516L256.697,557.829L255.609,555.823L254.391,554.599L253.375,554.984L249.241,552.508L248.98,550.332L250.213,548.411L252.432,547.301L252.911,549.165L254.115,549.25L255.362,547.913L255.101,546.547L256.537,546.504L257.002,545.508L257.945,545.964L258.641,544.84L258.844,541.78ZM252.853,533.185L253.941,533.968L252.606,535.121L253.361,536.401L252.49,537.511L252.287,539.191L253.056,541.211L253.201,543.146L251.518,543.004L250.039,545.836L247.761,548.283L245.397,545.921L245.658,544.356L244.295,541.097L243.7,540.628L244.004,538.721L246.964,538.735L248.008,536.757L249.546,536.572L249.995,537.682L251.272,533.612ZM249.125,528.816L247.848,529.855L246.253,530.111L246.644,529.342ZM246.949,522.524L248.197,523.748L249.386,522.738L248.284,525.072L248.82,526.111L246.732,527.705L245.47,527.705L244.033,528.574L242.351,528.289L241.118,528.816L241.858,526.239L241.669,525.029L243.018,524.83L244.425,523.592L245.252,524.432L246.586,524.318ZM241.045,522.14L241.451,523.592L240.523,525.314L239.827,524.517L240.146,522.624ZM242.902,519.549L243.294,521.058L242.496,521.784L242.148,519.805ZM611.074,380.485L613.99,381.642L615.092,381.299L615.397,379.886L616.079,382.384L613.482,383.655L612.525,383.612L612.148,382.341L610.45,381.042ZM625.014,373.246L626.305,373.674L626.175,375.016L624.927,376.387L623.999,374.231ZM608.565,369.961L610.218,370.218L611.016,371.246L610.421,372.175L611.306,374.274L607.39,373.146L605.344,370.461ZM595.814,368.347L598.193,368.876L597.178,370.59L600.34,371.661L601.645,373.403L601.616,374.688L600.18,375.131L600.195,374.088L597.816,373.046L596.728,374.688L597.337,375.259L595.785,375.788L596.177,377.073L595.176,378.044L591.941,376.53L594.044,375.816L593.305,374.917L591.361,374.788L591.912,372.389L593,370.761L591.752,369.104ZM598.469,364.391L599.005,364.448L600.586,366.633L599.208,367.648L597.888,366.948L597.25,367.776L595.756,367.79L590.418,366.705L592.608,365.12ZM653.112,360.863L653.243,361.049L653.112,360.863ZM574.345,357.635L577.087,359.292L577.276,360.249L575.39,360.863L573.809,359.849L573.504,360.806L572.489,360.292L573.432,357.863ZM614.193,355.178L620.184,356.935L620.721,357.52L623.012,362.463L625.159,364.12L626.363,364.063L627.785,361.72L629.801,359.249L631.368,359.606L633.094,361.134L633.297,362.749L635.067,364.52L635.734,365.905L636.793,366.491L636.866,367.819L634.951,368.69L634.371,370.49L633.268,368.176L632.63,368.533L632.267,366.091L630.831,365.948L630.759,367.162L629.83,367.548L627.669,365.405L626.16,366.005L625.682,367.805L626.653,368.462L626.61,369.847L624.956,370.547L622.766,370.718L622.128,369.547L621.054,370.332L620.082,369.076L619.009,369.09L619.821,366.705L618.08,365.448L617.979,363.977L615.731,365.377L616.296,367.705L614.498,367.548L613.555,368.176L612.626,367.405L611.524,368.447L607.941,368.89L606.215,368.062L608.768,366.276L608.869,364.805L605.751,366.962L604.605,366.648L603.139,364.691L604.227,362.034L604.01,360.063L605.765,359.649L608.129,362.177L609.029,360.706L608.086,358.678L611.625,355.449ZM549.265,428.792L550.788,429.134L549.366,430.846L548.424,430.603ZM563.974,427.822L567.035,428.906L568.282,428.279L568.427,430.318L565.468,431.031L563.626,431.017ZM572.779,421.888L571.763,423.571L570.327,423.7L569.718,424.712L568.819,424.227L572.097,421.974ZM567.774,419.349L569.123,420.119L567.455,422.801L564.061,425.996L561.174,426.41L560.623,425.64L555.154,427.708L553.297,427.851L551.6,426.909L551.803,425.212L552.732,424.784L553.327,423.272L556.17,421.902L556.097,423.757L557.751,424.128L559.854,422.801L561.537,422.644L562.857,420.747L567.223,419.891ZM575.332,391.021L575.535,392.463L574.084,392.948L573.852,392.092ZM587.937,384.654L589.141,384.412L589.635,386.467L588.88,388.109L585.703,387.538L584.63,389.308L583.76,389.651L583.049,388.452L581.961,388.623L579.742,390.622L578.857,390.136L576.884,386.111L579.669,385.497L580.525,386.453L580.554,388.623L581.207,387.238L581.033,385.839L581.729,384.312L584.398,384.255L584.688,384.797ZM594.842,379.529L595.64,379.3L597.816,381.485L598.28,382.641L599.977,382.87L600.412,381.942L602.284,381.742L602.516,383.441L600.717,385.382L599.136,385.097L597.149,386.682L594.596,383.898L593.319,384.04L592.449,385.111L592.043,384.169L590.2,383.741L589.228,384.183L588.169,383.455L590.418,382.77L590.099,381.485L591.68,381.185L592.956,382.27L593.014,380.771L594.378,379.172Z"
          fill="#e0e0e0"
          stroke="#333333"
          stroke-width="1"
          stroke-linejoin="round"/>
  </g>
</svg>