<?xml version="1.0" encoding="UTF-8"?>
<svg xmlns="http://www.w3.org/2000/svg"
     viewBox="49.36853971313394 -20 701.2629205737321 640"
     width="701.2629205737321"
     height="640">
  <title>広島県</title>
  <desc>都道府県コード: 34</desc>
  <g id="34">
    <path d="M165.751,501.734L162.372,502.183L159.565,502.547L158.291,502.687L156.129,502.898L154.253,503.136L152.95,503.879L151.332,505.7L149.814,506.163L149.112,506.247L147.766,505.672L146.206,503.528L144.53,503.682L143.642,505.07L142.626,505.238L142.339,505.028L141.838,503.416L142.239,502.982L142.511,502.645L142.583,502.365L144.287,498.511L144.444,497.348L145.361,495.792L145.747,494.839L147.108,493.633L147.265,492.246L146.134,491.657L144.759,493.661L143.227,492.33L144.215,490.886L141.709,490.563L142.039,492.54L141.953,492.778L141.738,492.918L141.466,492.876L137.442,492.288L136.698,491.194L135.409,491.096L133.189,492.316L131.886,493.675L131.571,493.619L131.428,493.549L130.483,492.778L129.982,491.503L131.299,491.475L130.999,490.479L131.056,490.129L131.528,489.288L129.194,488.713L128.307,489.498L127.132,488.797L126.846,488.699L125.944,489.134L126.445,490.774L124.684,491.32L124.254,489.554L121.849,488.026L121.791,487.774L121.662,486.919L120.145,487.087L119.515,487.409L118.87,485.096L119.873,483.498L119.787,481.072L120.46,479.572L119.744,475.422L119.386,474.763L117.08,473.795L116.894,473.304L115.706,471.593L115.605,471.383L115.562,471.271L115.247,470.794L115.219,469.181L115.147,468.873L114.102,467.611L114.99,464.202L115.634,463.207L115.849,462.954L116.937,461.972L117.023,461.762L117.095,460.303L116.121,458.494L112.312,454.987L111.367,456.698L110.579,457.035L110.307,455.674L111.725,454.313L111.782,454.131L111.739,453.934L109.677,453.696L112.14,450.132L112.069,449.263L109.892,448.379L109.104,445.404L109.591,444.338L109.921,444.001L110.05,443.65L109.992,443.215L109.777,440.689L111.968,439.609L111.754,437.532L112.24,436.942L111.066,434.725L111.009,434.248L110.178,433.027L109.305,433.041L108.431,433.237L107.601,434.725L105.696,435.02L105.253,435.02L103.935,435.076L103.162,436.423L103.076,436.437L101.701,435.82L101.587,435.721L101.372,435.609L100.456,433.743L100.47,433.462L99.095,431.483L99.253,430.542L99.224,430.388L99.153,430.135L99.181,429.911L99.124,429.546L99.024,429.293L99.052,429.139L99.196,428.9L99.009,427.384L99.067,427.188L99.238,427.005L96.947,424.535L96.733,424.142L95.415,423.215L93.668,423.271L93.368,423.159L92.251,421.924L92.122,421.615L91.735,419.523L87.898,420.899L85.406,420.969L84.69,420.464L85.32,419.467L85.664,414.427L85.564,414.342L84.991,412.278L86.738,411.211L86.967,410.846L86.652,409.723L86.294,409.456L85.965,408.754L87.053,405.706L87.926,405.103L88.027,402.055L87.511,401.957L86.179,401.774L85.664,401.746L84.661,400.988L84.747,400.735L85.048,400.257L85.234,400.033L85.764,399.063L85.478,398.937L85.635,397.181L85.778,397.153L86.351,396.914L86.323,395.06L86.552,395.032L86.709,395.032L86.895,394.948L86.408,392.054L84.776,389.273L84.819,388.978L84.275,386.955L84.819,386.561L84.934,386.323L86.408,385.128L86.523,384.496L86.523,383.204L86.566,382.796L86.623,382.656L86.967,382.501L87.354,382.642L87.64,382.347L87.84,382.15L88.155,381.827L87.182,381.461L87.11,381.208L87.21,379.494L87.282,379.213L87.225,377.949L87.497,377.344L88.17,374.745L88.814,374.253L89.315,373.719L89.373,373.297L89.859,371.709L88.542,368.505L87.583,367.099L87.396,366.818L86.194,364.359L86.065,364.134L85.363,363.178L85.177,360.817L84.604,360.282L83.788,359.692L83.817,359.537L84.132,358.216L83.144,356.684L83.516,355.587L82.657,354.336L82.456,353.647L82.213,353.45L82.012,353.408L81.74,353.366L81.626,353.267L81.382,352.832L81.239,352.649L81.01,352.424L80.867,351.89L79.249,351.074L78.891,349.949L78.962,349.668L78.977,349.499L79.005,348.389L79.048,348.023L79.32,347.503L79.55,347.264L79.607,347.081L79.693,346.687L79.807,346.49L80.165,345.801L80.165,345.506L80.108,345.183L80.122,344.564L79.306,343.763L78.805,343.256L77.273,342.314L76.585,340.739L74.423,339.909L74.294,339.98L73.951,339.98L73.765,340.008L73.492,340.078L73.192,340.163L71.445,339.994L71.244,340.177L71.173,340.191L70.858,340.261L70.614,340.416L70.428,340.303L70.142,339.952L69.913,339.755L69.727,339.713L69.369,339.53L69.927,338.728L70.127,338.573L71.516,336.534L71.76,336.281L72.691,335.156L72.791,335.1L74.237,333.145L75.053,330.908L74.309,329.586L74.523,328.25L74.566,328.109L76.099,324.55L76.17,324.184L76.657,323.185L79.077,323.579L80.437,322.623L80.881,322.369L81.511,322.187L81.783,321.863L81.755,321.244L81.984,321.061L83.387,320.653L83.559,320.92L84.619,320.836L84.919,320.836L85.993,320.639L86.451,320.583L87.54,319.471L89.344,319.682L90.933,319.274L91.22,319.134L92.594,317.445L92.738,317.333L93.74,314.927L96.346,313.308L98.58,309.439L98.852,309.185L101.945,307.933L101.859,307.652L102.36,306.582L102.646,306.483L104.952,305.09L105.954,302.867L105.94,302.318L107.4,299.587L106.856,296.392L106.971,296.124L107.773,295.336L108.446,295.012L110.393,293.577L110.45,293.154L109.992,290.494L109.949,290.353L110.379,289.705L110.493,289.41L111.754,288.114L112.312,286.678L110.966,286.045L110.594,285.904L109.992,285.453L109.72,285.2L109.348,284.89L109.076,284.538L108.231,283.862L108.059,283.75L106.756,283.158L106.942,282.088L106.785,281.99L106.255,280.384L106.498,278.399L106.398,278.075L106.513,277.751L106.255,277.399L106.627,276.963L106.756,276.822L108.446,274.569L108.618,274.329L108.732,272.02L109.004,271.696L110.092,270.006L110.279,269.724L110.751,269.555L110.88,269.499L110.923,268.822L111.481,268.597L111.782,268.442L111.997,268.372L112.827,267.808L112.856,265.287L112.699,265.034L112.684,264.766L111.725,263.484L111.567,263.033L110.937,262.273L111.424,260.737L112.469,260.385L112.584,260.117L112.842,259.85L113.028,259.807L113.93,259.455L114.088,259.455L114.145,259.413L114.302,259.061L114.302,257.046L114.531,257.032L115.519,256.708L115.419,256.525L115.835,255.003L116.121,254.947L116.708,254.214L116.908,253.919L117.037,253.834L117.195,253.764L117.309,253.101L117.653,252.777L118.555,251.227L118.541,250.903L118.727,250.763L120.431,248.973L120.46,248.55L120.245,247.198L120.431,246.845L122.135,244.788L122.579,243.534L122.794,243.28L122.98,243.026L123.252,242.956L123.753,242.181L123.653,241.843L123.882,239.954L125.113,238.545L125.4,238.629L126.803,238.305L126.445,236.783L126.259,236.727L126.631,235.331L126.674,235.035L125.686,233.457L125.786,233.09L125.385,232.259L125.142,232.174L124.712,232.104L124.24,231.991L121.562,231.864L121.004,232.019L120.76,231.934L120.56,231.737L119.328,231.596L119.099,231.483L118.083,232.808L115.462,230.976L115.362,230.017L115.119,229.679L113.171,228.749L112.928,228.763L112.699,228.735L112.384,228.467L112.226,228.326L112.713,227.565L113.042,226.972L112.956,225.619L112.899,225.45L113.214,223.744L113.486,223.97L114.947,223.913L115.906,222.715L116.121,222.785L116.536,222.87L116.737,222.743L116.88,222.588L117.052,222.532L117.596,222.503L117.753,222.461L118.326,221.15L118.011,220.924L118.484,219.091L119.314,218.584L119.5,218.541L120.889,218.09L121.032,218.09L122.364,217.667L122.393,217.399L123.653,216.751L123.667,216.525L124.097,215.242L124.254,215.129L125.214,215.073L125.4,214.875L125.786,214.579L126.216,214.269L126.259,213.832L126.56,213.902L126.746,213.902L128.278,213.578L128.865,212.718L128.836,212.422L130.283,211.449L131.471,211.421L134.034,209.037L134.593,207.472L135.28,207.796L135.624,208.078L136.383,208.727L136.712,208.783L137.099,208.896L137.657,209.136L137.915,209.136L138.173,208.938L139.59,209.206L139.733,209.221L139.862,208.868L139.891,208.614L141.137,207.077L142.726,206.978L142.898,205.427L142.769,205.243L142.998,204.891L143.07,204.792L143.17,202.93L143.356,202.775L144.23,202.423L144.588,202.338L144.673,201.887L144.874,201.661L145.962,200.758L147.852,202.282L149.055,202.606L149.127,202.86L149.284,202.916L149.914,202.86L150.645,202.775L153.508,201.111L153.809,200.956L154.726,200.547L155.055,200.293L154.826,199.418L154.625,199.108L155.57,196.95L155.714,196.639L156.129,195.807L155.084,194.044L155.155,193.846L155.184,193.606L155.27,193.508L156.401,192.365L156.673,192.181L157.146,191.49L157.103,191.264L156.53,190.488L156.43,190.291L156.515,189.896L156.458,189.515L156.916,188.64L157.346,188.499L157.489,188.457L157.804,188.414L158.864,186.919L159.107,186.806L160.596,186.707L159.852,185.395L160.052,185.212L161.427,184.901L163.231,183.321L164.405,181.515L164.491,181.105L164.076,179.892L163.976,179.68L163.747,178.918L163.89,178.664L164.148,177.987L164.291,177.888L164.334,177.098L164.362,176.688L164.319,174.727L164.362,174.529L164.62,173.894L164.606,173.231L163.775,172.61L163.475,172.341L163.131,172.398L162.888,172.356L162.701,170.224L162.973,169.759L165.035,168.149L165.236,168.291L166.868,168.192L167.498,168.051L170.019,168.121L170.19,167.924L170.992,167.966L171.193,168.022L172.224,168.135L173.842,169.617L174.142,169.533L175.131,170.295L175.617,170.408L175.746,170.591L176.562,172.539L176.677,172.723L177.307,172.962L177.436,172.85L177.508,172.765L177.751,172.426L179.784,172.172L180.056,172.243L180.815,172.638L180.901,172.948L180.873,173.725L180.729,173.965L179.727,175.334L179.412,175.588L179.269,175.658L179.169,175.827L179.24,176.717L180.887,177.267L181.044,177.366L181.273,178.396L181.173,178.749L181.159,179.059L181.087,179.186L181.331,179.525L181.388,179.765L181.588,180.993L181.717,181.232L182.419,181.388L182.677,181.656L183.765,182.869L183.923,182.982L184.037,183.024L184.553,183.194L186.171,184.196L187.359,183.829L187.517,183.688L187.631,183.645L187.803,183.674L188.634,184.125L188.934,184.365L189.736,185.042L189.908,185.141L190.724,183.25L190.896,182.77L191.082,181.247L191.096,180.922L191.641,180.484L191.855,180.23L191.941,180.019L192.099,179.567L192.385,179.483L193.903,177.479L193.746,177.309L193.488,176.632L193.445,176.067L193.459,175.87L193.559,175.715L195.006,174.797L195.235,174.6L197.44,172.765L197.612,172.37L197.998,171.339L198.084,171.184L198.471,171.226L198.929,171.17L199.616,171.269L199.717,172.977L199.86,173.471L200.146,173.696L200.361,173.795L200.604,174.162L200.748,174.346L201.707,175.686L201.908,175.743L203.841,176.378L203.998,176.533L204.213,176.745L204.628,176.815L205.659,177.098L205.888,177.281L207.12,177.436L207.377,177.465L207.864,177.521L208.996,176.999L209.253,176.914L212.418,175.658L214.866,173.047L215.253,173.146L215.726,173.329L216.384,173.64L217.057,173.682L217.286,173.4L217.53,173.104L217.888,172.751L219.649,171.819L220.222,171.791L221.367,171.565L222.212,171.41L222.728,171.396L223.888,171.424L224.26,171.311L224.804,171.339L226.25,172.13L226.766,172.384L226.837,172.426L227.424,172.948L229.143,174.896L228.556,177.676L228.613,178.085L228.369,179.92L230.116,180.442L231.162,181.656L232.379,181.797L233.038,180.993L233.653,181.105L235.4,183.448L235.844,183.151L236.173,183.222L236.345,182.799L236.36,182.559L236.918,180.527L237.076,180.287L238.221,179.722L238.665,179.44L240.068,177.846L240.126,176.632L242.818,174.529L243.691,173.188L246.326,173.485L247.643,173.104L248.288,171.918L248.216,171.565L248.388,170.747L248.087,170.351L248.216,168.093L246.712,165.355L246.669,164.155L248.832,164.959L250.75,163.985L252.311,162.32L252.583,160.724L253.843,160.202L255.762,161.868L256.278,162.023L256.578,162.348L256.979,162.418L258.168,163.858L257.896,164.211L258.712,165.03L261.848,166.752L263.194,168.051L263.308,168.46L262.879,169.73L262.249,170.21L261.977,171.579L263.538,170.563L265.055,170.747L265.385,170.662L270.153,170.704L270.869,171.297L271.098,171.382L271.685,172.356L273.862,171.989L275.05,173.202L275.351,173.485L275.623,173.583L276.038,173.541L278.229,172.243L278.43,172.045L279.589,172.299L281.021,171.382L281.437,171.862L282.339,172.652L283.269,172.257L283.556,172.243L284.816,173.838L286.319,174.134L288.253,171.17L288.811,171.368L289.212,171.523L289.369,171.325L289.599,171.212L289.871,171.001L290.157,170.944L290.315,170.817L290.515,170.464L291.918,169.744L292.147,169.73L292.419,169.857L295.627,172.61L297.374,173.344L297.804,173.428L298.376,173.471L298.519,173.682L299.221,174.204L299.465,174.332L300.352,174.698L300.61,174.783L300.925,174.713L303.345,173.428L303.531,173.174L303.46,172.652L303.603,172.313L303.617,172.214L303.846,171.876L304.061,171.523L304.233,171.071L306.381,168.502L308.056,167.317L308.385,167.5L310.376,168.079L310.591,167.952L311.063,167.98L311.378,167.881L313.139,168.559L313.483,168.615L314.314,168.516L314.414,168.305L314.4,167.938L314.385,167.528L315.001,165.439L321.101,162.334L322.762,159.002L323.478,159.877L323.693,160.018L323.807,160.004L324.079,160.16L324.437,160.202L325.168,159.214L325.425,158.833L325.54,156.785L327.731,155.077L327.745,154.893L327.702,154.766L328.003,154.569L328.862,153.1L329.292,153.453L330.938,154.766L331.182,154.795L332.184,153.863L332.485,153.82L332.886,153.962L333.559,153.962L334.89,153.354L334.661,151.448L334.618,151.363L334.618,149.387L335.306,149.796L335.277,149.528L335.32,149.274L335.621,148.85L336.165,148.469L335.878,147.932L338.542,147.904L338.9,148.257L340.647,147.805L341.262,147.833L344.169,147.96L344.083,149.288L344.327,149.514L345.458,149.838L345.573,150.064L345.902,149.132L346.761,149.909L349.525,150.898L351.085,149.457L351.544,149.358L353.52,149.627L353.649,150.672L354.45,151.519L354.68,151.702L356.14,152.775L356.255,152.888L356.727,153.806L357.987,153.806L358.331,153.665L359.849,153.679L360.278,153.849L361.309,153.227L361.209,152.945L361.023,152.564L361.037,152.521L361.138,152.324L361.352,152.084L361.266,151.448L361.324,151.236L361.682,150.375L361.624,150.036L362.813,146.35L363.744,146.096L363.858,145.941L364.173,145.009L364.674,144.783L366.307,142.905L366.779,143.54L368.34,143.385L368.541,143.47L369.257,143.611L369.586,143.526L369.915,143.568L371.347,143.54L371.276,145.701L372.02,146.421L372.049,146.704L372.507,147.508L374.669,147.847L377.189,144.896L378.521,144.825L378.951,144.599L380.168,143.964L380.282,141.817L379.838,138.781L379.552,138.357L379.466,138.286L378.607,137.495L377.877,135.885L377.734,134.628L376.187,126.844L375.213,125.77L373.252,125.375L372.693,125.276L371.677,125.347L369.085,124.414L368.569,124.442L367.553,124.584L365.992,124.23L365.476,121.009L364.818,119.624L363.558,118.918L360.15,121.108L359.448,121.39L357.5,121.221L357.085,120.995L355.868,117.335L354.851,116.077L354.393,115.964L352.346,115.371L350.899,116.049L350.685,116.162L348.694,116.304L347.448,116.417L346.174,116.6L345.673,116.516L345.243,116.275L344.9,115.866L344.871,113.082L347.95,113.746L348.723,112.799L349.324,110.326L349.525,110.283L350.899,109.916L351.057,108.997L351.128,108.729L351.458,108.347L351.572,108.262L351.587,108.192L351.572,107.994L352.933,105.775L352.89,104.248L353.119,104.262L354.078,103.443L354.293,103.16L355.152,102.792L355.31,102.877L356.24,103.004L356.727,102.806L358.345,101.223L358.517,100.983L359.477,100.248L359.634,99.697L360.092,98.467L360.651,98.297L362.24,98.467L364.188,97.35L365.548,93.731L366.923,91.186L366.965,90.889L368.14,89.673L368.87,87.128L369.242,86.958L372.521,86.506L374.54,85.615L376.201,86.845L377.748,85.7L377.963,85.728L378.092,85.615L378.192,85.318L379.881,85.148L380.053,85.12L380.784,86.11L382.33,86.364L382.459,86.52L383.06,87.283L383.046,87.722L384.693,88.796L385.838,87.75L386.01,87.538L387.943,85.785L387.499,85.601L388.043,84.045L390.363,83.494L390.75,82.674L392.998,81.825L393.399,80.694L393.986,82.419L394,82.716L394.272,83.932L394.544,83.861L394.974,84.074L395.375,83.593L395.375,83.027L395.504,82.9L396.277,82.405L396.835,82.433L398.21,81.896L398.582,79.973L398.726,79.181L398.597,78.997L398.31,78.94L398.454,78.53L398.711,78.431L399.642,78.176L399.041,77.483L397.895,75.56L398.01,75.348L398.167,74.952L397.838,74.782L397.551,74.683L397.451,74.33L396.091,72.576L397.566,71.953L397.723,71.402L398.368,71.628L398.797,71.741L399.828,71.416L400.945,72.321L401.747,71.996L401.89,71.854L402.32,71.387L402.663,71.402L404.496,70.086L404.811,69.209L406.959,68.558L405.441,65.432L406.172,64.484L404.525,63.536L405.398,62.801L405.527,61.372L408.592,60.933L410.94,60.169L411.842,58.995L412.085,58.726L412.844,57.693L413.116,57.566L414.692,57.495L415.78,56.293L415.794,55.741L415.608,55.161L415.565,54.948L415.264,53.434L415.279,53.18L415.408,52.033L416.696,50.024L416.825,49.911L417.054,49.939L417.24,49.925L417.77,49.43L417.956,49.246L418.73,48.354L419.159,48.156L420.434,47.661L420.734,47.519L421.651,46.684L421.765,46.613L423.541,45.509L423.655,45.255L424.271,44.42L424.429,44.264L424.672,43.641L424.83,43.486L425.76,42.41L426.09,42.084L425.875,40.216L425.961,40.089L427.006,39.735L427.264,39.621L427.622,36.833L427.722,36.691L428.896,35.856L429.068,35.814L429.168,35.545L429.455,35.446L432.992,33.591L433.206,33.436L433.894,33.152L434.051,33.011L434.724,33.039L434.925,33.096L435.555,33.789L435.698,33.832L436.686,33.237L437.115,33.322L438.204,33.138L438.333,33.082L438.347,33.011L438.361,32.558L438.891,30.845L437.087,29.132L436.858,28.877L436.5,28.495L436.457,28.268L434.824,25.493L434.624,25.408L434.237,25.054L434.352,24.573L435.555,23.369L435.712,23.1L436.013,22.293L436.242,22.194L438.089,20.41L438.991,19.985L439.979,18.895L440.051,18.314L440.967,17.082L441.239,16.827L441.34,16.714L441.469,16.657L442.07,16.19L442.557,14.037L444.991,12.083L445.292,11.941L447.526,9.972L447.869,9.703L449.129,8.315L448.943,7.239L449.659,5.596L450.747,4.845L451.019,4.887L451.721,4.434L451.95,4.335L453.898,3.513L453.912,3.187L455.143,1.898L457.42,2.196L458.251,1.572L458.68,1.502L459.11,1.388L459.138,1.204L459.525,0.85L462.231,0L465.783,0.807L466.055,0.85L466.427,1.133L466.384,1.487L466.255,1.884L468.818,5.128L469.219,6.8L469.377,7.139L471.081,8.896L471.883,10.964L473,11.134L473.143,11.247L476.493,11.927L476.909,12.309L477.481,12.153L477.653,12.068L478.584,12.253L478.742,12.465L479.271,13.442L479.271,13.811L480.173,13.726L480.331,13.626L481.19,13.173L481.534,13.088L482.15,12.862L482.321,12.819L482.679,12.578L483.181,12.253L483.281,12.267L483.725,12.932L483.868,13.131L484.183,13.343L484.283,13.556L485.285,13.655L487.505,15.071L488.364,16.147L488.579,16.232L488.665,16.317L489.037,16.501L489.252,16.714L489.452,16.855L489.753,16.898L490.798,17.039L491.772,15.977L491.958,15.878L497.786,14.674L498.273,14.235L498.889,13.768L499.232,13.811L499.991,13.683L500.607,13.541L501.481,13.102L501.939,12.805L502.196,11.87L502.483,11.658L503.514,10.765L503.858,8.655L503.772,8.358L505.261,5.397L505.433,4.788L506.908,3.301L507.137,3.159L507.409,3.088L508.397,2.833L508.812,2.777L509.399,2.465L510.387,4.278L510.573,4.391L510.831,4.491L510.974,4.476L512.148,4.037L514.024,5.596L514.511,5.709L514.411,6.7L514.554,7.012L515.241,8.669L517.031,8.584L518.105,9.349L518.592,9.349L518.792,9.406L519.022,9.547L520.998,11.219L520.797,12.366L520.983,12.734L520.983,13.4L520.339,13.641L521.084,15.028L521.184,15.368L521.527,15.425L524.792,15.751L525.508,16.261L525.68,16.402L527.069,18.201L527.785,18.271L528.888,21.104L530.176,21.118L531.035,21.245L533.642,21.458L537.765,19.985L537.98,19.433L538.166,19.164L538.481,18.838L538.639,18.64L538.954,17.663L539.083,17.337L541.274,13.853L544.61,13.938L545.34,14.448L545.584,14.08L546.056,13.513L546.257,13.386L546.328,13.272L546.586,13.216L549.464,13.966L549.923,14.108L551.125,14.136L552.615,15.071L552.887,15.383L557.97,11.431L558.614,12.083L558.901,12.083L559.574,12.493L559.946,12.904L562.853,13.145L564.943,11.332L568.581,11.7L568.967,11.941L569.11,11.984L569.411,11.998L570.8,13.499L571.072,13.612L571.788,14.207L571.974,16.232L573.163,16.402L573.406,16.515L573.721,16.558L573.979,16.685L575.439,16.586L575.554,16.685L575.525,16.841L575.597,16.983L575.883,17.351L576.342,17.705L576.528,17.705L576.27,19.744L577.229,20.636L577.43,20.75L578.217,21.84L578.289,22.038L579.005,22.69L579.105,23.072L579.291,23.058L579.893,22.746L580.451,22.449L581.368,21.33L582.012,21.854L584.06,20.636L584.604,19.05L585.091,18.994L586.193,19.107L586.322,19.178L586.852,18.526L587.009,18.371L588.384,18.172L588.57,18.484L588.756,18.555L590.503,20.537L590.532,20.849L591.291,21.557L593.596,20.566L594.885,21.458L595.214,21.245L596.575,21.16L596.746,20.835L597.405,20.721L597.548,20.82L597.735,20.92L597.949,20.976L600.054,20.084L603.176,19.829L603.677,19.348L604.006,19.135L605.424,18.696L606.999,18.965L608.13,18.456L608.66,18.144L610.292,17.79L610.736,17.733L613.013,18.144L613.199,18.314L613.428,18.371L614.116,19.362L615.161,19.263L618.397,21.132L619.987,21.118L621.218,19.886L621.075,19.73L621.146,17.224L620.717,16.487L620.731,16.147L622.421,16.006L623.867,14.745L626.087,15.496L628.693,15.014L630.755,17.762L630.912,18.158L631.771,20.311L633.304,21.854L633.332,22.336L633.876,23.808L635.795,24.672L637.714,27.051L637.442,27.39L637.27,27.985L637.027,28.806L637.012,29.358L636.697,30.01L637.642,31.383L639.719,32.643L640.177,34.2L641.022,34.724L641.279,34.795L643.227,35.828L643.785,36.776L645.146,36.635L646.348,38.461L647.193,38.843L647.594,39.041L648.754,41.462L648.826,41.716L650.028,42.919L649.985,43.5L649.985,44.207L650.186,44.377L650.687,44.929L650.587,45.311L651.002,45.835L651.732,46.302L652.763,47.576L653.222,47.887L653.594,50.25L656.1,51.736L656.171,51.892L658.334,52.132L658.52,52.26L659.422,53.25L659.608,53.335L659.637,53.363L659.823,53.703L659.808,53.845L659.837,54.057L660.367,54.382L660.653,54.51L661.584,56.363L661.613,57.736L661.112,58.146L660.811,60.481L661.555,63.31L661.971,66.323L660.811,69.039L658.849,69.704L658.577,69.959L657.589,73.113L655.169,74.23L654.84,74.471L653.365,75.263L654.038,76.508L654.21,79.251L652.692,80.072L652.763,81.839L650.687,84.286L651.074,85.983L652.792,87.595L653.236,89.164L655.656,92.685L656.3,95.046L653.895,98.255L653.637,98.354L652.935,99.244L652.806,99.654L652.878,100.05L654.066,103.386L654.181,105.817L653.465,108.276L652.291,108.7L650.787,110.594L650.873,110.835L651.246,111.979L650.086,112.983L650.043,113.124L649.227,114.057L650.014,114.608L650.501,116.289L650.372,116.586L650.028,117.533L649.842,117.773L651.031,121.772L651.962,123.496L651.99,123.665L652.305,124.188L652.377,124.4L653.981,125.347L654.124,125.474L654.983,128.455L656.286,130.376L657.775,130.856L658.09,130.998L658.62,131.111L658.949,133.3L659.035,133.554L659.522,133.879L659.594,134.119L660.796,134.586L660.997,134.67L662.214,134.91L662.257,135.136L663.03,135.814L662.486,138.47L662.615,138.682L664.605,139.925L664.963,140.193L666.395,140.701L666.367,140.829L665.88,142.509L666.023,142.622L666.08,144.147L667.254,144.797L667.627,145.08L668.285,146.972L667.011,149.401L667.398,150.657L668.529,152.437L669.946,152.832L671.421,154.964L674.257,155.811L673.641,154.216L674.013,154.117L676.576,154.922L676.591,155.246L677.994,157.096L678.037,158.748L679.268,160.88L679.641,160.767L680.442,160.569L683.263,161.303L683.192,161.938L683.163,162.56L683.364,163.025L684.967,164.225L686.299,164.155L687.96,167.274L688.089,168.728L688.046,169.561L688.103,170.224L687.602,171.043L687.731,173.612L686.8,174.021L686.585,175.715L685.325,176.307L684.137,177.719L684.409,180.061L687.387,182.22L685.325,183.194L684.982,184.816L684.652,185.212L684.552,185.451L684.38,185.564L684.151,186.115L683.679,186.467L682.963,186.806L682.791,187.145L682.805,189.035L682.805,189.543L681.76,190.432L682.232,191.067L682.275,191.236L681.946,191.617L682.934,193.761L681.631,194.509L680.471,196.893L682.376,197.486L683.349,198.783L682.948,200.152L684.409,201.633L684.266,202.394L683.75,203.424L683.55,203.48L682.419,205.229L682.104,205.243L681.273,206.456L680.944,207.162L680.07,208.614L678.796,209.39L679.827,210.885L679.769,211.153L680.285,212.873L681.717,214.354L683.707,214.819L684.223,218.231L684.967,220.558L684.452,221.573L684.123,222.602L685.655,223.617L685.196,225.267L686.17,227.113L686.156,230.694L687.903,232.23L689.02,232.4L690.394,234.739L691.798,236.29L690.165,238.672L691.368,240.687L694.647,241.674L695.549,242.829L696.58,241.857L697.626,242.167L698.714,242.646L699.186,243.041L699.315,243.435L699.1,247.592L698.943,247.775L696.408,252.834L696.48,254.059L696.537,254.553L695.692,256.3L694.261,256.525L693.759,259.596L692.757,259.807L692.485,260.963L692.485,261.258L692.227,263.991L692.399,264.259L694.332,266.696L692.886,267.696L692.728,268.963L690.967,270.189L690.996,270.583L690.423,271.851L690.996,274.709L691.526,274.991L691.969,275.329L693.387,276.751L693.588,277.047L694.003,277.54L694.332,277.427L694.504,279.385L694.59,279.652L696.165,281.257L696.151,281.863L697.139,286.425L696.681,287.016L700.332,289.297L700.733,290.142L703.439,290.029L703.969,290.184L703.926,291.479L705.673,291.944L707.606,291.296L708.737,292.239L708.279,293.52L708.565,295.561L710.771,299.995L710.384,301.431L712.446,303.035L714.594,303.936L714.981,304.358L716.67,306.92L717.057,307.201L718.202,307.384L718.073,307.877L719.377,308.594L719.348,308.763L719.233,309.312L719.334,309.481L719.047,312.253L720.021,312.816L720.665,314.772L720.536,317.783L720.594,318.05L721.653,318.515L721.839,318.852L722.913,322.13L723.142,322.496L722.512,323.65L722.126,324.156L721.181,325.31L721.023,325.802L721.038,326.168L720.107,329.797L720.422,330.514L720.207,331.344L720.966,333.566L719.921,333.257L718.904,334.692L718.789,336.829L719.921,336.942L720.193,336.759L721.396,336.323L721.94,336.393L722.971,336.717L723.959,339.909L724.088,340.163L723.629,342.975L721.811,344.62L720.565,346.533L720.665,348.037L719.534,348.853L719.233,349.429L719.692,351.173L718.947,350.624L718.403,347.714L717.801,351.552L718.99,352.818L719.205,355.798L719.047,368.21L718.875,370.037L717.758,370.81L706.332,364.204L704.742,362.911L704.857,353.085L704.585,352.283L702.437,351.341L701.993,352.185L703.239,355.264L703.296,356.627L702.609,358.806L702.065,358.849L701.062,362.321L701.835,364.049L704.957,366.439L707.878,368.336L714.265,372.018L713.262,373.775L716.742,375.785L715.482,377.387L712.489,382.571L704.685,376.234L703.454,374.871L701.993,375.068L700.203,376.248L700.232,377.035L701.621,378.37L701.435,380.267L699.544,380.225L696.408,380.97L694.819,382.108L694.06,383.794L691.339,384.609L690.752,388.304L689.793,391.689L690.051,392.616L689.378,397.659L688.905,398.74L689.292,401.409L690.967,404.78L690.437,406.605L689.664,405.538L687.688,406.521L688.461,407.644L687.86,408.627L684.71,410.411L683.321,412.966L680.586,413.528L678.409,413.205L675.903,415.016L673.469,415.339L673.125,414.693L674.257,412.11L673.641,409.554L672.094,408.038L670.763,408.15L668.028,406.647L666.954,408.094L666.281,407.097L663.116,407.49L663.317,408.88L662.429,409.147L660.61,406.914L658.72,406.675L654.582,403.01L652.191,403.923L652.635,405.369L651.475,405.538L650.601,404.4L648.482,405.692L645.761,403.263L644.558,400.075L643.069,398.586L643.828,396.76L643.399,395.117L641.437,396.423L641.337,398.024L640.506,399.71L638.587,400.524L636.268,400.356L634.163,398.965L631.972,401.929L629.953,402.645L627.447,401.957L626.244,400.946L626.76,399.12L625.858,396.577L628.048,397.083L629.008,395.735L630.411,395.229L631.428,395.805L632.516,397.996L633.203,397.673L633.518,393.979L635.194,393.262L636.712,393.993L638.888,392.462L639.919,385.48L637.828,381.56L638.917,379.733L638.287,377.766L636.196,376.459L635.666,376.839L633.633,375.742L632.315,375.939L631.471,374.689L631.958,372.496L629.652,373.072L630.612,378.623L631.471,380.998L630.755,382.909L629.552,383.372L628.091,379.649L627.604,375.757L625.256,375.981L626.788,382.487L624.053,383.667L623.18,384.805L623.094,386.646L620.803,386.927L621.547,389.582L620.817,389.568L615.433,391.015L612.068,389.835L610.235,390.116L603.892,393.262L601.558,394.92L595.071,396.914L592.522,398.01L590.059,397.617L589.444,398.319L582.127,400.271L577.931,402.125L577.258,402.856L572.418,405.791L567.721,405.482L566.132,405.889L566.232,404.246L562.924,402.069L562.681,402.603L560.92,401.1L559.101,401.521L552.758,398.474L552.758,399.724L555.092,400.833L554.877,401.549L556.524,402.21L555.464,405.468L558.228,407.574L557.898,408.557L556.466,408.726L554.719,407.041L553.646,408.206L553.832,409.372L553.13,412.671L552.228,415.297L552.586,417.557L551.841,419.088L552.156,420.716L551.068,424.338L549.98,426.612L548.519,427.454L544.696,427.932L544.08,427.286L541.202,426.682L537.723,427.96L537.723,429.321L535.431,431.707L533.713,431.637L534.458,432.872L532.167,434.22L531.007,431.848L529.861,433.462L527.642,433.616L525.408,434.711L522.802,434.683L520.726,435.89L516.487,435.174L514.368,432.437L512.148,432.1L511.074,430.949L509.399,432.227L508.969,433.602L507.194,433.476L505.834,434.472L504.445,433.392L502.683,433.336L496.383,431.202L496.655,432.493L495.338,432.9L494.965,432.086L492.116,431.272L490.698,431.244L490.942,429.377L489.896,431.385L486.818,431.974L486.316,432.872L481.763,437.111L480.431,437.616L478.441,437.251L476.522,437.588L475.205,435.834L475.462,434.851L476.765,434.95L475.119,433.574L473.529,435.328L473.529,436.1L471.296,436.942L467.444,437.434L464.565,437.097L463.706,438.037L464.465,439.328L462.26,438.486L461,439.707L461.788,441.573L460.442,443.44L457.85,443.215L457.535,442.443L455.015,445.137L454.027,444.422L453.239,445.839L454.141,446.176L455.043,448.463L456.532,447.874L455.544,450.68L452.867,449.052L451.492,451.044L450.662,451.409L450.074,453.177L448.557,451.62L447.225,451.9L446.853,453.598L445.492,454.047L445.793,455.393L444.791,456.263L443.072,456.544L442.628,452.335L441.082,452.798L439.507,451.507L439.006,450.315L437.645,449.627L437.287,448.154L438.59,444.801L437.617,444.296L436.886,445.222L434.137,442.808L431.345,443.271L430.6,442.429L428.223,442.668L426.605,443.72L427.207,444.969L422.352,446.905L421.15,444.815L419.689,445.993L421.293,447.396L419.66,448.477L419.904,449.431L418.987,452.826L419.173,454.117L417.169,455.954L416.768,458.802L415.522,459.546L416.109,464.174L414.992,463.291L414.133,465.507L412.959,464.511L410.324,463.515L409.809,462.631L407.962,463.543L406.028,462.337L403.737,461.594L401.146,462.211L400.301,461.762L400.487,464.385L400.043,465.437L402.262,468.073L402.735,469.111L402.32,472L400.816,472.561L399.671,474.174L401.117,475.898L402.005,474.188L403.336,473.262L405.169,472.771L406.658,474.608L408.491,474.861L408.749,477.932L406.415,480.147L405.112,480.189L404.554,481.241L403.508,480.736L402.191,481.703L402.348,483.063L403.451,483.68L403.122,484.942L401.561,484.746L400.115,486.106L398.339,485.152L398.096,484.311L396.563,484.381L393.571,483.596L391.623,484.788L389.805,484.031L388.43,485.615L384.249,484.858L383.977,485.601L380.855,485.741L376.631,487.535L375.886,486.764L374.225,488.797L373.567,488.138L372.55,489.092L373.853,490.073L371.562,492.246L370.359,494.474L368.397,495.161L368.383,497.081L369.027,499.744L368.068,500.361L368.082,501.931L365.791,501.398L365.562,500.487L362.899,499.73L362.212,498.427L360.121,496.969L357.329,497.362L355.668,498.875L355.754,500.165L357.472,502.351L356.054,503.963L354.193,503.556L352.603,505.084L349.281,505.238L348.995,506.429L346.775,505.883L345.601,506.583L345.816,505.364L343.84,504.117L341.477,504.159L341.792,503.052L341.234,501.468L338.442,500.333L337.482,501.861L336.265,499.408L336.251,497.39L337.053,495.343L336.007,495.483L336.494,494.124L334.69,494.474L333.373,497.348L330.451,496.451L331.826,492.89L327.115,490.409L327.416,491.376L324.552,496.633L327.358,498.329L326.184,500.697L324.122,499.716L322.962,501.16L322.332,500.893L320.113,502.603L317.979,505.322L314.929,507.312L314.586,508.811L311.894,508.111L310.92,508.979L308.199,509.708L307.727,510.787L304.061,510.465L300.696,511.109L300.639,510.142L301.655,508.307L301.942,506.345L303.159,504.215L303.316,502.309L301.842,500.207L297.617,495.315L300.639,491.713L301.97,492.834L302.6,492.091L304.018,493.367L305.25,493.647L306.338,492.652L305.378,491.769L306.209,490.816L306.996,491.194L307.727,490.143L307.025,489.386L308.042,488.152L308.786,488.783L310.046,486.358L308.514,484.872L306.911,484.003L306.094,485.082L305.25,484.339L303.846,485.25L302.285,484.003L304.133,482.138L301.34,481.058L302.214,482.474L301.197,483.75L299.436,483.274L297.617,484.521L296.5,482.965L294.524,482.502L294.438,481.605L295.913,481.156L297.231,479.502L296.987,477.202L295.584,476.642L294.281,474.847L291.288,476.684L289.727,475.814L290.701,472.056L289.77,471.439L289.685,469.911L290.816,467.218L290.501,465.226L291.26,464.399L291.847,461.944L290,460.008L289.298,460.163L289.212,458.704L287.236,455.94L286.563,456.207L285.675,454.973L286.821,454.075L285.274,450.259L284.043,450.287L283.155,447.537L281.437,446.092L280.449,442.836L282.224,440.549L282.582,438.921L284.444,437.686L284.945,435.834L285.074,431.623L283.799,430.683L282.596,430.781L282.11,432.465L280.062,432.83L279.203,430.29L280.592,429.055L281.379,425.012L283.556,424.83L284.229,424.071L286.606,424.605L288.353,427.44L290.687,427.398L289.556,426.542L287.093,422.471L293.064,418.849L294.524,418.737L293.436,416.827L291.746,417.782L290.859,415.55L289.828,416.954L285.904,420.787L283.441,420.772L283.398,419.902L281.408,420.056L279.36,422.036L275.05,421.966L274.349,421.208L274.392,418.695L273.747,418.681L274.105,416.757L273.446,416.855L273.16,420.225L268.836,422.359L264.697,422.247L263.466,423.173L261.161,422.415L259.872,423.44L260.344,424.1L259.772,425.742L260.516,426.682L259.929,429.097L258.44,428.732L257.108,429.279L255.877,428.465L256.263,426.865L254.459,426.43L255.361,422.668L252.254,422.036L245.61,418.386L245.008,419.214L243.806,418.54L243.047,419.958L240.612,418.624L240.899,418.091L236.617,415.395L235.815,416.687L225.663,418.189L225.491,418.695L226.279,422.654L222.728,423.721L223.014,424.689L220.694,425.391L218.661,420.787L221.468,419.537L220.58,418.217L219.735,419.116L213.435,420.66L212.948,421.362L210.757,422.387L210.7,423.019L214.967,421.629L215.811,421.825L216.914,424.31L215.167,425.082L214.451,423.454L208.738,425.995L207.306,425.419L208.795,428.479L212.088,427.019L212.862,428.76L207.793,430.865L206.203,427.258L204.327,428.1L203.196,427.272L201.922,429.672L200.075,429.995L199.874,430.907L201.034,430.964L201.464,431.974L200.075,431.441L200.547,434.206L199.531,436.283L199.602,438.893L196.695,442.163L195.349,442.064L193.13,444.436L193.731,444.941L193.187,446.498L191.87,446.527L191.154,448.898L190.094,448.884L189.493,449.922L187.545,450.301L188.175,450.792L185.927,452.069L185.011,453.317L185.125,454.622L182.133,458.255L182.591,459.714L180.729,461.902L178.982,462.884L177.794,462.253L178.854,463.683L177.25,464.974L175.732,464.076L175.531,462.379L174.314,464.132L175.374,464.595L175.574,465.675L174.386,467.218L172.209,466.489L170.262,468.452L169.131,468.999L167.627,470.794L167.57,471.593L165.336,472.224L162.186,473.655L160.511,474.889L158.62,477.216L158.678,479.46L156.773,481.97L158.062,482.867L157.36,487.928L155.442,487.339L154.253,489.414L161.169,492.82L162.658,492.554L166.625,499.31L165.479,499.983ZM266.015,442.471L267.046,444.927L266.516,446.035L264.798,445.011L264.812,443.271ZM255.805,437.448L257.309,437.826L258.154,440.086L257.953,441.952L259.142,442.906L257.581,444.871L257.352,447.537L254.602,448.575L254.588,449.726L256.421,450.581L256.707,453.598L253.944,451.521L252.111,453.401L248.588,450.497L246.684,452.237L245.123,451.535L243.648,451.563L244.106,450.553L246.483,450.301L248.03,448.505L250.092,447.439L250.736,445.095L252.297,444.38L252.383,442.794L251.824,440.984ZM274.52,425.672L276.482,427.356L275.637,428.942L276.883,429.56L276.897,431.778L276.067,433.378L274.148,435.09L273.604,431.202L272.573,429.335L272.859,428.269L272.373,426.289ZM264.626,423.019L266,423.735L266.888,428.198L265.943,429.644L265.113,429.111L263.595,425.938ZM292.906,595.496L293.207,597.315L291.875,595.93ZM280.277,593.72L281.25,594.098L279.79,595.371L279.546,596.476L277.9,598.112L276.081,598.685L275.566,600L274.807,598.434L275.909,597.678L276.897,595.86L278.558,595.217ZM265.728,584.921L266.387,586.041L267.389,585.229L268.148,587.356L267.074,587.342L265.628,585.929ZM298.419,577.744L298.777,579.129L300.238,579.409L300.037,580.416L301.269,582.053L300.696,582.501L299.966,587.076L299.379,588.405L298.677,593.007L296.701,593.301L296.014,592.405L294.224,592.028L293.551,590.937L292.634,591.286L292.119,590.223L292.649,589.09L293.408,589.566L293.923,588.279L295.369,586.726L295.756,585.215L295.412,583.103L296.486,583.047L296.801,580.57L297.675,580.444L297.488,578.22ZM305.865,574.82L305.192,575.799L305.364,578.234L306.366,579.185L308.93,577.198L310.419,578.989L308.715,580.85L307.684,581.144L305.894,580.263L301.999,580.794L303.331,577.548L304.662,575.309ZM416.553,550.858L417.899,551.124L417.584,551.922L418.615,552.734L420.176,551.404L421.479,551.572L420.877,553.714L419.288,555.38L417.326,554.848L415.952,555.716L414.992,555.422L415.851,553.28L415.995,551.082ZM311.736,531.352L312.28,532.78L311.192,532.472ZM356.212,531.1L356.011,532.318L354.608,534.587L353.176,535.147L352.847,532.836L354.25,531.814L355.095,532.346ZM409.866,532.444L409.007,534.013L407.117,534.895L406.043,534.573L404.539,536.086L402.721,536.534L402.119,534.335L402.749,533.061L404.954,533.285L407.346,532.402L408.191,530.946L408.95,530.876ZM362.054,530.119L363.042,530.245L362.684,533.173L363.3,534.013L362.627,535.133L360.823,534.909L359.519,532.682L360.565,531.646L361.968,531.338ZM319.039,525.385L319.583,530.526L317.765,530.918L316.347,532.654L315.302,531.674L315.316,529.671L316.003,528.018L317.235,526.604ZM419.145,525.595L418.028,526.996L415.336,528.649L413.145,529.503L410.568,529.139L408.577,529.363L407.89,522.513L408.191,520.832L410.138,518.661L410.782,518.507L412.715,514.696L415.193,513.911L420.076,518.465L421.364,521.491ZM449.86,513.715L450.733,514.612L449.315,514.682ZM447.067,510.451L448.285,510.689L448.471,512.65L447.296,512.342ZM445.707,510.423L445.664,512.174L444.046,511.74ZM444.017,509.75L444.619,510.058L443.13,511.502L446.681,514.654L448.141,515.313L447.726,517.596L448.972,517.442L450.962,519.067L452.953,518.969L452.609,522.009L449.86,523.69L448.528,525.595L445.392,527.906L444.089,528.411L442.628,530.077L439.435,529.979L439.306,530.988L437.402,532.192L435.984,532.206L433.951,533.621L432.304,533.495L430.672,535.021L429.469,534.867L426.247,533.215L424.801,534.139L422.61,532.78L422.911,531.786L421.751,530.806L423.97,529.475L424.343,527.682L423.054,525.231L423.083,522.738L424.715,520.328L427.808,517.82L430.042,517.008L431.86,514.92L434.166,514.794L435.855,515.663L436.414,513.883L437.173,513.323L441.168,512.244L442.657,510.044ZM430.615,510.521L431.202,512.09L430.6,512.847L428.209,513.393L428.152,514.514L425.889,514.962L423.827,514.472L425.388,514.052L426.276,512.524L425.231,511.277L426.892,510.297L428.796,510.423L430.314,509.4ZM289.756,508.069L289.785,510.395L288.467,512.202L288.41,509.694ZM299.135,507.424L300.639,508.363L300.109,510.577L298.391,512.384L298.62,513.813L299.55,514.696L301.569,514.192L303.102,514.514L304.519,513.449L305.55,514.5L307.369,515.116L307.025,517.512L307.827,518.675L309.273,518.857L308.844,519.698L309.23,522.233L309.875,522.892L309.445,524.124L308.514,522.653L307.841,522.724L305.908,520.566L304.677,520.692L302.071,522.555L302.515,524.32L301.842,525.203L301.527,527.542L298.877,529.027L297.474,526.954L295.971,527.458L295.312,529.041L293.078,531.394L293.05,533.159L294.825,532.458L296.901,533.831L295.613,535.497L297.932,537.416L300.395,535.946L303.56,535.427L305.307,534.699L305.894,535.847L305.822,540.287L307.125,536.268L309.288,534.923L309.674,535.749L308.543,536.996L306.338,540.497L304.677,544.319L304.748,547.372L304.018,547.624L304.147,549.01L302.958,550.704L301.713,550.396L300.395,551.684L300.696,552.986L302.214,555.072L301.226,556.289L301.083,559.187L302.013,559.509L303.073,557.773L304.82,556.667L305.794,553.742L307.183,554.344L308.786,553.84L310.505,554.064L312.223,553.126L314.442,550.186L316.648,550.438L316.748,549.01L318.223,547.89L319.841,548.702L320.17,549.682L321.76,550.2L320.285,553.154L321.387,555.576L321.087,556.373L322.805,557.493L324.079,557.395L324.437,555.688L325.927,554.918L324.337,558.837L322.848,558.697L322.304,560.027L321.029,559.705L319.554,557.521L318.695,557.451L318.123,554.68L316.361,554.414L315.259,554.918L315.087,557.689L314.614,558.375L314.428,564.646L313.483,564.898L311.908,567.529L311.736,569.208L308.958,572.917L309.13,574.428L305.923,574.708L305.522,570.58L305.063,568.942L302.772,567.767L303.674,566.871L303.76,564.758L302.744,563.764L301.24,564.674L301.527,565.457L299.35,566.003L299.493,563.918L298.992,561.651L298.033,561.595L296.228,562.98L296.357,563.946L294.396,566.045L293.05,565.835L292.634,567.193L291.746,567.291L291.388,566.115L289.856,565.919L289.198,568.327L288.51,568.201L288.525,565.905L289.412,563.918L287.494,562.518L286.835,561.301L283.957,561.511L283.771,563.792L282.897,565.15L283.212,566.115L282.382,568.438L280.95,568.76L279.647,567.515L278.802,568.229L275.995,568.313L276.253,569.978L274.821,571.601L273.762,569.222L272.33,569.894L270.225,570.09L268.191,571.853L265.685,573.224L264.769,573.196L263.194,571.769L262.535,568.299L261.69,566.605L259.485,566.955L258.955,566.563L259.428,562.798L258.869,560.979L259.557,560.615L259.514,558.949L258.755,558.809L262.149,555.926L262.478,554.946L263.996,554.75L265.471,555.31L267.418,554.162L267.089,551.992L268.95,550.984L270.225,553.224L271.427,552.146L270.511,550.97L271.127,549.276L272.244,550.326L273.89,549.444L274.721,548.268L276.496,548.212L277.9,546.294L279.947,546.042L281.15,545.019L284.988,544.809L287.164,540.301L286.806,538.802L285.117,536.898L283.47,537.276L280.778,536.73L280.921,535.077L279.862,533.341L280.162,530.371L279.833,529.909L280.692,525.595L282.639,522.513L282.253,521.239L284.386,515.943L285.675,514.5L287.293,513.673L288.41,513.771L289.727,512.216L290.801,512.314L293.379,510.17L293.837,509.035L295.527,507.564L296.687,508.797L298.233,508.545ZM363.758,506.401L364.889,506.513L363.643,509.904L364.517,511.095L365.333,510.941L367.309,511.838L368.125,514.528L366.378,516.531L364.402,521.393L363.2,522.836L361.381,523.746L359.119,523.676L357.858,524.278L358.617,522.934L357.329,521.645L355.31,520.958L353.205,522.892L352.575,524.026L349.611,523.802L351.529,519.025L351.587,515.256L352.689,513.085L353.964,511.67L355.023,509.68L357.558,509.512L358.861,508.853L358.99,507.872L360.694,508.027L362.426,505.742ZM380.812,505.56L385.008,509.358L386.196,509.077L386.597,507.592L388.473,508.797L393.857,509.834L395.933,511.614L400.1,510.857L401.733,511.235L402.835,512.721L402.363,514.29L400.372,517.316L401.79,517.806L404.969,517.75L405.47,520.37L404.21,522.794L403.021,523.256L402.749,525.609L401.06,526.45L400.487,527.724L399.47,527.71L397.537,528.859L395.518,527.766L393.442,529.041L393.456,530.96L391.752,530.399L391.666,529.237L392.626,529.153L394.874,526.015L394.745,524.404L393.027,522.527L392.196,522.878L386.726,523.102L385.91,524.769L384.12,523.508L382.745,521.925L382.201,518.913L381.385,518.283L379.395,518.395L377.218,519.249L373.524,518.241L372.765,517.554L368.741,517.386L369.214,514.99L369.887,514.794L369.93,513.211L369.07,509.68L370.445,509.68L372.235,506.779L374.769,505.434ZM373.896,494.6L375.457,495.806L375.815,496.871L374.168,497.922L372.278,497.95L371.734,497.264L371.691,495.273ZM410.081,473.711L411.914,475.408L409.551,474.608ZM413.675,473.529L415.808,473.921L415.007,474.819L415.508,476.642L412.529,475.464ZM409.608,469.504L409.909,471.411L408.004,471.944L408.749,469.756ZM503.943,446.007L505.347,447.284L504.516,449.277L503.442,446.007ZM508.597,443.019L509.471,443.987L510.401,443.818L512.864,446.933L513.05,448.449L511.461,448.856L510.802,450.637L510.086,450.329L509.07,448.07ZM484.641,438.205L487.219,438.584L488.794,442.261L490.025,442.977L490.168,446.274L488.965,446.078L488.106,443.412ZM565.359,418.302L567.22,419.102L570.098,422.162L570.07,423.145L571.086,426.668L570.757,429.223L571.974,430.879L571.172,434.613L569.755,435.623L569.64,437.56L567.02,441.096L565.531,442.135L563.569,441.924L561.836,440.914L561.564,439.454L559.889,439.454L557.984,438.781L557.283,434.795L558.027,434.585L559.373,436.058L559.244,437.476L560.247,437.027L559.617,435.188L559.831,432.802L558.528,429.321L559.86,428.844L561.793,425.531L561.364,420.379L562.839,419.116ZM563.025,413.809L563.827,414.567L562.738,416.294L562.695,417.417L561.65,418.147L560.419,417.88L559.345,418.582L559.388,416.013L561.879,415.016ZM537.035,460.149L536.62,460.135L537.035,460.149ZM575.511,442.668L576.256,443.468L578.547,443.664L580.065,446.176L581.325,449.459L582.37,451.213L582.527,453.205L581.239,457.007L581.368,458.914L579.85,460.317L578.404,460.499L577.344,461.481L575.425,462.084L575.511,463.01L573.621,463.754L571.287,463.796L570.227,464.315L569.697,465.647L568.38,465.689L566.118,467.456L566.146,469.364L565.445,470.598L561.378,472.084L561.092,473.557L557.784,474.16L556.237,476.039L555.235,475.113L551.512,476.403L547.001,474.202L545.813,473.066L544.667,470.724L545.04,466.741L546.515,462.856L547.531,462.112L547.474,459.574L548.834,457.105L549.665,454.748L551.34,452.728L552.271,450.132L552.385,447.312L553.316,446.723L554.677,444.674L556.653,444.057L557.569,444.59L557.168,445.867L557.884,447.972L560.605,447.747L560.705,448.477L564.113,445.811L566.547,445.741L567.779,446.176L570.084,444.324L573.12,442.864L574.351,443.327ZM549.937,433.434L550.925,433.897L551.999,438.5L551.87,439.735L553.703,443.468L553.474,445.025L551.784,446.428L551.383,449.908L548.963,451.143L545.527,450.455L543.379,449.038L542.562,447.509L542.162,443.72L542.577,441.854L544.181,437.448L545.612,436.662L546.787,434.571L548.648,434.641L548.734,433.139ZM577.788,419.86L579.406,420.702L577.931,422.261ZM584.289,419.411L585.52,420.197L588.699,419.453L593.682,419.551L593.911,420.688L595.042,420.716L595.429,422.064L594.284,423.159L595.042,427.468L598.594,430.304L599.41,431.511L600.727,431.96L604.049,430.556L604.708,434.978L605.753,434.514L605.854,436.142L607.429,438.29L607.472,441.194L608.359,441.615L609.605,440.633L610.679,441.433L610.808,444.31L608.975,445.951L605.223,447.579L604.107,449.108L602.775,451.984L603.262,453.261L606.083,453.303L607.429,454.173L608.975,453.051L610.221,452.924L608.932,455.674L607.715,456.936L606.226,457.427L605.624,458.676L604.107,459.714L604.422,461.776L605.581,463.403L604.006,465.605L601.916,465.885L597.19,462.856L594.842,459.391L593.897,456.179L591.319,454.776L588.914,454.271L588.241,453.191L585.492,452.223L583.687,448.729L583.716,447.13L582.485,445.081L582.313,443.734L579.621,439.468L578.762,437.237L577.129,437.055L575.64,435.778L575.611,432.058L576.628,431.174L576.614,430.107L578.876,429.448L578.461,428.156L577.201,427.497L577.1,426.079L578.16,425.194L578.919,425.995L580.738,425.307L581.296,426.753L581.597,424.31L582.527,422.583L581.611,419.621L584.876,418.751ZM581.167,412.447L581.396,413.598L580.451,416.589L577.587,416.912L576.184,418.807L575.568,415.845L577.115,414.286L578.661,413.795L580.423,412.124ZM625.17,407.448L626.144,409.54L627.246,409.961L626.273,412.292L624.096,411.52L623.452,410.06L624.64,407.462ZM633.819,404.751L634.492,405.847L636.239,405.903L639.475,408.094L640.936,407.883L641.337,406.563L642.439,407.026L641.881,411.38L641.265,412.812L639.676,413.949L638.716,415.831L639.074,417.305L638.158,417.951L636.64,417.024L635.437,415.451L633.017,415.086L633.089,413.71L633.934,412.489L632.43,409.877L632.258,407.56ZM588.441,400.946L591.234,401.886L590.646,403.094L592.995,406.774L593.195,410.579L590.99,410.776L588.885,409.498L586.795,410.776L585.492,410.326L585.692,408.431L585.062,406.802L583.53,406.156L584.303,403.895L586.036,403.684L587.639,402.701ZM612.97,390.973L614.517,391.97L616.435,392.321L620.115,392.111L622.092,392.363L622.922,396.03L623.953,397.308L622.951,397.856L622.85,400.847L622.12,401.76L621.891,400.173L620.173,400.061L619.772,402.378L618.598,404.19L615.591,405.805L614.474,407.041L614.058,409.035L614.001,412.419L613.228,415.437L613.815,416.434L611.581,416.659L612.297,418.147L611.295,420.071L610.25,418.653L610.565,418.021L608.517,417.586L605.868,419.074L602.99,418.653L600.942,420.014L600.154,418.849L598.522,419.018L597.505,416.21L594.026,414.82L595.028,412.166L593.854,410.355L593.911,406.858L592.078,402.799L593.023,400.075L594.656,399.752L595.558,398.389L599.882,398.403L601.185,397.87L603.29,395.889L603.448,395.088L605.553,393.656L608.173,393.361L609.935,391.745ZM729.056,442.612L730.631,443.594L730.059,444.66L730.488,445.895L729.285,445.166L727.496,444.941L726.465,446.456L724.718,443.804L725.276,442.85L726.966,443.861L727.796,442.71ZM714.78,423.342L716.713,423.861L717.458,425.461L718.46,426.121L719.992,428.507L721.138,428.942L722.527,428.479L722.87,430.711L722.212,429.883L720.522,429.756L719.448,431.89L718.503,431.286L715.009,430.163L714.637,430.641L712.074,430.037L710.857,426.991L711.744,425.335L710.771,424.479L713.964,424.647ZM728.927,419.888L729.114,421.685L728.025,420.253ZM645.776,419.706L646.535,420.576L646.291,423.959L645.647,424.984L645.604,427.693L645.088,430.753L642.368,432.269L639.26,432.1L636.969,433.336L634.549,433.364L636.683,430.655L636.497,428.746L635.666,427.188L634.549,426.346L636.697,424.001L637.685,424.128L639.174,422.457L643.928,419.972ZM660.567,411.267L661.097,414.146L662.758,415.437L663.646,415.227L662.901,417.614L663.56,418.428L664.591,416.673L666.581,415.1L667.183,413.416L668.758,413.753L671.579,412.896L669.073,420.099L666.782,421.348L665.593,420.899L661.527,422.036L658.992,424.661L657.26,425.194L652.935,428.255L650.272,426.963L648.439,422.148L646.778,420.436L647.881,419.972L648.009,418.667L650.401,415.788L652.692,413.963L655.785,413.079L656.472,412.292ZM697.697,402.448L697.626,404.344L699.458,404.78L699.917,405.636L698.499,407.139L698.657,408.15L697.139,408.473L696.91,407.223L695.95,407.195L694.261,405.51L692.327,404.99L693.673,404.667L693.989,402.701L694.619,402.94ZM199.76,552.86L199.573,552.398L199.301,551.782L197.125,551.572L197.082,551.264L197.01,551.04L199.072,549.948L199.931,551.782ZM189.206,508.055L190.252,509.596L191.898,510.142L191.555,511.081L192.858,510.675L192.872,509.33L194.404,509.204L195.206,508.335L196.266,508.559L196.538,510.325L198.585,511.193L199.86,513.323L198.628,515.13L197.211,514.808L193.86,515.018L193.345,516.195L191.011,516.055L191.598,515.242L191.254,513.701L188.49,514.724L187.345,513.785L187.889,512.496L187.717,510.857ZM199.903,507.27L200.347,507.48L200.017,509.806L198.643,509.722L198.528,508.153ZM175.116,487.704L175.274,488.979L174.271,488.25ZM424.2,462.239L426.233,463.164L426.562,465.423L424.328,467.4L422.896,469.448L420.877,468.214L417.512,467.709L416.968,466.11L418.887,464.329ZM429.755,457.834L428.123,459.251L427.708,458.213L429.555,456.824ZM423.87,454.369L424.271,455.912L422.352,454.944L423.326,453.808ZM206.361,445.615L205.931,446.737L206.848,449.136L208.638,448.87L209.812,450.539L209.053,451.367L209.196,452.994L211.573,455.548L212.504,454.804L213.248,455.856L212.504,458.185L213.019,461.678L211.487,463.754L209.754,464.287L209.368,467.092L207.234,467.218L204.843,470.135L203.024,470.724L201.664,472.435L200.032,472.827L199.645,474.033L197.354,475.492L196.194,478.464L193.502,480.904L192.758,482.685L188.591,485.012L183.822,488.068L182.276,487.62L180.772,489.232L179.24,489.428L178.252,488.853L177.393,486.722L177.508,485.236L176.577,483.778L177.278,482.222L176.906,481.086L175.002,479.236L173.498,478.885L174.343,477.146L174.171,476.277L175.775,476.501L177.235,475.408L177.622,475.955L178.51,473.094L180.257,472.659L183.221,467.386L183.221,464.16L184.596,461.299L186.314,458.9L188.562,457.666L190.352,457.329L191.684,455.309L192.872,455.351L194.576,454.243L198.815,453.808L199.645,454.467L200.805,450.764L202.351,450.16L202.724,448.575L204.8,447.761L205.459,445.727ZM247.113,544.529L245.338,547.246L244.292,546.518L245.037,544.823ZM255.061,529.699L255.963,534.727L253.958,535.371L250.507,537.332L250.736,536.324L249.677,535.217L249.891,534.279L251.237,534.251L251.567,532.164L252.97,532.01ZM230.26,520.23L231.319,521.491L233.252,521.463L235.1,522.415L235.257,523.41L236.832,523.83L237.792,522.667L238.508,524.783L240.14,525.581L242.689,524.545L241.873,525.791L243.562,527.682L243.577,529.867L244.951,530.876L243.233,535.245L241.228,536.156L239.854,536.086L237.677,537.318L236.889,536.758L235.572,537.528L234.713,536.492L232.279,535.567L231.09,535.581L231.219,534.363L230.346,532.43L229.243,531.996L229.1,530.455L229.544,527.276L229.257,525.105L228.47,523.718L229.229,520.496ZM216.155,484.381L217.1,484.956L217.816,486.554L217.458,487.732L215.396,485.699ZM223.401,463.15L226.665,464.02L227.324,465.367L226.379,466.685L224.246,465.773L222.527,465.689L222.312,466.643L220.508,466.587L220.365,464.188L222.241,464.048ZM219.563,456.502L220.394,457.666L218.89,458.087ZM273.704,453.976L273.976,456.6L274.893,458.662L276.683,460.542L278.616,461.299L278.057,462.239L280.162,464.525L282.568,470.261L281.265,473.052L281.551,475.183L281.007,478.394L279.489,479.824L280.033,480.147L278.859,481.437L279.776,482.082L280.42,484.423L281.866,484.031L281.465,485.741L280.119,486.778L281.079,489.849L279.69,490.535L278.945,493.381L279.074,494.6L278.115,496.731L278.344,498.371L278.057,502.449L278.53,505.532L277.757,507.018L274.878,508.055L273.933,509.974L273.489,512.104L272.344,510.268L271.098,510.268L270.669,511.824L271.385,513.337L270.712,514.234L270.268,516.77L270.454,518.773L269.838,519.459L270.783,520.132L272.716,519.698L272.688,520.93L273.819,522.177L273.489,523.186L274.52,525.091L275.823,525.511L275.738,527.682L276.74,529.405L277.556,529.587L278.501,532.878L278.129,534.545L278.816,535.946L277.227,536.492L278.243,537.752L276.726,538.494L277.184,539.727L278.2,539.25L278.043,540.399L276.568,540.217L275.136,538.578L272.974,539.292L272.272,540.245L269.766,541.841L268.521,541.407L267.232,542.779L266.244,542.723L265.714,543.885L264.425,544.347L263.623,543.801L261.919,544.557L259.786,543.059L257.753,545.075L258.211,541.351L256.994,543.703L256.22,543.381L254.531,545.342L252.44,545.762L251.423,547.232L250.206,547.526L251.266,546.294L252.412,543.241L253.858,542.205L254.345,541.099L253.901,539.432L254.617,538.284L256.02,537.486L257.624,534.475L256.722,533.271L256.836,531.618L258.411,528.901L257.91,527.808L259.858,525.861L258.368,524.783L257.065,524.685L257.939,519.74L260.531,518.325L260.488,519.824L262.363,519.726L262.822,521.365L263.323,520.02L261.948,517.778L258.884,516.433L258.096,514.066L256.822,512.805L256.607,510.297L253.815,510.086L252.655,516.237L252.812,517.232L251.953,520.552L250.206,522.639L250.235,520.244L249.19,518.647L247.443,518.549L247.658,512.678L246.498,509.204L245.051,508.727L243.777,507.13L240.383,505.196L237.691,502.295L234.913,498.875L232.021,494.937L229.773,492.988L230.303,491.348L232.05,490.62L232.178,488.503L231.663,484.549L230.303,482.825L229.73,480.329L227.152,477.721L225.362,477.665L225.191,476.151L224.203,474.861L225.878,473.683L225.72,472.491L226.537,471.635L226.723,474.104L227.954,475.73L229.501,475.842L230.947,474.861L231.061,473.921L232.207,473.739L239.009,474.328L239.367,475.001L243.448,474.777L246.082,475.338L248.688,477.315L248.875,478.605L250.321,481.128L250.364,482.502L252.211,485.671L252.941,487.606L253.958,488.082L254.502,489.778L254.273,491.362L255.161,492.021L255.118,493.872L257.695,494.993L260.258,493.829L259.829,492.484L262.02,492.918L263.595,490.423L265.958,496.254L265.685,496.507L267.346,499.128L269.108,499.912L269.237,502.421L271.27,502.87L271.528,499.73L272.129,498.763L272.258,496.184L273.389,493.563L273.561,489.568L272.888,489.652L272.487,486.722L271.27,486.344L270.554,484.199L268.678,481.717L267.69,481.97L266.974,480.54L264.526,478.787L265.027,478.647L262.822,476.039L260.817,476.978L260.588,480.792L257.695,482.166L255.218,482.292L253.328,481.227L252.211,479.628L252.011,477.707L254.989,475.155L255.032,474.272L256.607,473.697L258.068,470.528L257.294,468.494L255.619,467.821L255.275,466.503L253.8,466.096L252.712,463.445L253.371,461.65L252.798,459.63L255.046,459.63L256.063,457.848L258.154,459.994L260.072,460.457L260.946,459.111L264.74,458.732L268.907,459.307L269.852,459.097L271.027,461.06L273.547,460.008L274.306,458.171L273.489,456.712L273.017,454.047ZM422.553,490.816L423.455,491.755L421.923,493.353L421.436,492.806ZM439.965,476.754L439.707,477.833L438.161,477.932L437.917,476.992ZM453.482,467.849L454.141,469.546L456.289,469.504L455.487,470.64L455.301,473.444L457.32,474.875L456.074,477.16L452.695,474.552L453.325,474.3L453.268,472.323L450.747,472.463L451.65,469.223L453.225,470.023ZM461.831,467.653L463.32,468.2L462.776,469.041ZM472.169,463.88L472.971,464.791L472.441,466.839L470.393,468.059L470.594,464.371ZM481.777,460.499L482.88,460.542L483.753,462.337L485.228,462.674L485.901,464.02L486.975,464.511L485.228,467.092L485.114,469.041L484.412,470.331L483.424,474.566L482.536,476.235L482.593,477.413L481.262,480.932L476.393,487.241L474.346,487.535L475.219,488.755L475.763,492.302L475.076,494.278L475.82,498.259L477.195,499.254L474.933,501.034L473.988,501.258L470.537,499.73L464.379,500.767L461.057,502.505L460.499,503.808L459.124,503.486L458.279,504.327L454.542,504.131L451.993,503.248L450.919,504.103L449.702,502.505L447.196,503.136L444.504,500.011L440.509,493.998L440.08,492.049L440.738,491.306L442.986,490.662L442.757,488.026L441.998,486.554L440.538,486.484L439.049,484.662L440.08,483.961L441.426,484.69L443.158,483.007L444.848,482.685L444.991,483.848L448.041,485.447L449.072,484.535L448.843,482.671L447.726,482.657L448.113,480.82L449.702,482.166L450.848,482.082L451.32,480.736L453.497,480.483L454.7,480.974L458.193,480.329L457.034,478.871L458.866,476.095L460.227,475.66L461.773,472.954L462.332,473.683L463.477,473.262L464.236,475.478L464.823,475.688L463.721,477.16L463.649,480.007L465.281,478.913L466.914,480.918L469.205,479.782L467.945,478.38L470.451,475.884L470.952,474.37L470.938,471.944L476.436,466.264L478.054,463.529L479.815,461.579L480.99,462.631ZM487.118,458.732L488.049,460.822L486.732,461.327L483.982,460.485L484.713,459.181ZM459.969,457.441L461.286,458.9L460.814,460.163L461.959,463.291L461.272,464.988L460.241,465.549L459.654,463.529L460.427,461.565L459.081,459.335ZM469.076,452.798L468.618,455.141L468.102,453.093ZM474.732,451.788L475.004,452.56L474.002,455.113L474.632,456.277L476.121,457.091L477.324,455.856L478.584,453.261L479.629,454.902L478.928,457.778L479.085,460.023L478.14,461.103L477.081,461.075L476.694,462.449L474.174,463.193L474.388,461.06L473.057,461.888L473.844,460.556L472.799,460.275L471.954,461.299L470.866,458.83L470.164,460.71L469.978,457.96L470.952,457.498L470.966,454.79L472.713,454.552L473.472,452.475Z"
          fill="#e0e0e0"
          stroke="#333333"
          stroke-width="1"
          stroke-linejoin="round"/>
  </g>
</svg>