<?xml version="1.0" encoding="UTF-8"?>
<svg xmlns="http://www.w3.org/2000/svg"
     viewBox="-12.132578263728647 -20 824.2651565274427 640"
     width="824.2651565274427"
     height="640">
  <title>山口県</title>
  <desc>都道府県コード: 35</desc>
  <g id="35">
    <path d="M78.12,477.259L79.481,478.297L78.843,480.262L77.95,478.491ZM70.503,467.337L72.801,469.233L72.616,470.686L71.297,472.07L70.815,473.662L71.638,476.069L75.17,476.678L74.928,478.02L75.879,478.131L76.943,479.722L77.893,482.656L76.134,486.668L75.638,489.282L74.602,490.112L72.787,489.988L69.893,491.025L69.383,490.347L66.12,489.102L65.496,486.806L66.844,486.654L68.985,485.423L69.51,482.697L68.29,484.122L65.893,485.091L64.333,484.717L64.702,481.687L64.149,480.317L62.702,480.981L61.922,479.335L63.51,478.685L63.184,477.37L61.113,475.571L61.128,476.761L57.114,474.727L56.872,474.049L54.475,472.804L54.603,470.16L55.851,470.216L57.482,468.126L62.574,472.859L65.397,472.056L65.752,469.745L67.198,468.306L68.744,469.385ZM54.731,466.88L55.369,467.254L55.426,468.873L54.192,470.354L52.731,470.119L54.362,468.652ZM48.731,452.623L50.66,454.367L49.653,456.236L50.107,457.51L49.483,458.562L46.972,458.589L46.632,455.364L47.298,453.343ZM63.964,447.085L64.432,447.389L64.163,450.408L61.709,450.117L61.823,448.732L60.262,448.608L60.433,447.597L62.418,445.562ZM9.584,378.58L11.357,379.911L11.498,383.128L12.023,383.655L13.782,383.377L14.789,382.407L15.442,383.807L16.534,383.71L17.47,384.584L17.881,386.386L19.314,386.968L18.136,388.854L19.101,390.379L18.704,391.197L17.087,391.003L16.704,388.701L15.683,387.065L14.477,386.566L11.385,388.369L10.676,385.998L9.073,385.61L8.25,384.431L7.867,382.033L8.137,378.968ZM65.525,344.734L67.652,346.954L66.631,347.884L64.262,348.3L65.142,344.762ZM65.766,342.736L65.752,343.596L63.922,344.831L63.752,343.318ZM426.049,65.381L425.212,67.88L425.183,68.131L424.942,69.081L424.985,69.429L425.24,69.653L425.155,69.89L425.042,70.476L424.219,71.789L422.956,72.179L423.155,72.459L423.226,73.087L425.708,75.348L425.58,75.711L425.013,77.023L425.112,77.762L425.212,78.614L425.198,78.837L426.573,79.339L427.297,79.242L427.58,79.088L427.822,79.074L428.488,80.288L428.587,80.582L428.119,81.782L427.836,82.103L427.765,82.856L427.921,83.052L429.538,83.442L429.892,83.219L430.332,83.08L430.559,83.066L430.389,83.777L430.332,84.028L428.999,86.205L429.07,86.345L429.041,86.498L428.956,86.959L429.382,87.28L429.453,87.461L429.453,87.894L428.829,91.522L429.027,91.829L429.538,92.735L428.261,94.061L428.077,94.591L427.921,95.568L427.978,95.763L427.963,95.916L428.006,96.279L428.389,97.953L428.105,98.302L428.006,98.748L427.963,98.888L428.204,99.097L430.304,101.357L433.367,103.212L434.97,103.268L435.041,102.32L436.772,103.031L436.942,103.073L438.516,102.822L438.743,102.933L438.445,105.974L438.218,106.504L438.133,107.48L439.325,110.158L438.899,110.242L438.275,110.981L439.013,112.139L439.594,114.998L439.495,116.741L439.594,117.061L439.849,120.352L441.835,121.189L442.941,123.448L442.828,123.601L442.473,123.838L441.481,125.902L439.693,125.609L439.069,126.139L438.587,126.557L437.608,128.16L437.665,128.425L437.381,128.648L437.14,128.969L436.956,129.108L436.772,129.401L436.36,131.004L435.055,130.851L434.701,130.976L434.587,130.934L434.247,130.767L433.665,130.614L433.226,130.711L431.935,129.624L431.623,129.749L431.637,130.948L431.892,131.687L432.616,133.067L432.474,133.527L432.346,133.736L431.793,134.656L431.85,134.991L430.758,137.542L431.765,137.848L432.275,140.343L432.885,140.915L432.119,143.131L431.68,143.549L431.169,144.106L430.885,144.357L430.743,144.636L430.701,144.901L431.495,145.486L431.977,145.667L432.105,145.807L432.332,146.559L432.757,146.796L432.928,147.089L432.148,147.939L432.077,148.008L430.985,148.858L428.19,152.635L424.729,154.028L423.637,156.452L422.8,155.491L422.474,155.366L421.467,156.048L420.801,156.383L420.503,156.494L419.808,157.456L419.325,157.734L419.311,157.762L419.283,158.292L418.29,159.197L418.148,159.685L417.808,159.922L417.623,159.936L416.021,160.298L416.134,160.632L415.95,161.064L415.779,161.802L415.709,162.22L415.68,162.945L415.709,163.265L416.233,164.282L419.141,165.285L420.673,168.809L421.127,169.547L422.148,169.645L422.162,170.216L422.148,170.495L422.233,170.69L422.077,173.113L421.921,173.322L422.261,177.458L423.396,177.584L423.51,177.444L425.198,177.361L425.666,176.846L427.325,176.038L428.602,176.484L430.332,179.923L430.19,180.425L429.821,182.388L427.807,184.087L427.68,186.496L427.68,186.719L428.275,187.331L428.758,189.559L428.19,190.172L428.29,190.339L428.517,191.077L428.644,191.341L428.687,191.355L428.843,191.313L429.907,192.26L429.765,193.624L429.467,194.028L428.928,195.754L428.545,195.824L428.346,195.935L427.595,197.299L429.041,201.587L429.396,201.754L431.353,201.308L432.899,202.269L432.999,202.547L434.133,203.243L434.346,203.466L435.339,204.454L435.481,204.677L436.077,205.359L436.261,205.442L438.006,204.746L438.332,204.649L438.672,204.802L438.885,204.983L439.977,205.331L441.693,204.816L443.31,203.313L443.551,203.174L445.466,204.19L445.509,204.412L445.792,204.482L447.608,205.387L449.282,205.08L449.466,204.426L449.821,204.064L450.984,201.712L453.679,200.292L453.849,199.916L453.891,199.861L454.062,199.61L455.125,199.513L455.267,199.262L456.43,199.36L456.544,199.624L456.374,200.334L456.218,200.905L456.331,201.197L458.373,202.575L461.338,201.448L461.749,201.322L462.657,200.682L463.607,201.823L465.99,201.629L466.416,201.573L466.742,201.475L467.196,201.475L469.877,202.13L471.04,201.865L471.593,201.434L473.181,201.155L473.096,201.642L473.848,202.937L473.664,203.09L473.465,206.542L473.38,206.806L472.841,207.892L472.841,208.267L472.628,209.172L472.444,209.604L472.302,209.826L472.089,210.369L471.72,211.274L471.451,211.621L470.118,213.931L470.515,216.589L469.352,218.064L469.054,221.292L468.529,221.473L468.302,221.557L467.749,221.612L466.316,222.002L466.189,222.127L465.82,222.711L465.494,223.115L464.671,223.894L464.331,224.325L463.834,225.438L463.522,228.248L460.912,229.5L460.643,229.737L459.352,231.712L459.338,231.865L459.423,232.241L459.508,232.881L459.48,234.007L461.04,235.12L460.444,236.859L460.969,239.793L460.799,239.96L460.132,241.101L460.345,241.337L461.04,241.532L462.175,243.437L462.87,245.676L465.948,246.997L466.643,251.891L466.444,252.489L464.685,254.394L464.416,255.896L465.834,258.342L466.827,257.912L468.515,258.843L468.841,258.926L469.267,259.997L470.557,260.636L471.508,259.941L471.933,260.066L472.756,260.483L472.969,260.789L473.323,261.165L473.791,261.456L474.245,261.846L474.33,265.39L474.415,265.738L474.401,266.099L474.529,266.266L476.359,267.142L476.614,267.086L477.394,267.559L477.692,268.142L478.897,269.685L479.819,269.88L480.188,270.13L481.989,269.685L483.436,270.742L483.621,271.033L483.876,271.575L484.018,271.826L484.897,274.897L485.862,274.855L486.415,273.702L486.996,273.618L489.294,274.438L489.521,274.786L489.734,275.022L490.5,274.772L490.783,274.633L491.181,272.201L491.138,271.798L491.564,270.366L492.854,270.38L493.507,271.701L493.762,271.631L494.088,271.645L494.315,271.562L496.641,270.464L497.308,271.103L497.393,271.631L497.535,271.826L497.748,272.034L499.28,272.91L499.705,272.924L500.4,273.021L500.641,272.979L501.053,272.965L501.18,273.049L501.294,273.16L501.776,273.368L502.23,273.688L502.301,273.744L502.414,273.813L503.322,273.952L503.563,273.98L504.017,273.618L504.045,273.438L504.485,273.521L504.754,273.549L505.052,273.452L506.57,273.48L506.726,273.563L508.159,273.382L508.386,273.16L509.293,271.853L509.506,271.728L511.478,271.381L511.733,271.381L512.839,271.562L513.038,271.728L514.953,270.63L515.477,268.949L514.385,264.765L515.506,263.889L515.492,262.054L516.13,261.512L516.399,261.665L516.598,261.971L516.655,262.346L517.747,263.236L517.931,263.375L519.96,264.542L519.988,264.751L520.116,264.89L520.328,265.015L521.208,266.169L521.392,266.447L521.435,266.488L521.562,266.113L522.867,264.834L522.995,264.473L523.321,263.861L526.229,261.915L526.626,261.568L527.846,258.968L528.144,258.148L529.222,256.507L529.378,256.313L529.831,256.174L530.64,255.548L531.491,256.897L533.122,257.564L534.314,257.383L536.299,259.343L536.512,260.039L536.782,261.123L537.065,261.109L538.994,261.387L541.306,263.208L541.576,263.583L541.675,263.597L542.256,263.43L542.469,263.625L542.285,264.014L542.086,264.668L542.115,265.085L542.994,265.432L544.583,268.448L546.951,270.922L547.093,272.131L548.483,273.021L549.306,272.201L549.533,272.104L550.568,268.518L550.327,267.851L549.476,264.946L549.831,264.876L550.029,264.751L550.143,264.195L551.476,263.681L551.916,263.917L553.845,263.416L554.341,262.068L554.44,261.86L554.596,261.707L554.965,261.304L556.157,258.176L555.774,254.436L555.547,253.657L556.185,253.324L558.128,252.879L558.383,252.698L558.681,252.364L558.738,252.017L558.511,250.543L559.887,248.346L561.121,248.234L561.362,248.068L561.929,247.956L562.142,247.678L564.639,244.591L564.709,244.216L564.709,243.409L564.809,243.006L566.369,240.642L567.149,240.266L567.433,240.141L567.702,239.96L570.723,240.697L570.865,240.6L571.163,240.071L571.347,240.016L572.198,239.877L572.425,239.696L573.092,237.971L573.163,237.624L572.908,235.76L572.752,235.203L572.723,234.911L573.206,232.867L573.22,232.449L573.376,231.42L573.532,231.156L573.532,231.128L573.064,230.613L570.667,228.888L570.567,228.721L570.78,227.901L570.922,227.831L570.993,227.678L570.908,227.469L570.652,227.261L570.511,227.135L570.681,226.454L568.057,223.602L567.83,223.379L567.333,221.724L567.007,221.153L565.972,216.937L565.66,216.659L564.61,216.394L564.355,214.878L562.766,213.904L562.837,213.264L563.22,212.707L564.979,209.645L565.078,208.824L565.759,208.114L566.029,207.335L566.426,205.428L567.716,204.718L568.582,204.482L570.227,203.327L570.652,203.452L571.986,203.48L572.213,202.993L573.971,200.933L574.113,200.891L574.284,200.891L574.44,200.766L575.163,198.483L575.064,198.33L574.851,196.812L575.049,196.603L574.638,194.418L574.695,193.917L574.737,193.457L574.581,193.165L574.397,192.399L574.44,192.33L574.837,191.703L574.993,191.633L575.12,191.174L575.191,191.007L577.248,189.364L577.446,189.336L578.014,187.86L577.9,187.582L577.985,187.345L578.326,187.192L579.602,186.914L579.744,186.914L580.028,187.081L580.312,187.095L580.737,186.788L580.907,186.691L583.191,186.12L583.375,185.939L583.928,185.048L583.985,184.797L584.014,184.714L584.297,184.519L584.411,183.419L584.624,183.377L584.936,183.279L585.857,183.432L586.297,183.572L586.723,183.363L586.907,183.14L587.701,182.875L588.099,182.806L589.531,183.029L589.602,183.098L589.843,183.711L590.127,184.449L591.247,184.505L592.893,183.641L593.162,183.669L594.439,183.6L594.779,183.655L596.666,183.07L597.956,183.405L598.68,183.739L598.368,185.048L598.339,185.201L599.148,185.786L599.715,186.315L599.899,188.654L600.594,189.601L600.722,189.823L601.914,192.26L602.098,192.538L603.048,193.931L604.353,197.105L603.871,198.678L603.814,199.095L603.318,199.624L602.679,200.111L602.013,202.686L601.743,203.285L601.8,204.538L601.729,204.816L601.63,206.514L601.701,206.764L602.665,207.126L602.353,207.446L602.155,207.641L601.871,207.933L601.488,207.794L601.148,207.947L601.091,208.087L601.048,208.49L601.048,209.771L600.935,210.397L599.474,211.58L599.36,211.816L598.821,212.206L599.36,214.21L599.318,214.502L600.935,217.257L601.417,220.123L601.233,220.207L601.077,220.207L600.85,220.235L600.878,222.071L600.311,222.308L600.169,222.336L600.013,224.075L600.297,224.2L599.772,225.16L599.587,225.383L599.29,225.856L599.204,226.106L600.197,226.857L600.708,226.885L602.027,227.066L602.538,227.163L602.438,230.182L601.573,230.78L600.495,233.799L600.821,234.494L601.176,234.758L601.488,235.871L601.261,236.233L599.531,237.29L600.098,239.334L600.197,239.418L599.857,244.41L599.233,245.398L599.942,245.898L602.41,245.829L606.211,244.466L606.594,246.538L606.722,246.844L607.828,248.068L608.126,248.179L609.856,248.123L611.161,249.041L611.374,249.43L613.644,251.877L613.473,252.058L613.417,252.253L613.601,253.755L613.459,253.991L613.431,254.144L613.53,254.394L613.587,254.756L613.558,254.978L613.629,255.228L613.658,255.381L613.502,256.313L614.863,258.273L614.849,258.551L615.757,260.4L615.97,260.511L616.083,260.608L617.445,261.22L617.53,261.206L618.296,259.872L619.601,259.816L620.04,259.816L621.927,259.524L622.75,258.051L623.615,257.856L624.48,257.842L625.303,259.051L625.359,259.524L626.522,261.721L626.04,262.304L626.253,264.362L624.083,265.432L624.296,267.934L624.352,268.365L624.225,268.712L623.898,269.046L623.416,270.102L624.196,273.049L626.352,273.924L626.423,274.786L623.984,278.316L626.026,278.552L626.069,278.746L626.012,278.927L624.608,280.275L624.877,281.623L625.657,281.289L626.593,279.594L630.366,283.068L631.331,284.86L631.26,286.305L631.175,286.514L630.097,287.486L629.884,287.736L629.246,288.723L628.366,292.099L629.402,293.349L629.473,293.655L629.501,295.252L629.813,295.724L629.856,295.835L629.955,296.044L631.132,297.739L631.317,298.225L633.6,299.183L633.955,299.836L634.664,303.947L633.997,305.433L634.082,307.836L633.09,309.419L633.728,311.71L634.352,311.391L635.855,311.224L635.983,312.071L636.04,312.321L638.423,313.835L638.848,315.584L640.593,315.043L640.096,313.418L640.99,312.988L641.274,313.085L642.437,313.779L643.316,313.002L645.628,313.571L645.16,314.404L645.103,314.751L645.401,315.737L644.096,315.765L644.593,317.028L645.529,317.792L645.671,317.861L645.983,317.917L647.273,316.57L649.472,315.362L650.748,315.459L651.486,316.542L655.472,317.125L655.741,317.167L655.954,317.028L656.039,316.792L655.713,314.834L658.195,315.154L657.216,316.584L658.734,317.903L660.096,315.918L661.216,316.501L661.06,317.875L659.713,319.069L659.33,320.013L658.422,321.554L658.266,322.707L656.578,326.524L656.507,326.802L656.238,327.135L655.84,327.566L656.337,329.162L656.621,329.37L657.628,329.204L658.507,327.829L660.166,327.677L661.712,329.8L663.046,330.37L663.741,330.286L665.244,329.828L666.847,328.024L668.138,327.288L669.996,327.052L672.138,326.844L673.4,326.705L676.18,326.344L679.527,325.9L680.081,329.106L677.201,333.645L673.641,334.159L673.669,336.352L672.762,337.809L673.315,338.794L675.84,337.282L676.648,338.656L674.35,340.043L672.804,339.78L674.35,341.251L674.152,342.305L676.35,340.529L676.506,341.903L677.513,344.151L679.428,342.167L680.137,342.874L678.279,344.748L679.3,347.245L680.79,347.884L679.116,348.425L679.768,350.603L679.924,348.938L681.059,348.369L681.839,350.839L682.634,354.918L680.463,368.54L681.797,368.651L681.513,370.426L675.116,369.413L674.407,371.702L673.116,372.076L671.599,370.967L668.989,369.857L667.812,372.062L664.138,372.811L660.195,373.019L658.805,375.765L660.649,375.626L660.705,378.053L658.847,378.303L659.301,380.854L658.734,380.951L660.067,386.594L662.209,392.597L663.826,396.228L663.159,397.199L663.684,399.597L663.329,400.248L663.996,402.66L662.932,404.752L662.677,407.746L663.046,409.422L666.422,415.755L668.081,415.297L667.528,417.958L666.478,418.041L666.648,419.011L668.081,419.038L667.57,419.814L667.514,422.031L666.918,423.97L667.457,425.189L666.762,425.563L666.719,429.58L667.216,430.564L666.407,432.627L666.124,435.328L665.627,436.048L664.45,441.144L662.365,443.845L661.826,445.036L659.514,447.639L658.691,449.092L658.975,451.225L656.819,455.849L655.358,457.579L654.28,460.334L653.117,462.258L651.685,463.406L648.436,462.479L648.068,463.24L646.635,463.019L640.508,465.69L637.118,466.23L632.494,466.008L632.324,466.424L625.884,465.662L626.565,467.974L624.948,470.935L624.267,471.309L622.395,467.586L621.615,467.946L621.544,470.022L622.707,471.42L623.147,473.606L624.069,474.616L625.189,474.713L624.778,476.042L624.82,480.22L624.48,482.877L625.742,486.765L625.757,488.383L626.934,491.177L627.714,491.8L627.487,494.649L626.31,495.064L625.274,497.443L625.728,498.356L628.026,500.458L626.281,501.399L626.069,503.93L627.473,504.69L626.934,506.322L628.111,507.124L629.061,506.225L629.756,506.917L629.714,508.631L632.536,510.222L635.047,510.968L634.026,513.817L634.153,515.379L635.643,517.121L638.664,518.282L639.642,519.333L640.167,524.42L639.26,525.194L639.245,527.682L636.494,528.83L635.175,530.848L633.501,532.022L633.416,533.667L630.593,534.828L629.416,534.165L626.82,533.916L626.154,533.197L624.281,532.852L622.636,533.321L621.246,534.565L620.055,533.584L621.175,531.138L620.494,529.465L620.679,527.655L621.374,526.369L621.303,524.393L620.537,524.088L620.906,521.863L620.65,519.831L618.877,518.918L621.26,516.291L622.523,513.153L622.125,510.553L620.707,509.074L618.424,509.281L617.317,507.594L614.296,507.276L612.225,506.433L610.353,505.105L607.403,502.422L605.686,502.243L604.949,502.823L604.254,501.44L602.24,500.403L602.538,496.102L601.048,494.138L598.751,494.539L597.928,492.824L595.375,492.063L594.084,493.156L593.701,491.592L591.744,491.814L589.942,492.561L587.928,492.436L588.269,491.579L592.467,490.209L593.247,489.379L592.51,488.189L593.389,485.99L591.418,484.938L591.545,488.452L588.141,489.421L587.333,490.624L585.886,491.011L584.524,492.201L581.163,493.363L579.929,494.677L579.333,496.129L578.397,496.185L575.986,493.349L575.447,493.515L571.574,491.855L570.014,489.822L568.653,488.757L566.908,488.549L565.915,486.958L561.305,482.877L559.504,481.936L559.334,481.147L557.476,480.732L554.979,482.213L553.646,484.122L553.433,485.187L554.653,486.516L555.745,486.571L556.965,485.409L556.284,487.567L553.887,487.885L551.632,487.083L550.398,485.506L550.469,481.59L553.065,481.286L553.206,479.127L552.199,475.917L550.072,472.043L548.682,470.548L546.597,469.538L546.483,469.981L543.632,469.648L542.753,471.212L538.299,471.185L534.583,468.278L534.2,465.662L535.519,463.337L535.221,462.908L533.108,466.133L533.009,467.78L532.285,466.299L532.867,464.514L530.64,460.984L529.519,459.683L526.683,457.787L523.86,457.053L522.371,457.288L522.413,456.222L520.754,454.686L519.86,455.184L517.591,453.855L513.761,452.526L510.329,448.608L510.343,447.362L505.676,447.999L507.137,446.323L507.35,442.917L506.627,441.588L505.52,442.128L504.528,439.58L503.308,439.233L503.662,440.355L503.052,441.671L501.932,441.144L503.138,438.444L501.776,438.195L500.216,440.12L499.067,439.164L500.726,438.029L499.421,437.101L495.01,436.464L494.145,437.253L490.5,435.84L489.819,437.101L490.939,437.959L490.954,439.081L489.649,440.286L487.989,440.992L484.443,445.908L480.741,447.292L478.912,447.583L477.763,448.497L473.578,448.871L473.536,449.812L475.394,451.958L477.295,451.917L478.103,452.609L479.394,450.823L480.869,451.626L483.734,451.958L483.067,454.99L483.989,455.17L485.394,454.201L485.904,455.544L484.996,456.347L483.635,458.866L480.826,459.835L479.11,459.074L478.841,458.133L477.323,457.164L477.124,455.918L475.252,454.658L473.096,454.907L471.153,456.638L469.735,456.513L468.345,455.558L466.586,455.378L465.621,454.34L463.04,454.229L462.515,452.72L465.806,450.117L467.834,450.242L470.245,448.899L468.33,446.046L468.118,444.731L470.94,442.335L473.437,438.666L475.834,436.782L478.032,433.223L479.323,432.669L481.451,433.361L483.351,431.616L482.741,429.58L484.926,428.915L488.23,429.137L488.613,425.923L487.918,426.547L485.805,426.824L485.677,425.051L484.443,422.612L480.146,419.883L479.096,420.825L479.181,419.454L477.082,418.29L474.373,420.147L474.77,421.712L474.174,422.1L470.472,426.436L470.742,428.514L467.366,426.948L469.678,423.125L469.82,421.629L471.153,418.733L473.238,416.378L474.472,415.616L475.11,416.309L476.373,415.394L475.437,415.256L475.323,413.662L473.082,414.882L472.954,413.635L474.273,411.75L475.195,412.332L473.919,409.408L472.912,412.208L467.862,411.917L468.231,408.286L467.182,408.923L466.884,412.623L460.118,412.568L460.061,409.699L459.267,411.057L457.551,411.002L457.537,412.457L458.416,412.277L457.664,414.632L456.842,415.325L451.792,416.669L451.792,415.699L450.743,414.66L449.579,414.979L450.204,413.649L448.913,414.05L448.87,415.491L447.338,416.932L445.693,415.173L448.728,412.318L448.09,411.653L450.657,409.325L452.416,408.91L452.43,407.538L455.551,407.552L456.913,406.096L456.473,404.808L455.437,406.388L453.891,405.999L454.757,403.851L454.232,403.103L452.771,405.916L451.04,405.889L450.388,402.784L449.395,402.618L450.218,405.999L449.182,405.902L447.31,407.302L448.09,408.134L446.317,408.535L443.679,407.856L442.105,409.173L440.757,409.436L439.339,410.503L438.162,409.034L436.871,409.367L434.701,408.785L434.942,410.462L433.609,412.346L432.658,411.154L430.46,411.487L429.481,412.693L430.29,413.981L429.311,415.145L429.112,416.517L425.027,415.81L426.744,414.355L426.417,412.443L425.042,413.15L422.46,413.482L421.921,412.027L420.106,412.443L420.148,414.161L419.396,415.519L420.262,415.713L420.517,417.099L419.666,417.057L420.077,418.345L417.411,418.484L416.971,417.251L414.957,417.667L413.028,419.606L410.106,419.953L405.439,421.283L406.291,418.941L405.042,417.985L404.546,416.337L400.447,416.281L398.518,418.345L395.298,420.244L393,426.325L391.724,427.987L389.851,429.151L389.355,430.425L388.433,429.22L385.639,426.851L385.54,423.374L386.518,422.973L386.561,421.629L385.426,420.521L384.391,420.839L379.98,424.178L379.114,424.441L377.923,428.084L376.462,428.694L376.575,429.996L374.561,431.561L370.76,433.694L367.625,435.12L367.2,438.236L363.512,439.663L361.456,441.408L359.612,442.058L359.441,442.82L356.832,443.471L354.137,442.391L351.215,442.46L350.577,441.338L350.889,439.303L350.236,438.139L348.619,437.973L346.775,440.48L345.229,439.427L343.343,440.134L343.371,436.741L344.364,435.093L346.094,434.303L344.988,432.018L342.208,428.791L340.549,428.181L339.882,429.192L335.471,427.461L333.301,425.217L331.755,426.574L327.67,421.283L326.209,421.74L323.854,423.859L323.259,426.948L324.266,428.126L325.216,431.824L326.308,431.104L327.996,432.309L329.23,432.489L329.06,433.763L329.712,435.591L327.202,436.145L323.755,438.223L321.727,440.078L319.457,439.04L318.223,440.826L319.642,442.792L321.017,443.609L322.365,445.852L321.344,447.376L321.174,448.802L319.301,449.176L318.45,448.525L318.847,446.725L318.252,445.077L316.777,444.579L314.096,445.312L312.507,446.766L312.266,448.802L312.805,449.591L312.45,451.571L309.982,451.432L309.94,449.3L308.663,447.625L306.635,447.196L305.968,448.414L304.323,448.068L304.224,446.794L305.543,445.589L307.188,441.103L307.827,438.43L306.593,436.533L307.146,436.311L306.054,434.428L302.961,433.5L300.72,434.206L301.884,435.91L300.735,436.768L299.302,434.899L298.607,435.48L298.919,437.544L298.309,439.15L297.515,439.275L296.877,441.837L297.699,443.291L296.607,444.246L295.941,443.595L293.6,445.396L292.763,447.86L293.331,449.757L291.77,450.768L291.09,449.895L291.856,448.469L291.785,445.326L290.707,443.665L292.536,443.803L293.941,443.055L295.799,436.131L295.813,434.386L296.721,434.04L298.962,430.91L300.167,430.3L294.366,427.807L292.04,428.569L290.735,427.655L290.863,422.751L292.267,420.147L293.572,419.357L295.047,419.357L294.806,418.207L292.721,418.484L292.012,417.487L292.721,414.951L290.154,413.926L286.296,414.549L287.033,416.337L285.416,422.529L287.147,424.441L286.253,425.134L284.622,424.76L283.104,425.729L280.423,426.408L280.693,427.946L285.402,429.566L285.728,430.051L283.345,437.516L279.927,442.003L278.92,442.142L276.438,443.72L275.246,447.168L275.842,447.86L275.147,450.02L274.012,448.899L272.509,449.66L271.913,449.217L270.183,451.183L269.431,452.706L271.19,455.115L270.736,455.198L270.92,457.717L272.381,457.524L271.388,458.423L273.105,460.583L271.488,461.413L270.197,460.597L266.864,464.195L265.332,464.957L263.545,467.503L260.212,468.472L257.105,466.963L255.63,466.991L253.403,468.5L253.12,469.953L250.595,469.939L249.503,471.018L247.687,474.755L246.354,474.035L245.276,474.381L242.978,476.747L244.34,476.817L244.269,478.269L234.411,483.486L233.22,484.579L231.787,483.79L230.468,483.873L229.943,482.171L228.638,483.223L226.369,483.333L225.305,483.998L224.199,485.851L222.908,485.409L222.468,486.737L221.178,486.294L221.901,484.288L224.142,485.782L225.078,484.191L224.568,482.074L223.263,479.902L225.759,478.173L226.88,480.041L227.504,479.598L225.915,476.913L224.738,477.356L216.823,482.268L215.774,480.456L217.901,478.366L217.49,477.107L221.674,475.917L223.39,474.852L224.284,473.537L223.135,473.011L222.057,474.367L221.461,473.897L222.142,472.596L221.078,470.396L219.773,468.86L218.667,469.51L217.603,471.447L217.844,473.288L216.355,475.557L216.256,476.401L214.327,477.08L212.242,478.56L208.965,476.955L209.575,475.198L214.384,472.527L214.1,471.876L217.135,467.434L217.164,466.507L216.086,465.566L216.057,467.808L213.859,471.42L213.391,470.465L214.568,462.507L213.887,462.161L213.476,464.749L212.852,465.69L213.476,466.438L212.937,470.147L210.043,469.745L210.667,465.483L206.029,464.735L207.235,467.226L206.384,470.617L206.611,472.665L199.292,474.021L195.009,475.71L195.335,479.778L193.916,480.29L192.115,479.888L189.505,476.291L188.895,474.077L185.832,471.101L184.839,470.686L185.25,469.524L182.654,467.822L182.555,465.469L183.023,463.434L184.044,462.894L185.477,463.143L188.115,462.216L186.683,461.759L186.739,460.763L185.449,461.607L184.073,461.289L184.13,459.378L185.037,458.34L186.981,458.243L187.761,456.956L190.214,456.831L190.342,455.682L188.016,455.918L187.888,454.021L185.931,456.222L184.158,456.499L184.399,454.312L186.895,454.049L183.974,449.674L184.881,447.902L188.158,446.268L188.002,444.025L186.626,443.803L187.009,444.869L184.91,445.202L182.924,448.096L181.633,448.04L177.477,444.952L177.406,444.592L179.406,440.175L177.208,439.76L176.357,440.355L171.719,440.258L172.329,441.685L171.804,442.612L173.875,445.243L174.314,446.877L171.903,446.725L171.01,444.025L169.024,442.169L166.457,440.383L164.726,438.361L163.903,435.383L161.024,432.226L159.918,429.275L160.06,428.583L157.748,425.328L154.315,422.419L149.181,421.421L148.628,423.513L143.904,421.49L139.975,420.133L132.274,418.803L131.692,417.888L132.671,416.018L132.444,414.286L130.458,412.97L130.401,410.808L129.99,411.168L127.437,410.656L126.019,412.734L125.636,414.771L124.118,415.865L123.593,416.932L125.111,418.567L124.572,420.507L119.607,423.651L117.693,425.84L117.324,427.419L116.345,427.475L119.04,428.735L120.317,431.021L115.962,436.796L114.317,435.827L114.955,434.649L112.246,433.001L112.629,434.137L110.828,437.225L111.693,438.195L111.324,439.095L113.48,440.411L112.218,442.598L109.537,441.02L108.913,441.574L110.048,442.252L109.126,444.786L107.608,444.219L108.175,445.769L108.799,445.7L109.225,447.583L106.09,450.297L105.026,450.228L103.523,451.82L102.161,452.36L100.317,454.838L99.225,455.364L95.282,458.631L91.58,460.514L89.481,463.296L85.807,466.465L84.729,466.188L84.573,467.254L83.325,469.122L82.247,469.067L82.276,470.105L80.63,470.949L80.531,469.219L78.971,469.884L79.311,471.032L76.177,471.074L75.95,472.236L77.382,473.233L75.794,472.887L75.709,473.717L78.276,474.284L77.893,476.014L75.482,476.263L71.936,475.834L71.453,474.699L72.021,472.624L74.304,469.122L70.886,466.728L69.071,466.756L68.829,467.988L67.666,467.503L68.659,465.233L70.333,463.863L71.198,462.05L70.744,458.479L71.553,457.524L72.446,455.087L72.645,453.149L72.021,451.515L70.602,451.1L70.829,450.172L69.454,448.76L69.808,446.489L68.9,446.212L69.383,441.615L70.758,440.549L72.304,436.104L72.347,430.951L71.723,429.469L69.567,428.07L66.9,428.583L66.673,427.128L68.787,423.153L70.829,419.925L71.737,416.628L71.383,414.48L70.319,411.418L70.475,409.602L69.907,408.078L67.354,406.983L66.645,407.995L65.439,406.928L65.837,405.542L65.383,404.045L64.617,404.53L62.901,403.131L62.362,404.822L61,406.54L59.567,406.013L59.043,404.461L59.496,402.396L56.745,401.038L56.617,398.543L54.873,397.573L56.447,395.383L55.284,393.761L53.114,392.555L52.561,394.662L51.851,394.08L52.319,392.278L52.858,392.389L53.156,390.49L52.532,389.783L52.532,387.717L51.142,387.176L50.745,385.818L49.256,385.845L47.61,384.806L47.057,381.201L49,379.509L49.227,376.985L48.731,375.959L49.426,375.002L49.355,371.66L49.653,369.497L49.242,368.873L49.71,366.681L51.511,365.724L53.213,365.738L54.83,367.097L55.78,366.459L55.27,365.544L56.135,363.907L58.816,363.99L57.596,366.32L59.298,367.666L61.099,367.943L63.624,366.959L66.532,364.06L67.014,360.828L66.574,360.203L65.042,360.342L64.376,358.927L64.674,357.97L63.099,357.928L63.922,356.846L66.56,357.942L67.51,357.374L68.517,355.029L69.51,354.391L70.985,354.96L72.148,354.072L76.645,348.522L77.992,345.233L77.935,343.957L76.701,343.707L76.957,342.264L79.226,341.112L80.262,337.823L79.325,335.797L79.808,334.325L78.772,329.578L79.169,328.565L78.957,326.483L78.077,324.72L73.936,324.553L72.375,323.332L73.808,320.569L73.609,319L74.999,318.167L75.538,314.404L74.829,310.002L72.262,307.489L70.404,306.641L69.368,305.03L65.184,301.739L64.503,300.378L64.674,298.947L63.255,295.335L60.872,294.002L59.908,291.487L56.305,289.862L55.284,288.32L53.553,287.389L52.546,285.597L50.816,284.777L49.795,283.262L51.185,281.289L51.44,279.955L52.972,278.913L56.348,279.302L57.95,277.176L58.489,275.522L58.05,273.035L58.206,270.7L58.731,269.963L61.44,271.228L61.979,270.283L60.986,269.588L60.83,266.947L62.149,267.6L63.837,266.975L60.943,265.919L61.894,265.168L62.957,265.432L63.042,263.973L64.007,262.833L63.34,262.402L62.376,263.75L61.369,263.959L61.113,258.593L60.447,257.536L60.532,255.659L61.142,255.395L60.22,252.03L60.645,250.654L62.376,250.265L64.631,248.29L65.241,246.302L64.844,242.95L65.411,241.685L66.021,242.422L67.922,242.366L70.234,246.496L71.609,246.872L71.553,248.109L72.829,247.984L73.638,246.872L75.028,248.916L76.191,249.305L75.85,250.598L76.432,253.129L77.794,253.671L78.957,253.184L79.34,250.348L80.815,250.042L80.389,248.958L80.928,247.706L82.531,248.04L84.729,247.609L85.198,246.635L86.063,247.692L87.127,247.609L89.268,246.163L91.566,245.759L93.594,244.828L93.892,244.146L95.538,244.688L96.658,243.451L97.367,243.59L99.14,242.45L102.36,241.309L104.147,239.599L104.473,238.708L105.835,239.39L107.197,238.834L108.189,236.761L109.452,236.845L110.941,235.607L113.14,237.554L116.189,235.927L117.437,236.441L118.756,235.162L120.26,235.162L120.586,236.205L123.806,237.359L126.061,237.61L126.997,237.123L126.685,234.105L127.295,232.908L126.175,231.156L126.132,229.278L125.082,228.958L124.118,227.288L123.012,227.135L121.763,225.925L120.203,226.134L119.607,222.878L118.983,222.725L118.147,220.471L118.558,219.108L117.721,218.551L115.905,218.829L115.508,220.193L114.345,221L112.232,221.362L111.452,221.974L109.197,221.348L108.345,221.849L104.757,221.431L103.679,220.93L100.927,221.25L97.935,218.259L97.906,216.951L95.268,218.259L92.204,217.591L91.68,216.826L88.446,218.426L87.722,219.678L87.949,221.014L89.538,221.501L90.772,222.948L89.779,224.868L90.219,227.052L88.985,227.817L86.559,228.221L83.226,227.066L82.134,225.703L80.744,225.41L81.566,224.339L81.212,222.99L82.035,222.572L82.432,220.457L81.722,219.706L83.013,218.802L84.786,219.595L86.006,219.414L89.708,216.965L90.077,216.047L91.694,214.808L92.091,213.361L91.041,210.118L92.857,205.915L96.204,205.832L97.552,204.983L98.431,203.466L98.204,200.181L98.729,199.499L97.708,198.455L98.786,197.787L99.013,199.29L99.75,199.304L101.651,201.587L104.445,201.963L105.069,202.965L107.055,203.229L110.572,204.635L112.104,205.804L112.388,207.599L112.062,210.049L112.87,212.902L115.069,213.89L117.962,214.419L119.735,215.128L122.246,214.85L125.777,215.532L127.905,214.432L130.146,215.476L132.983,214.711L134.018,213.138L135.664,212.429L136.798,212.707L138.373,211.399L139.522,209.325L141.55,210.94L142.004,209.214L143.039,208.421L144.954,208.198L147.606,209.52L151.833,210.564L153.805,209.645L154.67,210.522L156.386,210.87L158.131,212.122L158.953,213.347L160.4,213.709L162.216,216.116L164.613,214.808L165.918,215.156L169.279,214.46L169.818,212.999L169.705,211.357L170.868,211.357L170.286,214.989L171.052,215.323L172.584,217.341L173.832,219.887L174.272,223.63L173.293,225.243L173.86,227.135L175.492,229.027L176.13,231.962L178.357,231.935L179.775,233.757L179.733,234.717L181.165,236.274L185.094,236.706L187.293,236.4L191.491,234.327L191.973,233.548L193.335,233.646L193.519,232.296L194.257,233.006L195.179,231.907L196.484,231.949L197.93,230.168L199.505,227.316L200.625,223.212L201.845,222.572L202.937,226.718L203.76,227.984L203.108,228.346L205.604,231.1L206.1,232.825L204.923,232.769L204.299,235.12L205.462,236.247L208.965,237.359L212.781,232.867L213.291,233.047L212.214,229.292L212.923,228.443L213.547,224.923L214.809,226.982L216.086,227.469L218.27,226.189L218.937,227.525L220.809,228.527L221.376,229.945L223.759,230.279L223.972,231.434L227.716,229.987L227.518,226.927L228.525,229.166L230.837,229.792L233.915,228.012L234.127,227.01L237.688,226.941L238.454,227.817L237.929,229.556L238.808,230.321L241.617,229.306L243.588,229.834L243.432,231.754L244.17,232.199L246.141,230.154L247.12,230.989L250.538,230.724L250.992,228.207L253.077,228.54L254.042,228.193L255.46,226.106L256.51,226.509L259.162,225.285L259.304,224.172L260.524,223.004L260.977,220.791L260.07,218.593L261.204,217.772L260.921,216.478L262.126,213.959L261.942,213.166L263.672,212.846L265.247,211.246L265.417,212.582L267.048,212.095L268.211,212.916L269.403,211.538L271.587,214.961L272.764,215.462L275.956,215.017L276.736,214.112L277.998,214.224L280.282,212.957L280.665,213.57L282.352,212.693L283.742,210.94L283.033,209.2L284.721,208.462L285.998,208.852L286.806,210.007L287.217,211.9L289.359,211.649L291.785,210.118L292.934,208.532L292.579,207.864L294.054,205.484L296.565,205.721L297.331,205.373L299.373,206.444L300.735,205.832L299.557,203.702L298.82,204.607L297.543,202.937L299.16,201.392L299.841,202.352L301.174,201.378L301.004,200.473L299.359,199.93L300.054,198.566L301.146,199.22L301.515,200.64L302.635,200.571L303.174,199.457L302.493,197.355L301.501,197.118L299.799,195.559L297.401,194.905L297.146,196.562L296.224,196.047L293.6,196.033L291.515,194.46L291.643,192.316L290.749,191.592L290.707,190.255L293.231,188.027L295.359,189.448L296.55,192.079L298.267,192.176L298.267,193.248L299.217,194L301.259,193.75L301.245,192.162L304.876,191.035L304.99,189.35L306.663,187.192L309.202,184.672L309.458,183.432L307.897,181.149L309.543,180.982L310.38,182.137L312.138,181.845L313.897,179.756L313.968,178.057L312.181,176.511L311.869,175.16L313.458,174.812L314.918,173.782L316.053,174.52L316.833,176.038L318.422,176.651L321.911,173.099L322.266,170.885L323.017,169.882L324.039,167.166L323.386,166.539L323.741,164.937L320.904,165.968L319.996,164.407L320.422,163.223L319.84,161.705L318.734,161.064L316.507,162.346L318.393,159.392L316.933,156.884L318.138,155.77L317.883,154.571L318.904,153.889L318.535,152.147L322.209,148.872L324.081,144.747L325.457,147.381L326.322,147.702L328.648,147.256L330.35,148.371L331.655,147.423L333.981,147.27L335.542,148.426L338.393,148.259L340.832,147.019L342.478,142.281L345.612,138.936L346.052,136.65L347.314,135.758L348.279,135.883L352.676,132.51L354.236,132.872L356.789,130.893L358.25,126.975L359.441,126.878L361.541,125.274L364.009,121.537L363.555,119.293L364.562,116.88L363.498,114.998L362.25,114.272L363.484,112.111L365.172,110.605L365.526,108.945L364.023,106.211L365.569,102.724L365.03,101.748L367.072,100.157L370.661,98.162L371.824,98.037L375.54,99.111L375.824,97.507L375.285,96.167L379.043,97.228L377.951,98.86L379.753,99.739L380.887,99.251L380.504,97.967L382.504,97.814L383.838,98.386L386.05,97.604L384.731,96.6L385.426,95.205L387.908,94.8L385.88,91.438L386.093,93.949L385.199,93.07L383.781,94.661L384.008,93.321L382.008,91.87L382.433,93.056L381.1,94.549L379.994,92.177L380.958,90.182L382.079,89.136L382.107,87.196L380.377,86.624L380.519,84.629L381.284,85.075L382.901,84.517L383.639,82.759L383.327,81.154L384.433,79.898L384.419,78.307L386.915,75.683L387.852,76.101L389.412,75.027L390.561,73.17L391.695,74.664L392.433,74.133L393.582,75.027L395.709,74.859L397.085,73.994L398.078,74.12L398.461,75.236L400.418,74.552L401.227,75.906L402.901,76.157L404.035,77.846L403.553,79.004L404.645,79.591L404.276,80.777L402.943,82.019L403.17,83.721L402.135,84.377L404.759,85.87L404.674,87.629L407.425,87.712L406.418,86.791L407.028,85.34L407.851,86.08L407.454,84.322L405.156,84.056L404.872,82.968L405.397,81.265L406.886,80.735L409.893,80.763L409.893,79.074L411.709,79.27L412.645,79.995L414.319,78.977L414.404,77.274L416.744,77.232L417.623,74.203L418.843,74.455L417.879,72.626L417.127,72.807L416.886,71.37L415.666,70.393L415.68,68.159L417.779,67.657L417.765,69.555L419.964,69.653L419.708,69.011L420.957,67.88L421.056,68.983L423.354,68.843L423.51,67.322L425.056,67.098ZM448.629,414.812L447.494,415.006L448.317,415.893ZM448.26,415.935L447.466,415.076L446.544,415.949L447.338,416.794ZM445.792,415.242L446.459,415.949L447.948,414.452L448.643,414.729L449.665,413.177L448.728,412.332ZM98.814,241.226L98.048,242.728L96.516,242.908L95.169,244.313L94.204,243.59L95.438,241.699L96.998,241.156ZM50.008,235.76L51.724,236.803L51.738,238.472L52.731,239.932L54.362,239.028L56.036,241.337L55.61,245.175L54.688,246.983L52.291,245.843L49.298,247.762L47.001,246.969L45.525,247.484L42.504,250.557L43.086,251.808L42.121,253.059L40.448,253.852L40.66,252.183L38.987,252.42L37.781,251.502L36.831,249.931L37.426,248.93L36.703,248.304L37.653,246.01L39.653,246.9L45.54,246.204L46.618,244.8L49.298,243.673L51.468,240.322L49.369,236.302ZM303.43,458.285L304.394,458.326L302.493,459.974ZM256.311,203.02L257.758,204.941L256.878,206.667L255.375,205.846ZM282.296,184.254L283.757,184.686L284.054,186.593L282.92,187.011L281.501,185.841L281.416,184.714ZM284.48,172.556L285.062,174.227L283.927,175.759L282.239,175.704L282.14,174.311ZM267.587,163.794L268.537,164.979L268.197,166.65L266.424,166.873L265.19,165.787L265.573,164.157ZM299.004,158.598L300.579,159.086L300.806,161.008L300.181,161.774L300.692,163.53L301.926,164.477L301.43,165.814L301.997,168.196L301.685,169.617L300.309,170.731L299.855,169.84L297.813,170.439L296.763,171.762L295.472,170.564L293.742,167.138L294.48,165.87L294.749,162.346L296.565,160.34L297.274,158.793ZM237.418,155.853L237.503,156.648L239.475,157.846L239.645,158.96L241.049,159.504L243.106,158.64L243.248,159.336L244.865,159.545L243.56,163.223L241.815,163.502L238.624,164.77L237.943,167.319L236.666,166.957L235.56,164.212L234.369,162.541L234.482,161.705L236.397,157.163ZM288.494,152.677L289.558,152.997L289.799,154.07L289.104,157.497L288.338,158.668L287.161,158.932L285.998,156.898L286.154,154.404L286.877,153.164ZM170.315,0L170.995,0.377L171.988,3.034L173.818,4.096L175.605,5.815L177.336,5.787L178.57,4.823L179.307,7.255L177.605,7.255L177.364,9.687L177.931,11.169L181.264,12.049L182.924,13.14L185.378,11.379L185.378,12.441L184.257,13.265L184.782,14.859L184.059,19.596L182.555,19.82L182.115,20.658L180.896,19.61L179.974,20.309L180.357,21.58L175.251,22.601L174.399,21.902L173.478,22.545L172.655,21.58L172.187,19.442L170.428,16.564L170.073,12.329L170.371,11.63L169.974,8.304L169.066,6.654L169.378,2.279ZM428.9,469.731L429.58,470.299L428.928,471.586L430.63,475.696L428.105,477.937L425.098,473.758L426.474,472.638L427.311,473.662L428.063,473.371ZM430.148,466.867L429.736,469.289L429.169,467.78ZM430.928,464.583L429.836,466.438L429.694,464.832ZM344.449,459.849L343.825,460.79L342.846,460.61ZM378.348,429.151L379.228,430.314L381.228,431.727L383.341,432.336L385.327,433.902L382.32,436.547L382.334,438.513L380.589,441.255L380.816,442.46L377.242,444.606L376.561,445.866L374.178,446.545L372.037,448.026L370.888,447.902L369.441,449.549L368.59,447.486L368.689,445.769L367.129,445.409L366.136,447.154L364.448,447.542L364.406,444.786L365.782,443.042L368.051,442.585L370.122,440.12L369.753,439.303L369.767,435.924L370.448,434.719L376.859,430.661L376.661,429.248ZM476.359,462.507L477.153,463.102L476.132,465.524L475.635,463.669ZM481.025,476.249L479.862,475.364L479.11,475.71L478.415,474.16L478.912,473.205L478.557,471.6L479.536,468.5L480.968,468.43L481.351,466.853L482.656,466.894L483.876,465.662L485.748,464.597L484.188,466.022L483.592,468.168L485.138,468.693L485.635,469.828L485.394,472.513L487.039,472.375L487.436,470.728L489.181,470.119L490.67,471.074L491.209,469.953L490.457,469.261L490.571,467.102L491.408,466.008L492.727,467.074L494.102,465.912L496.117,467.06L495.961,468.14L498.187,468.486L499.095,466.728L498.074,465.192L498.244,464.057L499.28,463.31L497.407,463.116L498.84,462.078L498.386,460.001L496.854,459.918L495.961,460.735L496.585,458.562L497.89,458.783L499.421,457.579L501.223,455.309L501.152,453.744L499.847,452.831L501.733,452.858L502.4,450.366L502.13,448.289L502.783,447.694L503.322,449.591L502.996,450.74L504.726,453.121L505.776,453.066L506.91,454.132L507.435,451.986L507.974,453.689L509.492,456.319L509.265,457.399L510.173,458.506L511.364,458.202L510.854,459.199L509.166,459.904L508.428,458.949L504.556,459.974L502.443,462.714L503.747,464.348L503.648,468.389L501.833,468.347L500.967,470.714L499.336,470.797L497.223,471.987L495.422,473.883L494.159,475.945L493.095,476.568L492.159,478.754L489.677,478.864L488.188,479.93L484.996,480.276L485.252,479.252L484.642,477.495ZM764.304,451.543L764.885,452.747L764.077,453.177L763.368,452.083ZM728.575,447.763L728.944,448.996L727.426,449.743L727.057,448.262ZM764.644,447.472L764.588,448.636L763.623,447.569L763.822,445.714ZM718.575,440.106L719.114,440.411L720.646,445.174L720.036,446.78L718.859,446.988L717.554,445.492L718.022,443.637L718.051,440.383ZM764.488,436.838L763.921,439.981L763.467,438.236L764.077,436.408ZM756.9,425.383L757.453,426.865L758.602,427.793L758.786,428.874L759.992,429.871L760.219,430.951L761.964,431.422L762.758,433.5L762.29,436.007L761.382,435.3L759.255,435.993L757.865,435.023L755.113,434.843L752.645,434.248L751.453,431.325L750.929,429.04L751.354,427.059L755.709,426.034ZM759.169,421.532L760.489,422.003L762.389,423.665L760.318,424.4L757.723,423ZM746.248,418.567L746.631,418.9L744.915,421.712L743.752,421.754L743.766,423.361L745.198,424.233L743.766,425.882L743.482,427.059L742.447,427.059L742.518,423.859L741.908,422.751L739.199,421.809L741.425,421.089L742.262,419.107L744.319,420.534L745.383,420.022ZM747.95,408.993L749.936,410.642L749.383,412.235L746.39,411.224ZM747.425,402.438L747.879,403.325L745.737,403.962L746.234,402.701ZM710.491,374.739L710.562,374.961L710.604,375.266L712.76,375.474L713.029,376.084L713.214,376.542L709.867,375.834ZM559.958,513.098L560.497,514.176L559.234,514.204ZM575.191,512.904L575.872,514.425L575.588,516.236L576.95,517.937L577.815,518.089L576.922,519.872L578.212,523.66L576.908,523.024L575.858,523.605L574.964,522.678L573.234,523.024L571.957,522.678L570.44,523.148L568.936,521.393L566.355,520.563L566.241,518.752L568.936,518.739L569.631,518.227L570.369,519.637L573.021,520.093L574.723,519.471L573.943,518.282L575.035,517.785L574.284,515.199L573.603,514.411ZM534.214,473.44L535.845,475.806L535.874,477.605L534.697,476.734L533.775,473.523ZM227.078,224.45L228.227,224.59L226.043,226.537L226.185,224.993ZM203.037,222.948L203.902,223.449L204.001,224.798L203.051,224.965ZM236.496,215.504L237.376,216.979L236.255,217.341ZM232.851,210.995L234.014,213.208L235.489,213.904L235.702,214.78L233.135,215.643L232.468,215.379L232.823,213.667L232.128,212.985L232.113,211.343ZM229.617,205.066L230.014,206.57L227.858,209.116L228.624,210.619L229.986,211.023L229.504,211.928L225.759,211.204L225.475,210.425L227.121,209.214L226.638,207.697L225.674,208.281L223.461,207.098L223.376,208.184L221.447,208.963L219.788,208.073L217.107,208.323L214.426,211.148L212.128,211.942L213.83,209.353L213.093,208.615L214.639,206.082L213.121,206.11L212.157,207.92L211.022,208.727L207.348,212.442L208.185,214.098L206.398,213.639L205.306,215.24L206.795,216.728L207.944,219.163L208.653,219.247L208.696,220.819L206.781,220.11L205.022,220.791L204.781,222.002L203.051,221.737L200.342,222.294L201.335,220.541L200.299,219.748L200.086,221.362L196.739,221.946L196.016,220.193L193.562,218.496L189.548,216.575L189.746,211.399L189.321,208.532L188.654,206.876L186.754,205.359L189.519,204.12L188.924,205.136L190.101,206.236L191.463,206.277L191.661,205.47L193.278,205.943L193.463,207.488L195.59,208.254L198.711,207.808L199.505,205.721L202.03,207.043L206.895,207.238L209.902,207.015L211.802,205.999L211.476,205.289L213.15,204.51L214.639,204.426L215.49,203.549L218.128,203.313L220.114,200.919L221.731,200.891L223.092,200L223.958,201.239L226.78,201.002L226.724,202.867L228.908,203.758ZM685.598,543.23L683.924,548.024L682.35,548.508L681.258,546.27L681.258,544.377L681.953,543.631L684.265,542.622ZM663.003,542.663L664.989,544.004L666.776,544.156L668.407,543.506L669.414,544.86L669.287,547.472L671.088,548.757L672.294,547.803L674.095,549.185L673.513,550.774L674.946,553.122L677.315,553.55L677.414,554.628L679.329,555.139L679.811,554.2L681.272,554.711L682.109,556.286L684.449,558.744L684.875,559.739L684.875,562.377L688.364,564.159L690.775,562.17L692.491,562.391L691.527,563.883L689.499,565.43L688.874,566.562L687.612,566.603L685.669,568.578L685.243,570.277L684.619,568.15L681.3,566.396L679.726,564.062L677.698,562.239L676.052,561.521L673.726,561.148L672.194,562.405L670.464,561.535L667.173,561.797L665.996,562.723L664.649,559.145L662.223,557.888L659.571,555.885L659.046,552.542L659.471,552.21L658.209,550.249L657.301,549.834L654.408,549.834L652.238,551.824L648.025,554.062L646.947,555.015L646.238,553.827L646.011,550.041L648.422,547.762L652.138,546.201L652.422,547.444L654.082,548.204L656.408,547.734L656.323,546.38L657.245,546.035L658.535,544.39L660.294,544.694L661.514,542.663ZM446.97,451.986L447.48,453.592L445.253,452.554ZM457.707,451.197L459.749,452.041L460.6,453.107L461.82,453.107L459.664,455.198L458.515,455.765L457.168,452.637ZM475.082,428.791L475.522,429.539L474.146,431.298L473.252,430.854L473.323,429.566ZM434.516,422.723L435.396,423.859L437.154,424.469L436.516,426.671L434.63,428.112L434.587,429.857L436.303,431.325L435.126,433.472L435.821,434.525L437.14,434.802L435.325,437.558L435.566,440.161L435.296,441.906L438.247,444.496L439.438,447.389L443.707,449.065L444.8,450.034L445.324,451.681L442.757,452.803L441.31,452.318L440.161,453.274L438.871,453.329L438.544,452.111L439.31,451.155L438.814,450.006L439.381,448.151L438.786,447.556L437.24,447.902L435.736,446.78L434.218,443.194L432.999,443.222L431.438,440.3L428.077,439.94L426.403,437.627L428.999,436.907L430.871,437.308L431.935,438.181L432.616,437.682L432.261,435.37L432.772,434.054L432.077,432.018L432.332,427.101L433.254,423.804ZM463.664,414.383L466.969,415.353L460.983,420.548L459.31,420.964L457.934,422.28L456.771,424.815L455.679,424.787L455.083,426.464L454.601,424.732L453.906,426.63L450.955,429.497L447.807,430.841L444.615,430.439L443.452,429.636L442.374,426.422L442.899,423.693L444.431,422.045L446.062,421.213L447.509,421.698L448.36,420.964L452.742,421.934L453.154,423.582L454.047,424.136L455.21,423.264L455.14,422.183L456.402,419.717L457.366,419.385L457.735,417.556L458.955,415.658L461.622,416.434L462.898,414.563ZM744.588,561.535L746.645,562.681L746.759,564.67L744.532,563.013ZM750.517,544.142L750.546,544.846L749.141,546.297L750.078,548.342L749.68,550.304L747.525,551.16L746.432,549.434L746.276,548.01L747.681,545.938ZM649.826,524.835L651.94,525.526L652.181,526.936L650.834,527.945L648.791,526.701L648.933,525.263ZM659.032,524.365L660.209,525.056L659.642,526.466L658.323,526.162L657.954,525.153ZM731.483,519.927L733.17,521.987L734.121,522.015L734.291,523.867L736.248,522.9L737.908,524.24L737.553,525.761L734.348,526.411L732.972,525.485L732.163,523.397L728.901,522.015L729.894,520.674ZM711.1,515.006L710.122,515.863L710.505,517.923L708.732,517.591L708.306,516.457L709.427,515.144ZM746.957,494.497L747.78,494.857L746.957,496.572L746.276,496.503L746.248,494.497ZM720.476,491.15L719.582,489.711L720.079,488.798L720.816,490.583ZM775.041,482.296L776.956,482.946L778.701,484.177L778.913,486.46L780.502,487.055L780.871,488.134L780.19,489.144L777.821,486.363L776.8,486.654L774.828,485.561ZM709.001,481.521L710.221,482.628L708.789,482.808ZM643.387,471.115L644.394,472.444L643.316,473.357L641.94,475.53L638.905,476.471L637.912,475.405L637.912,474.367L638.976,471.821ZM791.764,464.984L792.133,466.341L790.728,467.988L789.253,466.188ZM726.178,464.514L727.298,463.559L728.206,465.732L729.738,468.264L729.171,468.666L729.043,472.679L730.064,474.174L728.405,475.516L727.54,473.15L726.561,471.738L724.334,470.963L723.823,471.766L722.391,471.115L721.582,471.53L721.015,470.022L721.27,468.873L722.391,467.974L721.511,466.963L724.603,464.611ZM782.388,460.527L783.566,462.327L785.353,462.673L785.452,463.517L787.14,464.431L786.289,464.791L785.721,467.199L783.778,467.683L782.941,465.552L781.963,464.348L776.842,461.815L778.53,461.51L779.92,462.742L782.02,461.925ZM674.237,459.946L676.719,461.593L679.201,462.562L680.251,466.175L682.435,468.389L685.655,469.745L689.711,470.7L689.853,469.994L692.42,469.731L694.009,468.707L694.165,467.586L695.172,467.628L696.973,466.299L697.782,467.116L698.179,468.846L698.945,469.455L698.406,470.631L698.59,474.104L698.973,474.921L701.257,476.692L701.314,477.315L703.441,478.214L703.526,479.21L705.143,480.663L704.689,484.426L704.959,486.114L707.03,486.834L706.59,487.899L707.881,488.77L710.249,488.95L712.632,487.138L713.483,484.828L713.781,486.737L715.129,487.719L713.483,491.496L713.498,492.353L712.122,492.948L712.022,493.861L713.37,495.396L715.086,495.286L715.497,494.387L717.398,494.636L718.008,496.282L720.405,496.337L720.987,495.548L723.341,494.373L724.32,494.746L726.859,494.387L729.043,493.239L730.788,491.15L728.745,489.379L728.32,488.411L728.93,487.221L732.022,487.29L734.007,485.298L734.688,483.209L736.277,481.521L737.312,481.659L737.426,482.766L740.262,483.555L741,482.725L744.092,482.448L744.716,483.361L747.893,482.918L750.631,481.632L752.12,480.248L752.687,479.003L752.205,476.235L750.886,474.672L754.404,472.762L755.638,471.475L757.439,468.168L760.985,467.42L763.212,469.081L764.602,469.621L767.722,468.652L767.226,472.402L769.282,473.731L770.885,474.035L774.559,473.108L776.417,473.15L778.02,471.655L779.878,471.918L781.807,471.24L781.934,469.731L782.97,469.551L782.871,471.406L781.41,472.707L778.388,473.496L776.147,474.686L776.303,475.35L774.686,477.937L773.14,479.487L770.431,479.584L769.765,480.013L769.538,481.908L768.431,481.825L768.488,479.916L767.368,479.432L765.708,479.653L764.999,482.448L763.524,482.268L762.559,482.918L760.489,482.988L759.496,483.583L759.198,486.349L758.247,487.29L756.574,486.737L756.177,487.719L754.716,488.577L755.155,490.32L754.021,491.731L752.645,491.053L752.361,488.535L750.092,487.982L749.581,487.359L747.241,487.387L745.099,489.006L746.064,489.614L745.695,490.901L744.035,490.901L743.808,489.047L741.667,488.936L738.915,489.476L736.901,491.98L737.567,493.405L737.227,495.23L735.185,495.576L733.88,496.655L732.858,499.228L733.355,500.486L734.958,501.385L733.61,503.75L733.185,505.589L733.809,508.535L736.078,510.097L735.525,511.604L735.965,513.028L735.525,514.632L736.39,516.526L737.454,517.135L737.057,518.144L736.177,517.066L732.291,518.821L731.596,517.038L729.823,515.49L727.639,515.738L727.965,515.033L726.15,513.858L724.958,514.079L724.788,516.056L723.341,516.347L723.213,517.315L721.71,517.218L720.036,518.172L718.987,520.356L716.887,520.522L716.036,518.849L715.81,516.941L716.349,514.259L717.838,512.199L720.802,510.028L721.909,507.816L720.207,505.147L718.746,504.718L717.724,506.778L716.632,507.235L716.278,506.032L717.2,505.409L716.93,503.155L715.739,501.938L713.37,500.873L711.001,501.689L708.434,501.427L708.264,500.14L704.462,499.02L702.562,499.048L701.782,500.984L699.626,502.229L699.328,500.514L700.165,499.974L700.931,498.19L700.392,496.448L697.995,496.157L696.037,497.513L694.86,498.896L694.378,500.362L692.066,500.86L689.981,503.017L690.662,503.944L689.839,506.142L690.293,508.756L689.782,509.862L692.208,512.13L693.47,512.102L694.959,513.084L692.548,512.973L691.47,512.144L690.165,512.102L689.825,513.554L687.867,514.162L687.811,512.323L686.208,510.111L684.662,509.254L680.974,509.876L679.825,510.83L677.839,511.272L675.996,509.572L674.024,509.779L670.294,511.231L667.769,511.259L665.443,513.374L665.088,514.287L666.152,515.655L665.017,516.651L664.606,518.144L662.989,519.499L662.351,520.785L661.741,519.803L660.961,516.748L660.067,514.964L658.464,512.973L660.45,512.807L661.017,511.328L660.606,508.867L658.961,507.179L656.351,505.451L654.11,504.925L653.798,502.727L652.791,500.86L647.77,500.182L649.514,499.186L649.259,497.36L647.869,497.153L647.585,495.092L648.323,491.108L648.096,486.322L646.451,484.011L646.635,482.531L647.926,480.373L650.238,481.286L651.372,480.649L653.188,478.228L653.543,476.457L653.287,474.091L652.011,472.126L651.103,469.358L651.443,467.808L653.032,466.77L655.84,467.033L656.238,467.739L658.436,468.915L659.557,470.133L661.925,469.828L662.322,468.887L664.294,468.098L664.649,465.413L663.755,463.932L664.45,461.939L665.641,461.012L666.592,461.399L666.549,463.448L668.308,464.417L670.733,464.555L670.918,463.697L672.109,464.375L673.159,462.631L673.187,461.15ZM726.632,456.541L727.71,457.537L728.32,459.489L729.752,460.223L728.986,462.354L727.681,463.379L727.001,462.119L726.433,458.686L724.958,458.839L724.348,457.717ZM687.811,436.713L688.832,436.962L690.874,439.732L689.867,442.003L691.328,441.754L691.428,444.316L689.499,445.52L689.47,444.509L687.953,444.412L688.747,443.152L688.633,441.809L685.385,439.912L685.414,438.223L686.719,438.167ZM581.248,585.051L581.716,586.501L581.092,587.205L578.95,587.108L579.716,585.7ZM636.281,572.003L636.607,573.426L634.182,577.195L635.529,579.391L636.99,580.233L635.061,582.345L634.097,584.885L634.607,587.577L635.543,589.703L637.302,591.774L635.543,595.625L633.728,596.715L632.239,596.881L630.934,598.606L628.352,600L625.402,597.198L625.288,596.384L626.948,595.142L628.04,592.519L630.579,591.001L633.402,590.573L633.785,587.522L633.132,585.852L631.473,585.866L631.657,582.594L630.863,581.6L632.806,579.57L633.104,577.637L633.813,577.513L635.515,574.24L635.387,572.652ZM591.332,563.372L592.439,565.664L591.403,566.244L590.864,567.722L589.318,566.562L590.382,566.037ZM580.326,559.67L578.723,561.079L578.241,560.222ZM537.306,554.932L539.661,556.438L539.959,558.551L539.122,559.297L535.562,557.764L535.789,555.471ZM553.944,553.274L555.334,553.357L557.093,554.338L560.426,557.584L561.305,558.758L562.979,559.187L563.107,560.899L564.369,563.33L562.284,563.966L558.1,566.189L555.674,566.383L550.965,569.448L549.093,569.366L546.185,568.344L544.71,567.225L543.193,562.75L545.278,561.908L548.582,562.723L549.831,561.866L550.384,559.905L549.575,557.197L550.299,554.96L552.398,553.247ZM621.842,539.112L622.48,539.651L623.289,543.216L622.622,545.427L621.303,546.076L622.168,544.681L621.969,541.862L620.622,541.281ZM599.97,520.052L601.772,522.25L602.977,522.775L602.467,524.379L602.821,525.277L605.077,527.282L607.545,527.53L609.161,525.319L609.771,527.42L611.275,528.291L615.119,528.373L614.778,529.217L615.119,533.031L616.736,531.608L617.714,532.658L618.225,534.759L621.43,535.477L619.927,536.97L617.672,536.445L616.282,536.915L616.083,538.38L614.948,538.573L611.97,537.578L608.325,537.827L606.665,539.223L606.225,540.784L606.381,543.561L603.445,543.686L601.828,544.556L601.956,546.283L601.006,547.624L601.658,549.323L600.538,550.456L597.602,549.724L596.424,550.87L594.311,551.16L594.382,552.943L592.85,554.545L592.737,556.603L593.871,557.142L593.715,558.233L591.474,559.325L589.872,560.664L587.333,557.902L585.574,557.805L584.127,559.421L582.468,558.192L582.765,556.424L580.17,555.775L580.113,555.084L581.546,554.283L582.751,554.973L585.29,554.255L586.652,554.628L588.68,553.854L588.638,552.749L592.354,552.998L592.751,551.52L594.24,550.18L594.566,548.48L593.772,548.066L594.084,544.225L595.176,543.7L594.694,542.097L595.9,541.337L597.162,541.959L598.24,541.558L598.07,539.844L600.481,539.817L603.19,537.108L603.559,535.436L603.048,533.598L604.325,533.087L604.396,532.243L600.637,528.857L600.538,527.945L599.346,528.47L598.254,525.429L598.751,522.969L600.268,521.683ZM592.878,503.695L594.268,504.096L593.517,505.783L592.098,503.529ZM587.404,496.696L589.701,497.748L591.262,499.905L590.822,500.5L592.07,502.865L591.176,504.013L589.942,504.275L590.198,501.938L589.162,501.828L588.822,500.638L587.248,500.237L586.255,499.338ZM595.914,505.769L597.517,506.419L597.006,509.323L598.013,511.051L598.722,510.941L599.275,512.904L598.311,514.854L595.446,515.351L595.205,511.604L593.63,510.802L593.559,508.521L594.765,506.668ZM316.606,157.832L316.521,158.737L315.443,157.762ZM345.882,128.718L346.605,130.223L345.229,130.098L345.002,128.885ZM328.577,124.131L330.152,124.117L329.315,125.888Z"
          fill="#e0e0e0"
          stroke="#333333"
          stroke-width="1"
          stroke-linejoin="round"/>
  </g>
</svg>