<?xml version="1.0" encoding="UTF-8"?>
<svg xmlns="http://www.w3.org/2000/svg"
     viewBox="-20 -15.659283494282136 840 631.3185669885679"
     width="840"
     height="631.3185669885679">
  <title>徳島県</title>
  <desc>都道府県コード: 36</desc>
  <g id="36">
    <path d="M640.664,171.524L644.709,172.841L643.104,176.856L640.963,176.228L641.841,173.301ZM647.406,157.053L646.7,158.517L650.039,160.023L649.525,161.173L651.944,162.281L649.632,167.467L647.128,166.401L645.758,169.433L640.856,167.446L641.498,167.007L645.415,158.245ZM619.002,434.809L616.755,434.205L618.274,431.913L617.076,430.392L617.247,428.58L614.892,428.392L613.843,433.538L611.938,431.851L609.605,431.622L607.229,434.392L606.459,439.892L609.156,442.496L607.358,442.787L608.214,446.182L605.068,449.369L602.948,449.848L599.781,453.451L592.674,457.491L590.534,457.887L589.314,460.553L586.403,462.573L586.852,463.614L584.412,464.738L583.299,463.156L580.966,464.155L580.131,467.154L577.241,466.508L577.027,467.674L572.939,470.006L569.964,470.131L570.499,471.755L569.407,473.609L566.304,473.962L563.671,475.003L561.402,477.148L554.681,479.521L553.91,481.083L550.742,483.31L548.987,483.289L543.85,487.224L542.416,486.745L540.211,489.118L538.799,492.657L538.371,491.075L535.438,492.636L531.564,493.281L529.616,492.948L526.919,495.446L526.555,492.324L525.571,491.117L522.488,491.533L522.21,493.927L520.755,496.487L521.525,499.047L517.801,500.878L516.345,499.255L514.847,499.463L513.156,496.466L511.636,495.925L510.181,497.507L509.581,499.838L508.49,498.443L506.221,500.441L507.398,502.106L505.964,503.626L502.132,503.896L503.374,505.977L500.27,507.497L500.934,509.12L499.435,511.242L494.812,513.199L492.928,516.778L493.742,518.588L491.751,519.046L492.008,517.797L489.225,516.965L487.021,519.774L486.721,521.397L483.703,522.437L483.789,524.934L485.116,525.537L488.326,524.913L489.846,525.808L492.971,525.891L495.476,524.684L501.041,525.288L502.454,527.243L501.405,529.012L499.393,529.053L497.359,532.569L498.237,533.401L494.94,535.045L494.148,534.587L490.103,537.52L486.379,541.847L484.045,545.674L483.104,548.649L483.682,551.893L482.269,550.541L481.755,551.727L485.073,552.725L484.495,555.2L481.563,556.177L478.202,556.281L477.282,557.009L472.872,557.716L467.221,558.028L467.286,557.467L462.898,558.527L463.904,561.085L465.852,559.9L469.362,559.297L474.734,559.089L478.801,559.9L484.581,561.813L482.804,562.832L478.652,563.477L472.016,563.31L468.356,563.83L463.818,562.79L460.864,560.441L456.99,561.688L455.556,559.941L452.902,560.69L452.431,562.666L453.629,564.204L451.254,565.14L449.541,564.184L448.364,565.348L446.694,568.945L446.309,573.436L447.208,576.555L445.389,577.615L448.3,577.366L450.076,580.235L452.302,580.63L452.538,582.231L454.293,582.896L451.596,583.811L451.553,586.139L450.012,587.719L451.296,588.634L449.241,590.754L445.902,589.839L446.437,587.345L444.661,588.322L443.912,585.058L445.26,584.019L441.172,582.688L440.722,583.852L438.111,584.455L438.496,581.628L437.64,580.63L433.252,580.131L432.054,578.967L428.993,578.884L428.8,578.426L425.953,579.133L422.528,578.239L420.452,580.859L419.938,583L414.609,581.441L411.805,584.31L405.811,584.642L402.301,582.418L400.31,582.002L399.497,584.019L397.656,584.351L397.442,583.977L396.029,583.229L395.494,583.187L395.195,582.792L392.048,580.485L390.528,576.68L390.186,576.326L387.596,574.954L387.039,574.642L385.627,573.041L382.801,572.542L381.795,572.771L379.762,573L379.462,573.52L379.056,573.873L378.52,574.019L376.508,574.331L376.23,574.642L375.245,575.183L374.775,575.225L372.656,576.95L372.035,577.075L368.867,578.073L368.717,578.073L367.968,577.636L367.411,575.724L367.54,574.58L368.482,571.524L367.026,568.8L366.812,568.405L365.849,566.679L365.549,566.575L363.259,565.702L362.66,562.998L363.794,561.314L361.953,558.111L361.161,555.013L358.849,553.12L358.293,552.413L356.645,550.52L356.088,550.479L355.339,550.666L353.926,549.647L353.07,549.314L351.401,548.149L352.171,546.61L351.101,544.26L355.018,540.017L355.104,539.601L352.492,537.666L347.419,536.979L344.551,535.045L341.34,535.898L339.542,533.256L338.708,530.614L340.249,527.68L340.206,527.202L339.093,524.268L336.717,523.186L337.381,520.357L341.512,517.985L343.031,518.63L345.365,516.528L346.863,516.32L351.122,511.201L351.786,510.785L356.966,508.766L358.721,506.706L359.534,506.061L360.776,505.083L360.07,503.73L356.645,501.253L355.403,501.378L351.936,497.902L354.697,494.655L353.498,493.552L352.107,491.595L350.309,487.057L353.027,483.331L355.018,482.498L354.312,479.73L354.226,475.878L351.615,474.462L348.961,473.942L346.777,472.692L345.707,473.046L345.258,473.4L344.787,473.754L336.225,474.691L335.797,475.191L332.115,473.234L330.424,471.547L329.589,471.11L327.235,470.256L326.293,468.945L325.908,468.278L325.908,468.008L325.779,467.862L320.856,466.258L318.309,466.113L316.49,467.029L314.435,466.217L311.031,466.446L306.922,468.174L302.448,467.32L299.387,469.132L296.177,468.591L293.608,469.111L293.33,469.278L289.948,470.756L284.639,470.86L284.233,471.464L279.567,472.276L274.237,470.548L272.995,467.633L273.637,467.029L277.918,464.801L278.239,464.447L277.619,462.739L278.304,460.344L278.454,459.803L278.389,457.658L279.609,454.972L282.157,453.576L281.814,451.348L280.037,449.994L279.759,449.64L278.668,446.724L279.524,442.766L281.001,439.35L279.545,434.705L276.42,433.663L276.035,432.017L276.12,431.288L276.227,429.33L274.536,427.038L274.451,426.663L274.622,424.392L274.194,423.496L274.108,423.267L274.044,422.434L272.503,419.808L273.06,414.911L274.558,410.765L274.194,410.035L274.066,403.075L274.365,399.302L271.968,392.653L268.479,391.861L265.439,388.359L265.375,384.398L265.953,380.729L261.908,378.394L260.752,376.059L256.792,372.264L257.199,369.887L259.318,367.531L259.254,362.964L257.241,357.542L256.621,356.52L252.254,357.188L251.805,357.584L249.964,359.461L248.68,359.523L244.42,360.629L242.344,361.88L237.72,362.193L235.173,361.671L233.054,362.443L231.042,361.755L226.911,356.249L227.168,354.456L226.397,353.267L224.985,349.534L225.113,347.114L222.202,346.113L218.906,348.95L218.264,349.012L211.393,350.43L210.066,350.618L204.779,351.87L204.5,353.851L200.134,356.166L201.482,360.316L200.797,362.38L201.504,364.466L201.247,367.093L199.941,369.762L200.134,371.555L197.629,376.851L193.348,380.646L190.801,380.083L190.074,380.666L189.774,380.771L188.704,380.812L186.542,379.958L183.759,379.916L182.239,379.436L181.662,381.021L178.215,381.917L177.873,383.126L175.433,385.024L174.298,387.025L174.148,387.275L170.424,383.919L166.892,385.19L165.629,384.607L162.14,377.977L160.342,375.85L158.801,376.997L154.52,377.122L152.958,375.517L150.004,375.684L145.852,374.808L145.959,371.534L143.433,367.948L141.72,364.007L139.473,361.463L138.724,360.295L135.342,356.917L134.892,356.374L132.88,351.244L129.348,350.66L126.245,348.324L124.468,344.569L122.649,342.484L118.454,343.401L115.628,342.817L113.509,344.903L107.794,348.97L106.809,348.824L102.207,348.407L100.11,349.742L97.434,349.012L96.771,349.179L95.7,348.887L95.358,348.887L94.566,349.659L90.97,349.763L90.328,349.617L88.102,349.888L85.897,344.799L85.704,344.987L84.42,345.821L79.283,344.861L77.571,346.864L71.813,346.801L67.703,348.887L67.104,349.346L62.566,349.492L61.474,349.45L59.698,349.325L55.288,343.673L55.395,342.796L55.224,342.275L54.753,340.314L54.068,339.521L47.882,337.602L45.549,338.416L45.1,338.604L42.574,338.52L41.782,338.791L41.332,338.854L40.669,339.042L40.134,339.021L39.32,338.875L37.587,337.686L32.3,337.081L28.254,338.645L25.407,336.768L23.502,333.263L20.292,332.596L18.301,333.055L16.31,331.803L15.861,331.594L13.827,330.572L11.687,331.386L10.21,330.238L9.632,329.758L9.504,328.444L9.482,327.943L9.033,327.109L8.605,326.65L8.412,326.483L7.599,326.024L3.81,324.855L3.66,324.396L3.532,323.624L1.498,321.58L0.364,316.259L0.342,312.398L0,312.064L0.813,308.767L3.789,306.889L5.394,307.306L11.858,302.694L11.922,301.88L11.815,300.544L11.751,298.353L9.482,294.303L10.895,292.738L10.916,292.487L11.601,289.022L14.384,288.417L14.748,288.291L18.858,283.49L19.157,283.636L20.527,283.427L19.714,281.569L19.607,280.901L17.145,275.598L11.922,275.202L11.152,275.097L10.831,273.824L10.874,273.364L10.767,270.002L10.959,269.48L13.314,268.416L14.491,265.325L17.274,264.573L17.702,264.594L21.94,260.418L21.983,257.222L19.564,252.607L18.13,251.354L18.194,250.999L21.426,246.696L21.79,245.067L17.852,242.644L17.252,243.103L17.573,243.584L15.326,243.291L15.561,240.638L15.411,239.907L13.485,238.612L15.283,234.518L15.604,233.974L15.069,231.906L14.213,231.509L13.849,229.566L14.791,227.79L14.448,227.414L10.788,227.038L10.36,227.498L10.852,220.101L13.121,217.531L13.742,216.946L14.47,213.644L17.231,210.531L17.231,209.569L15.112,207.187L14.876,206.455L12.779,203.78L12.95,203.446L17.038,202.923L17.98,203.634L18.643,203.655L21.405,202.777L22.625,201.397L25.258,200.833L27.89,198.994L28.361,199.161L29.581,200.331L33.092,201.105L36.26,199.391L36.645,199.286L38.272,197.154L38.764,196.966L41.568,195.44L42.082,195.043L42.895,192.702L42.082,189.086L42.874,184.403L43.002,183.88L47.732,177.169L48.417,177.148L53.619,173.698L54.946,172.13L61.175,168.722L62.202,166.798L65.991,164.561L67.575,162.888L68.623,160.169L70.742,158.308L70.764,155.777L73.782,153.707L77.078,153.456L78.769,152.096L79.283,151.531L80.46,150.255L80.824,149.586L82.13,147.955L83.093,147.453L85.854,147.474L86.175,148.415L90.435,149.251L89.814,149.816L89.172,150.988L93.132,155.338L96.021,156.028L103.106,153.497L106.36,152.891L108.179,153.79L109.785,152.598L108.757,147.578L112.225,142.244L110.983,137.579L113.916,135.32L117.683,134.002L118.839,132.851L121.258,133.332L122.413,134.671L125.046,134.86L130.569,131.387L131.96,129.002L132.795,128.269L136.326,126.282L139.216,126.198L140.928,127.432L142.213,130.55L144.631,129.483L146.922,129.734L151.203,127.265L154.499,126.826L157.282,125.026L157.967,124.775L159.979,123.855L162.055,126.135L162.868,127.349L164.559,128.876L164.88,129.315L165.736,130.466L166.079,130.55L167.449,130.194L167.62,129.964L172.886,127.014L175.625,123.29L180.27,118.686L183.417,118.184L184.487,118.017L186.948,117.347L192.321,118.268L191.829,120.528L191.893,121.239L190.844,123.875L192.171,126.805L193.777,127.265L195.532,129.211L194.847,130.717L195.168,135.257L195.468,136.052L196.666,137.391L198.443,137.328L202.981,140.027L205.742,142.391L205.314,144.713L208.182,146.344L208.567,146.281L212.334,146.072L214.175,149.126L215.267,153.121L218.606,150.778L220.597,151.448L221.175,151.469L224.193,152.786L226.076,151.594L229.651,153.456L234.874,151.301L235.837,145.863L237.014,144.775L240.182,142.161L240.738,141.763L245.769,142.37L246.261,142.621L246.839,143.018L247.374,143.353L249.129,143.52L250.114,143.29L251.933,143.081L253.068,141.282L251.484,137.433L253.645,135.968L253.838,135.655L255.379,132.851L258.89,131.889L259.232,131.805L261.437,129.964L262.614,126.114L262.935,122.076L265.161,119.167L265.546,119.021L268.136,116.259L268.436,116.029L270.812,116.363L270.983,116.489L273.423,117.368L274.494,119.293L274.815,119.816L276.313,121.49L276.656,121.323L279.93,120.025L281.065,120.339L281.493,120.611L282.841,119.963L283.569,117.431L285.817,116.091L288.428,113.162L288.664,113.078L289.348,113.057L290.119,112.952L298.959,118.54L304.953,118.1L306.708,116.51L308.805,116.238L309.169,116.259L310.86,115.757L311.224,115.694L312.466,115.673L312.744,115.526L316.04,113.789L317.453,114.396L318.031,115.024L321.263,111.487L323.211,110.985L325.522,105.921L325.715,105.711L327.599,104.686L327.834,104.33L329.868,102.3L328.733,98.846L328.883,98.26L328.755,94.429L328.69,93.906L328.626,91.31L327.128,87.919L327.064,87.731L328.391,85.114L330.809,84.737L331.901,83.188L332.243,82.622L332.95,81.848L334.298,76.949L335.283,75.965L339.007,75.944L339.5,75.588L340.42,75.294L342.047,74.708L343.652,72.656L346.349,72.572L348.661,70.52L349.132,69.767L349.988,68.657L353.156,67.568L354.547,68.238L356.131,67.233L357.009,68.343L357.266,67.756L357.415,67.547L357.629,67.693L357.544,68.364L361.975,69.327L362.124,70.143L363.815,69.808L368.139,70.834L370.515,67.924L374.111,69.662L374.561,70.06L378.178,68.301L382.587,67.128L386.076,64.113L388.024,64.175L390.785,65.578L390.999,65.264L390.957,64.301L391.021,63.547L396.136,64.217L396.479,63.903L402.258,64.238L404.377,65.118L404.57,64.929L406.218,63.819L406.582,63.694L407.973,63.421L408.273,63.505L409.365,63.903L413.431,61.076L417.541,61.62L417.948,62.123L422.443,63.191L424.326,66.563L427.944,66.228L430.32,64.552L430.598,64.259L435.264,64.762L435.607,65.202L437.918,70.081L438.946,73.494L441.215,72.028L441.429,72.133L443.056,72.028L443.334,72.028L446.181,71.756L448.107,68.385L448.664,68.217L450.654,66.332L453.587,67.966L456.883,68.594L457.225,68.74L460.136,69.746L460.351,69.578L464.032,67.756L468.57,69.578L469.276,69.892L470.175,70.311L470.689,70.395L472.466,68.112L472.615,67.61L473.022,64.762L473.172,64.343L473.75,60.825L474.97,59.61L480.599,60.175L482.247,62.374L483.874,62.437L486.807,64.531L490.253,67.84L490.702,68.28L492.757,70.897L497.916,70.604L499.2,73.808L499.093,75.483L499.2,76.048L502.753,77.095L503.695,77.577L507.548,76.739L509.581,74.248L512.428,74.855L514.654,78.582L517.437,79.461L518.464,83.313L523.045,82.434L526.919,75.965L529.167,74.52L532.163,73.996L532.891,72.782L532.099,69.934L533.084,68.552L532.677,65.013L530.665,64.929L529.659,61.683L529.723,61.264L531.35,58.856L535.716,56.175L536.487,54.646L535.674,52.468L536.701,51.065L536.337,49.221L537.6,47.546L537.258,40.843L543.144,42.497L546.226,42.77L549.565,41.262L553.632,41.282L559.026,40.067L561.53,38.894L564.72,36.066L567.31,31.729L571.783,29.886L574.352,27.811L576.706,26.931L582.935,25.863L590.812,25.59L596.506,26.261L599.288,25.234L603.74,25.695L607.015,25.423L609.22,26.952L615.77,28.754L619.43,29.404L622.577,26.806L625.124,26.827L626.515,28.712L627.564,26.952L628.292,28.524L629.276,26.701L628.698,25.004L625.809,24.773L623.818,21.756L624.096,19.765L627.264,16.245L631.995,15.092L637.817,14.17L640.642,15.7L637.902,20.436L638.48,23.872L640.813,26.806L639.229,29.655L639.743,30.996L635.227,38.622L637.132,43.524L637.324,45.933L644.153,51.253L647.385,52.887L655.176,55.065L660.763,59.819L663.652,62.982L666.157,63.61L669.902,62.73L675.51,63.212L676.045,66.102L670.823,76.509L662.839,87.605L660.506,91.897L658.601,93.676L660.998,96.188L660.206,96.439L660.784,99.328L665.001,100.29L663.438,107.197L658.579,106.695L658.194,108.516L656.118,108.788L655.775,110.776L653.635,110.085L650.553,115.422L649.247,121.574L649.739,122.766L648.455,124.691L651.28,128.437L653.1,128.332L650.809,135.717L650.938,138.437L649.461,144.231L645.587,153.372L645.715,156.237L639.272,167.99L637.496,170.353L640.342,171.837L639.122,176.187L641.199,176.814L639.7,181.873L638.373,184.591L641.434,185.448L644.067,184.591L643.938,186.807L641.199,186.807L639.679,187.706L639.829,190.716L641.263,191.302L642.932,193.706L646.4,194.939L645.715,196.506L646.742,198.2L646.272,200.311L641.755,200.541L642.012,203.655L639.807,203.968L641.52,204.783L641.712,207.249L639.294,206.163L641.07,208.796L642.89,208.023L646.914,210.781L645.415,212.495L647.342,214.752L651.13,216.841L653.656,217.092L656.161,215.525L657.188,216.612L653.849,219.788L651.43,218.931L651.387,220.143L653.442,220.812L653.314,223.089L650.788,226.578L652.586,228.229L654.748,221.418L659.093,220.728L662.817,217.907L663.652,219.286L661.469,221.188L662.539,222.985L666.371,221.021L664.294,217.05L667.955,217.259L668.982,214.104L667.698,210.928L664.551,210.781L665.3,206.351L669.41,204.721L674.419,207.375L677.908,211.952L680.69,217.656L682.66,222.567L683.302,225.805L687.176,234.392L690.601,240.617L694.475,245.38L696.144,246.216L703.336,247.657L706.012,248.701L709.351,252.44L711.599,254.006L713.525,253.902L714.274,256.784L718.94,270.274L720.203,275.41L717.442,278.605L716.029,281.945L716.243,284.743L717.207,285.64L714.574,289.398L715.473,291.798L712.391,294.762L711.556,293.844L708.388,296.098L706.74,298.248L704.15,304.927L701.217,306.805L700.383,311.647L698.713,312.21L699.505,308.642L695.16,309.205L693.833,314.193L690.28,313.817L689.595,312.315L686.298,312.252L685.464,311.376L683.965,312.586L689.295,317.031L686.148,319.869L681.889,321.267L680.177,318.554L677.779,318.721L678.935,320.515L674.954,322.268L673.156,319.368L674.055,322.56L672.043,322.915L669.624,325.565L670.031,327.317L667.89,329.508L667.248,332.7L668.896,332.888L671.957,330.843L674.033,330.843L676.153,326.128L679.513,324.709L679.406,327.839L677.972,328.048L678.999,329.842L677.779,332.366L678.593,334.139L676.816,335.725L677.373,336.705L680.583,336.497L679.128,338.562L676.581,339.542L674.547,341.941L674.825,343.568L676.923,344.257L680.155,344.173L681.354,342.63L684.393,342.922L686.063,341.545L685.999,339.793L688.803,340.314L688.867,342.984L691.136,342.859L691.093,339.855L694.025,340.126L695.031,343.652L696.744,340.982L696.872,339.229L698.799,339.125L698.97,341.19L700.982,340.752L702.159,338.604L707.318,336.83L710.015,336.768L711.149,339.96L717.742,338.854L718.94,340.043L722.365,337.915L725.555,338.624L729.151,340.564L730.285,342.588L726.261,343.193L723.564,344.528L720.76,344.403L716.436,345.696L713.996,345.279L711.427,346.009L710.336,348.199L708.495,347.344L705.456,350.305L705.841,351.765L701.967,351.473L701.367,353.038L702.373,354.664L705.199,354.685L707.575,353.017L710.486,352.391L712.862,353.496L715.088,352.37L715.452,350.055L719.882,350.097L724.677,351.536L727.224,349.93L727.781,352.912L729.579,353.997L731.676,351.16L734.202,351.265L736.942,349.033L738.333,347.031L743.62,346.426L745.247,345.007L746.638,346.697L746.531,349.2L750.598,351.286L748.351,353.997L741.993,355.561L739.66,358.481L736.471,360.545L733.667,360.858L731.719,360.087L730.413,360.754L729.536,363.173L720.974,366.593L719.133,368.219L713.118,369.595L710.165,372.702L709.073,375.183L705.134,374.725L700.682,376.726L699.612,378.186L695.588,378.123L684.029,386.504L683.366,387.921L680.54,389.005L678.336,388.067L676.538,388.755L675.489,392.194L676.666,394.091L675.746,396.03L674.355,392.903L672.813,391.361L670.245,392.257L668.425,391.215L662.946,391.361L660.441,392.028L658.858,395.634L656.888,394.466L653.207,398.26L651.066,402.449L649.247,402.658L647.984,405.242L649.225,408.347L647.47,410.056L644.409,409.077L643.211,405.909L643.724,402.762L641.434,402.491L640.749,405.638L638.587,406.43L637.817,403.971L634.97,403.45L633.45,405.742L634.713,409.66L634.114,411.202L631.609,411.807L628.163,408.41L626.686,411.702L627.007,413.619L628.57,413.474L628.484,416.099L629.619,416.537L629.918,418.912L628.805,419.183L627.328,426.705L625.744,426.913L624.31,431.455L625.359,432.08L623.797,435.538L620.586,434.371ZM677.501,14.421L677.094,17.502L675.981,18.403L673.134,22.929L672.578,25.968L673.498,26.764L668.832,32.945L668.597,36.171L665.942,41.764L665.557,45.891L665.9,52.07L665.236,53.159L665.193,57.976L663.353,59.526L662.368,59.024L661.383,55.442L657.83,52.091L654.47,51.861L649.375,48.53L648.733,49.494L642.162,46.959L640.471,45.179L638.93,41.282L639.786,38.329L642.226,38.496L644.752,37.658L649.782,38.077L652.971,34.662L654.662,34.118L657.916,35.459L657.552,37.973L658.815,38.475L662.668,37.994L664.401,32.232L663.46,31.436L662.09,32.735L657.488,31.164L656.396,28L659.607,22.259L664.359,21.63L665.985,20.394L667.783,21.358L669.324,20.247L671.7,20.163L673.456,19.116L672.428,17.649L674.483,15.7ZM652.393,4.341L654.855,5.535L656.845,5.284L658.408,7.212L659.757,10.712L657.766,13.206L658.151,15.218L660.206,16.182L658.965,17.586L658.815,20.415L657.145,21.211L656.161,20.142L655.09,22.657L653.121,22.95L654.619,19.451L653.785,19.388L648.027,25.276L646.785,27.895L647.641,29.55L644.837,30.87L645.287,32.295L643.446,32.84L641.199,35.626L640.321,32.672L641.327,30.703L641.284,28L643.254,27.958L642.718,25.842L640.214,24.564L639.101,22.091L640.214,18.131L641.691,16.957L642.89,11.865L647.042,9.476L650.874,4.425ZM786.986,343.756L788.292,343.86L788.72,346.697L787.029,347.344ZM783.197,339.605L786.665,343.714L784.482,344.632L783.433,341.962L780.072,341.628L780.971,340.293ZM744.091,336.059L745.29,338.124L741.736,339.834L737.948,340.481L739.789,338.082L740.495,338.833L742.7,337.811ZM798.823,332.074L800,333.263L798.78,338.166L799.615,339.063L797.132,340.106L796.404,341.733L798.309,343.944L793.45,346.405L791.631,346.718L789.49,344.277L789.619,341.545L791.181,340.439L791.331,338.207L793.193,337.769L797.667,332.658ZM723.457,332.011L726.432,333.555L723.179,336.079L722.13,334.577ZM686.512,323.937L690.044,324.897L689.809,327.547L691.5,329.049L690.108,330.155L688.353,329.362L686.876,333.284L684.95,335.412L681.418,335.12L681.439,333.284L678.935,331.365L680.626,326.942L684.543,326.983L684.008,323.833ZM702.373,322.143L703.593,323.353L701.389,325.022L701.175,328.861L697.6,330.28L697.514,323.812L698.114,325.815L699.676,325.502L701.153,322.31ZM693.726,315.8L698.092,316.467L693.49,316.697ZM731.933,275.222L731.312,277.06L729.258,277.164ZM524.843,514.822L527.904,516.32L527.583,520.856L526.191,521.771L524.586,520.357L523.922,516.008ZM544.107,512.658L543.979,514.447L542.309,513.844ZM568.722,508.1L570.734,508.683L571.698,510.618L573.902,511.305L576.15,513.802L578.654,513.698L578.569,512.512L581.715,511.7L580.944,514.135L579.403,515.425L579.96,517.09L576.492,519.67L576.043,520.814L569.835,518.234L566.946,518.297L565.405,515.55L569.215,515.175L566.582,510.493L568.144,510.202ZM642.654,410.223L643.146,412.369L642.226,414.265L640.706,413.703L640.771,411.89ZM450.569,595.244L450.397,595.036L450.569,595.244ZM453.33,588.571L454.507,590.671L456.284,591.71L456.027,594.059L457.033,595.14L454.421,595.659L452.195,593.872L451.575,591.793L453.33,590.879L451.81,589.86L452.495,587.74Z"
          fill="#e0e0e0"
          stroke="#333333"
          stroke-width="1"
          stroke-linejoin="round"/>
  </g>
</svg>