<?xml version="1.0" encoding="UTF-8"?>
<svg xmlns="http://www.w3.org/2000/svg"
     viewBox="-19.999999999985448 10.90527810047206 839.9999999999854 578.1894437990522"
     width="839.9999999999854"
     height="578.1894437990522">
  <title>香川県</title>
  <desc>都道府県コード: 37</desc>
  <g id="37">
    <path d="M445.294,232.455L443.795,234.612L442.22,234.514L439.446,231.965L439.796,228.119L440.821,227.604L445.544,231.034ZM383.044,195.23L385.293,198.637L384.519,199.764L382.195,198.71ZM586.537,195.99L586.887,201.456L584.188,198.882L585.162,193.882ZM609.652,413.123L609.128,412.659L604.929,410.63L602.155,414.028L597.107,412.83L595.133,413.221L594.958,412.268L589.785,411.143L589.885,410.361L589.635,410.19L589.461,410.434L589.161,411.119L588.136,409.823L586.287,410.996L584.662,410.214L580.964,411.485L579.964,412.781L579.415,413.661L576.716,416.057L573.567,416.155L571.693,418.55L569.794,419.235L568.719,419.577L568.144,419.993L563.796,420.017L562.646,421.166L561.072,426.886L560.247,427.79L559.848,428.45L558.573,430.259L555.749,430.699L554.2,433.754L554.275,433.974L556.024,437.933L556.099,440.964L556.174,441.575L556.324,446.047L556.149,446.731L557.474,450.763L555.099,453.134L554.825,453.549L552.625,454.746L552.401,454.991L549.702,460.904L547.428,461.49L543.654,465.619L542.979,464.886L541.33,464.178L537.482,466.205L537.157,466.376L535.707,466.401L535.283,466.474L533.308,467.06L532.884,467.036L530.435,467.354L528.385,469.21L521.388,469.723L511.067,463.2L510.168,463.322L509.368,463.347L509.093,463.445L506.044,466.865L503.42,468.429L502.571,471.385L500.996,472.142L500.497,471.824L499.172,471.458L495.349,472.973L494.949,473.168L493.2,471.214L492.825,470.603L491.575,468.355L488.726,467.329L488.527,467.183L485.753,466.792L485.403,467.06L482.379,470.285L481.929,470.456L479.33,473.852L478.955,478.567L477.581,483.061L475.007,485.211L474.607,485.308L470.509,486.432L468.71,489.705L468.485,490.071L465.961,491.781L467.81,496.275L466.485,498.375L464.361,498.619L463.212,498.888L461.163,498.693L460.538,498.302L459.863,497.838L459.288,497.545L453.416,496.837L452.766,497.301L449.068,500.353L447.693,501.623L446.569,507.972L440.471,510.487L436.298,508.314L434.099,509.706L430.575,508.168L429.9,508.143L427.576,507.362L423.678,510.097L422.403,505.433L420.254,501.867L415.856,502.112L415.406,502.185L412.058,500.28L412.557,497.569L409.334,494.809L404.036,491.659L401.962,491.732L400.562,490.169L400.212,489.241L399.838,483.941L400.637,482.182L398.588,479.91L396.714,479.373L395.164,475.953L396.389,472.875L396.314,472.044L396.889,469.406L390.616,468.331L387.742,469.113L386.493,469.308L382.819,469.894L377.397,475.269L374.198,479.617L368.05,483.061L367.851,483.33L366.251,483.745L365.851,483.647L364.852,482.304L364.477,481.791L362.503,480.008L361.553,478.591L359.129,475.928L356.78,477.003L355.98,477.296L352.732,479.397L348.883,479.91L343.885,482.793L341.211,482.499L338.388,483.745L336.888,480.106L334.889,478.664L331.515,478.762L327.392,481.083L326.417,481.938L324.793,484.722L318.346,488.777L315.272,488.557L313.922,486.994L311.099,486.432L309.749,487.775L305.351,489.314L301.927,491.952L303.377,497.398L299.328,503.626L300.528,509.486L298.654,510.878L296.53,509.828L292.731,510.536L284.459,513.491L281.086,512.685L276.463,507.606L277.212,506.239L277.937,505.579L272.964,504.602L272.589,503.504L269.366,503.479L268.241,504.065L266.717,505.97L266.292,506.751L264.917,508.241L264.318,508.9L262.343,510.487L258.495,510.78L254.971,513.198L254.946,516.152L252.472,518.325L251.248,521.499L249.399,523.453L244.975,526.065L243.776,528.311L236.504,532.29L234.955,534.121L228.882,538.149L228.082,538.173L222.56,546.008L222.41,546.618L221.485,552.086L222.435,556.308L221.485,559.041L220.885,559.505L217.612,561.286L217.037,561.506L215.138,563.995L214.688,564.117L210.989,566.118L206.891,565.215L205.467,563.848L204.917,563.653L201.843,565.801L198.769,566.459L197.345,568.07L194.121,569.095L193.346,569.07L192.247,568.241L187.474,568.851L187.074,567.85L185.8,565.679L186.324,563.263L183.825,561.872L183.126,561.774L181.326,560.871L180.002,557.455L175.929,554.575L175.554,554.404L172.655,554.209L171.98,554.16L169.156,551.866L166.357,554.087L163.109,554.673L159.235,554.087L156.137,555.576L155.412,555.868L153.563,554.721L152.638,552.33L149.989,550.963L149.889,550.646L145.091,544.349L144.116,544.641L142.992,545.447L140.468,547.424L138.694,546.96L136.595,549.157L134.17,549.645L130.447,547.668L129.522,545.3L126.823,546.155L122.25,538.661L124.374,539.076L132.346,537.685L133.821,535.878L141.767,533.047L145.766,529.385L147.64,523.306L148.74,521.988L150.089,516.055L150.589,511.22L148.815,510.854L149.589,506.825L148.915,503.137L151.413,505.677L153.063,505.189L151.913,503.186L150.139,502.917L150.264,499.743L151.788,499.596L153.063,496.446L154.087,491.439L152.238,488.728L153.188,470.407L151.239,470.969L147.665,469.21L145.991,465.472L149.989,465.082L149.639,461.441L151.813,461.832L154.987,459.804L154.462,458.167L151.863,459.951L150.564,458.631L154.562,457.336L154.112,454.306L155.437,453.915L157.811,436.345L155.887,434.781L160.335,425.395L160.635,417.768L161.759,414.883L161.459,407.647L159.76,405.52L160.285,402.488L162.909,400.63L162.459,392.976L158.486,394.933L153.563,385.958L153.363,383.366L150.614,383.195L152.588,381.972L151.638,380.602L151.563,376.982L149.314,375.173L143.467,373.265L142.542,375.197L139.993,373.73L141.343,372.433L140.218,369.156L136.719,365.633L134.845,367.15L133.121,364.753L131.522,364.655L131.746,361.401L130.222,356.876L129.223,356.753L126.524,353.133L123.65,353.793L120.901,351.714L115.978,349.634L114.404,347.163L110.705,345.695L107.731,343.468L105.657,344.814L103.433,343.542L101.934,344.814L100.909,343.468L106.382,340.654L106.607,337.082L104.558,335.687L102.183,336.03L103.883,331.674L102.783,330.059L100.909,330.255L98.885,328.272L91.913,328.15L88.814,326.755L91.438,323.916L95.561,324.773L98.185,323.378L102.758,323.329L102.458,324.895L109.88,327.856L113.579,326.951L115.578,332.09L118.302,333.436L125.924,334.782L128.323,336.054L130.897,335.663L133.096,337.278L135.095,341.584L137.819,343.199L136.769,344.3L136.619,347.677L139.693,351.347L141.892,352.032L144.716,349.438L147.64,349.903L150.739,348.802L161.809,354.6L167.707,353.597L171.28,347.848L173.055,348.239L177.503,346.943L182.126,340.973L183.276,345.132L180.027,347.187L178.303,354.552L180.777,360.154L181.726,360.398L184.05,350.564L186.624,351.298L184.475,360.276L181.201,363.652L183.026,365.242L185.675,362.673L187.549,354.943L189.148,353.597L194.296,354.209L194.371,350.539L199.644,350.637L202.518,353.279L205.467,351.591L207.316,348.484L209.965,348.019L214.688,340.557L216.762,339.088L220.161,334.855L223.834,333.534L225.783,330.744L229.157,328.272L232.606,326.853L233.705,323.182L228.782,317.014L229.807,316.182L228.207,313.955L229.157,310.063L232.83,307.762L236.204,313.122L235.529,314.444L237.054,316.916L240.427,315.57L238.753,313.759L242.476,312.462L239.203,311.287L236.454,306.905L241.577,303.551L245.575,309.989L250.798,306.758L249.774,303.821L252.822,301.911L254.846,305.167L258.745,301.201L261.019,300.712L257.895,297.015L253.747,289.376L256.971,287.638L258.97,285.581L265.292,297.603L266.792,297.039L264.568,292.706L270.99,289.278L269.865,287.662L267.291,289.058L265.442,285.508L261.994,283.475L270.515,278.921L276.263,290.356L274.314,292.07L275.063,295.056L277.987,293.563L278.737,295.154L280.186,293.441L277.987,289.866L281.736,287.638L277.412,280.782L278.387,279.607L281.985,283.451L290.207,278.529L290.282,276.203L296.679,272.432L297.704,272.872L301.053,271.036L299.928,268.807L304.301,266.529L305.801,268.905L308.05,266.383L306.575,263.664L302.677,264.399L300.878,254.871L302.227,243.137L299.503,239.095L304.526,240.589L303.977,238.066L317.046,230.177L317.146,234.685L310.774,241.251L308.05,242.892L307.675,248.233L313.548,244.705L321.719,236.278L322.244,238.948L323.569,234.514L322.919,233.068L324.293,230.887L327.817,230.716L328.192,232.504L330.991,233.338L330.491,235.494L331.89,237.576L330.791,244.656L322.869,251.393L320.02,250.78L315.347,251.638L316.122,255.434L308.9,256.83L309.224,258.668L311.848,258.3L311.149,260.431L312.048,265.036L314.397,264.717L321.769,262.023L321.769,260.407L325.018,259.966L325.293,263.566L323.119,265.06L330.916,263.321L330.241,259.402L332.39,258.619L335.314,263.199L337.488,262.341L334.289,258.227L341.886,250.584L347.509,245.685L350.533,249.335L352.607,248.012L350.433,246.371L356.855,239.267L357.98,236.817L359.004,237.846L360.828,236.106L359.279,235.126L357.655,231.769L359.029,226.477L357.005,222.581L356.705,219.518L355.256,216.063L356.28,213.22L360.229,208.808L363.577,209.642L365.252,213.587L370.874,212.975L372.624,209.348L379.021,214.396L381.72,213.538L385.268,207.485L386.118,203.171L389.217,202.215L392.091,206.897L396.139,210.671L395.114,213.98L396.464,216.014L400.112,215.72L401.262,212.436L403.136,210.426L411.883,213.318L414.107,216.577L415.706,220.817L413.432,221.968L416.081,225.987L418.355,227.653L417.73,225.693L422.503,222.752L421.429,221.65L425.777,218.048L427.701,218.66L429.675,224.051L431.3,225.766L438.072,230.103L437.022,231.23L439.521,234.146L444.394,236.082L446.868,239.071L447.918,231.573L451.242,233.019L458.514,234.465L457.889,235.641L453.066,234.612L452.791,236.057L460.788,237.723L461.013,236.008L465.511,235.714L471.508,237.576L470.984,240.05L468.959,242.01L475.757,241.153L475.357,239.928L472.808,240.173L472.633,237.895L478.206,238.434L479.455,236.841L483.404,235.2L485.953,238.507L493.899,239.732L492.725,242.721L494.349,242.28L494.574,237.552L490.326,236.057L489.751,234.489L496.998,233.142L496.073,232.014L497.248,226.036L502.271,226.428L501.296,238.581L505.445,239.34L505.22,235.592L505.72,229.099L507.819,229.319L507.619,231.402L509.393,231.573L508.668,240.589L514.291,238.875L513.991,237.552L518.015,229.172L519.414,223.512L518.639,218.709L519.589,207.215L521.138,206.725L522.263,209.666L525.212,211.235L532.134,219.101L536.307,226.673L536.082,228.07L538.031,230.593L540.281,228.829L540.33,230.299L538.131,231.892L542.38,231.353L543.204,229.05L541.28,228.021L538.856,217.435L539.681,213.661L542.705,214.323L544.554,211.235L545.903,206.431L549.002,205.426L547.752,200.132L543.854,202.044L543.354,198.907L541.68,196.946L541.455,194.691L542.829,193.44L545.154,194.004L545.553,195.475L548.452,195.45L555.075,191.455L556.449,192.901L560.372,194.078L562.721,196.651L567.544,199.691L571.693,201.211L574.417,203.245L577.141,208.956L577.44,215.842L574.692,217.557L574.791,221.65L572.667,223.096L571.868,227.188L572.792,229.736L572.617,233.534L574.042,235.91L572.392,239.904L571.418,244.73L568.919,246.077L570.668,247.669L570.018,251.834L573.292,255.263L574.167,259.427L579.165,264.105L582.238,264.864L585.362,264.497L585.387,265.672L590.085,264.766L589.111,263.37L588.786,257.884L589.61,257.051L598.482,257.32L595.608,255.483L594.209,256.586L594.558,253.107L595.933,250.364L595.783,244.534L593.134,243.897L592.709,238.948L596.308,239.095L598.907,241.741L600.131,246.542L604.28,244.975L605.454,243.75L606.304,246.15L612.151,246.199L615.8,242.696L617.199,239.757L614.425,235.91L614.175,232.774L611.377,230.446L609.802,224.541L611.801,221.38L615.1,221.699L615.7,225.325L618.624,226.109L621.298,237.307L621.023,240.834L623.172,243.358L625.046,242.868L627.345,245.073L626.67,247.522L632.093,251.099L633.468,253.083L637.241,252.397L635.492,250.829L637.966,250.682L639.04,248.331L642.164,244.828L643.813,241.349L646.637,239.022L649.011,240.957L652.51,245.195L651.66,251.001L653.51,253.72L659.532,253.818L659.882,257.222L656.783,258.545L656.058,260.872L656.708,264.668L658.732,270.84L654.559,271.795L653.934,275.395L647.712,278.088L643.589,283.745L645.663,289.695L644.438,292.265L646.712,291.629L646.862,293.857L651.135,301.887L654.684,305.045L658.832,306.464L658.532,304.163L661.206,304.849L662.281,302.915L661.581,300.736L663.68,298.974L667.529,302.132L666.404,303.062L667.679,306.318L670.403,309.182L672.502,309.696L678.05,313.783L683.672,314.567L684.822,313.025L688.945,312.682L691.544,310.259L693.918,313.171L699.091,315.227L705.463,322.594L713.76,329.496L715.559,327.783L718.508,330.524L719.383,333.069L725.955,335.981L728.179,336.005L732.502,334.537L736.751,338.012L742.099,338.11L746.947,335.858L749.371,333.167L747.446,328.786L749.645,326.486L753.619,330.793L759.242,333.265L762.79,337.987L763.565,340.654L766.289,345.572L764.339,348.924L766.614,351.126L768.613,349.243L772.736,349.536L776.51,351.836L777.134,354.821L773.611,356.46L771.462,355.848L772.061,359.909L775.21,364.239L779.708,366.245L779.483,367.786L784.681,372.042L791.653,376.885L797.651,379.795L799.6,379.012L800,386.838L798.526,388.795L798.95,390.947L797.751,392.585L798.701,395.128L797.801,396.913L792.703,400.043L790.804,402.855L790.729,403.344L791.903,407.134L794.252,407.231L794.727,411.363L793.578,412.977L794.502,416.301L793.653,417.719L790.154,418.33L787.53,420.017L783.007,427.57L777.659,428.597L776.46,424.099L773.211,423.073L770.612,418.722L767.288,418.013L764.914,420.922L760.416,421.899L759.317,421.337L755.168,420.115L755.043,419.455L755.168,417.499L753.669,413.759L747.646,414.101L745.247,411.045L744.722,410.532L740.699,406.669L737.275,404.224L735.376,404.151L733.452,401.583L726.88,400.923L725.455,402.341L724.781,406.449L724.606,406.938L724.131,410.263L723.956,410.85L721.882,413.514L721.282,413.417L720.232,412.928L719.408,412.561L714.11,410.434L709.812,412.561L709.562,412.757L706.163,411.583L705.763,411.412L701.915,410.679L698.491,408.772L696.167,410.972L695.517,411.168L693.268,415.104L689.945,415.421L689.62,415.421L687.721,415.544L687.471,415.421L684.822,417.133L683.622,413.148L680.923,407.451L680.524,406.938L675.076,406.351L674.751,406.693L671.977,408.649L667.754,409.041L665.555,405.104L660.307,403.857L659.832,403.271L655.034,402.635L650.286,405.936L649.011,405.471L648.661,405.373L647.037,405.691L646.612,405.838L644.688,407.134L644.463,407.354L641.989,406.327L635.242,405.936L634.842,406.302L628.87,405.52L628.795,406.4L628.845,407.525L628.595,407.891L625.371,406.253L623.097,406.18L619.024,409.701L613.876,411.07ZM488.676,182.826L490.651,184.321L490.051,187.851L491.175,194.298L488.951,201.162L484.578,202.019L478.231,211.284L475.782,211.872L473.982,208.171L475.382,204.593L479.855,198.809L480.83,195.671L485.978,186.675L486.677,183.316ZM542.755,179.516L544.279,181.06L541.705,182.041ZM530.185,177.579L532.209,178.56L531.584,181.919L535.233,187.385L532.109,190.523L528.81,191.308L525.212,190.45L527.086,187.238L529.435,187.484L530.634,185.057L530.36,182.531L528.71,178.927ZM385.219,173.46L382.819,175.495L381.07,173.779L383.994,173.435ZM546.953,171.204L548.302,172.97L547.203,176.034L544.204,176.083L544.279,173.019ZM495.749,159.409L498.298,163.358L497.448,170.101L495.824,172.087L492.925,172.43L490.276,174.465L489.126,173.411L488.626,168.409L491.75,160.832L494.449,158.821ZM268.041,225.472L269.391,227.286L272.689,226.845L273.864,230.397L273.464,233.264L271.44,232.578L268.591,234.587L263.993,234.073L264.418,228.707L265.167,226.845ZM163.284,208.122L165.758,215.009L165.683,217.778L162.084,217.043L161.234,213.931L158.386,214.396L157.461,213.416L160.085,211.798ZM212.389,192.705L215.712,191.896L219.286,195.99L218.211,199.078L221.035,202.461L221.36,204.372L223.984,207.019L225.583,211.921L228.507,217.631L228.507,220.792L226.108,223.047L222.135,228.437L219.186,229.074L218.161,226.943L213.538,227.58L211.689,229.956L212.739,230.765L210.689,232.431L211.064,237.405L207.041,237.723L206.291,238.973L203.417,238.924L199.569,234.979L196.795,234.171L191.497,229.613L192.772,225.546L194.896,225.227L194.446,221.527L195.92,221.65L194.446,217.631L196.47,215.548L196.895,211.749L197.72,213.538L201.793,212.632L202.268,207.657L203.517,204.74L207.741,205.108L208.39,206.088L211.289,204.25L210.714,197.926L211.639,194.764L210.964,191.455ZM266.442,190.842L267.541,192.484L269.765,192.779L273.914,196.725L276.813,196.406L276.338,199.691L277.637,201.358L280.636,202.657L278.612,204.887L278.137,203.515L274.089,204.544L274.389,207.191L271.715,208.245L269.89,210.647L266.317,210.671L261.894,214.053L260.244,218.93L254.796,222.336L253.047,221.135L248.099,220.4L249.374,219.444L249.998,216.087L251.648,215.303L252.372,212.289L249.724,206.554L246.375,203.318L247.824,198.539L245.5,197.068L246.35,193.195L249.774,194.911L250.823,197.607L250.398,199.74L253.397,201.578L258.395,199.372L257.545,197.436L259.719,195.573L260.844,196.995L263.618,194.641ZM271.515,184.762L273.414,186.699L275.488,186.331L275.838,188.415L272.464,188.562L270.315,189.739L267.216,189.371L268.791,186.282ZM181.201,181.281L184.65,182.899L180.777,193.024L182.101,193.44L185.725,191.675L185.4,198.833L183.326,199.568L181.476,202.853L178.153,204.936L177.453,208.49L176.228,208.563L174.454,200.622L172.705,200.353L172.205,197.926L173.405,196.872L173.38,193.98L171.13,192.092L169.256,188.415L166.257,187.165L164.383,183.389L165.883,182.679L170.806,185.522L178.153,183.071ZM268.516,177.04L271.465,179.859L269.016,178.584L266.767,180.031L264.343,178.241ZM308.125,196.75L309.574,197.411L310.849,201.603L310.299,204.225L306.95,201.848L306.5,198.661ZM300.903,196.333L304.176,201.382L302.402,208.563L297.254,207.583L295.705,205.647L294.355,199.666L296.405,197.485ZM293.956,194.592L294.605,196.578L293.256,197.877L292.906,194.543ZM294.131,183.365L293.506,187.655L290.457,186.626L291.532,183.831ZM288.108,165.123L291.806,171.891L289.582,173.313L288.733,175.397L290.657,178.609L289.357,179.393L287.983,177.113L284.285,174.318L284.409,170.248L280.886,167.183L284.684,165.663L287.008,167.109ZM1.549,473.901L2.849,476.881L0,476.612ZM64.849,448.32L67.947,448.564L70.047,452.4L71.921,453.622L74.87,451.912L76.444,453.036L76.719,455.846L73.945,458.778L68.047,459.829L67.897,457.556L65.973,452.694L63.849,451.472ZM6.297,429.77L7.997,430.821L6.997,432.459L4.573,430.992ZM665.505,266.578L666.804,268.023L664.68,268.268ZM150.089,391.729L152.488,392.952L150.139,394.713L148.29,392.365ZM147.29,390.287L147.565,389.088L141.617,386.838L141.118,385.249L143.517,383.195L145.566,383.268L146.066,385.934L148.59,387.866ZM131.272,366.22L131.672,369.865L129.797,370.207L129.547,367.297ZM183.55,314.077L189.673,315.766L191.347,318.238L188.998,318.605L188.448,321.077L186.549,321.004L184.85,319.021L181.126,319.853L179.802,318.507L180.052,316.329ZM144.741,301.862L147.84,302.866L149.089,306.93L147.615,307.639L146.59,310.773L149.539,314.469L151.813,315.692L156.187,316.133L159.685,313.294L159.21,310.626L160.36,308.325L162.159,307.762L163.434,309.402L168.806,307.59L167.707,311.14L165.608,313.71L167.707,317.871L164.308,320.588L156.736,316.672L154.987,318.776L149.489,319.682L147.69,325.164L146.465,327L143.367,327.538L141.842,332.016L139.668,331.919L139.443,329.692L137.319,329.129L138.944,324.112L137.719,322.472L141.792,318.801L145.241,316.941L145.666,310.724L143.392,310.552L140.193,307.737L142.567,302.205ZM597.832,120.776L598.582,122.764L594.234,126.591L594.184,122.96L595.558,123.181ZM547.628,111.6L548.177,114.471L546.353,117.538L539.406,121.414L532.384,118.544L534.158,114.225L537.307,115.06L538.456,113.416L541.98,112.802L543.804,114.029ZM514.191,94.79L515.99,96.852L515.416,99.404L518.389,102.03L522.138,104.116L525.811,104.238L525.911,103.134L528.91,102.766L527.936,104.337L529.51,106.913L528.335,108.901L528.86,112.066L527.611,115.084L518.939,122.42L517.115,125.757L516.515,129.805L513.241,132.896L510.792,134.098L506.319,131.154L501.946,125.83L497.573,122.764L495.524,123.475L487.627,121.537L481.629,117.17L479.88,114.569L476.182,115.403L474.307,112.606L474.657,111.011L478.606,110.569L479.18,105.392L481.304,105.318L489.326,106.594L494.849,104.803L496.173,101.048L500.772,98.177L501.196,96.115L502.846,97.318L507.544,97.269L509.993,94.864ZM567.02,74.024L568.369,76.111L565.72,78.492L561.897,77.191L561.872,74.393ZM577.89,72.65L578.14,74L576.091,75.816L571.168,77.216L571.718,75.325ZM606.129,111.134L601.831,109.122L599.307,110.717L600.031,112.41L596.932,114.078L594.059,114.348L591.385,118.053L586.812,117.047L583.013,119.991L583.538,122.886L582.089,124.015L580.764,128.652L576.291,131.007L574.242,129.633L571.943,131.62L567.444,132.013L566.095,128.308L564.021,125.119L561.497,125.487L559.448,123.598L560.997,120.776L561.747,115.084L564.471,110.349L566.57,108.876L570.343,102.741L572.168,101.784L578.04,101.514L579.515,100.336L582.238,102.054L584.463,104.95L585.762,104.018L590.36,107.33L590.985,106.471L588.686,103.821L583.263,99.698L580.689,95.305L578.515,94.226L578.015,92.508L579.39,88.973L577.29,86.715L575.241,86.936L574.492,88.679L571.043,89.66L573.117,87.918L574.642,84.801L577.715,82.837L579.165,79.94L578.24,75.89L580.489,71.299L579.864,69.998L582.538,68.574L584.513,66.34L583.538,69.998L589.111,76.995L592.034,78.517L596.308,78.222L597.732,75.424L599.731,75.866L601.006,73.386L602.13,74.712L605.254,75.105L612.851,73.583L617.374,71.84L623.997,65.751L625.671,65.456L630.394,67.887L632.993,66.414L637.966,65.088L640.09,59.932L645.488,55.439L650.286,52.198L651.71,52.075L652.335,48.17L653.734,45.469L656.283,46.23L656.733,43.357L658.058,42.227L662.431,42.645L661.981,46.353L663.955,47.728L669.153,46.574L672.577,48.711L682.748,48.637L690.569,46.206L693.593,40.877L697.592,36.898L702.415,35.817L705.663,33.533L710.186,31.789L716.409,33.312L724.431,30.905L727.979,31.839L726.38,35.277L724.93,34.663L723.881,38.593L725.58,39.698L727.18,38.126L730.203,38.102L732.153,34.688L733.477,35.425L740.624,34.344L737.6,37.856L732.902,38.716L731.203,37.831L728.879,39.87L725.33,44.364L725.08,48.784L722.531,50.822L722.906,54.481L728.504,56.814L731.028,56.372L731.278,53.892L734.302,52.959L731.278,56.028L731.978,59.318L735.176,61.356L735.051,66.095L732.902,68.206L730.978,72.576L731.978,74.835L731.628,80.775L732.153,83.426L730.103,85.562L730.303,87.059L727.005,88.286L725.055,92.213L725.205,94.667L727.479,95.944L728.554,102.324L723.881,103.944L722.407,103.11L721.182,105.637L722.132,111.256L724.281,111.772L725.805,114.986L727.454,114.593L729.903,116.041L728.004,120.85L729.229,123.402L727.879,125.021L725.555,133.632L723.406,135.839L721.532,139.911L719.083,142.07L716.334,142.609L715.209,145.479L715.884,148.422L718.433,152.616L718.933,156.172L717.109,159.753L713.535,157.619L710.736,152.126L711.011,147.515L709.612,145.283L707.088,144.057L704.614,137.704L702.565,135.226L698.841,137.09L698.066,138.66L696.467,137.63L692.394,137.875L689.245,135.422L686.896,136.894L686.646,140.451L685.372,142.781L683.547,143.149L680.549,146.166L676.15,147.049L673.776,151.022L671.302,149.06L669.378,146.239L671.302,144.572L673.826,147.245L676.1,145.406L676.325,142.806L674.401,140.745L673.052,134.147L674.076,132.528L678.724,130.958L682.748,132.43L683.722,130.025L687.396,133.509L690.395,132.675L693.018,130.271L699.316,134.343L700.615,130.909L699.341,128.504L700.84,128.603L699.641,122.543L697.242,120.629L696.342,116.9L694.993,116.237L689.92,116.826L688.345,115.452L687.571,117.096L683.822,114.005L681.973,115.182L680.923,117.808L677.825,120.016L674.926,120.384L672.927,122.617L669.953,122.445L667.579,124.555L662.556,124.702L660.282,126.321L660.107,129.731L658.607,132.945L654.234,138.513L654.484,140.328L656.758,143.591L652.51,147.588L652.26,150.017L649.286,151.341L647.587,153.769L647.862,156.884L645.438,159.189L643.838,162.548L643.888,165.466L645.063,167.281L647.562,167.992L644.763,170.542L643.039,173.509L637.641,176.868L632.568,177.456L631.319,176.623L629.619,171.253L626.146,167.649L626.745,165.859L632.743,164.265L632.993,160.219L634.242,163.014L636.366,162.352L637.416,160.121L636.791,156.712L635.217,154.333L631.593,155.706L627.92,156.123L625.846,155.314L625.546,153.033L628.62,150.237L634.292,148.766L635.192,145.43L637.616,142.683L636.991,137.041L640.365,134.392L639.115,130.099L635.542,130.271L635.592,128.333L637.291,126.885L636.316,124.138L634.417,123.549L630.944,124.628L630.019,121.169L632.243,119.697L632.843,116.802L629.144,113.146L627.57,114.569L623.747,115.231L619.398,120.384L617.699,116.9L618.699,115.452L616.025,112.287L612.076,110.692L608.853,113.538ZM724.706,152.297L726.83,153.867L726.33,155.952L723.181,152.739ZM707.163,145.675L704.189,147.49L704.339,145.283ZM687.596,119.452L684.822,118.298L685.971,115.845L688.845,117.783ZM456.34,150.581L456.839,152.911L453.566,156.785L451.292,157.104L448.868,154.701L448.393,152.739L451.642,150.728L453.066,151.733ZM417.58,131.497L417.955,135.324L419.205,138.685L415.706,139.151L414.407,138.072L411.558,138.44L409.908,135.496L410.258,132.748L412.233,132.479L414.007,134.564ZM448.868,120.433L448.693,124.334L453.441,122.42L452.891,125.389L450.892,126.787L448.868,131.301L446.569,132.675L445.494,131.522L445.519,128.235L444.295,126.615L444.27,123.549L447.118,120.776ZM408.109,115.894L410.358,118.642L409.908,120.188L411.883,121.905L412.058,125.045L409.059,125.242L408.909,122.273L405.71,120.163L405.685,118.176ZM442.095,115.943L442.545,117.881L445.519,117.906L444.994,119.697L442.57,120.948L439.222,118.74L438.772,116.115ZM421.079,115.747L421.454,118.495L423.178,120.556L427.401,118.446L428.626,116.875L431.475,117.096L431.775,121.611L436.323,126.297L437.222,126.174L441.471,129.584L442.52,132.062L444.769,132.331L446.119,136.673L445.344,139.151L447.543,142.315L450.142,140.034L453.991,138.783L455.49,139.69L455.165,141.947L453.591,142.389L452.566,145.43L447.468,147.711L446.444,149.649L443.795,147.245L439.821,146.73L438.572,150.483L435.448,146.411L432.749,146.73L429.401,145.7L428.926,143.615L426.277,144.007L423.828,140.475L425.602,139.126L424.877,135.839L421.154,132.945L418.73,126.959L419.33,124.628L417.68,123.475L418.13,119.648L417.131,118.127L420.029,115.207ZM423.103,113.268L424.353,115.722L427.276,115.428L425.502,118.912L422.528,118.863ZM440.596,107.109L440.946,110.471L436.947,114.152L436.947,110.422L437.897,108.066ZM428.501,99.036L430.125,102.03L432.874,101.343L432.124,105.073L430.5,106.202L426.677,102.177ZM426.152,96.606L426.402,98.422L423.728,98.373ZM422.703,92.188L423.603,96.631L422.104,98.349L421.679,93.293ZM427.626,90.127L428.651,92.998L427.276,94.643L424.627,95.453L423.978,92.581L425.752,92.802ZM451.442,96.164L453.891,96.066L454.19,96.483L455.59,97.809L456.29,97.858L458.689,98.25L458.914,97.637L460.688,94.741L460.638,94.373L461.488,90.79L462.362,90.74L464.586,87.574L464.786,90.102L463.462,91.771L463.112,101.784L461.612,105.073L461.263,110.25L463.162,114.495L461.662,115.428L460.288,113.268L457.714,112.508L456.315,107.159L454.265,106.79L453.841,99.919ZM424.128,82.027L424.378,85.635L426.302,87.991L420.654,90.495L421.729,88.63L420.554,84.138ZM205.267,328.811L206.341,330.108L204.617,331.723L203.567,329.912ZM175.229,264.423L178.278,265.501L182.476,269.37L187.949,272.627L189.848,276.031L189.998,279.337L187.474,283.916L182.401,283.182L180.227,281.59L177.228,275.566L175.379,273.068L173.13,265.55ZM160.96,255.9L156.436,256.684L154.262,254.455L155.762,252.74L159.86,253.45ZM140.618,236.302L142.542,241.447L147.29,247.743L148.989,251.319L146.291,255.41L145.666,258.716L141.642,259.182L139.518,256.61L140.368,251.54L140.193,248.38L138.769,245.269L137.444,239.512L139.168,235.935Z"
          fill="#e0e0e0"
          stroke="#333333"
          stroke-width="1"
          stroke-linejoin="round"/>
  </g>
</svg>