<?xml version="1.0" encoding="UTF-8"?>
<svg xmlns="http://www.w3.org/2000/svg"
     viewBox="81.1436368525683 -20.00000000000182 637.7127262948634 640"
     width="637.7127262948634"
     height="640">
  <title>愛媛県</title>
  <desc>都道府県コード: 38</desc>
  <g id="38">
    <path d="M286.382,192.938L286.216,195.157L285.63,195.351L285.906,196.31L284.9,196.461L284.713,195.017L283.64,193.477L283.01,193.272L280.191,193.606L279.926,192.862L280.744,192.27L282.413,193.056L283.087,192.927L284.713,191.688ZM323.737,174.94L324.898,175.436L326.302,176.59L326.147,177.959L325.517,178.497L324.478,178.368L323.195,175.889L323.062,174.768ZM304.965,167.534L305.596,168.386L304.523,168.019ZM342.354,161.312L343.879,161.841L345.007,161.226L346.344,161.161L346.19,162.93L344.299,162.628L343.78,163.243L343.746,165.14L343.194,166.402L342.121,166.984L343.216,170.251L342.973,171.016L341.027,171.038L339.789,172.062L339.557,171.663L337.688,171.34L336.24,172.288L335.643,175.415L336.439,177.01L337.721,178.422L339.402,178.961L338.794,179.176L338.694,180.944L339.833,181.849L341.381,182.313L341.834,183.046L339.247,183.757L338.064,183.153L334.869,183.649L335.135,185.05L334.305,185.406L332.117,183.843L331.807,182.442L332.979,180.923L333.675,177.862L333.233,176.611L334.372,175.21L334.405,174.283L333.377,172.278L331.763,171.275L330.823,171.631L330.116,172.817L328.8,172.989L329.264,171.803L331.044,169.981L331.188,168.256L334.372,168.31L336.141,168.72L337.92,168.181L338.54,166.822L338.23,165.949L338.23,163.663L341.137,163.491L341.768,163.146ZM295.259,160.612L296.541,161.507L295.845,161.711L294.22,160.644ZM292.009,156.287L293.634,157.02L293.236,158.433L289.378,158.929L288.361,159.587L286.868,161.194L285.719,160.881L284.16,161.539L282.004,160.051L280.766,160.903L279.837,158.714L281.739,158.002L281.938,156.945L282.999,157.107L283.508,158.034L284.679,157.754L285.111,157.107L285.895,157.797L287.609,158.39L288.659,158.196L288.77,157.398L289.931,157.031L291.257,157.387ZM321.857,150.678L322.897,151.94L322.3,151.886ZM297.039,142.631L297.459,142.954L296.873,143.968L296.409,143.202ZM331.873,141.001L335.079,142.631L335.687,142.609L335.433,144.713L335.975,147.96L336.494,149.298L336.483,150.463L335.886,149.319L333.941,148.165L332.791,148.402L331.851,150.527L331.077,150.182L330.06,150.872L329.342,149.826L327.938,148.78L327.197,146.579L328.49,143.742L330.668,142.911L331.332,142.253L331.099,141.174ZM368.819,139.879L369.416,141.336L367.968,141.757L367.526,140.721ZM341.768,139.458L343.459,140.019L342.984,140.969L343.415,142.253L344.708,144.465L342.895,144.281L342.32,144.702L340.618,144.821L340.773,143.817L339.523,142.641L339.347,141.336L341.182,141.908L341.933,140.667L341.005,140.16ZM278.743,133.901L280.324,134.656L282.325,134.095L282.502,135.552L281.374,137.225L280.744,136.998L279.119,137.505L278.71,138.261L278.997,140.246L276.244,140.893L276.266,142.253L274.973,142.512L272.795,143.483L272.364,144.853L271.745,144.842L271.767,142.264L272.265,142.911L273.503,142.663L274.509,140.494L274,139.372L272.884,138.638L274.553,136.869L275.581,134.818L277.007,135.196L278.113,134.894ZM280.711,131.732L281.595,132.325L282.104,133.437L280.788,133.318ZM296.254,132.261L297.227,132.531L298.144,132.066L296.718,134.031L297.426,135.099L297.006,135.671L295.911,134.926L294.474,136.005L294.087,138.973L293.435,139.07L291.876,141.217L291.854,142.792L290.317,142.911L289.345,144.626L288.958,146.514L287.93,145.662L286.205,143.073L287.93,142.188L288.703,140.699L287.731,138.574L286.99,138.412L287.521,136.955L286.448,135.52L287.498,134.786L289.499,134.02L290.185,133.254L292.462,134.074L293.347,132.531L295.148,131.764ZM326.136,121.91L327.02,123.291L328.579,123.939L327.462,125.267L327.175,126.346L325.87,127.102L324.82,126.897L324.422,128.418L324.875,129.714L324.146,130.566L324.223,132.261L325.307,134.635L325.937,135.315L325.561,135.897L325.97,137.818L325.583,138.714L322.83,138.811L321.028,139.415L320.553,141.044L321.316,142.825L322.189,142.35L324.223,142.08L325.13,146.007L325.627,146.547L324.654,147.496L324.787,148.262L322.72,148.327L321.625,149.589L319.226,148.402L317.612,148.435L316.043,147.982L314.583,148.424L313.411,149.492L313.113,150.549L311.455,151.099L311.211,153.839L310.106,154.346L306.502,150.355L307.143,148.855L306.778,147.884L305.076,145.867L302.025,143.321L302.5,142.587L305.607,142.684L306.823,141.498L306.613,140.624L308.138,139.944L309.089,138.53L311.068,137.063L312.151,135.714L312.229,134.095L311.587,133.588L312.848,132.304L315.302,133.21L317.756,132.887L319.414,130.912L319.348,129.563L320.763,129.573L321.692,128.375L321.614,127.199L322.554,126.616L324.212,126.378L326.08,124.986L325.561,122.104ZM416.864,356.525L415.007,356.16L414.499,355.592L412.52,355.206L411.027,355.356L409.723,356.182L409.27,356.064L408.485,355.892L408.319,355.978L407.622,356.171L407.313,356.225L406.661,356.139L406.34,355.999L404.052,355.645L403.3,354.712L401.122,353.736L400.58,353.489L398.005,352.728L397.374,352.91L395.108,354.83L393.196,354.841L392.753,354.069L391.692,354.669L391.571,354.659L391.349,354.97L391.338,355.184L390.752,355.613L388.663,355.41L388.331,355.56L388.309,355.635L388.376,355.86L388.431,356.096L388.508,356.836L388.243,357.372L386.529,359.046L385.081,358.284L383.567,360.579L383.677,361.384L383.677,361.738L383.965,363.604L385.678,364.086L386.043,364.816L386.187,364.816L388.895,365.77L389.105,365.91L390.067,366.671L390.366,366.832L390.565,368.108L390.675,368.301L390.974,370.156L390.841,370.531L389.813,371.721L389.415,373.941L389.592,374.359L390.111,375.935L389.956,376.728L391.571,377.179L392.035,377.8L393.14,377.865L393.207,377.961L393.151,378.186L393.129,378.39L392.853,378.69L392.875,378.915L393.118,379.826L392.433,380.373L392.256,380.502L392.643,380.63L392.72,380.727L392.809,382.013L392.731,382.195L392.554,382.367L392.51,382.495L392.499,382.592L392.355,382.688L392.333,382.731L392.4,383.106L392.466,383.203L392.61,383.546L393.174,384.06L393.151,384.468L393.251,384.832L393.262,385.057L393.295,385.111L393.406,385.282L393.472,385.443L393.737,385.915L393.682,386.161L394.732,387.008L395.042,387.19L395.451,387.201L395.484,387.329L395.771,387.254L395.882,387.179L397.728,387.544L398.834,387.115L399.663,387.415L399.961,387.201L400.459,387.19L400.58,387.437L401.089,389.827L400.591,390.962L400.348,391.123L399.972,391.413L401.222,394.327L401.244,394.638L401.233,394.852L401.211,395.174L401.177,395.549L401.752,397.188L401.951,397.413L402.172,397.745L402.183,397.992L402.128,398.335L402.161,398.42L402.393,399.878L402.891,400.306L404.77,400.092L405.146,400.263L406.307,400.756L406.517,400.853L406.705,401.045L406.882,401.431L409.336,402.481L410.917,402.556L412.221,404.216L413.172,404.624L413.603,405.845L413.769,405.973L414.211,406.348L414.466,406.745L414.863,408.084L415.737,409.048L415.814,409.219L416.92,410.697L417.705,412.914L417.738,413.032L417.351,414.178L417.428,414.574L417.926,415.902L417.351,417.401L417.262,417.562L416.323,418.708L416.92,420.336L416.168,422.863L415.328,423.837L414.532,423.997L414.112,424.126L411.326,426.096L408.098,426.91L407.81,427.049L406.76,427.445L406.705,427.595L403.466,430.143L402.382,431.363L402.084,431.674L401.973,431.695L401.819,431.695L401.774,431.716L401.62,432.027L400.171,432.198L399.221,432.958L398.988,433.29L398.889,433.376L398.778,433.536L395.716,434.296L395.473,434.328L394.799,434.114L394.666,433.847L394.191,433.632L392.698,435.345L391.692,435.934L391.526,436.019L389.691,436.694L389.581,436.63L388.619,436.159L388.453,436.169L388.309,436.169L387.613,436.041L387.115,436.041L386.961,436.126L386.308,437.315L384.683,437.561L382.528,438.631L381.267,439.562L379.62,440.129L378.227,440.226L377.973,440.6L377.055,442.024L377.044,442.238L376.635,442.698L376.668,444.292L376.657,444.795L376.514,445.127L376.281,445.309L376.138,445.448L375.928,445.801L375.187,446.818L374.999,447.192L374.59,447.513L374.336,447.61L373.695,448.466L373.639,448.637L373.23,449.514L373.153,449.76L373.352,451.333L373.274,451.633L371.915,453.248L371.826,453.537L371.097,454.125L371.296,455.42L371.572,455.762L372.147,457.228L372.036,459.624L370.787,460.544L370.776,462.908L371.152,463.175L371.749,466.811L371.882,467.4L372.058,467.699L372.158,467.849L372.313,469.218L371.251,469.325L369.671,470.298L368.786,469.891L366.641,470.971L363.745,470.918L362.606,470.266L362.319,470.394L360.716,471.281L360.484,471.271L359.953,471.142L359.157,473.463L359.5,475.035L360.406,476.05L359.246,476.745L358.638,478.488L358.737,478.798L358.416,479.686L358.118,479.792L356.725,481.727L356.471,482.925L356.04,483.31L355.631,484.314L354.669,485.191L352.325,486.046L352.27,486.687L352.314,486.965L351.761,488.269L351.684,488.59L350.545,489.915L350.623,490.065L350.136,490.279L349.738,490.386L349.385,491.251L349.241,491.615L347.914,492.694L346.068,493.656L345.825,493.806L345.582,494.062L344.399,495.483L344.266,495.612L343.78,497.076L344.078,498.166L341.801,499.117L341.502,499.234L340.474,498.828L340.308,498.636L339.844,497.909L339.745,497.77L339.192,496.744L338.982,496.274L338.595,495.633L338.418,495.366L336.837,493.677L336.528,493.517L335.997,492.609L335.013,492.577L332.028,491.016L330.934,488.472L330.735,488.259L329.375,486.794L327.905,485.661L327.672,485.608L326.655,483.812L325.738,483.245L324.5,483.31L324.091,483.256L323.505,482.647L323.383,482.337L322.145,480.829L322.289,479.867L323.062,479.172L323.14,478.242L322.974,478.039L322.653,477.59L321.935,477.729L319.138,478.552L316.805,479.824L316.927,482.016L316.861,482.358L316.861,482.454L316.838,482.69L316.341,483.598L316.087,483.812L315.667,484.154L315.18,484.753L316.23,486.57L316.319,486.655L316.761,487.564L318.707,488.985L319.282,490.268L319.403,490.503L319.514,490.963L319.547,491.187L321.382,493.282L320.763,495.676L320.73,495.9L320.431,497.802L320.188,498.134L319.923,499.437L320.498,500.484L321.769,500.634L322.808,500.217L322.941,500.324L323.328,500.677L323.582,502.514L325.694,504.779L326.302,507.173L326.268,507.322L328.446,509.224L328.667,509.469L329.065,509.79L332.492,510.388L333.156,512.492L333.211,512.845L333.178,513.155L333.189,513.582L334.294,516.508L334.67,518.591L334.692,518.997L334.792,520.449L333.62,522.51L334.25,523.525L334.217,523.706L334.051,524.208L334.217,524.881L334.294,525.223L334.615,526.408L334.56,526.621L334.35,526.984L333.83,528.116L333.642,528.501L332.072,529.728L330.425,532.355L330.525,532.643L331.553,533.134L333.443,536.006L333.885,536.251L335.477,537.521L335.765,537.895L336.041,538.45L337.301,540.393L337.633,540.553L337.887,544.203L337.445,546.049L336.715,547.298L336.992,547.309L336.848,549.71L337.909,551.385L337.279,552.303L337.898,552.623L338.086,552.687L339.756,554.97L340.154,556.602L340.264,556.794L340.629,557.957L340.209,558.288L339.833,558.48L339.512,558.651L339.313,558.779L338.893,559.099L339.446,560.219L339.667,560.71L339.988,563.878L339.932,564.059L340.828,564.166L340.905,564.347L340.883,564.561L340.927,564.849L341.016,565.073L341.071,565.371L340.95,566.886L342.243,567.046L342.166,568.507L341.867,568.976L340.574,570.32L340.662,572.347L338.993,571.589L338.86,571.76L339.612,572.421L339.38,573.338L339.402,573.52L339.435,573.861L339.302,573.914L339.192,574.01L339.358,576.25L339.49,576.335L339.966,578.084L339.568,579.246L338.164,580.248L338.009,580.483L337.677,580.93L337.5,580.93L336.826,580.312L335.157,581.165L334.062,580.941L333.941,581.08L332.769,581.165L332.603,581.186L331.475,581.09L330.779,582.082L329.784,581.783L329.485,581.741L328.645,582.711L328.877,583.276L329.065,583.639L329.121,583.809L329.607,584.673L329.651,584.865L329.917,585.408L329.961,585.611L329.817,586.357L329.762,586.698L329.651,587.093L329.651,588.425L328.291,587.412L327.529,587.732L326.711,587.189L320.874,588.937L319.912,588.915L318.607,590.077L318.066,589.758L316.54,590.834L315.114,590.76L314.981,591.356L312.759,592.55L312.229,592.113L311.234,593.03L309.575,593.616L308.713,593.35L308.47,591.879L309.697,589.949L308.116,588.564L307.044,589.001L306.491,587.189L305.021,585.899L304.855,584.577L305.43,583.884L304.943,582.818L306.27,582.487L306.878,581.634L308.757,580.749L309.874,581.069L311.057,579.694L310.393,578.883L309.62,579.992L307.497,579.651L305.684,581.101L303.639,581.09L302.533,580.376L302.71,581.389L301.914,582.508L300.753,581.229L300.952,580.109L300.378,579.246L299.902,579.715L297.945,578.83L296.453,579.768L296.32,580.472L295.071,579.512L294.098,579.256L294.131,580.451L293.181,580.014L293.081,579.224L292.119,579.331L291.412,580.077L291.987,581.133L292.142,582.69L293.634,582.466L294.253,583.436L295.325,583.436L295.27,584.15L296.619,583.926L296.575,584.918L297.769,584.204L298.686,586.592L296.763,586.027L296.398,586.581L295.812,585.696L293.258,584.715L291.987,585.216L291.102,584.96L289.588,583.82L288.527,583.99L288.858,583.084L287.963,582.231L287.178,582.391L287.764,579.139L286.382,578.425L285.243,578.585L285.243,579.63L284.646,579.203L283.718,579.992L283.22,579.672L283.253,578.339L280.246,578.499L278.632,577.913L277.925,578.702L276.001,579.171L275.835,580.856L276.123,581.602L277.074,581.4L278.168,582.285L279.66,581.506L280.346,581.869L280.003,582.583L280.534,583.457L281.849,583.852L283.585,585.387L282.214,585.6L280.025,585.472L278.267,587.487L276.543,588.105L273.271,590.887L274.553,592.774L275.437,592.923L278.522,592.135L279.163,590.983L279.937,591.314L281.518,590.738L284.06,590.418L283.496,593.307L281.938,593.382L281.12,594.096L281.086,594.959L282.148,595.439L280.445,596.664L279.727,597.741L278.721,597.901L276.676,597.602L275.736,596.973L274.022,596.771L272.795,597.741L271.645,597.677L271.115,598.327L271.469,599.531L271.049,600L270.452,598.178L269.059,597.208L267.71,596.973L266.085,597.197L264.592,595.673L265.797,595.396L266.339,594.725L265.355,592.668L266.206,591.527L266.35,589.779L264.692,589.001L264.095,586.911L264.449,585.835L263.796,584.182L261.906,583.447L261.011,583.788L260.215,582.956L261.055,581.432L262.028,581.09L262.227,582.359L264.04,582.178L264.692,582.498L266.317,581.229L266.251,583.041L267.743,582.914L268.428,582.38L269.423,580.397L269.766,581.389L270.761,581.41L270.971,582.157L272.198,581.687L272.795,580.696L272.265,578.787L274.221,578.531L274.398,576.687L275.294,576.004L275.084,575.13L272.618,574.341L270.816,574.031L269.733,573.146L267.743,573.018L268.196,571.803L267.511,570.352L266.56,569.787L264.194,570.032L263.597,569.68L265.676,568.71L266.206,568.07L266.737,568.667L267.312,568.166L268.417,568.88L269.777,567.451L268.771,565.371L270.109,564.891L273.326,561.873L274.199,562.854L273.26,562.545L272.143,563.345L272.364,564.358L273.116,563.537L274.641,564.166L276.134,565.243L275.968,565.681L274.597,565.393L274.531,566.011L272.928,566.353L273.492,567.771L274.365,567.558L275.869,568.4L273.757,568.71L274.874,569.734L273.613,570.875L271.712,571.269L272.607,572.112L274.155,571.504L274.962,572.08L276.421,572.091L276.167,570.949L277.074,570.118L277.56,570.598L279.694,570.928L280.147,573.285L281.164,573.029L282.026,571.717L283.032,571.899L282.656,573.05L284.193,573.701L284.237,572.73L285.287,571.216L287.587,571.888L289.168,572.72L290.118,573.68L291.246,574.042L292.031,574.991L293.037,574.746L293.468,573.552L292.595,572.912L292.506,572.133L290.395,571.397L289.311,569.371L288.283,568.39L287.432,568.784L287.576,570.107L285.862,567.857L284.779,568.656L282.701,568.464L283.242,567.11L283.087,566.246L281.772,566.726L282.148,567.633L279.34,566.982L279.66,566.011L278.533,566.705L277.648,563.857L276.289,562.79L274.498,559.312L275.559,558.544L275.205,556.923L275.415,555.898L276.499,555.408L276.454,554.618L275.084,553.039L272.762,551.268L273.105,550.083L272.497,548.867L271.17,549.774L270.639,552.335L269.136,552.303L268.826,550.83L268.705,546.487L267.798,545.11L267.621,543.936L268.395,542.73L269.258,538.77L269.014,536.977L268.064,535.792L267.323,535.675L266.737,536.977L266.096,536.337L265.311,536.966L265.223,538.664L264.172,539.005L263.907,539.88L263.1,539.357L263.222,537.468L263.807,536.966L263.885,535.76L262.171,535.557L259.408,537.191L258.788,535.856L257.771,536.507L256.356,536.315L256.168,539.24L256.666,539.763L257.76,539.432L258.446,540.179L258.07,541.385L257.285,541.748L256.633,539.987L254.72,538.696L253.869,538.973L253.46,538.194L254.223,536.892L252.233,534.799L250.298,534.906L250.044,536.539L249.314,537.233L249.392,536.241L248.806,535.621L249.104,534.276L247.579,533.23L246.539,533.476L245.113,532.024L244.461,532.152L243.787,533.358L242.947,532.675L241.366,533.369L241.2,534.18L241.742,535.29L241.333,536.294L242.173,537.212L241.753,539.614L243.013,540.201L240.89,540.66L240.128,542.175L241.697,544.16L242.836,544.918L242.239,545.409L241.255,545.185L240.382,544.331L239.166,544.833L238.348,545.825L238.569,546.892L237.906,546.85L237.143,548.184L237.309,551.022L236.446,549.966L236.457,548.269L233.671,547.97L232.721,548.92L231.107,547.533L231.04,546.668L232.643,545.985L233.384,545.27L235.86,545.857L236.535,544.982L237.264,545.057L238.171,542.613L238.104,541.3L237.087,540.553L237.806,539.016L239.033,540.211L239.895,539.283L240.437,536.561L239.94,534.853L238.48,534.703L237.684,532.355L239.464,531.778L240.592,530.871L241.067,529.878L240.636,529.141L240.802,528.02L240.172,527.166L241.41,527.273L241.896,526.515L243.466,525.981L244.306,526.13L243.223,528.148L243.654,530.038L245.688,529.921L245.622,529.13L247.557,528.105L248.485,528.949L248.308,530.07L248.938,530.241L248.021,531.383L248.032,532.077L250.353,532.889L250.243,534.095L251.094,533.433L253.736,532.856L254.333,532.408L253.946,530.945L254.477,529.237L255.461,528.885L255.549,530.166L256.179,530.796L255.505,531.789L256.014,533.145L258.811,532.547L259.054,531.853L260.789,530.081L261.829,530.059L261.773,530.753L263.321,530.55L264.393,531.127L266.195,529.301L267.047,529.12L266.726,530.273L267.157,532.889L268.672,532.504L268.064,531.223L268.473,529.408L269.81,529.365L270.352,528.65L268.627,528.052L267.058,525.981L267.776,525.767L269.379,524.368L269.059,523.963L267.19,524.315L266.626,523.493L266.328,520.812L265.764,521.496L264.614,521.763L265.377,523.439L264.482,524.422L265.289,525.596L264.449,526.974L263.973,526.408L263.642,524.432L261.972,524.208L261.619,524.998L260.579,524.368L263.542,522.959L263.686,521.026L262.514,520.011L261.342,520.641L260.491,520.118L261.453,519.082L261.608,518.046L261.044,517.171L261.961,517.341L262.116,518.335L263.045,518.58L264.869,517.224L266.649,516.626L267.588,515.301L267.036,514.714L265.09,515.398L263.929,514.479L264.36,513.09L265.211,512.77L265.521,511.809L264.946,510.858L262.636,509.427L262.636,506.649L261.519,506.414L260.845,505.068L259.905,504.544L259.186,505.121L258.39,504.512L256.301,504.982L255.395,504.598L255.361,503.818L257.55,504.427L258.236,503.85L259.85,503.561L260.911,502.76L262.591,503.209L263.31,502.835L263.564,504.576L264.758,505.314L263.111,506.809L263.796,507.952L264.349,506.211L265.311,505.196L266.494,505.495L267.29,505.079L267.456,505.848L268.34,505.506L268.473,503.711L270.164,503.893L270.452,505.079L271.281,505.634L272.453,504.758L273.989,505.549L274.21,502.632L275.294,501.574L273.525,501.895L273.348,500.548L274.531,499.149L274.354,498.39L273.127,498.08L272.408,498.839L272.043,498.101L269.567,498.572L268.65,497.813L267.931,497.888L267.102,496.659L266.018,496.766L266.361,498.572L266.052,499.32L264.802,498.999L263.962,496.584L262.602,496.744L261.917,497.877L260.668,497.407L260.192,498.262L259.397,497.065L257.771,496.146L257.462,497.15L258.258,497.802L258.346,499.426L257.152,500.719L255.726,499.256L254.543,499.074L253.173,497.973L253.946,497.353L254.4,494.34L253.991,493.538L251.514,492.288L250.199,491.935L247.634,490.685L248.065,489.37L249.602,489.787L249.712,491.187L250.497,491.283L250.785,489.392L250.564,486.773L251.282,486.474L251.315,485.533L249.933,484.678L251.835,484.411L253.968,485.33L255.041,484.197L255.671,483.94L256.312,482.401L256.489,483.641L257.738,483.406L259.131,485.33L261.508,484.293L261.685,483.609L259.717,482.358L259.209,480.605L256.765,478.702L255.439,478.21L255.782,477.601L255.372,476.467L255.77,474.917L255.295,474.65L253.305,476.949L253.394,477.558L252.343,477.9L252.609,476.81L251.879,475.986L252.465,474.521L251.194,472.501L249.591,471.42L249.768,470.362L248.839,469.613L247.601,469.389L246.727,468.052L245.854,468.095L243.942,470.03L242.328,469.549L239.873,469.453L239.962,471.656L241.178,471.26L241.963,471.773L241.056,473.238L242.328,473.506L243.51,472.939L245.379,473.228L244.76,474.211L244.074,475.772L244.284,476.446L241.288,476.179L239.951,477.034L239.066,478.199L237.11,477.098L237.563,476.489L238.226,473.805L237.065,472.618L235.473,472.885L235.042,471.699L236.424,471.11L236.214,469.603L237.751,469.025L238.226,469.431L239.298,468.929L242.847,468.918L244.107,468.426L245.677,466.843L246.031,465.4L246.506,465.592L246.694,466.95L248.397,467.924L249.657,468.159L250.729,467.56L251.68,469.207L252.808,469.004L252.863,469.934L254.455,470.009L254.278,471.121L255.406,471.41L255.627,470.886L256.898,470.629L256.821,469.496L257.716,469.367L258.368,467.699L259.529,467.132L260.69,468.159L258.722,469.089L258.114,470.127L258.733,471.014L259.584,470.661L260.204,471.292L258.833,472.244L259.076,473.014L260.016,473.302L259.231,473.933L258.379,473.666L258.601,475.206L259.153,475.633L259.651,477.141L259.109,477.312L260.281,479.472L261.873,479.29L262.072,481.278L262.768,480.53L263.62,480.733L263.608,481.653L265.731,479.889L265.709,478.627L266.461,478.306L266.958,479.087L268.141,477.708L268.406,479.824L267.776,481.236L266.814,481.749L267.279,482.166L269.059,481.909L267.378,483.588L266.107,484.047L266.151,484.539L267.61,485.736L269.324,485.544L268.683,486.025L269.313,486.816L271.104,486.238L271.049,483.93L271.679,485.137L272.353,484.047L273.271,483.684L272.552,482.829L272.53,481.802L273.204,480.979L272.198,479.985L272.585,478.894L273.823,478.627L274.387,479.162L273.779,479.889L275.272,479.76L275.957,480.316L275.227,481.567L275.88,482.219L275.371,483.224L274.376,483.652L274.741,484.4L276.123,484.528L277.261,483.363L278.356,483.555L278.676,484.357L279.583,483.406L277.759,481.909L277.505,480.434L277.792,479.311L277.295,478.991L278.068,477.847L277.14,476.061L275.891,476.97L276.012,475.527L277.217,475.195L277.394,474.286L276.698,474.008L274.332,475.719L271.657,474.586L270.098,472.426L271.148,471.474L270.595,472.725L271.8,473.548L272.11,473.067L274.409,473.741L274.807,474.361L276.355,472.693L275.902,471.11L274.055,470.661L274.277,469.806L275.36,470.576L275.846,470.244L275.526,469.079L276.355,469.431L277.483,468.811L278.422,465.795L279.329,466.191L280.335,465.196L280.666,466.138L282.28,465.4L283.972,465.774L285.376,465.656L285.752,464.266L287.576,464.704L289.908,465.817L290.152,465.335L288.936,464.694L289.079,463.186L288.062,462.031L288.35,460.223L289.555,460.394L290.859,462.426L291.058,462.031L292.551,462.384L293.258,463.581L294.817,463.1L294.773,462.234L293.667,462.234L292.993,461.047L292.307,460.95L293.38,460.105L292.396,460.02L292.551,458.822L293.745,459.057L293.557,458.233L292.761,458.223L293.037,456.286L292.042,456.372L291.887,457.378L290.715,457.666L289.732,457.142L289.809,456.468L288.106,456.746L287.123,455.013L286.393,454.66L286.105,452.842L285.199,452.264L282.468,452.499L281.396,450.52L282.689,449.129L286.117,448.391L287.41,447.866L288.858,446.647L289.51,445.33L288.969,444.517L289.544,442.238L289.322,441.221L288.14,441.499L287.631,440.889L288.095,442.923L287.543,443.597L284.934,444.645L283.751,444.624L282.092,445.502L280.633,444.881L280.91,443.982L278.931,443.854L279.771,446.133L277.637,446.507L276.653,446.304L275.471,445.084L276.023,444.324L275.714,443.008L274.619,441.842L272.055,441.435L271.093,442.366L270.33,442.173L269.799,440.322L268.484,439.84L267.434,440.054L267.024,441.285L266.483,440.493L265.643,441.97L267.411,443.607L267.633,442.89L268.594,443.479L267.445,444.656L266.074,444.752L265.278,445.833L265.433,447.61L264.99,448.284L262.901,447.834L263.498,447.353L263.807,445.79L264.57,445.491L265.444,442.58L264.659,441.745L264.891,440.194L266.704,439.091L267.146,436.983L267.887,437.464L268.517,436.704L267.776,435.003L268.075,433.558L270.098,432.562L270.341,431.427L271.878,430.935L272.265,430.335L274.453,429.629L274.929,428.387L275.382,429.126L276.278,428.633L276.278,427.038L277.173,426.524L278.676,427.263L280.976,426.621L281.297,427.113L282.8,427.359L284.304,426.321L284.337,425.047L283.585,424.501L283.695,423.601L282.247,422.381L281.385,422.691L278.688,421.106L276.963,422.381L276.056,421.845L275.305,423.548L274.619,423.312L273.658,424.051L272.828,422.916L273.16,422.038L272.353,420.518L272.773,419.747L271.579,418.301L270.286,419.254L270.617,419.8L269.556,420.153L270.905,422.199L267.721,420.807L267.4,421.481L268.561,422.648L267.688,422.595L267.223,421.845L265.145,421.267L263.675,421.406L263.332,420.871L261.917,421.931L261.784,422.798L263.542,423.451L261.773,423.676L260.336,424.79L259.319,424.64L257.981,425.261L254.753,424.758L253.383,423.901L253.139,424.351L250.984,422.402L250.674,420.742L249.79,420.614L247.546,423.398L248.242,424.34L246.882,425.582L246.915,427.327L244.627,427.563L243.654,426.449L242.648,426.053L241.498,426.449L238.558,424.875L238.823,424.308L238.547,422.541L236.314,420.849L235.507,420.817L234.456,421.77L233.395,420.582L231.284,420.079L229.681,420.625L229.117,421.535L228.21,421.192L227.657,418.494L228.254,418.344L228.575,416.952L229.636,416.523L229.824,414.895L230.554,413.021L233.196,412.582L233.285,410.804L233.848,411.275L233.594,412.464L234.069,413.182L235.871,412.197L235.717,410.836L236.269,410.012L235.849,409.048L236.645,408.983L237.143,410.022L238.48,409.605L238.912,408.983L240.968,409.24L241.2,410.022L242.626,410.729L242.77,409.133L241.907,406.445L243.135,406.477L245.567,405.995L245.732,404.174L244.34,402.727L243.754,402.706L241.355,403.659L240.868,403.434L242.438,401.71L243.168,399.203L242.958,398.153L244.483,395.42L245.954,396.063L245.578,393.727L244.03,394.22L243.4,393.138L242.46,393.341L242.416,395.024L241.355,396.342L239.619,397.338L240.713,397.853L239.929,398.924L238.315,398.903L236.689,399.738L235.142,401.356L233.439,402.61L232.975,402.213L234.854,400.585L234.788,398.474L233.981,398.335L234.291,397.188L233.296,396.481L232.942,394.317L232.267,393.438L231.129,392.966L231.306,391.841L233.76,389.73L234.799,389.827L237.452,387.726L237.364,386.654L235.827,385.797L234.932,384.5L236.513,383.407L236.524,380.855L235.23,380.663L235.252,379.708L233.671,378.958L232.035,379.666L234.589,377.168L234.611,376.546L237.076,373.973L238.348,373.705L239.144,375.678L240.713,376.042L241.067,375.624L240.603,373.791L240.128,373.415L241.664,370.864L243.035,369.834L244.45,368.204L244.107,367.593L241.93,368.172L241.255,367.625L240.061,368.365L238.303,368.43L237.673,369.137L235.927,368.751L235.606,369.159L234.622,368.44L232.975,368.687L235.009,367.507L235.672,367.883L236.701,367.121L237.695,367.904L238.425,366.757L238.878,367.55L239.741,366.156L240.183,366.95L240.946,366.317L241.554,366.671L242.162,365.813L241.708,364.998L242.571,364.355L243.146,364.816L243.919,363.979L244.903,363.969L244.328,362.982L244.925,362.435L244.583,361.663L245.909,360.183L246.119,359.475L243.754,360.805L242.383,361.18L241.609,361.899L239.508,361.116L237.994,361.802L236.656,361.824L234.279,361.159L234.18,360.408L235.131,358.649L234.832,358.166L235.816,357.018L237.408,358.306L238.679,358.509L239.188,357.769L239.365,356.021L237.353,355.195L237.618,353.725L236.678,354.798L235.252,353.672L234.147,354.766L232.942,354.423L232.046,355.635L232.091,356.364L231.195,356.901L231.748,357.523L230.709,360.14L230.897,361.255L229.161,360.708L229.205,358.477L229.526,357.877L228.277,356.182L228.509,355.367L227.049,354.187L226.994,353.532L225.889,352.395L224.96,352.417L223.589,351.397L222.893,351.43L221.279,349.82L222.229,349.016L221.301,348.844L217.995,350.046L220.35,351.58L220.704,352.814L222.318,354.744L220.781,355.506L216.37,354.38L215.342,355.613L214.104,355.013L212.921,354.98L211.561,355.678L210.975,357.008L211.407,358.585L210.401,359.882L209.936,361.738L209.262,362.21L209.129,364.462L208.112,360.665L207.195,359.968L207.106,358.563L205.713,357.319L205.47,355.367L204.177,354.594L202.994,354.648L201.888,355.796L201.324,358.885L200.053,358.67L198.992,359.089L198.218,360.043L198.572,360.504L198.207,362.231L196.847,363.336L197.024,364.869L196.162,366.414L194.514,366.36L192.127,366.725L190.579,368.269L187.804,368.623L186.864,369.148L187.218,370.038L184.985,370.789L183.714,372.708L182.796,373.029L181.458,374.23L180.707,375.592L176.108,375.635L174.483,376.106L174.383,376.632L173.101,376.707L171.476,378.122L168.701,379.505L168.347,380.212L165.473,380.727L163.969,380.609L161.548,381.241L160.62,382.474L158.807,383.685L158.519,384.457L156.972,386.033L156.154,386.429L155.49,387.758L154.352,388.155L153.279,389.141L152.152,389.569L150.858,391.113L150.46,394.852L150.46,397.617L148.912,396.781L147.796,396.899L145.85,398.57L144.247,399.138L142.456,401.967L140.842,401.195L136.84,401.624L133.203,402.781L132.684,402.481L132.463,399.342L133.579,397.617L135.934,398.163L136.641,399.031L136.995,398.153L138.067,398.185L137.349,396.867L136.332,396.835L136.166,395.313L137.448,394.338L138.83,394.831L139.184,394.488L138.841,392.699L139.272,391.509L138.532,390.427L136.829,390.33L135.768,391.016L129.721,391.884L127.83,393.845L126.106,395.035L125.277,394.617L123.607,394.97L123.375,396.127L122.59,397.274L120.623,396.524L119.396,397.424L119.407,398.228L117.704,398.753L116.941,399.995L114.951,400.263L114.388,400.949L113.293,400.981L113.459,402.32L114.587,403.381L114.598,404.591L113.99,404.409L112.221,405.234L110.474,406.884L108.484,407.751L107.268,409.123L106.251,409.101L104.936,410.504L103.587,410.001L102.492,410.215L101.619,410.997L101.144,410.44L102.769,409.508L102.758,408.823L105.123,408.383L106.251,407.484L107.611,404.259L109.557,402.92L110.496,400.381L112.276,400.178L115.084,397.167L116.621,396.267L118.964,394.295L119.65,394.295L120.954,393.224L121.595,393.202L124.547,391.38L124.304,390.395L125.962,388.412L126.073,387.619L128.638,385.904L129.279,386.365L130.451,385.465L131.313,384.243L132.639,384.275L133.844,383.117L134.519,383.042L135.934,381.263L135.978,380.255L137.039,380.137L137.813,378.808L138.698,379.13L139.051,378.036L140.102,377.736L140.875,379.29L141.826,379.515L142.257,381.295L141.638,381.692L141.716,383.728L142.998,384.189L143.153,384.971L144.314,385.314L144.081,384.403L145.01,383.289L144.712,381.263L145.297,380.094L145.087,378.197L145.574,377.468L147.221,378.197L148.835,379.676L149.598,382.238L150.56,382.388L151.035,383.482L151.986,383.16L153.257,381.809L155.103,381.756L155.601,381.295L155.545,379.848L156.684,378.626L154.893,376.321L153.788,375.431L153.069,375.42L152.196,374.273L148.968,372.643L149.145,371.636L151.953,370.338L152.218,369.427L152.671,370.499L154.705,373.576L155.634,373.801L156.33,374.713L158.232,375.227L159.227,374.305L158.707,372.365L159.083,371.475L157.524,367.647L158.177,366.553L159.824,366.617L160.576,365.641L161.36,365.834L162.477,367.111L164.168,367.604L165.197,368.462L166.379,368.011L166.733,367.25L165.583,365.62L165.97,363.336L167.584,362.596L168.878,364.644L170.481,365.888L171.21,366.939L173.256,367.314L173.753,366.253L176.274,367.529L176.937,367.057L176.76,365.298L176.019,364.44L176.981,362.66L176.705,361.341L177.866,361.084L178.96,359.957L180.43,360.912L181.624,360.901L181.58,359.185L182.487,358.509L184.012,358.638L185.107,360.89L184.012,360.794L182.918,361.513L184.056,362.424L185.582,362.006L186.588,363.003L186.699,364.515L188.788,365.18L189.672,364.065L189.075,363.754L190.634,362.253L190.347,360.944L190.877,357.898L190.645,357.254L188.39,355.528L190.745,354.862L191.695,355.302L192.425,353.961L193.276,353.5L194.492,355.281L195.918,354.498L196.129,352.535L196.924,352.009L197.521,353.103L199.257,351.805L199.213,350.807L200.119,350.807L201.722,349.177L203.657,349.22L204.818,349.81L205.625,349.273L205.968,347.063L209.804,346.709L210.765,345.422L210.776,344.273L212.755,344.585L213.065,343.426L215.276,342.127L217.233,342.75L218.029,342.127L218.139,340.84L219.808,340.432L220.682,339.702L221.975,339.466L223.114,337.448L223.744,336.901L224.838,337.105L226.032,336.139L226.862,336.064L228.31,334.626L229.316,334.615L230.443,333.907L231.239,332.522L232.665,331.857L233.362,330.762L233.893,331.803L235.02,331.749L235.507,331.052L235.363,329.925L236.479,329.506L237.021,328.4L239.652,327.101L239.42,325.77L240.072,326.511L241.045,326.468L243.123,324.847L244.638,324.965L247.335,322.829L248.242,320.488L249.801,318.716L250.442,318.673L250.984,317.116L250.453,316.805L250.486,314.679L251.824,313.218L253.714,312.445L253.626,311.189L254.798,310.394L256.124,308.224L258.501,306.184L259.253,304.798L258.965,303.23L260.723,302.155L261.033,301.092L262.182,300.748L263.255,299.502L264.15,299.395L265.278,298.105L265.388,296.279L266.306,295.71L266.615,293.947L267.279,292.937L267.809,294.238L269.39,294.409L271.645,292.927L271.413,292.475L277.151,288.166L278.08,289.402L279.771,288.757L282.634,286.726L285.685,284.867L287.189,284.523L291.069,283.115L294.408,281.632L298.321,280.267L299.924,279.944L302.555,278.354L303.65,278.719L304.755,278.289L306.801,276.483L310.051,274.462L312.251,272.753L313.323,271.56L314.141,270.011L316.341,268.108L319.326,267.162L320.387,265.775L321.526,265.076L321.382,264.538L322.587,263.893L323.051,262.861L326.335,261.753L328.988,259.269L330.9,257.053L332.161,254.289L332.393,252.439L333.134,250.621L334.759,247.663L336.351,245.371L337.003,243.843L337.246,241.971L338.341,238.764L338.904,238.894L341.79,236.558L342.984,235.956L343.161,234.277L343.581,233.933L344.929,234.858L345.217,234.137L344.377,234.062L345.25,232.964L345.471,231.608L344.631,231.64L344.377,229.638L345.571,229.627L345.416,228.045L344.377,223.169L343.293,222.996L343.138,222.028L345.626,222.124L345.195,221.242L343.481,221.5L343.205,220.628L341.878,220.542L341.248,218.464L342.796,217.753L341.602,214.103L340.33,213.317L340.209,211.928L339.59,211.917L340.01,209.785L340.496,209.397L341.06,210.7L342.077,211.669L342.365,210.636L343.968,211.325L343.746,210.033L342.851,209.613L342.984,208.309L341.58,207.857L342.95,205.175L341.978,204.335L342.663,202.784L340.972,200.921L341.989,199.736L343.437,200.985L343.614,198.518L345.758,198.917L345.825,197.355L345.316,197.236L345.449,195.793L343.879,194.823L344.111,193.261L347.538,193.035L347.538,192.647L349.186,192.367L349.13,191.322L348.489,190.74L348.423,189.296L349.285,190.47L349.948,190.341L349.782,189.393L348.865,188.402L348.091,188.348L347.793,186.871L348.555,187.475L350.125,186.85L352.226,187.755L352.049,187.292L350.026,186.386L349.108,186.634L348.876,185.115L348.102,183.563L346.886,182.625L345.46,182.668L344.94,181.785L345.869,180.933L345.858,178.368L347.295,177.226L347.627,175.846L348.312,175.76L347.881,174.412L348.832,172.903L348.854,169.841L350.866,169.992L351.64,170.434L353.906,170.919L356.084,171.092L356.371,172.849L357.046,172.439L356.78,171.491L359.312,171.189L361.633,170.564L364.198,168.785L365.116,167.858L365.26,166.736L366.078,164.882L365.779,163.76L366.056,161.765L367.272,159.76L367.614,156.848L368.786,154.702L369.759,152.156L370.223,149.319L370.168,147.971L370.942,146.493L370.986,144.896L370.665,141.994L370.267,140.581L371.086,140.796L371.329,139.858L370.312,140.127L371.086,138.563L370.732,137.3L371.826,135.552L372.136,134.495L371.937,133.059L370.588,131.181L368.83,130.437L369.704,129.509L370.588,130.189L371.716,129.67L372.965,128.203L374.678,126.994L377.52,125.45L379.399,125.785L381.002,125.45L382.627,123.961L383.478,122.406L384.982,121.672L386.154,120.593L386.662,120.679L387.646,119.027L388.442,118.995L391.007,117.235L392.145,115.291L392.897,115.788L394.036,115.022L394.39,115.367L395.65,111.955L396.59,111.178L398.436,110.746L398.878,109.946L400.05,109.828L400.415,110.314L401.288,108.867L401.52,106.264L404.251,104.331L405.544,104.687L405.533,105.497L407.888,105.292L409.336,104.547L411.613,104.59L413.106,103.24L413.625,103.38L415.051,102.235L416.688,100.377L417.174,101.274L419.031,102.16L419.894,102.181L420.888,102.937L421.707,102.883L423.243,101.846L422.79,101.285L423.652,100.594L424.581,97.731L424.824,94.328L424.349,93.658L423.663,94.134L423.597,92.632L425.399,92.2L425.753,91.487L426.516,92.297L427.599,91.541L427.875,89.25L426.825,87.683L427.201,86.862L426.029,82.745L423.918,81.686L422.48,82.107L421.463,81.275L420.502,81.092L420.115,81.664L419.252,81.081L417.749,81.124L417.251,82.151L416.146,82.81L414.996,81.481L415.604,80.594L414.897,79.06L413.67,79.146L415.46,77.903L416.411,78.227L416.732,77.687L418.069,78.476L419.009,77.892L420.159,78.617L421.961,77.59L423.531,79.632L424.901,79.978L425.543,79.643L426.748,76.757L427.588,76.844L428.273,75.796L429.268,75.839L429.887,74.552L430.462,70.845L431.568,68.683L431.999,69.764L433.204,70.52L432.961,71.32L433.734,72.066L433.779,73.666L435.724,75.579L435.481,76.412L436.775,77.525L439.472,78.26L440.191,80.13L440.854,80.692L441.285,83.782L441.838,83.88L442.391,80.735L443.164,79.773L444.646,79.968L445.011,82.378L445.696,83.447L445.121,84.28L445.187,85.252L446.05,85.555L446.835,87.824L448.04,88.667L449.377,90.676L450.693,94.814L451.92,96.186L451.588,96.402L452.76,98.206L454.894,100.615L454.031,100.399L454.695,101.447L455.391,100.907L455.181,99.384L456.508,101.069L456.806,100.874L458.929,102.343L459.194,103.499L459.869,103.348L459.725,102.171L460.399,102.873L461.284,108.305L463.495,107.02L464.479,108.694L462.942,109.957L463.771,111.318L465.562,113.251L465.341,114.46L465.761,115.648L467.474,118.66L467.707,119.545L469.608,122.762L469.365,123.399L470.581,126.476L473.82,131.624L473.3,132.25L474.284,134.376L475.987,137.225L474.539,138.002L474.03,138.746L474.693,140.537L475.312,141.109L476.462,140.354L478.552,142.889L478.364,143.494L480.895,146.525L482.697,148.23L483.15,150.117L483.991,151.067L482.963,151.897L483.703,153.192L486.18,151.455L486.876,153.17L485.229,154.896L485.605,155.359L486.953,154.141L488.302,155.23L490.115,152.609L490.646,152.188L494.758,155.057L493.509,156.869L493.808,158.023L492.271,159.587L493.575,161.312L494.637,162.164L494.228,159.436L495.057,158.595L495.024,156.912L497.069,154.874L497.666,154.96L497.102,159.08L499.766,161.021L501.115,160.482L502.132,160.709L506.244,158.951L512.048,156.309L513.397,159.026L512.789,159.716L513.298,160.849L515.232,159.49L513.474,155.543L516.492,154.702L515.73,152.264L518.482,151.466L518.958,152.016L519.422,153.86L521.965,152.943L522.761,157.279L523.711,157.506L523.236,152.857L536.303,150.376L536.093,148.607L538.802,148.273L539.012,150.042L539.94,149.966L540.548,149.071L539.664,148.435L540.217,147.011L542.792,148.693L543.168,148.273L540.957,146.644L541.676,145.673L542.649,146.148L542.649,144.929L541.223,145.09L540.736,140.397L543.776,137.969L545.147,138.444L545.213,139.577L544.561,139.674L545.269,145.619L546.131,146.558L546.197,142.695L547.601,142.663L547.612,143.677L548.84,143.31L547.237,141.562L548.442,140.429L549.558,140.796L550.033,140.354L551.216,141.152L551.647,140.85L549.337,139.275L547.336,138.25L548.508,136.793L550.84,138.045L551.515,137.732L550.829,136.135L552.001,135.595L551.526,134.538L552.189,134.236L554.002,138.239L555.119,137.872L555.45,137.074L557.385,137.797L561.553,137.052L562.614,136.61L564.77,135.013L565.643,133.75L565.975,132.498L568.33,132.271L569.269,133.815L570.463,133.318L570.883,133.772L570.828,136.75L569.192,137.138L569.225,137.656L570.95,137.246L571.989,138.217L573.293,137.818L572.376,136.728L572.221,133.167L573.459,132.984L574.288,133.599L575.128,133.448L575.593,134.678L576.378,134.98L577.052,136.264L575.935,137.29L577.229,136.782L578.279,137.236L579.141,138.703L580.446,138.735L582.392,138.077L583.552,138.153L586.979,136.782L588.56,136.728L590.639,135.887L592.286,133.869L593.9,133.707L595.271,134.71L596.542,134.656L598.654,133.782L599.881,135.088L599.582,135.692L603.794,135.833L605.353,135.433L608.017,136.081L609.775,136.124L610.173,136.718L613.014,137.775L613.71,136.577L617.768,139.804L617.79,140.429L618.973,140.753L621.029,140.732L621.548,141.357L624.069,141.843L625.108,141.595L626.556,142.879L627.684,143.019L629.464,142.134L629.585,142.684L631.034,142.566L631.122,141.433L633.665,141.142L633.654,141.67L635.688,142.016L636.827,141.541L635.997,140.289L637.678,139.221L638.407,140.343L639.082,139.534L638.496,138.466L640.055,137.462L641.823,135.423L643.769,136.923L644.466,135.671L643.581,134.829L643.062,135.455L642.232,134.754L644.289,132.304L645.184,133.092L644.421,133.998L645.571,135.002L645.582,136.07L647.782,133.34L648.777,131.667L644.919,128.332L646.677,126.4L650.07,129.336L649.606,128.192L649.96,127.706L647.727,125.234L648.666,124.176L652.094,125.893L652.414,125.213L651.707,124.673L652.514,123.227L653.608,124.112L654.481,122.752L653.265,121.802L654.404,119.718L655.023,120.053L654.481,121.068L655.83,121.294L655.996,122.385L656.67,120.765L656.427,119.869L658.041,120.15L658.727,119.491L657.455,117.926L658.273,116.285L659.954,117.084L660.949,115.011L662.541,115.378L664.243,113.488L665.337,111.026L667.361,114.341L668.555,113.963L668.964,115.011L670.611,115.885L671.683,115.669L672.612,114.698L673.397,114.903L674.513,114.028L675.011,113.672L675.442,113.542L677.564,116.328L677.609,116.468L678.78,117.073L679.189,118.131L680.008,118.638L680.328,118.509L681.699,117.85L683.412,118.109L684.85,117.85L686.088,116.868L687.337,117.883L687.635,117.904L688.918,117.991L689.084,118.066L690.886,119.34L691.472,120.852L692.268,121.251L692.577,121.294L693.683,121.91L693.45,122.978L694.014,123.939L694.103,124.554L695.186,125.936L695.308,126.314L696.402,127.544L696.402,128.041L694.976,129.649L694.6,131.354L694.28,131.656L693.108,132.984L692.853,136.804L693.075,136.567L694.965,136.761L695.142,136.955L694.655,137.872L694.843,138.876L695.286,139.081L695.562,140.149L695.396,140.429L694.468,142.544L695.462,143.213L695.54,143.591L695.418,144.961L696.579,145.112L696.413,144.864L696.723,144.626L698.757,145.878L698.569,146.719L696.9,148.942L696.866,149.125L697.607,149.772L698.856,152.156L698.834,153.806L696.645,155.963L696.424,155.953L694.987,156.341L694.379,157.937L693.163,158.487L693.064,158.757L693.119,160.493L693.097,160.73L693.263,161.388L693.66,161.442L696.358,161.647L697.629,164.386L697.685,164.731L698.105,165.69L697.397,165.798L697.242,165.723L695.12,168.203L694.932,168.267L693.495,168.58L693.141,170.37L693.13,170.499L692.4,171.307L693.572,173.399L693.605,174.531L693.66,175.221L693.627,175.641L690.289,178.023L689.46,177.808L687.923,178.778L687.503,180.481L685.104,180.567L684.175,180.05L681.334,179.812L680.019,180.718L679.775,180.955L678.427,181.17L676.393,184.371L675.597,184.673L673.209,183.283L672.656,182.992L670.644,181.72L670.124,181.397L669.76,180.912L669.538,180.923L668.356,180.61L666.41,181.311L666.156,181.257L665.039,181.149L664.796,181.224L664.199,181.903L664.011,182.108L663.348,183.24L661.888,184.037L660.407,185.923L660.131,186.214L659.755,186.397L659.633,186.257L658.804,186.096L658.483,186.139L658.096,186.365L656.991,186.149L656.902,186.009L656.692,185.902L656.46,185.837L655.609,185.578L655.609,185.223L655.443,184.533L655.2,184.436L654.89,184.005L652.923,183.315L652.613,183.347L651.209,181.839L650.524,180.254L648.545,180.287L647.771,180.739L647.594,180.836L645.98,181.666L645.914,181.763L645.195,181.645L644.996,181.677L644.532,181.849L644.521,183.229L644.366,183.552L644.145,183.929L644.045,184.026L643.46,184.533L643.095,184.856L643.183,186.742L643.183,187.216L642.52,187.529L642.288,187.572L640.939,188.542L639.668,188.93L639.502,189.102L639.513,191.376L639.679,191.656L639.657,192.55L638.496,193.132L638.297,193.164L637.313,194.748L636.274,195.071L636.108,195.082L635.29,195.297L633.621,194.877L633.101,195.782L633.344,195.998L632.604,198.443L633.101,200.177L630.746,202.127L630.105,203.01L629.121,202.407L628.933,202.224L627.098,201.718L626.888,201.815L625.495,202.795L624.555,201.535L623.428,201.308L623.185,201.255L622.554,201.071L622.311,201.039L622.046,201.018L621.515,200.985L620.487,200.835L620.255,200.651L619.78,199.779L616.883,200.748L615.689,200.307L615.313,200.296L614.694,200.07L614.529,199.833L613.423,200.048L613.003,200.361L612.174,201.168L612.13,201.308L610.958,200.641L609.532,200.996L609.333,201.082L606.624,200.651L606.027,200.501L604.281,199.434L603.971,199.273L603.54,198.723L602.456,199.046L601.672,198.518L601.041,198.605L598.974,198.777L596.641,199.973L596.465,199.833L594.972,200.016L593.546,202.429L593.38,202.558L592.208,203.635L591.545,205.1L589.489,204.432L583.652,202.978L582.524,202.17L582.414,202.095L579.982,200.921L578.942,200.824L577.748,201.567L577.052,203.237L574.985,205.111L570.961,206.382L569.192,208.676L568.219,209.257L567.191,208.902L566.251,208.751L562.736,208.74L562.68,208.676L560.812,206.759L560.691,206.619L559.895,205.638L559.696,205.498L559.497,205.24L559.452,205.197L559.054,204.874L556.865,203.247L556.711,203.172L555.041,202.957L553.472,201.922L551.681,202.267L551.238,202.612L551.161,202.59L551.017,202.289L550,203.527L548.077,204.604L547.458,205.671L547.612,206.166L547.623,206.392L547.579,206.543L546.761,207.48L546.297,209.139L545.368,210.56L545.114,210.797L545.169,211.433L545.136,211.799L545.711,213.479L545.147,215.223L544.241,216.558L544.174,216.967L543.931,217.958L542.151,219.562L541.82,219.917L540.194,220.37L540.007,220.273L538.205,221.5L537.906,221.78L536.624,222.943L536.436,222.964L534.988,222.426L532.489,223.04L531.162,223.912L530.897,223.987L530.787,223.987L530.543,223.922L529.648,223.05L528.542,221.134L528.089,220.811L525.768,218.561L524.673,217.829L524.33,217.893L521.876,218.238L521.721,218.238L520.892,218.206L520.638,219.422L520.528,219.616L519.997,221.177L520.085,222.555L519.035,224.138L518.902,224.353L518.947,225.236L518.084,226.517L517.841,226.872L517.2,227.765L517.709,229.154L516.305,230.962L515.21,231.048L514.845,232.35L513.729,233.416L513.408,233.642L512.557,233.696L512.413,233.814L512.026,234.019L511.341,234.072L510.501,235.159L508.467,236.827L508.599,237.236L508.621,237.882L508.599,238.474L508.433,238.721L508.876,239.851L508.986,243.832L509.428,244.338L509.616,244.639L509.672,244.865L509.638,244.93L508.887,245.479L508.732,245.597L508.279,246.017L507.881,246.436L506.289,247.792L504.199,248.975L504.188,249.631L503.945,250.148L502.055,251.643L502.331,252.6L502.585,253.256L502.607,253.654L502.596,253.988L503.978,255.795L503.127,256.87L502.254,257.193L502.077,257.354L501.612,257.656L501.27,257.666L500.695,257.989L500.463,258.064L500.043,258.419L497.102,259.021L496.892,259.075L495.864,261.56L494.758,263.28L495.09,263.592L495.311,263.947L495.51,264.377L494.814,267.151L494.924,268.42L495.532,269.463L495.013,270.216L494.438,272.688L494.438,272.968L493.929,274.312L493.841,274.505L493.763,275.408L493.52,275.537L492.47,276.139L492.282,276.107L492.083,276.064L491.762,276.118L491.409,276.225L491.176,276.333L490.248,276.902L486.854,276.236L484.19,276.849L483.98,276.945L483.228,277.268L483.073,277.354L482.786,277.418L482.465,277.644L482.2,278.01L481.901,277.999L479.878,278.225L478.817,280.192L478.706,280.417L478.684,282.008L478.043,284.717L477.258,285.77L477.225,287.908L476.672,289.252L476.783,289.703L476.54,290.359L476.473,290.52L476.252,292.164L477.468,293.217L477.634,293.679L478.342,294.99L480.331,296.021L480.663,297.235L480.32,297.439L479.646,298.363L479.447,298.567L477.535,300.351L477.181,300.641L475.202,301.232L475.091,301.285L474.903,302.177L472.582,302.779L471.72,303.896L471.93,305.421L471.487,305.722L471.288,305.872L469.31,308.471L469.199,309.084L468.923,311.715L470.216,313.014L471.322,313.573L472.029,315.033L474.472,317.524L474.24,318.051L473.853,318.931L473.754,320.832L474.008,321.315L474.572,324.471L475.003,325.319L475.136,325.609L474.804,325.953L474.24,326.071L473.345,327.305L472.305,327.724L471.465,328.744L468.757,330.912L465.783,332.565L465.518,333.456L465.573,333.842L465.971,334.572L465.772,335.903L465.54,336.418L465.087,337.556L464.821,337.738L463.716,339.981L461.527,341.752L461.472,342.202L461.129,343.222L460.864,343.748L460.344,344.542L459.979,344.799L459.493,345.711L459.216,345.958L457.05,347.857L457.072,348.662L457.105,348.908L457.735,351.859L457.724,352.03L457.414,352.245L456.784,352.524L456.475,352.599L451.931,354.187L451.423,354.144L451.201,354.09L450.627,354.519L449.687,354.154L448.504,354.97L448.073,355.195L447.255,355.463L446.636,355.474L446.293,355.538L445.928,355.581L444.745,355.399L443.297,356.257L442.833,356.547L442.556,356.74L442.302,356.836L440.953,357.19L440.633,357.383L440.478,357.351L440.434,357.372L440.224,357.469L437.25,358.209L436.366,358.113L435.072,358.102L433.226,357.19L432.972,356.525L432.85,356.353L432.518,356.01L432.353,355.806L430.628,355.742L427.721,356.611L427.002,357.254L424.183,357.458L423.73,357.437L421.286,357.469L420.944,357.383L419.44,357.297L416.986,356.461ZM308.415,116.274L307.574,118.606L305.551,119.113L305.264,118.541L306.336,117.354ZM310.548,113.434L310.581,114.298L309.608,114.59ZM355.188,107.398L355.266,108.381L354.282,108.672ZM349.141,98.617L349.771,99.308L349.584,100.097L348.301,99.632L347.417,99.837L347.151,100.745L346.068,101.533L346.554,99.6L347.339,98.682ZM489.408,119.545L489.607,120.344L488.457,120.236ZM487.495,119.351L486.18,121.564L485.041,120.69L485.019,120.031L486.788,119.297ZM486.699,103.456L488.534,104.536L489.584,104.061L489.684,105.508L488.457,105.421L486.489,104.698ZM491.165,102.97L492.337,103.672L490.955,103.791ZM516.824,81.675L518.018,81.783L518.272,83.134L519.499,82.788L520.428,83.275L520.185,84.204L519.422,84.29L519.146,85.619L517.311,85.328L516.758,84.334L517.576,83.501L515.94,83.88L515.586,83.469L516.15,82.129ZM453.213,78.93L454.186,79.384L453.578,79.773ZM450.007,77.33L450.991,78.995L450.627,79.125L450.649,81.081L449.079,81.535L449.3,80.767L448.935,79.189L448.371,78.692ZM520.406,76.757L520.295,77.363L518.571,78.217L519.09,79.665L516.769,80L516.846,78.444L517.731,77.233ZM454.673,76.714L456.342,77.352L455.413,77.99ZM509.041,76.401L509.506,77.503L508.444,78.8L507.483,77.039L507.847,76.433ZM445.807,74.369L446.58,74.585L446.359,75.839L445.331,76.887L443.054,76.974L443.75,75.093ZM455.292,66.726L456.453,67.699L455.513,68.488ZM451.522,61.579L452.926,62.444L453.567,63.59L455.325,63.493L456.165,64.044L455.634,66.131L454.573,66.628L452.76,65.796L452.462,66.066L450.903,65.309L449.41,65.493L448.714,64.758L448.692,63.331L450.538,62.541ZM431.855,47.714L431.236,49.055L429.412,48.893L429.81,48.049ZM418.501,46.254L419.584,46.924L418.932,47.919L419.23,48.525L417.992,49.52L416.146,50.04L415.284,49.239L415.25,48.363L416.654,47.53L417.251,46.611ZM483.725,45.994L484.521,47.281L485.848,47.27L485.538,49.044L484.234,49.964L483.98,51.024L482.642,51.749L481.625,50.126L482.178,48.752L483.272,47.487ZM465.462,45.81L466.601,46.308L470.404,46.762L471.521,47.303L473.323,46.946L475.434,47.53L476.683,47.335L479.237,49.715L479.668,51.857L479.381,53.695L480.276,55.588L481.934,56.94L484.488,56.594L485.317,55.177L486.589,55.134L487.595,54.496L489.33,54.982L490.568,54.712L491.972,52.906L491.53,54.809L491.63,56.886L490.69,57.221L490.745,58.389L489.916,59.47L488.689,59.838L488.391,61.395L486.799,61.374L485.782,62.066L483.803,61.849L483.184,62.174L482.432,63.677L481.758,63.666L480.951,65.104L480.265,67.418L477.004,70.283L476.606,70.974L475.235,71.753L474.008,71.98L473.345,73.871L472.383,74.834L472.04,76.195L470.901,77.438L469.52,77.352L468.469,78.055L467.673,81.005L465.617,81.221L464.755,83.588L462.798,82.442L461.328,82.983L457.525,82.756L456.851,82.269L456.906,80.811L457.89,79.46L458.575,79.687L460.012,77.817L460.289,75.374L459.636,74.682L458.431,75.385L457.536,74.423L458.575,74.098L459.006,72.877L458.962,69.926L457.746,69.245L457.691,68.683L459.747,67.18L460.908,65.655L461.018,63.525L461.715,61.752L463.384,62.574L464.202,64.855L465.429,64.271L465.849,65.158L464.324,65.926L466.17,65.785L466.889,65.309L466.933,63.904L466.391,63.85L466.756,62.185L466.513,60.995L465.252,59.752L464.943,56.886L464.291,55.891L461.792,55.696L461.228,54.528L460.355,54.452L459.67,53.133L460.056,51.089L460.565,50.515L462.069,50.137L462.599,47.562L463.041,46.643ZM479.259,45.41L479.712,46.719L477.944,45.615ZM407.136,44.912L408.164,46.329L410.353,47.617L413.283,46.978L414.598,47.941L414.034,49.553L414.355,50.656L411.193,50.31L410.574,50.883L410.729,51.965L410.044,52.419L410.176,54.604L407.921,52.83L407.611,51.922L406.373,50.829L406.019,49.758L403.72,47.865L402.946,46.686L403.687,46.145L404.781,46.502L406.362,46.178ZM425.167,42.889L426.958,45.778L427.588,48.547L428.903,50.602L427.765,51.359L426.04,50.494L424.691,50.732L423.166,49.434L422.967,48.46L424.603,49.023L423.763,46.643L423.475,44.425L424.094,43.354ZM429.666,41.385L430.329,42.262L429.92,43.646L428.24,44.22L427.621,43.354L429.113,42.662ZM490.657,25.846L490.823,27.491L491.961,29.32L490.325,30.077L490.303,30.878L491.486,32.004L490.889,32.512L491.132,34.287L492.724,35.964L494.338,35.813L494.349,36.765L495.576,36.808L496.218,35.694L496.881,36.819L497.732,36.397L499.755,37.566L500.452,37.285L502.01,34.547L502.032,35.856L501.402,36.668L501.745,37.891L501.447,39.167L499.777,38.323L498.683,38.561L497.002,39.6L496.549,40.639L493.951,41.58L494.703,42.51L495.831,42.5L496.251,43.744L497.157,44.047L497.113,45.431L496.306,46.329L493.774,45.897L492.813,46.199L491.298,47.671L490.557,46.546L489.551,46.026L489.872,45.377L489.352,44.079L487.959,44.35L488.313,42.619L486.533,41.818L484.676,43.181L484.234,44.036L481.879,46.513L481.238,46.913L479.933,45.778L478.154,40.628L476.871,39.795L474.616,40.228L473.555,41.007L473.002,40.163L472.095,40.022L471.454,38.561L472.67,37.155L474.008,37.133L475.733,36.527L476.131,35.099L474.539,34.276L473.864,33.411L473.278,31.658L474.196,29.699L475.125,28.584L476.86,28.313L478.143,29.58L478.154,30.272L480.199,30.846L483.04,30.077L483.206,28.768L484.466,28.389L486.279,27.08L487.163,28.422L488.766,28.454ZM434.42,22.501L434.973,23.15L436.52,23.324L437.128,25.164L436.421,25.51L435.315,25.066L434.155,25.77L432.529,25.77L432.12,25.164L433.69,24.785L434.442,23.919ZM435.337,21.213L435.868,21.592L435.304,22.501L434.84,21.667ZM470.039,7.072L470.36,7.083L470.039,7.072ZM456.386,0.856L459.294,2.242L462.091,3.217L463.649,5.599L464.832,6.867L464.434,8.134L465.23,9.909L465.12,10.581L466.579,13.58L467.121,13.927L468.337,17.684L468.956,17.077L469.796,17.716L469.398,18.485L472.67,18.701L471.476,20.899L471.764,23.118L470.714,26.657L471.465,28.119L471.443,29.601L470.924,32.058L472.416,33.66L473.135,34.958L472.925,35.499L470.835,37.285L470.039,37.631L468.458,37.414L466.944,38.983L463.937,40.098L462.964,40.13L459.426,38.983L455.082,39.232L452.395,39.795L450.859,40.866L450.671,41.894L449.731,42.965L448.062,43.7L445.972,43.765L444.856,44.75L441.771,46.048L441.34,46.459L437.559,47.151L436.133,46.34L433.911,46.805L433.701,45.951L434.995,44.945L434.099,43.084L434.818,42.013L433.657,41.472L432.364,42.305L431.534,42.143L431.944,39.762L433.281,39.719L434.453,36.982L435.36,36.43L435.658,34.32L436.985,33.443L438.466,34.147L438.886,34.969L439.638,34.861L439.981,33.649L439.063,33.995L439.77,32.112L441.705,31.842L443.242,32.502L444.425,32.339L445.375,31.419L445.784,33.313L447.564,32.978L447.365,33.551L448.493,33.735L448.924,33.032L449.554,27.891L449.2,26.744L450.273,25.337L449.996,24.265L447.918,23.865L447.708,23.107L449.355,23.205L449.598,23.767L450.615,23.497L449.996,22.707L450.041,21.711L448.382,21.126L449.587,19.21L448.681,17.066L447.575,16.493L445.762,17.478L444.502,17.478L443.374,18.528L442.302,18.831L440.589,18.192L439.87,17.196L439.793,16.157L440.533,15.486L441.794,13.483L443.662,13.472L444.535,13.05L445.552,14.165L446.79,13.829L447.454,11.566L446.79,8.816L445.464,7.505L445.663,6.379L446.625,4.809L447.52,4.56L450.604,5.415L452.042,4.776L453.291,3.509L454.065,1.993L455.104,1.939ZM214.646,510.132L215.751,510.335L216.238,511.499L215.464,512.076L214.115,511.958L212.811,512.396L211.993,513.165L209.516,513.325L209.505,512.183L210.113,510.837L212.147,510.997L213.098,510.26ZM246.573,508.348L246.982,508.86L244.439,509.533L244.262,510.826L245.235,511.542L244.351,512.204L244.03,513.219L242.969,513.336L242.781,512.407L241.819,511.755L242.814,509.79ZM240.592,579.523L240.713,581.709L240.503,583.265L241.134,584.342L239.597,584.577L239.851,582.988L239.862,580.483ZM580.269,54.95L582.215,56.875L582.591,58.173L581.673,59.719L580.634,58.584L580.015,56.637ZM562.415,50.743L563.697,52.073L565.124,51.932L566.616,52.83L567.556,52.808L567.71,52.073L568.993,52.7L569.225,54.496L568.982,55.393L566.782,55.447L564.692,56.507L564.637,55.285L562.979,53.09L561.697,52.549L561.918,50.97ZM549.215,43.755L549.635,46.059L549.481,46.838L550.597,48.298L550.763,50.461L547.8,51.316L546.85,49.78L546.96,47.952L546.595,45.107L548.298,44.912ZM508.5,30.575L507.792,31.69L508.002,33.205L507.051,33.638L506.521,34.796L506.665,35.824L505.957,36.754L505.017,36.397L504.84,34.266L505.537,34.46L505.935,33.162L506.731,33.064L507.085,31.235ZM544.716,28.378L544.827,29.222L546.076,29.071L545.943,30.532L544.86,31.192L543.511,31.376L541.411,31.019L541.51,29.893L542.616,30.37L543.898,30.207L544.605,29.471ZM510.578,23.811L512.192,24.222L512.866,25.467L513.563,25.802L512.192,27.642L511.794,29.071L509.948,29.623L508.4,28.876L506.355,29.471L505.946,27.696L506.134,25.889L508.08,24.287L508.732,24.59ZM521.047,19.123L522.44,20.39L522.396,22.025L521.932,22.761L521.987,24.135L520.594,24.612L519.709,27.426L520.616,29.19L519.533,30.164L519.356,31.192L517.067,31.896L515.033,30.586L517.399,30.023L516.935,28.043L517.2,25.878L518.118,24.395L518.029,22.198L519.82,19.372ZM506.565,9.151L506.554,10.364L508.223,12.573L509.417,13.753L509.218,14.089L511.54,17.846L511.54,19.481L510.224,20.791L508.876,21.44L508.256,22.436L506.742,23.237L506.554,23.962L505.073,24.049L503.89,24.612L502.198,24.709L501.159,25.575L499.556,26.181L499.224,25.218L499.556,22.631L498.849,19.481L499.346,18.398L499.446,15.746L500.617,15.248L501.524,13.515L501.314,12.736L502.74,11.36L503.658,9.845L505.747,9.108ZM513.474,6.91L515,8.426L515.796,10.527L516.89,10.603L518.239,14.609L518.825,17.933L518.571,18.539L516.846,18.799L515.796,19.751L513.795,18.799L512.734,16.698L512.634,15.735L514.06,13.797L513.353,13.645L511.617,12.227L512.579,11.263L511.761,10.332L511.363,8.87L512.17,8.014L512.269,7.105ZM510.777,6.065L510.578,7.408L509.605,6.282L510.291,4.733ZM257.672,543.381L257.871,544.481L257.13,543.488ZM216.934,488.056L217.343,488.472L219.134,488.708L216.127,489.253L214.204,490.792L211.904,491.348L212.424,490.514L214.767,489.637ZM206.277,487.072L207.106,487.126L206.852,487.917L205.702,488.537L204.829,490.161L205.028,491.743L205.592,492.299L207.106,492.577L208.09,491.989L208.4,492.523L207.25,493.635L204.32,493.111L203.734,491.925L202.485,491.134L201.004,491.305L199.755,490.161L198.461,488.472L199.124,487.596L200.462,488.665L200.562,489.338L202.12,489.189L201.999,488.088L203.281,488.323L203.745,489.178L205.304,488.483ZM237.651,485.48L238.149,486.484L237.143,487.82L235.971,487.233L236.468,486.26ZM239.884,478.745L241.167,478.798L238.071,480.626L238.303,479.215ZM258.324,577.007L259.529,577.966L259.551,579.448L257.849,581.24L256.589,580.515L254.875,581.048L254.599,581.89L252.266,581.655L251.525,582.274L251.581,580.472L253.593,580.557L255.428,578.702L256.589,579.118L257.661,578.489ZM190.048,478.21L190.999,478.627L191.331,480.167L190.844,482.679L192.182,483.288L191.961,482.219L192.79,481.225L194.901,483.919L195.742,483.438L195.896,482.294L196.648,481.685L197.709,483L198.406,482.166L199.401,482.037L199.456,481.204L201.479,480.851L200.937,482.112L200.617,484.667L199.744,485.095L199.158,486.196L199.71,486.794L198.959,487.19L197.4,485.084L195.62,484.453L193.818,484.528L190.966,485.137L190.446,483.31L189.927,483.01L190.358,478.969ZM227.436,477.088L229.205,477.654L229.703,478.755L227.856,479.76L227.757,478.777L226.674,477.59ZM192.69,476.713L193.442,477.483L192.724,477.633ZM189.451,475.644L191.032,476.489L188.91,476.275ZM274.033,468.148L274.387,469.464L273.492,468.715ZM271.248,463.122L269.954,464.523L270.054,465.293L268.694,464.694L266.173,465.721L266.803,464.747L267.71,464.672L268.528,463.496L269.048,464.608ZM225.546,476.895L223.766,476.318L224.042,474.671L223.18,474.126L223.567,471.805L222.108,471.805L222.804,470.629L220.792,469.186L219.554,469.175L220.284,468.063L222.019,468.49L222.97,469.71L224.219,469.389L225.325,468.448L226.685,467.902L226.22,466.929L227.425,465.87L228.398,466.095L228.73,465.261L230.521,464.362L230.731,463.614L231.626,463.988L231.56,465.282L232.577,466.448L232.168,467.934L230.001,468.148L227.37,469.816L225.723,470.073L224.717,471.057L225.413,472.137L224.197,472.661L225.181,473.538L224.805,474.746L226.331,476.125ZM225.126,458.062L225.9,459.036L225.601,460.287L226.287,460.619L225.966,461.581L224.75,461.004L224.772,460.276L223.523,459.378ZM266.969,455.441L268.572,456.019L268.738,456.746L267.356,456.372ZM280.6,454.179L282.502,455.58L283.85,455.591L284.304,457.164L285.84,458.544L286.57,460.415L286.349,461.282L284.679,462.063L283.386,462.031L283.552,462.608L282.28,462.587L282.358,463.346L281.319,464.063L280.666,463.849L280.501,462.48L279.362,461.186L278.124,460.768L278.256,459.998L276.952,459.431L277.228,458.608L278.699,457.752L279.539,456.5ZM218.659,394.681L218.946,395.56L219.786,395.902L223.633,395.72L224.054,395.388L224.85,396.503L226.508,396.492L225.59,397.928L223.777,399.835L223.457,398.313L222.097,397.456L220.317,398.163L218.714,395.977ZM218.095,388.208L219.068,388.198L219.532,389.066L218.88,389.334L218.67,390.77L217.465,392.206L218.471,394.381L218.029,394.627L217.144,393.427L216.956,392.334L215.884,389.634L216.835,388.369ZM227.58,369.287L228.155,369.598L226.165,370.445L225.668,369.77ZM583.033,126.411L584.171,127.091L583.475,129.088L584.094,130.545L583.453,132.498L582.06,132.498L582.204,133.275L580.623,134.095L580.313,132.736L579.517,131.905L578.854,132.066L577.041,131.117L577.174,128.958L578.644,127.382L579.849,127.49L580.943,128.203L582.624,127.296ZM268.672,241.648L270.938,242.649L269.821,242.66L267.82,243.596L266.881,243.434L265.388,244.274L265.908,242.487L268.03,242.348ZM268.627,422.723L269.711,423.387L268.937,423.623ZM232.422,408.769L231.328,410.697L231.04,410.012ZM233.793,399.578L233.992,400.006L231.759,401.506ZM513.231,4.419L514.071,6.433L513.552,6.444L512.933,4.885ZM533.816,4.246L534.424,5.61L535.054,5.946L535.397,7.7L536.812,9.011L536.591,10.57L535.341,11.122L533.783,13.374L533.727,14.381L533.075,15.107L530.776,15.464L527.481,17.803L526.53,18.961L526.928,21.126L527.857,22.198L529.261,21.592L530.3,22.566L528.874,23.172L528.465,24.839L526.553,25.986L525.58,27.339L523.612,26.495L523.877,23.486L523.501,22.609L524.065,22.144L523.855,20.661L524.529,20.119L524.828,18.55L523.977,18.734L523.214,17.088L523.535,15.377L523.07,14.154L524.916,13.093L527.017,10.884L528.034,7.256L529.438,7.538L531.771,5.968L531.936,4.863L532.843,4.928ZM549.934,0L551.161,0.574L550.387,0.758ZM221.754,361.663L221.632,363.035L220.383,363.775L218.847,363.808L218.891,362.06L219.62,361.502L220.229,362.027L221.212,361.33ZM295.668,593.765L297.072,594.266L296.376,594.703L294.507,594.117ZM250.353,585.547L250.298,586.666L249.491,586.805L249.403,585.92ZM232.323,549.155L232.621,550.094L231.914,550.083Z"
          fill="#e0e0e0"
          stroke="#333333"
          stroke-width="1"
          stroke-linejoin="round"/>
  </g>
</svg>