<?xml version="1.0" encoding="UTF-8"?>
<svg xmlns="http://www.w3.org/2000/svg"
     viewBox="-9.730708155555476 -20 819.4614163111182 639.9999999999982"
     width="819.4614163111182"
     height="639.9999999999982">
  <title>高知県</title>
  <desc>都道府県コード: 39</desc>
  <g id="39">
    <path d="M415.463,230.597L415.833,232.35L416.294,232.12L416.268,229.676L419.619,228.87L418.326,227.411L419.091,226.362L420.305,226.72L422.469,229.458L423.023,229.062L424.817,230.636L425.662,229.701L427.786,230.955L425.741,233.259L425.398,236.355L424.567,236.649L423.313,235.971L421.625,236.227L420.807,235.805L419.395,236.739L418.775,239.617L418.221,240.347L416.347,238.696L414.883,239.374L413.497,238.888L413.286,241.05L413.84,242.573L412.89,242.317L412.336,240.231L410.199,240.091L409.618,240.666L409.882,243.046L409.17,242.777L408.602,241.165L407.679,241.652L406.439,240.973L405.805,241.971L406.425,243.327L404.433,244.197L404.974,245.63L404.565,247.408L403.668,248.073L402.929,247.433L403.351,246.449L401.755,244.287L399.987,244.594L399.063,246.09L397.177,243.57L395.263,244.376L394.472,245.208L392.809,244.722L391.121,245.86L391.094,248.482L392.295,250.286L391.081,250.017L389.524,245.783L388.93,245.553L386.582,246.359L383.745,245.336L381.436,246.781L378.151,246.218L377.294,247.689L375.948,248.482L375.869,249.557L376.871,250.209L375.13,250.542L372.069,251.693L372.016,252.371L371.198,253.445L371.581,254.506L372.306,261.156L370.829,261.079L370.169,262.537L370.327,263.956L371.752,265.312L369.575,265.005L369.047,266.079L368.084,266.002L367.082,267.076L367.121,268.93L365.498,269.019L363.809,268.329L366,268.073L365.525,265.9L364.021,265.235L363.572,263.688L365.261,263.65L365.485,264.506L367.293,265.619L369.034,264.199L367.53,263.343L366.884,261.911L368.493,262.691L368.163,261.105L368.625,260.12L367.57,258.867L369.047,258.547L369.127,257.281L367.332,255.325L364.72,256.885L365.446,257.627L364.073,258.969L362.807,258.969L363.255,257.767L362.662,256.847L361.461,256.668L359.746,257.499L360.181,259.455L359.02,259.187L358.545,259.954L358.136,258.215L358.519,257.448L357.067,256.412L354.864,256.284L354.785,255.235L358.901,253.048L358.928,251.59L360.353,251.539L359.099,249.301L358.136,248.636L356.223,245.016L356.593,243.634L354.323,244.53L353.69,245.4L354.653,247.561L355.075,247.293L356.896,250.183L356.883,251.974L355.682,253.074L351.5,253.586L350.18,254.647L349.573,257.281L350.259,256.668L350.695,258.573L347.634,259.302L346.842,260.184L347.159,261.808L345.919,260.888L344.876,261.31L345.285,262.448L344.573,262.997L344.058,262L342.396,262.371L341.341,263.918L341.235,265.363L342.436,266.846L343.267,266.411L343.702,267.268L342.541,270.515L343.663,272.011L341.829,273.315L342.053,274.427L343.742,275.667L343.478,276.869L341.697,276.472L340.391,278.339L340.219,280.575L339.454,280.997L338.411,280.115L337.343,280.32L336.973,281.93L334.585,280.895L333.16,280.703L332.184,282.505L330.403,282.454L329.651,285.292L330.297,285.918L332.039,286.071L333.78,288.065L335.166,288.256L335.799,289.637L337.092,289.432L339.203,290.812L340.549,290.736L341.987,292.691L338.847,293.445L336.894,294.837L336.973,296.281L338.174,297.533L336.512,297.674L335.179,296.882L332.857,298.21L332.976,300.37L335.746,301.583L334.467,302.759L334.928,305.135L333.965,307.983L334.15,309.567L335.126,310.512L337.343,310.116L337.448,308.507L338.319,309.363L338.28,308.022L339.85,307.523L341.446,307.651L341.934,309.452L340.694,310.18L339.823,312.582L339.744,314.063L341.103,315.468L340.866,316.758L341.974,318.341L343.531,319.235L341.301,320.18L340.061,321.33L339.863,323.054L337.435,322.492L336.498,323.168L336.591,326.603L337.554,327.459L338.689,327.484L340.074,329.144L338.359,330.063L337.409,331.123L337.409,332.298L339.652,333.446L340.1,335.527L338.834,335.77L338.477,336.715L335.971,337.787L335.126,338.948L332.883,339.893L332.633,341.323L333.213,341.693L331.102,345.713L331.419,347.385L333.094,348.074L333.345,350.116L331.458,349.287L329.611,349.427L327.711,350.588L324.479,351.277L322.434,352.579L320.719,356.624L320.956,358.181L322.764,358.653L322.896,360.477L325.429,361.574L325.416,362.735L326.458,363.82L324.914,363.82L324.281,365.402L324.703,367.111L324.268,367.736L322.434,366.894L323.766,368.259L325.007,368.859L324.861,370.415L326.023,372.06L324.861,372.749L322.434,373.017L321.378,374.688L319.597,373.617L320.798,372.316L319.703,370.083L318.528,368.604L319.492,368.221L319.835,367.149L318.621,365.67L316.721,365.006L314.557,364.802L312.459,365.019L311.509,366.04L309.359,367.302L308.976,368.527L307.327,370.287L305.665,371.423L302.643,375.185L301.72,378.093L301.746,379.828L300.11,381.792L298.83,383.934L298.791,386.178L297.062,386.191L296.323,388.499L296.64,389.672L295.98,390.998L293.922,393.803L294.292,394.874L291.89,398.724L292.246,400.011L290.729,400.444L290.056,402.102L288.196,403.504L285.861,403.491L282.813,405.696L281.454,405.989L280.267,407.455L280.135,408.729L279.079,409.507L279.778,410.475L279.422,412.132L277.694,411.202L275.979,412.693L275.873,413.801L277.153,414.489L277.733,416.541L277.1,416.719L277.258,418.401L276.335,418.975L275.068,418.784L273.498,420.274L272.799,422.593L272.984,424.301L272.205,424.721L271.889,427.218L272.126,428.594L271.295,429.944L270.807,432.479L271.11,433.753L272.588,435.141L272.575,436.644L271.414,437.841L269.975,437.51L268.471,436.275L267.389,436.746L265.767,435.791L265.186,433.766L263.379,433.001L262.086,430.798L258.853,430.543L256.188,431.371L256.61,430.173L254.341,430.033L252.256,430.517L250.158,430.071L248.417,431.052L247.322,430.772L245.989,431.409L243.139,433.829L240.408,436.606L238.178,439.293L235.395,443.929L234.431,446.858L234.22,449.761L233.666,451.493L234.788,450.512L234.26,452.524L232.518,453.466L230.975,459.781L231.608,461.181L233.495,462.276L232.228,462.67L230.777,465.445L231.318,467.24L230.302,467.418L229.259,468.818L228.573,471.555L228.296,473.922L229.207,475.067L229.154,476.174L231.252,477.129L231.463,478.592L230.064,478.948L229.523,480.17L229.022,484.356L231.186,484.725L231.595,485.399L230.064,485.857L230.368,489.012L232.162,489.814L234.959,494.597L233.917,497.65L234.26,499.596L233.706,500.181L234.761,501.923L233.943,502.483L234.946,505.535L234.84,506.921L235.236,509.96L233.811,510.723L232.122,510.66L230.856,512.745L231.212,513.686L230.289,514.156L228.719,516.191L229.761,517.551L229.8,518.568L228.441,519.407L227.505,518.009L225.829,516.585L224.365,517.093L223.56,518.339L220.34,517.78L217.187,517.64L214.694,518.25L213.163,521.238L212.86,520.094L210.445,520.602L209.68,521.823L209.772,522.852L211.685,524.848L212.714,525.407L212.279,527.606L211.303,527.848L211.276,528.852L212.398,529.449L212.569,531.877L211.514,532.589L211.87,533.656L212.78,533.606L213.796,534.876L213.374,535.448L214.694,536.046L213.849,537.583L211.184,537.876L210.34,538.93L210.181,540.57L210.828,544.432L211.54,544.509L213.15,548.054L214.271,548.943L215.195,548.562L216.62,551.471L218.084,551.408L220.789,551.941L222.32,554.025L225.301,554.787L227.557,555.866L229.325,555.866L229.22,556.692L230.236,557.912L232.175,557.251L232.004,559.55L234.168,563.64L234.959,564.25L235.632,567.425L238.073,569.088L238.878,570.396L237.703,571.869L237.321,573.596L237.651,576.212L239.603,579.158L239.023,579.64L239.511,583.233L240.751,586.813L239.788,589.694L239.326,589.326L237.36,589.885L236.173,589.466L235.461,590.126L234.788,589.453L233.772,590.773L232.756,589.58L231.45,589.847L229.814,588.425L229.84,587.473L228.112,585.683L226.634,586.851L226.396,585.302L224.906,584.629L224.708,586.013L221.726,585.366L219.509,585.696L218.203,586.914L216.673,586.546L216.264,585.543L216.712,582.255L217.952,579.945L218.968,579.119L219.14,577.545L218.177,575.501L217.266,575.133L216.607,576.199L214.707,575.336L215.512,574.561L215.947,572.237L213.585,572.669L212.635,572.149L211.896,572.923L211.026,570.803L211.29,568.339L213.15,566.891L213.216,565.215L214.153,564.377L216.95,564.161L218.414,562.865L218.203,562.116L216.633,563.576L213.691,562.281L214.43,561.493L212.978,561.684L211.976,565.875L210.775,565.748L209.179,568.377L208.295,568.783L207.661,566.269L206.988,566.574L205.603,564.237L205.695,562.078L206.421,561.252L208.77,561.849L208.981,561.062L206.949,560.528L207.279,559.449L205.841,559.055L205.511,558.026L203.492,557.696L202.502,559.322L203.347,560.858L202.054,560.439L201.962,559.601L200.682,560.134L198.676,559.855L197.898,561.608L196.948,561.595L197.449,560.617L197.238,558.369L194.032,557.099L193.478,557.594L191.393,556.845L189.48,556.819L187.91,557.518L187.158,556.463L183.451,555.651L181.867,557.137L181.089,556.095L179.374,556.54L178.411,557.772L180.324,559.283L179.572,562.002L178.569,563.5L179.862,565.367L179.532,566.612L177.039,566.967L176.352,568.187L175.561,565.609L174.453,565.062L174.492,564.211L176.036,563.957L176.498,563.005L176.682,558.204L175.666,557.188L174.492,557.188L174.307,558.356L173.173,557.772L173.714,556.311L172.526,555.714L171.55,558.153L170.89,557.416L168.317,557.785L167.288,559.474L166.365,559.995L166.009,561.951L165.256,562.002L165.415,560.604L163.225,560.414L162.064,562.789L160.48,563.488L161.707,564.631L161.364,566.663L160.309,567.298L159.306,568.783L157.578,568.682L157.591,570.18L155.665,571.082L153.013,570.193L152.406,571.501L153.382,572.58L152.934,574.51L151.456,574.282L147.88,574.866L147.722,575.425L147.313,576.872L144.727,576.796L142.55,577.329L141.917,576.783L140.927,573.037L139.608,572.441L139.384,573.736L137.444,574.117L136.943,573.05L134.766,570.752L133.13,570.155L131.982,570.663L131.164,571.818L131.758,573.215L129.356,573.761L128.182,574.841L126.243,572.047L124.91,570.828L124.158,567.704L121.809,564.402L120.384,564.669L118.814,562.878L117.627,562.802L117.772,561.646L116.387,562.014L115.054,559.715L115.054,558.115L112.943,557.962L113.563,556.781L113.418,555.295L112.627,553.402L111.65,552.437L110.687,552.551L110.964,554.215L109.803,553.897L108.748,551.687L108.101,551.573L106.887,553.618L105.792,553.262L104.341,553.593L103.365,552.843L102.916,553.707L100.383,554.063L98.193,555.219L97.506,553.961L96.913,554.52L98.021,556.705L99.327,556.527L99.855,555.625L102.349,556.387L103.365,557.188L102.573,558.813L101.095,557.315L99.763,556.972L96.926,559.22L96.768,560.515L93.918,559.372L90.039,558.953L89.96,559.639L88.073,560.846L86.067,560.16L84.511,560.503L84.102,562.433L82.861,561.9L81.608,564.186L81.832,565.863L83.165,567.298L82.993,568.021L80.671,568.364L78.745,568.148L78.336,568.936L77.333,567.666L76.225,568.364L74.932,570.155L73.626,569.698L73.401,568.212L74.365,568.098L75.328,566.955L78.217,566.942L78.494,566.358L77.703,564.796L77.821,563.386L76.937,562.84L76.41,559.957L75.763,558.877L76.621,558.699L78.771,559.499L79.682,559.106L80.104,557.251L78.164,557.086L76.462,556.451L75.618,554.838L74.008,552.78L72.597,552.881L74.035,552.119L73.467,550.887L74.523,550.213L77.478,551.522L78.27,549.972L81.859,550.722L82.611,550.01L82.136,548.638L83.376,549.07L84.867,550.378L85.474,549.68L84.972,548.079L83.587,547.749L82.677,546.808L80.117,546.999L78.455,546.503L80.302,546.465L81.265,545.22L80.157,543.988L80.275,540.849L81.12,540.659L82.492,541.459L82.729,537.863L84.484,536.071L84.616,538.168L85.949,538.74L86.793,537.431L86.49,536.274L88.785,534.508L88.047,533.046L86.358,531.788L87.901,530.237L89.036,530.53L90.474,530.047L91.358,530.657L92.77,530.543L91.701,529.92L91.371,528.445L90.474,529.322L90.21,527.975L88.126,526.068L87.321,526.208L87.862,524.873L87.215,523.895L85.421,524.2L86.226,522.712L87.928,522.547L89.128,520.513L90.606,519.865L90.606,518.136L92.097,518.415L93.179,517.894L94.723,515.339L95.224,515.758L96.332,514.665L98.905,513.851L100.066,512.325L99.129,510.367L100.594,508.498L102.111,507.811L102.481,507.023L103.694,507.977L105.819,506.412L106.94,506.234L106.861,507.684L107.824,509.413L106.425,512.516L107.112,512.249L109.592,509.401L110.397,509.604L110.463,510.85L109.592,511.842L109.579,512.91L112.719,511.753L111.874,510.507L113.313,509.757L112.231,509.477L111.413,508.129L109.223,507.481L110.634,507.404L110.634,506.285L108.8,506.094L107.692,504.327L106.069,503.437L105.607,502.19L106.491,501.974L108.536,503.691L110.819,503.78L112.495,503.208L113.141,500.906L112.481,500.104L108.88,500.537L108.721,499.303L109.763,498.96L109.315,496.81L111.03,496.06L110.45,493.808L109.645,492.549L108.55,493.045L109.117,491.824L108.682,491.2L108.444,488.287L107.323,487.269L105.766,487.918L104.526,489.165L104.869,490.997L103.061,491.111L103.602,490.17L102.599,489.623L101.333,490.005L102.454,486.939L102.137,485.972L99.327,486.964L98.799,487.486L99.881,488.402L99.037,488.58L99.895,490.005L99.011,489.699L97.256,490.361L97.203,489.165L96.451,489.712L94.973,488.987L94.696,490.335L92.77,490.361L92.744,489.025L91.292,488.936L91.899,490.081L89.709,490.806L89.986,489.839L89.181,487.995L88.825,489.292L86.49,488.478L86.081,488.847L84.92,487.664L84.92,486.073L85.052,485.603L85.118,485.196L85.289,484.305L85.236,484.063L84.92,483.414L84.867,483.185L84.286,482.155L84.22,481.951L83.996,481.519L83.719,480.844L84.722,479.686L85.078,479.737L86.265,480.093L87.097,478.91L88.442,479.025L88.64,478.999L90.039,478.897L90.184,478.732L91.49,478.999L93.482,477.981L94.287,478.719L94.498,478.719L94.894,478.185L95.079,477.905L96.754,476.709L97.229,475.322L96.662,473.234L96.504,473.133L96.306,470.46L96.438,470.346L96.596,470.282L96.557,469.875L96.53,469.658L96.807,468.564L95.91,467.775L96.068,467.571L98.061,468.475L97.955,466.056L99.499,464.452L99.855,463.892L99.947,462.148L98.404,461.958L98.549,460.15L98.483,459.793L98.377,459.526L98.324,459.182L98.351,458.928L98.259,458.711L97.19,458.584L97.256,458.368L96.873,454.587L96.609,454.001L95.95,452.664L96.451,452.282L96.688,452.129L97.071,451.926L97.52,451.696L98.021,451.302L97.586,449.914L97.454,449.685L96.979,447.736L94.986,445.011L94.762,444.935L94.023,444.553L94.775,443.458L93.509,441.458L93.68,438.593L93.35,438.58L94.221,437.09L94.749,434.886L94.446,430.53L94.05,430.339L92.546,428.021L92.216,427.358L91.873,426.912L89.973,425.396L89.445,425.103L87.189,421.676L85.962,421.09L85.843,420.746L87.809,417.611L89.683,416.146L89.907,415.687L90.527,414.337L90.778,413.903L90.844,413.648L90.461,412.234L90.369,411.826L90.171,411.023L90.369,410.424L90.408,410.208L89.656,408.997L91.055,406.537L90.936,404.804L90.91,404.319L90.461,401.834L89.142,398.341L89.128,397.831L89.168,397.462L89.102,397.041L88.31,394.529L84.22,393.815L83.745,393.433L83.482,393.14L80.882,390.87L80.922,390.692L80.196,387.836L77.676,385.133L77.373,382.939L76.911,382.518L76.753,382.391L75.512,382.888L73.995,382.71L73.309,381.46L73.626,379.904L73.916,379.509L74.272,377.239L74.312,376.971L75.051,374.114L72.861,371.614L72.821,371.346L72.689,370.798L72.544,370.517L71.858,368.986L69.536,367.29L69.008,366.205L68.902,366.103L67.649,363.935L68.23,363.22L68.731,362.812L69.034,362.557L69.628,361.472L69.654,361.192L69.654,361.077L69.734,360.669L69.588,358.053L72.372,356.535L75.71,355.552L76.568,355.386L76.951,355.922L77.149,356.165L77.056,357.275L76.133,358.104L75.961,359.252L77.439,361.051L77.584,361.421L78.283,362.149L78.771,362.212L80.249,362.136L81.344,362.812L82.558,364.955L82.835,365.019L84.59,366.371L86.213,368.119L86.45,368.374L87.756,371.41L91.319,373.272L92.493,373.31L93.126,374.395L93.496,374.586L95.382,376.601L95.593,376.92L96.055,377.685L96.306,378.246L96.966,379.471L97.084,379.636L97.638,380.504L97.836,380.733L99.063,381.218L99.42,381.077L102.137,379.942L101.781,378.642L102.362,376.894L102.52,376.741L103.932,375.045L104.222,374.739L104.512,374.56L106.716,373.412L108.299,372.124L108.471,371.691L108.893,370.657L109.368,370.53L109.948,370.275L109.856,370.096L111.215,368.514L111.307,368.132L111.967,366.575L111.914,366.244L111.98,365.478L114.777,364.458L115.925,363.412L116.413,362.212L116.928,361.753L117.231,360.324L118.894,358.015L119.25,357.887L119.632,356.828L119.514,356.458L120.239,354.378L121.625,353.549L120.543,352.337L120.134,350.461L121.084,347.691L121.717,347.845L121.994,347.857L123.907,346.798L124.25,346.645L125.609,347.423L129.066,347.487L131.626,346.198L132.681,346.683L134.568,345.522L135.834,345.394L135.65,343.76L135.531,343.582L135.32,343.224L135.161,342.522L134.449,338.183L134,337.863L134.014,335.042L135.505,333.944L135.636,331.085L134.95,329.336L134.621,328.927L134.383,327.382L135.254,326.68L135.359,326.335L136.982,324.407L137.075,324.05L136.837,322.172L136.929,321.879L137.418,320.832L137.484,320.627L138.249,319.606L138.552,319.491L139.04,319.108L139.265,318.661L140.149,317.447L140.399,317.026L140.571,316.86L140.848,316.643L141.02,316.247L141.033,315.647L140.993,313.744L141.481,313.195L141.495,312.939L142.59,311.24L142.893,310.793L144.555,310.678L146.521,310.001L148.025,308.89L150.598,307.613L152.538,307.319L153.316,305.901L153.501,305.799L154.095,305.799L154.926,305.952L155.097,305.952L155.295,305.939L156.443,306.502L156.575,306.578L158.765,305.773L158.963,305.671L160.164,304.969L161.945,302.925L162.512,303.18L162.671,303.5L163.475,303.755L163.766,303.717L167.42,302.81L167.552,302.618L167.671,302.516L167.948,302.12L169.083,301.213L170.811,301.008L170.996,300.638L171.049,300.612L171.233,300.612L171.365,300.587L171.721,300.216L173.014,298.76L176.88,295.719L176.946,295.54L178.2,295.067L178.543,294.901L182.395,293.93L185.72,291.579L186.221,291.426L187.171,291.234L188.174,290.071L189.071,287.055L188.359,285.113L189.48,283.745L189.586,283.553L190.272,281.764L189.678,280.179L189.586,279.706L190.048,278.339L190.008,278.198L189.071,275.552L187.752,273.788L187.66,273.583L186.617,272.433L186.142,270.835L185.839,270.362L185.311,269.914L185.113,269.761L184.599,268.304L183.464,267.818L181.907,265.836L180.02,265.746L177.091,264.493L176.88,264.033L176.656,263.803L176.405,263.688L175.02,263.1L174.571,262.895L172.328,263.151L171.735,262.639L171.458,260.9L171.418,260.798L171.484,260.389L171.471,260.095L171.207,259.698L170.969,259.43L170.283,257.473L170.323,257.026L170.349,256.642L170.362,256.386L170.336,256.015L168.845,252.537L169.294,252.191L169.584,252L170.178,250.644L169.571,247.792L169.426,247.497L168.832,247.51L168.476,247.766L167.486,247.408L166.167,247.919L163.963,247.485L163.832,247.574L163.489,247.664L163.449,247.51L162.961,247.497L162.591,247.28L161.338,246.269L161.404,245.975L161.087,245.412L161.008,245.221L160.876,245.016L160.837,244.952L160.823,244.683L160.705,244.248L160.731,243.762L160.058,243.148L159.887,242.739L159.807,242.624L159.728,242.176L159.755,242.125L159.926,242.01L159.939,241.895L159.992,241.741L160.203,241.536L160.296,241.319L160.19,239.784L160.098,239.669L159.636,239.515L159.847,239.362L160.665,238.709L160.375,237.622L160.348,237.353L160.678,236.995L160.705,236.752L160.771,236.483L160.691,236.368L159.372,236.291L158.818,235.549L156.892,235.012L157.076,234.065L156.456,232.184L156.245,231.685L156.72,229.036L157.947,227.616L158.105,227.168L157.749,224.954L157.617,224.723L157.38,223.201L157.024,223.009L155.876,222.1L155.625,221.934L152.393,220.794L152.221,220.794L151.786,219.924L149.741,219.348L149.398,217.121L149.398,216.699L149.266,215.739L151.073,212.999L152.802,213.908L154.847,211.911L155.163,211.271L155.071,210.388L155.005,210.106L154.926,209.837L154.952,209.748L155.348,209.568L157.842,209.812L158.541,209.3L158.554,209.044L158.818,208.672L158.963,208.685L160.23,207.968L160.757,208.89L163.04,208.877L165.745,206.586L166.497,206.368L169.571,207.277L170.217,207.571L172.817,208.736L173.714,209.85L176.445,210.273L176.827,210.439L177.606,210.541L177.975,210.477L178.806,210.247L179.004,210.145L179.941,210.349L180.482,210.49L182.039,209.504L183.82,209.325L186.182,209.786L186.789,210.465L189.005,210.9L189.15,210.823L192.079,211.822L193.874,211.924L194.283,212.026L197.199,211.988L197.74,212.014L201.104,211.77L201.962,211.002L205.432,209.965L207.49,210.042L207.688,210.285L208.083,210.695L208.229,210.9L208.532,211.694L210.735,212.782L212.279,212.794L213.335,212.91L216.884,212.026L217.134,211.911L217.187,211.886L217.372,211.924L217.754,211.694L219.364,211.271L219.668,211.156L219.997,210.925L220.552,210.58L222.28,209.556L223.692,209.773L224.127,209.722L224.536,209.645L225.275,209.632L226.251,209.312L226.766,209.044L228.178,208.071L229.299,208.506L229.985,207.994L230.249,208.058L230.856,208.109L236.279,206.214L236.648,206.125L237.4,205.792L237.769,205.536L237.783,205.331L237.031,201.81L236.991,201.515L236.965,200.555L239.551,198.288L239.88,197.994L240.461,196.905L240.896,196.598L241.516,195.65L241.833,195.023L242.242,193.806L242.308,193.268L244.92,191.155L246.24,188.478L246.556,188.261L247.097,186.903L247.374,186.288L247.612,184.7L247.137,183.829L247.071,183.368L247.388,182.305L250.937,180.332L254.169,177.744L255.172,176.527L256.412,176.027L257.481,174.554L258.154,174.413L258.55,174.003L258.391,173.657L257.877,172.645L257.204,168.878L256.9,168.301L257.019,166.033L257.481,164.982L257.758,164.354L254.842,161.381L253.998,159.638L252.678,158.971L251.135,157.421L251.465,154.28L251.596,153.55L253.958,150.447L254.196,150.268L254.723,149.909L254.473,148.089L255.502,146.755L258.273,146.037L258.497,144.973L258.629,144.909L260.99,144.204L261.413,143.858L263.695,141.73L263.933,141.486L264.737,140.383L265.146,140.14L264.751,138.691L262.376,137.46L261.531,135.895L261.334,135.344L259.882,134.087L260.146,132.125L260.225,131.933L260.515,131.15L260.384,130.612L261.043,129.009L261.083,126.456L262.02,125.199L262.785,121.967L262.811,120.068L262.943,119.799L264.21,117.451L266.624,117.182L266.98,117.195L267.297,116.759L267.68,116.489L268.023,116.412L268.207,116.309L269.105,115.925L269.355,115.809L272.535,115.078L276.585,115.873L277.694,115.193L277.971,115.065L278.393,114.937L278.776,114.873L279.013,114.924L279.237,114.962L280.491,114.244L280.781,114.09L280.873,113.012L280.979,112.781L281.586,111.178L281.586,110.844L282.272,107.893L282.892,106.995L282.166,105.75L282.035,104.236L282.866,100.925L282.628,100.411L282.364,99.988L281.969,99.616L283.288,97.562L284.515,94.597L284.766,94.533L288.275,93.814L288.777,93.391L289.054,93.301L289.74,92.916L290.149,92.903L290.703,92.543L290.914,92.351L291.956,91.966L292.972,90.682L291.323,88.526L291.336,88.128L291.31,87.653L291.006,86.87L290.676,85.727L292.933,83.942L293.223,83.326L293.236,82.543L295.73,81.131L297.63,79.513L298.105,79.012L298.645,78.511L298.83,78.37L299.727,77.715L299.767,77.638L299.701,77.369L299.477,77.009L298.949,76.405L298.817,71.654L298.289,70.306L298.487,70.01L298.514,69.304L298.487,68.533L298.329,68.045L300.756,66.055L301.759,64.757L302.577,64.693L303.039,64.449L303.211,64.308L304.226,64.243L304.609,63.974L305.942,62.702L306.377,61.148L307.683,61.045L309.359,58.887L308.752,57.23L309.517,56.164L309.807,55.74L310.837,54.211L310.784,53.157L310.942,52.9L312.195,51.012L312.09,49.367L312.723,47.504L312.855,47.273L313.159,45.821L314.148,45.859L314.333,45.859L317.262,45.448L317.671,45.371L318.977,46.245L321.748,48.93L322.289,49.316L323.608,51.603L324.677,52.643L324.967,52.721L325.099,52.721L325.416,52.631L326.999,51.59L329.981,50.858L331.709,51.5L331.933,51.474L333.464,50.087L333.82,49.753L335.971,48.288L336.195,48.403L338.134,47.864L338.53,47.44L340.654,45.525L340.945,44.343L341.024,43.855L342.106,42.261L342.779,40.179L342.093,38.174L342.132,37.737L342.066,36.979L342.37,36.696L343.478,35L344.032,33.02L345.008,31.902L345.061,31.722L345.048,31.452L344.863,30.861L345.602,29.588L347.898,28.303L349.112,26.825L349.283,27.185L349.376,27.21L349.903,26.799L352.041,26.388L353.914,27.622L355.906,27.879L356.091,27.969L358.704,29.91L359.178,30.295L359.231,30.347L359.469,30.655L359.706,30.822L360.656,31.992L360.801,32.159L363.031,34.447L363.097,34.524L367.293,34.537L368.414,34.717L369.641,35.141L370.802,34.447L372.913,31.709L377.716,30.193L380.183,27.956L381.014,25.963L382.439,25.076L383.679,25.192L386.582,26.593L386.714,26.683L388.06,27.647L395.026,29.383L397.48,30.18L398.272,28.431L399.67,27.146L399.868,26.992L401.57,24.112L403.351,23.893L403.562,24.061L406.346,22.634L408.813,22.428L409.565,22.325L410.502,22.955L411.795,22.569L412.31,23.225L412.679,23.418L414.764,24.691L415.476,24.871L418.709,25.385L418.946,25.282L420.648,24.858L422.047,25.655L422.1,25.488L423.089,24.523L423.59,24.151L424.91,23.893L425.108,24.176L425.847,24.446L426.295,24.459L427.72,24.986L431.177,23.829L431.744,24.871L432.021,25.089L433.248,25.269L433.882,25.308L434.198,25.333L434.489,25.372L435.241,25.59L435.531,25.655L436.877,25.925L437.998,27.429L439.66,26.259L439.911,26.143L442.101,26.747L442.326,26.966L443.5,27.686L444.265,26.632L447.075,24.305L446.482,22.235L447.366,19.316L447.075,19.059L447.695,17.979L449.688,18.481L450.664,18.223L450.862,18.211L452.102,17.825L453.276,15.935L453.514,15.896L454.899,15.202L454.926,14.134L454.728,13.8L454.715,11.087L454.912,10.881L456.43,10.418L458.039,9.261L458.316,9.209L459.108,8.836L459.108,8.27L459.003,6.02L459.438,5.634L460.137,5.029L460.256,4.914L460.52,4.463L460.705,4.077L460.718,2.431L461.272,2.225L461.509,2.187L462.367,2.328L462.446,2.212L464.372,1.222L464.583,1.106L465.507,0.566L467.869,0.527L468.687,2.418L470.362,4.219L470.732,4.18L473.08,5.004L473.45,5.518L473.74,5.634L473.938,6.457L473.938,6.881L474.954,7.19L475.231,7.267L475.482,7.396L475.587,7.563L476.906,7.82L477.368,7.55L477.751,7.499L478.74,7.692L478.886,7.859L479.334,7.64L479.664,7.293L481.432,5.042L483.174,4.09L483.965,2.74L484.189,2.495L484.902,1.685L485.192,1.595L486.525,1.724L486.828,1.788L489.15,0.952L490.562,1.325L490.826,1.312L491.261,1.891L491.881,2.277L494.283,3.795L494.942,4.142L497.792,5.801L498.742,5.441L501.17,1.621L502.779,1.363L503.07,1.081L504.64,0L508.031,0.283L509.139,0.9L512.002,0.798L512.213,1.003L512.226,3.383L512.925,6.663L514.179,7.923L514.258,8.399L514.35,8.682L516.686,9.402L517.187,9.685L517.306,9.788L517.57,10.071L517.847,10.585L517.86,10.894L517.939,11.704L518.295,12L519.206,12.707L520.525,12.206L521.778,12.836L522.056,12.964L523.283,13.736L524.51,13.453L526.489,13.864L527.663,16.025L529.418,17.182L531.911,16.218L535.17,16.59L536.239,17.323L536.74,17.413L537.07,17.426L537.479,17.311L537.756,17.272L538.244,17.105L539.801,17.156L540.078,17.041L541.516,16.539L545.329,17.722L545.752,18.211L546.042,19.419L546.147,19.741L546.081,20.281L548.799,23.765L549.894,23.842L550.567,23.868L553.364,23.778L553.734,23.495L556.267,22.209L559.816,22.248L560.872,21.014L564.038,21.605L564.83,21.091L564.948,20.975L566.307,24.112L567.68,23.945L568.075,24.035L570.292,23.971L570.78,23.495L570.991,23.495L571.651,23.675L572.06,23.572L573.709,24.022L575.002,23.199L577.839,23.456L578.446,23.546L581.968,21.039L583.275,19.754L585.016,20.114L587.602,19.548L588.724,20.834L589.819,23.148L591.732,24.588L593.909,24.948L595.149,28.11L595.426,28.444L597.511,30.527L597.972,31.247L599.358,32.815L600.413,35.244L601.97,37.455L601.904,39.472L604.464,40.012L606.285,39.909L607.248,40.899L609.886,40.822L610.836,40.115L611.945,41.426L614.095,45.512L614.874,45.872L617.051,45.088L619.346,47.157L619.439,47.003L620.138,45.769L621.642,44.6L621.853,43.855L623.977,43.302L624.334,42.325L625.27,42.621L626.986,42.647L628.318,43.174L628.978,43.148L629.163,43.084L629.611,42.724L631.181,43.071L633.82,40.732L635.364,37.468L635.245,36.362L636.05,34.717L636.208,33.098L635.773,31.812L636.195,30.54L635.364,27.982L638.055,26.555L638.227,25.333L641.486,24.562L642.304,24.446L646.539,23.572L646.935,23.533L648.966,21.785L650.761,22.402L650.682,23.893L651.552,26.195L652.027,26.927L651.869,28.033L654.415,31.427L655.656,31.851L656.962,31.375L658.532,31.697L661.382,31.504L662.662,30.732L665.287,30.051L666.079,30.013L667.213,28.856L667.49,28.611L670.182,28.2L670.565,28.83L671.805,32.172L671.844,34.987L670.538,36.439L670.288,37.905L672.728,40.244L673.441,41.683L675.934,43.122L675.578,45.384L675.618,47.825L677.491,49.984L679.642,50.472L681.12,54.571L680.935,56.896L681.014,61.186L681.238,61.636L680.315,64.192L679.972,67.21L680.922,68.829L680.961,69.342L681.014,69.484L681.278,70.036L681.172,71.436L681.225,71.667L682.267,73.08L682.202,74.287L682.149,74.736L682.386,75.751L684.313,76.393L685.21,79.256L684.299,81.362L683.772,83.801L684.444,85.599L684.616,85.817L685.711,86.651L685.922,88.025L684.352,88.885L683.6,90.541L683.64,91.863L683.547,92.197L683.125,93.673L683.508,94.726L683.31,94.944L680.671,96.317L680.275,96.689L681.04,98.486L684.326,99.551L687.202,99.051L687.453,98.679L690.725,98.615L692.809,97.703L692.981,97.601L694.564,97.28L696.543,97.613L698.43,96.497L701.187,97.023L703.721,95.958L705.818,95.817L707.085,96.317L708.206,95.752L709.776,95.842L712.811,96.83L712.89,96.92L712.89,97.087L713.128,97.498L713.708,98.306L715.16,98.833L715.674,99.102L716.716,100.142L718.986,101.348L719.25,101.04L724.527,100.463L724.817,100.244L725.094,100.026L725.754,99.808L727.1,100.578L728.736,100.899L730.346,101.772L730.398,104.146L730.834,105.852L729.607,106.366L727.931,108.663L729.039,111.46L729.897,112.666L730.636,113.346L728.934,115.347L731.071,117.49L731.836,117.413L733.947,118.939L734.383,119.773L733.618,120.376L733.116,120.774L732.034,122.044L728.841,123.288L728.432,123.545L725.807,126.7L724.883,126.828L723.445,128.124L722.508,127.726L719.962,129.188L719.553,130.932L721.018,131.599L721.704,133.407L721.73,133.702L720.78,135.511L721.295,137.139L722.403,138.768L724.382,138.242L726.15,139.434L729.277,139.858L730.887,141.05L730.834,141.306L728.419,143.922L729.079,145.371L728.604,146.32L729.633,147.037L730.161,147.243L731.032,147.871L731.493,147.755L731.836,147.781L732.852,148.948L733.195,149.383L734.62,150.55L735.109,152.46L736.243,154.434L735.544,155.472L735.913,157.139L737.325,157.677L737.51,157.741L738.103,158.805L738.235,159.048L739.133,160.727L738.552,162.611L738.473,163.316L738.816,164.495L739.278,164.764L739.37,164.764L741.323,164.149L741.705,164.072L743.012,163.009L743.302,162.983L743.909,162.65L744.08,162.457L745.32,162.265L745.65,162.176L745.901,161.958L746.086,161.637L747.339,161.496L747.959,161.355L749.701,161.663L750.572,162.65L750.915,162.842L752.511,163.688L752.722,163.906L753.659,166.251L755.598,167.673L755.783,167.917L756.113,167.942L756.984,168.404L757.116,168.634L758.25,168.429L758.752,167.186L759.979,167.442L762.143,168.814L765.837,168.609L767.565,166.84L770.85,167.801L771.167,166.481L772.447,164.867L774.558,165.418L776.313,164.982L776.431,165.264L778.318,165.315L779.057,166.033L781.762,166.34L782.289,166.956L782.052,168.698L783.662,168.327L783.939,167.609L786.459,168.429L785.627,169.07L786.089,171.082L785.482,172.632L784.374,172.248L784.348,170.454L783.754,173.67L784.915,174.618L782.553,174.823L783.701,175.489L783.53,176.514L782.619,176.629L781.788,174.503L780.06,174.861L781.181,176.399L779.479,177.911L779.677,178.974L777.474,179.973L776.471,183.521L776.656,184.866L778.239,185.071L778.938,185.904L777.962,186.98L777.672,187.236L776.405,187.8L775.917,189.055L774.69,189.759L771.009,194.306L770.23,196.995L769.003,199.441L768.607,199.326L766.51,201.707L763.317,206.586L762.433,209.069L761.219,210.311L758.989,214.139L758.356,216.391L758.382,219.681L758.673,221.153L756.06,225.363L755.651,228.089L754.279,230.047L751.416,234.858L748.513,241.511L747.906,242.317L746.165,246.372L745.637,249.531L745.875,250.721L747.088,252.524L746.785,255.734L746.165,258.215L744.925,260.542L743.79,261.732L743.407,262.985L743.289,266.36L742.26,267.613L741.811,269.275L742.51,270.541L741.164,272.024L740.571,275.028L740.755,278.351L740.32,279.719L740.373,282.799L739.304,286.557L738.447,287.694L737.879,291.157L737.84,293.943L736.89,295.285L736.19,297.533L736.375,298.606L735.293,301.047L735.781,301.826L735.531,303.844L735.768,306.604L734.95,310.755L734.607,317.843L733.538,320.781L733.077,323.628L730.794,326.348L729.514,324.828L727.957,320.308L727.047,318.495L727.337,317.677L725.992,314.753L725.583,315.187L724.699,313.693L723.498,313.412L724.065,312.76L723.089,310.908L721.651,309.312L720.793,307.319L721.308,306.335L717.653,304.228L717.073,302.248L715.489,302.043L714.896,301.072L715.542,300.293L713.946,298.977L711.188,298.057L707.375,298.019L706.425,299.692L704.961,300.51L703.114,300.651L702.955,299.59L701.715,298.249L702.705,294.837L702.507,292.601L701.741,290.876L701.517,288.154L700.963,285.892L699.103,282.966L697.863,282.122L691.516,278.863L690.355,278.569L689.603,277.099L688.323,275.999L687.149,272.804L686.133,271.589L684.867,268.853L682.373,265.759L681.146,265.235L678.415,262.269L676.924,261.591L673.705,260.875L672.728,261.629L671.937,259.89L670.776,258.867L670.433,257.767L671.976,254.813L671.369,253.79L672.214,250.49L671.422,248.482L671.581,246.819L670.301,244.658L669.681,241.05L668.322,239.374L665.472,237.66L662.965,236.611L663.044,235.741L664.086,236.189L664.456,235.459L662.635,234.487L662.371,235.958L659.416,234.461L654.93,232.798L652.252,232.222L650.18,230.751L648.834,229.023L646.183,228.064L644.731,226.886L640.324,225.248L638.425,225.056L637.791,223.124L634.77,221.076L632.329,215.675L631.3,214.484L631.564,211.246L632.461,210.503L632.474,208.365L629.229,203.077L627.183,201.528L623.225,199.876L618.845,198.647L613.673,196.918L609.055,195.996L610.454,195.65L607.987,194.959L607.802,195.407L605.427,194.421L599.45,193.601L595.307,192.782L592.273,192.526L589.66,192.603L587.22,191.616L585.953,189.132L580.623,188.069L575.055,187.543L562.6,187.108L559.275,188.005L557.296,187.748L556.65,186.903L553.655,185.417L551.768,185.315L552.032,183.317L551.003,182.305L551.807,180.972L552.652,181.331L552.467,179.768L551.306,179.768L550.765,178.679L548.997,177.155L544.907,176.335L541.925,176.027L532.571,176.591L526.818,177.411L525.921,176.822L525.723,178.128L524.101,177.68L521.369,178.372L515.881,179.23L509.297,180.421L504.191,181.831L499.877,182.612L495.919,183.65L491.327,184.559L484.572,186.429L482.29,187.633L482.949,188.952L481.194,191.245L480.258,191.54L479.453,189.157L478.279,189.273L476.656,190.438L473.674,194.818L470.982,195.138L470.376,194.357L472.209,191.181L471.233,189.644L473.212,190.118L474.861,188.069L474.07,187.159L473.225,187.941L471.233,188.312L471.484,179.883L472.104,177.616L473.239,177.232L472.922,176.399L474.057,175.861L473.186,173.99L471.761,173.631L469.426,174.285L469.531,175.707L468.779,176.014L466.074,174.977L466.51,176.232L465.718,177.039L467.341,177.001L469.703,177.693L469.505,180.678L468.41,180.69L464.188,182.907L463.33,184.072L464.293,185.302L463.937,186.813L464.847,188.799L466.457,190.656L468.41,190.848L469.056,191.437L467.776,193.525L468.608,194.639L468.159,195.471L468.766,196.713L469.861,196.252L470.494,197.546L472.236,196.867L472.579,196.201L476.524,195.33L476.234,196.637L474.65,198.071L470.917,199.313L462.341,202.45L454.556,205.984L451.759,207.482L449.529,208.327L447.009,210.298L446.231,211.591L443.157,212.718L438.671,214.663L436.903,215.675L435.425,217.031L434.251,217.07L431.625,218.273L428.38,220.244L426.374,221.959L425.385,223.354L424.501,221.498L423.01,221.601L422.601,220.193L421.268,220.346L418.722,221.665L417.614,223.52L416.928,227.001L416.281,227.488L414.051,227.68L411.228,226.413L411.109,223.354L411.861,221.575L410.014,221.37L408.747,222.202L408.8,224.391L407.652,224.096L405.515,224.608L403.641,222.458L403.074,222.983L403.628,224.327L402.005,223.7L400.303,223.636L399.367,225.056L401.61,225.44L401.649,227.373L402.414,226.438L404.446,226.656L403.826,228L404.116,229.574L403.364,230.38L401.557,229.586L400.792,230.802L400.053,230.636L400.303,231.89L397.361,232.401L397.559,233.105L395.488,232.414L396.227,231.659L396.081,230.61L395.158,230.469L394.168,231.301L392.163,231.365L391.305,232.171L390.223,231.365L388.416,231.16L387.466,232.491L385.869,232.35L385.962,233.451L384.484,235.856L382.307,236.381L380.473,237.634L380.434,238.504L381.595,239.31L381.977,238.696L385.368,239.144L386.252,240.884L383.653,242.189L385.5,242.88L386.635,242.355L386.899,243.251L388.416,240.833L387.743,239.605L388.772,238.133L387.875,236.803L388.548,235.28L388.192,234.743L389.722,233.873L389.946,235.715L392.005,235.408L391.714,237.302L392.875,237.558L391.939,238.888L392.506,239.784L393.258,238.837L393.495,240.04L394.498,241.063L395.105,240.59L394.96,237.929L394.379,236.393L396.477,235.421L396.055,236.291L398.232,237.98L398.074,235.728L398.522,234.948L400.053,234.218L400.963,236.355L401.794,237.225L402.032,239.272L403.035,238.76L402.283,236.521L402.164,234.909L403.483,233.425L405.212,234.602L405.489,233.566L404.143,232.9L405.528,231.57L405.858,229.561L406.716,229.625L408.55,226.566L410.318,228.14L409.79,229.049L410.727,229.407L411.518,231.877L413.088,231.16L414.078,231.467L414.592,232.747L415.384,232.977ZM421.875,222.113L419.936,223.021L420.028,222.279ZM367.2,270.771L368.216,271.973L369.179,272.228L368.177,273.328ZM362.226,267.703L363.071,267.856L363.453,268.994L361.633,269.007L360.63,268.444ZM359.482,264.89L360.313,265.81L359.442,266.795L360.274,267.626L359.838,268.265L358.044,267.728L357.793,266.245ZM14.518,579.513L16.22,581.125L15.771,582.598L13.911,582.966L12.71,584.236L11.747,583.487L13.066,582.611ZM38.227,573.647L40.219,575.069L41.13,577.672L43.544,576.986L43.927,578.078L43.663,579.983L45.338,580.046L47.568,581.1L49.019,583.88L47.238,586.876L47.291,588.729L48.835,591.141L49.376,592.702L48.782,594.555L41.921,597.589L39.507,598.211L39.309,599.175L36.564,600L35.918,598.591L36.881,596.84L38.069,595.685L39.744,595.444L40.338,594.302L40.259,592.931L39.322,591.7L36.512,589.529L36.551,588.869L33.649,586.851L33.794,585.721L35.733,586.28L37.29,584.997L36.789,584.16L37.686,582.446L39.243,581.824L38.082,581.278L37.58,579.919L38.9,577.875L37.62,576.225L37.739,574.206ZM13.515,547.126L16.695,548.397L17.908,548.117L18.924,548.727L16.154,550.988L17.579,551.509L17.117,552.627L16.51,552.182L13.621,552.157L11.035,552.881L10.269,551.204L11.773,550.594L11.734,549.947L13,548.879L12.486,547.634ZM102.045,490.933L104.275,491.913L104.935,491.124L106.003,492.154L105.739,493.223L104.446,494.368L102.137,495.258L100.792,493.897L99.261,493.935L98.496,492.612L98.615,491.099ZM85.777,490.984L87.097,491.925L85.381,493.477L83.904,493.007L84.524,491.747ZM88.126,489.725L89.564,491.697L88.073,491.468ZM105.502,489.012L105.739,490.577L104.935,489.063ZM101.029,487.091L101.28,488.682L100.501,487.74ZM788.279,175.656L789.388,176.271L787.62,176.399ZM789.625,175.22L789.731,175.348L789.625,175.22ZM61.976,577.05L62.754,577.278L63.097,578.764L61.184,578.7L60.524,578.002ZM73.797,564.91L72.504,566.421L73.243,567.679L70.934,567.64L69.034,568.148L68.982,567.196L70.05,565.405L73.665,564.44Z"
          fill="#e0e0e0"
          stroke="#333333"
          stroke-width="1"
          stroke-linejoin="round"/>
  </g>
</svg>