<?xml version="1.0" encoding="UTF-8"?>
<svg xmlns="http://www.w3.org/2000/svg"
     viewBox="148.63529980220483 -20 502.7294003956049 639.9999999999982"
     width="502.7294003956049"
     height="639.9999999999982">
  <title>福岡県</title>
  <desc>都道府県コード: 40</desc>
  <g id="40">
    <path d="M629.354,304.967L628.187,307.066L627.417,308.442L626.064,311.819L626.486,314.582L626.275,315.293L625.965,315.86L624.835,316.825L624.227,318.489L624.19,318.863L624.165,322.373L624.401,323.494L625.183,324.833L628.932,328.137L629.59,328.475L630.893,330.766L631.365,332.441L630.657,336.589L630.471,337.24L630.024,339.639L629.751,340.097L626.337,343.46L626.275,343.785L625.828,344.521L621.819,347.245L621.695,348.136L623.06,349.992L623.011,350.426L622.353,353.09L622.949,354.295L624.786,354.957L626.077,357.042L625.518,357.873L621.993,358.331L621.546,357.97L620.453,356.958L617.536,357.211L617.003,358.102L615.203,358.018L614.408,358.584L613.589,358.163L611.777,358.789L608.599,358.247L607.196,358.777L607.171,359.428L607.221,359.85L603.435,359.946L603.062,359.946L601.771,359.681L600.046,358.235L599.885,357.873L598.842,357.5L598.184,357.355L597.352,357.295L596.806,358.247L595.763,358.464L595.664,358.488L593.988,358.813L593.616,357.861L592.548,357.476L586.851,358.44L586.242,358.175L585.684,358.38L584.666,357.62L583.052,357.765L582.854,357.632L582.134,356.596L580.371,356.15L578.67,356.656L578.186,356.922L576.486,357.235L575.679,356.199L575.406,356.211L574.251,355.705L572.824,356.211L572.774,356.15L572.104,354.295L570.093,352.885L569.994,352.764L569.497,351.86L567.114,351.981L565.438,354.837L564.817,354.596L564.73,354.596L562.93,354.969L561.242,356.669L561.068,356.644L559.033,356.15L558.499,355.933L555.755,355.174L554.229,356.162L551.895,357.018L551.212,356.584L550.976,356.813L548.841,357.464L548.593,357.524L547.873,357.271L547.439,357.428L545.899,357.608L544.112,358.548L543.131,360.705L541.877,361.03L540.239,362.115L539.829,364.091L538.166,364.801L537.992,364.862L536.987,365.5L536.54,365.813L535.236,366.897L532.158,367.897L531.674,369.126L527.13,376.967L527.428,377.004L527.428,377.618L526.895,379.882L525.715,381.327L525.231,381.291L521.495,382.676L521.048,383.483L520.415,384.277L519.422,385.072L517.858,384.916L517.113,385.397L515.325,385.349L515.177,385.445L515.003,385.987L513.24,386.794L514.022,387.986L514.27,390.322L513.426,392.886L511.887,394.584L511.639,396.209L512.222,399.351L511.601,400.603L511.291,401L510.993,402.444L511.75,404.84L511.862,405.261L512.011,405.838L511.763,406.055L510.162,406.392L509.888,407.957L510.261,408.679L509.615,412.217L509.466,412.722L509.255,413.48L509.752,418.089L509.764,418.305L509.702,418.726L509.206,419.039L506.798,419.364L506.45,419.845L506.313,419.545L505.916,419.316L505.817,419.316L503.682,419.725L503.247,419.821L500.951,419.797L500.752,419.797L500.479,419.833L500.194,420.098L499.896,420.664L499.846,420.82L499.461,421.397L499.35,422.564L499.325,422.757L499.176,423.383L499.201,423.635L499.511,425.704L499.796,426.21L499.821,426.955L499.685,427.28L499.3,427.617L499.176,427.677L496.271,429.722L494.955,431.394L492.944,432.224L492.795,432.224L492.286,432.537L492.15,432.681L492.311,433.403L491.293,434.87L489.369,435.94L490.3,437.792L492.063,439.236L492.671,440.655L492.82,440.775L493.528,440.378L492.783,439.272L493.366,438.225L493.788,438.261L494.186,438.358L495.266,439.031L495.464,439.236L496.979,442.615L498.133,443.901L496.966,444.984L496.892,445.32L496.917,445.464L496.979,445.729L497.661,447.028L498.357,449.516L498.53,449.913L498.865,450.526L498.965,450.743L499.995,452.366L499.983,452.534L500.094,453.123L500.094,453.4L500.442,454.457L500.33,454.758L499.809,455.792L501.298,458.581L501.274,459.061L501.783,459.999L501.323,461.201L501.199,461.321L501.087,461.574L500.938,461.742L498.53,463.641L498.071,463.965L496.37,466.585L496.284,466.946L496.135,467.643L496.37,467.775L496.805,468.28L497.277,468.556L497.81,468.568L498.245,470.251L498.245,470.587L498.617,471.5L498.766,471.765L499.548,472.666L502.205,472.053L502.279,472.137L502.354,472.798L502.316,472.954L502.341,474.288L500.777,475.346L497.748,474.949L497.537,474.841L497.363,474.673L497.239,474.649L497.003,474.793L496.817,474.781L495.787,475.706L494.719,475.406L493.751,476.739L493.391,477.052L491.902,477.244L491.442,477.112L491.368,477.1L491.082,477.112L490.338,476.739L489.332,477.316L488.438,476.559L487.172,476.98L487.023,476.98L486.477,477.364L486.142,477.652L485.943,478.157L485.807,478.385L485.186,478.986L485.223,479.178L485.124,480.175L485.968,482.65L486.216,483.119L485.298,484.981L485.732,487.011L487.867,488.488L490.015,488.548L491.033,488.669L494.359,488.765L494.657,489.017L496.234,489.161L499.052,490.662L498.257,492.368L497.078,491.9L495.613,493.197L494.446,493.113L493.18,493.677L493.193,494.59L493.155,494.662L492.92,494.854L491.889,496.151L491.691,496.187L491.318,496.151L490.747,496.487L489.916,498.349L489.816,499.514L491.12,499.85L492.075,500.846L492.51,501.075L494.099,503.08L495.042,503.644L495.464,503.704L496.619,504.425L497.066,504.665L498.766,505.505L500.69,507.883L503.061,507.498L503.409,508.087L503.657,508.495L504.178,508.555L504.389,508.651L505.159,509.696L509.069,510.452L510.199,511.136L509.69,511.88L509.864,513.561L509.851,513.897L509.504,515.902L506.351,516.898L506.574,517.582L504.625,519.923L505.867,521.459L506.003,523.956L506.14,524.232L506.86,525.324L507.071,527.028L506.338,528.024L503.744,529.632L503.545,532.332L502.962,533.328L502.838,534.996L502.006,536.435L502.167,537.335L502.13,537.623L501.708,539.507L501.1,540.107L501.075,540.382L500.914,540.826L500.814,541.054L500.417,541.486L500.181,541.534L499.896,541.654L499.685,541.642L499.002,542.122L499.871,543.957L497.475,546.069L497.239,546.428L496.544,547.952L496.234,548.072L495.849,548.288L492.87,548.731L491.926,549.727L491.653,549.739L491.157,550.387L489.866,549.811L485.881,549.163L485.248,549.559L484.478,549.439L483.932,549.427L483.386,549.187L483.411,548.504L483.746,548.252L483.796,547.316L482.654,545.913L480.568,545.133L479.96,544.377L478.148,544.749L474.833,542.518L473.902,542.53L471.78,540.97L471.395,540.898L469.88,541.306L469.707,541.342L467.832,540.502L466.268,541.234L465.002,540.322L463.599,540.706L462.569,539.075L461.663,538.643L461.253,538.547L460.248,536.615L459.751,537.179L459.478,537.119L458.671,537.263L457.256,536.315L456.797,534.444L455.146,533.748L453.396,531.888L452.725,531.66L452.241,531.852L450.243,530.184L449.858,528.768L449.783,528.504L449.523,528.168L449.51,527.868L449.262,527.544L449.051,527.4L448.046,526.272L447.723,526.212L443.974,527.568L443.155,527.028L442.733,527.172L442.112,526.512L441.764,526.344L440.126,525.912L438.984,527.592L437.767,527.616L437.06,527.664L436.042,526.812L435.719,527.34L434.478,526.752L434.118,526.74L432.777,527.712L432.603,527.82L431.735,527.436L432.07,525.036L432.045,524.7L432.492,523.824L430.121,520.643L430.133,520.151L429.736,519.767L429.028,519.263L428.433,518.987L427.204,518.303L426.608,519.767L426.384,520.067L426.732,521.747L424.51,523.104L424.274,524.004L422.214,525.24L421.779,528.18L421.878,528.564L422.201,530.052L421.816,531.108L421.791,531.612L422.834,533.724L422.276,534.828L420.488,535.823L419.892,539.303L419.247,540.538L419.383,543.681L419.123,544.929L418.13,545.109L417.683,544.953L417.149,544.965L417.236,546.596L418.639,546.86L419.147,547.748L417.745,548.252L415.56,547.352L414.517,548.384L413.735,548.264L413.512,546.572L413.475,546.464L412.407,546.536L411.923,546.512L411.327,545.925L409.639,546.8L408.646,545.913L407.119,546.968L403.631,546.992L403.42,547.052L401.508,548.216L398.852,547.628L398.653,547.496L398.045,547.328L397.871,547.1L395.686,545.253L393.117,546.009L391.193,545.661L389.716,544.737L389.492,544.677L389.256,545.037L388.698,545.205L387.369,544.677L387.258,544.725L386.004,545.169L383.695,548.072L383.621,549.103L380.021,550.315L380.244,551.226L379.76,554.021L379.773,554.272L380.629,555.412L380.803,555.46L381.25,556.911L381.25,557.151L381.548,558.47L380.306,558.817L379.375,558.925L378.382,559.033L378.072,559.009L376.284,560.436L375.341,559.669L374.795,560.113L374.509,560.472L373.951,561.587L373.02,560.772L371.853,560.904L371.294,561.983L369.457,562.786L369.432,564.837L368.787,565.148L368.576,566.755L368.737,567.127L367.831,568.134L368.017,568.038L367.881,569.501L365.311,568.242L364.889,568.517L361.972,568.805L361.922,569.021L360.731,570.567L356.932,572.342L356.808,573.433L354.003,575.326L353.332,576.801L354.636,579.21L355.43,579.965L355.641,580.181L357.106,582.47L357.131,584.903L357.044,585.334L357.267,586.353L357.267,586.557L358.385,588.762L360.135,589.492L360.222,589.924L360.52,590.799L360.582,591.278L360.47,592.009L361.624,593.327L361.686,594.201L361.624,594.297L361.029,594.381L360.122,596.574L359.229,596.514L358.931,596.43L358,597.221L358.099,597.772L357.689,598.73L357.466,598.598L356.994,597.748L354.859,596.921L351.694,598.562L348.901,599.233L348.727,599.018L347.014,598.347L346.232,599.197L337.716,598.143L335.594,598.155L334.737,598.802L332.255,598.538L332.044,598.275L329.834,597.592L325.254,597.544L322.026,598.562L321.12,598.862L320.698,598.107L314.032,600L313.573,598.982L313.995,597.736L319.196,595.471L320.536,596.19L323.069,596.238L321.281,592.045L319.208,594.07L318.439,591.745L324.583,585.921L323.044,582.818L324.149,578.527L324.285,575.602L325.44,574.751L322.411,565.724L321.269,563.518L321.318,562.235L320.263,561.432L320.747,559.489L319.469,558.038L318.811,558.218L311.14,555.304L310.432,553.817L313.995,549.715L314.404,548.563L310.606,546.848L304.672,542.938L304.436,541.21L306.149,538.835L305.38,537.491L305.479,536.099L304.821,535.368L305.144,533.544L304.672,532.608L302.016,533.688L297.671,533.052L297.746,530.928L297.721,526.632L296.691,522.347L296.393,520.235L296.206,519.143L296.206,518.903L296.219,518.375L296.604,513.909L294.109,513.153L293.091,510.968L292.83,510.752L292.383,510.14L291.576,510.092L291.105,503.656L291.763,501.207L293.103,500.33L296.231,500.354L298.615,499.418L300.278,497.244L301.892,496.403L302.301,496.187L306.584,494.554L306.77,494.266L306.969,490.626L305.268,488.885L304.61,488.801L303.605,487.335L303.406,485.569L304.387,484.584L304.511,484.272L304.685,483.395L305.07,483.347L306.149,483.587L306.82,484.765L307.292,484.801L309.278,485.209L309.501,485.197L310.308,484.224L311.649,482.11L311.735,481.425L311.028,478.854L310.929,477.28L311.363,476.355L313.064,475.586L315.236,476.211L315.819,477.184L315.807,479.719L315.906,480.007L316.105,480.908L316.167,481.317L319.32,480.848L319.879,480.608L321.294,479.419L322.163,477.893L323.143,475.129L322.398,473.519L322.2,473.099L322.225,472.161L322.411,471.669L323.354,470.419L323.677,470.239L325.241,470.287L325.862,470.827L327.227,468.917L327.165,467.691L327.711,466.081L327.277,463.364L326.06,462.199L325.986,461.838L327.55,460.528L328.841,460.384L330.728,461.85L330.455,463.28L330.244,463.653L330.442,464.855L329.697,465.72L329.362,468.304L329.822,471.224L330.964,473.111L332.317,473.976L334.179,473.988L335.408,473.315L335.569,471.092L334.539,468.58L334.824,467.102L336.512,464.927L339.814,464.53L341.267,464.013L342.098,463.593L342.371,463.328L341.999,461.574L341.602,461.273L341.279,461.141L338.3,460.011L337.207,458.124L338.114,455.563L339.727,454.71L342.011,454.506L346.294,454.698L347.213,454.662L349.199,453.965L349.509,453.003L349.77,452.149L350.303,450.695L351.11,448.975L351.098,448.518L350.974,448.23L349.459,447.28L349.137,447.112L347.275,445.957L346.12,444.334L347.25,442.05L347.411,441.905L348.963,441.027L350.142,441.124L351.458,442.579L352.749,443.336L355.095,444.539L357.379,442.338L357.751,440.667L357.801,438.189L358.012,437.083L358.509,436.301L360.147,435.7L363.126,437.408L366.031,437.54L367.297,436.445L368.427,434.702L369.693,436.217L370.487,430.323L371.058,428.639L371.605,425.139L372.064,423.647L372.151,422.023L372.014,417.511L372.039,416.549L372.064,415.045L372.027,411.519L371.729,398.761L370.252,396.329L370.19,394.945L369.37,392.453L369.432,391.02L370.103,390.599L368.601,389.009L367.123,388.528L364.628,387.095L364.033,386.866L362.344,386.999L361.885,386.18L359.762,385.397L359.887,386.457L359.266,387.613L359.167,387.95L356.734,386.445L356.585,386.553L356.076,387.047L355.592,387.119L355.045,387.348L354.611,387.336L353.27,387.733L353.034,388.66L351.88,389.599L351.805,389.852L350.552,389.587L349.248,390.719L349.075,390.815L347.349,391.622L346.12,390.478L345.077,391.935L342.955,393.127L341.999,394.379L339.144,396.185L338.97,396.618L338.536,397.064L338.635,399.351L336.339,399.447L335.544,399.929L335.172,399.905L334.005,400.025L331.795,402.107L331.249,403.564L331.82,404.033L330.839,406.212L330.616,406.392L330.144,406.597L330.604,408.438L330.666,408.763L329.673,409.473L327.376,410.183L327.14,410.279L326.942,410.352L326.718,410.412L324.471,409.654L324.161,409.666L322.945,408.39L320.834,409.714L320.685,410.833L319.73,411.302L318.836,410.171L318.575,409.786L318.426,407.933L319.717,407.138L320.822,405.405L320.971,405.237L321.554,404.382L321.418,404.093L322.051,403.985L321.815,403.804L320.996,403.66L317.247,401.144L315.795,398.568L314.888,398.556L314.975,397.196L313.846,395.739L313.66,396.052L310.842,396.317L309.7,395.499L308.98,395.631L306.559,396.907L305.901,394.921L305.467,394.463L303.58,393.019L302.798,391.55L302.301,392.585L301.333,392.621L301.11,392.525L300.588,392.32L300.477,392.381L297.46,392.898L297.274,392.706L293.525,387.36L292.619,387.613L289.913,387.264L289.826,385.975L289.106,384.615L287.07,383.543L286.834,383.326L284.55,382.086L283.222,380.785L281.819,380.833L281.658,380.893L280.963,381.158L280.466,379.617L280.33,379.557L278.257,378.846L278.009,378.798L276.618,379.593L276.358,379.605L273.726,378.485L271.678,375.582L270.163,375.149L269.965,374.872L269.89,374.715L269.779,374.583L266.75,372.378L266.837,372.113L266.179,371.234L263.82,370.632L261.201,371.824L260.531,371.547L259.066,372.282L258.818,372.318L257.477,373.487L257.067,373.968L256.335,374.932L253.952,374.691L253.53,373.727L253.294,373.475L252.462,373.089L250.948,373.342L250.675,373.462L249.793,371.547L248.713,371.114L248.502,371.258L246.107,372.186L244.729,371.427L244.058,371.728L240.508,370.27L238.956,370.174L238.472,370.005L236.946,369.849L236.027,370.584L234.922,370.03L234.674,370.644L234.599,370.825L234.699,371.909L233.855,371.523L233.209,372.463L231.831,372.378L231.72,372.619L230.863,373.137L230.789,374.342L230.838,374.643L229.957,375.088L229.994,376.124L228.517,377.004L226.469,376.979L226.096,377.148L225.339,376.642L224.954,376.654L222.943,376.534L222.856,376.498L221.354,375.787L220.982,374.269L220.436,374.197L218.959,372.595L218.624,372.764L218.487,372.74L218.115,372.174L214.813,371.897L213.795,373.246L212.429,373.33L210.927,375.185L207.551,373.125L207.315,372.728L204.683,372.764L204.274,372.812L204.162,372.836L203.566,372.595L202.325,372.932L201.431,372.92L199.135,372.439L198.502,371.656L196.677,372.571L195.796,374.98L195.187,375.329L192.891,375.895L190.855,375.907L190.507,375.715L190.259,375.655L190.036,375.691L187.218,376.148L186.523,375.558L186.287,375.45L184.847,375.799L182.662,374.197L179.671,375.221L178.243,374.896L176.431,375.799L176.269,376.028L175.972,375.667L173.402,376.618L171.043,375.39L171.739,375.028L172.359,371.21L173.601,368.921L173.365,368.439L174.978,367.042L175.425,365.621L174.221,363.982L173.154,363.801L173.936,362.597L174.805,363.307L178.057,362.85L180.577,361.982L181.694,360.898L183.693,359.777L186.771,359.356L187.491,358.56L188.993,358.018L189.825,358.621L191.438,358.428L193.276,357.645L194.865,356.524L195.51,355.114L194.815,354.5L195.907,353.367L197.608,354.246L196.528,355.126L198.154,356.5L199.47,355.849L201.096,357.319L203.095,357.295L206.136,356.199L207.625,354.475L208.842,351.897L208.817,350.824L207.961,349.944L205.428,349.269L205.292,348.703L206.794,348.353L206.98,347.389L209.289,347.269L212.28,345.4L212.665,344.292L213.869,344.34L214.751,343.556L216.96,343.243L217.233,340.507L219.058,339.253L218.822,337.77L220.448,337.553L221.503,334.636L221.044,331.742L217.668,332.224L215.607,334.238L214.465,336.239L213.124,336.42L212.193,337.915L210.629,335.154L209.711,334.358L207.874,334.021L207.7,334.431L205.875,333.768L205.441,335.275L204.745,335.311L203.541,337.999L201.791,338.59L202.101,337.348L201.27,336.878L202.449,336.251L202.188,335.154L203.504,333.056L204.969,331.754L205.987,331.441L206.322,332.695L207.278,333.237L208.879,332.405L209.76,328.993L208.184,328.113L207.563,328.897L205.888,326.244L203.293,325.231L201.568,326.533L200.041,326.666L198.874,327.317L198.08,328.969L195.969,330.5L194.567,330.066L194.852,327.474L194.331,325.4L192.717,324.954L190.719,323.711L190.309,322.843L190.979,321.046L192.245,320.13L194.678,319.888L196.404,319.008L197.918,320.371L198.998,319.105L197.968,317.392L198.291,314.654L200.252,315.522L202.461,317.09L204.497,317.814L206.62,317.923L210.443,317.114L212.678,316.186L214.912,314.654L217.966,311.735L219.691,309.081L220.188,306.982L219.666,305.606L218.586,305.787L217.097,302.795L217.941,301.806L218.09,299.67L222.124,297.39L222.832,298.512L225.513,298.705L227.362,297.305L229.162,297.402L232.824,294.892L233.482,294.856L235.866,292.587L235.468,291.404L237.07,291.247L238.385,290.125L239.006,286.757L238.336,286.081L237.951,282.388L238.485,280.867L239.813,280.818L241.303,282.617L242.147,282.774L244.009,284.573L246.839,285.647L247.757,286.419L248.465,288.507L250.166,289.437L250.054,290.909L247.993,292.852L247.05,292.816L247,294.747L245.511,295.23L245.002,296.46L245.337,297.655L247.472,300.334L247.112,302.059L248.316,303.942L248.006,304.786L248.974,305.727L250.538,306.427L254.026,307.44L256.335,307.778L260.369,307.838L261.809,306.934L264.726,307.501L265.409,308.369L264.987,309.793L265.533,310.878L264.813,311.542L263.684,314.895L262.678,314.871L261.189,313.689L261.226,312.76L260.394,311.723L255.665,313.086L256.05,314.666L259.389,317.259L259.649,316.017L261.139,315.932L261.636,316.801L261.462,318.26L262.368,319.671L264.553,321.396L267.532,322.228L269.468,322.12L269.965,321.131L272.41,322.59L274.632,322.035L276.891,321.01L280.131,318.839L279.92,317.657L280.888,316.379L279.56,315.112L280.653,313.991L284.699,313.773L284.836,316.077L286.288,316.089L286.363,313.882L287.232,313.701L294.469,315.534L296.765,315.354L298.764,314.702L301.358,313.351L301.097,312.82L302.972,312.29L303.977,312.724L304.796,310.601L306.348,310.818L306.261,311.53L307.85,311.747L308.558,314.557L306.894,314.449L307.738,316.005L309.613,315.848L312.629,314.34L311.922,312.965L310.531,313.677L309.203,313.026L310.656,312.241L309.228,309.443L311.338,308.357L313.151,311.928L314.379,311.301L314.206,310.311L316.155,310.637L315.757,309.648L313.722,308.152L315.658,306.125L315.298,305.763L315.869,304.183L317.135,303.748L320.934,304.883L321.318,303.061L320.313,303.23L316.626,301.842L317.52,299.176L318.612,298.898L319.171,297.257L316.986,296.521L318.29,292.671L319.506,293.082L319.866,292.056L323.553,293.263L324.049,290.632L322.237,289.449L320.71,290.016L317.892,289.099L317.346,288L325.539,283.957L328.344,284.717L329.126,283.172L328.68,281.434L327.488,280.782L326.296,277.885L325.551,276.919L326.768,276.364L328.456,274.867L328.158,272.355L326.507,270.725L326.358,271.534L324.335,271.305L322.597,271.607L321.294,272.705L318.377,273.08L317.172,273.732L316.44,275.048L317.371,277.197L316.192,277.68L314.727,278.971L312.84,279.635L305.33,280.951L302.202,282.195L300.861,284.271L299.484,285.067L298.95,289.751L299.906,291.826L298.217,292.249L297.249,291.875L295.71,290.04L293.314,289.244L292.408,288.532L290.782,288.145L288.895,289.364L286.35,285.297L285.705,284.597L282.614,283.812L285.121,284.162L289.665,284.041L293.86,283.341L296.566,281.47L299.421,280.903L304.598,278.706L310.147,275.192L315.509,270.882L317.632,268.105L319.68,266.342L321.877,263.624L321.778,262.344L322.597,258.395L323.801,257.284L323.851,256.184L324.881,255.81L324.943,256.607L326.569,257.779L328.195,257.284L333.471,253.66L336.512,250.483L338.61,247.656L339.789,245.566L341.738,240.986L342.744,237.579L343.166,234.594L342.57,234.352L343.65,231.911L343.638,229.203L342.967,226.435L341.565,223.8L339.765,222.555L338.685,223.643L338.114,223.461L339.082,221.358L338.66,221.298L337.071,223.703L335.457,224.247L334.489,223.256L334.29,221.563L333.608,221.152L333.657,218.964L334.675,218.553L335.83,215.615L335.184,213.85L333.843,212.544L333.819,211.383L332.925,209.533L335.159,208.977L335.445,211.298L336.128,211.758L338.722,211.782L338.97,212.363L341.093,211.637L343.662,209.4L345.599,206.183L346.58,203.535L347.337,200.692L348.193,195.648L348.106,193.265L346.679,191.995L346.418,189.224L347.597,190.132L348.801,190.712L348.106,191.233L350.502,192.418L353.593,191.91L356.001,191.172L359.887,189.587L363.797,186.684L365.845,183.477L366.962,180.379L367.272,177.088L367.012,176.313L365.013,174.655L371.605,174.703L372.2,174.147L373.181,174.631L377.228,173.311L380.021,173.675L380.654,172.852L381.622,174.606L381.672,176.785L383.174,178.298L385.905,179.169L388.809,179.411L393.75,179.423L397.735,179.048L404.041,177.729L407.144,176.882L412.941,174.316L415.808,172.585L416.739,170.866L416.23,169.85L417.832,170.346L420.563,168.276L420.029,167.235L420.103,165.577L418.862,165.129L418.229,164.063L419.942,165.177L421.245,164.233L419.867,162.09L420.203,160.601L420.947,161.63L422.164,161.618L423.405,160.322L426.993,158.349L428.222,157.138L429.326,154.716L429.438,152.876L428.048,152.803L427.775,151.144L428.42,150.708L430.295,152.282L432.268,151.762L433.174,150.72L435.223,149.909L439.182,150.732L440.759,150.078L443.912,152.016L446.891,152.27L446.419,153.893L447.599,153.736L448.244,154.886L449.808,154.68L449.634,155.649L450.454,155.818L451.124,152.331L452.465,151.919L452.465,150.127L451.161,149.97L456.288,149.957L456.288,147.027L462.718,146.033L462.755,149.255L459.28,149.739L459.292,152.476L462.755,152.476L462.768,154.801L458.373,156.823L456.238,156.339L455.878,157.731L457.405,158.07L456.996,158.991L458.075,158.991L465.374,155.734L466.243,152.319L478.21,153.627L477.837,154.559L480.233,156.109L481.276,155.843L482.654,157.768L482.12,160.855L479.128,160.129L478.098,160.867L477.713,162.695L478.495,162.829L479.315,161.763L481.921,161.969L480.966,167.78L479.513,168.022L478.222,168.954L475.094,172.609L473.555,173.457L469.421,173.227L465.25,173.965L462.954,174.062L460.409,175.611L460.72,176.107L462.929,174.728L465.499,174.788L468.378,174.364L468.763,175.599L456.735,179.338L455.407,178.903L453.942,175.405L453.818,174.473L452.862,174.873L454.823,179.46L454.376,180.198L451.707,180.924L452.278,181.529L454.476,180.851L455.394,181.372L464.419,178.612L463.376,180.996L464.208,180.875L465.486,178.116L468.167,177.487L467.075,179.835L468.093,179.532L469.198,177.16L471.271,176.337L474.175,175.756L476.497,172.936L477.13,177.668L475.106,181.311L477.403,180.706L478.744,179.048L478.148,177.136L477.527,172.9L477.999,172.113L481.648,170.104L481.561,168.942L483.647,167.562L482.976,166.412L483.336,165.395L484.33,167.09L484.789,165.589L483.858,163.615L484.478,161.618L484.665,159.414L485.136,158.942L493.081,155.407L497.227,154.62L498.245,157.066L499.511,157.32L494.533,159.523L495.415,161.642L501.857,158.954L502.875,160.395L496.035,163.979L494.918,164.16L494.508,166.194L495.452,165.589L496.544,166.957L498.021,165.637L497.14,164.632L500.74,162.623L501.336,163.773L502.105,163.361L501.572,162.393L503.943,161.122L506.971,164.306L505.593,165.044L506.04,165.891L507.778,165.177L508.883,166.327L503.632,169.123L501.994,168.433L501.596,169.123L504.811,171.266L504.638,170.201L507.518,168.712L510.323,167.828L512.421,170.019L512.433,170.624L508.858,170.697L507.518,172.004L506.276,173.917L507.592,173.59L507.815,172.718L509.069,172.694L510.459,171.992L512.235,172.101L511.242,172.67L510.335,174.364L512.011,174.594L513.091,172.609L514.494,172.585L516.157,171.702L515.673,173.275L517.187,172.488L517.398,171.617L522.041,170.697L525.666,167.489L527.962,165.044L528.657,163.858L530.966,157.913L531.674,157.187L532.17,153.53L533.697,150.333L537.024,148.54L536.639,147.995L538.153,146.893L538.489,147.354L540.164,145.864L540.04,142.86L541.493,143.635L540.723,141.467L539.767,141.516L540.4,138.863L542.411,139.42L543.516,139.214L546.185,141.043L545.726,140.135L552.081,139.069L550.939,140.668L551.349,140.825L553.161,138.693L552.714,138.221L556.041,135.156L558.524,136.174L557.32,137.433L556.426,137.07L555.532,137.979L557.754,138.887L559.517,137.288L563.216,138.814L562.111,139.917L564.705,140.086L564.482,141.77L563.092,143.078L562.434,144.98L563.948,146.118L563.613,148.649L562.546,148.819L560.559,148.092L559.057,149.146L559.194,150.684L558.462,151.023L558.362,152.319L559.417,154.22L556.488,156.848L555.544,156.969L555.867,158.325L557.791,158.591L558.822,157.768L559.877,159.172L561.006,159.548L560.46,161.206L557.096,161.557L555.942,164.197L556.451,165.795L557.63,165.916L557.431,166.666L555.942,167.368L555.147,167.138L553.918,165.322L552.677,166.23L552.739,167.598L550.07,168.845L551.101,169.196L551.535,170.866L550.827,171.411L555.991,172.634L555.805,173.517L556.786,174.026L555.085,181.517L553.372,181.432L552.789,180.791L552.615,178.806L553.26,176.023L551.398,175.744L550.939,178.395L550.43,176.773L549.834,177.753L549.934,182.17L548.034,184.687L548.879,186.163L550.678,183.888L554.465,184.07L552.565,192.394L551.051,192.261L550.604,190.604L549.896,190.543L550.418,192.37L549.847,193.604L548.37,195.007L548.692,195.733L546.508,196.495L546.421,195.588L545.688,196.834L546.781,198.938L546.048,199.011L545.726,200.414L540.512,198.805L539.345,198.164L538.278,202.325L537.93,202.833L539.655,206.195L541.418,210.766L541.815,212.387L547.153,211.226L548.506,212.75L549.288,212.024L559.889,207.526L562.893,214.66L561.54,215.216L558.896,213.136L556.96,213.947L554.713,213.535L553.682,212.23L555.445,216.099L552.689,217.356L551.696,218.614L550.318,218.626L549.983,220.862L550.753,221.165L550.045,223.038L549.189,223.897L550.678,223.691L551.609,222.18L552.565,219.508L554.8,218.565L556.153,219.75L553.633,220.983L554.502,221.019L555.755,222.797L556.662,224.973L556.389,226.06L554.911,227.463L551.945,229.638L552.962,230.049L555.669,229.046L555.942,229.409L554.253,230.883L554.887,231.681L559.852,227.777L560.261,228.2L562.26,232.346L555.507,237.506L556.947,239.971L556.91,241.856L558.511,243.922L559.827,242.497L559.033,241.276L560.361,240.382L561.627,240.6L562.906,243.222L561.788,244.877L562.384,246.291L561.044,248.477L560.808,249.903L561.962,249.468L563.601,250.181L564.197,251.558L564.085,252.609L565.053,255.061L565.252,256.837L566.381,260.122L567.399,262.368L570.329,266.04L570.875,268.769L571.657,269.856L573.717,270.447L574.512,269.807L574.971,270.484L577.466,269.566L577.677,270.133L576.436,270.58L575.182,271.655L576.088,272.283L578.894,277.957L579.924,278.331L581.476,281.82L582.096,284.814L584.256,285.912L587.384,290.137L588.762,295.399L588.775,296.352L590.612,296.81L591.642,297.896L593.157,300.334L592.623,301.758L594.013,301.866L594.15,302.964L595.18,304.364L597.476,304.871L598.78,304.328L598.345,301.577L600.505,301.577L600.369,304.46L601.771,303.773L601.635,301.118L601.263,300.913L601.151,298.403L603.435,298.452L603.745,299.719L604.726,300.418L607.345,300.841L607.494,300.298L606.042,299.043L606.687,298.005L606.687,299.224L607.879,300.129L611.255,300.636L612.112,300.322L614.147,302.18L616.68,302.675L617.139,303.664L619.845,305.148L623.011,305.003L623.569,303.748L625.878,303.531L626.61,302.844L629.043,303.254L628.721,304.026ZM466.206,146.627L475.119,146.615L478.694,145.125L479.128,146.167L480.047,145.767L480.953,147.899L484.727,146.276L485.31,145.779L488.14,144.81L493.242,149.921L487.842,152.246L484.131,154.196L481.04,152.343L480.159,153.711L483.523,155.903L482.691,156.46L481.524,154.632L479.178,153.082L468.875,151.943L468.9,149.316L466.219,149.328ZM439.927,118.047L441.169,119.283L442.286,119.489L442.174,120.41L440.833,119.416L438.512,118.81ZM445.451,111.441L446.059,113.126L447.909,112.823L446.742,116.435L445.265,115.441L444.408,113.501L444.235,111.78ZM496.172,134.417L499.871,137.009L499.362,137.385L497.984,136.876L496.234,137.022L495.067,135.217ZM480.531,120.083L481.822,120.422L481.897,121.888L483.287,123.209L484.181,125.887L483.746,127.026L482.17,125.815L480.854,123.597L480.395,121.731L479.761,121.961L479.017,120.955ZM546.098,202.482L545.726,203.583L544.832,202.869ZM566.89,200.487L565.028,189.684L568.901,189.031L569.36,189.624L569.298,191.342L571.893,206.207L571.918,206.727L568.032,207.344ZM323.789,276.883L325.303,278.525L326.607,281.748L325.8,283.341L322.336,285.067L320.971,283.571L316.006,286.009L314.615,286.395L313.051,283.209L313.312,282.062L316.03,280.71L321.641,276.931ZM275.191,270.073L277.152,271.184L278.095,273.683L279.672,275.881L280.727,279.973L282.217,283.667L280.231,283.124L279.138,284.802L274.794,284.09L274.434,283.015L273.254,282.496L272.919,281.012L272.249,280.927L270.908,277.45L270.908,275.663L269.828,275.072L271.405,272.319L271.392,270.942L273.217,271.015ZM276.085,294.638L276.929,294.783L278.48,296.243L278.542,299.091L280.814,302.035L280.64,303.519L281.013,305.703L280.069,306.934L278.89,307.476L278.704,308.84L277.127,309.021L276.457,309.793L275.191,309.781L273.875,307.115L273.341,306.825L273.403,304.472L274.359,303.483L275.154,300.129L274.558,298.391L274.694,295.954ZM246.988,267.67L249.346,268.382L250.24,269.397L250.513,271.607L249.955,273.152L247.931,273.14L246.889,271.582L246.305,271.474L245.051,269.192L245.436,268.129ZM169.964,181.287L170.882,183.852L170.932,185.788L170.199,186.913L168.896,185.982L168.635,184.748L169.268,183.029L169.355,181.529ZM343.302,185.655L344.606,186.175L344.767,188.535L342.644,187.785L343.153,187.337L342.806,185.764ZM350.912,162.32L352.302,162.369L354.003,162.986L354.921,165.686L356.647,167.635L357.913,168.361L359.204,171.484L357.578,170.249L355.331,170.951L354.561,169.45L353.593,169.765L353.258,166.545L352.252,166.727L351.681,164.996L349.67,163.398ZM330.765,161.388L333.719,161.751L334.39,162.514L334.402,163.894L333.012,164.657L331.485,166.291L330.343,168.821L328.58,170.31L327.612,174.534L326.917,175.2L325.8,175.103L320.648,172.67L319.109,172.295L319.196,170.939L317.681,169.741L318.439,169.366L317.979,167.925L318.761,165.807L317.818,165.456L318.749,163.313L319.804,163.785L322.994,162.768L323.888,163.361L326.681,164.342L327.662,163.846L327.538,162.247L328.866,161.4L329.263,161.957ZM200.277,0L200.401,1.726L197.906,4.631L196.317,5.056L194.641,3.756L196.143,1.568L196.652,0.243L198.315,0.523ZM174.482,324.676L175.487,324.676L176.927,325.496L177.064,326.979L175.525,329.536L174.259,328.812L173.092,327.462L173.104,326.292ZM300.775,232.793L304.399,233.905L305.889,234.992L306.46,236.261L307.664,236.285L306.77,237.144L305.901,236.31L302.339,235.814L300.986,237.361L301.383,238.606L300.427,238.569L299.248,236.998L299.086,235.186L300.365,232.817ZM560.398,218.638L559.405,220.995L557.642,221.914L559.355,220.149L559.951,220.028Z"
          fill="#e0e0e0"
          stroke="#333333"
          stroke-width="1"
          stroke-linejoin="round"/>
  </g>
</svg>