<?xml version="1.0" encoding="UTF-8"?>
<svg xmlns="http://www.w3.org/2000/svg"
     viewBox="78.34684983333864 -19.999999999996362 643.3063003332936 640.0000000000036"
     width="643.3063003332936"
     height="640.0000000000036">
  <title>佐賀県</title>
  <desc>都道府県コード: 41</desc>
  <g id="41">
    <path d="M611.387,197.681L611.971,197.658L616.197,199.084L616.617,198.971L616.991,198.835L617.434,198.654L621.754,197.319L623.622,195.983L623.505,195.372L622.641,191.909L623.528,191.524L623.949,191.184L625.793,187.087L624.719,186.204L625.747,183.464L629.903,179.548L632.097,179.321L632.798,179.366L634.292,178.461L638.612,178.28L638.425,173.978L639.242,173.14L639.569,172.325L644.939,168.928L646.737,166.573L650.73,164.331L652.691,161.591L655.003,163.742L658.248,162.225L658.575,162.044L661.026,159.915L663.385,160.413L663.525,159.938L665.696,158.171L666.14,156.427L668.661,155.68L669.479,155.703L670.506,155.272L671.417,155.136L672.374,154.208L672.654,154.004L677.23,156.835L677.417,156.201L678.585,154.027L678.351,152.034L682.344,153.506L683.208,155.046L686.383,154.797L687.504,155.227L692.197,157.922L694.975,158.828L697.801,161.817L696.54,162.61L696.423,165.305L697.964,169.992L698.081,172.596L700.859,177.17L701.42,201.167L701.49,207.799L701.443,210.628L701.396,212.438L701.653,220.925L701.49,223.98L700.626,226.786L699.598,233.37L698.524,236.537L697.03,247.623L694.649,244.772L692.524,248.053L690.142,250.111L684.679,249.862L679.075,246.65L675.993,247.781L675.059,249.251L674.662,251.333L674.569,255.992L673.868,259.136L669.572,263.275L665.159,261.014L662.731,259.589L660.256,256.852L658.038,256.671L655.119,258.322L654.816,258.593L652.691,262.891L654.862,265.944L658.365,268.115L658.972,268.432L661.82,270.218L662.054,270.761L662.077,271.621L660.559,274.854L659.555,277.591L659.065,279.196L658.481,281.005L654.746,282.317L653.018,282.384L644.963,282.023L640.666,282.407L637.631,284.012L635.927,288.828L637.981,292.378L643.585,294.503L644.192,294.752L644.939,295.317L645.64,298.618L645.126,299.115L643.562,299.906L640.83,300.878L634.619,301.624L631.444,305.716L630.907,308.496L632.845,313.22L632.541,317.402L630.23,318.668L626.727,318.645L624.182,317.018L622.034,313.469L621.17,307.976L621.801,303.116L623.202,301.489L622.828,299.228L623.225,298.527L623.739,295.837L620.19,293.079L617.761,293.35L614.819,295.814L614.96,296.493L617.248,298.686L618.065,303.795L617.038,306.824L617.154,309.129L614.586,312.723L613.419,311.706L610.477,311.616L609.87,311.955L608.095,314.305L607.745,315.232L607.698,316.995L608.072,317.786L609.473,320.815L607.628,326.013L605.994,328.883L603.332,331.12L602.281,331.572L596.351,332.453L596.234,331.685L595.86,329.99L595.674,329.447L595.697,324.679L594.599,322.849L590.513,321.673L587.315,323.12L586.498,324.86L586.684,327.82L588.015,332.656L587.852,333.944L585.33,337.921L583.812,339.752L583.392,339.774L579.656,339.006L578.769,338.938L577.508,336.724L575.477,336.272L574.753,336.362L574.426,338.012L574.193,338.599L572.348,340.452L572.722,343.773L574.613,346.53L575.851,346.688L579.049,349.964L578.676,356.809L578.325,357.351L570.27,360.423L569.5,360.83L566.464,362.411L563.336,366.499L558.853,368.261L552.969,368.216L550.447,369.865L549.21,374.472L550.097,386.577L551.615,386.667L552.455,387.819L552.945,388.225L554.86,392.335L559.553,393.758L558.829,402.157L558.806,403.15L558.806,403.602L559.156,405.656L559.717,409.629L561.655,417.688L561.701,425.769L561.561,429.764L553.529,428.59L550.26,428.771L524.483,424.618L510.824,424.054L510.194,423.58L507.556,415.702L508.887,410.6L503.656,408.726L502.559,405.95L503.516,404.144L500.084,401.954L489.53,394.164L489.694,393.893L483.016,385.019L486.192,378.831L488.97,378.718L485.001,373.93L479.327,373.592L480.144,383.054L479.561,383.619L469.567,381.406L466.602,384.816L468.19,386.442L468.633,391.251L461.419,407.372L436.949,424.64L438.607,428.658L420.955,439.378L406.713,454.699L406.152,454.879L393.637,450.728L392.26,449.803L388.828,450.57L388.944,452.488L390.766,454.902L390.369,458.692L389.014,459.775L390.042,462.798L393.381,462.257L395.739,467.942L395.505,468.776L391.209,471.28L392.143,473.355L396.253,470.062L399.778,471.009L403.654,478.227L401.576,481.182L401.506,484.385L403.958,486.753L404.028,489.256L402.814,490.023L405.942,491.308L406.97,495.503L409.491,496.743L411.219,500.216L413.577,501.366L412.9,504.41L415.492,506.462L418.154,506.552L419.134,509.032L421.329,509.055L421.889,511.715L421.072,515.796L423.08,520.462L422.987,523.911L428.614,529.118L430.108,537.075L430.318,542.168L431.556,544.107L435.385,545.864L434.988,550.935L436.155,554.811L434.521,555.69L438.77,556.14L439.751,559.971L437.626,563.643L437.93,564.702L441.152,565.942L445.005,563.215L447.876,564.477L448.46,566.009L452.663,568.735L452.733,569.929L450.515,571.822L451.332,573.624L453.457,574.48L455.885,573.692L461.932,579.391L461.419,580.36L463.263,585.788L462.75,589.617L460.601,588.942L458.874,589.91L460.064,591.847L455.418,592.41L451.799,594.617L447.129,594.144L445.075,592.388L444.094,592.41L441.829,592.298L441.175,592.185L434.965,592.545L433.54,591.982L432.98,591.689L428.637,591.464L427.026,590.225L422.216,589.978L420.885,590.113L418.41,590.766L415.375,590.406L411.219,588.806L410.519,588.514L406.9,589.234L406.386,588.491L406.363,587.185L406.339,587.005L405.755,585.833L404.822,583.671L401.996,581.125L401.016,581.508L397.56,584.121L396.696,583.919L392.797,584.121L385.325,582.049L384.345,582.207L380.142,580.427L376.99,580.968L376.616,580.923L375.729,580.743L375.262,580.292L371.503,578.355L369.191,578.828L365.502,577.769L360.716,578.985L358.825,577.769L358.568,574.322L356.91,573.083L356.7,572.61L356.21,572.61L355.532,571.168L355.112,570.943L352.964,569.817L352.38,569.614L352.264,569.366L352.17,568.6L352.124,567.654L351.236,566.843L347.501,567.428L346.59,567.699L346.286,567.857L345.166,567.744L344.862,567.699L344.418,567.654L343.928,567.609L343.321,567.293L340.076,568.397L337.717,566.662L334.682,563.17L332.604,562.337L332.908,560.579L331.04,557.492L329.242,557.087L329.452,554.315L327.794,552.715L327.607,552.107L327.467,551.994L326.37,552.264L325.903,552.152L322.564,547.938L318.805,546.698L317.988,546.676L315.116,544.535L316.05,541.222L315.863,538.653L312.291,536.669L310.54,538.202L307.387,539.148L307.014,539.441L304.446,539.532L303.442,539.036L302.181,538.134L301.34,538.608L301.223,538.653L300.336,538.067L299.402,535.655L298.608,533.604L294.873,532.657L293.448,529.659L293.939,528.217L293.822,527.225L291.744,524.204L291.3,523.573L289.923,522.401L289.222,520.936L289.152,520.485L289.246,519.966L289.316,518.614L289.736,517.982L290.53,516.607L290.32,514.082L289.899,512.91L288.685,513.135L286.771,510.159L284.716,509.663L283.922,507.882L283.245,507.138L281.494,504.771L277.034,503.576L276.451,503.35L275.05,502.448L274.676,501.862L273.228,501.704L272.364,501.208L269.142,499.607L269.072,499.201L262.955,496.991L260.527,496.676L260.013,496.54L258.402,495.706L257.818,495.3L256.161,493.721L255.787,493.518L255.063,493.541L254.62,493.383L253.429,491.331L252.938,491.263L249.226,490.294L248.736,490.361L248.572,490.294L248.689,485.964L245.28,482.919L245.654,481.43L243.856,478.701L243.716,477.709L242.945,476.13L242.221,475.904L239.373,474.957L238.556,474.867L235.66,474.528L237.365,469.205L238.649,467.693L238.579,467.197L238.672,463.272L238.696,462.482L237.832,461.038L237.855,460.7L238.252,459.888L238.556,459.595L238.719,459.437L241.147,459.211L243.552,456.052L245.42,455.827L245.91,455.376L249.67,454.496L250.23,454.834L250.65,455.33L252.728,455.827L253.499,455.872L254.036,456.233L254.409,456.707L255.413,456.391L255.717,456.436L256.324,456.797L257.258,457.045L259.803,453.39L261.391,449.148L261.321,448.133L261.391,444.004L261.414,443.191L261.18,440.303L259.803,438.407L259.85,438.136L259.219,437.505L259.149,437.053L257.585,437.301L257.398,437.279L255.717,434.458L255.647,433.826L255.904,433.465L255.133,429.922L254.923,429.042L253.242,426.243L252.658,422.654L252.261,421.909L251.934,420.939L251.748,420.555L251.444,417.259L250.02,412.18L251.397,408.094L250.884,408.275L249.319,408.162L248.572,407.575L245.07,409.088L244.72,409.201L239.653,408.546L237.902,409.065L237.645,409.562L234.586,410.555L234.143,410.307L234.026,410.307L233.909,410.397L232.205,412.09L230.5,410.668L229.893,410.374L229.45,409.81L228.889,409.968L227.442,410.307L223.332,413.851L221.418,413.648L221.138,413.941L220.04,413.693L219.363,413.896L217.729,414.031L216.024,412.451L215.394,412.293L214.203,413.783L212.102,413.467L211.821,415.047L209.743,415.544L208.693,411.661L208.599,411.119L207.875,410.397L207.338,410.69L206.124,410.329L205.914,409.878L204.863,410.69L204.677,410.555L203.066,410.307L202.482,409.787L201.571,407.823L198.466,407.598L195.828,403.986L194.777,403.963L191.134,402.225L187.305,402.45L184.34,398.251L183.896,397.461L183.499,397.099L183.056,396.919L182.052,396.557L181.351,396.603L176.145,396.919L173.343,398.68L173.063,399.018L172.432,400.102L166.338,396.783L164.564,394.412L162.439,393.464L161.995,393.261L159.544,392.493L157.512,390.687L156.648,390.167L156.905,388.271L155.528,387.006L155.434,386.622L155.691,385.448L155.715,384.883L155.878,384.635L156.111,384.229L155.411,381.044L156.205,378.131L154.337,377.07L154.29,376.866L151.232,374.585L151.885,373.546L151.862,373.366L150.508,371.672L150.321,371.469L149.807,370.136L149.761,369.752L150.438,368.419L150.391,367.9L148.85,366.161L150.648,363.089L151.091,359.203L152.119,358.819L153.099,358.051L153.45,357.532L151.535,352.02L151.582,351.455L151.138,348.902L153.847,346.552L154.22,343.638L154.36,343.208L155.248,340.904L154.921,340.497L154.454,338.057L152.819,337.876L151.488,337.921L142.476,328.272L136.872,324.634L129.447,316.385L127.486,313.989L126.482,312.316L122.98,304.043L120.855,301.624L120.271,300.11L117.026,297.058L116.512,295.385L115.695,294.91L112.823,294.526L114.131,290.931L114.971,287.947L116.862,280.53L118.8,279.015L118.24,276.415L119.477,274.131L120.505,272.616L120.458,269.156L125.501,259.498L126.085,256.603L129.961,254.273L131.268,252.464L131.922,252.011L136.779,249.93L139.324,252.78L146.795,251.785L149.084,254.115L145.791,257.508L146.632,260.131L150.181,262.393L150.228,265.198L152.142,266.419L154.64,265.718L151.652,268.16L153.543,271.055L153.216,273.43L159.147,272.186L157.279,275.284L153.59,275.872L153.987,278.45L155.318,277.5L159.754,276.844L167.319,289.507L165.054,290.095L169.023,294.571L170.448,293.893L172.105,296.967L171.358,298.233L175.584,298.143L176.798,292.423L179.624,293.056L181.982,295.475L183.99,293.848L183.64,291.519L178.713,285.505L176.705,283.718L172.923,282.317L170.611,283.063L167.039,282.497L166.899,280.869L164.867,277.478L164.914,275.103L170.821,275.714L170.844,272.548L173.179,271.304L173.273,269.902L170.821,269.314L170.821,265.65L172.059,265.831L172.993,269.269L174.51,271.123L176.098,268.748L175.117,265.243L176.308,263.343L179.087,262.778L178.9,261.262L174.487,257.168L171.125,259.023L172.222,261.24L169.187,260.584L166.595,254.024L165.404,254.59L164.47,252.712L168.346,250.812L170.494,255.291L172.666,254.251L171.475,251.695L175.771,249.116L180.231,253.323L180.347,251.242L178.223,250.586L178.129,248.505L179.717,247.555L175.421,244.094L179.647,241.99L181.655,243.03L182.005,239.75L177.709,237.601L180.067,235.768L182.052,232.917L180.511,230.134L178.853,229.999L181.165,226.876L182.636,228.935L186.978,225.224L188.309,223.188L187.702,220.947L188.589,219.748L191.228,219.522L190.901,217.96L192.675,217.734L195.431,220.676L193.96,217.938L192.419,209.383L193.82,207.708L193.002,206.486L196.505,208.274L196.925,206.599L195.547,203.702L192.419,202.299L197.672,202.027L195.314,199.198L193.913,199.899L193.142,197.523L195.314,196.391L193.96,194.376L193.75,191.501L195.454,189.713L191.695,188.853L192.302,186.724L189.197,185.185L188.776,190.347L184.994,191.184L184.784,193.176L183.009,191.411L175.724,188.807L174.3,189.849L172.105,189.283L172.479,186.226L169.957,185.298L168.603,183.691L166.688,183.442L164.891,185.57L161.365,185.457L160.314,183.283L161.155,179.072L165.568,178.257L167.412,176.446L163.91,177.012L162.486,175.608L157.956,174.453L158.773,172.076L156.252,172.393L154.337,170.989L154.43,166.415L145.745,163.742L144.344,162.293L144.997,159.87L143.293,158.534L140.865,159.1L142.219,157.469L140.421,156.88L135.845,157.243L136.405,155.974L135.028,154.072L137.036,152.713L135.448,150.358L135.378,152.147L133.276,152.894L130.872,149.995L132.202,145.624L136.335,143.087L138.086,143.585L139.067,142.203L139.441,144.695L142.826,144.808L142.756,148.591L143.503,146.983L146.212,148.296L149.971,143.064L148.056,142.362L148.336,140.504L142.429,138.873L142.312,137.265L139.721,134.796L140.328,131.918L139.02,131.058L140.725,128.271L144.32,129.041L147.542,122.539L147.986,119.638L149.667,119.525L151.442,122.743L153.823,124.714L155.248,124.555L155.037,121.134L158.236,121.746L163.676,124.827L163.233,127.523L161.598,128.248L163.256,134.637L168.79,137.106L169.584,138.601L171.778,138.375L173.203,140.232L173.016,143.381L171.148,145.51L169.934,150.471L171.008,151.082L171.288,155.454L172.175,155.499L171.171,151.966L172.759,150.72L174.977,151.784L177.219,156.518L179.413,154.661L180.674,155.929L183.266,152.509L180.347,151.626L182.519,150.018L182.892,146.62L185.251,144.763L187.445,147.186L187.959,146.303L186.278,143.562L186.698,137.899L183.196,134.456L186.792,134.048L181.935,131.76L179.88,128.248L176.098,132.281L173.203,132.87L172.292,131.08L170.097,131.352L170.307,129.63L167.529,128.656L167.926,127.501L170.588,127.546L171.872,125.756L174.277,124.737L177.522,125.326L177.499,123.626L174.487,121.972L174.487,120.001L172.292,119.185L171.195,115.515L169.77,115.764L171.101,113.271L172.269,114.359L174.977,114.042L174.09,111.028L172.712,110.937L169.374,106.382L168.72,103.799L165.965,101.464L169.303,98.79L168.58,95.481L170.448,96.229L171.078,93.871L166.618,92.738L166.922,91.491L164.961,90.222L166.782,88.318L169.77,89.474L172.269,89.451L173.6,91.197L175.701,90.063L181.608,95.005L182.869,99.492L186.815,101.079L185.741,99.334L186.581,94.007L182.869,93.917L180.324,92.013L179.273,90.154L180.721,87.321L179.81,86.074L173.646,85.983L173.833,83.898L176.495,84.532L178.433,83.49L182.122,85.054L183.523,87.797L185.811,88.885L186.605,87.887L183.966,86.369L184.527,83.943L183.079,82.742L183.92,80.225L185.834,78.117L186.115,76.235L179.81,71.996L182.706,70.34L179.74,65.942L179.507,62.495L181.398,61.475L182.239,57.665L178.153,55.624L181.702,55.171L182.939,57.779L187.235,59.751L188.449,62.359L186.908,64.649L189.547,68.141L192.489,68.413L193.119,70.726L195.501,72.517L198.746,73.56L199.307,72.585L202.015,73.084L204.303,80.384L202.785,81.812L202.318,84.963L199.47,87.955L199.657,91.605L200.824,91.446L202.879,85.847L205.891,87.321L208.809,85.961L205.517,85.28L205.517,79.613L206.568,78.842L205.26,75.215L207.385,72.018L205.914,69.57L210.841,68.391L213.502,69.638L212.265,72.585L214.81,71.95L214.927,70.227L212.358,65.715L212.055,63.833L213.993,63.516L216.258,61.498L219.783,65.239L223.379,65.556L222.632,62.405L225.971,61.792L226.461,65.239L228.095,67.325L232.298,68.504L235.871,66.169L240.26,64.672L240.003,60.5L243.692,61.611L242.642,63.652L241.007,72.88L249.95,78.004L253.405,80.588L255.88,80.951L257.842,79.092L262.395,80.021L261.204,82.81L262.628,87.185L261.087,88.227L262.978,91.854L265.663,93.735L266.644,93.01L270.59,94.483L270.964,95.934L267.531,100.988L265.22,102.076L263.212,100.784L258.659,103.413L257.491,106.178L251.911,112.455L253.826,117.577L253.125,120.182L247.008,122.72L250.814,129.109L254.736,131.012L254.62,126.187L256.557,125.575L259.453,133.255L261.951,133.323L259.266,129.041L261.437,127.637L262.488,129.766L261.624,130.876L263.118,132.643L264.263,130.401L262.208,126.051L263.725,121.383L266.014,120.703L267.928,121.361L270.333,124.034L272.364,128.271L269.002,131.284L269.282,133.21L263.959,134.365L267.298,139.236L270.263,141.41L268.582,141.252L266.014,143.109L269.749,146.009L272.038,146.937L276.661,147.368L283.175,149.248L288.849,152.872L293.238,154.14L300.99,154.842L310.89,154.253L316.027,152.532L322.704,148.523L324.642,144.265L322.214,142.77L321.14,136.087L323.381,133.21L327.818,135.521L332.651,133.731L333.211,134.411L333.515,133.98L336.924,132.281L339.609,132.893L345.236,130.967L349.345,133.98L352.054,133.323L352.497,133.527L353.805,134.637L359.105,133.776L359.525,133.708L359.992,133.821L360.646,134.184L364.475,134.161L368.795,133.097L369.939,132.44L371.596,127.908L375.029,126.187L376.219,127.659L380.539,128.565L382.22,128.588L384.555,127.954L385.676,128.407L385.886,128.362L386.656,128.271L391.606,128.203L392.05,128.951L398.401,132.825L401.226,129.336L403.794,129.177L405.709,126.64L411.919,127.161L412.62,128.226L412.877,128.271L413.507,127.954L416.286,130.967L417.313,131.103L418.013,133.957L420.839,135.294L421.002,135.362L424.785,135.589L425.508,135.566L426.933,136.517L427.633,136.2L431.486,136.245L434.264,134.592L434.194,132.643L435.852,131.805L435.758,131.239L435.899,128.973L437.51,127.999L437.72,127.546L440.311,127.705L441.526,125.937L443.113,126.662L442.927,124.623L443.067,124.283L443.534,123.128L445.612,124.17L447.339,122.788L450.211,123.083L451.122,123.4L454.04,123.581L460.718,126.322L461.979,125.756L464.571,127.183L469.077,125.439L469.474,125.167L471.505,125.983L473.163,129.585L473.677,129.358L476.525,128.883L478.09,129.608L478.533,130.083L479.327,131.896L483.81,132.349L485.188,130.537L485.958,129.63L488.48,127.433L488.947,127.365L491.702,125.983L492.963,126.504L497.889,124.261L502.326,125.394L503.563,127.048L503.4,127.546L509.097,131.692L509.307,131.941L509.447,132.236L509.82,132.757L512.669,133.572L516.522,139.032L521.471,141.139L521.962,141.116L524.577,139.621L525.044,139.711L528.943,141.048L529.2,141.161L530.134,144.061L531.441,143.562L531.745,143.449L534.383,143.358L536.882,145.805L541.178,148.138L541.621,148.546L545.451,150.561L546.805,153.121L546.968,155.544L552.058,156.201L553.763,155.725L560.814,165.78L561.164,166.143L566.838,165.169L567.048,165.056L568.029,165.441L568.449,165.622L570.27,165.554L571.204,163.606L572.675,166.369L576.224,169.087L577.041,169.947L578.279,173.683L582.832,171.283L584.186,171.034L586.334,172.574L591.634,172.076L591.984,171.487L594.109,174.227L593.946,176.785L595.65,176.808L598.382,181.653L605.433,186.385L606.974,186.657L607.418,186.996L606.227,187.2L606.484,187.743L605.387,189.351L605.106,189.668L603.028,192.927L600.6,194.421L600.88,197.907L601.371,198.632L603.052,200.759L604.85,199.877L605.13,197.772L609.099,195.282ZM193.656,193.742L192.302,195.259L192.068,193.471ZM186.441,191.886L187.982,192.837L186.441,194.218ZM277.548,135.453L276.661,138.375L275.33,137.265ZM287.775,123.898L290.016,127.637L289.829,130.423L283.852,130.174L282.941,126.005L284.599,123.898ZM124.778,110.461L127.299,111.889L128.7,114.653L126.085,115.537L126.038,117.214L124.054,116.761L124.567,113.634L123.61,112.614ZM274.326,66.871L275.54,67.438L277.525,71.519L277.221,75.963L274.559,80.248L272.108,80.316L269.142,81.631L267.251,79.228L270.753,75.328L270.87,72.744L272.831,70.817L271.641,69.229L267.882,70.885L270.263,68.3ZM205.237,45.056L207.946,49.116L211.424,53.153L210.047,55.602L213.292,55.443L211.798,56.758L211.681,59.139L207.759,62.586L204.303,63.742L204.63,66.032L202.389,65.692L200.591,66.735L198.84,66.123L198.723,64.264L201.174,61.021L199.447,59.706L200.474,56.849L199.493,55.806L199.213,52.54L202.855,49.161L202.879,46.19ZM114.084,31.583L120.318,32.15L122.022,34.123L123.774,38.161L123.4,41.246L121.882,43.06L118.053,44.013L116.139,47.574L113.804,49.433L110.115,48.549L108.97,45.895L107.009,45.578L106.425,44.013L103.087,43.536L98.347,39.953L102.246,37.594L100.145,34.895L104.021,31.696L106.029,32.626L105.351,35.099L106.729,34.464L109.064,35.983L110.908,32.672ZM177.989,23.167L179.624,24.641L176.962,29.632L173.926,28.997L171.311,30.494L170.097,28.838L171.381,25.344L173.716,26.728L175.304,24.097ZM217.659,12.185L218.312,13.229L221.394,13.774L221.138,16.564L219.877,17.132L221.161,20.24L219.83,21.919L218.756,20.353L215.254,21.057L213.689,18.085L214.226,15.294ZM191.018,0L192.255,0.136L191.531,5.65L187.936,7.557L190.667,7.375L190.527,10.325L188.426,12.775L190.457,18.788L193.609,18.516L195.08,19.378L192.372,23.439L193.259,24.369L192.419,26.819L190.481,27.681L187.796,26.138L187.656,22.962L182.636,20.512L179.88,16.451L181.888,16.519L181.982,12.73L183.943,11.437L183.079,9.621L184.387,7.307L188.449,4.584L187.515,2.451L185.741,1.43L188.286,0.159ZM462.446,593.108L463.217,595.338L461.512,596.982L459.738,595.991L458.103,600L454.251,596.577L456.445,594.91L457.029,592.365L461.769,592.478Z"
          fill="#e0e0e0"
          stroke="#333333"
          stroke-width="1"
          stroke-linejoin="round"/>
  </g>
</svg>