<?xml version="1.0" encoding="UTF-8"?>
<svg xmlns="http://www.w3.org/2000/svg"
     viewBox="66.35304835517309 -20 667.2939032896538 639.9999999999982"
     width="667.2939032896538"
     height="639.9999999999982">
  <title>熊本県</title>
  <desc>都道府県コード: 43</desc>
  <g id="43">
    <path d="M305.623,145.467L305.124,145.178L304.881,141.506L303.27,135.51L302.799,134.451L301.502,129.28L300.874,124.107L300.832,118.728L300.603,114.023L299.263,113.981L298.607,110.362L299.135,109.124L295.199,110.528L293.474,105.642L294.515,105.298L298.222,104.128L303.484,104.184L306.022,104.968L306.265,105.271L309.116,105.573L310.1,104.83L312.539,104.817L322.321,106.028L323.219,105.051L325.187,105.821L325.387,106.069L328.595,105.298L332.231,103.413L334.684,104.362L335.226,105.34L335.482,105.491L335.953,104.39L335.839,103.757L336.908,102.849L337.251,102.945L338.277,103.014L339.318,100.495L340.003,100.399L340.074,100.289L340.003,99.284L338.677,97.77L338.805,96.93L338.734,96.38L338.391,95.375L338.292,94.879L336.281,94.04L334.998,91.507L334.998,91.273L334.741,90.103L334.841,89.607L334.812,86.812L333.13,84.183L332.887,83.935L331.975,83.067L330.477,80.3L331.247,78.606L334.47,76.431L334.613,75.177L338.976,73.139L340.345,71.363L340.402,71.115L343.753,70.784L344.238,70.468L347.19,71.914L347.346,70.234L347.133,70.344L348.173,69.187L347.988,68.76L348.231,66.914L348.972,66.556L349.001,64.201L351.111,63.278L351.753,62.039L353.093,61.887L354.163,62.824L354.804,61.543L355.132,61.129L355.76,60.62L356.843,61.501L358.897,59.862L359.253,59.89L360.394,59.766L361.463,59.642L362.889,59.242L362.547,57.727L362.547,57.451L362.034,55.785L361.834,55.729L360.85,54.421L360.836,54.131L361.392,50.921L361.135,49.874L365.271,48.483L365.356,47.298L368.009,43.963L369.449,43.453L369.577,43.398L371.103,44.004L371.745,43.812L372.016,43.398L372.272,43.467L373.969,44.528L376.179,44.928L379.131,44.06L381.641,46.182L381.84,46.443L382.539,46.636L382.767,46.788L385.819,47.463L388.015,46.126L388.257,46.058L392.264,46.03L394.018,44.817L395.159,45.837L397.098,44.831L397.783,45.506L398.339,45.534L399.565,45.451L399.608,45.575L399.865,47.518L400.763,47.656L401.961,46.471L404.47,47.504L406.082,46.926L405.497,45.906L403.886,45.603L403.786,43.729L404.399,43.715L404.912,43.894L406.053,43.688L406.353,42.254L406.196,38.644L406.937,37.224L407.622,33.228L409.675,32.084L410.317,30.816L409.119,28.39L409.148,27.811L409.59,26.598L409.219,24.888L409.105,24.447L409.604,21.07L411.971,19.65L412.242,18.616L414.794,17.058L414.395,15.128L414.652,14.783L415.336,13.101L416.748,13.887L417.432,14.204L418.245,14.783L418.701,15.224L418.687,15.789L421.411,19.443L420.897,20.449L420.926,20.835L420.541,23.593L421.539,24.034L421.739,23.91L423.279,22.793L423.692,22.807L425.118,23.482L425.489,22.876L426.658,23.855L427.471,23.799L428.869,23.772L430.18,21.842L432.063,22.338L432.462,22.531L433.175,23.289L433.66,23.124L434.601,23.744L438.907,22.186L439.278,22.255L440.433,23.551L440.675,23.717L440.961,24.089L440.975,24.434L441.274,24.819L441.36,25.123L441.802,26.749L444.098,28.665L444.654,28.445L445.424,28.707L447.435,30.843L449.331,31.643L449.859,33.793L451.484,34.882L452.411,34.716L452.725,34.785L453.295,34.137L454.45,36.356L454.921,36.466L455.962,36.963L457.145,38.837L458.757,38.396L460.211,39.443L462.008,38.603L464.161,39.567L464.361,39.526L466.1,39.057L466.542,39.14L468.981,40.932L470.05,40.918L473.858,43.481L475.939,43.054L476.638,43.922L479.034,44.817L480.346,46.43L480.289,47.504L479.904,47.794L479.875,48.579L480.503,48.855L481.13,48.868L482.014,49.006L482.741,48.551L487.319,49.296L488.802,49.957L488.916,51.541L488.787,52.051L490.484,54.848L490.285,55.275L491.183,56.225L491.511,56.46L492.367,55.592L494.277,55.385L494.776,55.509L496.202,55.564L498.441,54.655L499.867,54.917L499.81,55.647L501.279,57.3L503.974,56.432L505.742,56.597L507.268,57.934L510.091,59.049L510.533,59.476L511.717,61.171L512.33,63.705L512.13,65.454L514.954,67.011L515.538,69.573L515.096,70.895L516.095,71.872L519.531,71.39L521.542,73.043L524.023,76.513L523.709,77.656L525.149,77.753L525.449,77.711L527.188,78.51L527.688,77.945L529.584,78.372L532.564,76.775L532.764,77.271L533.135,77.684L533.306,78.028L533.463,78.29L535.088,77.656L535.915,78.345L537.926,78.014L539.537,79.061L539.794,79.309L542.589,81.14L543.53,82.654L543.616,86.578L544.87,88.753L546.738,90.818L547.28,91.452L548.692,93.943L551.772,94.329L551.815,93.269L555.109,93.902L557.704,93.943L558.146,93.916L559.273,92.608L560.413,92.388L562.067,90.777L562.153,90.612L562.025,90.309L562.082,90.13L563.864,88.987L564.064,87.735L563.95,87.542L564.577,85.16L567.087,83.646L567.201,83.577L567.942,83.136L569.026,80.906L568.812,79.391L568.926,79.198L568.313,78.551L568.242,78.455L568.156,77.174L568.256,77.036L568.456,76.913L569.012,76.72L569.24,76.417L569.354,75.315L569.212,75.04L568.884,74.709L570.495,72.065L567.401,68.856L567.272,68.691L567.999,65.22L569.539,62.851L569.782,62.755L570.752,62.741L571.165,62.672L571.85,60.427L573.39,59.008L572.648,57.011L572.235,56.818L570.994,56.06L570.609,55.096L569.425,52.478L568.413,52.437L568.256,51.417L568.171,50.839L568.085,50.618L567.871,50.122L567.643,49.736L567.486,49.24L566.474,47.463L564.135,46.567L563.736,45.81L563.679,45.313L562.495,43.219L559.843,41.676L559.529,41.4L559.187,40.008L559.144,39.746L559.586,37.486L559.601,37.266L559.729,35.984L557.504,35.35L555.993,33.724L555.807,33.614L553.997,31.643L553.84,31.215L553.198,30.733L552.813,30.54L552.485,29.024L553.169,28.279L553.44,28.128L555.18,28.927L555.237,28.073L553.854,25.798L555.123,23.469L554.139,21.759L554.054,21.401L554.553,19.733L555.494,18.795L556.107,16.12L556.021,15.872L555.679,14.673L557.091,12.494L557.148,11.529L557.176,10.936L559.258,9.116L558.574,7.075L559.216,6.206L559.7,6.206L561.255,7.351L563.094,7.654L563.394,7.737L564.392,8.688L564.734,9.281L565.262,9.654L567.5,9.047L569.654,9.626L569.953,9.447L572.035,7.406L574.987,5.296L575.315,4.786L575.971,4.593L576.17,4.744L576.555,5.365L578.152,4.317L579.507,2.289L579.493,2L580.334,0.483L580.676,0.4L582.872,0.331L583.157,0.303L587.378,0.4L587.806,0.455L590.059,0L592.783,1.572L593.324,2.027L599.884,3.407L601.666,4.344L602.322,4.317L606.158,5.475L606.643,5.255L608.04,3.972L610.835,4.813L613.259,6.454L613.559,6.578L616.111,9.102L615.94,9.971L616.011,10.053L615.883,11.046L616.853,13.9L617.994,15.031L621.558,15.459L623.341,16.823L623.826,19.236L624.61,19.167L629.444,21.483L629.686,21.663L630.742,23.689L629.045,24.13L631.954,26.239L634.734,29.272L636.374,29.823L638.299,33.917L638.998,36.425L638.542,41.414L637.601,41.703L637.458,43.136L639.026,44.638L639.012,47.215L641.222,48.345L641.878,49.516L641.864,49.778L641.55,52.023L642.606,53.938L641.465,58.044L642.492,61.446L643.946,63.251L644.089,63.499L646.941,65.11L647.782,66.515L649.507,66.308L649.393,65.854L651.033,64.421L653.557,66.763L652.616,68.25L655.482,71.446L655.767,71.845L656.309,72.809L656.281,73.277L656.38,73.346L656.623,73.167L656.794,73.043L657.364,73.732L658.69,75.274L660.273,75.811L661.87,77.684L661.528,78.992L662.526,82.296L662.526,84.004L662.64,84.279L663.582,88.134L663.767,88.382L663.909,90.061L663.938,90.309L663.881,90.516L664.095,90.887L664.252,91.094L665.392,92.911L665.535,93.09L665.792,94.274L665.777,94.439L666.376,96.517L665.036,97.563L666.205,99.655L666.576,99.793L666.975,101.156L668.701,101.348L669.456,102.078L669.827,101.968L670.939,104.018L672.95,106.812L673.421,106.729L674.376,107.363L676.087,109.564L676.158,111.835L675.46,112.922L675.388,113.211L675.873,116.568L679.196,117.16L679.766,117.38L680.222,117.71L680.379,118.315L683.217,119.471L683.331,120.806L681.848,123.805L681.62,124.039L680.493,125.277L679.952,126.941L675.93,127.037L675.445,128.413L675.346,128.688L678.511,131.192L678.026,132.333L677.356,132.608L675.731,132.608L676.415,135.455L677.884,135.469L677.955,136.693L677.656,136.899L676.429,138.825L675.303,139.622L676.315,144.463L677.028,145.398L677.242,145.934L678.511,148.272L678.839,150.953L678.526,153.923L678.454,154.335L679.196,157.607L679.124,160.741L679.224,160.975L678.625,162.748L680.536,168.549L683.645,173.098L686.768,172.369L687.794,171.627L687.067,174.293L687.937,175.929L687.908,177.536L689.463,178.237L690.96,178.223L691.587,179.57L691.844,179.831L694.054,180.491L694.211,181.384L695.965,183.678L696.906,184.242L697.248,184.695L699.558,186.055L699.829,186.028L702.154,187.058L702.225,187.347L704.763,187.47L706.717,188.583L707.145,189.751L709.255,190.96L710.467,192.279L710.709,194.12L712.25,195.067L712.492,195.892L712.72,196.276L712.777,198.158L713.647,198.295L712.606,199.174L712.178,199.559L711.807,199.806L711.266,200.246L708.071,200.878L705.804,200.974L705.605,201.029L705.177,201.042L704.749,201.001L700.813,200.177L699.23,200.726L698.76,200.603L696.222,201.152L695.309,199.902L693.712,199.174L691.431,200.246L689.12,200.63L688.536,202.21L687.538,203.144L686.882,202.636L686.596,202.691L686.482,202.636L686.24,202.457L684.229,201.866L683.759,204.407L684.087,205.025L682.932,206.577L680.736,206.44L679.424,207.827L680.436,208.788L679.966,209.763L679.681,210.464L679.552,213.787L677.984,215.558L676.715,215.489L675.588,216.89L675.674,218.18L674.861,219.54L675.374,221.462L675.303,221.874L675.189,222.794L675.089,223.082L673.52,224.482L673.007,224.51L671.339,224.812L670.098,226.981L670.212,227.159L671.267,228.875L674.105,231.73L674.348,231.812L675.517,233.048L674.904,234.064L675.032,234.503L674.675,235.889L673.135,238.401L672.551,239.046L671.239,239.032L671.025,240.445L670.155,241.488L669.87,241.79L670.412,243.451L669.756,244.933L669.756,245.111L669.998,245.811L670.127,246.305L669.813,246.731L668.943,246.772L667.018,248.624L665.606,249.393L665.207,249.79L663.182,251.656L661.172,254.318L659.66,255.279L659.09,255.333L658.961,255.32L658.263,254.908L657.008,254.469L654.241,255.704L651.903,257.117L649.407,259.147L649.179,259.792L646.855,262.851L645.771,263.592L645.343,263.88L644.702,265.622L645.714,266.445L645.643,268.393L644.759,268.969L645.187,270.861L643.09,273.344L642.976,277.965L641.55,279.254L641.836,279.926L642.862,283.519L642.164,283.848L642.891,285L642.606,286.302L641.08,286.014L637.258,286.385L634.92,284.3L634.863,283.039L631.868,281.819L630.97,282.573L630.656,283.108L628.118,284.095L628.132,287.276L626.991,289.36L626.763,289.977L625.965,291.101L624.738,291.54L623.811,292.979L622.286,293.911L622.001,295.625L620.76,295.913L618.792,301.313L618.493,301.437L615.555,302.3L615.07,304.26L615.413,306.151L617.038,307.549L617.395,309.578L616.24,312.921L615.94,313.456L615.626,317.786L615.626,318.361L615.712,320.143L615.94,320.992L616.339,321.499L616.71,321.595L617.723,322.677L616.824,324.28L617.338,325.883L615.669,327.212L614.714,329.171L614.785,329.417L613.63,330.65L611.049,331.376L610.835,333.486L612.005,334.582L611.962,335.417L610.593,336.513L608.867,336.828L607.641,337.266L605.017,336.677L604.789,336.732L604.361,337.115L601.167,335.979L598.216,335.266L597.617,334.91L596.69,333.76L595.506,334.061L593.752,334.184L590.829,332.883L589.232,333.089L587.378,332.102L586.309,332.171L584.74,333.705L583.799,333.883L582.202,335.102L581.46,336.431L581.803,339.416L580.505,341.033L579.664,344.689L580.99,346.976L581.061,347.483L580.234,350.303L578.623,351.057L576.413,350.55L572.948,351.166L572.52,351.974L571.293,353.138L570.609,354.699L571.108,357.327L573.147,360.271L573.775,362.749L573.361,364.638L574.117,368.457L573.675,368.922L570.809,369.278L569.326,371.317L568.812,371.304L567.229,371.386L566.673,371.564L566.631,374.356L566.802,374.944L566.231,380.432L566.516,380.966L565.632,383.059L565.547,385.358L567.472,389.477L567.8,389.983L568.741,390.817L568.741,392.487L569.853,394.498L569.397,395.442L569.625,397.288L569.853,397.548L570.309,397.726L568.884,400.052L569.354,400.9L569.582,401.105L570.138,402.322L570.039,403.102L569.696,404.114L569.81,404.47L570.096,407.438L570.039,407.739L569.939,408.422L570.224,408.805L571.336,411.062L571.493,411.39L571.593,411.828L571.465,413.209L571.65,413.455L574.103,416.122L574.502,416.751L576.47,419.773L577.767,423.382L577.924,423.505L579.507,424.982L579.906,425.187L580.904,426.226L581.047,426.431L582.459,429.945L584.426,430.382L586.979,429.699L587.735,430.423L588.077,430.56L591.998,430.027L593.624,430.286L594.266,432.132L594.351,434.346L595.663,436.219L595.806,436.465L595.977,439.035L595.863,439.281L594.08,440.702L594.18,442.889L594.28,443.053L596.405,443.682L596.405,444.611L598.486,447.7L598.829,448.123L597.431,449.9L596.319,452.892L596.49,455.611L597.046,455.967L597.232,456.035L598.187,457.661L598.244,457.92L598.173,458.768L600.155,459.478L600.312,459.574L600.682,459.915L600.839,460.052L602.893,461.186L602.992,461.268L603.976,461.719L604.119,461.801L605.274,461.486L605.559,461.404L605.602,461.309L606.871,461.691L606.871,463.44L607.698,465.298L607.727,465.448L607.884,465.913L607.969,466.131L609.267,465.708L610.208,466.855L610.621,469.259L612.333,471.199L612.66,471.376L612.789,471.636L613.031,471.841L613.744,472.442L613.316,474.013L611.534,475.242L611.063,475.419L610.308,478.602L609.01,480.432L608.696,481.879L608.81,482.343L608.112,482.78L606.728,485.402L606.443,485.894L606.458,486.891L606.401,487.096L605.017,488.72L604.033,491.711L603.905,491.984L603.748,492.175L603.463,492.421L602.365,492.448L602.023,493.062L601.809,493.595L601.296,494.728L600.811,494.946L600.155,495.779L599.813,496.066L598.601,497.09L598.743,497.854L598.672,498.209L597.003,499.342L594.722,499.356L593.61,498.482L593.496,498.332L589.817,496.011L589.36,495.861L588.947,495.998L588.647,496.189L587.164,495.574L587.05,495.547L585.981,495.998L585.824,496.134L585.254,497.417L585.211,497.65L585.254,497.895L585.667,499.329L585.681,499.602L585.624,499.697L585.339,499.957L585.239,500.066L585.282,500.271L585.952,500.817L586.394,501.267L587.036,502.7L587.25,503.56L587.122,506.741L586.851,506.918L584.669,508.024L583.828,508.078L583.043,508.638L582.858,508.706L582.102,510.481L581.988,510.726L581.646,511.081L581.746,513.606L581.689,514.329L581.66,514.889L581.746,515.093L581.917,516.554L581.96,516.867L583.357,518.369L583.856,518.996L585.097,518.259L587.82,518.014L590.43,519.297L592.241,521.412L594.137,523.022L595.164,522.967L593.966,526.883L594.209,527.538L594.194,527.77L593.881,528.547L594.023,529.052L596.362,530.089L596.476,530.512L597.873,531.481L598.586,535.028L600.469,538.206L600.526,538.506L601.039,539.652L602.55,539.502L604.518,540.143L604.918,540.252L608.511,542.175L608.482,543.335L608.383,543.73L608.511,545.762L609.709,546.731L609.908,546.922L610.308,547.549L609.866,549.513L609.752,549.799L609.267,550.454L609.281,550.645L609.894,552.786L608.882,554.817L609.481,556.031L608.924,557.817L608.982,557.94L610.236,560.081L611.349,561.144L611.719,561.417L612.39,564.634L609.309,565.779L608.639,566.734L608.383,567.061L607.099,567.947L607.071,568.888L605.745,568.342L605.303,568.302L604.704,568.424L604.304,568.52L604.105,568.52L603.962,568.506L602.907,567.92L602.522,568.002L602.108,568.029L600.354,567.47L599.656,567.034L597.189,565.684L596.861,565.534L596.761,565.52L596.39,565.466L595.364,564.593L593.453,566.188L593.168,566.284L590.801,566.788L590.53,566.788L589.517,567.02L589.403,567.347L588.234,566.734L587.991,566.652L586.851,565.793L586.551,565.793L584.968,563.08L583.143,564.034L583.029,563.803L582.73,563.435L582.259,563.08L582.102,562.944L581.717,562.48L581.147,560.626L580.933,560.34L580.833,560.258L580.619,560.149L579.635,559.263L579.507,559.167L573.261,558.853L572.99,559.74L572.577,559.822L570.637,558.867L570.481,558.69L568.955,557.831L568.926,557.722L569.055,557.504L568.955,557.408L567.914,556.945L564.263,559.412L564.021,559.59L563.85,559.617L563.422,559.59L562.495,562.003L562.239,562.33L562.267,562.589L561.297,564.934L561.169,564.934L558.873,565.82L560.442,566.952L560.043,569.542L559.943,569.719L559.173,570.823L559.059,571.055L557.419,572.05L555.836,573.836L554.795,573.809L553.027,575.131L551.986,576.671L551.487,576.63L550.175,578.879L550.118,583.145L550.189,583.581L550.232,583.731L550.503,585.53L550.646,585.911L549.077,586.361L548.82,586.32L547.936,586.497L547.708,586.511L545.669,586.347L545.213,586.375L545.027,586.415L544.828,586.306L544.414,586.674L544.2,586.933L542.304,588.773L539.651,588.596L539.338,588.569L536.7,586.593L534.318,587.097L531.894,588.473L531.623,588.528L530.197,587.124L529.427,586.429L529.142,585.748L529.071,585.175L529.042,585.066L528.885,584.903L525.905,583.867L525.007,583.99L523.424,583.063L523.182,582.204L522.469,580.746L520.843,580.746L520.729,580.487L519.645,579.124L518.647,579.601L518.276,579.806L516.765,579.697L515.382,581.823L515.296,582.954L515.168,583.199L511.232,584.671L510.177,584.399L509.877,584.521L508.209,585.475L508.081,585.543L507.71,585.652L507.596,585.611L506.569,585.652L506.398,585.816L505.97,586.797L505.885,587.097L505.571,588.187L504.173,588.923L503.888,589.005L503.218,589.25L502.876,589.1L501.25,590.871L500.837,592.902L499.183,596.267L496.716,597.411L496.174,597.248L494.577,595.858L492.367,594.714L490.941,595.082L488.345,593.31L487.347,593.515L487.048,593.787L486.306,594.4L485.992,594.632L483.583,595.409L483.169,595.545L480.873,597.738L480.788,598.27L480.788,598.692L480.517,599.455L480.061,600L475.112,597.779L465.673,597.793L465.373,597.793L465.074,597.738L464.518,597.602L463.633,597.398L462.878,597.153L462.521,597.153L461.58,597.425L461.067,597.534L460.696,597.493L460.311,597.357L459.712,596.431L459.356,596.213L458.029,597.044L455.334,596.431L454.949,596.648L454.393,597.03L454.151,597.139L453.252,597.67L453.024,597.875L451.898,598.978L450.144,597.302L449.901,596.975L449.203,595.381L446.978,595.232L446.493,595.436L446.151,595.763L445.51,596.117L445.395,596.376L445.182,597.153L445.067,597.384L444.183,598.011L443.969,598.338L442.429,596.553L442.686,595.886L442.857,595.109L442.914,594.673L442.843,594.537L440.747,592.397L440.205,592.615L437.41,596.144L436.868,596.349L434.045,596.812L433.845,596.798L432.077,595.94L431.72,595.531L430.052,595.095L429.767,595.109L429.596,594.918L427.329,593.896L426.73,593.964L426.516,593.978L425.646,594.101L424.961,593.787L424.291,593.515L424.077,593.351L423.863,592.929L423.578,592.629L422.994,592.166L422.765,591.839L422.637,591.73L420.969,590.394L420.612,590.081L420.056,589.1L418.488,588.337L418.274,588.037L416.677,586.947L416.306,586.538L416.149,586.402L415.793,585.925L415.593,585.68L414.851,585.107L413.397,584.33L413.04,584.235L412.941,584.167L412.556,584.044L412.156,583.131L411.743,582.586L411.586,582.409L411.13,582.014L410.787,581.441L410.488,581.755L409.433,582.068L408.349,581.046L408.263,580.91L408.235,580.542L408.135,580.324L407.479,579.492L405.682,579.233L405.354,578.906L404.584,578.198L404.214,578.048L403.686,577.053L403.658,576.848L404.1,574.967L403.472,574.04L403.458,573.836L403.572,573.304L403.572,573.059L403.159,572.364L402.831,572.173L402.816,571.968L402.859,571.191L402.873,570.605L402.132,569.447L401.191,569.392L400.193,568.956L399.807,568.942L397.455,568.969L397.07,568.724L396.043,567.511L394.346,567.974L392.963,566.856L392.706,566.87L392.136,567.006L391.936,566.911L390.353,566.638L390.125,566.652L389.042,566.693L388.913,566.148L388.642,565.534L388.4,565.152L387.644,564.007L387.373,563.503L387.059,563.23L386.746,563.094L386.717,562.835L386.375,561.349L385.42,560.612L386.261,560.04L386.475,559.767L386.275,557.831L386.361,557.435L385.933,557.054L385.833,556.645L385.776,556.385L385.705,555.936L385.063,555.417L384.935,555.363L384.92,555.281L384.878,554.886L384.764,554.34L384.664,553.999L384.364,552.936L384.564,552.636L384.521,552.39L384.222,551.708L383.894,551.245L382.625,549.854L381.156,550.317L380.158,549.799L378.518,550.304L377.762,550.399L376.251,550.426L375.994,550.304L374.867,550.631L375.566,551.354L376.051,551.586L376.465,552.104L376.407,552.649L376.735,554.19L376.793,554.504L376.735,556.29L376.465,556.535L376.037,556.945L375.666,557.34L375.409,557.885L374.083,560.053L373.698,560.367L373.213,561.867L373.128,562.139L372.743,562.698L372.529,563.121L372.6,564.171L372.486,564.389L372.372,564.471L372.016,564.593L371.074,565.507L370.846,566.884L370.861,567.02L370.632,567.511L370.119,567.729L369.249,567.634L368.679,567.361L366.668,567.538L365.998,567.456L364.729,567.933L364.301,567.865L362.405,567.593L362.02,567.388L361.492,567.334L361.207,567.443L360.736,567.661L360.123,567.988L358.612,568.22L357.913,568.52L354.704,570.046L354.433,570.155L352.993,570.414L352.822,570.401L352.166,570.374L351.852,571.273L351.667,571.846L352.138,573.482L351.952,573.686L351.696,573.89L351.553,574.245L351.41,575.172L351.139,577.312L350.797,577.025L349.015,576.862L348.758,576.835L348.544,576.807L348.245,576.821L347.803,577.094L347.289,577.366L346.648,577.407L346.049,577.38L345.336,577.148L345.208,577.107L343.211,578.075L342.512,578.143L341.728,578.048L341.286,577.952L340.887,577.843L340.673,577.789L340.202,577.557L337.236,575.363L336.98,575.281L336.709,575.24L336.466,575.213L336.167,575.199L335.383,575.199L335.183,575.281L334.827,575.935L334.427,576.208L334.228,576.371L333.657,576.957L333.144,577.421L332.573,577.843L332.246,578.02L330.306,578.266L330.107,578.307L329.009,579.043L328.809,578.947L327.212,578.293L326.727,578.007L326.656,577.134L325.444,576.385L325.016,576.044L323.747,575.717L322.15,576.112L321.979,576.289L322.307,578.334L321.879,580.624L321.665,581.155L321.537,581.469L321.779,582.273L321.907,582.559L321.922,582.709L321.693,584.549L321.765,584.889L321.736,585.053L321.636,585.121L321.237,585.257L320.738,585.353L320.624,585.407L320.595,585.802L320.667,586.388L320.638,586.824L320.581,587.151L320.039,587.328L319.469,587.751L318.884,587.901L318.442,588.214L317.629,588.759L316.974,587.451L316.489,587.533L316.075,587.506L315.975,587.07L315.205,587.342L314.877,587.547L313.922,588.078L313.537,588.023L312.995,588.555L313.081,588.909L313.123,589.277L311.797,589.781L311.583,590.176L311.512,590.258L309.544,588.228L309.259,588.146L309.145,588.146L308.746,588.16L307.248,588.678L307.035,588.896L306.15,589.441L305.865,589.631L300.803,589.168L300.318,589.577L300.119,589.754L297.452,587.642L297.267,587.601L297.167,587.601L296.939,587.601L294.543,587.301L294.358,587.192L294.158,587.151L293.602,587.015L292.148,587.288L291.791,587.247L291.606,587.165L290.365,586.852L289.937,586.756L289.224,586.565L288.953,586.511L288.739,586.456L288.297,586.375L288.069,586.293L287.756,586.061L287.185,584.862L288.283,583.935L287.827,583.431L287.47,583.09L287.285,582.886L286.672,582.382L286.301,582.136L285.446,580.801L285.175,580.61L285.003,580.446L284.718,580.119L284.419,579.969L283.178,578.729L283.164,578.538L283.078,578.089L282.779,577.475L282.693,577.243L282.565,576.671L281.068,573.863L281.096,573.672L281.054,572.541L280.868,572.255L280.74,571.791L280.669,571.478L280.44,571.341L280.198,571.232L279.884,571.082L278.23,569.883L277.874,569.869L277.646,569.828L277.275,569.419L277.146,569.229L277.146,568.956L276.99,568.806L276.804,568.629L276.69,568.424L276.619,567.824L276.505,567.593L276.262,567.429L275.977,567.197L275.835,566.979L275.678,566.843L274.722,566.543L274.494,566.148L274.48,565.752L273.596,564.757L273.453,564.757L273.368,564.716L273.225,564.443L271.913,563.257L271.799,563.148L271.657,563.162L271.329,563.394L271.186,563.353L271.015,563.162L270.616,562.63L269.703,561.744L269.403,561.021L269.204,560.899L269.09,560.817L269.061,560.544L268.933,560.381L269.931,557.135L270.516,556.59L272.441,557.735L271.714,555.731L270.616,554.395L269.175,554.517L268.633,552.622L271.742,552.745L272.284,553.208L274.024,551.681L275.122,552.486L272.94,555.131L276.747,555.786L277.161,554.095L276.006,553.795L276.605,552.595L275.278,551.845L275.207,549.908L276.761,548.967L277.717,547.467L277.503,545.667L276.006,544.876L277.132,544.139L276.59,543.375L274.979,544.289L273.91,542.284L274.537,540.484L277.132,540.006L279.87,538.424L276.59,536.637L279.87,535.232L281.439,535.246L280.44,534.073L281.367,533.131L284.162,528.111L286.159,527.743L287.813,523.922L289.895,524.768L290.237,526.105L291.905,526.119L291.919,524.591L293.759,525.177L295.285,522.953L296.069,523.881L297.195,522.298L297.894,523.022L297.723,524.632L299.848,524.332L301.744,526.228L302.828,525.027L303.398,521.084L302.029,520.183L301.259,520.825L299.591,518.833L298.322,516.172L298.636,515.407L300.276,515.503L301.088,514.275L303.085,514.384L302.971,513.21L301.63,511.9L302.029,510.371L299.848,509.061L299.762,508.037L302.258,508.338L301.972,506.891L302.757,507.341L303.184,506.072L304.268,505.785L304.867,504.557L306.45,505.785L310.129,503.792L308.047,499.465L308.617,498.591L309.145,500.025L309.944,500.134L310.942,498.96L309.501,496.871L309.273,495.37L310.999,494.332L313.68,494.155L314.393,496.366L313.466,496.994L315.063,498.073L316.146,501.172L317.53,499.916L317.116,498.237L318,496.571L317.045,493.172L316.161,492.898L316.959,490.659L318.456,491.574L318.271,492.694L319.854,493.417L322.463,495.806L324.103,494.81L323.847,493.677L325.044,492.339L324.674,491.369L325.871,491.547L326.727,489.963L328.467,489.43L328.182,488.72L324.674,489.335L324.93,487.888L323.533,488.311L319.968,487.969L319.554,487.451L319.997,484.624L320.453,484.05L319.825,482.494L318.571,482.125L319.526,480.978L319.54,479.421L317.088,477.646L318.342,474.832L317.173,474.245L318.813,473.576L319.683,474.204L320.781,471.499L321.893,471.936L320.966,473.589L322.378,473.289L324.26,473.985L325.401,472.701L325.7,470.352L324.317,470.639L323.49,469.491L324.274,467.811L323.79,466.828L324.859,465.885L324.831,464.697L326.157,464.601L328.21,463.549L328.652,462.169L330.976,460.639L332.274,460.981L336.195,458.863L336.252,457.114L333.828,455.939L332.274,457.073L331.746,455.516L330.82,454.805L330.078,455.693L326.385,456.103L326.599,454.559L327.754,453.685L328.795,451.608L330.477,450.597L331.96,448.957L333.244,446.579L336.466,443.381L338.22,440.675L338.99,438.611L341.742,437.818L345.464,433.581L348.487,430.806L349.5,430.232L351.624,427.771L353.236,424.627L352.808,424.121L354.918,421.988L357.827,422.097L359.995,420.238L360.209,419.486L362.105,419.663L361.264,418.692L364.501,415.725L365.656,416.546L367.31,415.52L366.069,415.383L364.315,414.194L364.843,413.059L366.44,412.484L362.618,403.882L364.544,399.368L362.633,397.302L363.103,396.112L362.576,393.006L359.852,392.487L354.662,392.268L353.393,391.324L352.266,388.355L352.123,383.183L352.651,381.376L354.605,379.679L356.772,379.461L361.563,380.692L362.661,376.984L358.612,374.931L356.957,374.739L354.533,373.507L351.895,371.276L351.368,371.4L347.061,369.045L347.86,367.608L356.629,372.467L356.858,373.097L358.882,373.74L363.816,376.272L366.069,375.889L366.426,374.739L362.633,373.097L361.806,373.22L357.827,371.167L358.041,370.702L349.357,365.87L352.879,359.121L354.234,360.435L356.416,357.492L358.455,356.588L358.669,357.834L361.406,359.299L367.78,347.907L371.274,342.128L374.012,338.417L382.653,329.239L383.894,329.28L385.99,331.801L387.259,330.102L394.275,323.636L387.559,317.279L386.603,316.142L386.96,314.949L389.355,313.497L396.87,312.606L397.526,312.702L403.372,318.471L404.699,315.47L403.187,310.688L403.529,309.591L406.88,308.07L406.467,306.837L403.814,306.206L402.388,302.232L400.663,302.766L400.635,303.383L397.326,304.795L395.515,306.275L395.359,307.234L393.476,307.029L391.066,307.755L388.771,307.577L386.632,308.687L385.819,308.166L384.25,309.194L382.054,309.674L380.928,310.66L379.63,310.811L378.675,312.085L376.422,311.688L375.837,313.305L375.153,311.4L374.183,311.4L371.816,313.168L369.777,312.51L368.893,313.785L361.934,312.346L360.793,313.881L359.225,313.127L358.954,311.866L357.471,313.031L354.248,312.949L353.435,313.278L352.836,311.853L351.596,312.127L349.371,315.086L348.63,315.073L347.218,313.428L346.847,315.141L346.648,314.292L344.38,315.991L343.368,315.47L341.543,318.224L339.504,318.128L339.518,318.8L337.251,319.279L335.611,318.019L334.171,317.704L333.329,319.06L326.328,318.567L323.162,320.855L322.777,320.129L320.396,320.677L319.184,322.403L317.587,322.937L315.348,322.376L314.221,321.54L314.849,318.32L315.319,318.293L315.02,316.046L312.125,312.962L310.371,312.798L311.042,310.921L312.938,309.304L314.464,307.412L316.132,306.247L319.654,305.507L322.763,303.78L322.963,302.465L324.702,301.108L327.511,300.08L332.588,295.954L336.281,295.707L339.76,293.856L339.489,293.267L343.739,290.84L345.108,290.964L350.17,290.031L351.824,288.085L352.466,285.905L354.034,283.793L357.029,278.295L360.123,276.046L361.406,273.385L362.348,274.235L363.945,271.314L367.053,269.874L369.335,269.476L369.52,268.804L373.37,268.557L374.197,267.926L374.14,265.924L374.953,266.856L377.249,264.744L379.202,264.072L381.912,263.853L382.311,261.205L380.999,259.065L381.584,254.14L380.372,253.961L382.04,247.705L381.156,246.086L380.985,243.369L380.101,242.614L381.441,241.681L379.787,240.638L380.272,239.869L378.404,234.434L378.618,231.305L377.748,230.934L377.962,228.271L380.129,227.983L380.229,224.812L382.097,221.805L385.277,220.35L384.364,218.634L384.45,217.48L383.081,217.741L380.4,216.107L380.928,213.196L378.917,210.244L377.52,210.752L376.293,209.379L374.953,208.774L375.723,207.223L375.481,204.174L374.454,202.402L373.056,201.578L370.333,201.825L368.75,200.534L370.247,200.218L371.117,198.584L369.392,197.691L368.436,194.738L370.176,194.216L370.96,194.779L371.502,193.391L369.007,193.68L365.142,189.545L364.159,192.567L362.561,193.378L345.949,188.473L343.739,187.951L343.254,187.209L343.012,180.862L343.268,178.113L345.193,174.389L343.411,172.122L341.971,171.215L338.605,169.909L338.691,168.975L336.538,167.408L335.753,167.49L331.946,165.346L330.363,165.456L323.233,159.559L321.793,158.913L319.426,161.442L316.959,159.477L315.576,160.892L313.024,158.707L315.947,155.132L314.735,154.101L315.462,152.837L315.405,151.352L314.093,151.145L314.592,152.534L312.71,154.074L310.557,156.7L307.163,153.606L307.919,152.465L305.081,150.265L306.664,146.429ZM375.452,233.446L375.609,235.299L373.869,236.74L370.39,237.056L370.632,236.232L366.297,236.644L366.112,234.462L366.768,233.556L371.459,233.144L371.559,233.46L375.395,233.103ZM330.078,384.825L328.709,388.533L329.465,387.903L331.932,387.602L333.572,385.851L334.028,387.465L333.087,388.492L328.524,388.902ZM337.778,384.441L336.167,385.673L336.21,385.003ZM270.929,542.816L273.111,542.994L270.159,545.885L268.562,544.917ZM245.59,448.342L245.775,450.665L243.109,452.441ZM293.074,448.233L292.062,450.132L290.408,450.364L291.877,448.683ZM252.591,444.679L253.661,446.073L251.821,446.429L252.72,449.107L251.793,449.23L251.736,450.501L249.654,450.173L249.925,448.765L248.927,447.003ZM261.304,438.365L260.691,440.169L257.654,443.285L257.896,442.424ZM286.843,437.572L288.141,438.187L288.126,439.992L290.165,441.345L288.283,441.427L287.328,440.757L285.873,441.153ZM293.673,434.77L294.771,436.52L297.481,437.668L298.35,441.386L297.823,443.805L298.065,444.597L299.705,445.595L301.972,444.037L301.003,446.552L301.431,447.563L299.178,447.946L298.964,449.421L297.509,449.585L296.81,451.362L295.613,452.195L294.187,451.089L295.099,447.946L296.568,446.046L295.128,444.652L293.303,444.242L291.078,442.985L291.691,442.233L291.663,440.388L290.508,439.199L290.608,438.092L291.962,437.832L292.604,435.303ZM300.247,363.844L300.29,364.912L301.488,365.117L300.204,368.635L298.992,368.758L297.281,367.184L297.709,365.432ZM264.356,432.979L266.266,429.876L264.926,428.359L264.627,426.582L265.639,426.281L264.213,425.474L264.798,423.314L264.013,424.148L263.029,423.451L261.504,424.804L262.288,425.679L262.259,427.293L260.106,430.929L257.654,432.624L256.556,432.187L256.014,433.349L254.032,434.428L252.634,433.759L252.492,434.77L247.629,436.315L246.973,435.153L245.647,435.7L245.761,436.67L244.52,435.768L243.551,436.151L240.956,434.756L238.817,434.565L237.077,433.704L234.61,434.784L232.172,433.745L231.017,432.829L231.088,431.148L229.306,429.001L229.234,427.648L227.937,428.195L223.259,428.619L222.632,429.958L223.003,431.489L221.192,435.454L219.053,438.051L219.666,439.226L219.081,441.153L214.903,442.793L213.691,442.37L210.483,442.37L211.067,440.579L212.28,438.734L213.107,439.103L213.848,437.818L213.477,436.315L216.101,436.055L216.828,435.112L215.174,433.472L214.803,431.735L215.631,431.927L215.003,430.286L215.146,427.607L213.734,425.939L212.764,427.347L212.322,426.431L210.554,425.556L208.187,423.382L209.584,426.13L207.945,428.017L206.576,427.853L205.72,426.171L204.651,425.843L204.779,423.902L203.881,421.496L204.166,420.785L202.469,420.019L200.416,417.476L199.788,417.325L199.574,414.317L197.535,411.513L197.107,406.385L197.763,405.673L199.788,405.66L201.114,404.88L202.597,403.252L205.378,403.129L205.492,402.24L208.843,400.722L210.34,401.447L211.324,400.325L212.864,399.833L213.42,398.451L216.458,397.576L218.397,396.126L219.823,392.569L222.104,392.008L222.104,391.378L226.397,390.995L228.236,390.366L228.521,389.162L230.632,388.341L232.557,388.615L234.225,386.877L235.038,387.192L235.908,388.847L236.578,388.368L235.508,386.781L236.435,385.358L238.417,384.072L237.761,383.237L238.318,380.829L241.954,377.709L241.797,377.148L245.547,374.876L248.142,370.373L252.834,369.716L256.912,368.046L257.112,370.551L259.023,372.303L259.735,372.098L259.493,369.757L260.334,368.484L262.488,367.28L263.728,367.348L265.824,365.993L268.976,364.816L268.448,366.54L269.56,367.813L271.885,364.747L271.913,366.253L274.081,366.034L273.382,367.786L272.455,368.635L272.455,370.113L273.724,372.139L273.624,370.729L275.193,370.852L276.077,368.703L276.818,368.594L276.961,366.937L279.514,366.65L276.633,369.305L276.277,370.017L277.845,371.454L277.289,373.672L278.373,374.589L279.357,371.783L280.64,371.263L282.465,373.138L282.123,375.437L282.922,375.82L281.938,377.421L282.722,379.296L284.376,379.939L285.474,378.188L286.144,378.366L285.816,376.669L286.871,374.944L288.412,375.492L287.927,374.411L288.968,372.686L287.984,372.207L289.809,371.495L291.007,371.605L291.976,370.825L291.463,369.675L293.417,368.908L294.686,369.278L293.787,368.128L295.142,368.375L294.942,366.54L296.568,367.184L298.094,369.921L300.119,370.127L301.816,369.401L301.488,368.662L302.4,367.006L304.254,365.774L304.254,364.884L305.395,365.377L306.393,364.35L307.505,365.404L308.304,367.526L310.414,367.772L310.485,367.184L312.41,367.677L312.04,365.897L313.665,365.596L314.15,363.707L315.006,364.747L314.107,367.882L312.696,371.14L313.081,371.235L310.4,374.835L310.87,375.834L310.271,377.504L308.133,380.719L306.692,383.744L304.111,387.424L303.384,391.844L303.641,393.212L302.885,394.115L304.054,395.045L303.17,395.209L303.741,396.933L302.543,397.726L301.274,399.422L300.832,401.666L299.962,402.869L300.119,404.292L295.527,406.973L294.087,409.599L293.702,412.224L291.492,412.224L292.105,413.975L290.394,415.206L291.734,416.764L293.046,416.929L293.873,417.817L295.898,416.682L297.338,416.819L295.769,418.159L294.172,421.933L292.148,422.576L289.281,421.619L289.139,419.568L287.984,420.388L288.597,422.507L290.066,424.613L291.477,425.009L291.905,426.048L290.907,428.031L289.666,429.165L288.283,431.612L286.929,435.481L288.34,437.545L285.289,436.561L281.681,438.365L281.938,439.445L280.212,439.458L279.713,440.989L278.587,441.345L278.544,443.244L277.774,443.969L275.635,439.923L271.628,439.923L270.273,440.825L269.033,443.791L269.204,444.857L266.765,446.907L265.496,445.308L266.167,443.6L264.983,444.119L264.498,443.08L265.639,441.413L264.741,441.194L265.097,439.923L263.315,437.572L264.013,435.426L262.673,435.208L263.714,434.018L263.3,432.856ZM301.716,361.558L301.63,362.954L302.956,362.694L303.555,364.09L301.773,364.528L300.675,362.913ZM304.924,358.601L305.338,360.736L304.168,363.283L303.013,361.831L303.726,361.229ZM285.617,355.78L287.157,356.492L287.955,355.808L290.493,356.876L290.479,358.833L288.64,358.779L288.511,360.38L284.205,358.546L285.774,356.971ZM282.95,354.302L284.533,355.575L283.406,356.383L281.995,356.437L281.752,354.822ZM292.547,354.192L294.158,354.603L293.588,355.233L295.784,355.548L295.427,356.342L297.994,356.246L299.006,355.767L300.147,356.492L300.033,357.697L298.322,358.532L296.283,358.436L295.099,359.299L292.689,359.655L293.531,358.135L291.591,356.862L292.647,356.068L290.051,356.177L289.709,354.959ZM312.425,346.004L311.612,346.743L312.867,344.169ZM312.981,339.827L312.924,341.909L311.94,343.32L310.984,342.484ZM282.137,332.294L283.463,334.349L281.952,334.568L280.683,336.362L279.742,336.705L277.959,335.869L278.202,334.349L281.795,332.979ZM320.538,332.034L322.749,335.253L323.476,335.623L324.146,337.896L326.613,340.43L326.984,341.717L325.287,344.306L324.46,344.963L321.793,349.318L320.267,350.536L319.212,352.426L319.255,354.617L317.886,356.903L316.146,358.464L315.576,357.177L316.988,354.411L316.261,353.439L316.845,352.398L317.187,349.701L316.403,349.03L315.947,347.359L315.163,346.853L315.676,345.086L316.489,344.689L315.419,343.895L315.519,341.704L314.692,339.334L315.676,337.17L315.491,336.527L317.915,336.047L317.815,335.02ZM309.487,325.965L309.188,326.664L310.771,327.431L309.345,328.417L308.86,327.239ZM258.21,321.841L261.019,323.527L259.721,326.267L257.24,325.308L256.827,325.65L254.944,322.554L255.7,321.992ZM312.439,331.376L312.154,332.746L313.209,331.664L314.321,331.541L312.553,334.225L312.738,335.759L310.628,336.499L310.87,338.444L309.345,337.65L309.359,340.471L306.849,340.649L306.45,342.21L307.691,343.183L310.214,343.511L309.288,344.949L310.086,347.072L308.218,349.509L311.369,350.523L310.913,351.481L308.403,352.604L308.461,353.412L306.664,353.549L307.961,352.576L306.749,351.988L307.277,351.303L305.623,349.852L304.382,352.59L304.725,353.768L302.685,354.028L301.559,352.946L300.931,354.206L298.55,352.686L297.252,351.276L296.026,352.042L298.065,353.521L298.436,354.411L297.238,355.041L295.427,354.439L294.629,352.481L292.761,352.782L291.477,351.029L291.164,352.617L289.253,352.385L288.711,350.071L290.108,347.346L290.522,345.689L290.55,342.744L292.29,342.649L293.702,339.868L294.8,340.348L295.727,339.197L294.629,335.801L293.516,335.184L290.108,334.65L286.729,334.979L284.077,333.006L283.877,331.774L287.556,327.431L289.039,326.856L290.151,324.979L291.777,323.349L292.561,321.704L292.219,319.773L290.807,318.855L292.276,317.375L293.474,318.498L293.944,316.977L295.128,316.484L294.871,318.635L293.588,318.786L293.246,319.868L293.93,321.8L295.185,322.485L295.955,321.033L298.35,323.417L298.08,321.526L297.324,321.252L297.68,319.704L295.884,320.581L295.37,318.389L296.397,316.799L295.855,315.991L297.381,316.183L298.707,315.676L299.862,318.06L301.545,317.251L301.416,315.991L303.27,315.018L303.156,313.607L304.867,311.866L307.234,311.524L308.076,313.332L307.035,315.223L308.674,314.333L310.571,316.416L312.068,317.375L313.423,317.553L312.981,319.567L310.885,321.978L310.728,324.335L308.76,323.554L307.99,324.225L305.894,323.979L306.236,325.952L307.591,326.006L306.008,328.006L307.505,327.308L308.204,328.198L307.405,329.828L309.059,330.267L308.931,330.911L311.441,329.637L311.027,332.349ZM329.75,320.17L335.326,321.8L336.951,321.567L337.793,322.499L337.094,323.157L337.778,328.623L336.851,330.061L333.386,332.897L332.445,334.883L329.137,338.444L327.625,338.526L326.627,336.211L326.599,334.787L328.966,332.5L330.221,332.363L328.296,329.691L327.369,330.5L326.556,329.774L325.458,330.568L323.547,330.623L324.503,328.691L323.376,328.924L324.246,327.76L323.533,326.719L325.244,326.116L320.624,323.677L321.48,322.773L323.462,322.417L326.599,320.773ZM91.287,570.633L90.873,572.227L91.615,573.345L89.946,572.977ZM122.886,567.674L123.998,568.274L122.287,568.397L121.802,566.679ZM127.278,559.263L127.563,561.471L129.075,563.353L127.064,563.271L126.879,560.394ZM123.399,554.436L125.61,556.154L125.567,556.999L124.141,556.454L122.544,554.667ZM110.851,550.317L110.138,552.186L108.955,552.076L109.225,550.781ZM87.18,549.99L88.763,551.326L89.889,551.381L89.946,552.663L91.044,555.213L90.146,555.145L89.604,553.972L87.408,553.208L86.353,551.19ZM116.569,547.999L117.767,547.944L118.423,550.945L119.92,552.24L121.132,552.022L121.546,553.276L120.719,554.558L119.293,553.113L118.123,553.426L119.863,555.936L123.399,558.294L124.369,558.063L125.496,560.49L124.127,560.776L124.669,562.453L123.271,563.38L124.669,564.784L124.74,566.625L121.531,562.276L120.433,561.158L120.277,559.412L117.967,556.481L115.542,556.931L114.387,558.731L113.518,561.049L113.774,562.507L112.762,565.711L110.937,562.971L111.393,562.18L110.167,558.376L111.721,558.444L113.104,557.013L111.022,556.167L111.906,553.386L113.346,554.299L114.116,553.699L112.177,550.495L112.876,549.635L114.73,549.185L115.5,547.876L115.685,548.926ZM139.014,542.107L140.597,542.503L140.768,544.071L139.199,545.64L137.602,545.339L135.506,546.199L135.121,545.353L136.304,544.03L137.417,543.785ZM91.273,538.656L92.242,539.747L91.201,540.511L90.745,542.066L89.319,542.243L89.989,540.416ZM145.345,532.736L144.632,535.519L144.176,535.546ZM96.092,522.039L94.838,523.404L94.909,522.517ZM167.989,500.858L170.057,502.386L171.283,502.523L172.353,505.567L170.756,506.618L170.428,507.655L168.103,508.815L165.08,508.966L163.683,506.29L164.538,503.861L165.993,502.291L167.747,501.649ZM264.184,449.667L263.243,451.758L264.855,451.116L266.167,452.4L266.323,453.534L265.325,454.901L263.329,455.789L261.803,454.792L261.974,454.081L259.992,452.51L260.192,450.036L263.029,449.244ZM211.41,444.898L211.752,445.991L211.353,447.645L211.524,451.635L210.212,453.084L208.544,452.578L208.101,449.79L208.601,447.891L209.642,447.659L208.757,446.743ZM242.553,477.331L242.966,478.219L242.196,479.011ZM242.296,468.904L242.752,469.724L240.927,472.196L241.54,473.753L242.439,473.398L242.41,475.187L240.699,476.84L240.599,473.398L238.731,471.855L238.303,470.857L240.029,470.857L240.67,469.833ZM236.592,466.486L235.95,468.358L234.91,469.164L234.011,468.522L235.366,467.798L235.038,466.882ZM257.012,464.56L256.484,465.803L253.59,467.593L255.286,465.352ZM266.309,460.393L267.051,461.732L269.147,463.385L270.658,463.645L273.867,461.609L275.008,462.156L275.022,465.229L272.612,467.688L271.813,469.423L270.288,469.628L269.788,471.595L266.979,476.471L264.484,478.615L263.4,480.541L261.532,482.016L259.279,482.043L257.625,482.521L255.671,484.337L254.117,486.372L253.946,485.43L250.966,484.61L249.055,485.689L247.515,484.883L246.346,485.457L245.176,485.075L243.052,485.334L241.954,486.604L241.184,486.058L243.693,484.583L244.991,482.821L246.631,482.412L247.943,483.832L249.811,480.281L250.895,479.284L252.021,480.022L253.133,479.121L253.746,479.585L253.975,482.644L255.7,480.855L256.442,479.216L255.942,477.85L256.741,473.057L254.887,473.985L254.345,472.893L254.83,471.677L254.388,470.653L256.484,468.631L256.499,467.661L258.039,468.317L258.666,465.79L259.45,466.24L261.404,462.183L263.443,461.213L264.94,461.473ZM268.591,458.166L269.076,459.259L267.806,460.981L266.908,460.065L267.35,458.453ZM247.629,451.744L247.059,453.371L248.399,453.002L248.884,451.99L249.568,452.906L251.037,451.731L251.436,453.398L250.167,454.505L251.836,455.297L251.878,457.456L252.962,455.229L253.518,455.721L253.661,453.575L254.459,453.835L253.761,455.188L253.718,457.265L254.887,457.128L255.201,456.103L256.442,456.964L256.228,459.095L258.794,459.396L260.306,458.727L258.752,462.074L258.937,463.003L256.798,463.413L254.531,462.702L252.862,463.454L253.276,464.505L250.31,466.937L249.226,466.514L249.554,465.011L248.442,464.997L247.472,466.814L245.462,467.32L246.103,465.011L247.301,464.683L247.216,463.221L249.511,462.101L250.78,462.347L248.898,460.325L247.13,461.787L244.791,460.858L241.783,460.899L241.184,457.456L240.542,457.388L241.783,454.915L242.681,454.327L245.989,457.319L246.93,455.379L246.831,452.701ZM253.989,436.793L255.101,437.067L254.317,439.062L253.718,441.96L253.062,437.709ZM209.813,432.624L210.939,433.909L210.012,434.715L208.686,434.114ZM209.499,430.56L210.169,431.339L208.757,432.405L207.987,431.571ZM274.808,365.336L274.138,364.254L274.865,362.078L275.421,363.447ZM193.657,355.986L193.913,357.902L192.188,357.546ZM157.323,356.205L157.908,353.412L159.177,354.11L162.913,355L166.677,354.671L167.319,354.137L169.943,353.795L171.055,352.891L174.249,353.042L177.472,352.439L179.026,352.919L181.522,352.344L184.331,352.303L186.812,353.357L189.949,353.384L188.837,355.424L190.648,356.725L190.748,359.148L192.687,360.134L193.471,359.764L194.883,360.545L194.17,362.721L192.715,362.42L192.074,363.693L191.817,366.212L192.772,369.716L191.532,370.387L191.204,371.974L191.988,371.55L193.585,374.014L194.384,374.547L193.542,376.45L194.07,377.353L191.532,382.061L193.001,384.332L193.414,386.152L197.678,391.57L196.394,393.307L196.865,394.375L198.063,394.019L198.933,395.018L197.008,396.345L198.163,396.522L197.35,399.436L193.599,402.541L196.409,405.113L195.938,407.616L196.565,408.655L197.25,411.855L198.79,414.057L199.289,417.763L201.3,420.839L202.84,421.222L201.727,423.136L198.619,422.412L197.72,423L200.23,423.615L199.517,426.732L196.152,428.318L195.254,429.89L195.14,431.503L193.999,431.38L193.813,433.444L195.296,433.485L195.852,435.016L195.425,439.322L194.398,440.279L192.088,440.538L192.174,441.181L194.726,442.479L197.164,437.108L197.906,437.818L198.505,436.451L203.424,438.092L204.223,438.898L202.112,441.017L204.922,440.566L205.82,443.477L203.424,443.627L202.711,445.171L203.182,447.194L204.779,446.661L204.565,448.479L205.635,448.82L205.82,450.788L206.804,451.43L206.362,453.043L204.922,452.578L203.524,453.439L203.467,454.6L201.499,457.278L199.802,457.702L200.43,458.604L199.047,461.227L198.305,463.426L198.505,466.473L199.203,468.931L197.578,470.816L196.551,470.885L195.738,473.862L197.036,475.037L194.626,474.996L194.897,476.253L193.015,475.679L191.09,476.881L191.018,477.878L189.179,479.571L188.395,481.183L185.771,482.985L182.463,483.026L181.892,481.333L180.324,479.394L180.224,477.632L180.965,476.307L179.982,475.174L181.108,475.447L181.122,472.865L181.864,473.685L182.106,472.128L184.217,469.847L184.83,468.071L183.447,467.32L181.664,469.915L179.953,471.718L178.955,471.8L178.712,472.824L177.358,472.128L176.602,469.314L175.504,469.601L176.06,471.021L174.72,472.182L175.861,474.422L176.16,477.195L174.449,475.884L174.121,476.826L173.009,476.867L173.793,479.08L173.322,480.104L175.205,481.292L175.162,482.166L171.027,482.18L171.44,480.978L170.114,480.514L169.529,479.093L168.873,479.284L169.558,482.658L168.132,481.62L168.431,483.805L167.49,483.873L168.417,485.525L167.504,486.058L167.975,487.437L167.49,489.922L168.659,489.294L169.201,490.495L170.285,489.198L169.814,487.942L170.157,486.604L171.312,489.021L173.379,487.273L178.213,487.874L179.212,488.598L179.597,490.96L177.857,492.543L177.044,494.332L174.32,496.243L172.695,496.448L171.725,497.964L169.943,497.568L169.757,498.796L167.704,495.806L166.463,495.52L166.435,493.991L164.938,494.646L163.911,496.394L161.273,498.537L159.519,500.475L158.464,502.523L157.024,503.943L155.755,507L153.801,506.618L153.345,508.188L154.657,509.389L154.5,510.74L153.231,511.231L152.076,514.002L150.136,512.924L146.871,513.62L145.602,513.306L144.974,514.056L146.186,514.848L145.787,516.212L146.172,517.4L148.154,518.205L148.168,516.458L150.407,516.444L150.165,518.587L149.01,518.996L149.808,520.102L149.566,522.339L150.065,523.745L149.338,525.805L147.983,527.142L147.242,526.092L146.201,526.487L144.418,528.479L144.005,525.096L142.778,524.946L143.263,524.004L141.809,522.449L142.465,521.357L143.52,522.421L143.163,520.798L145.402,519.788L143.534,519.938L140.896,519.051L140.112,519.638L139.27,523.963L139.998,525.355L141.21,525.887L138.786,527.688L138.358,529.462L136.96,528.725L136.404,529.543L138.957,531.576L140.368,531.44L141.709,532.831L140.269,532.995L139.955,534.482L138.8,536.446L136.989,535.505L136.875,536.883L134.294,536.842L133.78,537.442L132.141,536.951L131.371,537.674L129.873,536.91L128.932,537.469L128.661,538.738L125.638,539.993L123.856,543.512L123.2,543.198L123.628,541.793L122.587,540.293L123.171,537.797L120.291,538.288L121.888,538.847L121.075,539.611L119.92,538.711L118.794,536.146L118.523,534.618L117.938,535.505L116.412,535.219L116.697,537.974L117.767,541.057L117.91,545.394L116.926,545.612L116.797,544.535L115.813,544.071L116.042,546.417L115.058,546.881L114.059,545.585L114.259,546.962L112.919,546.69L113.218,547.972L114.33,547.985L113.803,549.008L109.14,548.694L108.955,543.457L108.413,541.971L107.044,542.557L107.885,543.621L106.958,545.026L103.793,547.058L103.878,548.408L102.923,547.467L103.265,546.362L101.34,544.848L99.329,545.012L98.859,544.507L99.757,542.38L102.252,540.047L102.523,538.165L102.124,536.951L102.695,535.86L101.682,534.878L101.853,533.854L103.108,533.254L103.636,531.249L104.006,532.722L105.318,532.79L105.218,530.649L106.288,531.917L105.161,535.041L104.848,536.91L106.801,535.341L107.514,532.599L109.91,530.84L109.154,527.552L109.382,525.314L108.056,522.858L108.199,521.725L106.374,521.944L105.618,521.343L105.96,519.733L104.848,521.166L105.903,522.339L105.575,523.431L103.236,524.113L102.281,522.258L99.415,521.302L98.702,522.08L97.789,521.193L99.443,518.914L101.525,518.355L101.097,517.768L102.523,516.185L102.837,513.838L101.825,514.548L100.812,516.895L98.631,517.768L97.818,519.665L96.691,520.388L96.934,518.519L95.365,517.946L92.798,520.92L90.645,521.275L89.091,519.651L88.15,519.733L89.847,517.986L90.118,515.68L91.429,514.015L91.216,513.033L92.67,510.863L94.78,505.703L96.463,505.035L97.918,501.895L97.49,501.417L100.313,498.018L99.629,496.83L100.712,497.09L102.737,496.475L103.465,495.042L104.976,495.247L106.16,493.881L108.184,489.581L109.596,488.707L111.849,488.625L112.548,488.092L114.701,487.983L114.444,489.581L116.127,490.728L115.2,491.902L115.186,495.834L117.097,496.694L117.353,498.318L118.223,499.902L117.025,501.868L118.081,502.591L119.649,501.526L120.462,500.079L119.735,498.168L118.209,497.349L120.063,496.871L118.851,495.028L116.897,495.82L117.824,494.318L117.04,492.352L117.81,490.291L116.384,489.253L118.523,489.089L119.065,487.464L121.589,488.871L122.515,486.986L123.143,487.847L123.357,489.772L126.337,486.208L126.979,487.41L125.767,490.181L124.184,491.11L125.553,491.943L124.227,492.694L125.153,494.223L126.594,495.151L126.765,497.049L125.98,498.359L126.993,498.66L126.922,500.257L127.991,500.68L129.203,499.533L131.314,500.312L131.456,501.554L132.454,499.042L131.798,497.581L134.037,495.342L132.24,494.4L132.811,493.008L131.356,490.728L133.923,491.233L133.78,490.659L136.076,488.543L133.324,485.58L132.312,486.331L129.831,486.932L128.932,486.577L128.946,484.842L128.048,483.586L123.214,482.33L121.817,480.609L120.704,481.688L120.804,483.381L120.091,486.03L118.352,487.055L116.897,486.618L116.74,485.252L115.514,484.911L116.213,483.846L116.013,480.91L114.715,479.981L114.202,481.087L115.2,481.906L114.715,483.518L113.09,484.037L111.407,483.436L111.336,481.087L109.14,481.142L107.685,483.081L106.445,482.343L105.489,480.391L105.176,481.961L105.575,483.709L103.75,483.791L104.106,485.744L102.324,484.583L100.513,485.17L100.641,483.368L99.971,482.453L100.855,481.101L100.37,478.383L100.67,476.662L99.714,476.102L97.789,479.53L96.877,476.116L94.552,475.501L94.966,474.573L94.239,472.865L92.927,472.879L93.754,470.434L93.055,469.997L94.239,467.688L94.41,465.352L93.169,464.41L92.642,462.907L92.699,460.94L91.672,458.207L92.485,457.046L92.485,455.488L93.811,452.838L96.135,449.968L96.335,448.602L97.575,447.713L99.686,447.604L100.898,445.417L100.399,443.791L97.818,443.039L100.185,439.978L101.668,438.72L102.124,436.889L101.297,436.957L102.837,435.413L102.195,434.469L104.662,432.802L102.31,432.419L102.338,430.984L105.147,428.564L105.147,427.101L103.693,426.377L104.477,425.611L105.29,422.33L106.473,420.812L106.202,419.103L107.357,417.12L108.47,416.71L109.881,414.426L111.578,412.812L113.674,409.476L116.084,404.1L117.71,402.322L118.038,401.119L120.59,398.191L120.02,395.674L120.818,393.636L119.293,393.006L121.76,385.495L124.284,386.001L124.94,384.441L123.927,380.405L121.546,374.753L120.419,374.766L119.521,373.877L119.82,372.412L119.421,370.469L118.152,368.744L116.769,368.183L115.628,368.95L113.746,367.129L111.136,365.966L108.983,364.172L110.209,362.571L112.077,361.462L112.862,360.285L117.182,359.189L120.419,360.298L121.146,362.105L119.193,363.529L118.879,365.295L118.209,365.596L119.236,367.102L118.851,368.115L120.89,370.455L122.644,371.222L123.485,373.124L126.693,371.044L127.521,371.619L133.481,371.304L135.563,368.566L138.401,367.95L140.925,367.033L145.174,364.241L148.097,361.27L149.894,360.572L152.831,358.327L155.07,358.135L156.639,357.286ZM157.295,351.454L160.203,351.481L158.991,352.234L156.824,352.7L156.296,353.316L154.942,352.878L152.076,353.097L152.403,351.892L153.844,351.864L155.954,350.961Z"
          fill="#e0e0e0"
          stroke="#333333"
          stroke-width="1"
          stroke-linejoin="round"/>
  </g>
</svg>