<?xml version="1.0" encoding="UTF-8"?>
<svg xmlns="http://www.w3.org/2000/svg"
     viewBox="71.64214426316175 -20 656.7157114736619 640"
     width="656.7157114736619"
     height="640">
  <title>大分県</title>
  <desc>都道府県コード: 44</desc>
  <g id="44">
    <path d="M614.823,293.967L615.857,295.526L614.534,296.6L614.337,295.452L612.574,295.232ZM645.555,270.575L645.571,272.886L642.333,273.592L640.266,275.593L638.199,273.474L637.789,272.135L636.36,271.326L638.062,271.458L644.066,271.223ZM610.917,581.911L610.324,581.238L606.904,583.563L606.57,584.09L604.974,585.07L603.12,584.967L602.679,585.04L600.399,585.231L599.867,585.187L597.344,586.693L595.672,587.059L595.14,587.234L592.936,587.161L591.979,587.702L591.781,583.973L591.052,582.422L590.945,581.94L590.565,580.872L591.538,579.512L591.964,579.102L593.347,576.045L592.678,573.397L592.952,571.071L591.751,569.828L591.523,565.614L591.097,565.073L590.641,564.371L592.724,560.245L593.651,556.835L593.119,555.825L593.575,555.547L595.627,552.694L595.231,551.435L597.724,547.937L597.952,547.381L598.119,543.371L597.937,542.917L597.983,542.449L597.755,537.925L595.931,536.915L592.708,539.682L592.541,540.019L587.404,538.555L585.854,538.936L584.455,536.71L584.167,536.403L581.689,535.1L580.96,533.007L578.847,534.236L576.37,533.9L575.108,535.686L573.466,535.978L572.372,537.34L572.068,537.516L570.928,536.857L570.731,536.681L568.071,535.905L565.989,537.633L562.994,534.134L562.949,531.352L562.326,530.62L561.976,530.606L560.639,530.723L557.295,529.493L555.562,529.522L555.106,529.405L554.422,529.156L554.24,528.951L552.826,527.736L552.659,527.736L552.112,528.79L550.288,529.083L549.999,528.819L549.3,528.497L548.51,529.376L548.267,529.537L547.826,529.771L547.385,529.859L547.294,529.844L547.051,529.698L542.704,531.191L542.293,531.118L540.257,530.43L539.74,531.294L538.068,531.748L537.673,532.099L537.916,535.554L537.642,537.969L537.445,538.204L536.837,540.194L535.241,541.131L535.408,542.2L535.119,542.873L534.618,545.844L534.435,546.152L534.694,548.289L534.815,548.698L534.299,550.835L534.207,551.172L530.727,554.304L530.286,554.655L527.809,557.362L527.778,559.952L527.018,563.39L526.38,565.029L525.483,566.492L523.264,566.916L522.93,566.785L522.307,566.229L519.92,566.126L518.203,565.161L515.634,566.799L509.874,567.882L508.43,568.818L505.025,568.848L504.782,569.857L502.882,569.009L502.305,568.818L494.72,566.858L490.997,567.677L488.489,566.902L487.744,566.77L485.647,566.829L483.944,565.424L482.136,565.175L479.856,566.068L478.488,565.541L476.603,566.009L474.779,565.57L474.186,565.556L471.451,566.58L469.444,564.883L467.195,564.912L466.83,565.205L465.204,567.604L464.641,568.116L462.27,571.013L462.012,571.598L459.945,573.851L459.231,574.217L458.866,574.436L458.547,574.802L455.598,577.142L454.139,576.308L450.871,576.396L450.294,576.279L447.284,575.65L446.874,575.475L446.555,575.372L446.053,575.211L444.244,575.241L441.813,574.451L439.913,574.363L437.785,571.949L437.283,571.774L436.721,571.627L433.939,571.452L432.815,570.837L432.359,570.764L431.72,570.281L431.462,569.725L427.541,567.531L426.31,565.439L426.264,565.351L426.386,565.044L427.13,563.376L426.173,561.371L427.556,555.928L428.377,555.416L428.757,554.918L430.109,552.094L430.687,549.942L428.985,548.625L428.498,548.391L425.322,546.401L424.881,545.259L422.996,544.103L423.407,541.951L423.3,541.819L418.68,541.058L416.111,537.896L414.637,537.091L412.798,533.841L412.691,533.431L411.308,530.796L409.849,529.054L409.636,529.142L404.818,532.304L404.499,532.319L404.119,532.275L399.848,533.49L397.857,533.578L394.528,532.919L392.021,533.709L391.291,533.739L390.835,535.334L388.859,537.896L388.601,539.506L387.248,540.692L385.698,540.882L385.075,542.507L383.57,543.473L381.047,542.683L378.98,542.741L378.433,542.683L377.536,543.254L377.293,543.327L374.648,542.888L374.222,542.654L374.055,542.595L373.447,542.551L371.487,543.473L371.137,543.693L369.45,543.473L368.888,543.429L368.538,543.502L368.219,543.473L365.27,545.156L362.565,544.893L358.005,546.913L357.671,547.176L356.865,548.274L355.528,548.45L352.518,547.849L351.576,547.147L351.287,546.693L351.211,546.62L350.786,546.21L349.889,545.259L349.6,545.127L348.05,544.19L347.883,542.668L348.035,542.156L349.038,540.56L348.703,539.609L348.718,539.258L348.597,536.066L345.694,532.289L343.961,530.928L342.988,531.089L342.411,531.264L339.234,530.942L338.794,531.118L338.687,531.177L337.76,531.03L337.699,529.024L337.456,528.614L337.198,527.736L335.556,526.726L335.298,524.764L334.006,523.358L331.756,522.069L331.3,520.825L329.218,519.639L326.513,519.507L326.437,519.199L323.959,518.101L323.67,518.13L321.208,516.68L320.843,516.197L319.84,515.597L317.971,513.151L317.804,512.199L315.448,511.496L315.174,511.218L314.505,509.782L312.91,509.797L311.253,509.05L311.283,507.336L310.356,505.593L311.131,502.751L310.037,503.542L306.708,504.319L303.395,499.47L301.358,493.288L301.997,491.398L301.89,491.148L301.966,487.808L301.176,484.32L301.252,483.881L301.586,480.715L301.237,477.857L299.884,475.366L299.656,474.794L298.896,473.798L297.817,468.638L299.018,467.788L300.325,465.736L300.644,465.516L300.568,464.211L299.002,464.197L298.273,461.162L300.006,461.162L300.72,460.869L301.237,459.652L297.863,456.984L297.969,456.69L298.486,455.224L302.772,455.122L303.349,453.347L304.55,452.028L304.793,451.778L306.374,448.582L306.252,447.159L303.228,445.928L303.061,445.282L302.574,444.93L301.966,444.696L298.425,444.065L297.908,440.487L297.984,440.179L298.729,439.02L298.653,436.6L296.829,434.253L295.811,433.578L295.309,433.666L293.166,430.689L291.981,428.503L291.585,428.62L290.78,427.843L288.941,427.637L288.515,426.185L288.12,426.038L286.874,423.808L288.302,422.693L287.664,420.478L287.679,420.302L287.406,419.04L287.254,418.849L286.038,416.912L285.871,416.692L285.643,416.296L285.703,416.076L285.673,415.812L285.521,414.022L285.323,413.758L284.32,409.649L284.199,409.355L284.199,407.536L283.135,404.013L283.499,402.619L281.797,400.623L280.11,400.05L278.697,398.406L278.089,397.673L277.906,397.805L277.648,397.995L277.541,397.922L277.572,397.423L276.994,396.396L276.69,395.97L273.635,392.564L274.638,390.979L271.948,388.483L270.2,390.01L270.322,390.494L268.483,390.714L267.586,389.217L264.546,387.499L264.394,387.235L262.844,385.312L261.75,381.685L262.966,377.309L261.841,375.268L262.175,372.875L262.19,372.596L261.491,371.347L259.135,370.143L259.151,367.397L257.479,365.796L257.631,364.268L258.634,363.96L259.12,358.642L258.375,355.969L256.324,351.605L254.576,351.018L251.612,347.785L248.511,345.537L250.32,345.067L249.195,342.907L248.937,342.716L243.784,340.247L242.948,340.321L242.432,337.749L240.532,336.294L236.732,335.839L235.516,334.634L234.483,331.591L234.619,330.533L234.543,330.445L234.726,329.519L232.005,326.829L231.686,326.697L229.102,324.948L226.123,324.051L224.634,325.418L224.117,325.653L220.028,324.419L219.329,324.448L217.429,323.448L210.438,321.978L209.86,321.493L206.957,319.817L204.556,320.303L204.1,320.244L199.601,320.141L199.297,320.17L196.956,320.244L196.591,320.332L195.695,321.949L195.71,322.258L194.266,324.419L192.564,325.536L192.153,324.874L191.941,324.713L191.241,324.918L190.892,325.462L187.746,327.711L185.527,329.887L185.207,330.078L182.912,329.46L180.526,330.107L179.964,329.71L179.599,329.078L178.535,328.064L178.216,327.976L176.255,327.652L174.598,326.432L174.082,326.432L173.398,327.358L174.127,329.534L171.908,331.474L171.878,332.106L171.817,333.135L170.312,335.457L170.677,336.735L170.768,337L170.115,339.851L169.112,340.85L168.58,342.628L168.671,343.01L169.72,344.832L168.367,347.315L169.841,349.74L169.78,350.65L167.926,349.798L167.637,349.96L166.908,350.753L167.257,352.369L167.668,352.575L168.352,353.089L168.519,353.545L170.449,355.645L170.647,355.763L172.258,357.496L174.629,358.172L174.492,359.538L174.477,359.773L174.006,362.182L174.051,362.461L174.416,363.945L174.75,364.239L177.577,365.884L178.839,368.116L178.9,368.645L179.325,369.453L181.818,370.407L182.897,372.302L183.064,372.831L183.307,373.242L183.535,373.77L183.627,374.005L183.718,374.622L183.885,375.709L184.964,375.753L186.226,378.543L186.636,379.571L187.958,380.378L188.399,380.584L189.189,382.713L187.548,384.225L186.818,386.618L186.378,386.692L185.344,386.707L185.086,386.809L183.444,389.334L182.669,393.034L182.806,393.21L186.104,396.63L184.387,399.449L184.736,399.801L184.888,400.094L184.767,401.269L184.523,401.592L183.931,401.797L183.718,401.929L183.611,402.076L183.703,403.441L183.779,403.544L184.432,404.233L184.311,404.439L184.539,406.053L183.383,408.431L182.593,408.9L182.472,408.974L179.796,410.588L179.128,413.127L179.249,413.332L179.037,414.667L177.137,415.885L177.076,416.076L177.213,416.399L177.121,416.575L175.358,418.292L174.142,418.526L172.942,419.92L172.471,419.95L169.704,419.906L166.193,419.231L166.148,420.361L162.865,419.95L161.36,417.294L160.783,416.619L158.791,414.418L157.454,412.1L157.363,407.917L156.36,406.303L153.381,404.351L153.107,404.087L151.39,402.971L149.246,403.323L148.365,402.59L146.632,403.265L146.465,402.986L146.283,402.619L145.887,402.179L145.675,401.65L142.498,403.353L140.477,402.898L139.945,403.5L138.09,402.648L137.771,402.692L136.236,402.59L136.57,401.371L133.926,397.673L131.783,395.911L128.12,396.425L127.056,395.383L127.527,393.973L126.904,391.243L123.894,389.584L124.107,387.72L123.454,385.018L122.192,383.212L121.721,382.757L118.712,381.568L117.085,380.143L115.201,379.967L112.328,380.892L110.763,379.13L110.823,378.352L109.303,378.073L106.917,379.042L105.397,378.983L104.865,378.851L102.829,379.072L101.917,379.997L101.567,379.747L100.61,378.734L100.822,378.279L99.014,375.298L99.15,374.754L99.029,373.065L99.637,372.272L99.971,372.258L101.126,371.039L104.774,370.495L105.245,370.231L105.625,370.084L106.476,368.219L106.765,367.778L109.699,365.193L108.635,362.946L109.471,362.359L109.729,362.373L110.079,362.226L110.367,362.168L110.854,361.639L110.975,361.36L111.173,360.816L111.203,360.478L111.948,359.744L112.465,357.438L112.51,357.085L112.313,355.983L113.331,354.22L113.483,352.178L114.198,350.959L114.441,347.653L117.617,345.684L118.514,344.465L118.256,342.378L117.374,341.041L117.207,340.703L117.04,337.646L115.52,335.765L117.906,332.899L117.632,332.062L121.493,330.842L121.919,328.387L121.934,327.976L121.721,325.918L122.344,325.007L120.961,324.169L116.173,323.243L115.231,321.964L114.973,321.846L114.334,321.773L114.03,321.273L113.605,320.552L110.702,321.023L108.346,318.112L106.264,317.083L105.716,316.789L104.303,315.907L103.786,315.833L102.631,315.142L100.686,312.687L100.154,312.408L98.983,311.187L97.387,310.776L97.509,309.349L98.527,307.07L99.226,306.659L99.682,306.703L99.926,306.659L101.187,305.07L101.476,304.835L101.522,304.747L101.506,303.629L103.057,302.938L104.485,303.041L106.279,301.453L107.723,302.026L108.695,299.938L105.245,298.1L103.315,297.923L102.95,297.614L98.877,297.497L97.631,297.35L95.001,297.276L92.387,295.467L91.855,292.981L92.98,290.702L92.676,290.128L91.642,287.098L91.764,285.877L91.718,285.641L92.478,284.906L92.645,284.626L92.888,284.008L93.299,283.655L93.968,283.185L94.15,283.185L95.7,282.67L96.795,283.597L98.026,282.89L98.938,283.346L99.287,283.332L99.378,283.346L99.941,283.508L101.765,283.273L102.205,282.89L103.391,281.257L104.698,281.625L105.96,280.492L106.188,280.507L106.476,280.331L106.628,280.36L106.841,280.566L107.1,280.698L110.808,281.184L112.723,279.889L112.693,278.256L112.738,278.065L112.647,277.256L112.556,277.153L109.303,277.903L108.346,276.8L108.163,276.476L107.708,275.358L107.708,274.946L107.176,272.886L106.522,272.871L105.944,272.533L105.412,271.915L105.124,271.753L105.306,270.899L105.412,270.458L107.495,267.25L108.057,266.852L111.006,264.527L111.188,264.321L111.325,264.012L111.477,263.865L112.039,262.393L111.416,261.245L111.446,260.657L109.623,257.242L110.261,255.976L110.398,255.608L109.972,254.313L109.972,253.974L109.835,253.253L109.851,253.047L108.589,251.06L108.467,250.795L108.057,250.044L107.844,249.558L106.993,246.511L106.157,244.921L106.081,244.597L106.051,244.42L106.142,244.008L107.571,242.683L106.157,241.108L104.303,236.97L104.06,236.72L102.737,235.895L102.251,235.777L101.734,235.733L101.02,237.014L101.932,238.369L101.066,238.855L100.883,238.708L100.138,236.97L97.98,235.203L96.84,232.935L99.196,231.625L100.442,229.828L100.245,228.945L100.412,228.768L101.035,228.385L101.218,228.385L103.68,227.369L105.291,225.322L108.847,222.818L108.999,222.744L109.471,222.332L109.638,221.934L109.607,221.021L109.258,220.402L108.878,217.869L108.847,217.559L109.03,216.793L109.06,216.558L109.197,215.129L109.668,214.422L109.729,214.23L110.094,213.538L110.443,213.214L110.778,213.17L111.021,213.17L113.833,213.199L114.365,213.081L116.979,212.58L117.101,212.58L117.587,212.86L117.754,213.229L118.18,212.639L121.128,212.242L121.736,211.859L121.812,211.343L121.797,211.078L121.189,205.435L121.447,204.507L121.63,203.888L122.42,199.556L121.964,198.672L122.299,196.756L124.259,196.343L124.563,196.078L124.381,195.371L124.244,194.855L123.317,191.922L123.682,190.154L124.062,189.667L124.822,188.135L124.107,184.288L124.411,182.298L126.296,180.219L127.329,177.079L127.025,174.219L126.068,172.76L128.226,171.772L128.439,171.109L128.621,170.991L130.81,171.05L131.722,170.46L133.637,170.651L134.853,169.678L135.628,168.705L136.175,167.717L140.75,166.022L141.343,166.066L142.787,164.296L143.44,161.524L143.44,160.772L143.076,160.728L148.638,151.127L149.231,149.622L153.001,148.398L154.597,147.071L155.144,146.687L156.375,145.905L156.588,145.832L158.624,144.961L159.126,142.542L161.132,141.214L162.667,140.816L163.868,138.175L166.057,137.024L167.941,136.803L168.473,136.611L169.355,136.921L169.659,136.847L172.273,136.051L172.562,135.77L173.398,136.302L176.255,135.254L178.125,134.044L181.484,134.974L182.137,135.239L184.63,135.844L184.843,135.874L186.91,133.793L189.114,133.336L189.22,133.336L189.98,133.631L192.032,130.134L194.95,129.986L195.558,131.093L195.679,131.241L198.142,132.967L198.962,135.239L199.023,135.313L200.771,134.693L202.185,135.313L202.519,135.298L203.507,136.567L205.589,136.183L206.182,135.859L208.264,135.239L210.423,135.785L211.304,137.054L211.547,137.216L213.523,137.039L214.769,137.969L215.453,137.718L216.198,138.042L223.175,136.862L224.482,137.334L224.938,138.5L226.989,138.101L227.111,138.072L228.388,137.806L229.057,136.641L230.075,136.715L230.88,136.892L232.157,137.349L232.355,137.792L234.467,139.562L236.048,139.887L236.504,139.887L241.14,139.769L241.079,139.252L241.109,138.456L242.827,137.806L246.718,138.47L248.937,137.703L249.94,138.219L250.913,137.526L253.117,137.629L253.77,136.538L257.342,136.228L258.679,137.467L259.227,137.91L263.543,137.349L264.227,136.331L262.646,133.779L260.397,132.967L259.667,131.492L260.473,128.231L260.534,127.699L258.862,125.427L259.014,124.335L263.923,121L264.47,120.099L264.546,119.701L268.726,115.583L269.06,115.022L269.608,112.085L269.836,111.288L270.702,106.21L270.124,104.158L268.528,101.353L267.723,100.939L263.133,96.894L262.175,95.255L261.886,93.881L261.917,89.584L261.962,89.126L262.707,87.089L264.09,85.907L264.47,85.213L264.729,84.342L264.212,80.959L265.869,76.824L266.811,75.14L268.24,72.569L270.018,73.781L271.036,72.156L269.699,71.314L270.839,70.752L273.909,72.481L277.754,72.525L280.992,74.608L279.943,75.11L283.439,77.252L282.086,79.438L283.986,79.97L285.931,79.689L290.233,81.447L294.169,81.787L294.397,78.714L295.567,78.581L298.151,75.716L298.942,77.193L300.386,78.419L301.951,77.666L301.769,75.169L303.532,75.051L304.018,80.428L302.589,83.086L303.714,84.091L308.684,86.882L308.122,88.92L311.055,89.702L311.648,91.194L311.253,92.213L313.487,93.542L319.78,94.782L321.999,93.557L323.321,94.502L324.294,93.261L325.905,93.749L329.689,92.966L332.729,93.66L334.264,92.42L335.556,92.36L336.286,93.557L338.52,92.907L340.891,93.453L341.712,94.472L341.423,96.406L343.444,98.104L344.22,99.477L345.162,98.488L348.308,98.355L350.39,97.839L352.67,95.845L354.904,95.299L356.242,96.067L359.464,96.155L360.604,94.132L362.367,94.546L362.23,96.096L363.872,96.48L366.653,96.052L367.368,96.643L370.134,96.362L371.183,97.189L372.672,96.761L373.143,97.927L374.937,97.499L375.925,98.784L379.512,97.927L383.053,98.001L383.539,100.614L386.184,100.91L386.366,101.574L388.434,101.116L390.09,99.891L387.947,96.362L386.655,96.052L385.713,94.649L384.786,89.747L384.923,87.221L403.663,71.181L406.52,74.519L407.326,73.943L407.28,72.54L408.405,71.905L409.302,70.265L408.922,69.127L409.971,67L409.94,64.503L412.357,62.287L413.922,61.844L414.454,60.721L412.433,59.42L413.375,57.071L415.245,56.524L415.169,54.426L417.19,54.884L419.455,56.805L421.066,55.682L420.063,54.13L421.081,53.288L419.288,51.5L419.804,50.376L422.069,49.623L424.212,49.977L424.577,49.239L422.099,46.933L420.61,44.967L420.64,43.637L421.811,43.726L421.385,41.641L422.115,40.548L424.85,40.533L426.036,40.015L425.306,38.493L427.541,39.306L429.532,41.715L432.07,40.74L433.499,38.301L434.943,39.956L436.143,39.927L436.675,38.818L435.946,37.133L434.274,34.975L433.103,34.206L433.058,32.964L436.28,34.457L437.815,35.699L438.454,37.133L439.593,37.251L440.414,35.492L442.527,35.95L444.047,36.896L444.412,35.241L445.627,36.246L446.22,34.516L447.345,33.881L449.518,34.605L449.23,32.107L451.008,32.299L451.965,31.441L453.318,33.481L454.154,36.157L453.789,37.606L454.61,38.523L459.094,38.33L458.06,34.915L458.638,34.235L458.136,31.456L459.687,30.599L462.377,28.203L464.429,28.248L464.337,29.519L467.438,30.199L468.092,31.367L471.131,31.146L472.195,32.181L474.764,31.367L474.627,36.231L479.02,38.389L479.84,37.355L479.461,35.98L480.996,35.063L482.652,37.118L483.108,38.759L485.859,38.774L486.178,34.561L488.565,34.102L489.781,35.019L490.282,37.458L491.878,37.163L492.045,39.676L493.55,39.956L495.04,38.833L495.298,40.873L494.66,40.607L493.702,43.001L494.128,45.588L496.362,46.844L497.699,43.415L501.15,41.08L502.107,42.794L503.323,42.292L502.472,43.977L504.007,45.056L503.612,47.081L504.964,49.076L505.952,48.603L506.788,50.376L507.092,52.815L508.536,54.189L509.448,56.022L512.214,59.184L514.844,58.017L516.653,58.977L517.899,64.429L518.75,65.611L519.145,68.684L520.711,74.815L523.127,79.113L524.632,80.044L527.125,79.807L530.149,84.563L531.897,88.314L532.794,89.318L534.724,89.555L535.332,92.789L536.502,93.734L536.001,97.322L537.156,100.585L538.022,100.112L537.779,101.943L539.633,104.335L539.709,108.143L540.515,108.763L539.694,110.048L539.801,112.395L540.469,115.509L542.081,116.026L541.336,116.97L540.925,119.273L539.725,119.716L539.025,121L537.384,127.271L535.849,131.418L534.785,138.367L535.074,139.931L534.496,143.707L534.937,146.053L535.894,148.192L536.943,147.882L536.943,144.725L537.764,143.943L539.086,144.755L538.995,159.076L539.39,160.949L538.934,161.76L536.852,161.775L536.974,158.442L536.046,158.722L534.831,161.097L533.326,161.082L533.463,161.981L531.973,164.252L531.046,167.231L530.94,170.003L530.271,171.418L529.116,171.801L526.623,175.207L525.544,177.183L522.793,185.894L522.124,189.446L521.866,194.354L520.695,196.358L518.188,195.946L515.938,196.712L515.011,195.621L513.567,196.255L512.123,195.754L510.786,194.339L508.871,193.426L507.396,193.514L505.132,194.678L501.013,194.457L500.694,193.735L503.946,194.059L506.089,192.409L506.12,189.756L506.712,189.181L503.703,188.488L500.648,186.587L499.614,187.206L498.459,186.351L497.259,188.238L493.976,187.943L493.93,188.886L492.061,187.25L491.103,187.353L487.866,185.939L487.714,186.484L484.917,188.164L486.33,188.695L488.048,188.282L488.033,190.581L485.434,191.2L484.355,193.396L487.972,194.885L487.942,196.078L489.401,196.063L489.401,198.082L490.297,198.23L490.297,199.718L488.58,199.762L493.55,203.741L493.9,207.174L495.313,207.925L495.587,209.015L493.717,210.076L492.638,214.319L489.431,213.862L487.774,215.365L482.227,214.731L478.108,216.852L476.071,216.558L470.721,216.941L469.657,216.455L470.098,217.883L469.049,221.463L470.554,223.54L469.475,227.604L469.596,229.224L467.666,230.682L466.541,230.756L464.398,229.416L463.167,227.001L462.681,227.516L464.778,231.198L464.14,231.316L460.507,230.138L458.805,230.138L453.744,228.12L450.598,228.208L449.351,227.339L450.05,229.269L446.296,228.886L445.734,227.693L443.348,226.294L443.272,224.453L441.387,221.33L441.205,220.093L438.94,220.314L437.07,219.15L433.924,218.767L430.808,220.476L429.851,220.402L426.811,221.389L425.808,222.729L423.285,222.214L421.598,223.112L421.157,224.35L421.841,225.469L421.096,228.488L421.415,229.092L419.88,232.994L419.926,235.336L420.868,235.38L420.154,240.99L420.929,240.99L421.613,244.435L422.495,244.185L423.346,245.848L422.191,247.232L423.346,249.396L422.966,251.619L424.212,252.458L424.273,257.345L423.817,259.685L424.835,264.056L424.805,266.764L425.793,268.427L426.568,273.916L428.316,277.476L431.31,278.815L433.939,278.683L435.946,279.742L438.028,281.787L438.697,281.596L442.253,283.361L443.56,283.17L445.491,283.847L447.315,283.243L452.269,284.7L456.708,286.892L461.328,288.554L462.377,288.083L463.35,289.584L465.812,290.26L468.168,289.437L467.119,287.48L467.803,287.583L470.25,286.274L471.359,288.098L474.369,286.495L474.278,285.053L471.922,285.906L470.934,283.979L473.654,282.537L478.077,280.64L481.269,280.213L481.041,282.376L482.865,281.758L483.154,279.345L500.542,273.901L501.423,275.387L503.794,283.067L506.515,281.758L503.87,273.195L508.247,271.326L510.026,277.123L512.762,278.124L513.476,277.212L512.062,275.431L510.558,270.678L516.075,270.487L522.595,273.327L527.55,277.006L524.769,280.831L526.289,281.978L529.101,278.08L536.882,283.803L536.898,285.965L536.35,286.612L537.87,287.716L538.433,286.877L540.393,288.319L541.473,288.186L540.515,285.98L541.67,285.98L542.825,288.642L545.12,288.716L545.12,289.554L542.916,291.319L545.196,292.628L549.118,293.437L549.057,292.717L546.701,292.687L546.747,286.347L552.416,286.377L552.416,287.598L554.088,287.613L554.073,290.657L555.744,290.702L556.504,289.937L556.565,286.303L558.556,285.877L558.176,289.657L554.969,292.408L554.969,292.937L557.34,291.584L558.86,289.893L560.882,290.76L566.733,292.172L571.855,292.408L578.224,289.981L584.091,288.642L586.355,289.201L587.799,287.863L589.228,288.51L589.593,286.656L591.325,286.965L593.347,286.539L594.897,284.759L597.207,284.509L598.575,286.259L600.05,286.083L600.384,287.26L603.637,288.436L605.4,287.995L605.673,286.656L603.424,286.024L601.858,282.684L603.257,281.419L606.038,280.228L609.169,279.83L609.868,278.771L612.619,277.977L614.048,276.785L614.625,277.785L616.313,277.3L619.216,277.285L619.444,280.816L617.741,281.802L616.86,283.229L616.677,284.95L615.811,284.773L614.261,288.201L614.565,289.554L612.741,291.099L610.856,291.525L610.78,290.731L607.649,291.113L606.676,290.26L605.977,291.319L607.026,292.231L606.099,294.452L603.986,295.982L603.849,298.085L605.096,298.967L605.582,300.247L606.707,299.512L606.798,301.718L605.962,304.1L604.245,305.115L604.305,306.967L601.235,309.364L600.156,310.893L599.411,313.466L598.682,314.319L600.065,315.833L602.208,314.863L602.77,316.245L600.612,317.936L599.244,319.92L597.162,319.318L595.004,320.699L593.134,322.625L592.739,324.095L591.447,323.493L589.562,324.845L588.179,324.86L587.586,326.947L586.37,326.932L585.094,327.917L585.246,330.004L584.714,331.209L583.133,332.238L582.996,334.634L582.191,334.384L581.765,335.677L580.504,336.544L579.531,339.792L580.124,341.041L579.683,342.29L581.568,343.598L581.279,342.496L583.118,339.498L582.145,345.214L582.951,346.14L579.501,347.007L578.269,348.182L578.801,349.167L577.646,349.387L576.354,351.223L575.321,351.268L573.573,353.133L573.938,355.117L571.384,358.055L569.849,358.055L568.177,359.568L568.952,360.699L571.05,359.803L574.257,359.48L574.834,361.712L573.466,363.078L575.594,362.931L576.309,362.168L577.905,362.799L579.44,361.933L581.355,362.887L582.571,362.843L583.68,361.419L583.817,360.097L586.842,361.051L588.027,362.006L586.279,364.312L586.614,364.988L588.863,365.34L589.076,366.574L591.386,366.692L592.131,364.782L594.38,364.723L596.432,363.607L596.569,362.359L599.168,359.054L600.886,360.625L602.025,360.155L601.038,358.877L602.649,357.364L604.184,357.849L606.798,357.32L605.886,359.2L605.415,361.565L605.856,362.124L608.029,361.786L609.595,362.652L610.947,361.536L611.327,359.333L612.224,361.051L614.413,361.051L616.252,359.45L616.525,357.394L617.65,356.38L617.27,354.588L619.155,356.924L617.802,357.188L617.62,358.437L619.109,359.553L620.295,358.98L621.754,360.243L623.745,359.465L625.462,360.596L624.976,362.05L618.212,364.944L616.541,366.809L618.41,369.497L616.677,369.423L615.765,371.23L614.717,371.347L610.187,369.335L609.367,370.554L608.622,369.937L607.345,371.744L606.251,371.861L606.22,373.624L608.455,373.433L606.555,375.356L605.324,375.342L605.004,376.311L602.466,377.618L602.877,380.98L601.114,380.349L600.095,381.626L599.305,380.511L598.043,380.511L597.207,381.641L594.669,382.14L597.01,384.431L597.344,384.167L601.098,384.724L602.071,385.282L599.457,385.238L598.606,386.193L599.031,388.644L601.98,389.276L605.506,387.925L608.105,388.997L608.12,389.467L610.947,391.287L612.072,390.612L608.728,388.277L609.762,386.985L609.823,385.767L611.069,385.15L616.541,389.599L617.741,389.07L618.836,389.848L620.067,388.747L621.45,386.251L623.486,386.09L622.924,387.866L624.474,388.967L623.851,390.024L624.566,390.714L622.803,393.973L623.684,394.898L626.39,394.634L625.964,393.724L627.423,393.137L628.472,394.898L630.569,395.251L632.256,394.487L632.074,392.241L629.521,391.346L629.536,390.406L631.162,389.907L631.709,389.026L632.226,390.538L634.095,389.878L633.533,388.321L634.521,386.868L634.962,385.047L634.582,383.286L633.275,380.834L632.363,380.834L633.411,379.145L634.491,379.13L637.85,377.251L638.594,377.911L636.162,379.688L635.631,382.038L636.466,382.904L635.874,385.503L636.147,386.384L638.64,386.384L637.272,387.852L637.318,389.54L638.534,391.008L639.248,390.861L638.67,392.843L639.765,393.724L640.783,393.489L641.345,395.045L644.218,395.148L645.115,391.61L649.006,391.566L650.267,390.964L650.237,391.962L651.559,391.801L650.252,393.841L651.407,394.634L650.176,395.662L651.696,396.234L651.438,397.364L652.729,397.951L654.462,397.291L654.417,395.691L655.739,394.487L657.548,395.544L660.663,393.885L661.454,393.915L661.302,390.289L659.432,387.631L660.42,386.78L661.514,384.123L661.119,382.698L660.055,382.463L661.286,380.466L663.582,380.643L664.205,378.939L665.831,379.277L666.515,377.838L668.248,377.603L666.287,380.76L664.706,385.194L664.661,387.074L666.834,389.276L668.278,391.36L668.08,393.797L668.856,395.779L669.904,396.249L669.296,397.262L670.148,398.348L675.68,397.981L675.756,398.862L674.038,400.212L671.166,401.342L669.464,401.327L667.989,402.135L665.709,400.608L662.898,402.502L660.998,402.487L659.934,404.057L659.903,405.349L658.216,406.391L655.982,406.171L654.948,406.875L650.982,405.716L649.279,405.789L648.626,405.026L646.726,404.688L646.893,403.705L645.555,403.793L643.686,404.923L642.272,404.703L640.509,403.162L638.838,402.428L636.603,404.307L635.934,405.584L634.156,404.116L633.518,402.604L631.512,403.793L630.691,405.995L631.284,408.035L628.457,407.594L628.593,410.368L627.864,412.144L628.7,412.598L628.852,414.433L627.651,416.795L628.654,418.732L627.256,418.937L624.885,421.578L624.262,421.388L622.939,423.016L623.228,424.248L621.784,424.278L618.456,427.887L620.31,430.425L620.295,431.129L621.951,433.593L620.903,435.03L619.611,438.301L618.243,437.48L619.398,435.764L618.015,433.769L618.653,433.256L617.285,430.557L617.392,431.877L616.571,432.816L616.814,434.502L615.477,436.776L613.546,437.773L613.03,438.932L614.382,440.384L616.89,439.768L616.769,441.777L615.978,443.698L616.632,445.502L618.714,444.27L619.93,444.974L619.231,446.016L619.793,447.145L622.924,448.054L623.274,447.13L624.49,447.247L624.049,449.872L625.934,451.28L626.8,447.805L630.934,449.638L629.566,454.359L635.296,456.045L635.144,458.86L635.858,460.722L637.09,461.69L638.458,459.857L640.16,459.505L639.81,458.406L640.464,457.189L642.288,457.849L642.637,459.505L646.969,465.091L648.367,464.93L649.614,463.698L648.823,460.766L647.379,458.626L647.896,457.497L649.218,457.599L649.446,459.285L651.149,461.265L653.398,458.875L653.55,455.253L654.72,455.092L654.113,459.549L652.912,462.012L654.067,463.082L653.079,465.018L654.796,466.161L656.104,468.506L657.517,468.257L657.958,469.181L659.615,468.682L659.873,467.099L661.18,467.715L661.545,466.586L663.019,465.589L663.703,463.464L662.609,463.068L663.354,461.895L662.518,460.356L663.764,461.162L665.466,460.927L665.831,459.212L668.476,457.819L668.08,459.476L669.16,460.004L668.08,461.646L665.649,463.39L665.679,465.047L666.849,465.985L665.345,469.913L665.922,470.573L667.64,470.368L667.655,472.948L668.947,473.255L670.512,471.365L671.713,473.05L672.777,471.922L675.102,471.394L678.279,468.638L679.601,469.782L681.82,468.946L683.431,469.137L683.933,467.158L683.249,465.443L683.629,464.343L682.033,462.628L682.991,460.927L684.313,462.716L686.41,463.42L688.417,464.68L689.298,464.006L691.168,464.197L691.077,462.628L692.201,461.397L692.368,462.907L693.356,464.534L695.712,465.633L698.63,464.974L699.527,465.853L701.321,463.771L702.476,465.487L704.695,466.615L707.005,466.909L707.096,470.852L708.358,471.878L708.312,473.651L705.728,473.534L701.382,472.024L700.348,470.646L698.661,470.998L697.871,472.054L695.226,470.881L694.892,469.62L692.885,469.181L692.384,471.057L690.545,470.06L689.815,470.837L691.107,473.798L689.617,474.575L688.842,476.876L685.757,475.659L686,473.724L686.912,472.405L684.419,470.72L682.899,470.617L679.616,471.482L678.431,473.167L675.3,474.208L675.437,475.615L674.57,476.348L675.406,478.458L674.449,478.605L672.488,477.169L671.12,477.418L671.804,479.001L670.999,479.616L671.379,482.767L671.348,486.225L671.728,488.702L669.752,488.423L669.904,487.573L668.628,486.386L666.317,486.445L664.873,485.346L663.658,483.485L664.949,482.43L663.521,481.712L664.189,479.895L661.925,479.719L661.91,478.121L661.043,478.209L660.542,480.906L659.584,479.792L656.696,479.514L655.876,478.59L656.088,481.58L658.444,483.016L658.079,483.675L659.311,485.082L658.809,486.181L659.706,488.262L659.204,492.321L660.967,493.302L660.055,495.148L660.131,498.313L661.894,496.906L663.232,498.005L663.84,497.419L663.597,495.104L664.645,494.841L664.053,493.244L664.706,492.35L665.664,493.317L666.211,495.178L668.673,497.082L669.889,497.214L672.549,495.954L674.51,497.419L670.938,497.771L669.692,498.357L667.26,500.539L666.713,502.224L667.351,504.67L664.585,505.081L662.259,508.332L660.329,509.46L660.375,511.877L659.25,513.898L656.514,511.247L654.568,510.793L653.505,512.726L655.116,513.4L655.465,515.201L654.812,517.281L653.033,517.369L652.486,519.741L650.921,520.019L649.173,521.352L648.124,523.08L644.537,519.99L644.917,518.98L644.096,517.823L642.227,518.365L642.166,520.576L644.476,524.105L644.324,525.584L645.403,525.423L645.54,526.55L643.99,526.931L641.497,528.805L640.145,528.556L639.825,530.635L641.908,530.635L643.534,530.064L644.203,529.098L646.391,529.215L647.227,530.898L646.999,533.695L648.063,538.189L648.656,539.477L649.644,539.009L650.1,535.949L650.936,535.027L649.933,534.09L650.83,531.352L648.641,528.629L649.872,527.707L650.602,528.175L651.179,530.723L652.273,532.465L653.778,533.021L653.793,533.958L655.389,533.417L655.967,535.92L658.429,535.656L660.101,533.739L660.739,531.996L658.292,530.049L658.596,528.937L655.116,526.682L657.259,525.51L657.137,524.339L654.675,524.163L658.824,523.958L660.223,523.534L665.998,528.263L670.755,528.937L672.017,530.298L670.755,534.895L667.731,537.501L662.882,539.243L660.055,541.014L659.083,543.473L657.791,543.839L656.97,544.966L655.328,545.478L653.368,547.367L653.049,548.903L654.143,550.63L655.602,550.689L655.48,553.103L653.125,555.021L651.833,555.138L651.331,554.245L648.854,553.718L649.34,551.157L650.328,549.123L649.614,547.879L647.653,546.444L644.431,545.669L640.829,546.942L640.525,547.981L641.741,552.225L639.278,556.279L636.421,558.137L635.858,559.454L632.028,558.24L631.177,555.577L631.36,554.684L629.399,553.777L629.186,552.167L629.931,551.816L630.326,549.752L628.001,550.396L626.329,553.03L626.906,554.977L628.001,555.328L627.545,557.186L627.909,558.869L626.496,558.84L624.186,557.084L624.277,555.767L621.541,553.967L620.781,555.972L619.839,556.894L619.246,559.176L617.376,557.611L616.1,557.845L615.34,556.894L617.285,555.123L618.045,553.44L616.282,553.221L616.024,552.503L617.908,551.201L617.741,549.108L615.325,550.045L615.401,547.367L613.653,547.308L612.346,548.479L612.543,550.089L611.418,551.742L611.54,554.728L610.765,556.221L611.738,556.513L611.707,557.903L613.881,559.732L614.215,560.962L616.465,562.308L614.58,563.434L614.215,565.834L614.701,567.721L615.492,568.014L615.188,569.96L616.206,570.793L614.762,571.247L613.425,568.731L613.698,567.56L612.209,566.39L612.498,563.961L611.403,563.244L609.473,560.479L608.075,555.474L605.536,555.986L604.7,558.547L605.46,558.298L605.506,560.332L606.752,562.088L604.336,564.415L603.15,564.093L602.512,565.058L602.846,566.609L603.819,566.96L604.351,568.394L605.384,568.482L606.22,569.96L607.983,570.647L607.163,571.174L607.983,572.359L606.372,574.056L606.965,576.294L604.716,576.601L604.047,578.444L605.111,579.994L607.406,579.848L608.789,580.521L610.4,579.292L610.066,580.477ZM631.177,592.908L632.272,593.098L632.196,595.043L633.533,597.558L632.211,597.427L631.496,600L629.885,599.956L628.806,598.611L628.487,596.579L630.311,595.818L630.752,594.634L629.384,594.546L628.548,592.938ZM622.21,561.722L622.787,562.542L625.234,563.332L626.222,564.283L627.043,563.668L627.818,564.693L629.308,564.824L629.931,565.746L629.369,567.984L627.605,567.867L626.314,568.511L624.11,567.941L623.502,568.365L621.875,567.312L621.86,565.951L623.304,564.868L623.107,563.054ZM682.975,502.942L684.115,503.411L683.355,504.451L681.471,503.411ZM689.45,480.466L689.785,481.653L690.97,482.445L690.909,484.086L689.557,483.207L688.858,480.774ZM645.89,450.591L646.711,450.825L645.601,452.042L645.935,454.55L644.568,453.846L643.823,452.189L643.929,450.635ZM703.57,446.969L704.588,448.699L705.835,448.948L705.485,449.99L706.564,450.547L705.196,451.984L705.531,455.195L706.124,457.423L704.984,456.177L704.482,457.629L702.658,458.626L702.825,461.177L701.533,461.045L700.834,458.318L699.816,457.966L699.284,456.529L699.755,455.547L697.293,454.491L699.801,454.579L702.856,452.512L702.385,450.605L703.677,450.356L703.205,449.388L704.193,448.978ZM702.567,445.062L703.601,445.869L701.913,446.074ZM701.275,442.335L700.713,443.478L699.436,443.258ZM623.821,425.085L623.167,427.168L624.064,428.136L623.517,429.97L623.259,428.327L621.936,426.537ZM635.22,424.454L639.172,424.41L638.002,427.901L636.877,426.522L635.889,427.373L635.904,429.427L634.491,430.175L634.962,430.938L633.168,432.86L631.36,434.004L631.101,436.072L634.339,434.605L635.995,435.324L637.196,434.488L638.534,434.854L638.762,435.837L640.053,436.043L637.834,438.037L636.512,437.641L634.567,439.401L633.123,439.475L631.861,441.704L630.828,442.203L630.022,445.268L628.654,443.933L627.332,443.757L626.131,444.696L623.775,443.229L624.003,441.015L622.924,440.853L624.277,437.788L625.766,437.436L625.037,436.468L626.481,435.749L627.225,436.82L627.955,435.089L630.052,433.828L630.052,429.97L626.678,431.73L626.557,430.586L628.198,429.559L627.453,426.713L629.429,426.992L629.536,427.799L630.934,426.757L630.356,425.51L632.621,424.087ZM598.742,349.901L599.943,350.224L599.335,351.885L597.724,352.634L596.751,351.003ZM586.978,329.578L588.058,329.872L587.799,331.43L586.477,330.357ZM615.127,372.155L614.808,372.728L615.887,374.578L613.987,374.96L613.79,373.447ZM672.23,368.718L673.127,370.863L675.026,371.465L674.054,373.389L672.078,375.004L669.996,375.723L669.372,377.001L668.46,376.81L669.965,375.577L669.236,372.331L669.281,370.187L670.679,370.172ZM656.788,339.689L657.532,341.835L655.328,343.039L652.76,343.172L653.109,341.555L655.952,340.821ZM663.05,333.752L660.83,336.956L658.307,337.852L657.092,338.793L658.687,335.971L658.672,334.325ZM506.104,0.843L508.339,1.686L510.269,1.287L511.819,1.997L512.351,3.609L513.841,4.393L516.136,4.541L517.792,3.358L519.16,3.935L520.787,5.902L517.838,5.074L517.458,5.518L515.315,4.63L512.686,7.056L508.232,8.742L505.816,12.928L503.247,13.771L501.362,12.884L499.538,11.168L496.939,11.138L496.863,10.635L493.672,10.916L489.325,13.12L487.303,13.8L486.27,12.736L486.361,11.464L487.653,10.207L489.735,9.852L490.905,8.994L491.909,6.952L492.212,4.793L494.295,6.583L495.055,5.843L497.973,5.917L497.943,4.63L499.113,4.601L501.134,2.071L504.113,0Z"
          fill="#e0e0e0"
          stroke="#333333"
          stroke-width="1"
          stroke-linejoin="round"/>
  </g>
</svg>