<?xml version="1.0" encoding="UTF-8"?>
<svg xmlns="http://www.w3.org/2000/svg"
     viewBox="176.71915414326213 -20.00000000000182 446.56169171347574 640.0000000000018"
     width="446.56169171347574"
     height="640.0000000000018">
  <title>宮崎県</title>
  <desc>都道府県コード: 45</desc>
  <g id="45">
    <path d="M462.976,420.247L462.795,420.959L461.332,421.335ZM353.842,559.309L353.992,559.066L354.077,558.691L354.195,558.418L354.729,557.982L354.536,557.435L354.504,557.293L354.729,556.097L354.803,555.996L355.295,554.182L355.22,551.577L354.846,550.473L354.835,550.361L355.102,549.794L355.177,549.53L355.583,548.881L355.69,548.395L355.711,548.354L355.861,548.192L356.704,547.412L356.736,547.169L356.725,546.956L357.537,546.337L356.822,545.273L357.687,543.266L357.761,543.185L359,542.942L359.513,541.999L359.641,541.867L360.004,541.705L360.281,541.431L362.118,541.117L363.442,540.559L363.688,540.58L366.411,539.272L366.539,539.15L366.753,538.643L366.998,538.41L367.746,536.788L367.5,534.649L367.852,533.077L367.575,532.205L367.553,532.023L368.023,531.303L367.286,529.731L366.945,529.376L366.56,528.382L366.56,528.26L367.116,527.196L366.656,525.532L366.357,525.279L366.272,524.488L366.432,524.204L366.261,523.595L366.026,523.038L363.677,520.735L365.375,519.782L365.973,518.595L367.372,518.078L368.066,516.688L367.521,515.978L367.735,515.856L367.917,515.44L368.013,515.43L368.504,515.055L368.579,514.73L369.091,512.133L369.283,511.9L369.326,511.808L369.273,511.474L368.835,510.398L368.621,510.073L368.141,508.907L367.949,508.42L367.158,507.415L366.998,507.202L366.955,506.309L366.753,505.832L366.656,505.558L366.464,505.426L365.92,504.858L365.674,504.696L363.688,502.9L363.047,501.824L362.834,501.499L362.641,499.094L363.122,497.359L363.666,496.841L363.848,496.526L364.072,496.445L364.051,496.384L363.859,494.74L363.848,494.608L363.346,493.613L362.791,493.634L360.281,492.72L360.025,492.111L360.185,491.685L359.812,491.208L359.288,490.913L359.075,490.822L358.605,490.497L357.142,490.061L356.672,488.518L355.252,487.655L355.113,488.579L354.835,488.792L353.842,488.7L353.479,488.609L352.668,488.863L352.262,489.807L350.681,490.152L350.639,491.096L350.489,491.39L349.453,491.187L349.176,491.228L347.627,491.36L346.463,492.405L344.84,492.466L344.424,492.527L344.114,492.68L343.911,492.669L343.719,492.608L343.463,492.517L342.843,492.883L342.662,492.893L341.936,492.101L341.637,491.644L340.601,491.329L340.473,491.34L340.249,491.441L339.832,491.664L338.903,491.553L338.604,491.411L337.846,490.406L337.643,490.294L337.248,489.228L337.013,489.137L335.817,488.375L335.027,487.127L334.792,486.934L334.61,486.903L333.468,485.533L332.699,485.188L332.421,485.147L331.674,484.914L331.503,484.741L330.168,483.279L330.029,483.127L329.453,481.929L329.09,481.624L328.876,481.533L328.694,481.401L328.534,481.238L328.31,481.106L327.338,480.923L325.971,479.268L324.028,479.918L323.537,480.243L322.896,482.182L322.8,482.589L321.828,484.02L321.305,484.294L320.248,485.837L320.216,485.959L320.056,486.132L319.927,486.365L319.159,487.421L318.956,487.594L318.251,489.868L317.888,490.05L317.333,489.837L317.268,489.817L317.194,489.431L316.969,489.269L316.82,487.716L316.831,487.573L316.137,487.299L315.955,487.208L315.058,486.599L315.314,484.426L315.24,484.264L315.165,484.244L315.069,484.122L314.855,483.482L314.556,482.406L313.574,481.137L313.349,480.944L312.997,480.466L312.485,479.847L311.203,478.588L310.616,478.537L309.334,478.192L308,476.892L307.519,476.567L308.202,475.958L308.192,475.887L307.754,474.78L308.309,474.648L308.672,473.592L308.501,473.582L307.647,473.907L306.804,473.307L307.508,472.373L307.925,470.403L307.316,469.885L307.359,469.773L307.135,469.489L306.964,469.296L306.868,469.021L306.932,468.656L307.167,468.575L307.241,468.625L307.284,468.625L307.38,468.534L307.316,467.528L307.167,467.376L306.996,466.269L307.252,466.228L307.273,466.248L307.316,466.634L307.572,466.279L307.604,465.923L308.544,464.339L308.555,464.217L307.006,462.967L306.462,462.52L305.074,461.088L304.764,460.153L304.753,459.879L304.657,459.076L304.145,459.209L303.611,459.117L303.205,457.888L303.525,457.248L303.963,456.791L304.209,456.415L304.251,456.252L304.294,455.703L304.828,452.899L304.721,452.269L304.39,449.485L304.582,448.153L304.166,447.259L304.294,445.714L304.497,445.196L304.358,443.885L304.177,443.814L304.102,443.773L303.942,443.468L302.19,444.22L301.924,444.149L300.994,443.275L298.795,444.139L298.496,444.423L298.304,444.495L297.994,444.627L296.841,444.027L296.424,443.295L295.26,442.635L295.132,442.818L294.844,443.051L294.214,443.092L293.135,442.33L291.33,442.35L291.181,441.578L291.17,441.13L291.298,440.439L291.053,439.565L291.715,438.162L291.896,438.05L292.025,437.857L292.238,437.664L292.761,437.603L292.922,437.481L293.071,437.318L292.665,437.054L293.242,435.834L293.338,435.824L293.509,435.956L293.626,436.2L293.829,436.587L293.904,436.637L294.128,436.576L294.555,436.709L294.737,436.729L294.908,436.434L295.869,434.36L295.495,432.154L294.374,430.985L294.246,430.792L291.928,431.442L291.352,430.903L291.277,430.659L290.722,429.877L289.462,429.368L288.885,428.992L288.202,429.5L287.54,430.009L287.123,430.314L286.888,430.273L286.461,430.293L285.532,429.999L285.297,430.171L285.019,429.978L284.785,429.917L283.599,429.612L283.023,429.439L282.574,429.297L282.211,429.267L281.88,429.287L281.442,429.246L281.442,429.134L281.165,429.114L279.712,428.982L279.573,428.992L279.328,429.002L278.975,428.799L278.676,428.778L277.513,429.043L277.224,428.758L276.818,428.524L276.637,428.565L275.9,428.463L275.686,428.463L275.163,428.595L274.747,428.433L273.914,427.345L273.732,427.06L273.658,426.979L273.262,426.653L273.188,425.077L273.166,424.986L272.494,423.796L272.558,423.613L271.308,423.003L271.009,423.104L270.764,423.104L270.625,423.033L270.07,420.979L269.813,420.918L268.906,421.396L268.703,421.681L268.233,421.955L268.009,422.098L267.592,422.423L267.453,422.464L267.133,422.342L266.482,422.271L266.311,422.23L265.723,422.24L265.211,422.281L264.784,422.372L264.656,422.332L264.325,422.047L263.513,421.223L263.235,421.07L261.708,420.531L261.185,420.196L259.957,419.972L259.06,420.552L258.932,420.562L258.868,420.511L258.708,420.359L258.195,419.199L258.131,418.864L258.003,417.399L257.875,417.257L257.448,416.677L257.298,416.626L257.085,416.687L256.967,416.636L256.39,416.392L256.284,415.029L256.401,414.765L256.689,411.642L256.668,411.306L256.85,411.082L256.988,411.021L257.191,411.052L258.024,410.818L258.088,410.533L257.864,408.895L257.48,408.346L257.127,406.81L255.739,405.497L257.181,404.561L257.853,404.622L258.078,404.592L258.526,404.429L260.267,403.198L260.619,401.814L260.139,401.254L260.406,400.094L260.256,399.341L260.299,397.377L261.698,394.874L261.772,394.273L261.922,393.866L262.114,393.418L262.467,391.2L264.122,389.948L265.328,388.451L267.069,388.441L267.528,388.91L268.745,388.777L269.173,388.105L269.087,387.953L267.72,387.23L267.336,387.413L265.884,387.535L264.613,388.044L263.31,387.22L263.556,386.914L262.232,383.759L262.114,383.565L261.943,383.402L261.399,382.863L261.538,382.71L261.826,382.435L261.11,380.827L260.491,380.348L260.203,379.951L260.085,379.676L259.946,379.188L259.882,378.984L259.637,378.536L259.893,377.426L258.441,376.184L258.291,374.921L258.323,374.117L258.281,373.74L258.238,373.679L258.195,373.669L258.046,373.638L257.896,373.516L256.839,373.292L254.938,370.919L253.934,370.981L253.817,370.095L253.667,369.83L253.368,369.422L252.877,368.883L252.514,368.526L251.137,368.547L250.912,368.486L250.453,368.272L249.781,366.958L248.67,366.703L248.286,366.632L247.912,366.51L247.421,366.337L247.015,366.286L246.812,366.194L245.712,366.021L245.488,366.113L245.167,366.041L245.007,365.878L244.281,364.982L244.164,364.951L243.32,365.288L243.064,365.369L241.441,365.094L240.939,365.45L238.803,365.389L236.059,365.644L235.429,365.532L234.735,364.513L234.585,364.35L234.478,364.289L234.008,364.198L231.766,362.089L229.78,361.936L229.919,359.746L229.833,359.502L230.378,357.943L230.303,357.617L228.861,356.089L228.712,355.845L228.605,354.826L228.562,354.632L227.911,352.472L227.719,352.391L227.559,352.34L227.313,352.004L227.131,352.014L226.608,351.82L226.48,351.718L226.138,351.474L226,351.382L225.914,350.995L225.754,350.964L225.348,350.598L225.124,350.435L224.312,349.691L224.27,349.456L223.736,348.601L223.789,347.296L223.725,346.97L223.64,346.654L223.608,346.328L223.287,344.29L223.17,343.903L223.01,343.505L222.849,343.128L222.55,340.692L222.636,340.346L222.241,337.023L222.251,336.86L222.476,335.902L221.846,334.985L221.301,334.699L219.624,333.598L219.464,333.629L218.493,332.864L218.279,332.701L218.258,332.355L218.215,332.293L218.033,332.355L217.895,332.293L217.094,332.059L216.837,330.978L216.944,330.836L216.773,330.438L216.57,330.295L215.855,329.806L215.802,329.694L216.165,329.092L215.844,328.715L215.695,328.256L215.535,328.236L215.289,328.195L215.214,328.246L215.204,328.277L215.236,328.43L215.236,328.501L215.172,328.634L214.211,328.042L213.933,328.083L213.623,328.236L212.31,327.665L211.883,327.043L211.605,325.045L211.466,324.769L210.922,324.831L210.59,324.861L210.217,324.698L210.003,324.413L209.031,323.322L208.839,323.016L208.327,322.383L207.782,322.2L200.617,319.661L198.417,318.876L196.794,318.202L196.719,317.998L196.762,313.307L196.773,312.032L196.751,310.502L197.178,309.768L197.339,309.594L198.022,309.105L198.62,308.911L199.795,308.615L200.563,307.34L200.948,307.054L201.119,306.871L201.172,306.544L201.567,305.871L201.706,305.616L201.567,305.391L201.482,305.259L201.471,305.106L201.514,304.81L201.717,303.943L201.642,303.78L201.642,303.555L201.727,303.31L202.55,302.239L202.763,301.862L202.785,301.096L202.635,300.852L204.749,300.505L205.155,300.352L207.248,297.709L207.654,297.546L209.224,299.148L209.277,299.25L209.234,299.576L209.106,300.158L208.914,300.658L210.067,301.994L210.227,301.749L210.889,301.28L210.975,301.107L211.135,300.525L211.221,300.331L211.701,300.066L211.957,299.821L212.32,299.668L213.986,299.78L214.509,300.974L214.691,301.219L216.004,302.474L216.848,301.647L217.019,301.494L217.692,301.096L217.873,301.015L218.29,300.729L218.578,300.566L220.596,301.025L221.589,300.403L221.856,300.566L222.305,301.26L222.593,301.362L222.871,301.392L223.255,301.311L223.96,301.107L224.227,301.107L224.793,301.29L225.455,301.443L225.871,301.545L226.096,301.586L226.32,301.586L233.389,301.576L237.094,303.239L237.436,302.831L237.639,302.259L237.639,301.943L237.703,301.545L239.422,299.903L239.732,299.801L241.537,299.219L241.772,299.046L242.327,298.586L242.551,298.382L243.299,298.229L245.242,299.556L246.31,299.28L247.965,300.137L249.161,301.178L249.567,301.3L251.414,300.443L252.653,297.923L252.963,296.403L254.18,295.076L254.436,295.189L254.938,295.005L255.152,294.944L256.198,294.393L256.433,293.576L256.497,293.352L256.818,292.617L256.946,292.494L257.715,292.464L257.8,292.494L258.078,292.413L258.174,292.362L259.423,291.647L259.647,291.556L260.438,291.76L263.385,290.658L263.481,290.474L263.545,289.627L264.581,288.035L265.713,288.116L265.99,287.963L266.738,287.606L267.549,288.627L267.635,288.82L268.852,288.82L269.386,289.912L269.568,290.555L270.753,291.249L271.426,291.158L273.658,291.933L273.775,292.056L273.796,292.137L273.85,292.566L274.063,293.076L274.64,293.597L275.708,294.648L275.911,294.607L277.726,293.576L279.509,293.199L281.485,294.678L281.72,294.699L283.706,294.831L285.126,293.454L285.286,293.26L285.596,292.984L285.746,293.066L285.884,293.035L286.226,293.015L287.753,293.137L287.924,293.127L288.586,292.995L288.778,293.025L289.953,292.688L289.846,292.403L289.643,291.056L289.611,290.943L289.558,290.617L289.601,287.422L290.583,285.738L290.957,285.769L291.736,284.615L293.06,283.625L293.84,283.646L295.025,282.308L296.253,281.563L296.339,281.39L296.915,280.563L296.99,280.43L297.289,278.49L296.114,277.643L297.834,276.979L297.93,276.979L298.656,275.223L298.635,275.029L298.827,274.784L299.521,272.977L299.841,272.998L299.969,272.977L300.151,272.844L302.885,270.996L303.664,271.343L303.739,271.415L303.643,271.578L303.664,271.66L304.807,272.303L304.924,272.436L306.376,273.151L306.686,273.089L306.889,272.426L311.566,272.661L311.662,272.732L312.399,273.396L312.559,273.477L312.634,273.539L312.794,273.753L313.221,275.142L313.51,275.489L313.627,275.591L313.98,275.856L314.204,276.132L314.289,276.306L315.656,275.591L316.841,277.623L317.066,277.623L317.92,278.266L318.101,278.327L318.977,278.786L319.062,278.541L319.821,278.368L320.024,278.368L321.796,277.99L322.01,277.919L323.441,276.724L324.21,277.378L324.487,277.418L324.562,277.429L324.807,277.541L326.655,278.552L327.178,278.878L328.492,279.297L328.801,279.277L329.09,279.215L329.88,279.654L329.987,279.664L330.136,279.664L330.435,279.593L330.884,279.501L331.215,279.532L332.208,279.94L332.229,279.236L333.19,278.572L333.382,278.327L333.884,277.612L336.191,276.755L335.689,274.345L335.411,274.141L334.578,273.345L333.639,271.742L333.596,271.65L334.012,270.312L333.564,269.403L334.322,267.882L333.863,266.278L333.852,266.136L334.215,265.645L334.301,265.431L334.632,263.96L334.333,263.49L334.183,263.347L333.286,262.622L333.19,261.1L333.265,260.804L333.286,259.936L330.595,258.496L330.296,258.414L328.823,257.934L327.691,258.046L327.306,257.188L327.264,256.964L325.854,254.584L325.32,251.927L324.274,251.202L324.188,250.885L322.437,250.109L322.33,249.731L322.565,249.148L322.576,248.975L322.394,248.484L323.291,245.552L322.522,245.593L321.102,244.387L319.746,242.803L317.792,241.842L315.752,242.026L314.823,242.578L314.449,242.108L313.403,240.984L313.371,240.749L313.243,239.656L313.179,239.502L313.2,239.083L313.243,238.542L313.168,236.651L313.424,236.385L313.51,236.201L314.076,234.872L314.214,234.821L314.802,234.402L315.432,234.361L317.066,233.533L317.268,233.401L317.365,231.019L317.204,230.375L316.724,229.302L316.393,228.964L315.891,228.555L315.859,228.402L315.934,228.32L316.147,228.126L316.19,228.054L316.179,227.85L315.87,226.776L315.838,226.592L315.87,226.419L316.297,225.458L316.414,225.355L317.215,225.018L317.301,225.038L318.411,225.499L318.635,225.355L318.945,225.253L319.287,225.366L322.042,227.104L322.127,227.216L322.96,227.87L324.669,227.86L325.918,227.012L325.971,226.746L325.865,226.173L326.772,225.407L327.029,225.192L327.52,224.568L327.883,224.405L328.267,223.556L328.428,223.157L328.684,222.697L329.506,222.677L329.72,222.493L329.837,222.35L329.933,222.145L330.67,219.906L331.706,218.689L331.749,218.536L331.738,217.789L331.951,217.421L332.987,215.458L333.51,215.13L333.425,214.783L333.66,213.699L334.632,212.328L335.198,209.945L335.55,209.812L336.885,208.892L337.205,207.715L336.671,207.265L336.49,207.112L336.394,206.918L336.148,206.785L334.867,205.332L334.557,203.532L333.852,202.672L332.88,202.989L332.816,202.826L332.699,202.478L332.678,202.365L332.058,200.974L332.058,199.665L331.108,199.378L331.076,199.45L330.862,199.511L329.997,199.746L329.89,199.685L329.154,199.347L329.079,199.286L327.541,198.437L327.424,198.335L327.146,198.079L327.029,198.007L325.544,197.475L325.598,196.841L325.555,196.646L324.84,195.429L324.701,195.378L324.284,195.112L324.156,193.075L324.989,190.834L326.036,189.504L325.779,189.187L324.22,186.874L324.22,186.178L322.629,185.707L322.554,185.584L322.48,183.947L323.814,182.882L323.9,182.698L323.772,180.774L323.665,180.59L322.682,179.187L322.618,177.529L322.138,176.147L320.921,175.952L317.984,176.352L317.728,176.249L317.162,175.707L315.25,176.218L313.777,175.891L312.719,173.26L312.613,173.106L311.865,172.328L311.566,172.174L310.381,171.069L310.263,170.977L309.292,168.273L307.818,166.01L307.519,165.539L305.682,163.542L305.544,163.358L305.64,162.324L305.565,161.996L305.447,161.75L304.614,160.06L304.401,159.774L304.476,159.262L304.518,159.036L304.305,156.814L304.219,156.547L304.476,155.789L304.55,155.205L304.134,154.294L303.963,154.14L303.611,153.505L304.679,151.764L304.337,151.63L304.166,151.436L303.995,150.053L304.337,149.346L303.504,147.84L303.504,146.59L302.799,145.965L302.554,145.586L301.112,142.502L301.176,140.78L301.838,139.212L301.625,138.813L302.052,134.703L301.924,134.262L301.956,132.172L302.372,132.038L303.557,131.977L303.942,131.987L305.052,130.46L307.199,130.193L307.53,129.845L306.964,126.985L307.273,125.57L306.804,123.715L305.277,121.51L304.903,119.542L305.415,118.373L306.334,117.501L306.654,116.897L309.249,116.435L310.904,116.814L312.111,116.251L312.73,114.138L312.677,113.759L311.684,112.046L312.314,109.308L313.285,108.098L313.029,105.862L313.584,104.867L314.78,103.954L315.485,103.82L316.66,102.672L317.461,102.62L318.849,103.359L320.045,103.205L322.234,104.179L323.547,104.087L324.434,103.862L325.128,104.723L325.576,104.99L327.787,105.523L330.179,106.375L330.499,106.087L330.67,106.046L332.635,106.487L333.553,106.159L334.845,105.923L335.87,105.103L335.902,104.477L335.027,103.656L335.187,102.077L337.12,101.533L337.985,100.61L337.931,100.425L338.647,98.958L339.896,97.963L339.512,96.763L340.185,95.562L339.426,94.752L339.149,94.68L338.85,94.3L338.679,93.664L338.615,92.33L338.615,91.899L338.85,88.657L339.074,88.256L339.939,85.752L339.672,84.234L338.455,83.187L338.198,81.77L338.561,80.303L340.761,79.656L340.985,79.564L342.459,75.519L343.388,75.304L343.602,74.02L344.744,73.322L345.438,72.244L346.357,71.916L346.955,71.074L347.126,70.612L347.98,69.051L347.969,66.669L349.87,65.93L350.105,65.53L350.778,64.965L353.02,65.879L353.063,66.823L354.814,68.384L357.676,68.107L358.818,68.322L359.032,67.347L358.487,66.484L359.011,66.238L358.242,63.548L358.028,63.045L359.096,62.079L359.182,58.618L360.751,56.759L360.431,55.342L361.093,54.911L361.146,53.452L360.388,52.836L360.869,51.531L361.189,51.315L362.001,50.761L363.741,48.47L363.912,47.987L365.781,46.467L367.532,45.408L369.604,44.484L370.543,44.813L371.067,45.121L371.163,45.131L371.59,45.09L372.722,44.371L374.227,42.377L375.744,40.98L376.043,40.682L377.1,40.107L378.542,38.719L379.193,38.689L379.428,38.37L379.332,38L379.15,37.476L379.15,37.342L379.641,36.233L379.236,34.989L379.449,34.763L380.101,33.982L380.261,32.923L381.243,32.934L381.681,32.451L382.834,30.57L383.101,29.532L383.005,29.203L383.464,28.442L382.589,27.517L382.407,27.455L380.282,25.317L379.492,24.032L379.407,23.899L380.336,22.274L381.585,22.048L381.969,22.028L383.144,20.979L383.219,20.763L383.304,20.074L383.358,19.766L382.973,18.326L383.582,17.309L383.518,16.342L384.361,15.293L385.312,15.345L386.486,14.018L386.582,11.53L386.796,11.005L387.148,10.275L386.39,9.555L387.373,8.516L389.017,8.619L389.882,7.457L389.637,6.994L389.989,5.092L391.495,5.534L391.676,5.668L391.762,5.709L391.975,5.668L392.466,6.048L393.214,5.349L393.652,4.166L395.382,3.878L397.09,3.076L398.286,3.621L398.97,4.557L400.87,4.145L401.223,4.238L402.408,3.826L405.355,4.444L405.676,4.474L405.996,4.464L406.145,4.423L407.843,4.351L410.235,3.878L410.641,3.549L410.919,3.364L411.239,3.076L412.019,2.417L412.093,2.376L412.403,2.253L414.635,2.479L415.041,2.356L415.724,2.242L416.941,3.199L418.981,5.853L419.066,8.095L419.056,8.342L419.291,9.01L418.586,10.131L418.479,10.491L418.597,11.561L419.686,12.219L419.889,12.311L420.519,12.98L420.818,13.268L420.871,13.319L421.074,13.638L421.736,14.131L423.85,14.553L424.79,14.43L425.356,13.658L425.591,13.473L428.795,12.054L430.695,12.239L432.767,11.057L432.991,11.077L433.237,11.026L433.632,11.057L434.817,11.211L435.063,11.057L436.44,10.409L436.867,10.44L436.985,10.481L437.284,10.645L439.142,10.954L439.313,10.902L439.943,10.501L440.327,10.542L441.78,10.501L443.552,11.057L444.609,10.378L445.047,9.236L446.136,9.103L447.087,8.27L447.268,7.138L448.656,5.338L448.977,4.217L449.489,4.197L451.251,3.641L453.59,4.104L454.989,4.042L457.989,3.189L458.256,3.22L458.481,3.209L461.866,0.988L462.015,0.926L463.04,2.15L464.012,4.001L464.087,4.289L465.379,6.573L466.415,7.138L468.219,9.36L471.466,9.895L471.54,9.987L471.252,11.499L472.576,12.311L472.886,13.113L475.118,14.512L475.459,14.676L476.655,15.602L476.25,17.113L475.299,19.098L475.032,19.447L474.456,19.807L473.484,23.631L474.157,25.04L473.633,26.212L473.548,26.427L473.58,26.489L474.445,27.959L477.2,29.501L477.382,29.891L477.83,30.231L478.15,30.282L478.941,30.714L480.895,30.837L481.29,30.94L481.642,31.063L483.137,32.759L484.472,32.821L486.181,33.376L487.451,33.355L487.804,33.468L488.028,33.54L488.316,33.663L490.431,34.105L490.836,34.188L493.132,34.126L494.157,34.712L496.229,33.067L496.453,32.81L496.71,32.656L497.212,32.399L498.664,30.816L498.845,30.405L500.511,28.37L500.906,28.01L502.049,26.325L502.305,26.119L503.886,26.099L505.295,27.291L507.217,26.571L507.634,26.582L508.915,26.89L510.239,26.561L511.2,26.931L512.802,26.304L514.073,26.479L515.269,27.466L516.742,27.425L517.266,27.517L519.028,28.062L521.644,27.486L526.972,28.864L527.378,28.997L528.713,29.593L528.884,28.884L531.276,28.864L532.29,28.206L536.337,27.445L538.142,26.294L539.349,26.972L541.025,27.044L541.463,27.435L541.698,27.527L543.257,27.229L543.887,26.201L544.336,25.05L544.87,22.634L544.891,20.815L546.632,18.912L546.941,18.666L549.387,16.465L549.451,16.229L549.814,14.728L549.728,14.44L549.547,12.938L549.675,12.723L550.027,10.635L550.23,10.162L550.113,9.411L551.234,8.753L551.661,7.354L551.8,7.19L551.992,5.493L551.821,3.065L552.099,2.818L553.274,2.5L553.637,1.893L555.068,2.376L555.356,2.428L558.41,1.378L558.581,1.481L558.645,1.492L558.954,1.43L559.264,1.265L559.435,1.152L559.99,0.535L560.482,0.761L560.684,0.946L561.966,0.741L562.35,0L562.468,0L563.461,0.854L563.589,0.998L564.069,1.173L564.39,1.255L565.607,1.234L567.956,2.098L568.896,2.016L569.142,2.026L569.58,2.541L569.612,4.495L571.715,6.953L573.178,5.74L575.047,6.285L575.186,6.408L575.987,6.871L576.2,6.748L576.969,5.791L578.122,5.585L579.009,4.33L580.749,4.567L582.234,3.703L582.746,5.174L584.487,6.089L584.69,6.305L585.672,7.869L586.761,7.601L590.371,8.63L590.488,8.393L592.752,6.449L594.033,7.159L594.193,10.337L594.161,10.666L594.29,10.985L594.172,13.802L594.012,14.193L592.261,16.651L592.538,17.535L591.097,19.54L590.776,19.735L591.15,20.444L590.499,22.84L589.036,25.739L589.356,26.232L589.655,26.612L589.815,29.573L590.659,30.446L590.467,32.081L590.937,33.941L589.965,36.089L589.666,36.376L588.982,37.332L589.249,38.082L589.324,38.421L589.837,39.511L589.975,42.131L590.648,41.751L592.197,41.802L592.57,41.679L593.745,41.422L595.518,40.364L595.891,40.394L597.493,40.261L597.803,40.209L599.106,40.281L600.227,39.593L600.462,39.223L602.864,37.589L603.281,38.062L601.85,38.699L600.366,40.744L599.949,41.977L600.334,42.994L598.956,43.045L598.764,42.388L596.532,42.562L595.71,43.189L594.941,42.696L593.798,43.949L594.023,45.706L594.791,45.614L594.354,46.508L594.92,47.206L596.137,47.412L595.763,50.237L595.56,49.62L593.777,49.066L592.848,47.751L591.022,47.864L590.958,50.257L589.997,50.905L590.146,51.726L589.506,52.415L589.634,53.688L590.424,55.291L591.588,55.465L592.293,56.071L593.179,57.817L592.015,57.971L591.214,59.348L590.776,58.341L589.356,59.912L589.762,60.426L588.534,60.672L587.808,59.964L587.103,60.323L586.815,57.766L584.7,56.862L582.97,54.13L581.753,55.455L581.422,54.869L579.607,55.65L580.205,57.078L580.888,57.088L580.877,57.93L579.372,57.807L578.966,58.629L580.034,58.988L579.468,59.84L580.13,60.539L579.382,60.909L579.137,62.151L578.443,62.202L578.037,63.045L577.652,62.1L576.574,62.264L575.741,63.363L575.239,63.065L573.894,63.928L573.509,65.232L572.719,64.924L572.313,65.755L571.459,65.745L570.679,67.614L571.384,68.456L570.615,69.729L571.107,71.382L569.9,72.398L568.843,71.639L568.768,68.928L569.302,67.922L568.608,67.214L567.412,67.059L565.928,67.47L566.077,68.517L564.176,70.591L563.845,72.881L564.358,73.702L563.237,74.729L563.269,73.733L562.639,73.158L560.93,73.774L561.047,75.55L562.468,76.197L563.482,76.002L563.386,76.731L561.603,76.371L562.372,79.143L561.325,79.379L561.25,80.662L557.897,79.061L556.819,79.143L557.556,80.262L558.623,80.169L559.061,81.175L559.232,83.361L560.065,83.084L559.766,80.867L560.663,81.155L560.61,82.232L561.56,80.611L562.436,80.918L564.048,80.077L564.742,81.432L564.39,82.396L564.582,83.69L563.525,83.833L562.938,84.747L562.884,85.845L561.688,86.101L561.304,86.881L561.389,88.195L560.428,88.79L560.93,90.986L561.581,90.955L561.005,92.289L560.14,92.433L559.926,93.438L559.253,93.726L557.748,93.048L557.705,94.085L558.356,94.536L558.794,95.962L558.004,96.988L556.926,97.306L556.029,96.906L555.601,97.881L554.384,99.061L553.989,100.928L551.084,101.543L550.401,101.112L546.909,101.964L545.831,101.83L544.944,101.174L543.93,101.564L541.816,103.615L540.278,106.108L538.409,108.723L536.861,111.615L535.601,114.333L534.255,118.363L533.369,121.982L533.326,124.935L534.18,126.616L534.725,127.016L535.312,128.84L534.501,129.589L534.736,130.275L535.729,129.988L535.344,131.054L533.817,131.782L533.561,133.125L534.106,134.713L534.789,135.359L535.836,135.011L536.786,135.359L536.145,134.078L536.466,133.432L535.473,133.525L535.216,132.869L536.85,132.213L537.138,133.145L538.548,134.303L537.864,135.564L539.306,134.703L538.964,135.974L539.755,136.097L539.594,133.873L538.676,132.428L539.456,131.382L540.577,130.829L541.303,131.136L541.057,131.997L542.627,131.915L544.143,130.357L544.56,130.675L543.631,131.464L543.364,132.951L543.588,135.267L542.883,137.388L543.556,137.901L544.912,137.726L546.535,137.788L548.34,138.536L548.415,140.35L549.28,141.692L547.828,141.416L547.731,142.358L547.785,142.932L546.525,144.039L545.339,143.065L544.143,143.024L544.037,143.68L544.912,144.254L545.361,145.258L544.603,146.067L542.531,145.668L542.926,147.051L540.812,148.024L539.925,148.916L539.189,148.414L538.11,148.772L539.082,149.602L537.811,151.016L536.829,150.637L535.206,151.128L534.597,150.36L533.497,150.34L532.792,149.233L531.735,149.397L531.575,148.69L532.653,146.867L532.771,145.545L531.863,145.135L530.699,146.447L529.973,146.108L529.888,147.358L529.375,147.983L529.268,146.303L527.998,145.104L527.731,145.709L525.627,145.145L524.57,146.528L524.314,149.346L524.762,150.545L525.574,151.067L524.303,151.159L522.904,151.948L522.455,153.669L522.413,155.718L522.947,156.445L523.769,156.342L523.064,158.196L524.516,159.938L522.21,162.375L521.558,162.088L519.594,163.501L522.562,165.048L523.085,163.041L526.3,159.661L527.218,159.067L528.083,159.671L527.944,161.679L525.958,163.532L526.417,164.321L531.137,161.627L530.208,160.9L530.379,160.101L531.586,160.839L532.653,162.836L532.013,164.024L533.39,164.833L532.087,166.307L532.205,167.198L531.34,166.768L528.521,166.318L527.506,166.85L526.321,166.748L523.737,167.464L523.94,168.192L526.908,167.761L528.243,168.13L529.407,167.731L530.379,169.011L530.763,170.219L531.479,170.506L531.82,169.779L533.55,169.123L533.956,168.304L535.195,169.144L535.932,169.901L533.283,170.598L533.283,171.099L534.543,171.54L531.116,172.604L529.525,172.43L528.83,172.963L529.727,173.168L528.19,173.997L529.065,174.294L526.417,174.806L525.05,173.884L524.634,174.222L523.192,173.69L522.327,174.816L520.362,175.87L519.284,179.115L518.558,180.201L517.212,183.568L516.379,186.198L516.08,187.815L517.148,189.177L517.415,190.988L516.102,191.07L515.269,191.858L515.002,192.891L514.051,193.321L513.187,195.429L512.738,197.342L513.827,198.007L514.084,198.723L513.411,199.163L514.532,199.685L514.874,200.749L514.393,201.506L515.087,202.601L514.116,203.409L512.973,202.989L512.311,204.145L510.901,204.145L510.111,203.552L510.549,204.677L510.1,205.639L509.022,206.079L508.403,207.869L506.427,209.424L504.43,212.604L502.006,218.055L501.451,219.773L499.86,223.474L497.147,231.949L496.784,233.554L497.062,235.854L496.71,236.814L495.62,237.601L495.332,239.012L496.624,240.769L496.571,243.845L495.727,245.327L495.695,246.747L494.232,248.556L493.303,251.233L492.225,253.695L489.929,261.305L489.715,262.939L488.946,264.849L488.477,267.749L488.754,269.036L487.046,274.07L486.287,275.285L485.241,279.368L484.451,283.421L484.13,286.269L484.237,288.351L483.351,290.545L483.426,291.515L482.657,293.923L481.845,295.27L481.002,297.648L479.496,300.596L476.517,309.196L474.37,318.06L473.815,321.201L473.228,322.679L472.459,323.169L472.405,324.28L471.669,326.401L468.785,335.759L466.586,343.475L465.753,346.736L464.429,351.209L464.397,351.739L462.464,359.023L461.161,363.627L460.403,368.475L460.745,368.832L460.029,369.942L460.424,371.551L461.332,372.05L461.172,373.129L459.57,373.058L458.961,373.934L458.908,374.972L458.256,374.708L456.804,376.123L456.163,379.778L456.26,380.796L455.694,380.705L455.459,382.578L454.989,382.893L456.163,383.321L456.441,381.753L457.306,381.886L458.299,376.805L461.193,377.365L466.073,372.722L461.257,377.426L460.008,377.172L459.581,379.636L459.132,380.063L458.481,383.83L457.306,383.667L456.163,386.304L456.014,388.869L456.537,390.528L458.054,390.701L457.712,392.167L455.907,392.737L454.861,395.037L454.327,399.992L454.284,403.757L454.07,408.753L455.448,416.392L456.986,419.138L458.609,420.704L460.894,421.477L460.307,423.684L461.343,425.077L462.314,425.148L463.841,427.711L464.792,428.524L466.436,428.179L466.532,429.734L465.699,430.578L464.001,435.123L463.19,435.997L462.496,438.223L462.581,439.86L461.567,439.189L460.723,439.921L461.385,440.703L460.51,440.561L459.794,441.893L459.613,443.468L460.755,445.399L461.161,446.913L461.759,447.239L461.407,448.143L460.243,447.33L458.748,448.103L458.011,449.454L458.171,450.44L458.897,450.928L459.559,452.391L459.015,452.818L459.634,454.576L458.31,455.216L458.043,455.957L456.836,455.774L457.488,456.953L456.783,457.898L456.302,460.082L457.295,460.651L457.829,461.698L456.665,462.033L456.922,463.221L455.832,463.232L455.416,464.725L456.356,465.913L457.221,465.842L457.69,466.482L458.459,466.076L459.484,467.193L459.719,468.656L457.263,469.387L456.185,470.128L453.846,470.707L453.483,471.733L454.69,472.505L455.352,473.45L454.124,473.744L453.782,474.465L454.177,475.511L454.786,475.389L456.025,476.131L457.338,475.755L457.317,476.831L457.84,477.248L458.022,478.943L456.676,479.289L456.025,479.979L456.591,480.781L457.765,480.324L457.893,482.243L459.346,482.568L459.228,483.513L460.136,485.472L458.652,485.563L457.306,484.65L456.153,484.792L455.544,486.995L454.369,487.584L454.402,488.213L456.847,489.34L457.498,490L457.391,491.076L456.43,491.512L455.555,493.837L454.38,493.349L453.27,495.227L452.202,496.445L450.91,496.719L450.162,497.369L448.507,497.795L446.777,499.206L445.143,499.328L444.054,499.865L441.854,503.001L440.349,506.147L439.526,507.466L439.366,508.521L439.9,510.317L440.509,510.581L440.37,511.768L440.915,512.61L440.071,512.508L440.487,515.643L439.975,515.724L439.078,517.023L438.544,516.688L438.437,514.578L439.612,514L439.484,512.884L438.822,513.33L438.565,510.895L436.643,510.855L436.408,511.474L437.53,512.133L436.077,512.224L436.195,515.318L435.736,515.46L435.148,517.357L433.173,517.915L433.525,518.798L435.063,519.133L435.426,520.127L434.753,520.796L433.397,520.613L432.553,519.619L430.887,520.39L430.033,521.719L429.809,522.754L430.012,525.745L431.165,525.786L431.784,525.188L431.966,526.019L430.482,526.638L431.219,527.429L432.265,527.206L432.062,528.088L430.92,529.295L431.752,529.305L431.806,530.157L430.567,530.613L429.531,530.441L430.065,531.394L429.67,533.371L430.674,534.375L431.784,534.537L430.941,535.135L431.197,536.2L430.161,536.616L429.991,537.528L430.674,538.806L430.492,539.444L428.709,537.447L428.773,535.977L426.808,536.798L428.175,538.958L427.566,539.211L427.054,540.347L427.225,541.614L429.617,542.567L431.304,542.992L431.635,544.553L431.058,544.645L430.396,546.246L430.994,546.581L431.795,545.638L431.752,546.682L430.738,546.976L430.61,547.736L431.923,547.716L432.553,548.942L432.436,549.976L431.432,550.706L431.016,551.861L429.969,552.297L427.833,552.621L427.15,553.422L424.651,554.891L423.466,555.276L423.156,557.09L423.455,560.86L424.192,562.086L426.328,564.456L426.082,566.067L426.83,569.795L426.349,570.808L426.264,572.915L425.089,573.695L424.908,575.143L424.342,575.933L422.238,576.581L421.619,576.47L420.252,577.28L420.145,578.09L417.988,578.344L416.664,579.518L416.119,581.169L416.087,582.445L417.529,583.863L417.497,584.561L414.443,584.561L413.482,584.865L413.022,586.131L413.439,586.475L413.001,588.409L413.535,591.335L414.272,592.337L417.219,593.704L418.49,595.182L419.237,595.536L418.799,597.743L417.892,598.876L416.29,599.737L414.443,600L411.624,598.623L409.862,598.188L408.345,596.832L407.523,595.404L407.277,591.912L406.69,590.464L406.914,589.948L405.142,588.034L404.405,588.601L403.134,588.773L402.109,589.715L400.667,590.029L400.123,588.743L398.692,588.662L397.902,590.373L395.787,591.77L394.068,591.497L388.953,592.509L387.896,592.064L386.07,592.033L384.191,590.201L383.422,589.897L382.258,588.379L381.393,586.313L380.934,583.083L379.727,582.182L380.197,581.017L380.143,578.09L380.741,577.321L381.468,577.341L382.749,576.389L382.877,574.657L382.14,573.361L380.944,572.5L378.574,572.003L378.061,573.745L377.153,574.485L376.481,571.396L375.69,571L374.206,568.195L372.807,567.242L370.746,566.3L370.874,564.841L370.33,564.051L369.924,565.064L369.283,564.922L369.753,562.967L367.596,562.531L366.56,561.923L364.467,561.559L363.464,561.964L363.09,561.397L361.349,561.366L360.271,561.863L359.662,562.876L360.089,563.94L359.256,564.152L357.281,563.149L357.569,562.075L355.839,560.515L355.626,561.224ZM439.921,526.891L441.267,527.317L440.391,528.524L440.786,529.579L441.908,531.14L441.844,532.134L440.797,532.895L441.107,534.628L441.748,534.811L441.63,535.855L442.132,537.477L442.057,538.937L439.911,536.23L438.651,534.304L438.565,533.29L437.444,531.516L437.668,530.603L438.608,529.275L439.484,528.697L439.27,527.277ZM580.141,67.337L580.568,68.98L583.205,69.75L584.508,69.75L585.181,68.569L585.928,69.123L586.537,70.674L585.159,71.413L584.711,71.228L583.835,72.419L583.632,74.174L582.009,74.308L583.099,74.565L582.351,75.16L581.678,74.257L580.055,74.708L577.909,73.682L579.19,72.593L577.834,72.573L577.631,71.865L576.777,71.823L576.168,70.325L576.916,70.232L577.631,70.941L578.838,70.458L578.09,70.088L578.667,69.462L576.788,69.092L579.543,68.456ZM589.292,62.418L589.046,63.27L589.709,63.466L589.527,64.595L588.94,64.39L588.021,63.055ZM596.308,50.494L597.269,51.49L596.276,51.202ZM440.754,522.033L440.915,523.545L440.359,523.007ZM428.933,561.437L428.752,564.598L426.744,563.636L427.214,562.268ZM432.083,561.397L431.603,563.362L431.08,563.078L431.251,562.096ZM432.831,552.104L433.6,552.672L433.365,554.699L432.489,554.233L431.881,553.047ZM550.369,152.184L550.711,152.931L549.942,153.341L549.408,152.747ZM528.937,150.555L529.055,152.214L529.546,152.532L528.756,153.177L527.72,152.849L528.382,151.057Z"
          fill="#e0e0e0"
          stroke="#333333"
          stroke-width="1"
          stroke-linejoin="round"/>
  </g>
</svg>