<?xml version="1.0" encoding="UTF-8"?>
<svg xmlns="http://www.w3.org/2000/svg"
     viewBox="241.55417917650993 -19.999999999999545 316.89164164698195 640"
     width="316.89164164698195"
     height="640">
  <title>鹿児島県</title>
  <desc>都道府県コード: 46</desc>
  <g id="46">
    <path d="M474.482,89.683L473.894,89.424L474.001,89.148L473.833,89.011L474.625,89.328ZM480.418,88.32L480.394,88.712L480.182,88.602ZM475.586,82.349L475.599,82.724L475.253,82.736L475.28,82.442ZM491.11,79.848L490.966,80.168L490.73,80.246L490.844,79.726ZM438.89,27.007L438.563,26.65L438.676,25.87L438.468,25.899L438.235,26.186L437.893,26.115L437.663,26.525L437.838,27.366L437.617,27.434L437.385,27.106L436.806,26.846L436.506,26.267L436.549,25.458L436.736,25.174L436.999,25.171L436.812,24.923L436.975,24.51L436.88,24.315L436.996,23.388L437.333,23.303L437.501,22.85L438.082,22.75L438.168,22.616L438.453,22.838L438.511,22.294L439.003,22.11L439.401,21.747L440.059,21.446L440.488,21.139L440.989,21.209L441.51,20.852L442.018,20.715L443.024,20.838L443.658,20.715L444.043,20.844L444.389,20.785L445.087,21.057L445.65,21.841L445.885,21.651L445.818,21.13L445.506,20.844L445.989,20.706L446.344,20.791L446.617,21.028L446.54,21.531L446.589,21.82L446.43,22.122L447.63,22.92L447.926,22.987L449.42,23.098L450.166,23.116L450.592,22.25L450.782,22.098L451.969,21.548L452.229,21.274L452.33,21.385L452.881,21.165L453.266,20.697L452.979,20.481L453.077,20.346L453.413,20.715L453.511,20.384L453.747,20.545L453.777,20.08L454.089,20.206L454.399,19.89L454.499,19.451L454.472,19.077L454.591,18.831L454.845,18.726L455.445,18.056L455.436,17.726L455.274,17.553L455.139,17.021L454.995,16.83L455.102,16.193L455.246,16.154L455.274,16.19L455.28,16.248L455.304,16.266L455.347,16.292L455.411,16.447L455.607,16.637L455.693,16.751L455.73,16.792L455.76,16.801L455.831,16.751L455.861,16.748L455.886,16.772L456.167,17.026L456.198,17.085L456.216,17.094L456.247,17.094L456.436,17.307L456.44,17.392L456.489,17.477L456.694,17.541L456.727,17.571L456.758,17.617L456.819,17.667L456.871,17.702L456.896,17.752L456.911,17.881L456.935,17.924L456.975,17.963L457.009,17.995L457.009,18.053L457.036,18.094L457.116,18.182L457.165,18.191L457.241,18.194L457.596,18.451L457.664,18.483L457.716,18.507L457.765,18.536L457.78,18.603L457.807,18.703L457.847,18.764L457.856,19.007L457.85,19.048L458.172,19.65L458.199,19.773L458.217,19.823L458.282,19.955L458.3,20.051L458.303,20.092L458.569,20.358L458.634,20.39L458.695,20.461L458.732,20.496L458.79,20.537L458.973,20.823L459.053,20.876L459.184,20.984L459.224,21.028L459.301,21.101L459.399,21.209L459.163,21.408L459.285,21.665L459.353,21.715L459.402,21.733L459.497,21.75L459.542,21.762L459.601,21.774L459.754,21.815L459.845,21.835L460.112,21.902L460.151,21.92L460.228,21.929L460.54,21.87L460.659,21.899L460.702,21.908L460.742,21.932L461.256,21.996L461.305,21.996L461.326,21.996L461.366,22.005L461.938,22.458L461.981,22.42L462.085,22.332L463.172,22.432L463.233,22.391L463.423,22.274L463.468,22.227L463.79,22.116L463.875,22.113L463.9,22.113L463.961,22.13L464.383,22.566L464.399,22.549L464.445,22.464L464.729,22.356L464.72,22.277L464.702,22.201L464.818,22.087L464.901,22.098L465.106,21.984L465.176,21.94L465.341,21.882L465.363,21.975L465.451,21.981L465.555,21.964L465.696,22.244L465.871,22.127L465.965,22.06L466.091,22.028L466.213,21.937L466.33,21.899L466.342,21.829L466.348,21.736L466.333,21.61L466.339,21.525L466.363,21.513L466.47,21.493L466.556,21.464L466.577,21.449L466.584,21.414L466.568,21.341L466.617,20.946L466.614,20.914L466.587,20.852L466.535,20.68L466.562,20.613L466.608,20.499L466.7,20.007L466.63,19.568L466.666,19.53L467.009,19.446L467.281,19.516L467.373,19.589L467.633,19.75L467.649,19.937L467.753,19.998L468.095,20.139L468.138,20.159L468.374,20.001L468.417,19.993L468.833,19.94L468.903,19.902L469.026,19.811L469.136,19.712L469.258,19.586L469.301,19.551L469.387,19.492L469.463,19.352L469.506,19.334L469.674,19.334L469.739,19.337L469.791,19.343L469.849,19.352L469.904,19.37L470.54,19.84L470.641,19.89L470.687,19.902L470.773,19.925L470.868,19.946L471.036,19.966L471.186,19.952L471.614,19.744L471.642,19.753L471.795,19.802L471.923,19.808L472.061,19.8L472.171,19.741L472.266,19.683L472.33,19.68L472.376,19.685L472.431,19.691L472.814,19.726L472.887,19.788L472.945,19.329L472.976,19.13L473.007,19.054L473.062,19.01L473.102,18.966L473.001,18.615L473.04,18.492L473.108,18.299L473.248,18.305L473.285,18.308L473.594,18.252L473.652,18.229L474.341,17.901L474.491,17.837L474.815,17.787L474.947,17.717L475.048,17.67L475.109,17.647L475.222,17.658L475.305,17.702L475.712,17.761L475.804,17.775L476.076,17.673L476.22,17.69L476.651,17.652L476.774,17.711L476.96,17.731L477.07,17.685L477.119,17.579L477.116,17.55L477.165,17.255L477.367,17.059L477.444,17.032L477.468,17.015L477.493,16.968L477.477,16.743L477.523,16.652L477.606,16.532L477.624,16.473L477.728,16.152L477.811,16.084L478.096,15.619L478.151,15.502L478.23,15.417L478.322,15.329L478.38,15.277L478.392,14.893L478.38,14.826L478.31,14.495L478.322,14.378L478.233,14.267L478.129,14.217L477.979,14.062L478.221,13.992L478.276,14.018L478.6,14.013L478.763,13.992L479.115,13.884L479.329,13.995L479.644,13.895L479.916,14.194L479.987,14.293L480.051,14.44L480.06,14.492L480.017,14.557L480.081,14.785L480.103,14.858L480.127,14.975L480.137,15.06L480.14,15.078L480.167,15.089L480.305,15.201L480.32,15.297L480.332,15.353L480.354,15.441L480.446,15.522L480.427,15.607L480.47,16.023L480.424,16.081L480.244,16.204L480.449,16.362L480.522,16.681L480.528,16.737L480.596,16.766L480.663,16.824L480.721,16.933L480.883,17.178L480.935,17.26L480.993,17.392L481.021,17.509L481.253,17.5L481.302,17.497L481.642,17.556L481.685,17.576L481.807,17.547L481.862,17.544L482.159,17.784L482.523,17.685L482.744,17.945L482.826,17.998L483.331,17.992L483.414,17.995L483.628,18.088L483.83,18.1L483.989,18.349L483.986,18.474L483.977,18.641L483.98,18.685L484.05,18.726L484.139,18.875L484.139,18.928L484.115,19.042L484.118,19.086L484.252,19.285L484.157,19.688L484.164,19.732L484.277,19.946L484.356,19.978L484.522,20.13L484.592,20.2L484.978,20.256L485.118,20.434L485.14,20.481L485.146,20.56L485.164,20.589L485.397,20.809L485.623,20.741L485.688,20.674L485.761,20.797L485.859,20.882L485.893,20.92L485.981,21.037L486.067,21.233L486.15,21.259L486.171,21.274L486.247,21.294L486.56,21.461L486.719,21.584L486.762,21.636L486.838,21.739L486.872,21.768L486.951,21.856L487.294,22.089L487.34,22.154L487.677,22.318L487.796,22.528L487.872,22.595L488.23,22.882L488.258,22.905L488.307,22.975L488.432,23.075L488.494,23.139L488.539,23.23L488.585,23.265L488.729,23.323L488.876,23.391L489.063,23.364L489.109,23.361L489.237,23.347L489.724,23.566L489.76,23.607L489.822,23.604L490.18,23.698L490.256,23.785L490.636,23.97L490.721,24.043L490.715,24.262L490.654,24.37L490.418,24.677L490.394,24.747L490.394,24.812L490.415,24.858L490.357,25.107L490.345,25.192L490.348,25.235L490.372,25.273L490.412,25.338L490.372,25.411L490.259,25.604L490.244,25.697L490.195,25.75L490.085,25.832L489.864,26.197L489.528,26.282L489.357,26.338L489.161,26.478L489.115,26.528L488.992,26.738L488.998,27.176L488.995,27.542L488.983,28.886L489.005,28.945L489.47,29.138L490.1,29.363L492.153,30.09L492.309,30.143L492.456,30.324L492.511,30.412L492.79,30.724L492.851,30.806L492.958,30.853L493.053,30.844L493.209,30.826L493.249,30.905L493.328,31.478L493.451,31.656L493.827,31.82L493.916,31.776L493.996,31.764L494.271,31.934L494.289,31.896L494.289,31.875L494.28,31.832L494.283,31.823L494.305,31.808L494.375,31.82L494.421,31.826L494.464,31.957L494.556,32.065L494.451,32.238L494.467,32.27L494.672,32.41L494.73,32.451L494.779,32.565L494.748,32.606L494.822,32.915L495.051,32.983L495.091,33L495.143,32.983L495.155,33L495.161,33.099L495.223,33.146L495.501,33.365L495.547,33.356L496.027,33.672L496.183,33.754L496.364,34.017L496.3,34.291L496.297,34.338L496.41,35.29L496.385,35.389L496.471,36.087L496.517,36.195L496.563,36.309L496.597,36.42L496.688,37.004L496.698,37.098L496.722,37.188L496.74,37.282L496.725,37.656L496.878,37.901L496.89,37.968L497.123,38.181L497.187,38.228L497.303,38.333L497.349,38.342L497.374,38.453L497.414,38.479L497.512,38.549L497.548,38.578L497.698,38.634L497.75,38.631L497.821,38.727L497.867,38.742L497.922,38.765L498.108,39.384L498.12,39.44L498.151,39.731L498.194,39.802L498.607,40.239L498.628,40.333L498.472,40.78L498.497,40.85L498.457,41.477L499.026,41.521L499.669,42.125L499.804,42.151L499.834,42.169L499.877,42.216L500.076,42.507L500.256,42.54L501.043,42.467L501.655,42.484L501.799,42.382L502.264,42.461L502.337,42.437L502.579,42.341L502.613,42.35L502.821,42.607L502.867,42.653L502.958,42.674L503.023,42.648L503.338,42.697L503.396,42.723L503.512,42.738L503.653,42.788L503.76,42.823L503.87,42.843L504.189,42.916L504.381,43.293L504.513,43.354L504.577,43.371L504.972,43.366L505.076,43.468L505.217,43.622L505.302,43.739L505.345,43.815L505.379,44.069L505.667,44.051L506.211,44.731L506.514,44.795L506.557,44.83L506.6,44.839L506.612,44.842L506.624,44.86L506.637,44.968L506.627,45.198L506.67,45.56L507.086,45.916L507.013,46.234L507.083,46.362L507.102,46.421L507.142,46.561L507.175,46.64L507.258,46.753L507.435,46.89L507.64,47.351L507.558,47.43L507.518,47.474L507.674,47.629L507.723,47.675L507.757,47.731L508.136,48.635L508.066,48.722L508.439,48.959L508.803,48.813L509.219,48.778L509.329,48.725L509.721,48.932L509.746,48.976L509.623,49.169L509.274,49.207L509.143,49.072L508.644,49.075L508.298,49.504L507.824,49.863L507.723,50.499L507.668,50.627L507.625,50.744L507.604,50.916L507.203,51.633L507.19,52.196L507.233,52.412L507.157,52.744L507.295,52.905L507.194,53.301L506.695,53.654L506.566,53.701L506.502,53.709L506.309,53.692L505.896,53.96L506.294,54.336L506.395,54.776L506.505,54.934L506.569,55.403L506.551,55.485L506.312,55.552L506.254,55.543L506.214,55.56L506.162,55.625L506.168,55.721L506.086,56.616L506.052,56.691L506.083,57.082L506.248,57.152L506.282,57.167L506.343,57.149L506.386,57.164L506.508,57.33L506.545,57.371L506.582,57.79L506.6,57.886L506.747,58.219L506.793,58.262L506.811,58.277L506.848,58.274L507.105,58.108L507.457,58.172L507.607,58.268L508.044,58.423L508.124,58.466L508.356,58.703L508.451,58.784L508.488,58.796L508.61,58.77L508.757,58.758L508.926,58.755L508.974,58.767L509.161,58.787L509.253,58.822L509.293,58.81L509.412,58.717L509.476,58.676L509.611,58.598L509.669,58.516L509.929,58.379L510.003,58.397L510.162,58.985L510.202,59.006L510.272,59.006L510.358,58.976L510.716,59.151L510.697,59.204L510.89,59.545L510.896,59.571L510.918,60.023L511.031,60.116L511.052,60.139L511.104,60.221L511.343,60.532L511.462,60.579L511.612,60.541L511.673,60.541L511.885,60.57L511.937,60.559L512.053,60.626L512.136,60.707L512.469,60.632L512.555,60.637L512.656,60.696L512.726,60.693L512.766,60.69L513.182,60.728L513.262,60.734L513.262,60.766L513.387,60.777L513.482,60.771L513.586,60.78L513.715,60.821L513.88,60.87L514.219,60.958L514.287,60.975L514.366,61.031L514.434,60.981L514.7,61.066L514.822,61.06L514.89,61.072L515.009,60.984L515.199,60.838L515.394,60.693L515.56,60.801L515.921,60.946L516.08,61.171L516.101,61.241L516.267,61.395L516.931,61.208L516.967,61.264L517.289,61.599L517.396,62.231L517.12,62.825L517.071,62.91L517.019,62.904L516.897,62.866L516.833,62.884L516.811,62.869L516.753,62.758L516.719,62.688L516.671,62.651L516.643,62.653L516.478,63.003L516.594,63.079L516.551,63.125L516.505,63.16L516.355,63.178L516.294,63.233L516.257,63.289L516.205,63.321L516.016,63.723L516.086,63.973L516.049,64.171L516.052,64.299L516.095,64.521L516.612,64.515L516.921,64.733L517.102,64.722L517.185,64.655L517.221,64.602L517.555,64.792L517.674,65.001L518.005,65.173L518.093,65.135L518.149,65.115L518.234,65.033L518.865,64.786L519.131,65.036L519.207,65.057L519.709,64.841L519.755,64.928L519.776,64.94L519.828,64.96L519.868,65.336L519.81,65.485L519.773,65.927L519.893,66.184L519.838,66.565L519.933,67.363L519.963,67.544L519.81,68.347L519.798,68.504L519.786,68.551L519.715,68.659L519.59,68.79L519.498,68.973L519.614,69.325L519.767,69.352L519.914,69.314L519.942,69.544L519.945,69.622L520.034,69.89L520.431,70.301L520.587,70.429L521.031,70.787L521.028,70.822L520.759,71.276L520.75,71.378L520.676,71.48L520.664,71.369L520.658,71.363L520.584,71.375L520.633,71.692L520.676,71.736L520.694,72.024L520.667,72.05L520.655,72.05L520.633,72.036L520.566,72.059L520.548,72.164L520.575,72.242L520.624,72.298L520.688,72.379L520.676,72.411L520.851,72.559L520.731,73.124L520.529,73.392L520.771,73.564L521.016,73.47L521.065,73.473L520.961,73.776L520.802,73.814L520.927,74.131L520.93,74.151L520.734,74.326L520.872,74.419L521.254,74.792L521.622,74.891L521.79,74.905L522.157,75.266L522.304,75.443L522.405,75.58L522.469,75.635L522.751,75.999L522.837,76.308L522.898,76.491L522.925,76.526L522.947,76.532L522.968,76.578L522.895,77.201L523.152,77.375L523.204,77.401L523.403,77.48L523.4,77.521L523.442,77.966L523.507,78.012L523.528,78.123L523.546,78.129L523.706,78.19L523.81,78.137L524.012,77.486L524.07,77.436L524.29,77.134L524.327,77.067L524.373,77.017L524.382,76.983L524.685,76.54L524.835,76.462L525.113,76.052L525.141,75.935L525.324,75.379L525.465,75.286L526.022,75.1L526.414,75.574L526.692,75.627L526.756,75.665L526.802,75.711L526.854,75.749L526.916,75.775L527.02,75.862L527.185,76.206L527.225,76.249L527.607,76.668L527.656,76.718L527.87,76.785L527.95,76.796L528.17,76.895L528.498,77.288L528.55,77.297L528.617,77.352L528.843,77.71L529.186,77.928L529.253,77.954L529.367,78.26L529.425,78.292L529.642,78.58L529.728,78.62L529.994,78.652L530.113,78.588L530.178,78.559L530.214,78.556L530.511,78.646L530.597,78.777L530.805,79.004L530.857,79.001L531.034,78.897L531.108,78.923L531.163,78.94L531.221,78.943L531.31,78.9L531.429,78.882L531.894,78.865L532.228,78.565L532.672,78.527L532.751,78.516L533.048,78.574L533.091,78.489L533.103,78.219L533.556,78.12L533.672,77.849L533.905,77.777L534.009,77.803L534.293,77.829L534.373,77.768L534.413,77.503L534.82,77.751L534.954,78.193L535.374,78.318L535.508,78.411L535.569,78.437L535.719,78.521L535.826,78.658L535.781,78.78L535.854,78.955L536.573,79.217L536.732,79.211L536.876,79.496L536.879,79.534L536.934,80.005L536.94,80.022L536.876,80.046L536.824,80.136L536.668,80.284L536.53,80.781L536.585,81.471L536.647,81.564L536.83,81.872L537.399,82.387L537.47,82.433L537.626,82.596L537.681,82.634L537.708,82.712L537.766,82.849L537.779,83.105L537.825,83.166L538.051,83.454L538.106,83.593L538.244,83.928L538.305,84.021L538.431,84.329L538.446,84.425L538.434,84.451L538.378,84.518L538.232,85.262L538.21,85.355L538.069,85.463L538.042,85.466L537.99,85.585L537.929,85.62L538.085,85.823L537.886,86.221L537.485,86.37L537.314,86.71L536.827,86.983L537.5,87.643L537.568,87.803L537.617,87.977L537.571,88.058L537.595,88.285L537.681,88.358L537.812,88.834L537.653,89.139L537.653,89.174L537.763,89.459L537.861,89.561L538.072,90.011L537.938,90.217L537.944,90.27L538.024,90.52L537.923,90.97L537.993,91.583L537.779,92.048L537.708,92.115L537.647,92.26L537.61,92.295L536.83,92.67L536.76,92.664L536.38,92.824L535.854,92.914L535.774,92.992L535.67,93.039L535.634,93.076L535.487,93.346L535.132,93.416L535.11,93.439L534.863,94.015L535.068,94.32L534.835,94.497L534.838,94.558L534.829,94.627L534.587,94.851L534.544,94.898L534.538,94.909L534.508,95.049L534.391,95.234L534.37,95.31L534.293,95.473L534.296,95.505L534.403,95.821L534.425,96.567L534.284,97.087L534.263,97.116L534.198,97.459L534.208,97.5L534.263,97.656L534.11,97.781L534.076,97.86L534.052,97.967L534.009,98.037L533.602,97.894L533.339,97.401L533.14,97.462L532.769,97.317L532.366,97.322L532.059,97.758L531.98,98.165L531.766,97.944L531.708,97.43L531.356,97.195L530.542,96.965L530.471,96.721L530.193,96.582L529.406,96.626L529.321,96.75L529.116,96.382L528.92,96.373L528.825,96.637L528.923,96.922L528.788,97.023L528.638,96.779L528.439,97.041L528.602,97.296L528.228,97.744L527.962,97.497L527.803,97.683L527.98,98.231L527.561,98.6L527.28,98.466L526.824,98.069L526.518,98.324L526.438,98.623L526.674,99.041L526.833,98.908L527.044,99.291L526.714,99.657L526.573,99.642L525.915,98.461L524.875,99.201L524.259,99.75L523.696,100.345L522.708,101.509L522.249,102.124L521.414,103.445L520.881,104.411L520.199,105.824L519.972,106.614L519.917,107.185L519.798,107.591L519.923,108.224L519.715,108.711L519.795,109.222L519.657,109.703L519.917,109.619L519.801,109.903L520.003,110.176L520.508,110.451L521.08,110.567L521.478,110.759L521.863,110.753L522.576,111.075L522.931,111.11L523.491,111.55L524.122,111.753L524.428,111.977L524.835,111.954L525.254,112.116L525.682,112.029L525.737,112.217L526.42,112.522L526.714,112.493L526.971,112.667L527.503,112.751L527.977,113.009L528.461,112.823L528.929,113.2L528.712,113.453L528.485,113.499L528.418,113.777L528.583,114.091L528.351,114.638L528.788,114.911L528.54,115.149L528.586,115.395L528.137,115.45L527.757,115.905L527.185,116.102L526.729,117.042L526.521,117.23L525.477,117.674L525.487,118.459L525.713,119.041L526.047,119.108L525.915,119.259L526.447,119.636L526.08,119.766L525.786,119.998L526.496,119.72L526.539,119.433L527.004,119.47L527.222,119.175L527.629,119.125L527.815,119.32L528.394,119.328L528.776,119.531L529.137,119.389L529.278,119.178L529.777,119.053L530.116,118.728L530.116,118.456L530.306,118.21L531.114,118.456L531.209,118.981L531.031,119.056L531.007,119.366L530.643,119.633L530.239,120.061L529.881,120.05L529.85,120.279L529.235,120.58L529.088,121.076L528.85,121.406L528.648,121.368L528.397,121.568L528.084,121.591L527.494,122.11L526.808,122.516L526.466,122.834L526.53,123.014L526.328,123.176L526.099,123.098L525.725,123.637L525.355,124.378L525.122,124.509L524.761,125.033L524.428,125.12L523.693,125.131L523.06,125.461L522.791,125.195L522.356,124.984L521.848,125.143L521.704,125.285L521.095,125.042L520.835,125.128L520.569,124.995L519.902,124.986L519.122,125.91L518.88,126.278L518.849,126.545L519.189,127.005L519.039,127.358L519.183,127.68L519.027,127.984L518.647,128.392L518.712,128.569L518.436,128.989L518.497,129.544L518.078,129.626L517.867,129.918L517.359,130.042L517.084,130.352L516.814,130.439L516.768,130.758L516.973,130.992L516.934,131.316L517.365,131.389L517.659,131.545L517.745,131.803L517.041,131.797L516.465,131.875L516.459,131.791L515.829,131.878L515.511,132.106L515.422,132.842L516.028,133.062L516.19,133.554L516.104,133.907L515.805,134.127L515.523,134.598L514.721,135.064L514.538,135.345L514.262,135.368L513.935,135.646L513.341,135.961L513.066,135.973L512.276,136.604L511.572,136.873L511.294,136.878L511.175,137.075L510.492,136.864L510.244,137.064L510.364,137.333L510.281,137.746L510.033,138.091L509.418,138.328L508.699,138.201L508.378,138.299L508.237,138.646L507.732,138.797L507.512,139.013L506.747,139.424L506.156,139.864L505.838,140.306L505.018,140.301L504.556,140.529L504.29,140.497L503.965,140.726L503.733,140.677L503.543,140.856L503.118,141.018L502.597,140.81L502.135,140.734L501.826,140.52L501.505,140.477L501.233,140.697L501.306,140.917L500.89,141.116L500.504,141.012L500.036,141.122L499.849,141.021L499.338,141.206L499.161,141.686L499.213,141.995L498.76,141.628L498.5,141.611L498.35,141.88L497.796,141.807L497.827,142.409L497.717,142.848L497.512,142.73L496.896,143.025L496.799,143.314L496.392,143.626L495.85,143.551L495.265,143.693L494.99,144.072L494.669,144.28L494.69,144.893L494.418,144.699L494.023,144.586L493.873,144.225L493.39,144.254L493.084,144.419L492.879,144.823L492.894,145.245L492.337,145.364L492.055,145.659L491.771,145.696L491.303,145.988L491.085,145.968L490.779,146.179L490.532,146.003L490.278,146.095L490.207,146.402L490.296,146.668L490.238,147.035L489.972,147.078L490.498,147.413L490.226,147.818L490.342,148.151L490.079,147.905L489.828,147.922L489.69,147.677L489.363,147.659L489.035,148.072L488.573,148.038L488.616,148.191L488.386,148.578L487.891,148.72L487.572,148.564L487.667,148.388L487.343,148.263L487.086,148.336L487.019,148.815L487.377,149.006L487.346,149.234L487.53,149.414L487.441,149.781L487.221,150.038L487.009,150.491L486.96,150.821L486.759,150.858L486.416,150.356L486.223,150.538L486.192,150.243L486.012,150.179L485.55,150.272L485.351,150.723L485.473,150.98L485.412,151.569L484.959,151.483L484.975,151.849L484.482,151.714L484.598,151.48L484.347,150.997L484.488,150.659L484.393,150.442L484.858,150.26L485.195,149.913L484.932,149.723L485.045,149.515L485.326,149.416L485.528,148.656L485.908,148.46L485.81,148.272L486.37,147.35L486.287,146.937L486.596,146.402L486.428,146.257L486.113,146.373L486.321,145.774L486.251,145.416L486.566,145.138L486.257,145.141L486.217,144.748L485.978,144.578L486.303,144.615L486.495,144.184L486.407,143.991L486.128,144.043L485.926,143.913L486.104,143.742L485.85,143.571L485.645,143.632L485.629,143.392L485.277,143.459L485.109,143.245L484.546,143.051L484.121,143.268L484.038,143.155L484.476,142.773L484.561,142.53L485.023,142.102L485.486,141.46L485.865,141.264L486.939,141.058L487.236,140.821L487.309,140.544L487.202,140.327L487.554,140.066L487.618,140.228L487.924,140.208L488.084,139.942L488.598,139.783L489.038,139.175L489.286,138.964L490.039,138.05L491.177,138.018L491.419,137.833L491.704,137.827L492.098,137.414L492.297,136.91L492.723,136.28L492.998,136.144L493.325,135.238L493.944,133.886L493.992,133.481L494.219,133.056L494.216,132.735L494.436,132.341L494.448,131.921L494.675,131.609L494.788,131.224L495.116,130.81L495.232,130.413L495.186,129.927L494.788,129.058L494.204,128.479L493.891,127.877L494.057,127.15L493.937,126.872L494.185,126.692L494.448,126.243L494.672,126.301L495.403,125.25L495.498,124.622L495.783,124.167L495.832,123.79L497.331,122.643L497.545,122.038L497.264,121.531L497.426,120.635L497.634,120.215L497.606,119.87L497.821,119.256L497.692,119.157L497.772,118.644L498.004,118.439L497.974,118.152L498.093,117.639L497.995,117.291L497.68,117.16L497.707,116.731L497.557,116.045L498.099,115.157L497.977,114.981L498.136,114.595L498.509,114.16L498.503,113.653L498.699,113.589L498.852,112.957L498.778,112.458L498.399,111.809L498.13,111.542L497.704,111.382L497.885,111.046L497.655,110.486L497.643,109.979L497.31,109.541L497.013,109.523L496.933,109.016L496.737,108.888L496.584,108.537L496.324,108.47L496.639,108.076L496.551,107.739L496.141,107.359L496.135,106.811L495.819,106.567L495.605,106.59L495.663,106.039L495.351,105.224L495.415,104.997L495.238,104.678L495.109,104.939L494.84,104.722L495.195,104.565L495.122,104.301L494.66,103.802L494.302,102.592L494.106,102.191L493.76,101.953L493.019,100.867L492.288,100.261L492.101,99.692L491.551,99.178L490.259,98.667L489.118,98.403L488.503,98.054L488.438,97.436L488.322,97.212L488.24,96.219L487.817,96.126L487.802,95.365L487.943,95.025L487.771,94.895L488.307,94.261L488.276,93.994L488.454,93.57L488.356,93.024L488.172,92.487L488.405,91.783L488.442,90.918L488.549,90.688L488.497,90.174L488.998,90.215L489.301,89.924L489.341,88.855L489.054,88.047L488.772,87.73L488.491,87.198L488.151,87.413L488.197,87.648L487.857,87.526L487.502,87.657L487.371,88.154L486.918,88.488L486.449,88.552L486.281,88.442L486.211,88.07L486.391,88.105L486.241,87.739L486.03,87.983L485.663,87.544L485.183,87.465L484.864,87.602L483.454,87.837L483.209,88.227L482.924,88.18L482.652,88.416L482.328,88.265L482.328,87.846L482.015,87.683L482.08,87.529L481.523,87.029L481.125,87.59L480.816,87.274L480.816,86.547L480.467,86.407L480.023,86.428L480.094,85.96L479.555,85.006L478.965,85.093L478.634,84.782L478.735,84.686L478.594,84.23L478.469,84.483L477.985,84.218L478.065,83.858L477.915,83.369L478.117,83.041L478.622,83.02L478.772,82.907L478.656,82.43L479.353,82.41L479.589,82.122L479.898,81.09L480.632,80.496L480.782,80.191L481.504,79.635L482.006,79.539L482.441,79.705L483.007,79.67L483.677,79.493L484.053,79.17L484.944,78.975L485.155,79.045L485.541,78.9L486.18,79.199L486.251,78.885L486.599,78.67L487.034,79.487L487.285,79.615L487.319,79.411L487.71,79.42L487.875,79.225L488.09,79.42L488.267,79.179L488.292,79.429L488.607,79.63L488.549,79.92L489.041,80.56L489.295,80.555L489.531,80.799L489.338,80.997L489.638,81.255L489.635,81.45L490.342,81.747L490.198,82L489.984,82.009L489.699,82.299L489.892,82.666L490.522,83.111L490.057,84.067L489.461,84.131L489.69,84.183L489.589,84.483L489.776,84.739L490.042,84.707L490.235,84.989L489.941,85.178L490.115,85.46L489.73,85.852L489.886,85.998L490.17,85.852L490.241,86.128L490.758,86.029L490.73,86.262L490.219,86.727L489.702,86.794L489.565,86.936L490.152,87.035L490.565,86.896L491.159,87.009L491.884,86.983L492.083,86.852L492.787,86.867L493.197,86.8L493.76,86.896L494.754,86.544L495.247,86.285L495.373,85.838L496.266,85.221L496.731,84.477L496.838,84.125L497.27,83.692L497.3,83.308L497.212,82.863L497.273,82.581L497.129,81.779L497.701,81.244L498.068,80.639L498.078,79.95L498.209,79.33L498.503,78.783L498.607,78.373L498.947,78.062L499.143,77.66L499.452,77.297L499.84,77.163L500.336,76.82L500.409,76.511L500.648,76.241L500.789,75.211L500.468,74.544L500.226,73.456L499.852,73.124L499.617,72.394L498.775,71.806L498.243,71.893L498.136,71.765L498.509,71.023L498.169,70.408L497.759,70.144L497.157,70.126L496.955,69.972L496.695,70.228L495.4,69.806L495.177,69.666L494.008,69.751L493.512,69.468L493.206,69.506L492.487,69.311L492.361,69.704L492.01,69.631L491.648,69.346L491.465,68.793L491.425,68.417L491.691,67.756L491.554,67.832L491.284,68.426L491.15,68.469L490.605,68.117L490.275,67.564L490.351,67.258L489.188,67.526L488.304,67.121L488.166,67.153L488.035,66.731L487.631,66.475L487.181,66.452L486.991,66.655L486.364,66.958L486.012,67.27L485.642,67.031L484.733,67.185L483.377,68.117L482.753,68.851L482.101,69.206L481.553,68.88L480.733,69.847L480.657,70.173L480.458,70.33L480.192,70.892L480.296,71.43L479.895,71.98L479.757,72.458L479.723,72.92L479.901,73.389L480.094,74.492L480.375,75.053L480.724,75.251L480.638,75.528L480.213,75.539L479.671,75.894L479.124,76.843L479.023,78.382L478.864,78.6L478.224,79.132L477.447,79.493L477.254,79.79L476.945,80.016L476.578,80.089L476.409,80.342L476.287,81.075L476.33,81.247L476.088,81.683L475.375,81.994L475.482,82.096L475.13,82.398L475.311,82.945L475.611,83.087L475.207,83.105L475.256,83.524L475.452,83.683L475.351,83.25L475.819,83.864L475.498,83.838L475.329,84.186L475.504,84.425L475.846,84.172L475.88,85.088L475.063,87.096L474.944,87.183L474.742,88.262L474.353,88.201L474.084,88.363L473.909,87.983L473.628,87.93L473.352,88.433L473.79,88.538L473.469,89.299L473.129,89.067L472.835,89.421L472.945,89.569L472.471,90.255L472.792,90.371L473.102,89.645L473.273,89.764L472.74,91.069L472.208,92.8L471.825,92.803L471.051,92.562L470.849,93.137L471.926,93.434L471.933,93.564L472.288,93.492L472.229,93.968L472.535,94.009L472.486,94.412L472.177,94.372L472.04,95.452L471.474,95.38L471.357,95.226L471.333,94.726L470.987,94.514L470.825,94.781L470.601,94.439L470.372,94.322L470.286,94.697L470.88,95.06L470.892,95.31L470.442,95.037L470.39,95.249L470.724,95.487L470.687,95.685L470.286,95.746L470.253,96.196L470.66,96.263L470.614,96.634L470.871,96.669L470.837,96.928L472.174,97.099L472.278,96.689L472.116,97.985L470.47,97.773L470.302,97.389L470.213,97.979L470.439,98.17L470.28,98.42L470.583,99.378L470.791,99.538L470.69,99.738L470.758,100.83L471.027,101.193L471.155,101.999L471.376,102.258L471.293,103.056L471.458,103.802L471.657,104.336L471.905,104.44L472.205,105.407L472.416,105.607L472.578,105.523L472.829,105.9L472.649,106.025L472.783,106.245L473.805,105.578L473.876,105.592L474.681,106.791L474.665,106.863L473.68,107.527L473.561,107.487L473.196,106.933L473.429,107.53L473.71,107.643L473.775,107.861L473.487,108.099L473.72,109.062L474.298,110.773L474.454,110.985L474.748,112.174L475.314,114.128L475.877,115.033L476.446,115.676L477.343,116.276L477.894,116.398L477.826,116.54L478.236,117.271L478.723,117.587L479.411,117.731L479.059,117.453L479.118,117.297L479.479,117.459L479.57,117.729L480.29,118.473L480.614,119.039L480.957,119.467L481.56,119.786L482.282,119.977L483.059,120.07L483.851,120.015L484.595,120.061L484.525,120.395L484.776,120.571L485.36,120.542L484.935,121.165L484.421,121.748L484.35,122.101L484.087,122.466L483.956,122.828L483.723,123.101L483.668,123.466L484.014,123.515L483.683,123.622L483.735,124.346L484.252,125.383L484.433,125.447L484.494,125.896L484.213,126.261L483.778,126.229L483.304,126.397L482.832,126.298L482.074,126.689L481.713,127.017L481.838,127.3L481.599,127.471L481.572,127.819L481.74,128.045L482.193,128.166L482.205,127.668L482.468,127.35L482.404,127.095L482.744,127.382L483.126,127.526L483.31,127.961L483.181,128.143L483.126,128.615L482.756,128.876L482.777,129.353L482.318,129.875L481.789,130.002L481.367,130.442L481.116,130.335L480.182,130.199L479.393,130.19L478.87,130.309L478.395,130.581L478.05,130.876L477.747,131.273L477.6,131.852L477.759,132.135L478.044,132.173L478.429,132.442L478.484,132.685L478.056,132.52L477.826,132.633L477.572,133.108L477.37,132.752L476.893,132.254L476.703,132.228L476.259,131.742L475.73,131.319L475.225,131.004L474.295,130.705L474.108,131.076L473.625,131.412L472.991,131.988L472.517,132.205L472.254,132.208L471.856,132.465L470.727,132.182L470.608,131.988L469.775,131.096L469.546,130.743L469.861,130.497L469.888,129.382L469.717,129.087L469.815,128.91L470.488,128.444L470.139,127.39L469.769,126.672L469.215,125.812L468.567,125.042L467.587,123.97L466.424,123.034L465.846,122.695L464.956,122.339L464.631,122.475L464.028,122.235L463.56,122.153L463.371,122.426L463.065,122.295L462.869,122.362L462.563,122.11L462.676,122.518L462.416,122.631L462.462,122.939L462.15,122.881L461.544,122.571L461.587,122.776L461.308,122.852L460.84,122.602L460.549,122.617L460.598,122.362L460.353,122.501L460.399,122.672L459.861,122.423L459.31,121.968L459.435,122.266L459.145,122.214L458.986,122.388L458.673,122.101L458.588,122.327L458.202,121.838L458.172,122.339L457.887,122.391L457.553,122.139L457.07,122.266L456.507,122.252L456.381,122.388L455.95,122.266L455.837,122.403L455.463,122.287L455.292,121.983L455.277,122.287L454.897,122.458L454.23,122.379L454.193,122.171L453.887,122.24L453.796,121.991L452.884,121.872L452.284,121.936L451.782,121.777L451.681,121.617L451.504,121.89L451.357,121.693L451.133,121.791L450.852,121.667L450.546,121.357L450.237,120.731L449.946,120.551L449.805,120.705L449.083,120.916L448.878,121.148L448.832,120.679L448.918,120.456L448.404,120.247L448.043,120.227L448.009,120.38L448.545,120.412L448.505,120.624L448.076,120.595L448.061,120.882L448.45,121.136L447.881,121.029L447.92,120.453L447.673,120.479L447.495,120.696L447.422,121.577L447.498,121.988L447.1,122.53L446.99,122.866L446.8,122.605L445.895,122.029L445.781,121.89L445.267,121.748L445.139,121.565L444.97,121.719L444.469,121.794L444.215,122.127L443.982,121.951L443.621,122.217L443.486,122.182L443.349,121.452L442.985,121.415L442.737,121.89L442.611,121.728L442.247,122.061L442.103,122.353L441.776,122.31L441.653,122.026L441.087,122.466L440.999,122.695L440.787,122.481L441.041,122.243L440.803,122.168L440.561,121.664L440.806,121.6L440.769,121.2L440.94,121.07L441.103,121.212L441.442,120.821L441.268,120.516L441.782,120.232L441.852,120.519L442.232,120.461L442.207,120.117L441.874,119.891L441.396,119.783L440.925,120.033L440.849,119.569L441.292,119.395L441.552,119.717L442.238,119.218L442.284,118.876L441.969,118.67L441.354,118.65L440.855,118.743L440.928,117.876L440.588,117.931L440.567,118.331L440.313,118.442L440.123,118.711L439.469,118.627L439.576,118.323L439.312,117.958L439.288,117.213L439.386,117.03L439.677,117.178L440.24,116.96L440.454,116.74L440.665,116.827L440.94,116.578L440.992,116.34L441.507,116.824L441.699,116.329L441.975,116.068L441.702,115.465L441.363,115.427L440.864,114.52L440.833,114.308L440.243,114.151L439.775,114.586L439.958,114.908L439.129,114.743L438.523,114.899L438.321,114.763L438.248,114.215L437.764,114.27L437.752,113.986L437.348,113.948L437.125,114.279L436.745,113.957L437.085,113.415L437.461,113.229L437.798,113.267L438.502,113.006L438.957,113.337L439.374,112.786L439.82,112.716L440.01,112.464L439.955,111.896L440.307,111.736L440.347,111.263L440.142,111.055L439.6,110.953L439.79,110.727L439.658,110.521L439.404,110.579L439.499,110.06L439.306,109.967L439.242,110.19L438.771,110.121L438.691,110.361L438.394,110.335L438.498,109.546L438.446,109.033L438.165,108.844L437.571,109.216L437.461,109.068L436.889,109.065L436.754,108.937L436.687,108.366L436.427,108.102L435.928,108.154L435.521,107.588L435.432,107.31L435.169,107.072L434.683,106.869L434.722,106.672L434.429,106.39L434.071,105.549L433.765,105.14L433.81,104.919L433.431,104.417L432.847,104.205L432.703,103.866L431.843,103.291L431.261,103.288L430.695,103.584L430.319,104.15L430.178,103.689L430.294,103.117L430.463,102.719L431.087,102.415L431.356,102.554L431.675,102.467L431.971,102.757L432.489,102.861L432.911,103.079L432.648,103.306L432.801,103.668L433.125,103.567L432.981,103.352L433.407,103.094L433.676,102.78L434.009,102.02L434.676,101.564L434.866,101.599L435.23,100.661L435.417,100.542L435.726,100.885L435.852,100.844L436.13,101.149L436.142,101.454L436.338,101.66L436.509,102.806L436.77,102.983L437.051,102.911L437.18,102.658L437.532,102.531L437.492,102.815L437.758,103.091L437.755,103.52L437.972,103.497L438.067,103.99L438.419,103.581L438.358,103.085L438.505,102.902L438.404,102.467L438.052,102.22L438.691,101.811L438.71,102.098L438.44,102.362L438.679,103.172L438.563,103.5L438.679,103.683L438.651,104.133L439.019,104.252L439.156,104.156L439.563,104.257L439.82,104.504L441.843,104.905L441.8,105.273L442.119,105.215L442.434,104.301L442.721,104.054L444.355,103.181L444.45,103.3L444.689,102.827L444.701,103.108L444.891,103.099L445.203,102.757L445.601,102.615L446.253,102.136L446.433,102.078L446.751,101.494L447.777,100.11L448.174,99.848L448.431,99.05L449.472,97.087L450.13,95.728L450.528,94.654L451.167,93.07L451.433,92.219L451.843,90.665L451.954,89.991L452.223,88.817L452.419,87.518L452.562,86.288L452.67,84.431L452.667,83.215L452.618,82.131L452.397,80.299L452.11,78.71L451.602,76.985L451.348,76.872L451.262,76.15L450.876,75.589L450.757,75.278L450.469,75.304L450.295,74.963L449.337,74.844L449.138,74.995L448.998,74.506L449.178,74.07L448.737,72.973L448.086,71.75L447.495,70.915L447.22,70.688L447.134,70.33L446.825,69.896L446.534,69.748L446.029,69.756L446.017,69.596L445.24,69.678L445.102,69.567L445.527,69.34L445.619,68.673L445.399,68.63L445.273,69.093L445.276,68.679L444.922,68.603L444.94,68.417L445.362,68.368L445.304,67.975L444.337,68.298L444.817,68.021L444.539,67.925L444.319,67.48L444.343,67.258L444.153,66.871L443.756,66.623L443.269,66.615L442.825,66.294L442.828,66.085L442.47,66.067L441.956,65.126L441.503,64.867L441.087,64.384L440.72,64.302L440.668,64.055L440.224,63.982L439.257,64.186L439.031,64.707L438.437,65.103L438.006,64.794L437.997,64.497L438.235,64.2L438.287,63.932L438.018,63.402L437.88,62.187L437.458,61.844L437.449,61.316L437.045,61.089L436.782,61.211L436.858,60.929L436.613,60.64L436.467,60.247L436.066,59.495L436.2,59.443L436.681,58.901L436.669,58.574L436.858,58.029L436.733,57.604L436.892,57.248L436.739,57.178L437.134,56.735L437.418,56.794L437.859,55.835L438.153,54.68L438.446,54.435L438.587,53.858L438.912,53.814L439.263,52.695L438.994,52.534L438.985,52.246L438.593,52.106L438.664,51.907L439.071,52.053L439.242,51.499L439.028,51.426L438.991,51.199L439.563,51.379L439.493,50.764L440.047,50.866L440.289,50.65L440.625,50.023L440.922,49.233L441.081,48.632L440.965,48.626L441.06,47.952L441.207,48.049L441.473,47.812L441.705,46.663L441.77,46.062L441.323,45.408L441.381,45.143L441.323,43.503L441.096,43.199L440.968,42.175L441.011,41.635L440.876,41.375L440.956,41.174L440.641,40.015L440.264,38.923L439.876,38.654L439.765,38.38L439.398,38.275L439.156,37.822L439.655,37.629L439.413,37.253L439.233,37.32L438.942,36.934L438.942,36.777L438.551,36.908L438.551,37.2L438.26,36.908L438.049,36.432L438.107,36.175L437.77,36.379L437.648,36.666L437.146,36.879L436.874,36.455L437.216,36.488L437.357,36.642L437.626,36.59L437.727,36.268L437.642,35.938L437.434,35.822L437.259,35.299L437.489,34.782L437.311,34.227L437.342,33.888L437.59,34.031L437.853,33.771L438.067,33.906L438.431,33.584L438.523,33.838L438.789,32.866L438.765,32.559L438.498,32.562L438.492,32.249L438.324,32.106L438.765,32.094L438.881,31.913L438.829,31.592L439.625,31.341L439.778,30.94L439.915,30.23L439.86,29.596L439.75,29.474L440.126,28.921L440.123,28.635L439.836,27.659L439.499,26.989L439.3,26.738L439.034,26.761ZM435.897,32.328L436.179,32.723L436.577,32.728L436.641,32.866L436.43,33.158L435.974,33.181L436.005,32.72L435.699,32.401ZM435.616,31.417L435.738,31.799L435.539,31.937ZM445.803,18.176L446.103,18.439L445.833,18.527L445.42,18.469L445.534,18.217ZM486.428,118.969L486.856,119.291L486.82,119.525L486.489,119.85L486.079,119.818L485.926,119.578L485.972,119.227ZM504.182,178.157L504.55,178.566L504.384,179.157L504.568,179.278L504.504,179.849L504.697,179.71L504.611,180.059L504.914,180.16L505.113,180.638L505.024,180.748L505.214,181.036L504.954,181.483L505.064,181.529L504.898,182.07L504.501,182.647L504.112,182.794L503.925,182.615L503.702,182.822L502.9,182.572L502.573,182.684L502.099,182.523L502.334,181.929L502.362,181.413L502.747,180.37L502.579,179.906L502.778,179.903L503.062,179.434L503.417,179.154L503.476,178.854L503.659,178.831L503.757,178.422ZM338.132,483.294L338.19,483.656L337.853,484.072L337.93,484.47L338.15,484.681L338.279,485.043L338.759,485.554L338.459,485.68L338.068,485.548L337.523,485.781L337.446,486.328L337.737,486.48L337.89,486.808L337.771,487.1L337.59,487.114L337.312,487.745L337.275,488.267L337.443,488.59L337.03,488.755L336.902,488.994L336.544,489.039L336.198,488.935L335.968,489.417L335.721,489.443L335.638,489.134L335.323,488.528L335.427,488.155L335.363,487.902L335.629,487.599L335.418,487.243L335.837,486.954L335.92,486.651L335.803,486.129L336.008,485.974L335.965,485.688L335.724,485.433L336.32,485.363L336.703,484.956L336.721,484.63L336.587,484.54L336.779,484.31L337.079,484.313L337.306,484.094L337.465,483.44ZM383.739,445.659L383.216,445.437L382.545,445.8L382.374,445.752L381.949,446.014L381.875,446.191L381.468,446.22L381.291,447.112L380.881,447.703L380.413,447.906L380.03,448.393L379.895,448.844L379.73,448.976L379.577,449.986L379.265,450.136L378.711,450.178L378.463,450.828L377.864,451.534L377.793,452.038L377.386,452.339L377.343,452.567L377.04,452.826L376.851,453.167L376.878,453.485L376.554,453.78L376.064,453.864L375.875,453.608L375.627,453.876L375.357,453.893L375.204,454.104L374.929,453.997L374.253,453.974L373.723,454.368L373.628,454.759L373.861,455.271L374.06,455.252L374.458,455.685L374.724,455.71L374.813,456.16L374.118,456.731L373.705,456.717L373.436,456.959L372.958,456.872L372.64,457.221L372.233,457.373L371.909,457.285L371.281,457.499L371.125,457.631L370.403,457.643L370.048,457.913L369.702,457.924L369.497,458.433L369.305,458.382L368.98,458.667L368.472,458.664L368.194,458.298L367.827,458.014L367.325,458.337L367.212,457.896L366.517,457.786L366.012,458.217L365.978,458.371L366.217,458.804L365.948,459.527L365.991,460.233L366.174,460.264L366.459,461.023L366.312,461.42L365.795,461.442L365.737,461.645L365.366,461.785L364.956,462.516L364.803,462.95L365.066,463.203L364.871,463.248L364.764,463.532L364.289,463.627L363.867,463.228L363.487,463.34L363.319,463.166L362.689,463.101L362.41,463.169L361.694,463.099L361.312,462.997L361.382,463.363L361.731,463.458L362.297,463.891L362.649,463.939L362.863,463.725L363.151,463.998L363.414,464.501L363.677,464.291L363.989,464.442L364.161,464.724L364.448,464.718L364.47,465.041L364.886,465.328L365.366,465.401L365.278,465.744L365.51,465.623L365.473,465.395L365.654,465.3L365.617,464.946L366.052,464.996L366.287,465.404L366.691,465.584L367.331,466.064L367.401,466.241L367.683,466.32L367.573,466.466L367.72,466.725L367.903,466.697L368.123,467.444L367.992,467.63L367.79,467.54L367.45,467.664L367.429,467.315L367.062,467.158L367.019,467.366L366.832,467.189L366.511,467.332L366.459,467.574L366.052,467.712L365.905,468.142L365.694,468.116L365.795,468.661L365.602,468.729L365.418,469.179L365.18,468.782L364.987,468.734L364.598,468.999L364.574,469.204L364.204,468.768L363.781,468.813L363.469,469.429L362.934,469.561L362.481,469.889L362.432,470.1L361.954,469.724L361.841,469.828L361.593,469.493L361.168,469.353L360.893,469.583L360.792,470.126L360.911,470.319L361.223,470.376L361.462,470.64L361.318,470.862L361.3,471.862L360.908,472.115L361.101,472.334L361.018,473.379L360.66,473.497L360.715,473.772L360.513,473.727L360.455,473.418L360.195,473.233L359.249,472.842L358.934,472.991L358.922,472.57L358.377,472.503L358.132,472.688L357.499,472.488L356.789,472.677L356.97,472.519L356.933,472.163L356.789,472.014L356.284,472.022L356.345,471.901L355.697,471.542L354.904,472.025L354.439,471.972L354.341,472.32L354.953,472.859L355.293,472.946L355.565,473.298L356.085,473.511L356.146,473.904L356.345,474.253L356.942,474.362L357.107,474.166L357.113,474.581L357.523,475.289L357.658,475.974L357.927,475.837L357.701,476.306L357.961,476.623L358.414,476.932L358.31,477.744L358.61,478.367L358.383,478.814L358.288,478.578L357.903,478.387L357.621,478.589L357.257,478.53L357.502,478.008L357.392,477.845L356.97,477.727L356.801,477.567L356.988,477.238L356.639,476.825L357.015,476.775L357.343,476.443L356.645,476.283L356.654,475.927L356.162,475.747L355.525,476.443L355.311,476.233L355.339,475.944L355.173,475.508L354.776,475.497L354.433,475.716L354.424,476.208L354.518,476.365L353.955,476.559L353.854,476.14L353.542,475.854L353.028,476.017L352.973,476.23L352.78,476.115L352.823,475.803L352.41,475.272L352.465,475.202L352.058,474.901L351.526,474.798L351.618,474.59L351.308,474.699L350.902,474.222L350.644,474.205L350.268,474.399L350.256,474.048L349.895,473.89L349.886,473.511L350.244,473.581L350.442,473.168L350.198,472.994L349.583,472.803L349.405,472.842L349.463,472.522L349.206,472.528L349.451,472.101L349.91,472.427L350.081,472.154L350.387,472.224L350.446,471.831L350.179,471.677L349.95,471.733L349.671,471.432L349.947,471.426L350.149,471.086L349.928,470.623L349.472,470.929L349.032,471.112L349.004,470.252L349.206,470.432L349.469,470.283L349.73,469.912L349.368,469.69L349.185,469.946L349.206,469.398L349.038,469.257L349.05,468.926L348.839,468.931L348.772,469.313L348.931,469.665L348.677,469.859L348.707,470.05L348.184,470.154L348.221,470.662L347.578,470.693L347.382,470.516L347.061,470.533L347.003,470.182L347.355,469.76L347.193,469.392L347.606,468.954L347.759,469.06L348.013,468.704L347.933,468.158L348.019,467.827L348.261,467.664L348.738,467.72L348.934,467.377L349.173,467.186L349.476,467.321L349.598,467.116L349.35,466.955L349.371,466.7L349.745,466.846L350.201,466.506L350.115,466.056L349.941,466.309L349.622,466.112L349.463,466.227L348.753,466.261L348.616,466.649L348.46,466.562L348.065,466.851L347.89,466.792L347.444,467.012L346.908,466.891L346.991,466.621L347.658,466.523L347.603,466.14L348.013,466.104L348.356,465.854L348.178,465.702L348.453,465.589L348.365,465.007L348.053,465.109L347.933,465.319L347.572,465.494L347.376,465.052L347.101,465.87L346.957,465.052L346.718,465.232L346.752,465.491L346.532,465.581L346.52,465.12L346.22,464.895L346.057,465.072L345.947,465.519L346.174,465.929L346.005,466.286L346.177,466.483L345.904,466.846L345.641,466.882L345.699,467.281L346.051,467.281L346.192,467.484L346.446,467.509L346.464,468.071L345.926,468.234L345.341,468.156L345.011,467.638L344.968,466.764L344.781,466.545L343.958,466.303L343.778,466.517L343.27,466.163L342.991,466.16L342.719,465.435L342.499,465.367L342.217,465.595L342.226,465.921L342.079,466.301L342.122,466.503L341.715,466.43L341.134,466.593L341.253,466.407L340.966,466.093L340.843,465.803L340.311,465.536L340.008,465.632L339.846,466.048L339.322,466.18L339.013,465.963L338.643,465.991L338.502,465.657L338.306,464.482L338.129,464.15L337.863,464.192L337.985,463.979L337.563,463.785L337.052,463.948L337.165,464.383L336.902,464.501L336.733,464.375L336.106,464.558L335.953,463.523L335.785,463.397L335.399,463.475L335.262,463.332L335.387,463.034L335.069,462.8L334.748,462.826L334.454,462.651L334.497,462.351L335.014,462.351L335.347,462.154L336.681,462.348L336.908,462.457L337.486,462.367L337.679,461.622L338.413,461.198L338.622,460.942L339.102,460.846L339.169,461.386L339.451,461.634L339.723,461.659L340.032,461.499L340.384,461.735L340.779,461.687L340.99,462.002L341.045,462.379L341.287,462.578L342.021,462.747L342.382,462.081L342.199,461.611L342.312,461.341L342.19,461.184L342.202,460.737L342.655,460.99L343.184,460.714L343.459,460.41L343.934,460.469L344.387,460.838L344.365,461.541L344.653,461.392L344.687,461.212L345.066,461.116L345.299,461.279L345.556,461.724L345.25,461.951L345.436,462.696L345.862,462.747L345.953,462.587L345.69,462.266L345.758,462.109L346.015,462.173L345.923,461.923L346.177,461.743L346.275,461.33L346.587,461.347L346.829,461.724L347.04,461.771L347.122,461.243L347.765,461.181L347.731,461.42L347.89,461.693L348.114,461.783L348.377,461.051L348.261,460.469L348.561,460.461L348.573,460.101L349.212,460.118L349.58,459.96L350.244,460.478L350.36,459.91L350.048,459.668L350.032,459.167L349.638,459.294L349.524,459.198L349.218,459.353L348.561,459.246L348.043,459.387L347.75,459.15L347.496,458.734L347.156,458.951L347.04,459.319L347.355,459.828L347.214,460.365L346.829,460.258L346.706,460.54L346.388,460.301L345.782,460.264L345.629,459.828L345.191,459.662L345.011,459.699L345.155,459.204L344.656,459.139L344.276,459.477L344.032,458.931L343.879,458.945L343.478,458.557L343.753,458.096L343.518,457.885L343.16,458.233L342.514,457.688L342.193,457.333L341.905,456.757L341.994,456.683L342.52,457.089L342.988,456.63L343.098,456.751L343.254,456.456L343.628,456.321L343.897,456.579L344.24,456.591L344.549,456.447L344.882,455.862L345.525,455.93L346.109,455.502L346.467,455.463L346.758,454.973L346.636,454.787L347.153,454.776L347.26,454.36L347.505,454.492L348.074,454.424L348.291,454.562L348.683,454.343L349.023,454.362L349.258,454.132L349.274,453.873L349.57,453.923L349.445,454.208L350.036,454.41L350.455,454.236L350.773,454.255L351.302,453.954L351.293,453.659L351.486,453.788L352.028,453.442L351.81,453.107L351.82,452.556L352.135,452.393L351.979,452.12L351.722,452.032L351.832,451.827L352.269,452.094L353.301,451.85L353.405,451.36L353.588,450.94L354.216,450.49L354.347,450.29L354.231,450.017L354.552,449.784L354.834,449.823L355.176,449.682L355.583,449.95L355.804,450.203L355.697,450.462L355.908,450.684L356.299,450.721L356.422,451.002L357.276,451.335L357.594,451.228L357.875,450.907L358.212,450.296L358.2,449.958L358.454,450.065L358.803,449.846L358.876,449.632L359.087,449.643L359.338,449.198L359.77,449.449L360.164,449.854L360.403,450.476L360.296,450.769L360.541,450.895L360.412,451.039L360.639,451.191L361.101,450.758L361.052,450.282L361.244,450.206L361.575,450.321L361.404,449.953L361.052,449.843L361.186,449.24L361.061,449.184L360.984,448.742L360.498,448.461L360.284,448.092L360.033,447.982L360.103,447.777L361.036,448.21L361.538,448.067L361.734,447.703L362.019,447.681L362.205,447.881L362.649,447.793L362.759,447.534L363.062,447.442L363.383,447.563L363.696,448.193L364.179,448.317L364.32,448.109L364.439,448.289L364.846,448.143L365.079,448.494L365.473,448.241L365.25,447.805L365.219,447.543L365.746,446.977L365.954,446.318L365.871,446.183L366.082,445.014L366.835,444.786L367.444,445.099L367.554,445.406L367.205,445.868L367.239,446.023L368.252,446.234L368.561,446.18L368.613,445.873L369.017,445.524L369.21,445.009L369.424,444.798L369.571,445.178L369.785,445.366L369.932,445.907L370.091,445.918L370.064,446.974L369.947,447.656L370.067,448.157L369.938,448.295L370.373,448.196L370.516,447.633L370.74,447.574L370.853,447.208L370.725,447.146L370.948,446.687L371.119,446.755L371.269,446.273L371.664,446.405L372.025,446.338L372.126,446.051L372.606,446.225L372.662,446.059L371.927,445.538L371.569,445.431L371.499,445.062L371.728,444.375L371.835,443.55L372.022,443.297L372.233,443.384L372.245,442.838L372.001,442.731L372.022,442.311L372.27,441.793L372.23,441.621L372.53,441.477L372.515,441.212L372.897,440.917L372.931,441.165L373.304,441.108L373.497,440.835L373.668,440.858L373.95,440.519L373.803,440.218L374.351,440.032L374.516,439.494L374.755,439.255L374.911,439.294L375.728,440.057L375.905,440.531L376.156,440.886L376.6,440.722L376.435,440.272L376.484,439.824L376.63,439.66L376.912,439.939L377.282,439.835L377.585,439.125L377.903,438.804L378.439,438.629L378.873,438.795L379.109,438.756L379.36,438.274L379.782,437.863L380.299,437.919L381.077,437.761L381.572,437.753L381.725,437.604L382.187,437.677L382.454,437.513L382.444,437.787L382.126,438.125L382.38,438.663L381.759,438.897L381.404,439.457L381.184,440.004L380.884,440.156L380.746,440.503L380.749,441.122L380.988,441.821L380.893,442.26L379.908,442.252L379.935,442.784L380.045,442.978L379.721,443.071L379.51,443.342L379.706,443.812L379.335,444.327L379.235,444.719L379.638,444.846L379.923,444.66L379.85,444.412L379.531,444.387L379.932,444.116L380.116,444.55L380.449,444.547L380.4,443.612L380.621,443.136L380.556,442.7L381.343,442.311L381.53,442.08L381.679,442.288L381.447,442.68L382.025,442.638L382.028,442.353L382.209,442.17L382.05,442.004L382.181,441.683L381.845,441.297L381.793,440.897L382.197,440.832L382.316,440.655L382.717,440.708L382.659,440.877L382.87,441.063L383.157,441.083L382.904,441.384L383.032,441.728L383.004,442.026L383.231,442.257L382.301,442.914L382.083,443.215L382.068,443.533L382.402,444.35L383.087,444.626L383.433,444.615L384.155,444.406L384.372,444.133L384.348,443.835L384.535,443.418L384.366,443.108L384.565,442.894L384.535,442.624L384.908,442.525L384.801,442.725L384.862,443.133L385.257,443.207L385.355,443.77L385.749,443.502L385.884,442.925L386.061,442.663L385.985,442.088L385.814,442.091L385.397,441.638L385.229,440.812L385.015,440.801L385.159,440.297L385.382,439.88L385.122,439.598L385.202,438.905L384.975,438.626L385.526,438.609L385.673,439.026L385.633,439.412L385.994,439.595L386.218,440.717L386.233,441.063L386.579,441.48L386.744,441.891L387.276,441.719L387.423,441.5L387.142,441.181L386.753,440.934L386.94,440.069L387.31,439.987L387.494,439.776L387.543,439.286L387.261,439.15L387.328,438.663L387.041,438.514L386.781,437.849L386.542,437.747L386.343,437.454L385.832,437.127L385.743,436.316L385.511,436.155L385.217,435.623L384.807,435.36L384.746,435.101L384.877,434.681L385.018,434.659L385.532,434.943L385.563,435.081L385.905,435.045L386.153,434.862L386.162,434.388L386.677,434.261L386.615,433.867L386.983,433.424L387.503,432.491L387.855,432.074L388.574,431.882L389.118,431.595L389.213,432.032L389.158,432.285L389.379,433.013L389.489,433.909L389.268,434.07L389.177,434.366L389.183,434.87L389.327,435.017L389.703,435.921L389.73,436.341L389.948,436.434L389.896,436.71L390.092,437.051L390.342,437.156L390.56,437.637L391.123,437.626L391.667,437.973L391.894,437.804L392.007,438.04L391.808,438.325L391.805,439.128L392.252,439.472L392.292,439.753L392.139,440.187L391.481,440.942L391.514,441.463L391.98,441.874L390.985,443.88L390.655,443.688L390.765,443.342L390.486,443.57L390.318,443.956L389.844,444.358L389.562,444.761L389.342,444.693L388.776,444.747L388.381,445.082L388.044,445.003L387.469,445.062L387.056,445.274L386.826,445.659L386.866,445.938L386.689,446.065L386.759,446.346L386.597,446.538L386.221,446.389L385.777,446.555L385.602,446.431L385.639,446.121L385.364,445.994L384.415,445.862ZM516.178,207.639L516.019,207.748L516.135,208.383L515.896,208.717L515.93,208.872L515.636,209.438L515.306,209.775L515.15,210.085L514.721,210.496L514.528,211.042L514.743,211.488L515.165,212.008L515.156,212.769L514.639,212.663L514.302,212.87L514.174,213.421L514.412,213.542L514.406,213.824L515.327,214.614L515.569,214.565L515.759,215.105L515.453,215.223L515.808,215.412L515.899,215.605L516.169,215.648L515.985,215.924L515.994,216.429L515.596,216.61L515.073,217.277L515.082,218.308L515.324,218.951L515.645,219.35L516.138,219.738L516.107,219.999L515.765,220.042L515.147,220.482L514.773,220.935L514.556,221.845L514.571,222.233L514.874,223.005L514.137,223.338L514.079,223.155L513.418,222.876L512.766,222.862L512.344,222.776L510.664,223.31L509.541,223.78L508.852,224.119L507.998,224.664L507.643,224.957L507.031,225.681L506.799,226.412L506.683,226.453L505.97,226.183L505.7,226.335L505.529,226.257L505.364,225.899L505.373,225.635L505.208,225.293L504.693,224.877L504.531,224.59L504.467,224.154L504.17,223.41L504.332,222.42L504.779,221.644L504.785,221.268L504.981,220.797L504.859,220.545L505.039,219.856L504.999,218.359L504.718,217.314L504.47,216.966L504.29,216.174L503.8,215.254L503.84,214.97L503.558,214.496L503.742,214.111L503.632,213.255L503.359,212.643L503.344,212.35L503.531,212.232L504.488,212.45L504.788,212.666L505.354,212.717L505.829,212.272L505.887,211.789L506.223,210.996L506.686,210.588L506.618,210.125L507.108,209.858L507.175,209.709L508.05,209.208L508.613,208.389L509.446,206.912L509.975,206.132L510.967,204.301L512.099,202.061L512.8,200.464L513.412,198.822L513.62,197.912L513.353,197.44L513.369,196.897L513.225,196.448L513.384,195.32L513.308,195.17L513.197,194.355L513.32,193.967L513.286,193.175L512.992,192.908L512.937,192.266L512.686,192.047L512.546,191.517L512.64,190.892L512.784,190.651L512.833,190.026L513.057,189.657L512.796,189.427L512.402,189.565L512.304,189.24L512.454,188.848L512.757,188.54L513.008,188.12L513.461,187.607L513.797,187.483L513.861,187.282L514.177,187.166L513.981,186.93L514.079,186.737L514.486,186.579L514.844,185.839L515.18,185.401L515.716,184.499L515.679,184.168L515.893,183.595L515.951,183.206L516.138,182.776L516.469,182.626L516.778,182.684L516.851,183.041L517.387,182.964L517.595,182.575L517.445,182.327L517.631,182.125L517.426,182.007L516.961,182.243L516.992,181.932L517.656,181.828L517.178,181.483L517.344,180.926L517.503,181.053L517.592,180.811L517.83,180.797L518.075,180.578L518.565,179.756L518.479,179.382L518.904,178.405L519.103,178.188L518.966,177.615L519.057,177.266L518.959,176.937L518.497,176.254L518.485,175.966L518.822,175.868L519.259,175.508L519.501,174.833L519.786,174.605L520.6,173.651L521.157,172.737L521.258,172.757L521.456,171.765L521.429,171.442L521.71,171.217L521.928,171.352L521.903,171.594L522.212,171.713L522.475,171.416L522.628,171.055L522.986,170.66L523.094,170.328L523.553,169.997L523.761,169.656L523.868,169.901L524.324,170.233L524.321,170.894L524.507,171.133L524.281,171.309L524.535,171.496L524.474,172.365L524.813,172.463L524.636,172.731L524.795,172.936L525.116,172.754L525.355,172.806L525.343,173.362L525.19,174.187L525.251,174.519L525.661,174.83L526.053,174.818L526.346,175.519L526.313,176.044L526.429,176.217L526.215,176.837L525.499,177.329L525.52,177.543L525.272,177.866L525.312,178.612L525.508,178.699L525.514,179.042L525.376,179.168L525.309,180.004L525.337,181.416L525.48,181.814L525.392,182.459L525.508,183.157L525.386,183.667L525.597,184.182L525.539,184.744L525.823,185.216L525.811,185.962L525.897,186.181L525.664,186.302L525.502,186.613L525.028,186.464L524.596,186.878L524.697,187.256L524.308,187.627L524.48,187.938L524.468,188.514L523.871,188.888L523.485,189.634L523.467,190.049L523.243,190.677L523.219,191.247L523.115,191.794L523.516,191.745L523.956,192.332L523.641,193.135L523.641,193.512L523.421,193.817L523.464,194.632L523.415,194.827L523.556,195.196L523.785,195.423L523.47,195.535L523.268,195.751L523.341,196.091L523.592,196.301L523.644,196.594L523.363,197.084L523.13,197.294L522.913,197.731L522.13,198.007L521.885,198.309L521.548,198.416L521.38,198.988L521.661,200.01L521.404,200.28L521.582,200.424L521.395,200.553L521.325,200.876L521.567,201.06L521.092,201.157L520.903,201.488L520.948,201.776L521.129,201.848L520.936,202.268L520.811,202.035L520.535,202.095L520.401,202.365L519.694,202.78L519.547,203.05L518.981,202.78L518.745,202.748L518.155,203.079L517.809,203.97L517.8,204.695L517.726,205.08L517.172,205.336L516.735,205.793L516.398,206.325L516.141,206.868ZM488.313,90.04L488.178,90.337L488.126,90.037ZM404.345,55.435L404.492,55.496L404.238,55.893L404.299,56.17L404.094,56.211L403.996,56.537L403.755,56.377L403.825,56.132L403.577,55.948L403.788,55.762L404.033,55.782L404.361,55.578ZM436.356,109.32L436.317,109.697L436.081,109.741L436.011,110.17L436.078,110.57L435.616,110.927L435.763,110.622L435.527,110.666L435.414,110.309L435.689,109.845ZM386.208,76.342L386.138,75.615L386.006,75.504L386.049,75.129L386.395,75.048L386.811,74.815L387.062,74.818L387.23,75.109L387.953,75.027L388.369,74.821L388.225,74.591L387.806,74.338L388.139,74.102L388.308,73.846L388.644,73.057L388.525,72.725L388.935,72.073L389.1,71.64L389.455,71.366L389.437,71.04L389.259,70.705L389.229,70.144L389.577,70.013L389.752,69.736L390.168,69.829L390.339,69.553L390.141,68.927L389.813,68.624L390.407,68.266L390.63,68.336L390.798,68.088L390.661,67.849L390.933,67.861L391.784,67.305L392.151,67.223L392.454,67.331L392.904,67.098L393.185,67.11L393.482,66.88L393.95,66.833L394.256,66.35L394.908,66.082L395.034,66.425L395.425,66.312L395.56,66.489L395.838,66.12L396.248,66.195L396.417,65.817L396.616,65.744L396.527,65.488L396.726,65.412L396.961,65.677L397.378,65.828L397.619,65.691L397.583,65.164L397.882,65.054L398.06,64.521L397.974,64.203L397.436,64.06L397.589,63.688L398.143,63.798L398.537,63.481L398.436,63.14L398.8,62.837L398.892,62.397L398.816,62.24L398.075,61.768L398.302,61.45L398.623,61.369L398.654,61.118L398.473,60.94L398.598,60.611L398.213,60.232L398.192,59.976L398.559,59.924L398.886,60.262L398.917,60.64L399.498,60.739L400.162,60.6L400.205,60.818L399.636,60.949L399.29,61.593L399.63,61.771L399.679,62.08L399.617,62.662L399.927,62.773L400.147,63.07L399.798,63.405L399.302,63.356L398.957,63.743L398.852,64.017L398.935,64.384L398.534,64.928L398.21,64.995L397.8,65.438L397.788,65.706L397.956,66L397.944,66.367L397.576,66.781L397.693,66.996L397.365,67.561L397.42,67.736L397.139,68.694L396.876,69.011L395.915,69.323L395.768,69.226L395.704,68.525L395.26,68.4L394.859,68.49L394.801,68.74L394.278,69.509L394.235,69.727L394.002,69.803L393.858,70.097L393.972,70.726L394.409,70.825L394.529,71.148L394.314,72.047L393.923,71.989L393.779,72.21L393.889,72.405L393.66,72.484L393.488,72.816L392.913,73.273L392.579,74.029L392.628,74.681L392.751,75.033L393.145,75.115L393.877,75.519L393.834,75.731L392.705,76.482L392.91,76.942L392.481,77.154L392.402,77.343L392.056,77.416L392.105,77.655L391.876,78.082L391.264,78.201L391.355,78.388L391.658,78.312L391.548,78.582L391.747,78.827L391.426,79.557L391.248,79.333L391.095,78.708L391.19,78.149L390.86,77.762L390.232,77.82L389.942,78.047L389.822,78.3L390.04,78.609L390.061,79.132L389.798,79.423L389.207,79.394L389.057,79.51L388.809,79.391L388.598,79.531L388.513,79.252L388.598,78.649L388.176,78.193L387.732,78.254L387.708,78.041L387.341,77.78L386.637,78.12L386.842,77.78L386.778,77.32L386.374,76.517ZM402.54,61.884L402.252,61.782L402.185,61.412L401.637,61.31L401.732,60.71L401.395,60.509L401.558,60.157L401.49,59.722L401.343,59.478L401.301,59.189L401.074,58.971L401.392,59.026L401.824,58.697L402.004,58.073L402.02,57.254L402.439,57.301L402.674,57.056L403.234,56.965L403.865,56.691L403.926,56.948L404.208,57.219L404.195,57.411L403.892,57.866L403.666,57.913L403.519,58.277L403.589,58.446L404.275,58.825L404.247,58.484L404.471,58.74L404.342,59.151L404.091,59.297L403.507,59.18L403.231,59.349L403.158,59.577L402.375,60.241L402.537,60.602L403.182,60.85L402.932,61.124L402.886,61.747ZM414.909,52.765L414.872,53.097L414.499,53.009ZM417.17,51.551L417.439,51.674L417.314,51.861ZM415.618,51.085L416.084,51.274L415.814,51.388L415.462,51.237ZM402.209,53.992L402.035,53.846L402.173,53.628L402.093,53.31L401.732,53.077L401.919,52.82L401.643,51.732L402.191,51.557L402.451,51.359L402.944,50.604L403.381,49.495L403.666,49.326L403.947,49.452L405.181,49.28L406.123,49.901L407.219,51.015L407.999,52.257L408.492,52.584L409.067,52.569L409.394,52.75L409.572,53.021L409.664,53.424L410.389,53.791L410.869,53.925L411.518,53.438L411.653,52.864L410.667,52.397L410.582,51.992L410.891,51.674L410.787,51.327L410.548,51.336L410.254,51.064L410.554,50.793L410.845,50.822L411.337,51.111L411.879,51.102L412.571,50.898L412.812,51.184L413.48,50.706L413.74,50.901L412.935,51.184L412.91,51.368L412.353,51.181L412.17,51.4L412.167,51.767L412.702,52.044L412.577,52.391L412.745,52.625L412.693,52.855L412.886,53.056L412.023,53.38L411.796,53.54L411.744,53.867L411.925,53.91L411.76,54.179L411.855,54.336L412.687,54.389L412.892,54.616L412.739,55.275L412.834,55.829L412.751,56.12L412.311,56.636L412.075,56.68L411.696,56.948L411.408,56.657L411.39,56.409L411.096,56.321L410.597,56.575L410.542,56.269L410.3,55.995L410.043,56.199L410.178,56.552L409.985,56.759L409.985,57.003L409.658,57.385L409.41,57.35L408.718,57.642L408.18,57.662L407.265,58.426L407.209,58.749L406.974,58.697L407.261,57.831L406.98,57.417L407.219,56.977L407.209,56.549L406.934,56.336L406.619,56.397L406.414,56.654L406.148,56.642L405.585,56.307L405.989,55.875L406.086,55.263L406.291,55.109L406.111,54.75L405.615,54.581L405.009,55.114L404.443,55.426L404.685,55.085L404.786,54.584L404.774,53.957L404.275,53.563L404.382,53.412L404.018,53.071L404.14,52.715L404.419,52.96L404.865,52.87L405.324,52.948L405.367,52.765L405.802,52.867L405.753,52.552L406.034,52.476L406.374,51.945L405.132,52.625L404.608,52.295L404.192,52.257L404.149,51.96L404.376,51.639L404.198,51.28L404.214,50.913L403.804,51.347L403.862,51.516L403.663,51.864L403.739,52.313L403.262,52.776L403.418,52.963L403.253,53.45L403.403,53.811L403.375,54.144L403.531,54.391L403.433,54.558L403.158,54.508L402.604,53.832ZM489.892,70.26L490.223,70.379L490.011,70.592ZM490.495,70.315L490.357,70.164L490.489,69.867ZM490.755,69.104L490.966,69.264L490.51,69.817L490.571,69.165ZM437.443,65.732L437.241,66.082L437.18,65.857ZM363.05,170.628L363.139,170.85L362.912,170.81ZM363.188,169.682L363.405,169.821L363.194,169.913ZM363.925,168.592L364.066,168.846L363.662,169.203L363.255,169.379L363.42,168.921L363.901,168.73ZM365.076,167.908L364.938,168.283L364.868,168.133ZM367.046,166.993L367.322,167.115L367.19,167.438L366.575,167.325ZM365.167,128.265L365.737,128.32L365.853,128.505L365.633,129.125L365.434,129.133L365.226,129.397L365.143,129.837L365.265,130.063L365.657,130.251L365.302,130.346L365.216,130.899L365.161,130.694L364.715,130.503L364.366,130.676L364.008,131.041L363.83,130.72L364.054,130.679L364.363,130.245L364.197,129.875L364.687,129.921L364.92,129.643L364.965,128.847ZM367.686,126.915L367.961,127.272L368.136,128.184L368.087,128.714L367.787,128.595L367.842,128.242L367.325,127.691L367.784,127.402ZM529.667,101.253L529.862,101.544L529.816,101.976L529.963,102.156L529.688,102.159L529.452,101.727L529.645,101.637ZM529.201,98.481L528.816,98.516L526.836,101.103L526.821,101.091L528.801,98.498ZM453.263,173.688L453.447,173.76L453.147,173.916L452.985,173.832ZM449.582,173.267L449.766,173.665L450.105,173.855L450.564,173.922L451.072,174.423L451.378,175.104L451.118,176.015L450.604,176.407L450.105,176.433L449.726,176.263L449.279,176.468L448.939,176.395L448.514,176.47L448.076,176.666L447.66,176.603L447.379,176.724L447.22,176.407L446.865,176.479L447.018,176.998L447.21,177.292L446.917,177.278L446.886,176.9L446.696,176.508L446.442,176.661L445.959,176.566L445.821,176.635L445.466,176.295L445.944,175.632L445.778,175.536L445.84,175.107L446.268,175.003L446.455,175.245L446.776,175.213L447.106,175.038L447.269,174.749L448.367,173.942L448.48,173.772L448.89,173.671ZM461.819,171.972L461.736,172.2L461.899,172.411L462.156,172.451L462.832,172.967L463.465,172.982L463.621,173.103L463.462,174.049L463.245,174.219L462.385,173.731L461.893,173.74L461.287,173.512L461.017,173.489L460.225,173.054L459.894,173.256L458.885,173.423L458.722,173.339L458.885,172.979L459.588,173.123L459.852,172.835L459.784,172.376L460.084,172.122L460.552,172.206L460.586,172.405L461.161,172.517L461.651,171.99ZM413.681,168.326L413.758,168.762L414.015,169.082L414.927,169.388L415.071,169.774L415.346,170.048L416.099,170.161L416.209,170.692L416.068,171L415.545,171.569L415.135,171.906L415.046,172.125L413.853,172.581L413.577,172.809L412.956,172.803L412.785,172.878L411.913,172.333L411.521,172.238L411.347,171.972L411.2,172.088L410.97,171.941L411.233,171.753L410.83,171.491L410.97,170.98L410.658,170.634L410.3,170.643L410.27,169.829L411.356,169.72L411.937,169.105L412.277,168.577L413.259,168.557ZM320.573,400.555L321.014,400.677L321.387,401.098L321.482,401.437L321.311,402.067L320.628,402.24L319.839,401.737L319.631,401.7L319.496,402.036L318.985,402.096L318.413,401.154L318.89,401.143L319.622,401.559L319.833,401.177ZM321.4,397.248L321.522,398.065L321.727,398.113L321.231,398.249L321.011,398.036L320.913,397.417ZM340.969,360.919L341.22,361.058L341.235,361.248L341.504,361.311L341.783,361.169L341.963,360.914L342.673,360.97L343.043,361.404L343.031,361.974L342.854,362.198L342.557,362.309L342.673,362.459L342.774,363.032L342.688,363.557L343.034,364.251L342.823,364.563L342.125,364.041L341.954,363.778L341.167,363.423L340.877,363.211L340.323,362.57L339.53,361.555L339.781,361.277L340.375,360.976ZM353.359,353.035L353.447,353.214L353.735,353.154L353.802,353.495L353.506,354.142L353.35,354.261L352.765,353.971L352.575,353.509L352.995,353.146ZM355.13,352.814L355.479,352.882L355.492,353.236L355.002,353.475L354.947,352.91ZM379.798,324.977L380.134,325.14L380.364,325.057L380.382,325.268L381.205,325.532L381.386,326.357L381.563,326.79L382.105,327.472L382.246,328.084L382.028,328.365L381.514,328.584L380.862,328.505L380.74,328.596L380.217,328.618L379.638,328.459L379.862,327.6L379.703,327.25L379.311,327.174L378.861,326.841L378.678,326.57L378.855,326.499L378.944,326.138L379.167,325.763L379.648,325.324ZM394.064,302.91L394.354,303.209L394.293,303.791L393.996,304.364L393.865,305.45L394.082,305.817L393.984,306.478L393.773,307.037L393.513,307.345L393.396,307.712L393.491,307.863L392.827,308.308L392.439,308.459L392.237,308.778L391.943,308.877L391.903,309.108L391.291,309.595L391.199,309.92L391.346,310.347L390.707,310.823L390.355,310.704L389.896,310.684L389.73,310.111L389.856,309.903L389.29,309.165L389.066,308.37L389.057,307.761L388.84,307.672L389.149,307.325L388.987,306.729L388.543,306.37L388.598,306.082L388.99,305.715L388.999,305.555L388.574,305.333L388.571,304.968L389.011,304.609L389.314,304.66L389.467,304.501L389.397,304.261L390.076,304.406L390.489,303.768L390.749,303.566L391.71,303.255L391.943,303.281L392.218,303.098L392.497,303.132L392.925,303.389L393.139,303.115L393.822,302.867ZM373.803,300.065L374.268,300.353L374.149,300.769L374.204,301.188L374.326,301.234L374.182,301.83L374.032,301.992L373.968,302.403L373.668,302.132L373.625,301.918L372.992,301.587L372.888,301.308L373.004,300.752L373.338,300.313L373.304,300.216ZM405.064,278.852L405.661,279.066L405.79,278.946L406.261,279.012L406.588,278.94L406.674,279.597L407.372,279.877L407.855,279.883L408.467,280.134L408.489,280.343L408.749,280.5L408.981,280.397L409.128,280.614L408.865,281.094L409.321,281.174L409.532,281.511L409.437,281.819L409.244,281.925L409.165,282.274L409.355,283.37L410.086,284.092L410.334,284.421L411.136,285.006L411.24,285.297L411.631,285.674L411.481,286.142L411.347,285.994L410.664,285.988L410.257,286.299L410.031,285.957L409.15,285.803L408.44,285.903L407.604,286.511L407.185,286.505L406.643,286.342L405.936,285.871L405.162,284.541L405.227,284.304L405.098,283.975L404.648,283.576L404.403,283.647L404.156,283.507L404.131,283.299L403.669,282.79L403.755,282.411L403.626,282.134L403.449,282.105L403.485,281.825L403.339,281.343L403.513,280.757L403.843,280.589L403.801,280.163L404.052,279.797L403.969,279.72L404.462,279.406L404.471,279.152L404.902,279.103ZM382.396,278.798L382.659,278.995L382.515,279.48L382.236,279.763L382.117,279.7L382.031,279.118ZM374.032,275.141L374.167,275.441L374.654,275.575L374.733,275.749L375.155,275.801L375.547,276.569L375.566,277.044L375.771,277.255L375.59,277.698L375.122,277.804L375.024,277.615L374.758,277.652L374.62,277.858L374.479,277.566L373.84,277.555L373.451,277.301L373.549,277.129L373.375,275.755L373.46,275.349L373.873,275.369ZM411.466,264.789L411.506,265.158L411.778,265.756L411.796,266.17L412.185,267.114L412.757,267.74L413.155,268.675L413.424,268.924L413.929,269.073L414.269,269.567L414.229,269.864L414.471,270.21L414.156,271.065L413.21,271.437L412.629,271.282L412.203,270.822L411.818,270.628L411.524,270.636L411.028,270.353L410.949,270.127L410.524,270.007L410.551,269.736L410.306,269.69L410.502,269.481L410.398,269.198L410.444,268.727L409.899,268.578L409.768,268.281L410.037,268.143L410.328,267.752L410.218,267.28L410.545,267.225L411.047,266.668L411.261,266.605L411.184,266.125L411.047,266.027L410.719,265.47L410.998,264.975ZM440.98,9.642L441.13,9.232L441.393,9.294ZM437.648,9.127L437.596,9.499L437.326,9.54L437.262,9.312ZM436.843,9.001L437.045,9.209L436.935,9.789L437.051,9.991L437.632,10.307L438.067,10.939L437.926,11.332L438.208,11.741L438.058,11.978L438.349,12.104L438.56,12.713L438.719,12.508L439.065,12.704L439.426,12.684L439.444,12.839L438.801,13.477L438.229,13.699L438.275,13.931L437.948,14.633L437.629,15.145L438.082,15.127L438.024,15.759L438.14,16.213L438.021,16.593L438.456,16.541L438.367,16.69L438.817,16.587L438.789,16.014L438.887,15.754L439.156,15.853L439.092,16.228L439.885,16.105L439.637,16.47L440.047,16.804L440.24,17.123L440.344,17.652L440.215,17.989L439.903,18.381L439.649,18.46L439.022,18.439L438.749,18.51L438.058,19.089L437.935,19.408L437.348,19.753L437.216,20.727L436.791,20.221L436.797,19.931L436.531,20.133L436.629,20.566L436.8,20.604L436.819,20.931L437.042,21.329L437.213,21.426L436.95,21.987L437.082,22.209L436.99,22.569L436.696,22.911L436.623,23.408L436.427,23.531L436.203,23.411L436.366,23.733L436.115,24.382L436.329,24.671L436.179,24.92L435.738,25.203L435.445,25.072L435.288,25.244L434.872,25.124L434.875,24.899L434.527,24.94L434.3,24.762L434.523,24.221L434.487,23.876L434.043,23.326L433.63,23.078L433.462,23.148L433.382,23.467L433.076,23.367L432.948,23.122L432.55,22.812L432.614,22.704L432.336,22.309L431.665,21.902L431.418,21.972L431.24,21.355L430.622,21.06L430.845,20.896L430.818,20.49L431.154,19.574L430.894,19.285L431.047,18.489L431.191,18.337L430.928,17.503L431.063,17.415L430.744,17.281L430.475,16.971L430.337,17.006L430.454,16.623L430.423,15.964L430.056,15.476L429.753,15.435L429.337,15.578L429.505,15.335L429.288,14.659L428.731,14.753L428.716,14.481L429.175,14.168L429.257,13.974L429.015,13.857L429.367,13.688L429.753,13.664L430.444,13.828L430.484,13.571L430.114,13.559L429.673,13.266L429.3,13.24L429.652,13.015L430.178,13.246L430.922,13.14L430.793,12.921L430.5,12.889L430.221,12.59L430.383,12.458L430.876,12.555L431.681,12.385L430.2,12.057L430.016,11.908L430.132,11.738L430.677,11.607L430.558,11.252L430.246,11.367L430.068,11.279L430.086,10.843L430.365,10.752L430.469,10.544L430.757,10.524L431.405,10.682L431.561,10.989L431.916,10.901L432.415,11.159L432.057,10.579L432.265,10.506L432.485,10.708L432.623,10.515L432.938,10.802L433.327,10.851L433.581,11.033L433.957,11.554L433.804,11.697L434.465,11.94L434.741,12.157L434.976,12.763L435.08,12.093L435.328,11.908L435.007,11.876L434.38,11.498L434.352,10.96L434.055,10.415L434.878,10.813L435.019,10.439L434.673,10.228L434.97,9.932L434.833,9.701L434.869,9.139L435.065,9.396L435.304,9.314L435.295,9.932L435.591,10.462L435.454,10.72L435.818,11.001L436.014,10.363L436.167,10.251L435.891,10.032L435.931,9.768L436.173,9.478L436.503,9.475ZM437.981,7.271L438.137,7.274L437.96,7.569L437.58,7.807L437.663,7.408ZM438.853,7.247L439.536,7.815L439.462,8.284L439.674,8.623L439.493,8.925L439.845,9.437L440.16,9.42L440.341,9.631L440.286,9.83L439.879,10.169L440.096,10.342L440.509,10.011L440.552,10.544L440.383,11.25L439.753,11.855L439.866,11.367L440.188,11.118L439.628,10.676L439.086,10.477L439.285,10.928L439.603,11.308L439.511,11.49L439.248,11.329L438.872,10.808L438.915,10.582L438.707,10.336L438.391,10.281L438.131,9.941L438.333,9.765L438.606,9.859L438.789,9.399L439.11,9.306L439.086,8.805L438.875,8.568L438.85,7.968L438.682,7.628ZM441.647,6.049L442.324,6.562L442.357,6.928L442.085,7.072L441.895,6.524L441.66,6.483ZM437.553,4.846L437.47,5.3L437.379,4.77ZM438.067,4.395L438.376,4.494L438.29,4.825L438.37,5.262L438.214,5.639L437.828,5.742L437.81,6.293L437.311,6.457L437.226,6.714L436.975,6.916L437.1,7.165L436.968,7.443L437.076,7.953L436.803,8.319L436.919,8.448L436.693,8.623L436.607,8.954L436.424,8.981L436.491,9.35L436.259,9.297L436.24,8.916L436.047,8.796L435.809,8.96L435.331,7.848L435.344,7.233L435.57,7.312L435.671,7.552L436.057,7.742L435.998,7.18L436.234,6.872L436.164,6.635L436.555,6.155L436.684,5.739L436.993,6.129L437.642,5.508L437.896,5.388L437.792,5.042L438.217,4.942L437.987,4.506ZM445.023,0.029L444.677,0.413L444.873,0.659L445.463,1.031L446.029,1.269L445.791,1.62L445.907,2.165L446.195,2.813L446.173,3.123L445.534,3.097L445.273,2.959L445.096,3.059L445.307,3.302L445.09,3.422L445.105,3.665L444.612,3.736L444.573,4.028L444.065,4.131L443.994,4.333L444.184,4.509L443.447,4.708L443.104,5.115L442.841,5.153L443.134,5.487L443.309,5.478L443.603,6.181L443.232,5.924L442.446,5.771L442.532,5.645L442.189,5.39L442.345,5.077L441.549,5.449L441.347,5.806L440.913,6.073L440.974,6.316L440.83,6.588L440.775,6.178L440.316,6.026L440.784,5.039L440.812,4.403L440.72,4.181L440.839,3.888L440.588,3.712L440.662,3.513L441.002,3.633L441.115,3.331L440.864,3.331L440.787,2.813L440.971,2.485L441.191,2.356L441.28,1.931L441.837,1.656L441.892,1.916L442.275,2.101L442.443,1.872L442.229,1.717L442.584,1.711L442.752,1.875L442.963,1.74L442.663,1.187L442.458,1.231L442.688,0.68L442.789,0.829L443.541,0.712L443.881,0.545L444.083,0.609L444.392,0.205L444.729,0.223L444.762,0ZM520.71,109.43L520.223,109.288L520.266,108.717L520.419,108.409L520.422,107.847L521.407,107.759L521.625,108.07L521.738,109.335ZM486.024,151.457L486.076,151.598L485.743,151.592ZM468.744,212.085L468.86,212.436L468.775,212.669L468.833,213.12L469.047,213.169L469.038,213.424L468.784,213.648L468.882,213.999L469.322,213.967L469.586,213.709L469.711,213.821L470.045,213.643L470.764,213.947L470.779,214.257L471.085,214.651L471.379,214.663L471.608,215.025L471.694,214.553L471.963,214.441L472.202,214.631L472.538,214.637L472.759,214.502L473.356,214.766L473.554,215.229L473.79,215.088L474.28,215.223L474.632,215.708L474.821,215.622L475.048,215.961L476.302,216.312L476.269,216.424L475.825,216.369L475.923,216.665L476.382,216.596L476.162,217.05L476.697,217.343L476.826,217.193L477.113,217.302L477.477,217.679L477.918,217.911L478.389,217.894L478.579,218.038L478.49,218.302L478.533,218.684L478.732,218.908L479.2,219.014L479.601,219.241L479.895,219.158L480.213,219.33L480.871,219.523L481.302,219.772L481.728,219.89L482.609,219.887L483.656,220.582L484.895,221.492L485.274,222.055L485.507,222.216L485.859,222.868L485.712,223.091L485.847,223.235L485.311,224.911L485.268,225.577L485.427,225.916L485.183,226.556L484.999,227.451L485.152,227.718L485.036,227.899L484.825,229.279L484.935,229.448L484.506,229.437L484.491,229.698L484.262,229.936L484.528,230.131L484.721,229.856L484.604,230.306L484.387,230.59L484.506,230.802L484.084,231.511L483.267,232.019L483.135,232.263L482.912,232.317L482.41,232.997L482.153,233.467L481.596,233.665L481.168,234.239L481.067,234.554L480.694,234.709L480.335,235.248L479.938,235.386L479.815,235.644L479.439,235.856L479.32,236.295L479.105,236.616L479.258,236.814L478.151,237.353L477.964,237.284L477.823,237.548L477.508,237.814L477.401,238.201L477.034,238.416L476.829,238.23L476.507,238.574L475.987,238.611L475.764,238.531L475.531,238.738L475.158,238.652L474.778,238.766L474.576,239.213L474.344,239.308L474.264,238.912L473.912,238.978L473.704,239.311L473.092,239.4L472.952,239.185L472.909,239.471L472.606,239.4L472.493,239.185L471.948,238.958L471.807,239.446L471.498,239.417L471.428,239.672L471.128,239.844L470.816,239.342L470.629,239.534L470.467,239.319L470.265,239.357L469.91,239.182L469.625,239.388L469.534,239.225L469.27,239.308L469.12,239.082L468.851,239.288L468.496,239.772L467.844,239.727L467.774,239.529L467.529,239.563L467.205,239.239L466.626,238.941L466.379,238.964L466.265,239.176L465.402,238.829L465.308,238.964L464.136,238.803L463.692,238.557L463.233,238.709L463.242,238.56L462.731,238.353L462.575,237.791L462.165,237.175L462.165,236.616L461.773,236.401L461.541,236.129L461.369,235.486L461.152,235.131L460.647,234.973L460.543,235.326L460.384,235.317L460.353,234.881L460.488,234.743L460.329,233.479L460.445,232.805L460.148,232.102L460.366,231.758L460.047,231.643L459.879,230.969L459.68,230.553L459.607,230.002L459.399,229.635L459.187,229.491L458.811,229.514L458.429,229.204L458.193,228.837L458.181,228.453L457.783,227.38L457.893,227.156L457.734,226.567L457.541,226.49L457.217,225.623L457.422,225.23L457.394,224.745L457.064,224.478L457.183,224.202L457.024,223.399L456.816,223.172L456.782,222.81L456.957,222.603L456.853,222.115L457.085,221.897L457.006,221.478L457.202,221.286L456.975,220.829L457.263,220.76L457.81,220.927L458.159,220.407L458.817,220.263L459.674,220.304L460.366,220.496L460.978,220.47L461.492,220.025L461.914,219.419L462.113,219.402L462.505,218.98L462.777,218.414L462.927,218.322L462.912,217.909L463.022,217.595L463.441,217.377L463.716,216.65L464.246,216.289L464.634,216.424L465.023,216.34L465.424,215.769L465.638,214.717L465.598,214.286L465.308,213.841L465.393,213.522L465.877,213.577L465.926,213.1L466.134,213.002L466.577,213.102L466.847,213.462L467.165,213.229L467.254,213.381L467.829,213.292L467.756,213.821L467.863,213.706L468.184,213.847L468.615,213.628L468.469,212.89L468.267,212.766L468.303,212.396ZM434.15,209.703L434.288,209.872L434.998,210.304L435.328,210.246L436.133,209.709L436.311,209.904L436.026,210.358L435.992,210.611L436.347,210.591L436.659,210.416L437.085,210.341L437.311,210.508L437.455,210.395L437.81,210.697L438.003,211.315L438.495,211.812L439.006,211.729L439.019,211.352L439.257,210.985L439.377,210.591L439.585,210.921L440.136,211.074L440.377,211.45L440.693,211.683L441.02,211.605L441.791,211.643L441.806,211.818L442.198,212.215L442.648,212.249L442.838,212.011L443.177,212.519L443.217,212.738L443.838,213.315L444.129,213.238L444.355,213.579L444.352,213.881L444.619,213.893L444.79,214.191L444.958,214.171L445.576,214.565L445.794,214.53L445.791,214.91L445.635,215.246L445.873,215.473L445.659,216.154L445.377,216.248L445.038,215.846L444.634,215.613L444.129,215.659L443.798,215.832L443.269,215.84L442.792,216.024L442.706,216.352L442.819,216.587L442.532,216.51L442.21,217.254L441.696,217.251L441.066,217.122L440.772,217.222L440.558,217.521L440.35,217.498L440.365,217.127L439.98,216.966L439.723,216.737L439.487,216.243L438.89,215.944L438.532,215.275L438.645,214.878L438.456,214.68L438.284,214.065L438.474,213.832L438.985,213.585L438.957,213.013L438.544,212.772L437.908,213.223L437.663,213.525L437.421,213.625L436.711,213.677L436.317,213.545L436.479,213.008L436.154,212.551L436.222,212.281L436.05,211.979L435.396,211.611L434.924,211.174L434.517,211.157L434.343,210.982L434.404,210.516L434.116,210.266L433.844,210.246L434.068,210.019L433.783,209.795ZM339.304,456.807L339.631,456.782L339.87,457.167L340.167,457.058L340.262,457.215L340.95,457.449L341.253,457.294L341.666,457.572L342.073,457.637L342.707,458.568L342.694,458.802L342.976,459.271L342.575,459.086L342.098,458.993L341.737,459.17L341.574,459.44L341.25,459.299L340.809,458.968L340.598,459.094L339.794,458.987L339.876,458.816L339.745,458.447L339.203,458.191L338.719,457.741L339.126,457.181ZM346.327,490.57L346.422,490.926L346.033,490.811ZM348.141,487.97L348.395,488.39L348.591,488.41L348.68,488.741L348.331,488.845L347.912,488.707L347.872,488.287ZM339.818,485.635L339.947,485.812L339.628,486.067L339.341,485.983ZM342.214,484.843L342.465,484.858L342.538,485.113L342.823,485.495L343.199,485.795L343.851,486.687L343.949,486.903L343.851,487.178L344.365,487.518L344.717,487.537L344.843,487.347L345.179,487.198L345.546,486.578L345.77,486.609L345.92,486.415L345.911,486.794L346.183,487.164L346.024,487.431L346.446,487.65L346.7,487.467L346.767,487.192L347.26,486.774L347.438,487.133L347.673,487.361L347.523,487.829L347.713,488.079L347.444,488.441L347.37,488.851L347.679,489.047L347.223,489.788L346.844,489.959L346.841,490.22L346.397,490.315L346.336,489.858L346.122,489.437L345.687,489.058L345.565,489.095L345.081,488.82L344.769,488.932L344.57,488.587L344.292,488.388L343.836,488.256L343.683,488.399L343.374,488.166L342.734,488.239L342.502,488.399L342.355,488.719L341.997,488.404L341.896,487.725L341.443,487.229L341.317,486.92L341.428,486.322L342.009,485.907L342.141,485.624L342.092,485.054ZM337.358,477.258L337.52,477.449L337.982,477.606L338.132,477.898L338.423,478.098L338.56,478.595L338.257,478.783L337.988,478.157L337.59,477.935L337.315,478.1L337.061,477.946L337.113,477.797L336.841,477.474L336.945,477.303ZM335.987,476.213L335.895,476.376L335.953,476.758L335.696,476.775L335.595,476.575L335.669,476.244ZM337.875,468.796L338.159,468.987L337.893,469.564L337.477,469.524L337.37,469.353L337.526,469.049L337.661,469.125ZM341.767,468.501L341.85,468.715L341.74,469.032L342.046,469.479L342.523,469.544L342.615,469.656L343.016,469.572L343.355,469.223L343.634,469.238L343.961,468.808L344.01,469.077L344.276,469.111L344.426,469.325L344.772,469.375L344.377,469.642L344.439,469.873L344.907,469.749L345.06,469.965L344.986,470.179L344.711,470.322L344.102,469.92L343.897,469.555L342.903,469.721L342.486,470.126L342.202,470.066L341.896,470.44L341.373,470.494L341.158,470.718L341.195,470.968L341.749,471.089L342.153,471.66L341.887,472.146L341.853,472.415L342.134,472.741L342.208,472.635L342.847,472.517L343.181,472.328L342.798,472.955L342.948,473.309L343.276,473.199L343.499,473.632L343.765,473.604L343.952,473.817L344.182,473.722L344.148,473.331L344.255,473.191L344.546,474.008L344.824,474.171L345.222,474.07L345.601,473.75L345.813,473.725L345.972,473.39L346.311,473.23L346.422,472.817L346.21,472.427L346.272,472.177L346.125,471.736L346.345,471.542L346.599,471.567L346.495,471.8L346.467,472.727L346.712,472.8L346.627,473.146L347.064,472.792L346.902,472.491L346.997,471.935L347.187,471.89L347.327,472.196L347.734,472.222L347.869,472.744L347.805,472.949L348.178,473.334L348.129,473.688L348.218,474.104L347.707,474.171L347.554,473.927L346.933,473.899L346.746,474.017L346.226,473.975L346.137,473.8L345.794,473.927L345.739,474.137L345.308,474.306L345.418,474.452L345.84,474.477L345.978,474.337L346.311,474.345L346.247,474.553L345.565,474.854L345.537,474.972L345.929,475.067L346.207,474.834L346.758,474.691L346.896,474.837L346.654,475.146L346.486,475.093L346.238,475.362L345.779,475.399L345.348,475.289L344.996,475.615L345.115,476.036L345.666,476.008L345.745,476.39L345.635,476.646L345.464,476.587L345.259,477.095L345.299,477.342L346.1,477.157L346.37,476.463L346.66,476.396L346.676,476.047L346.911,475.969L347.052,476.188L347.419,476.076L347.438,475.868L347.676,475.786L347.811,475.188L347.994,475.317L348.187,475.123L348.374,475.283L348.23,475.646L348.273,475.994L347.832,476.432L347.434,476.671L347.211,476.654L347.073,476.89L347.214,477.188L346.963,477.693L346.688,477.724L346.884,477.963L347.386,477.522L347.386,477.061L347.811,476.969L348.105,477.101L347.863,478.204L348.147,478.367L348.389,478.058L348.68,478.067L348.6,477.727L348.75,477.688L348.955,477.157L349.344,477.109L349.476,476.907L349.61,477.348L349.332,477.713L349.476,478.446L349.739,478.662L349.772,478.87L350.195,478.976L350.513,478.662L350.513,478.145L350.938,477.339L351.165,477.572L351.162,477.952L351.376,478.109L351.351,478.502L351.829,478.575L352.119,478.246L352.074,478.755L352.422,479.125L352.554,479.622L352.875,479.67L352.915,479.285L353.151,479.201L353.242,478.62L353.001,478.477L353.16,478.266L353.487,478.387L353.509,478.561L354.261,478.698L354.47,478.609L354.748,478.269L354.794,477.716L355.167,478.05L355.045,478.493L355.311,478.859L355.565,478.926L355.99,478.825L356.027,479.546L355.785,479.459L355.743,479.844L355.565,479.794L355.409,480.001L355.485,480.355L355.238,480.619L355.17,481.051L354.904,481.189L354.794,481.506L354.824,482.053L354.635,482.463L353.986,482.643L353.239,483.014L352.921,483.62L352.6,484.018L352.435,483.915L352.539,483.544L352.786,483.364L352.627,483.084L352.205,483.14L352.315,482.461L352.768,481.22L353.197,480.967L353.108,480.529L352.796,480.212L352.484,480.139L352.138,480.223L352.061,480.655L351.657,480.841L351.373,481.217L351.11,481.31L350.7,480.959L350.406,481.046L350.192,480.785L349.898,480.821L349.772,481.096L349.928,481.161L349.748,481.475L349.39,481.442L349.212,481.621L349.209,481.877L349.381,481.986L349.543,482.522L349.182,482.722L349.084,482.991L349.323,483.519L349.601,483.502L349.564,483.752L349.09,483.973L348.707,483.746L348.184,483.62L348.01,483.216L347.618,483.165L347.52,482.837L347.321,482.806L346.902,481.927L347.266,481.708L347.349,481.29L347.26,481.026L346.887,480.841L346.786,480.563L346.939,480.274L346.936,479.9L346.636,479.052L346.262,478.917L346.015,478.569L345.791,478.558L345.562,478.752L345.65,478.915L345.253,478.878L345.084,479.114L345.516,479.263L345.712,479.605L345.644,479.83L345.222,479.768L344.665,479.923L344.463,480.271L344.524,480.445L344.062,480.633L343.952,480.891L343.692,481.026L343.717,481.444L343.306,481.804L343.013,482.281L342.584,482.494L342.349,482.382L342.26,481.997L342.343,481.77L342.174,481.543L341.884,481.475L342.15,481.206L342.306,481.354L342.768,481.217L343.016,480.728L342.896,480.234L343.15,480.159L343.245,479.956L343.172,479.358L342.994,478.724L342.664,478.491L342.401,478.555L342.284,478.089L342.505,477.584L342.477,477.258L342.052,476.702L342.306,476.604L342.382,475.927L342.802,475.472L342.6,475.196L342.44,475.281L342.018,474.941L341.813,474.623L341.605,474.59L341.067,475.034L340.751,474.769L340.363,474.719L340.549,474.59L340.684,474.039L340.421,473.696L340.127,473.798L339.797,473.458L339.659,473.455L339.484,472.778L339.558,472.314L339.365,472.084L339.365,471.573L338.723,471.131L338.71,470.867L338.459,470.488L338.441,470.019L339.044,469.634L339.157,470.064L339.377,470.131L339.8,470.058L340.112,469.398L340.078,469.282L340.482,468.985L341.268,468.69L341.467,468.734ZM411.689,455.24L411.953,455.187L411.992,454.877L412.959,454.52L413.357,454.711L413.284,454.95L413.605,454.858L413.357,454.255L413.577,454.382L414.685,454.286L414.783,454.483L415.016,454.402L415,454.146L415.218,453.864L416.01,453.318L416.038,453.155L416.472,452.877L417.087,452.646L417.604,451.987L418.033,451.81L418.192,451.47L418.553,451.208L418.734,450.797L419.217,450.2L419.639,449.955L419.808,450.096L420.221,449.297L420.597,448.917L421.035,448.72L421.552,448.658L422.378,449.105L422.966,449.719L423.14,450.552L422.886,451.143L422.326,451.022L422.406,451.267L422.727,451.371L422.641,451.636L422.283,451.951L421.879,451.973L421.775,452.792L421.417,453.217L421.172,453.364L420.778,453.411L420.475,452.93L420.303,453.127L420.57,453.423L420.398,453.642L420.083,453.546L419.936,453.178L419.753,453.316L419.896,453.828L420.138,454.011L419.881,454.32L419.63,455.305L418.954,455.975L418.602,456.442L418.593,456.664L418.379,456.847L418.44,457.142L418.14,457.57L418.06,457.862L417.5,458.785L417.24,458.827L416.992,459.277L416.751,459.406L416.439,459.252L416.038,459.311L416.234,459.524L416.105,459.741L415.671,459.718L415.548,459.949L415.141,460.163L414.749,460.166L414.495,459.862L414.477,460.194L414.162,460.323L413.599,459.983L413.281,459.268L412.785,458.323L412.448,458.478L412.262,458.264L412.044,458.579L411.757,458.509L411.539,458.141L411.668,457.764L411.347,457.904L411.154,456.731L411.224,456.295L411.142,456.028ZM313.275,526.846L313.37,526.647L313.257,526.342L313.229,525.718L312.911,524.832L312.556,524.457L311.763,524.082L311.265,523.534L310.861,523.598L310.506,523.427L309.97,522.597L309.407,521.936L309.419,521.693L309.836,521.687L310.24,521.307L310.46,520.963L311.078,520.576L311.265,520.361L311.246,519.46L311.497,519.166L311.375,518.794L311.485,518.486L311.705,518.424L311.626,518.122L311.904,517.702L311.959,517.229L311.684,516.941L311.256,516.857L311.265,516.555L310.953,516.392L310.922,515.984L310.784,515.76L310.83,515.127L310.671,514.858L310.218,514.715L310.111,513.873L310.313,513.674L310.292,513.117L310.129,513.122L310.013,512.562L310.356,512.03L310.561,512.165L310.668,511.972L310.175,511.848L310.417,511.638L310.448,511.117L310.05,511.089L309.456,510.644L309.221,510.328L309.459,508.101L309.624,508.118L309.52,509.294L309.661,509.305L309.701,508.877L309.967,508.899L310.05,508.684L309.998,508.191L310.484,507.423L310.448,506.855L310.616,506.798L310.607,506.446L310.126,506.025L310.114,505.619L310.313,505.104L310.175,504.722L310.344,504.364L310.255,504.089L310.867,503.459L310.983,503.151L311.262,502.918L311.797,502.809L312.076,502.971L312.593,502.996L313.33,503.271L313.857,503.403L314.153,503.274L314.462,503.305L314.787,503.083L315.772,503.263L316.813,503.215L317.966,502.921L318.404,503.1L318.092,503.319L318.058,503.661L318.318,504.058L318.639,504.779L318.728,505.283L318.278,505.33L318.092,505.238L317.706,505.356L317.538,505.658L317.063,505.944L316.779,506.336L316.895,506.698L317.538,506.829L317.942,506.759L318.229,506.883L318.34,507.135L318.263,508.14L317.975,508.216L317.74,508.712L317.933,509.034L318.183,509.104L318.254,509.434L318.581,509.678L318,509.899L317.844,510.126L317.822,510.636L318.037,510.882L318.037,511.274L318.254,511.498L318.514,511.456L318.664,511.675L319.276,511.921L319.512,512.316L319.582,512.635L319.756,512.798L320.203,512.823L320.867,512.649L320.925,513.038L321.283,513.29L321.65,513.724L322.073,514.049L322.59,514.791L322.755,514.833L322.55,515.326L323.376,515.919L324.334,516.028L324.655,516.353L324.845,516.818L324.854,517.534L324.747,518.066L324.502,518.318L324.524,518.553L324.346,518.886L324.316,519.258L324.034,519.398L323.695,519.796L323.401,519.745L323.15,519.871L323.419,520.159L323.41,520.358L323.021,521.696L323.199,521.975L323.239,522.459L322.896,522.692L322.911,522.818L322.25,522.868L321.865,523.234L321.638,523.71L321.452,523.906L321.445,524.163L321.65,524.353L321.519,524.594L321.366,524.535L320.956,524.885L321.045,525.621L320.855,526.208L320.586,526.51L320.494,526.806L320.053,527.262L319.87,527.729L319.374,527.928L318.554,527.905L318.116,527.676L317.559,527.724L317.223,528.171L316.953,528.216L316.464,528.47L315.983,528.462L314.848,528.756L313.881,528.238L313.474,527.659L313.446,527.346L313.29,527.268ZM309.854,507.462L309.689,507.479L309.863,507.076ZM279.514,557.63L279.761,557.622L280.306,557.814L280.728,557.755L281.056,558.062L281.365,557.998L281.555,557.577L282.072,557.267L282.607,557.234L283.039,556.746L283.492,557.164L283.831,557.2L284.339,556.826L284.407,556.684L284.771,556.854L285.178,556.712L285.545,556.241L286.129,556.009L286.454,555.674L286.745,555.716L286.797,555.443L287.13,555.147L287.583,555.083L287.727,555.178L288.281,554.832L288.737,554.767L289.04,554.485L289.679,554.31L289.945,554.025L290.074,553.618L290.481,553.562L290.729,553.23L291.631,553.291L291.974,553.255L292.669,553.436L292.935,554.022L292.776,554.033L292.418,554.357L292.363,554.589L292.145,554.594L291.69,555.113L291.411,555.178L291.108,555.59L290.643,555.669L290.313,555.981L289.208,556.243L288.966,556.522L288.385,557.376L288.115,557.432L287.938,557.867L288.091,557.959L287.913,558.244L287.562,558.258L287.329,558.623L287.292,558.908L287.005,559.298L287.035,559.485L286.567,559.795L286.142,560.378L286.05,560.774L285.239,561.641L284.832,561.616L284.039,561.978L283.877,562.285L283.391,562.62L283.21,563.122L282.978,563.367L282.595,563.417L282.399,563.897L281.87,564.095L281.637,564.404L281.331,564.443L280.979,564.77L280.242,565.02L279.648,565.383L279.452,565.285L278.577,565.539L278.189,565.542L278.186,565.665L277.592,565.62L276.812,565.257L276.132,564.722L274.963,563.462L274.774,562.795L274.385,562.012L274.253,561.978L274.155,561.309L273.837,560.735L273.849,560.391L274.14,559.396L274.131,558.986L274.305,558.481L274.645,558.012L274.774,557.538L275.129,557.175L275.52,557.192L275.912,557.75L276.141,557.761L276.64,558.043L277.662,558.23L277.977,558.149L278.268,557.878L278.541,558.012L279.195,557.661ZM265.162,594.539L265.771,594.755L266.352,595.148L266.606,595.445L266.909,596.079L267.151,596.171L267.368,596.552L267.436,596.947L267.289,597.072L267.28,597.84L267.717,599.419L266.967,599.805L266.303,600L266.257,599.794L265.912,599.644L265.364,599.711L264.932,599.402L264.507,599.577L263.996,599.149L264.085,598.98L263.745,598.832L263.552,598.966L263.24,598.943L263.008,598.696L262.937,598.254L262.555,597.823L262.197,597.748L261.879,598.031L261.719,597.589L261.784,597.4L261.554,596.8L261.918,596.402L262.038,596.53L262.166,596.285L262.393,596.699L262.735,596.844L263.142,596.816L263.427,596.644L263.357,596.405L263.559,595.726L263.506,595.448L263.95,594.986L263.932,594.886L264.779,594.555Z"
          fill="#e0e0e0"
          stroke="#333333"
          stroke-width="1"
          stroke-linejoin="round"/>
  </g>
</svg>