<?xml version="1.0" encoding="UTF-8"?>
<svg xmlns="http://www.w3.org/2000/svg"
     viewBox="0 0 600.000 730.671"
     width="600.000"
     height="730.671">
  <title>沖縄県</title>
  <desc>都道府県コード: 47</desc>
  <g id="-2710.669">
    <path d="M281.742,314.467L286.075,312.981L287.574,314.557L287.325,316.731L290.248,316.640L290.741,313.703L292.421,309.113L294.476,307.905L297.601,304.246L300.885,297.962L301.420,293.983L302.899,292.067L302.468,284.006L300.594,282.034L299.608,282.221L293.879,279.874L290.553,280.041L286.873,277.680L282.318,275.916L278.534,272.292L276.541,271.340L273.646,271.993L270.014,270.431L266.973,267.417L261.425,266.529L260.092,267.605L258.550,271.209L256.335,272.646L249.454,270.542L244.358,268.570L243.455,264.161L244.420,263.418L241.685,259.127L240.289,256.037L239.102,254.884L238.546,249.774L236.060,246.128L234.685,246.594L233.783,243.170L234.581,242.962L234.415,239.914L233.679,238.963L234.887,235.894L233.804,233.387L238.275,229.367L243.205,229.568L244.399,228.658L240.990,228.061L241.462,226.145L240.455,219.805L238.116,216.903L236.796,217.215L237.067,215.063L230.700,210.779L230.311,208.119L230.658,205.182L233.269,201.516L232.304,200.676L233.574,199.613L234.602,196.808L234.213,192.788L234.665,192.080L238.199,193.455L240.719,196.357L242.837,196.343L245.448,198.204L248.302,198.148L250.232,200.155L253.315,199.968L254.773,197.996L257.301,197.010L258.939,197.961L264.258,197.572L264.730,196.378L268.514,196.100L268.674,197.385L272.618,196.433L276.486,194.927L279.562,194.781L280.506,193.121L286.713,194.073L291.560,196.975L294.171,197.364L293.692,198.947L291.234,201.176L294.310,204.043L295.872,203.391L295.011,201.870L299.510,201.106L299.920,202.648L303.593,204.196L308.523,205.516L311.814,205.828L317.765,208.439L319.411,210.168L319.286,211.897L316.724,213.216L313.884,215.473L311.460,216.493L311.092,218.632L309.308,219.993L310.065,222.951L308.912,224.270L309.447,226.055L307.850,227.638L308.072,229.103L306.447,232.457L307.600,235.373L303.635,235.859L302.135,234.540L302.343,236.956L304.045,238.428L307.433,238.650L313.231,241.476L314.995,243.351L316.453,246.219L315.383,247.948L318.119,250.642L319.841,250.961L322.841,249.996L329.416,252.468L330.645,253.565L336.707,248.225L336.235,246.594L338.637,246.941L340.116,246.295L346.255,247.982L348.393,247.559L353.156,245.434L354.497,244.080L361.294,240.580L366.287,240.601L369.384,238.241L369.550,236.657L372.279,235.803L378.056,227.415L379.570,228.193L381.854,226.110L384.937,227.249L387.458,223.006L388.548,223.527L388.548,227.561L387.437,229.512L389.923,227.936L391.284,229.610L395.408,228.846L396.269,227.728L394.589,226.332L395.325,224.714L392.679,222.333L389.805,221.777L389.492,220.659L387.583,220.826L385.430,219.972L384.729,222.666L383.187,221.534L382.736,218.465L379.514,216.396L379.098,213.778L383.535,208.807L384.854,206.522L388.735,202.516L389.700,199.766L391.978,196.989L396.193,197.364L402.970,195.614L409.128,192.913L411.017,189.323L416.912,185.824L419.669,182.025L420.203,178.866L419.460,174.679L416.669,169.596L413.343,168.777L415.086,165.479L417.364,165.757L417.919,167.770L423.036,167.270L427.453,164.604L434.209,163.264L435.896,162.243L438.111,159.410L439.139,154.626L443.249,151.627L444.825,149.467L447.457,150.564L449.596,148.092L449.241,143.753L451.422,143.010L453.644,141.295L455.428,139.003L458.449,137.142L459.865,134.886L461.941,133.101L462.844,128.428L463.538,127.380L466.906,127.289L467.565,125.484L466.295,122.241L468.718,118.367L468.531,116.805L470.523,113.951L472.329,110.118L474.245,108.549L475.328,106.556L475.516,102.383L476.745,102.015L478.390,97.876L480.814,95.995L481.494,93.294L481.286,87.475L479.210,85.614L476.787,84.760L475.349,81.628L475.946,77.935L477.016,74.956L479.314,72.553L481.675,71.692L484.077,69.436L488.250,70.373L489.688,71.991L487.903,72.498L487.119,76.094L489.403,78.178L490.979,78.608L492.771,81.719L499.832,84.573L499.263,87.086L501.686,89.489L505.526,91.002L505.811,94.502L509.282,93.703L510.886,91.016L514.296,91.801L516.594,93.127L515.837,95.717L516.677,99.029L515.365,102.404L518.462,107.452L521.913,109.535L523.211,109.576L522.760,111.590L524.753,115.145L525.961,114.978L524.419,118.047L524.093,121.144L525.016,125.428L526.600,128.484L523.989,129.393L523.885,132.018L525.634,133.587L527.461,133.733L527.711,135.969L529.662,138.482L529.801,141.274L528.898,143.884L527.315,145.412L527.030,147.197L528.530,148.571L528.467,151.029L527.294,153.862L527.627,155.411L526.287,157.230L527.808,159.077L529.245,159.167L530.564,157.883L529.863,160.438L530.252,162.896L527.912,163.264L525.794,164.868L524.607,167.305L524.794,169.409L525.794,169.374L524.197,171.881L524.503,173.860L520.024,175.103L516.351,177.283L516.552,179.928L514.580,182.553L514.830,183.706L509.963,184.504L508.053,186.629L508.748,187.559L510.886,187.594L511.893,190.142L510.761,191.726L508.359,191.858L506.408,193.087L506.512,195.781L508.317,198.072L506.491,199.655L504.172,200.586L503.283,202.127L502.012,201.051L500.061,201.849L501.478,203.932L498.992,205.418L499.117,208.564L497.659,212.938L498.666,215.806L498.027,217.847L495.416,220.062L491.597,222.319L489.111,223.097L489.340,225.624L488.188,227.415L488.396,229.610L487.098,229.332L486.216,230.762L483.425,229.776L482.994,232.825L480.939,233.866L479.828,235.949L480.980,237.796L480.668,239.990L479.356,241.365L477.654,241.046L476.439,243.226L474.835,244.302L475.662,245.552L472.662,246.719L471.614,249.677L469.044,250.940L466.357,249.975L461.490,252.246L460.684,251.683L457.254,251.836L454.525,254.051L453.046,253.489L449.658,254.738L448.811,254.252L445.054,254.440L442.423,255.183L440.083,254.905L434.597,255.815L429.154,253.211L425.953,252.447L421.231,252.260L419.315,250.607L414.267,251.017L411.802,251.926L410.156,256.946L412.746,260.814L413.565,263.348L414.468,263.029L416.378,266.654L416.482,269.167L414.940,270.431L413.031,275.187L407.094,273.979L406.087,272.701L405.205,273.910L403.872,272.903L399.991,272.924L397.588,271.250L395.533,271.042L398.942,278.833L400.567,280.617L402.970,281.457L404.261,283.020L407.670,291.032L409.483,294.025L413.670,296.553L407.629,296.886L405.143,298.281L406.295,306.010L405.351,307.905L402.803,306.287L399.109,306.975L397.220,306.551L390.846,309.245L386.985,309.669L384.916,310.919L380.250,315.245L381.299,317.571L380.827,318.647L377.764,316.828L376.181,316.828L374.994,318.591L375.077,320.154L377.008,321.938L367.662,317.217L364.808,313.203L362.093,311.217L359.281,311.217L357.184,310.099L356.941,308.947L352.150,309.954L351.066,309.523L349.136,311.863L347.657,312.363L346.463,311.120L343.241,312.106L341.838,310.710L341.491,307.572L342.644,305.510L341.248,303.913L341.658,306.176L340.116,308.294L337.158,309.079L335.888,308.315L339.728,315.397L341.470,317.085L341.554,318.793L343.713,321.098L344.366,325.222L346.567,328.569L347.324,328.257L348.928,332.305L347.532,331.784L339.971,331.972L334.423,333.826L335.867,334.964L335.763,336.742L334.346,338.381L330.854,339.623L328.923,338.880L327.278,339.269L323.848,337.783L321.813,337.672L321.015,336.353L318.612,337.617L317.272,339.200L318.258,342.637L315.508,343.158L313.863,340.089L311.259,340.797L308.280,344.234L309.780,345.907L309.877,347.963L314.377,351.455L314.439,354.170L315.592,355.212L315.467,357.975L312.898,361.267L309.613,361.989L308.280,361.023L306.780,362.086L308.857,362.919L307.621,364.495L308.072,365.703L304.746,366.523L300.906,368.529L299.691,367.967L297.414,369.363L292.400,370.869L290.984,370.772L288.769,367.189L284.860,367.224L283.304,366.669L281.374,367.731L280.839,369.550L281.742,371.571L280.096,373.154L278.534,373.411L279.235,378.000L281.124,379.688L279.895,380.951L277.180,381.785L276.256,383.791L276.645,389.527L279.173,390.235L280.818,391.943L280.159,393.228L278.492,391.721L275.271,390.478L273.194,390.478L268.369,391.797L265.924,392.033L264.716,390.513L263.647,392.443L259.002,389.749L260.175,388.305L258.592,386.520L255.426,386.277L250.954,384.798L247.545,385.000L243.740,382.514L241.629,380.174L239.081,380.354L237.907,378.924L230.825,380.653L228.381,378.688L223.548,379.986L220.284,382.569L218.354,382.549L214.757,385.520L213.528,388.381L213.591,389.867L211.126,391.888L209.973,393.728L212.154,395.248L208.293,401.282L201.940,397.609L203.155,399.609L201.037,400.539L202.356,402.060L201.592,403.400L200.072,402.824L199.232,404.379L201.572,407.462L203.363,408.038L206.890,407.684L207.508,409.601L205.786,410.121L206.994,413.586L209.154,417.190L211.286,417.301L213.077,419.565L214.042,419.086L216.771,421.162L220.284,423.002L223.076,426.876L223.923,426.751L225.666,429.050L228.971,430.161L233.679,437.069L235.296,438.666L229.054,441.131L231.214,440.944L231.436,445.346L230.040,446.346L229.818,449.276L231.193,453.116L234.234,456.102L235.831,459.386L237.970,461.594L239.796,464.899L243.476,467.010L245.649,469.871L247.788,471.225L253.537,471.815L251.503,472.315L255.697,475.919L258.266,480.626L260.627,482.577L259.474,482.758L261.245,487.618L262.925,490.326L261.779,490.701L261.981,492.722L263.314,493.514L261.856,498.818L259.620,498.194L258.349,499.228L255.898,496.444L256.210,495.354L251.753,493.111L247.191,491.701L243.455,487.973L240.990,486.153L239.449,483.279L237.268,480.550L234.790,478.849L232.484,475.176L228.811,472.023L228.110,472.558L227.166,468.461L222.999,462.247L218.868,463.434L214.126,467.552L211.431,468.197L207.918,470.871L205.495,473.766L204.530,475.898L204.613,478.238L206.175,477.863L210.265,480.571L212.417,480.494L213.202,483.911L212.334,484.910L206.050,484.244L203.877,485.522L200.940,485.320L200.447,487.084L202.190,488.084L203.585,490.958L205.578,489.570L209.091,489.472L212.480,492.125L212.091,494.423L210.119,493.854L207.057,494.465L206.849,495.333L203.793,491.757L202.148,488.118L200.426,487.119L200.690,491.868L199.662,492.680L196.579,492.791L194.920,491.479L192.309,491.236L188.962,496.242L190.136,496.874L190.316,498.874L188.594,498.860L189.761,501.513L192.142,503.512L192.760,507.276L191.469,510.685L192.288,511.747L189.150,514.490L187.809,513.337L183.803,517.587L181.998,518.066L180.317,520.274L179.616,523.815L177.769,526.801L177.130,530.210L174.644,532.953L174.026,538.716L174.478,542.278L172.839,545.479L174.936,546.653L173.207,549.576L170.187,550.430L166.777,556.450L164.354,558.026L164.146,559.915L162.938,559.845L160.882,561.380L162.056,564.366L159.875,563.269L158.869,565.289L162.382,567.053L161.681,567.775L155.668,566.588L161.132,568.553L162.097,574.114L164.271,575.281L164.583,576.503L167.312,578.537L167.805,581.968L166.451,581.704L165.750,583.578L168.013,586.634L166.902,589.064L171.360,589.356L173.145,590.453L175.304,590.008L175.735,582.766L177.769,580.982L178.463,579.246L186.886,576.371L191.941,575.614L190.767,575.017L195.538,574.948L196.461,577.260L195.656,581.912L196.767,583.578L201.329,584.613L202.210,586.224L201.433,594.265L199.440,593.418L197.919,594.508L195.843,597.917L193.725,600.160L189.268,601.840L187.011,604.548L188.407,606.562L187.233,607.381L185.983,606.083L185.303,607.305L183.234,608.138L178.693,614.845L176.964,616.678L172.978,618.359L170.784,617.345L165.257,616.692L159.959,620.122L160.368,622.858L156.362,623.435L156.570,624.268L154.043,624.955L152.418,627.844L148.599,627.788L145.440,630.468L143.530,634.565L141.538,635.412L139.503,640.821L138.455,641.154L138.184,643.133L133.608,644.765L132.351,649.167L129.275,649.910L125.040,651.855L121.464,649.820L120.006,649.820L114.833,651.868L107.646,655.465L105.257,657.243L102.959,660.735L100.084,661.235L98.710,658.902L95.425,658.111L94.946,658.590L90.225,656.076L88.357,656.743L86.690,653.979L87.537,651.500L86.649,648.945L87.968,648.445L88.315,646.779L88.211,641.113L90.204,635.023L91.516,633.690L91.912,631.732L89.301,630.989L90.058,627.969L94.870,626.302L90.266,627.302L92.322,624.101L91.231,622.969L90.759,620.324L93.696,618.935L93.967,617.456L88.315,618.845L89.586,617.289L89.093,615.345L84.656,616.512L84.739,618.289L86.177,622.379L84.149,622.733L82.684,621.324L82.295,617.137L82.955,616.769L81.024,609.103L87.183,607.506L88.579,606.194L92.280,605.284L95.113,604.048L92.898,600.285L88.503,597.195L85.441,596.709L82.010,598.042L81.476,599.931L82.073,602.451L80.719,603.340L79.566,598.563L81.476,598.007L84.927,595.820L81.969,593.674L84.739,593.730L83.920,591.543L81.392,591.633L81.205,588.043L84.517,587.856L84.843,587.210L79.691,587.377L77.511,588.411L75.768,586.967L76.692,585.446L78.539,584.946L78.212,577.204L75.497,574.038L73.421,569.754L76.442,567.462L72.949,567.629L72.498,568.497L73.199,584.766L72.623,586.613L70.387,586.710L69.873,584.280L70.324,582.093L69.436,564.234L71.699,564.143L72.394,566.122L76.976,565.942L77.185,562.567L79.295,560.248L81.622,556.506L83.712,555.693L87.392,558.825L91.065,559.026L92.815,561.755L95.481,563.144L96.370,564.942L98.175,563.421L98.460,562.033L93.266,560.491L92.134,557.957L89.961,556.026L91.294,554.173L90.391,553.541L96.120,553.318L96.654,551.340L100.043,550.909L101.730,549.729L104.334,551.284L104.869,549.743L102.897,549.208L102.799,547.076L101.334,548.520L100.883,546.521L102.424,546.167L101.813,539.161L98.953,539.161L98.953,542.146L98.008,545.000L93.655,545.000L93.655,540.994L97.085,540.327L97.022,538.515L95.113,537.494L94.891,531.467L98.855,531.655L98.869,534.807L103.042,535.786L105.632,537.216L104.626,535.307L105.737,534.786L104.667,533.120L104.626,527.669L101.112,527.648L101.112,526.926L106.618,526.891L109.389,528.134L110.458,526.447L115.610,520.330L118.159,519.177L119.804,514.879L120.894,514.490L122.596,516.344L123.790,513.858L128.345,513.782L128.595,517.045L133.157,514.303L132.684,512.004L134.261,512.650L136.358,510.852L135.372,509.706L137.142,508.206L140.468,507.422L141.079,509.109L142.579,508.852L142.378,507.199L143.940,506.276L144.593,504.325L146.960,502.637L148.828,502.436L150.203,501.061L149.418,499.839L150.488,498.173L152.363,499.339L153.224,498.471L153.876,494.979L153.342,493.701L155.175,487.771L152.154,487.042L150.425,481.501L150.571,479.606L151.849,478.883L150.939,477.252L150.161,478.863L147.926,480.071L145.974,478.272L145.315,475.252L143.711,472.190L143.753,469.683L145.190,469.537L145.211,467.996L146.669,465.732L145.704,463.802L145.294,457.053L143.628,456.199L142.808,457.921L142.010,452.970L140.552,448.665L136.170,439.888L135.392,436.160L133.462,433.986L132.004,430.292L125.741,418.120L125.553,414.551L124.567,413.996L125.102,410.635L124.366,408.559L124.838,402.768L126.560,396.623L124.797,393.110L122.943,391.811L123.929,390.492L129.622,391.999L130.810,391.520L132.351,393.151L136.399,399.109L137.510,402.768L139.357,404.698L142.065,404.643L144.495,403.379L150.370,398.741L153.918,397.324L155.994,394.693L158.744,393.172L160.757,390.103L160.861,388.839L162.875,388.117L164.292,390.089L169.117,392.485L169.284,394.505L172.284,395.602L173.721,394.228L176.533,393.617L178.672,394.582L181.303,393.297L184.178,388.194L183.025,384.965L182.817,382.604L184.157,380.632L185.449,381.153L188.143,378.966L189.045,377.049L188.240,375.917L189.990,374.654L191.156,375.549L194.427,372.987L195.676,371.293L199.315,370.869L202.335,368.363L204.898,362.829L208.473,363.461L211.244,361.690L211.862,360.246L211.577,357.163L209.668,352.629L207.182,350.178L208.966,349.580L210.362,347.039L210.591,344.546L214.841,343.359L217.597,346.130L217.903,347.928L219.486,346.997L220.715,343.956L220.514,341.929L219.111,341.686L220.222,339.846L222.937,344.067L224.826,342.019L225.089,340.089L229.978,339.103L231.477,341.630L234.297,342.394L234.276,343.824L237.005,345.442L240.719,344.137L242.323,340.012L241.685,338.825L244.524,337.506L246.802,337.783L249.843,336.318L251.753,333.791L253.850,332.715L254.586,334.853L258.363,335.666L260.314,334.221L261.897,329.521L261.758,326.208L264.814,327.160L266.827,324.854L266.438,322.639L267.980,322.813L270.445,318.834L270.570,317.404L268.903,315.974L269.563,315.078L272.313,316.585L271.799,318.682L273.771,320.563L275.354,320.897L278.103,319.834L281.867,315.488Z" fill="#e0e0e0" stroke="#333333" stroke-width="1" stroke-linejoin="round" />
  </g>
</svg>