<svg width="960" height="580" viewBox="0 0 960 580" xmlns="http://www.w3.org/2000/svg" role="img" aria-label="住みやすい都道府県ランキング 総合スコア 上位10・下位10">
  <title>住みやすい都道府県ランキング 総合スコア 上位10・下位10</title>
  <rect width="960" height="580" fill="#f9fafb"/>
  <text x="480" y="38" text-anchor="middle" font-family="'Noto Sans JP',sans-serif" font-size="20" font-weight="bold" fill="#1f2937">住みやすい都道府県ランキング　総合スコア　上位10・下位10</text>
  <rect x="30" y="50" width="432" height="40" rx="8" fill="#2e7d32"/><text x="246" y="76" text-anchor="middle" font-family="'Noto Sans JP',sans-serif" font-size="15" font-weight="bold" fill="#ffffff">住みやすい都道府県 TOP10</text>
  <rect x="498" y="50" width="432" height="40" rx="8" fill="#c62828"/><text x="714" y="76" text-anchor="middle" font-family="'Noto Sans JP',sans-serif" font-size="15" font-weight="bold" fill="#ffffff">住みやすさが低い都道府県 WORST10</text>
  <rect x="30" y="90" width="432" height="44" rx="6" fill="#e8f5e9"/><circle cx="60" cy="112" r="14" fill="#2e7d32"/><text x="60" y="116.32" text-anchor="middle" font-family="'Noto Sans JP',sans-serif" font-size="12" font-weight="bold" fill="#ffffff">1</text><text x="84" y="116.68" font-family="'Noto Sans JP',sans-serif" font-size="13" font-weight="bold" fill="#1f2937">福井県</text><text x="260" y="116.32" text-anchor="end" font-family="'Noto Sans JP',sans-serif" font-size="12" fill="#2e7d32" font-weight="600">79.9点</text><rect x="272" y="105" width="159.8" height="14" rx="4" fill="#2e7d32" opacity="0.8"/>
  <rect x="30" y="134" width="432" height="44" rx="6" fill="#ffffff"/><circle cx="60" cy="156" r="14" fill="#2e7d32"/><text x="60" y="160.32" text-anchor="middle" font-family="'Noto Sans JP',sans-serif" font-size="12" font-weight="bold" fill="#ffffff">2</text><text x="84" y="160.68" font-family="'Noto Sans JP',sans-serif" font-size="13" font-weight="bold" fill="#1f2937">富山県</text><text x="260" y="160.32" text-anchor="end" font-family="'Noto Sans JP',sans-serif" font-size="12" fill="#2e7d32" font-weight="600">78点</text><rect x="272" y="149" width="156" height="14" rx="4" fill="#2e7d32" opacity="0.8"/>
  <rect x="30" y="178" width="432" height="44" rx="6" fill="#e8f5e9"/><circle cx="60" cy="200" r="14" fill="#2e7d32"/><text x="60" y="204.32" text-anchor="middle" font-family="'Noto Sans JP',sans-serif" font-size="12" font-weight="bold" fill="#ffffff">3</text><text x="84" y="204.68" font-family="'Noto Sans JP',sans-serif" font-size="13" font-weight="bold" fill="#1f2937">島根県</text><text x="260" y="204.32" text-anchor="end" font-family="'Noto Sans JP',sans-serif" font-size="12" fill="#2e7d32" font-weight="600">71.8点</text><rect x="272" y="193" width="143.6" height="14" rx="4" fill="#2e7d32" opacity="0.8"/>
  <rect x="30" y="222" width="432" height="44" rx="6" fill="#ffffff"/><circle cx="60" cy="244" r="14" fill="#2e7d32"/><text x="60" y="248.32" text-anchor="middle" font-family="'Noto Sans JP',sans-serif" font-size="12" font-weight="bold" fill="#ffffff">4</text><text x="84" y="248.68" font-family="'Noto Sans JP',sans-serif" font-size="13" font-weight="bold" fill="#1f2937">徳島県</text><text x="260" y="248.32" text-anchor="end" font-family="'Noto Sans JP',sans-serif" font-size="12" fill="#2e7d32" font-weight="600">68.2点</text><rect x="272" y="237" width="136.4" height="14" rx="4" fill="#2e7d32" opacity="0.8"/>
  <rect x="30" y="266" width="432" height="44" rx="6" fill="#e8f5e9"/><circle cx="60" cy="288" r="14" fill="#2e7d32"/><text x="60" y="292.32" text-anchor="middle" font-family="'Noto Sans JP',sans-serif" font-size="12" font-weight="bold" fill="#ffffff">5</text><text x="84" y="292.68" font-family="'Noto Sans JP',sans-serif" font-size="13" font-weight="bold" fill="#1f2937">長野県</text><text x="260" y="292.32" text-anchor="end" font-family="'Noto Sans JP',sans-serif" font-size="12" fill="#2e7d32" font-weight="600">66.3点</text><rect x="272" y="281" width="132.6" height="14" rx="4" fill="#2e7d32" opacity="0.8"/>
  <rect x="30" y="310" width="432" height="44" rx="6" fill="#ffffff"/><circle cx="60" cy="332" r="14" fill="#2e7d32"/><text x="60" y="336.32" text-anchor="middle" font-family="'Noto Sans JP',sans-serif" font-size="12" font-weight="bold" fill="#ffffff">6</text><text x="84" y="336.68" font-family="'Noto Sans JP',sans-serif" font-size="13" font-weight="bold" fill="#1f2937">石川県</text><text x="260" y="336.32" text-anchor="end" font-family="'Noto Sans JP',sans-serif" font-size="12" fill="#2e7d32" font-weight="600">66.1点</text><rect x="272" y="325" width="132.2" height="14" rx="4" fill="#2e7d32" opacity="0.8"/>
  <rect x="30" y="354" width="432" height="44" rx="6" fill="#e8f5e9"/><circle cx="60" cy="376" r="14" fill="#2e7d32"/><text x="60" y="380.32" text-anchor="middle" font-family="'Noto Sans JP',sans-serif" font-size="12" font-weight="bold" fill="#ffffff">7</text><text x="84" y="380.68" font-family="'Noto Sans JP',sans-serif" font-size="13" font-weight="bold" fill="#1f2937">山口県</text><text x="260" y="380.32" text-anchor="end" font-family="'Noto Sans JP',sans-serif" font-size="12" fill="#2e7d32" font-weight="600">65点</text><rect x="272" y="369" width="130" height="14" rx="4" fill="#2e7d32" opacity="0.8"/>
  <rect x="30" y="398" width="432" height="44" rx="6" fill="#ffffff"/><circle cx="60" cy="420" r="14" fill="#2e7d32"/><text x="60" y="424.32" text-anchor="middle" font-family="'Noto Sans JP',sans-serif" font-size="12" font-weight="bold" fill="#ffffff">8</text><text x="84" y="424.68" font-family="'Noto Sans JP',sans-serif" font-size="13" font-weight="bold" fill="#1f2937">佐賀県</text><text x="260" y="424.32" text-anchor="end" font-family="'Noto Sans JP',sans-serif" font-size="12" fill="#2e7d32" font-weight="600">62.5点</text><rect x="272" y="413" width="125" height="14" rx="4" fill="#2e7d32" opacity="0.8"/>
  <rect x="30" y="442" width="432" height="44" rx="6" fill="#e8f5e9"/><circle cx="60" cy="464" r="14" fill="#2e7d32"/><text x="60" y="468.32" text-anchor="middle" font-family="'Noto Sans JP',sans-serif" font-size="12" font-weight="bold" fill="#ffffff">9</text><text x="84" y="468.68" font-family="'Noto Sans JP',sans-serif" font-size="13" font-weight="bold" fill="#1f2937">和歌山県</text><text x="260" y="468.32" text-anchor="end" font-family="'Noto Sans JP',sans-serif" font-size="12" fill="#2e7d32" font-weight="600">62.2点</text><rect x="272" y="457" width="124.4" height="14" rx="4" fill="#2e7d32" opacity="0.8"/>
  <rect x="30" y="486" width="432" height="44" rx="6" fill="#ffffff"/><circle cx="60" cy="508" r="14" fill="#2e7d32"/><text x="60" y="512.32" text-anchor="middle" font-family="'Noto Sans JP',sans-serif" font-size="12" font-weight="bold" fill="#ffffff">10</text><text x="84" y="512.68" font-family="'Noto Sans JP',sans-serif" font-size="13" font-weight="bold" fill="#1f2937">山形県</text><text x="260" y="512.32" text-anchor="end" font-family="'Noto Sans JP',sans-serif" font-size="12" fill="#2e7d32" font-weight="600">62.2点</text><rect x="272" y="501" width="124.4" height="14" rx="4" fill="#2e7d32" opacity="0.8"/>
  <rect x="498" y="90" width="432" height="44" rx="6" fill="#ffebee"/><circle cx="528" cy="112" r="14" fill="#c62828"/><text x="528" y="116.32" text-anchor="middle" font-family="'Noto Sans JP',sans-serif" font-size="12" font-weight="bold" fill="#ffffff">47</text><text x="552" y="116.68" font-family="'Noto Sans JP',sans-serif" font-size="13" font-weight="bold" fill="#1f2937">大阪府</text><text x="728" y="116.32" text-anchor="end" font-family="'Noto Sans JP',sans-serif" font-size="12" fill="#c62828" font-weight="600">18.5点</text><rect x="740" y="105" width="37" height="14" rx="4" fill="#e53935" opacity="0.8"/>
  <rect x="498" y="134" width="432" height="44" rx="6" fill="#ffffff"/><circle cx="528" cy="156" r="14" fill="#c62828"/><text x="528" y="160.32" text-anchor="middle" font-family="'Noto Sans JP',sans-serif" font-size="12" font-weight="bold" fill="#ffffff">46</text><text x="552" y="160.68" font-family="'Noto Sans JP',sans-serif" font-size="13" font-weight="bold" fill="#1f2937">京都府</text><text x="728" y="160.32" text-anchor="end" font-family="'Noto Sans JP',sans-serif" font-size="12" fill="#c62828" font-weight="600">22.8点</text><rect x="740" y="149" width="45.6" height="14" rx="4" fill="#e53935" opacity="0.8"/>
  <rect x="498" y="178" width="432" height="44" rx="6" fill="#ffebee"/><circle cx="528" cy="200" r="14" fill="#c62828"/><text x="528" y="204.32" text-anchor="middle" font-family="'Noto Sans JP',sans-serif" font-size="12" font-weight="bold" fill="#ffffff">45</text><text x="552" y="204.68" font-family="'Noto Sans JP',sans-serif" font-size="13" font-weight="bold" fill="#1f2937">埼玉県</text><text x="728" y="204.32" text-anchor="end" font-family="'Noto Sans JP',sans-serif" font-size="12" fill="#c62828" font-weight="600">24.7点</text><rect x="740" y="193" width="49.4" height="14" rx="4" fill="#e53935" opacity="0.8"/>
  <rect x="498" y="222" width="432" height="44" rx="6" fill="#ffffff"/><circle cx="528" cy="244" r="14" fill="#c62828"/><text x="528" y="248.32" text-anchor="middle" font-family="'Noto Sans JP',sans-serif" font-size="12" font-weight="bold" fill="#ffffff">44</text><text x="552" y="248.68" font-family="'Noto Sans JP',sans-serif" font-size="13" font-weight="bold" fill="#1f2937">福岡県</text><text x="728" y="248.32" text-anchor="end" font-family="'Noto Sans JP',sans-serif" font-size="12" fill="#c62828" font-weight="600">25.8点</text><rect x="740" y="237" width="51.6" height="14" rx="4" fill="#e53935" opacity="0.8"/>
  <rect x="498" y="266" width="432" height="44" rx="6" fill="#ffebee"/><circle cx="528" cy="288" r="14" fill="#c62828"/><text x="528" y="292.32" text-anchor="middle" font-family="'Noto Sans JP',sans-serif" font-size="12" font-weight="bold" fill="#ffffff">43</text><text x="552" y="292.68" font-family="'Noto Sans JP',sans-serif" font-size="13" font-weight="bold" fill="#1f2937">神奈川県</text><text x="728" y="292.32" text-anchor="end" font-family="'Noto Sans JP',sans-serif" font-size="12" fill="#c62828" font-weight="600">29.6点</text><rect x="740" y="281" width="59.20000000000001" height="14" rx="4" fill="#e53935" opacity="0.8"/>
  <rect x="498" y="310" width="432" height="44" rx="6" fill="#ffffff"/><circle cx="528" cy="332" r="14" fill="#c62828"/><text x="528" y="336.32" text-anchor="middle" font-family="'Noto Sans JP',sans-serif" font-size="12" font-weight="bold" fill="#ffffff">42</text><text x="552" y="336.68" font-family="'Noto Sans JP',sans-serif" font-size="13" font-weight="bold" fill="#1f2937">沖縄県</text><text x="728" y="336.32" text-anchor="end" font-family="'Noto Sans JP',sans-serif" font-size="12" fill="#c62828" font-weight="600">29.9点</text><rect x="740" y="325" width="59.8" height="14" rx="4" fill="#e53935" opacity="0.8"/>
  <rect x="498" y="354" width="432" height="44" rx="6" fill="#ffebee"/><circle cx="528" cy="376" r="14" fill="#c62828"/><text x="528" y="380.32" text-anchor="middle" font-family="'Noto Sans JP',sans-serif" font-size="12" font-weight="bold" fill="#ffffff">41</text><text x="552" y="380.68" font-family="'Noto Sans JP',sans-serif" font-size="13" font-weight="bold" fill="#1f2937">宮城県</text><text x="728" y="380.32" text-anchor="end" font-family="'Noto Sans JP',sans-serif" font-size="12" fill="#c62828" font-weight="600">30.7点</text><rect x="740" y="369" width="61.4" height="14" rx="4" fill="#ffa726" opacity="0.8"/>
  <rect x="498" y="398" width="432" height="44" rx="6" fill="#ffffff"/><circle cx="528" cy="420" r="14" fill="#c62828"/><text x="528" y="424.32" text-anchor="middle" font-family="'Noto Sans JP',sans-serif" font-size="12" font-weight="bold" fill="#ffffff">40</text><text x="552" y="424.68" font-family="'Noto Sans JP',sans-serif" font-size="13" font-weight="bold" fill="#1f2937">東京都</text><text x="728" y="424.32" text-anchor="end" font-family="'Noto Sans JP',sans-serif" font-size="12" fill="#c62828" font-weight="600">31.3点</text><rect x="740" y="413" width="62.6" height="14" rx="4" fill="#ffa726" opacity="0.8"/>
  <rect x="498" y="442" width="432" height="44" rx="6" fill="#ffebee"/><circle cx="528" cy="464" r="14" fill="#c62828"/><text x="528" y="468.32" text-anchor="middle" font-family="'Noto Sans JP',sans-serif" font-size="12" font-weight="bold" fill="#ffffff">39</text><text x="552" y="468.68" font-family="'Noto Sans JP',sans-serif" font-size="13" font-weight="bold" fill="#1f2937">兵庫県</text><text x="728" y="468.32" text-anchor="end" font-family="'Noto Sans JP',sans-serif" font-size="12" fill="#c62828" font-weight="600">34点</text><rect x="740" y="457" width="68" height="14" rx="4" fill="#ffa726" opacity="0.8"/>
  <rect x="498" y="486" width="432" height="44" rx="6" fill="#ffffff"/><circle cx="528" cy="508" r="14" fill="#c62828"/><text x="528" y="512.32" text-anchor="middle" font-family="'Noto Sans JP',sans-serif" font-size="12" font-weight="bold" fill="#ffffff">38</text><text x="552" y="512.68" font-family="'Noto Sans JP',sans-serif" font-size="13" font-weight="bold" fill="#1f2937">奈良県</text><text x="728" y="512.32" text-anchor="end" font-family="'Noto Sans JP',sans-serif" font-size="12" fill="#c62828" font-weight="600">34.5点</text><rect x="740" y="501" width="69" height="14" rx="4" fill="#ffa726" opacity="0.8"/>
  <text x="480" y="568" text-anchor="middle" font-family="'Noto Sans JP',sans-serif" font-size="10" fill="#9ca3af">出典：e-Stat 各統計（2020〜2024年度）をstats47で総合スコア化</text>
</svg>