<svg width="800" height="540" viewBox="0 0 800 540" xmlns="http://www.w3.org/2000/svg" role="img" aria-label="上位3県の指標別スコア比較">
  <title>上位3県の指標別スコア比較</title>
  <rect width="800" height="540" fill="#f9fafb"/>
  <text x="400" y="32" text-anchor="middle" font-family="'Noto Sans JP',sans-serif" font-size="18" font-weight="bold" fill="#1f2937">上位3県の指標別スコア比較</text>
  <rect x="200" y="46" width="16" height="16" rx="3" fill="#2e7d32"/><text x="222" y="59" font-family="'Noto Sans JP',sans-serif" font-size="12" fill="#1f2937">1位 福井県（79.9点）</text>
  <rect x="355" y="46" width="16" height="16" rx="3" fill="#1565c0"/><text x="377" y="59" font-family="'Noto Sans JP',sans-serif" font-size="12" fill="#1f2937">2位 富山県（78点）</text>
  <rect x="510" y="46" width="16" height="16" rx="3" fill="#e65100"/><text x="532" y="59" font-family="'Noto Sans JP',sans-serif" font-size="12" fill="#1f2937">3位 島根県（71.8点）</text>
  <line x1="60" y1="480" x2="770" y2="480" stroke="#e5e7eb" stroke-width="1"/><text x="52" y="484" text-anchor="end" font-family="'Noto Sans JP',sans-serif" font-size="11" fill="#6b7280">0</text>
  <line x1="60" y1="400" x2="770" y2="400" stroke="#e5e7eb" stroke-width="1"/><text x="52" y="404" text-anchor="end" font-family="'Noto Sans JP',sans-serif" font-size="11" fill="#6b7280">20</text>
  <line x1="60" y1="320" x2="770" y2="320" stroke="#e5e7eb" stroke-width="1"/><text x="52" y="324" text-anchor="end" font-family="'Noto Sans JP',sans-serif" font-size="11" fill="#6b7280">40</text>
  <line x1="60" y1="240" x2="770" y2="240" stroke="#e5e7eb" stroke-width="1"/><text x="52" y="244" text-anchor="end" font-family="'Noto Sans JP',sans-serif" font-size="11" fill="#6b7280">60</text>
  <line x1="60" y1="160" x2="770" y2="160" stroke="#e5e7eb" stroke-width="1"/><text x="52" y="164" text-anchor="end" font-family="'Noto Sans JP',sans-serif" font-size="11" fill="#6b7280">80</text>
  <line x1="60" y1="80" x2="770" y2="80" stroke="#e5e7eb" stroke-width="1"/><text x="52" y="84" text-anchor="end" font-family="'Noto Sans JP',sans-serif" font-size="11" fill="#6b7280">100</text>
  <text x="104.375" y="500" text-anchor="middle" font-family="'Noto Sans JP',sans-serif" font-size="12" font-weight="bold" fill="#374151">所得</text>
  <rect x="72.1" y="97.2" width="19.5" height="382.8" rx="2" fill="#2e7d32" opacity="0.85"/><text x="81.9" y="93.2" text-anchor="middle" font-family="'Noto Sans JP',sans-serif" font-size="9" fill="#2e7d32" font-weight="600">95.7</text>
  <rect x="94.6" y="114.8" width="19.5" height="365.2" rx="2" fill="#1565c0" opacity="0.85"/><text x="104.4" y="110.8" text-anchor="middle" font-family="'Noto Sans JP',sans-serif" font-size="9" fill="#1565c0" font-weight="600">91.3</text>
  <rect x="117.1" y="306.0" width="19.5" height="174.0" rx="2" fill="#e65100" opacity="0.85"/><text x="126.9" y="302.0" text-anchor="middle" font-family="'Noto Sans JP',sans-serif" font-size="9" fill="#e65100" font-weight="600">43.5</text>
  <text x="193.125" y="500" text-anchor="middle" font-family="'Noto Sans JP',sans-serif" font-size="12" font-weight="bold" fill="#374151">治安</text>
  <rect x="160.8" y="166.8" width="19.5" height="313.2" rx="2" fill="#2e7d32" opacity="0.85"/><text x="170.6" y="162.8" text-anchor="middle" font-family="'Noto Sans JP',sans-serif" font-size="9" fill="#2e7d32" font-weight="600">78.3</text>
  <rect x="183.4" y="288.8" width="19.5" height="191.2" rx="2" fill="#1565c0" opacity="0.85"/><text x="193.1" y="284.8" text-anchor="middle" font-family="'Noto Sans JP',sans-serif" font-size="9" fill="#1565c0" font-weight="600">47.8</text>
  <rect x="205.9" y="97.2" width="19.5" height="382.8" rx="2" fill="#e65100" opacity="0.85"/><text x="215.6" y="93.2" text-anchor="middle" font-family="'Noto Sans JP',sans-serif" font-size="9" fill="#e65100" font-weight="600">95.7</text>
  <text x="281.875" y="500" text-anchor="middle" font-family="'Noto Sans JP',sans-serif" font-size="12" font-weight="bold" fill="#374151">医療</text>
  <rect x="249.6" y="201.6" width="19.5" height="278.4" rx="2" fill="#2e7d32" opacity="0.85"/><text x="259.4" y="197.6" text-anchor="middle" font-family="'Noto Sans JP',sans-serif" font-size="9" fill="#2e7d32" font-weight="600">69.6</text>
  <rect x="272.1" y="175.6" width="19.5" height="304.4" rx="2" fill="#1565c0" opacity="0.85"/><text x="281.9" y="171.6" text-anchor="middle" font-family="'Noto Sans JP',sans-serif" font-size="9" fill="#1565c0" font-weight="600">76.1</text>
  <rect x="294.6" y="306.0" width="19.5" height="174.0" rx="2" fill="#e65100" opacity="0.85"/><text x="304.4" y="302.0" text-anchor="middle" font-family="'Noto Sans JP',sans-serif" font-size="9" fill="#e65100" font-weight="600">43.5</text>
  <text x="370.625" y="500" text-anchor="middle" font-family="'Noto Sans JP',sans-serif" font-size="12" font-weight="bold" fill="#374151">持ち家</text>
  <rect x="338.3" y="132.0" width="19.5" height="348.0" rx="2" fill="#2e7d32" opacity="0.85"/><text x="348.1" y="128.0" text-anchor="middle" font-family="'Noto Sans JP',sans-serif" font-size="9" fill="#2e7d32" font-weight="600">87</text>
  <rect x="360.9" y="97.2" width="19.5" height="382.8" rx="2" fill="#1565c0" opacity="0.85"/><text x="370.6" y="93.2" text-anchor="middle" font-family="'Noto Sans JP',sans-serif" font-size="9" fill="#1565c0" font-weight="600">95.7</text>
  <rect x="383.4" y="201.6" width="19.5" height="278.4" rx="2" fill="#e65100" opacity="0.85"/><text x="393.1" y="197.6" text-anchor="middle" font-family="'Noto Sans JP',sans-serif" font-size="9" fill="#e65100" font-weight="600">69.6</text>
  <text x="459.375" y="500" text-anchor="middle" font-family="'Noto Sans JP',sans-serif" font-size="12" font-weight="bold" fill="#374151">家賃</text>
  <rect x="427.1" y="228.0" width="19.5" height="252.0" rx="2" fill="#2e7d32" opacity="0.85"/><text x="436.8" y="224.0" text-anchor="middle" font-family="'Noto Sans JP',sans-serif" font-size="9" fill="#2e7d32" font-weight="600">63</text>
  <rect x="449.6" y="193.2" width="19.5" height="286.8" rx="2" fill="#1565c0" opacity="0.85"/><text x="459.4" y="189.2" text-anchor="middle" font-family="'Noto Sans JP',sans-serif" font-size="9" fill="#1565c0" font-weight="600">71.7</text>
  <rect x="472.1" y="210.4" width="19.5" height="269.6" rx="2" fill="#e65100" opacity="0.85"/><text x="481.9" y="206.4" text-anchor="middle" font-family="'Noto Sans JP',sans-serif" font-size="9" fill="#e65100" font-weight="600">67.4</text>
  <text x="548.125" y="500" text-anchor="middle" font-family="'Noto Sans JP',sans-serif" font-size="12" font-weight="bold" fill="#374151">出生率</text>
  <rect x="515.8" y="123.6" width="19.5" height="356.4" rx="2" fill="#2e7d32" opacity="0.85"/><text x="525.6" y="119.6" text-anchor="middle" font-family="'Noto Sans JP',sans-serif" font-size="9" fill="#2e7d32" font-weight="600">89.1</text>
  <rect x="538.4" y="201.6" width="19.5" height="278.4" rx="2" fill="#1565c0" opacity="0.85"/><text x="548.1" y="197.6" text-anchor="middle" font-family="'Noto Sans JP',sans-serif" font-size="9" fill="#1565c0" font-weight="600">69.6</text>
  <rect x="560.9" y="123.6" width="19.5" height="356.4" rx="2" fill="#e65100" opacity="0.85"/><text x="570.6" y="119.6" text-anchor="middle" font-family="'Noto Sans JP',sans-serif" font-size="9" fill="#e65100" font-weight="600">89.1</text>
  <text x="636.875" y="500" text-anchor="middle" font-family="'Noto Sans JP',sans-serif" font-size="12" font-weight="bold" fill="#374151">失業率</text>
  <rect x="604.6" y="88.8" width="19.5" height="391.2" rx="2" fill="#2e7d32" opacity="0.85"/><text x="614.4" y="84.8" text-anchor="middle" font-family="'Noto Sans JP',sans-serif" font-size="9" fill="#2e7d32" font-weight="600">97.8</text>
  <rect x="627.1" y="106.0" width="19.5" height="374.0" rx="2" fill="#1565c0" opacity="0.85"/><text x="636.9" y="102.0" text-anchor="middle" font-family="'Noto Sans JP',sans-serif" font-size="9" fill="#1565c0" font-weight="600">93.5</text>
  <rect x="649.6" y="80.0" width="19.5" height="400.0" rx="2" fill="#e65100" opacity="0.85"/><text x="659.4" y="76.0" text-anchor="middle" font-family="'Noto Sans JP',sans-serif" font-size="9" fill="#e65100" font-weight="600">100</text>
  <text x="725.625" y="500" text-anchor="middle" font-family="'Noto Sans JP',sans-serif" font-size="12" font-weight="bold" fill="#374151">気候</text>
  <rect x="693.3" y="245.2" width="19.5" height="234.8" rx="2" fill="#2e7d32" opacity="0.85"/><text x="703.1" y="241.2" text-anchor="middle" font-family="'Noto Sans JP',sans-serif" font-size="9" fill="#2e7d32" font-weight="600">58.7</text>
  <rect x="715.9" y="166.8" width="19.5" height="313.2" rx="2" fill="#1565c0" opacity="0.85"/><text x="725.6" y="162.8" text-anchor="middle" font-family="'Noto Sans JP',sans-serif" font-size="9" fill="#1565c0" font-weight="600">78.3</text>
  <rect x="738.4" y="219.2" width="19.5" height="260.8" rx="2" fill="#e65100" opacity="0.85"/><text x="748.1" y="215.2" text-anchor="middle" font-family="'Noto Sans JP',sans-serif" font-size="9" fill="#e65100" font-weight="600">65.2</text>
  <line x1="60" y1="80" x2="60" y2="480" stroke="#9ca3af" stroke-width="1.5"/><line x1="60" y1="480" x2="770" y2="480" stroke="#9ca3af" stroke-width="1.5"/>
  <text x="18" y="280" text-anchor="middle" font-family="'Noto Sans JP',sans-serif" font-size="11" fill="#6b7280" transform="rotate(-90, 18, 280)">パーセンタイルスコア</text>
  <text x="400" y="530" text-anchor="middle" font-family="'Noto Sans JP',sans-serif" font-size="10" fill="#9ca3af">出典：e-Stat 各統計（2020〜2024年度）をstats47で総合スコア化</text>
</svg>