<svg xmlns="http://www.w3.org/2000/svg" viewBox="0 0 680 372" width="680" height="372" font-family="system-ui,sans-serif">
  <style>
    .svg-bg { fill: #ffffff; }
    .svg-title { fill: #0f172a; }
    .svg-label { fill: #1e293b; }
    .svg-value { fill: #475569; }
    .svg-grid { stroke: #cbd5e1; }
    @media (prefers-color-scheme: dark) {
      .svg-bg { fill: #0b1220; }
      .svg-title { fill: #f1f5f9; }
      .svg-label { fill: #e2e8f0; }
      .svg-value { fill: #cbd5e1; }
      .svg-grid { stroke: #475569; }
    }
  </style>
  <rect x="0" y="0" width="680" height="372" class="svg-bg"/>
  <title>太陽光発電住宅数 上位5・下位5（2023年）</title>
  <text x="340" y="28" text-anchor="middle" font-size="15" font-weight="bold" class="svg-title">太陽光発電住宅数 上位5・下位5（2023年）</text>
  <rect x="96" y="50" width="430.0" height="24" fill="#2563eb" rx="2"/>
  <text x="90" y="67" text-anchor="end" font-size="12" class="svg-label">愛知</text>
  <text x="532.0" y="67" text-anchor="start" font-size="11" class="svg-value">208,300戸 (1位)</text>
  <rect x="96" y="80" width="309.9" height="24" fill="#2563eb" rx="2"/>
  <text x="90" y="97" text-anchor="end" font-size="12" class="svg-label">埼玉</text>
  <text x="411.9" y="97" text-anchor="start" font-size="11" class="svg-value">150,100戸 (2位)</text>
  <rect x="96" y="110" width="268.4" height="24" fill="#2563eb" rx="2"/>
  <text x="90" y="127" text-anchor="end" font-size="12" class="svg-label">静岡</text>
  <text x="370.4" y="127" text-anchor="start" font-size="11" class="svg-value">130,000戸 (3位)</text>
  <rect x="96" y="140" width="266.3" height="24" fill="#2563eb" rx="2"/>
  <text x="90" y="157" text-anchor="end" font-size="12" class="svg-label">東京</text>
  <text x="368.3" y="157" text-anchor="start" font-size="11" class="svg-value">129,000戸 (4位)</text>
  <rect x="96" y="170" width="262.0" height="24" fill="#2563eb" rx="2"/>
  <text x="90" y="187" text-anchor="end" font-size="12" class="svg-label">神奈川</text>
  <text x="364.0" y="187" text-anchor="start" font-size="11" class="svg-value">126,900戸 (5位)</text>
  <line x1="96" y1="197" x2="606" y2="197" class="svg-grid" stroke-width="1" stroke-dasharray="4,3"/>
  <rect x="96" y="208" width="31.0" height="24" fill="#ea580c" rx="2"/>
  <text x="90" y="225" text-anchor="end" font-size="12" class="svg-label">石川</text>
  <text x="133.0" y="225" text-anchor="start" font-size="11" class="svg-value">15,000戸 (43位)</text>
  <rect x="96" y="238" width="28.7" height="24" fill="#ea580c" rx="2"/>
  <text x="90" y="255" text-anchor="end" font-size="12" class="svg-label">青森</text>
  <text x="130.7" y="255" text-anchor="start" font-size="11" class="svg-value">13,900戸 (44位)</text>
  <rect x="96" y="268" width="26.4" height="24" fill="#ea580c" rx="2"/>
  <text x="90" y="285" text-anchor="end" font-size="12" class="svg-label">福井</text>
  <text x="128.4" y="285" text-anchor="start" font-size="11" class="svg-value">12,800戸 (45位)</text>
  <rect x="96" y="298" width="23.7" height="24" fill="#ea580c" rx="2"/>
  <text x="90" y="315" text-anchor="end" font-size="12" class="svg-label">鳥取</text>
  <text x="125.7" y="315" text-anchor="start" font-size="11" class="svg-value">11,500戸 (46位)</text>
  <rect x="96" y="328" width="17.3" height="24" fill="#ea580c" rx="2"/>
  <text x="90" y="345" text-anchor="end" font-size="12" class="svg-label">秋田</text>
  <text x="119.3" y="345" text-anchor="start" font-size="11" class="svg-value">8,400戸 (47位)</text>
</svg>
