<svg xmlns="http://www.w3.org/2000/svg" viewBox="0 0 500 430" font-family="'Hiragino Sans', 'Noto Sans JP', sans-serif"><rect width="500" height="430" fill="#fafafa"/><rect x="130" y="60" width="320" height="330" fill="white" stroke="#e2e8f0" stroke-width="1"/><text x="250" y="28" text-anchor="middle" font-size="15" font-weight="bold" fill="#1e293b">品目別 地域格差の大きさ</text><text x="250" y="48" text-anchor="middle" font-size="11" fill="#64748b">各県の消費額 ÷ 全国平均 ── 家計調査2024年</text><line x1="130" y1="60" x2="130" y2="390" stroke="#e2e8f0" stroke-width="0.5" /><text x="130" y="406" text-anchor="middle" font-size="10" fill="#94a3b8">0倍</text><line x1="194" y1="60" x2="194" y2="390" stroke="#e2e8f0" stroke-width="0.5" stroke-dasharray="4,3"/><text x="194" y="406" text-anchor="middle" font-size="10" fill="#94a3b8">2倍</text><line x1="258" y1="60" x2="258" y2="390" stroke="#e2e8f0" stroke-width="0.5" stroke-dasharray="4,3"/><text x="258" y="406" text-anchor="middle" font-size="10" fill="#94a3b8">4倍</text><line x1="322" y1="60" x2="322" y2="390" stroke="#e2e8f0" stroke-width="0.5" stroke-dasharray="4,3"/><text x="322" y="406" text-anchor="middle" font-size="10" fill="#94a3b8">6倍</text><line x1="386" y1="60" x2="386" y2="390" stroke="#e2e8f0" stroke-width="0.5" stroke-dasharray="4,3"/><text x="386" y="406" text-anchor="middle" font-size="10" fill="#94a3b8">8倍</text><line x1="450" y1="60" x2="450" y2="390" stroke="#e2e8f0" stroke-width="0.5" stroke-dasharray="4,3"/><text x="450" y="406" text-anchor="middle" font-size="10" fill="#94a3b8">10倍</text><line x1="162" y1="60" x2="162" y2="390" stroke="#94a3b8" stroke-width="1" stroke-dasharray="4,3"/><text x="162" y="406" text-anchor="middle" font-size="9" fill="#94a3b8">1×</text><rect x="130" y="70" width="278.4" height="30" fill="#dc2626" rx="3" opacity="0.85"/><text x="122" y="89" text-anchor="end" font-size="11.5" fill="#475569">埼玉の教育費</text><text x="414.4" y="90" text-anchor="start" font-size="13" font-weight="bold" fill="#dc2626">8.7倍</text><rect x="130" y="110" width="233.6" height="30" fill="#f97316" rx="3" opacity="0.85"/><text x="122" y="129" text-anchor="end" font-size="11.5" fill="#475569">長崎のカステラ</text><text x="369.6" y="130" text-anchor="start" font-size="13" font-weight="bold" fill="#f97316">7.3倍</text><rect x="130" y="150" width="201.6" height="30" fill="#f97316" rx="3" opacity="0.85"/><text x="122" y="169" text-anchor="end" font-size="11.5" fill="#475569">福島の桃</text><text x="337.6" y="170" text-anchor="start" font-size="13" font-weight="bold" fill="#f97316">6.3倍</text><rect x="130" y="190" width="198.4" height="30" fill="#3b82f6" rx="3" opacity="0.85"/><text x="122" y="209" text-anchor="end" font-size="11.5" fill="#475569">青森の灯油</text><text x="334.4" y="210" text-anchor="start" font-size="13" font-weight="bold" fill="#3b82f6">6.2倍</text><rect x="130" y="230" width="144" height="30" fill="#f97316" rx="3" opacity="0.85"/><text x="122" y="249" text-anchor="end" font-size="11.5" fill="#475569">高知のかつお</text><text x="280" y="250" text-anchor="start" font-size="13" font-weight="bold" fill="#f97316">4.5倍</text><rect x="130" y="270" width="99.2" height="30" fill="#f97316" rx="3" opacity="0.85"/><text x="122" y="289" text-anchor="end" font-size="11.5" fill="#475569">鳥取のかに</text><text x="235.2" y="290" text-anchor="start" font-size="13" font-weight="bold" fill="#f97316">3.1倍</text><rect x="130" y="310" width="83.2" height="30" fill="#f97316" rx="3" opacity="0.85"/><text x="122" y="329" text-anchor="end" font-size="11.5" fill="#475569">山形のラーメン</text><text x="219.2" y="330" text-anchor="start" font-size="13" font-weight="bold" fill="#f97316">2.6倍</text><rect x="130" y="350" width="60.8" height="30" fill="#8b5cf6" rx="3" opacity="0.85"/><text x="122" y="369" text-anchor="end" font-size="11.5" fill="#475569">栃木の自動車</text><text x="196.8" y="370" text-anchor="start" font-size="13" font-weight="bold" fill="#8b5cf6">1.9倍</text><rect x="352" y="290" width="98" height="88" fill="white" stroke="#e2e8f0" rx="4"/><rect x="360" y="298" width="12" height="12" fill="#f97316" rx="2" opacity="0.85"/><text x="378" y="308" font-size="10" fill="#64748b">食品・飲料</text><rect x="360" y="318" width="12" height="12" fill="#3b82f6" rx="2" opacity="0.85"/><text x="378" y="328" font-size="10" fill="#64748b">光熱費</text><rect x="360" y="338" width="12" height="12" fill="#dc2626" rx="2" opacity="0.85"/><text x="378" y="348" font-size="10" fill="#64748b">教育</text><rect x="360" y="358" width="12" height="12" fill="#8b5cf6" rx="2" opacity="0.85"/><text x="378" y="368" font-size="10" fill="#64748b">交通</text><text x="250" y="418" text-anchor="middle" font-size="10" fill="#94a3b8">家計調査（2024年）二人以上の世帯 ── stats47.jp</text></svg>