<svg width="600" height="700" viewBox="0 0 600 700" xmlns="http://www.w3.org/2000/svg" font-family="'Noto Sans JP',sans-serif" role="img" aria-label="未婚率（30-34歳・男）都道府県マップ">
<rect width="600" height="700" fill="#fafafa"/>
<text x="300" y="28" text-anchor="middle" font-size="16" font-weight="bold" fill="#333">未婚率（30〜34歳・男性）都道府県マップ</text>
<g aria-label="北海道 43.6%"><title>北海道：43.6%</title><rect x="491" y="45" width="74" height="74" rx="3" fill="#9cd0fa" stroke="#ffffff" stroke-width="1"/><text fill="#374151" text-anchor="middle"><tspan x="528" y="80" font-size="9" font-weight="700">北海道</tspan><tspan x="528" y="93" font-size="7">43.6</tspan></text></g>
<g aria-label="青森 51.4%"><title>青森：51.4%</title><rect x="491" y="159" width="74" height="36" rx="3" fill="#0e4ca6" stroke="#ffffff" stroke-width="1"/><text fill="#ffffff" text-anchor="middle"><tspan x="528" y="175" font-size="9" font-weight="700">青森</tspan><tspan x="528" y="188" font-size="7">51.4</tspan></text></g>
<g aria-label="岩手 49.6%"><title>岩手：49.6%</title><rect x="529" y="197" width="36" height="36" rx="3" fill="#1461bc" stroke="#ffffff" stroke-width="1"/><text fill="#ffffff" text-anchor="middle"><tspan x="547" y="213" font-size="8" font-weight="700">岩手</tspan><tspan x="547" y="226" font-size="7">49.6</tspan></text></g>
<g aria-label="秋田 51.8%"><title>秋田：51.8%</title><rect x="491" y="197" width="36" height="36" rx="3" fill="#0d47a1" stroke="#ffffff" stroke-width="1"/><text fill="#ffffff" text-anchor="middle"><tspan x="509" y="213" font-size="8" font-weight="700">秋田</tspan><tspan x="509" y="226" font-size="7">51.8</tspan></text></g>
<g aria-label="宮城 45.3%"><title>宮城：45.3%</title><rect x="529" y="235" width="36" height="36" rx="3" fill="#71bbf7" stroke="#ffffff" stroke-width="1"/><text fill="#374151" text-anchor="middle"><tspan x="547" y="251" font-size="8" font-weight="700">宮城</tspan><tspan x="547" y="264" font-size="7">45.3</tspan></text></g>
<g aria-label="山形 48%"><title>山形：48%</title><rect x="491" y="235" width="36" height="36" rx="3" fill="#2c86dc" stroke="#ffffff" stroke-width="1"/><text fill="#ffffff" text-anchor="middle"><tspan x="509" y="251" font-size="8" font-weight="700">山形</tspan><tspan x="509" y="264" font-size="7">48</tspan></text></g>
<g aria-label="福島 48.2%"><title>福島：48.2%</title><rect x="491" y="273" width="74" height="36" rx="3" fill="#2981d7" stroke="#ffffff" stroke-width="1"/><text fill="#ffffff" text-anchor="middle"><tspan x="528" y="289" font-size="9" font-weight="700">福島</tspan><tspan x="528" y="302" font-size="7">48.2</tspan></text></g>
<g aria-label="新潟 49.5%"><title>新潟：49.5%</title><rect x="415" y="273" width="74" height="36" rx="3" fill="#1463be" stroke="#ffffff" stroke-width="1"/><text fill="#ffffff" text-anchor="middle"><tspan x="452" y="289" font-size="9" font-weight="700">新潟</tspan><tspan x="452" y="302" font-size="7">49.5</tspan></text></g>
<g aria-label="富山 48.7%"><title>富山：48.7%</title><rect x="377" y="273" width="36" height="36" rx="3" fill="#2074cd" stroke="#ffffff" stroke-width="1"/><text fill="#ffffff" text-anchor="middle"><tspan x="395" y="289" font-size="8" font-weight="700">富山</tspan><tspan x="395" y="302" font-size="7">48.7</tspan></text></g>
<g aria-label="石川 43.5%"><title>石川：43.5%</title><rect x="339" y="273" width="36" height="36" rx="3" fill="#9ed0fa" stroke="#ffffff" stroke-width="1"/><text fill="#374151" text-anchor="middle"><tspan x="357" y="289" font-size="8" font-weight="700">石川</tspan><tspan x="357" y="302" font-size="7">43.5</tspan></text></g>
<g aria-label="福井 46.8%"><title>福井：46.8%</title><rect x="339" y="311" width="36" height="36" rx="3" fill="#42a5f5" stroke="#ffffff" stroke-width="1"/><text fill="#ffffff" text-anchor="middle"><tspan x="357" y="327" font-size="8" font-weight="700">福井</tspan><tspan x="357" y="340" font-size="7">46.8</tspan></text></g>
<g aria-label="岐阜 46.5%"><title>岐阜：46.5%</title><rect x="377" y="311" width="36" height="74" rx="3" fill="#4ba9f5" stroke="#ffffff" stroke-width="1"/><text fill="#ffffff" text-anchor="middle"><tspan x="395" y="346" font-size="8" font-weight="700">岐阜</tspan><tspan x="395" y="359" font-size="7">46.5</tspan></text></g>
<g aria-label="長野 47.8%"><title>長野：47.8%</title><rect x="415" y="311" width="36" height="74" rx="3" fill="#308be0" stroke="#ffffff" stroke-width="1"/><text fill="#ffffff" text-anchor="middle"><tspan x="433" y="346" font-size="8" font-weight="700">長野</tspan><tspan x="433" y="359" font-size="7">47.8</tspan></text></g>
<g aria-label="群馬 48.8%"><title>群馬：48.8%</title><rect x="453" y="311" width="36" height="36" rx="3" fill="#1e72cb" stroke="#ffffff" stroke-width="1"/><text fill="#ffffff" text-anchor="middle"><tspan x="471" y="327" font-size="8" font-weight="700">群馬</tspan><tspan x="471" y="340" font-size="7">48.8</tspan></text></g>
<g aria-label="栃木 47.9%"><title>栃木：47.9%</title><rect x="491" y="311" width="36" height="36" rx="3" fill="#2e89de" stroke="#ffffff" stroke-width="1"/><text fill="#ffffff" text-anchor="middle"><tspan x="509" y="327" font-size="8" font-weight="700">栃木</tspan><tspan x="509" y="340" font-size="7">47.9</tspan></text></g>
<g aria-label="茨城 48.8%"><title>茨城：48.8%</title><rect x="529" y="311" width="36" height="36" rx="3" fill="#1e72cb" stroke="#ffffff" stroke-width="1"/><text fill="#ffffff" text-anchor="middle"><tspan x="547" y="327" font-size="8" font-weight="700">茨城</tspan><tspan x="547" y="340" font-size="7">48.8</tspan></text></g>
<g aria-label="山梨 49%"><title>山梨：49%</title><rect x="453" y="349" width="36" height="36" rx="3" fill="#1a6dc6" stroke="#ffffff" stroke-width="1"/><text fill="#ffffff" text-anchor="middle"><tspan x="471" y="365" font-size="8" font-weight="700">山梨</tspan><tspan x="471" y="378" font-size="7">49</tspan></text></g>
<g aria-label="埼玉 46%"><title>埼玉：46%</title><rect x="491" y="349" width="36" height="36" rx="3" fill="#5bb1f6" stroke="#ffffff" stroke-width="1"/><text fill="#374151" text-anchor="middle"><tspan x="509" y="365" font-size="8" font-weight="700">埼玉</tspan><tspan x="509" y="378" font-size="7">46</tspan></text></g>
<g aria-label="千葉 44.2%"><title>千葉：44.2%</title><rect x="529" y="349" width="36" height="74" rx="3" fill="#92cbf9" stroke="#ffffff" stroke-width="1"/><text fill="#374151" text-anchor="middle"><tspan x="547" y="384" font-size="8" font-weight="700">千葉</tspan><tspan x="547" y="397" font-size="7">44.2</tspan></text></g>
<g aria-label="東京 39.9%"><title>東京：39.9%</title><rect x="491" y="387" width="36" height="36" rx="3" fill="#d9edfd" stroke="#ffffff" stroke-width="1"/><text fill="#374151" text-anchor="middle"><tspan x="509" y="403" font-size="8" font-weight="700">東京</tspan><tspan x="509" y="416" font-size="7">39.9</tspan></text></g>
<g aria-label="神奈川 43.9%"><title>神奈川：43.9%</title><rect x="491" y="425" width="36" height="36" rx="3" fill="#97cdf9" stroke="#ffffff" stroke-width="1"/><text fill="#374151" text-anchor="middle"><tspan x="509" y="441" font-size="8" font-weight="700">神奈川</tspan><tspan x="509" y="454" font-size="7">43.9</tspan></text></g>
<g aria-label="静岡 47.4%"><title>静岡：47.4%</title><rect x="415" y="387" width="74" height="36" rx="3" fill="#3796e8" stroke="#ffffff" stroke-width="1"/><text fill="#ffffff" text-anchor="middle"><tspan x="452" y="403" font-size="9" font-weight="700">静岡</tspan><tspan x="452" y="416" font-size="7">47.4</tspan></text></g>
<g aria-label="愛知 42.5%"><title>愛知：42.5%</title><rect x="377" y="387" width="36" height="36" rx="3" fill="#afd8fa" stroke="#ffffff" stroke-width="1"/><text fill="#374151" text-anchor="middle"><tspan x="395" y="403" font-size="8" font-weight="700">愛知</tspan><tspan x="395" y="416" font-size="7">42.5</tspan></text></g>
<g aria-label="滋賀 42.9%"><title>滋賀：42.9%</title><rect x="339" y="349" width="36" height="36" rx="3" fill="#a8d5fa" stroke="#ffffff" stroke-width="1"/><text fill="#374151" text-anchor="middle"><tspan x="357" y="365" font-size="8" font-weight="700">滋賀</tspan><tspan x="357" y="378" font-size="7">42.9</tspan></text></g>
<g aria-label="三重 45.1%"><title>三重：45.1%</title><rect x="339" y="387" width="36" height="74" rx="3" fill="#77bef8" stroke="#ffffff" stroke-width="1"/><text fill="#374151" text-anchor="middle"><tspan x="357" y="422" font-size="8" font-weight="700">三重</tspan><tspan x="357" y="435" font-size="7">45.1</tspan></text></g>
<g aria-label="京都 44.7%"><title>京都：44.7%</title><rect x="263" y="349" width="74" height="36" rx="3" fill="#84c4f8" stroke="#ffffff" stroke-width="1"/><text fill="#374151" text-anchor="middle"><tspan x="300" y="365" font-size="9" font-weight="700">京都</tspan><tspan x="300" y="378" font-size="7">44.7</tspan></text></g>
<g aria-label="兵庫 42.3%"><title>兵庫：42.3%</title><rect x="225" y="349" width="36" height="74" rx="3" fill="#b2dafb" stroke="#ffffff" stroke-width="1"/><text fill="#374151" text-anchor="middle"><tspan x="243" y="384" font-size="8" font-weight="700">兵庫</tspan><tspan x="243" y="397" font-size="7">42.3</tspan></text></g>
<g aria-label="大阪 39.3%"><title>大阪：39.3%</title><rect x="263" y="387" width="36" height="36" rx="3" fill="#e3f2fd" stroke="#ffffff" stroke-width="1"/><text fill="#374151" text-anchor="middle"><tspan x="281" y="403" font-size="8" font-weight="700">大阪</tspan><tspan x="281" y="416" font-size="7">39.3</tspan></text></g>
<g aria-label="奈良 45.8%"><title>奈良：45.8%</title><rect x="301" y="387" width="36" height="36" rx="3" fill="#61b4f7" stroke="#ffffff" stroke-width="1"/><text fill="#374151" text-anchor="middle"><tspan x="319" y="403" font-size="8" font-weight="700">奈良</tspan><tspan x="319" y="416" font-size="7">45.8</tspan></text></g>
<g aria-label="和歌山 45.4%"><title>和歌山：45.4%</title><rect x="263" y="425" width="74" height="36" rx="3" fill="#6ebaf7" stroke="#ffffff" stroke-width="1"/><text fill="#374151" text-anchor="middle"><tspan x="300" y="441" font-size="9" font-weight="700">和歌山</tspan><tspan x="300" y="454" font-size="7">45.4</tspan></text></g>
<g aria-label="鳥取 47.2%"><title>鳥取：47.2%</title><rect x="187" y="349" width="36" height="36" rx="3" fill="#3b9bed" stroke="#ffffff" stroke-width="1"/><text fill="#ffffff" text-anchor="middle"><tspan x="205" y="365" font-size="8" font-weight="700">鳥取</tspan><tspan x="205" y="378" font-size="7">47.2</tspan></text></g>
<g aria-label="岡山 43.8%"><title>岡山：43.8%</title><rect x="187" y="387" width="36" height="36" rx="3" fill="#99cef9" stroke="#ffffff" stroke-width="1"/><text fill="#374151" text-anchor="middle"><tspan x="205" y="403" font-size="8" font-weight="700">岡山</tspan><tspan x="205" y="416" font-size="7">43.8</tspan></text></g>
<g aria-label="島根 44.2%"><title>島根：44.2%</title><rect x="149" y="349" width="36" height="36" rx="3" fill="#92cbf9" stroke="#ffffff" stroke-width="1"/><text fill="#374151" text-anchor="middle"><tspan x="167" y="365" font-size="8" font-weight="700">島根</tspan><tspan x="167" y="378" font-size="7">44.2</tspan></text></g>
<g aria-label="広島 41.6%"><title>広島：41.6%</title><rect x="149" y="387" width="36" height="36" rx="3" fill="#bee0fb" stroke="#ffffff" stroke-width="1"/><text fill="#374151" text-anchor="middle"><tspan x="167" y="403" font-size="8" font-weight="700">広島</tspan><tspan x="167" y="416" font-size="7">41.6</tspan></text></g>
<g aria-label="山口 44.5%"><title>山口：44.5%</title><rect x="111" y="349" width="36" height="74" rx="3" fill="#8ac7f9" stroke="#ffffff" stroke-width="1"/><text fill="#374151" text-anchor="middle"><tspan x="129" y="384" font-size="8" font-weight="700">山口</tspan><tspan x="129" y="397" font-size="7">44.5</tspan></text></g>
<g aria-label="愛媛 43.6%"><title>愛媛：43.6%</title><rect x="149" y="463" width="36" height="36" rx="3" fill="#9cd0fa" stroke="#ffffff" stroke-width="1"/><text fill="#374151" text-anchor="middle"><tspan x="167" y="479" font-size="8" font-weight="700">愛媛</tspan><tspan x="167" y="492" font-size="7">43.6</tspan></text></g>
<g aria-label="香川 43.5%"><title>香川：43.5%</title><rect x="187" y="463" width="36" height="36" rx="3" fill="#9ed0fa" stroke="#ffffff" stroke-width="1"/><text fill="#374151" text-anchor="middle"><tspan x="205" y="479" font-size="8" font-weight="700">香川</tspan><tspan x="205" y="492" font-size="7">43.5</tspan></text></g>
<g aria-label="高知 48.9%"><title>高知：48.9%</title><rect x="149" y="501" width="36" height="36" rx="3" fill="#1c6fc8" stroke="#ffffff" stroke-width="1"/><text fill="#ffffff" text-anchor="middle"><tspan x="167" y="517" font-size="8" font-weight="700">高知</tspan><tspan x="167" y="530" font-size="7">48.9</tspan></text></g>
<g aria-label="徳島 49.7%"><title>徳島：49.7%</title><rect x="187" y="501" width="36" height="36" rx="3" fill="#1460bb" stroke="#ffffff" stroke-width="1"/><text fill="#ffffff" text-anchor="middle"><tspan x="205" y="517" font-size="8" font-weight="700">徳島</tspan><tspan x="205" y="530" font-size="7">49.7</tspan></text></g>
<g aria-label="福岡 40.8%"><title>福岡：40.8%</title><rect x="73" y="425" width="36" height="36" rx="3" fill="#cbe6fc" stroke="#ffffff" stroke-width="1"/><text fill="#374151" text-anchor="middle"><tspan x="91" y="441" font-size="8" font-weight="700">福岡</tspan><tspan x="91" y="454" font-size="7">40.8</tspan></text></g>
<g aria-label="佐賀 44.4%"><title>佐賀：44.4%</title><rect x="35" y="425" width="36" height="36" rx="3" fill="#8dc9f9" stroke="#ffffff" stroke-width="1"/><text fill="#374151" text-anchor="middle"><tspan x="53" y="441" font-size="8" font-weight="700">佐賀</tspan><tspan x="53" y="454" font-size="7">44.4</tspan></text></g>
<g aria-label="大分 44.2%"><title>大分：44.2%</title><rect x="73" y="463" width="36" height="36" rx="3" fill="#92cbf9" stroke="#ffffff" stroke-width="1"/><text fill="#374151" text-anchor="middle"><tspan x="91" y="479" font-size="8" font-weight="700">大分</tspan><tspan x="91" y="492" font-size="7">44.2</tspan></text></g>
<g aria-label="長崎 41.7%"><title>長崎：41.7%</title><rect x="35" y="463" width="36" height="36" rx="3" fill="#bddffb" stroke="#ffffff" stroke-width="1"/><text fill="#374151" text-anchor="middle"><tspan x="53" y="479" font-size="8" font-weight="700">長崎</tspan><tspan x="53" y="492" font-size="7">41.7</tspan></text></g>
<g aria-label="宮崎 40.2%"><title>宮崎：40.2%</title><rect x="73" y="501" width="36" height="36" rx="3" fill="#d5ebfc" stroke="#ffffff" stroke-width="1"/><text fill="#374151" text-anchor="middle"><tspan x="91" y="517" font-size="8" font-weight="700">宮崎</tspan><tspan x="91" y="530" font-size="7">40.2</tspan></text></g>
<g aria-label="熊本 41.9%"><title>熊本：41.9%</title><rect x="35" y="501" width="36" height="36" rx="3" fill="#b9ddfb" stroke="#ffffff" stroke-width="1"/><text fill="#374151" text-anchor="middle"><tspan x="53" y="517" font-size="8" font-weight="700">熊本</tspan><tspan x="53" y="530" font-size="7">41.9</tspan></text></g>
<g aria-label="鹿児島 41.2%"><title>鹿児島：41.2%</title><rect x="35" y="539" width="74" height="36" rx="3" fill="#c5e3fb" stroke="#ffffff" stroke-width="1"/><text fill="#374151" text-anchor="middle"><tspan x="72" y="555" font-size="9" font-weight="700">鹿児島</tspan><tspan x="72" y="568" font-size="7">41.2</tspan></text></g>
<g aria-label="沖縄 42%"><title>沖縄：42%</title><rect x="35" y="615" width="36" height="36" rx="3" fill="#b8dcfb" stroke="#ffffff" stroke-width="1"/><text fill="#374151" text-anchor="middle"><tspan x="53" y="631" font-size="8" font-weight="700">沖縄</tspan><tspan x="53" y="644" font-size="7">42</tspan></text></g>
<text x="400" y="647" font-size="9" fill="#6b7280">低い</text><text x="560" y="647" font-size="9" fill="#6b7280" text-anchor="end">高い</text><rect x="400" y="655" width="26.666666666666668" height="10" fill="#e3f2fd"/><rect x="426.6666666666667" y="655" width="26.666666666666668" height="10" fill="#bbdefb"/><rect x="453.3333333333333" y="655" width="26.666666666666668" height="10" fill="#90caf9"/><rect x="480" y="655" width="26.666666666666668" height="10" fill="#42a5f5"/><rect x="506.6666666666667" y="655" width="26.666666666666668" height="10" fill="#1565c0"/><rect x="533.3333333333334" y="655" width="26.666666666666668" height="10" fill="#0d47a1"/><text x="400" y="677" font-size="8" fill="#6b7280">39.3%</text><text x="560" y="677" font-size="8" fill="#6b7280" text-anchor="end">51.8%</text></svg>