<svg width="780" height="615" viewBox="0 0 780 615" xmlns="http://www.w3.org/2000/svg" font-family="'Noto Sans JP',sans-serif" role="img" aria-label="製造品出荷額 上位10 + 下位10都道府県">
  <rect width="780" height="615" fill="#fafafa" rx="8"/>
  <text x="390" y="28" text-anchor="middle" font-size="16" font-weight="bold" fill="#333">製造品出荷額 上位10 + 下位10都道府県（2023年）</text>
  <line x1="80" y1="45" x2="80" y2="605" stroke="#e5e7eb" stroke-width="0.5"/>
  <text x="80" y="615" text-anchor="middle" font-size="9" fill="#6b7280">0</text>
  <line x1="179.96244686629706" y1="45" x2="179.96244686629706" y2="605" stroke="#e5e7eb" stroke-width="0.5"/>
  <text x="179.96244686629706" y="615" text-anchor="middle" font-size="9" fill="#6b7280">10兆</text>
  <line x1="279.9248937325941" y1="45" x2="279.9248937325941" y2="605" stroke="#e5e7eb" stroke-width="0.5"/>
  <text x="279.9248937325941" y="615" text-anchor="middle" font-size="9" fill="#6b7280">20兆</text>
  <line x1="379.8873405988912" y1="45" x2="379.8873405988912" y2="605" stroke="#e5e7eb" stroke-width="0.5"/>
  <text x="379.8873405988912" y="615" text-anchor="middle" font-size="9" fill="#6b7280">30兆</text>
  <line x1="479.8497874651883" y1="45" x2="479.8497874651883" y2="605" stroke="#e5e7eb" stroke-width="0.5"/>
  <text x="479.8497874651883" y="615" text-anchor="middle" font-size="9" fill="#6b7280">40兆</text>
  <line x1="579.8122343314853" y1="45" x2="579.8122343314853" y2="605" stroke="#e5e7eb" stroke-width="0.5"/>
  <text x="579.8122343314853" y="615" text-anchor="middle" font-size="9" fill="#6b7280">50兆</text>
  <text x="72" y="60.84" text-anchor="end" font-size="11" fill="#374151" font-weight="bold">愛知</text>
  <rect x="80" y="45" width="580" height="22" rx="3" fill="#1e40af" opacity="0.85"/>
  <text x="666" y="60.84" font-size="10" fill="#374151">58.0兆円</text>
  <text x="72" y="86.84" text-anchor="end" font-size="11" fill="#374151" font-weight="bold">静岡</text>
  <rect x="80" y="71" width="197.6582352536562" height="22" rx="3" fill="#1e40af" opacity="0.85"/>
  <text x="283.6582352536562" y="86.84" font-size="10" fill="#374151">19.8兆円</text>
  <text x="72" y="112.84" text-anchor="end" font-size="11" fill="#374151" font-weight="bold">大阪</text>
  <rect x="80" y="97" width="193.35746093592527" height="22" rx="3" fill="#2563eb" opacity="0.85"/>
  <text x="279.35746093592525" y="112.84" font-size="10" fill="#374151">19.3兆円</text>
  <text x="72" y="138.84" text-anchor="end" font-size="11" fill="#374151" font-weight="normal">神奈川</text>
  <rect x="80" y="123" width="184.72517384805215" height="22" rx="3" fill="#2563eb" opacity="0.85"/>
  <text x="270.7251738480521" y="138.84" font-size="10" fill="#374151">18.5兆円</text>
  <text x="72" y="164.84" text-anchor="end" font-size="11" fill="#374151" font-weight="normal">兵庫</text>
  <rect x="80" y="149" width="184.5477804898432" height="22" rx="3" fill="#3b82f6" opacity="0.85"/>
  <text x="270.5477804898432" y="164.84" font-size="10" fill="#374151">18.5兆円</text>
  <text x="72" y="190.84" text-anchor="end" font-size="11" fill="#374151" font-weight="normal">埼玉</text>
  <rect x="80" y="175" width="153.23895235288248" height="22" rx="3" fill="#3b82f6" opacity="0.85"/>
  <text x="239.23895235288248" y="190.84" font-size="10" fill="#374151">15.3兆円</text>
  <text x="72" y="216.84" text-anchor="end" font-size="11" fill="#374151" font-weight="normal">千葉</text>
  <rect x="80" y="201" width="152.87409941806519" height="22" rx="3" fill="#60a5fa" opacity="0.85"/>
  <text x="238.87409941806519" y="216.84" font-size="10" fill="#374151">15.3兆円</text>
  <text x="72" y="242.84" text-anchor="end" font-size="11" fill="#374151" font-weight="normal">茨城</text>
  <rect x="80" y="227" width="150.0106751275801" height="22" rx="3" fill="#60a5fa" opacity="0.85"/>
  <text x="236.0106751275801" y="242.84" font-size="10" fill="#374151">15.0兆円</text>
  <text x="72" y="268.84" text-anchor="end" font-size="11" fill="#374151" font-weight="normal">三重</text>
  <rect x="80" y="253" width="123.06736698518552" height="22" rx="3" fill="#93c5fd" opacity="0.85"/>
  <text x="209.06736698518552" y="268.84" font-size="10" fill="#374151">12.3兆円</text>
  <text x="72" y="294.84" text-anchor="end" font-size="11" fill="#374151" font-weight="normal">福岡</text>
  <rect x="80" y="279" width="116.12369553100129" height="22" rx="3" fill="#93c5fd" opacity="0.85"/>
  <text x="202.1236955310013" y="294.84" font-size="10" fill="#374151">11.6兆円</text>
  <line x1="80" y1="310" x2="660" y2="310" stroke="#cbd5e1" stroke-width="1" stroke-dasharray="4,4"/>
  <text x="390" y="326" text-anchor="middle" font-size="10" fill="#94a3b8">── 下位10都道府県 ──</text>
  <text x="72" y="355.84" text-anchor="end" font-size="11" fill="#374151">沖縄</text>
  <rect x="80" y="340" width="5.065097182715272" height="22" rx="3" fill="#f59e0b" opacity="0.85"/>
  <text x="91.06509718271528" y="355.84" font-size="10" fill="#374151">47位 5,067億円</text>
  <text x="72" y="381.84" text-anchor="end" font-size="11" fill="#374151">高知</text>
  <rect x="80" y="366" width="6.537144175268364" height="22" rx="3" fill="#f59e0b" opacity="0.85"/>
  <text x="92.53714417526837" y="381.84" font-size="10" fill="#374151">46位 6,540億円</text>
  <text x="72" y="407.84" text-anchor="end" font-size="11" fill="#374151">鳥取</text>
  <rect x="80" y="392" width="8.86397005097516" height="22" rx="3" fill="#fbbf24" opacity="0.85"/>
  <text x="94.86397005097515" y="407.84" font-size="10" fill="#374151">45位 8,867億円</text>
  <text x="72" y="433.84" text-anchor="end" font-size="11" fill="#374151">島根</text>
  <rect x="80" y="418" width="13.833143269677535" height="22" rx="3" fill="#fbbf24" opacity="0.85"/>
  <text x="99.83314326967754" y="433.84" font-size="10" fill="#374151">44位 13,838億円</text>
  <text x="72" y="459.84" text-anchor="end" font-size="11" fill="#374151">秋田</text>
  <rect x="80" y="444" width="15.630228154461077" height="22" rx="3" fill="#fcd34d" opacity="0.85"/>
  <text x="101.63022815446108" y="459.84" font-size="10" fill="#374151">43位 15,636億円</text>
  <text x="72" y="485.84" text-anchor="end" font-size="11" fill="#374151">青森</text>
  <rect x="80" y="470" width="17.156604736886" height="22" rx="3" fill="#fcd34d" opacity="0.85"/>
  <text x="103.156604736886" y="485.84" font-size="10" fill="#374151">42位 17,163億円</text>
  <text x="72" y="511.84" text-anchor="end" font-size="11" fill="#374151">宮崎</text>
  <rect x="80" y="496" width="18.358193333197637" height="22" rx="3" fill="#fde68a" opacity="0.85"/>
  <text x="104.35819333319763" y="511.84" font-size="10" fill="#374151">41位 18,365億円</text>
  <text x="72" y="537.84" text-anchor="end" font-size="11" fill="#374151">長崎</text>
  <rect x="80" y="522" width="18.51040615104095" height="22" rx="3" fill="#fde68a" opacity="0.85"/>
  <text x="104.51040615104095" y="537.84" font-size="10" fill="#374151">40位 18,517億円</text>
  <text x="72" y="563.84" text-anchor="end" font-size="11" fill="#374151">奈良</text>
  <rect x="80" y="548" width="20.219244187730926" height="22" rx="3" fill="#fef3c7" opacity="0.85"/>
  <text x="106.21924418773092" y="563.84" font-size="10" fill="#374151">39位 20,227億円</text>
  <text x="72" y="589.84" text-anchor="end" font-size="11" fill="#374151">佐賀</text>
  <rect x="80" y="574" width="23.183300673476303" height="22" rx="3" fill="#fef3c7" opacity="0.85"/>
  <text x="109.18330067347631" y="589.84" font-size="10" fill="#374151">38位 23,192億円</text>
</svg>