<svg xmlns="http://www.w3.org/2000/svg" viewBox="0 0 800 450" font-family="'Hiragino Sans', 'Noto Sans JP', sans-serif">
  <rect width="800" height="450" fill="#fafafa"/>

  <!-- Title -->
  <text x="400" y="28" text-anchor="middle" font-size="17" font-weight="bold" fill="#1e293b">ビール vs ワイン ── お酒の好みに出る地域差</text>
  <text x="400" y="46" text-anchor="middle" font-size="11" fill="#94a3b8">家計調査（2024年）二人以上の世帯 年間支出額</text>

  <!-- ========== LEFT: ビール ========== -->
  <text x="195" y="72" text-anchor="middle" font-size="15" font-weight="bold" fill="#d97706">🍺 ビール</text>
  <text x="195" y="88" text-anchor="middle" font-size="10" fill="#94a3b8">1位 秋田 17,793円</text>

  <!-- Beer tile map - offset x=10, y=95, cell=24px -->
  <!-- Grid: x range 0-13, y range 0-15 → scale to fit left half -->
  <!-- cellSize=22, offsetX=15, offsetY=98 -->

  <!-- 北海道 (x12,y0,w2,h2) -->
  <rect x="279" y="98" width="42" height="42" fill="#fbbf24" rx="3"/><text x="300" y="124" text-anchor="middle" font-size="8" fill="#78350f">北海道</text>

  <!-- 青森 (x12,y3,w2) -->
  <rect x="279" y="164" width="42" height="20" fill="#d97706" rx="3"/><text x="300" y="178" text-anchor="middle" font-size="7" fill="white">青森</text>
  <!-- 岩手 (x13,y4) -->
  <rect x="301" y="186" width="20" height="20" fill="#b45309" rx="3"/><text x="311" y="200" text-anchor="middle" font-size="7" fill="white">岩手</text>
  <!-- 秋田 (x12,y4) - 1位！ -->
  <rect x="279" y="186" width="20" height="20" fill="#92400e" rx="3" stroke="#fbbf24" stroke-width="2"/><text x="289" y="200" text-anchor="middle" font-size="7" fill="white">秋田</text>
  <!-- 宮城 (x13,y5) -->
  <rect x="301" y="208" width="20" height="20" fill="#fbbf24" rx="3"/><text x="311" y="222" text-anchor="middle" font-size="7" fill="#78350f">宮城</text>
  <!-- 山形 (x12,y5) -->
  <rect x="279" y="208" width="20" height="20" fill="#d97706" rx="3"/><text x="289" y="222" text-anchor="middle" font-size="7" fill="white">山形</text>
  <!-- 福島 (x12,y6,w2) -->
  <rect x="279" y="230" width="42" height="20" fill="#b45309" rx="3"/><text x="300" y="244" text-anchor="middle" font-size="7" fill="white">福島</text>

  <!-- 新潟 (x10,y6,w2) -->
  <rect x="235" y="230" width="42" height="20" fill="#d97706" rx="3"/><text x="256" y="244" text-anchor="middle" font-size="7" fill="white">新潟</text>
  <!-- 富山 (x9,y6) -->
  <rect x="213" y="230" width="20" height="20" fill="#fbbf24" rx="3"/><text x="223" y="244" text-anchor="middle" font-size="7" fill="#78350f">富山</text>
  <!-- 石川 (x8,y6) -->
  <rect x="191" y="230" width="20" height="20" fill="#fde68a" rx="3"/><text x="201" y="244" text-anchor="middle" font-size="7" fill="#78350f">石川</text>
  <!-- 福井 (x8,y7) -->
  <rect x="191" y="252" width="20" height="20" fill="#fde68a" rx="3"/><text x="201" y="266" text-anchor="middle" font-size="7" fill="#78350f">福井</text>
  <!-- 岐阜 (x9,y7,h2) -->
  <rect x="213" y="252" width="20" height="42" fill="#fde68a" rx="3"/><text x="223" y="277" text-anchor="middle" font-size="7" fill="#78350f">岐阜</text>
  <!-- 長野 (x10,y7,h2) -->
  <rect x="235" y="252" width="20" height="42" fill="#fbbf24" rx="3"/><text x="245" y="277" text-anchor="middle" font-size="7" fill="#78350f">長野</text>

  <!-- 群馬 (x11,y7) -->
  <rect x="257" y="252" width="20" height="20" fill="#fbbf24" rx="3"/><text x="267" y="266" text-anchor="middle" font-size="7" fill="#78350f">群馬</text>
  <!-- 栃木 (x12,y7) -->
  <rect x="279" y="252" width="20" height="20" fill="#fde68a" rx="3"/><text x="289" y="266" text-anchor="middle" font-size="7" fill="#78350f">栃木</text>
  <!-- 茨城 (x13,y7) -->
  <rect x="301" y="252" width="20" height="20" fill="#fde68a" rx="3"/><text x="311" y="266" text-anchor="middle" font-size="7" fill="#78350f">茨城</text>
  <!-- 山梨 (x11,y8) -->
  <rect x="257" y="274" width="20" height="20" fill="#fbbf24" rx="3"/><text x="267" y="288" text-anchor="middle" font-size="7" fill="#78350f">山梨</text>
  <!-- 埼玉 (x12,y8) -->
  <rect x="279" y="274" width="20" height="20" fill="#fde68a" rx="3"/><text x="289" y="288" text-anchor="middle" font-size="7" fill="#78350f">埼玉</text>
  <!-- 千葉 (x13,y8,h2) -->
  <rect x="301" y="274" width="20" height="42" fill="#fde68a" rx="3"/><text x="311" y="299" text-anchor="middle" font-size="7" fill="#78350f">千葉</text>
  <!-- 東京 (x12,y9) -->
  <rect x="279" y="296" width="20" height="20" fill="#fbbf24" rx="3"/><text x="289" y="310" text-anchor="middle" font-size="7" fill="#78350f">東京</text>
  <!-- 神奈川 (x12,y10) -->
  <rect x="279" y="318" width="20" height="20" fill="#fbbf24" rx="3"/><text x="289" y="332" text-anchor="middle" font-size="7" fill="#78350f">神奈川</text>
  <!-- 静岡 (x10,y9,w2) -->
  <rect x="235" y="296" width="42" height="20" fill="#fde68a" rx="3"/><text x="256" y="310" text-anchor="middle" font-size="7" fill="#78350f">静岡</text>
  <!-- 愛知 (x9,y9) -->
  <rect x="213" y="296" width="20" height="20" fill="#fde68a" rx="3"/><text x="223" y="310" text-anchor="middle" font-size="7" fill="#78350f">愛知</text>

  <!-- 滋賀 (x8,y8) -->
  <rect x="191" y="274" width="20" height="20" fill="#fde68a" rx="3"/><text x="201" y="288" text-anchor="middle" font-size="7" fill="#78350f">滋賀</text>
  <!-- 三重 (x8,y9,h2) -->
  <rect x="191" y="296" width="20" height="42" fill="#fffbeb" rx="3" stroke="#fde68a" stroke-width="0.5"/><text x="201" y="321" text-anchor="middle" font-size="7" fill="#92400e">三重</text>
  <!-- 京都 (x6,y8,w2) -->
  <rect x="147" y="274" width="42" height="20" fill="#fde68a" rx="3"/><text x="168" y="288" text-anchor="middle" font-size="7" fill="#78350f">京都</text>
  <!-- 兵庫 (x5,y8,h2) -->
  <rect x="125" y="274" width="20" height="42" fill="#fde68a" rx="3"/><text x="135" y="299" text-anchor="middle" font-size="7" fill="#78350f">兵庫</text>
  <!-- 大阪 (x6,y9) -->
  <rect x="147" y="296" width="20" height="20" fill="#fde68a" rx="3"/><text x="157" y="310" text-anchor="middle" font-size="7" fill="#78350f">大阪</text>
  <!-- 奈良 (x7,y9) -->
  <rect x="169" y="296" width="20" height="20" fill="#fde68a" rx="3"/><text x="179" y="310" text-anchor="middle" font-size="7" fill="#78350f">奈良</text>
  <!-- 和歌山 (x6,y10,w2) -->
  <rect x="147" y="318" width="42" height="20" fill="#fde68a" rx="3"/><text x="168" y="332" text-anchor="middle" font-size="7" fill="#78350f">和歌山</text>

  <!-- 鳥取 (x4,y8) -->
  <rect x="103" y="274" width="20" height="20" fill="#fde68a" rx="3"/><text x="113" y="288" text-anchor="middle" font-size="7" fill="#78350f">鳥取</text>
  <!-- 岡山 (x4,y9) -->
  <rect x="103" y="296" width="20" height="20" fill="#fde68a" rx="3"/><text x="113" y="310" text-anchor="middle" font-size="7" fill="#78350f">岡山</text>
  <!-- 島根 (x3,y8) -->
  <rect x="81" y="274" width="20" height="20" fill="#fde68a" rx="3"/><text x="91" y="288" text-anchor="middle" font-size="7" fill="#78350f">島根</text>
  <!-- 広島 (x3,y9) -->
  <rect x="81" y="296" width="20" height="20" fill="#fbbf24" rx="3"/><text x="91" y="310" text-anchor="middle" font-size="7" fill="#78350f">広島</text>
  <!-- 山口 (x2,y8,h2) -->
  <rect x="59" y="274" width="20" height="42" fill="#fde68a" rx="3"/><text x="69" y="299" text-anchor="middle" font-size="7" fill="#78350f">山口</text>

  <!-- 愛媛 (x3,y11) -->
  <rect x="81" y="340" width="20" height="20" fill="#fde68a" rx="3"/><text x="91" y="354" text-anchor="middle" font-size="7" fill="#78350f">愛媛</text>
  <!-- 香川 (x4,y11) -->
  <rect x="103" y="340" width="20" height="20" fill="#fde68a" rx="3"/><text x="113" y="354" text-anchor="middle" font-size="7" fill="#78350f">香川</text>
  <!-- 高知 (x3,y12) -->
  <rect x="81" y="362" width="20" height="20" fill="#fbbf24" rx="3"/><text x="91" y="376" text-anchor="middle" font-size="7" fill="#78350f">高知</text>
  <!-- 徳島 (x4,y12) -->
  <rect x="103" y="362" width="20" height="20" fill="#fde68a" rx="3"/><text x="113" y="376" text-anchor="middle" font-size="7" fill="#78350f">徳島</text>

  <!-- 福岡 (x1,y10) -->
  <rect x="37" y="318" width="20" height="20" fill="#fbbf24" rx="3"/><text x="47" y="332" text-anchor="middle" font-size="7" fill="#78350f">福岡</text>
  <!-- 佐賀 (x0,y10) -->
  <rect x="15" y="318" width="20" height="20" fill="#fde68a" rx="3"/><text x="25" y="332" text-anchor="middle" font-size="7" fill="#78350f">佐賀</text>
  <!-- 大分 (x1,y11) -->
  <rect x="37" y="340" width="20" height="20" fill="#fbbf24" rx="3"/><text x="47" y="354" text-anchor="middle" font-size="7" fill="#78350f">大分</text>
  <!-- 長崎 (x0,y11) -->
  <rect x="15" y="340" width="20" height="20" fill="#fde68a" rx="3"/><text x="25" y="354" text-anchor="middle" font-size="7" fill="#78350f">長崎</text>
  <!-- 宮崎 (x1,y12) -->
  <rect x="37" y="362" width="20" height="20" fill="#fbbf24" rx="3"/><text x="47" y="376" text-anchor="middle" font-size="7" fill="#78350f">宮崎</text>
  <!-- 熊本 (x0,y12) -->
  <rect x="15" y="362" width="20" height="20" fill="#d97706" rx="3"/><text x="25" y="376" text-anchor="middle" font-size="7" fill="white">熊本</text>
  <!-- 鹿児島 (x0,y13,w2) -->
  <rect x="15" y="384" width="42" height="20" fill="#fde68a" rx="3"/><text x="36" y="398" text-anchor="middle" font-size="7" fill="#78350f">鹿児島</text>
  <!-- 沖縄 (x0,y15) -->
  <rect x="15" y="428" width="20" height="20" fill="#fbbf24" rx="3"/><text x="25" y="442" text-anchor="middle" font-size="7" fill="#78350f">沖縄</text>

  <!-- Beer legend -->
  <rect x="40" y="100" width="14" height="10" fill="#92400e" rx="2"/><text x="58" y="109" font-size="8" fill="#64748b">多い</text>
  <rect x="40" y="114" width="14" height="10" fill="#d97706" rx="2"/><text x="58" y="123" font-size="8" fill="#64748b">やや多い</text>
  <rect x="40" y="128" width="14" height="10" fill="#fbbf24" rx="2"/><text x="58" y="137" font-size="8" fill="#64748b">中間</text>
  <rect x="40" y="142" width="14" height="10" fill="#fde68a" rx="2"/><text x="58" y="151" font-size="8" fill="#64748b">やや少ない</text>
  <rect x="40" y="156" width="14" height="10" fill="#fffbeb" rx="2" stroke="#fde68a" stroke-width="0.5"/><text x="58" y="165" font-size="8" fill="#64748b">少ない</text>


  <!-- ========== RIGHT: ワイン ========== -->
  <text x="600" y="72" text-anchor="middle" font-size="15" font-weight="bold" fill="#7c3aed">🍷 ワイン</text>
  <text x="600" y="88" text-anchor="middle" font-size="10" fill="#94a3b8">1位 東京 8,116円</text>

  <!-- Wine tile map - offset x=410, y=95, cell=22 -->
  <!-- Same layout, shifted right by 395px -->

  <!-- 北海道 (x12,y0,w2,h2) -->
  <rect x="674" y="98" width="42" height="42" fill="#ddd6fe" rx="3"/><text x="695" y="124" text-anchor="middle" font-size="8" fill="#4c1d95">北海道</text>

  <!-- 青森 (x12,y3,w2) -->
  <rect x="674" y="164" width="42" height="20" fill="#ede9fe" rx="3"/><text x="695" y="178" text-anchor="middle" font-size="7" fill="#4c1d95">青森</text>
  <!-- 岩手 (x13,y4) -->
  <rect x="696" y="186" width="20" height="20" fill="#ede9fe" rx="3"/><text x="706" y="200" text-anchor="middle" font-size="7" fill="#4c1d95">岩手</text>
  <!-- 秋田 (x12,y4) -->
  <rect x="674" y="186" width="20" height="20" fill="#ede9fe" rx="3"/><text x="684" y="200" text-anchor="middle" font-size="7" fill="#4c1d95">秋田</text>
  <!-- 宮城 (x13,y5) -->
  <rect x="696" y="208" width="20" height="20" fill="#ddd6fe" rx="3"/><text x="706" y="222" text-anchor="middle" font-size="7" fill="#4c1d95">宮城</text>
  <!-- 山形 (x12,y5) -->
  <rect x="674" y="208" width="20" height="20" fill="#ddd6fe" rx="3"/><text x="684" y="222" text-anchor="middle" font-size="7" fill="#4c1d95">山形</text>
  <!-- 福島 (x12,y6,w2) -->
  <rect x="674" y="230" width="42" height="20" fill="#ddd6fe" rx="3"/><text x="695" y="244" text-anchor="middle" font-size="7" fill="#4c1d95">福島</text>

  <!-- 新潟 (x10,y6,w2) -->
  <rect x="630" y="230" width="42" height="20" fill="#ddd6fe" rx="3"/><text x="651" y="244" text-anchor="middle" font-size="7" fill="#4c1d95">新潟</text>
  <!-- 富山 (x9,y6) -->
  <rect x="608" y="230" width="20" height="20" fill="#ddd6fe" rx="3"/><text x="618" y="244" text-anchor="middle" font-size="7" fill="#4c1d95">富山</text>
  <!-- 石川 (x8,y6) -->
  <rect x="586" y="230" width="20" height="20" fill="#ddd6fe" rx="3"/><text x="596" y="244" text-anchor="middle" font-size="7" fill="#4c1d95">石川</text>
  <!-- 福井 (x8,y7) -->
  <rect x="586" y="252" width="20" height="20" fill="#ede9fe" rx="3"/><text x="596" y="266" text-anchor="middle" font-size="7" fill="#4c1d95">福井</text>
  <!-- 岐阜 (x9,y7,h2) -->
  <rect x="608" y="252" width="20" height="42" fill="#ede9fe" rx="3"/><text x="618" y="277" text-anchor="middle" font-size="7" fill="#4c1d95">岐阜</text>
  <!-- 長野 (x10,y7,h2) -->
  <rect x="630" y="252" width="20" height="42" fill="#c4b5fd" rx="3"/><text x="640" y="277" text-anchor="middle" font-size="7" fill="#4c1d95">長野</text>

  <!-- 群馬 (x11,y7) -->
  <rect x="652" y="252" width="20" height="20" fill="#ddd6fe" rx="3"/><text x="662" y="266" text-anchor="middle" font-size="7" fill="#4c1d95">群馬</text>
  <!-- 栃木 (x12,y7) -->
  <rect x="674" y="252" width="20" height="20" fill="#ddd6fe" rx="3"/><text x="684" y="266" text-anchor="middle" font-size="7" fill="#4c1d95">栃木</text>
  <!-- 茨城 (x13,y7) -->
  <rect x="696" y="252" width="20" height="20" fill="#ddd6fe" rx="3"/><text x="706" y="266" text-anchor="middle" font-size="7" fill="#4c1d95">茨城</text>
  <!-- 山梨 (x11,y8) -->
  <rect x="652" y="274" width="20" height="20" fill="#c4b5fd" rx="3"/><text x="662" y="288" text-anchor="middle" font-size="7" fill="#4c1d95">山梨</text>
  <!-- 埼玉 (x12,y8) - 2位 -->
  <rect x="674" y="274" width="20" height="20" fill="#8b5cf6" rx="3"/><text x="684" y="288" text-anchor="middle" font-size="7" fill="white">埼玉</text>
  <!-- 千葉 (x13,y8,h2) -->
  <rect x="696" y="274" width="20" height="42" fill="#a78bfa" rx="3"/><text x="706" y="299" text-anchor="middle" font-size="7" fill="white">千葉</text>
  <!-- 東京 (x12,y9) - 1位！ -->
  <rect x="674" y="296" width="20" height="20" fill="#6d28d9" rx="3" stroke="#c4b5fd" stroke-width="2"/><text x="684" y="310" text-anchor="middle" font-size="7" fill="white">東京</text>
  <!-- 神奈川 (x12,y10) -->
  <rect x="674" y="318" width="20" height="20" fill="#8b5cf6" rx="3"/><text x="684" y="332" text-anchor="middle" font-size="7" fill="white">神奈川</text>
  <!-- 静岡 (x10,y9,w2) -->
  <rect x="630" y="296" width="42" height="20" fill="#ddd6fe" rx="3"/><text x="651" y="310" text-anchor="middle" font-size="7" fill="#4c1d95">静岡</text>
  <!-- 愛知 (x9,y9) -->
  <rect x="608" y="296" width="20" height="20" fill="#ddd6fe" rx="3"/><text x="618" y="310" text-anchor="middle" font-size="7" fill="#4c1d95">愛知</text>

  <!-- 滋賀 (x8,y8) -->
  <rect x="586" y="274" width="20" height="20" fill="#ddd6fe" rx="3"/><text x="596" y="288" text-anchor="middle" font-size="7" fill="#4c1d95">滋賀</text>
  <!-- 三重 (x8,y9,h2) -->
  <rect x="586" y="296" width="20" height="42" fill="#ede9fe" rx="3"/><text x="596" y="321" text-anchor="middle" font-size="7" fill="#4c1d95">三重</text>
  <!-- 京都 (x6,y8,w2) -->
  <rect x="542" y="274" width="42" height="20" fill="#c4b5fd" rx="3"/><text x="563" y="288" text-anchor="middle" font-size="7" fill="#4c1d95">京都</text>
  <!-- 兵庫 (x5,y8,h2) -->
  <rect x="520" y="274" width="20" height="42" fill="#c4b5fd" rx="3"/><text x="530" y="299" text-anchor="middle" font-size="7" fill="#4c1d95">兵庫</text>
  <!-- 大阪 (x6,y9) -->
  <rect x="542" y="296" width="20" height="20" fill="#a78bfa" rx="3"/><text x="552" y="310" text-anchor="middle" font-size="7" fill="white">大阪</text>
  <!-- 奈良 (x7,y9) -->
  <rect x="564" y="296" width="20" height="20" fill="#ddd6fe" rx="3"/><text x="574" y="310" text-anchor="middle" font-size="7" fill="#4c1d95">奈良</text>
  <!-- 和歌山 (x6,y10,w2) -->
  <rect x="542" y="318" width="42" height="20" fill="#ede9fe" rx="3"/><text x="563" y="332" text-anchor="middle" font-size="7" fill="#4c1d95">和歌山</text>

  <!-- 鳥取 (x4,y8) -->
  <rect x="498" y="274" width="20" height="20" fill="#ede9fe" rx="3"/><text x="508" y="288" text-anchor="middle" font-size="7" fill="#4c1d95">鳥取</text>
  <!-- 岡山 (x4,y9) -->
  <rect x="498" y="296" width="20" height="20" fill="#ede9fe" rx="3"/><text x="508" y="310" text-anchor="middle" font-size="7" fill="#4c1d95">岡山</text>
  <!-- 島根 (x3,y8) -->
  <rect x="476" y="274" width="20" height="20" fill="#ede9fe" rx="3"/><text x="486" y="288" text-anchor="middle" font-size="7" fill="#4c1d95">島根</text>
  <!-- 広島 (x3,y9) -->
  <rect x="476" y="296" width="20" height="20" fill="#ddd6fe" rx="3"/><text x="486" y="310" text-anchor="middle" font-size="7" fill="#4c1d95">広島</text>
  <!-- 山口 (x2,y8,h2) -->
  <rect x="454" y="274" width="20" height="42" fill="#ede9fe" rx="3"/><text x="464" y="299" text-anchor="middle" font-size="7" fill="#4c1d95">山口</text>

  <!-- 愛媛 (x3,y11) -->
  <rect x="476" y="340" width="20" height="20" fill="#ede9fe" rx="3"/><text x="486" y="354" text-anchor="middle" font-size="7" fill="#4c1d95">愛媛</text>
  <!-- 香川 (x4,y11) -->
  <rect x="498" y="340" width="20" height="20" fill="#ede9fe" rx="3"/><text x="508" y="354" text-anchor="middle" font-size="7" fill="#4c1d95">香川</text>
  <!-- 高知 (x3,y12) -->
  <rect x="476" y="362" width="20" height="20" fill="#ede9fe" rx="3"/><text x="486" y="376" text-anchor="middle" font-size="7" fill="#4c1d95">高知</text>
  <!-- 徳島 (x4,y12) -->
  <rect x="498" y="362" width="20" height="20" fill="#ede9fe" rx="3"/><text x="508" y="376" text-anchor="middle" font-size="7" fill="#4c1d95">徳島</text>

  <!-- 福岡 (x1,y10) -->
  <rect x="432" y="318" width="20" height="20" fill="#ddd6fe" rx="3"/><text x="442" y="332" text-anchor="middle" font-size="7" fill="#4c1d95">福岡</text>
  <!-- 佐賀 (x0,y10) -->
  <rect x="410" y="318" width="20" height="20" fill="#ede9fe" rx="3"/><text x="420" y="332" text-anchor="middle" font-size="7" fill="#4c1d95">佐賀</text>
  <!-- 大分 (x1,y11) -->
  <rect x="432" y="340" width="20" height="20" fill="#ede9fe" rx="3"/><text x="442" y="354" text-anchor="middle" font-size="7" fill="#4c1d95">大分</text>
  <!-- 長崎 (x0,y11) -->
  <rect x="410" y="340" width="20" height="20" fill="#ede9fe" rx="3"/><text x="420" y="354" text-anchor="middle" font-size="7" fill="#4c1d95">長崎</text>
  <!-- 宮崎 (x1,y12) -->
  <rect x="432" y="362" width="20" height="20" fill="#ede9fe" rx="3"/><text x="442" y="376" text-anchor="middle" font-size="7" fill="#4c1d95">宮崎</text>
  <!-- 熊本 (x0,y12) -->
  <rect x="410" y="362" width="20" height="20" fill="#ddd6fe" rx="3"/><text x="420" y="376" text-anchor="middle" font-size="7" fill="#4c1d95">熊本</text>
  <!-- 鹿児島 (x0,y13,w2) -->
  <rect x="410" y="384" width="42" height="20" fill="#ede9fe" rx="3"/><text x="431" y="398" text-anchor="middle" font-size="7" fill="#4c1d95">鹿児島</text>
  <!-- 沖縄 (x0,y15) -->
  <rect x="410" y="428" width="20" height="20" fill="#ede9fe" rx="3"/><text x="420" y="442" text-anchor="middle" font-size="7" fill="#4c1d95">沖縄</text>

  <!-- Wine legend -->
  <rect x="440" y="100" width="14" height="10" fill="#6d28d9" rx="2"/><text x="458" y="109" font-size="8" fill="#64748b">多い</text>
  <rect x="440" y="114" width="14" height="10" fill="#8b5cf6" rx="2"/><text x="458" y="123" font-size="8" fill="#64748b">やや多い</text>
  <rect x="440" y="128" width="14" height="10" fill="#c4b5fd" rx="2"/><text x="458" y="137" font-size="8" fill="#64748b">中間</text>
  <rect x="440" y="142" width="14" height="10" fill="#ddd6fe" rx="2"/><text x="458" y="151" font-size="8" fill="#64748b">やや少ない</text>
  <rect x="440" y="156" width="14" height="10" fill="#ede9fe" rx="2"/><text x="458" y="165" font-size="8" fill="#64748b">少ない</text>

  <!-- Center divider -->
  <line x1="400" y1="65" x2="400" y2="430" stroke="#e2e8f0" stroke-width="1" stroke-dasharray="4,4"/>

  <!-- Footer -->
  <text x="400" y="448" text-anchor="middle" font-size="10" fill="#94a3b8">出典: 総務省 家計調査（2024年）二人以上の世帯 ── stats47.jp</text>
</svg>