<svg xmlns="http://www.w3.org/2000/svg" viewBox="0 0 800 600" font-family="'Hiragino Sans', 'Noto Sans JP', sans-serif">
  <defs>
    <linearGradient id="bg" x1="0" y1="0" x2="0" y2="1">
      <stop offset="0%" stop-color="#fafafa"/>
      <stop offset="100%" stop-color="#f1f5f9"/>
    </linearGradient>
  </defs>
  <rect width="800" height="600" fill="url(#bg)"/>

  <!-- Title -->
  <text x="400" y="38" text-anchor="middle" font-size="20" font-weight="bold" fill="#1e293b">食の全国1位コレクション</text>
  <text x="400" y="58" text-anchor="middle" font-size="12" fill="#94a3b8">家計調査（2024年）二人以上の世帯 年間支出額</text>

  <!-- Header row -->
  <text x="50" y="92" font-size="11" font-weight="bold" fill="#64748b">品目</text>
  <text x="260" y="92" font-size="11" font-weight="bold" fill="#64748b">1位</text>
  <text x="390" y="92" font-size="11" font-weight="bold" fill="#64748b">年間支出</text>
  <line x1="30" y1="98" x2="770" y2="98" stroke="#cbd5e1" stroke-width="1"/>

  <!-- Row 1: ラーメン外食 - 山形 22,389円 -->
  <rect x="30" y="106" width="740" height="48" fill="white" rx="6" opacity="0.7"/>
  <text x="50" y="135" font-size="14" fill="#475569">🍜 ラーメン外食</text>
  <rect x="230" y="116" width="70" height="28" fill="#ea580c" rx="14"/>
  <text x="265" y="135" text-anchor="middle" font-size="13" font-weight="bold" fill="white">山形</text>
  <text x="390" y="135" font-size="16" font-weight="bold" fill="#ea580c">22,389円</text>
  <rect x="510" y="122" width="240" height="16" fill="#fed7aa" rx="3"/>
  <rect x="510" y="122" width="240" height="16" fill="#ea580c" rx="3" opacity="0.85"/>
  <text x="530" y="133" font-size="9" fill="white">2位 新潟の1.4倍</text>

  <!-- Row 2: 冷凍ぎょうざ - 宮崎 3,517円 -->
  <rect x="30" y="160" width="740" height="48" fill="white" rx="6" opacity="0.5"/>
  <text x="50" y="189" font-size="14" fill="#475569">🥟 冷凍ぎょうざ</text>
  <rect x="230" y="170" width="70" height="28" fill="#16a34a" rx="14"/>
  <text x="265" y="189" text-anchor="middle" font-size="13" font-weight="bold" fill="white">宮崎</text>
  <text x="390" y="189" font-size="16" font-weight="bold" fill="#16a34a">3,517円</text>
  <rect x="510" y="176" width="240" height="16" fill="#bbf7d0" rx="3"/>
  <rect x="510" y="176" width="86" height="16" fill="#16a34a" rx="3" opacity="0.85"/>
  <text x="604" y="187" font-size="9" fill="#16a34a" font-weight="bold">浜松ではなく宮崎！</text>

  <!-- Row 3: 焼肉 - 高知 21,768円 -->
  <rect x="30" y="214" width="740" height="48" fill="white" rx="6" opacity="0.7"/>
  <text x="50" y="243" font-size="14" fill="#475569">🥩 焼肉</text>
  <rect x="230" y="224" width="70" height="28" fill="#dc2626" rx="14"/>
  <text x="265" y="243" text-anchor="middle" font-size="13" font-weight="bold" fill="white">高知</text>
  <text x="390" y="243" font-size="16" font-weight="bold" fill="#dc2626">21,768円</text>
  <rect x="510" y="230" width="240" height="16" fill="#fecaca" rx="3"/>
  <rect x="510" y="230" width="230" height="16" fill="#dc2626" rx="3" opacity="0.85"/>
  <text x="530" y="241" font-size="9" fill="white">2位 大分の1.4倍</text>

  <!-- Row 4: すし外食 - 富山 23,185円 -->
  <rect x="30" y="268" width="740" height="48" fill="white" rx="6" opacity="0.5"/>
  <text x="50" y="297" font-size="14" fill="#475569">🍣 すし外食</text>
  <rect x="230" y="278" width="70" height="28" fill="#2563eb" rx="14"/>
  <text x="265" y="297" text-anchor="middle" font-size="13" font-weight="bold" fill="white">富山</text>
  <text x="390" y="297" font-size="16" font-weight="bold" fill="#2563eb">23,185円</text>
  <rect x="510" y="284" width="240" height="16" fill="#bfdbfe" rx="3"/>
  <rect x="510" y="284" width="240" height="16" fill="#2563eb" rx="3" opacity="0.85"/>
  <text x="530" y="295" font-size="9" fill="white">寿司の聖地</text>

  <!-- Row 5: コーヒー - 兵庫 10,098円 -->
  <rect x="30" y="322" width="740" height="48" fill="white" rx="6" opacity="0.7"/>
  <text x="50" y="351" font-size="14" fill="#475569">☕ コーヒー</text>
  <rect x="230" y="332" width="70" height="28" fill="#92400e" rx="14"/>
  <text x="265" y="351" text-anchor="middle" font-size="13" font-weight="bold" fill="white">兵庫</text>
  <text x="390" y="351" font-size="16" font-weight="bold" fill="#92400e">10,098円</text>
  <rect x="510" y="338" width="240" height="16" fill="#fde68a" rx="3"/>
  <rect x="510" y="338" width="160" height="16" fill="#92400e" rx="3" opacity="0.85"/>
  <text x="530" y="349" font-size="9" fill="white">食パンもコーヒーも1位</text>

  <!-- Row 6: アイスクリーム - 山形 14,747円 -->
  <rect x="30" y="376" width="740" height="48" fill="white" rx="6" opacity="0.5"/>
  <text x="50" y="405" font-size="14" fill="#475569">🍨 アイスクリーム</text>
  <rect x="230" y="386" width="70" height="28" fill="#ea580c" rx="14"/>
  <text x="265" y="405" text-anchor="middle" font-size="13" font-weight="bold" fill="white">山形</text>
  <text x="390" y="405" font-size="16" font-weight="bold" fill="#ea580c">14,747円</text>
  <rect x="510" y="392" width="240" height="16" fill="#fed7aa" rx="3"/>
  <rect x="510" y="392" width="170" height="16" fill="#ea580c" rx="3" opacity="0.85"/>
  <text x="530" y="403" font-size="9" fill="white">ラーメンもアイスも1位！</text>

  <!-- Row 7: ビール - 秋田 17,793円 -->
  <rect x="30" y="430" width="740" height="48" fill="white" rx="6" opacity="0.7"/>
  <text x="50" y="459" font-size="14" fill="#475569">🍺 ビール</text>
  <rect x="230" y="440" width="70" height="28" fill="#d97706" rx="14"/>
  <text x="265" y="459" text-anchor="middle" font-size="13" font-weight="bold" fill="white">秋田</text>
  <text x="390" y="459" font-size="16" font-weight="bold" fill="#d97706">17,793円</text>
  <rect x="510" y="446" width="240" height="16" fill="#fde68a" rx="3"/>
  <rect x="510" y="446" width="195" height="16" fill="#d97706" rx="3" opacity="0.85"/>
  <text x="530" y="457" font-size="9" fill="white">東北勢が上位独占</text>

  <!-- Row 8: ワイン - 東京 8,116円 -->
  <rect x="30" y="484" width="740" height="48" fill="white" rx="6" opacity="0.5"/>
  <text x="50" y="513" font-size="14" fill="#475569">🍷 ワイン</text>
  <rect x="230" y="494" width="70" height="28" fill="#7c3aed" rx="14"/>
  <text x="265" y="513" text-anchor="middle" font-size="13" font-weight="bold" fill="white">東京</text>
  <text x="390" y="513" font-size="16" font-weight="bold" fill="#7c3aed">8,116円</text>
  <rect x="510" y="500" width="240" height="16" fill="#ddd6fe" rx="3"/>
  <rect x="510" y="500" width="120" height="16" fill="#7c3aed" rx="3" opacity="0.85"/>
  <text x="638" y="511" font-size="9" fill="#7c3aed" font-weight="bold">2位 埼玉の1.1倍</text>

  <!-- Row 9: 食パン - 兵庫 15,424円 -->
  <rect x="30" y="538" width="740" height="48" fill="white" rx="6" opacity="0.7"/>
  <text x="50" y="567" font-size="14" fill="#475569">🍞 食パン</text>
  <rect x="230" y="548" width="70" height="28" fill="#92400e" rx="14"/>
  <text x="265" y="567" text-anchor="middle" font-size="13" font-weight="bold" fill="white">兵庫</text>
  <text x="390" y="567" font-size="16" font-weight="bold" fill="#92400e">15,424円</text>
  <rect x="510" y="554" width="240" height="16" fill="#fde68a" rx="3"/>
  <rect x="510" y="554" width="178" height="16" fill="#92400e" rx="3" opacity="0.85"/>
  <text x="530" y="565" font-size="9" fill="white">朝食文化の王国</text>

  <!-- Footer -->
  <text x="400" y="598" text-anchor="middle" font-size="10" fill="#94a3b8">出典: 総務省 家計調査（2024年）二人以上の世帯 ── stats47.jp</text>
</svg>