<svg xmlns="http://www.w3.org/2000/svg" viewBox="0 0 600 407" role="img" aria-label="群馬県の大分類別支出比率">
<style>text{font-family:'Hiragino Sans', 'Noto Sans JP', sans-serif}</style>
<rect width="600" height="407" fill="#fafafa" rx="6"/>
<text x="300" y="24" text-anchor="middle" font-size="15" font-weight="bold" fill="#1e293b">大分類別 — 全国平均との比率</text>
<text x="300" y="44" text-anchor="middle" font-size="11" fill="#475569">群馬県（前橋市）2024年</text>
<line x1="352" y1="58" x2="352" y2="378" stroke="#64748b" stroke-width="1" stroke-dasharray="4,3" opacity="0.5"/>
<text x="352" y="54" text-anchor="middle" font-size="9" fill="#64748b">1.0倍</text>
<rect x="340.9" y="67" width="11.1" height="22" fill="#ef4444" rx="2" opacity="0.85"/>
<text x="108" y="82" text-anchor="end" font-size="12" fill="#1e293b">食料</text>
<text x="335.9" y="82" text-anchor="end" font-size="11" font-weight="bold" fill="#ef4444">0.97倍</text>
<line x1="116" y1="94" x2="588" y2="94" stroke="#f1f5f9" stroke-width="0.5"/>
<rect x="209" y="99" width="143" height="22" fill="#ef4444" rx="2" opacity="0.85"/>
<text x="108" y="114" text-anchor="end" font-size="12" fill="#1e293b">住居</text>
<text x="204" y="114" text-anchor="end" font-size="11" font-weight="bold" fill="#ef4444">0.67倍</text>
<line x1="116" y1="126" x2="588" y2="126" stroke="#f1f5f9" stroke-width="0.5"/>
<rect x="340.4" y="131" width="11.6" height="22" fill="#ef4444" rx="2" opacity="0.85"/>
<text x="108" y="146" text-anchor="end" font-size="12" fill="#1e293b">光熱・水道</text>
<text x="335.4" y="146" text-anchor="end" font-size="11" font-weight="bold" fill="#ef4444">0.97倍</text>
<line x1="116" y1="158" x2="588" y2="158" stroke="#f1f5f9" stroke-width="0.5"/>
<rect x="289.5" y="163" width="62.5" height="22" fill="#ef4444" rx="2" opacity="0.85"/>
<text x="108" y="178" text-anchor="end" font-size="12" fill="#1e293b">家具・家事用品</text>
<text x="284.5" y="178" text-anchor="end" font-size="11" font-weight="bold" fill="#ef4444">0.85倍</text>
<line x1="116" y1="190" x2="588" y2="190" stroke="#f1f5f9" stroke-width="0.5"/>
<rect x="352" y="195" width="27.4" height="22" fill="#3b82f6" rx="2" opacity="0.85"/>
<text x="108" y="210" text-anchor="end" font-size="12" fill="#1e293b">被服及び履物</text>
<text x="384.4" y="210" text-anchor="start" font-size="11" font-weight="bold" fill="#3b82f6">1.06倍</text>
<line x1="116" y1="222" x2="588" y2="222" stroke="#f1f5f9" stroke-width="0.5"/>
<rect x="334.4" y="227" width="17.6" height="22" fill="#ef4444" rx="2" opacity="0.85"/>
<text x="108" y="242" text-anchor="end" font-size="12" fill="#1e293b">保健医療</text>
<text x="329.4" y="242" text-anchor="end" font-size="11" font-weight="bold" fill="#ef4444">0.96倍</text>
<line x1="116" y1="254" x2="588" y2="254" stroke="#f1f5f9" stroke-width="0.5"/>
<rect x="352" y="259" width="188.8" height="22" fill="#3b82f6" rx="2" opacity="0.85"/>
<text x="108" y="274" text-anchor="end" font-size="12" fill="#1e293b">交通・通信</text>
<text x="545.8" y="274" text-anchor="start" font-size="11" font-weight="bold" fill="#3b82f6">1.44倍</text>
<line x1="116" y1="286" x2="588" y2="286" stroke="#f1f5f9" stroke-width="0.5"/>
<rect x="168.8" y="291" width="183.2" height="22" fill="#ef4444" rx="2" opacity="0.85"/>
<text x="108" y="306" text-anchor="end" font-size="12" fill="#1e293b">教育</text>
<text x="163.8" y="306" text-anchor="end" font-size="11" font-weight="bold" fill="#ef4444">0.57倍</text>
<line x1="116" y1="318" x2="588" y2="318" stroke="#f1f5f9" stroke-width="0.5"/>
<rect x="352" y="323" width="16.3" height="22" fill="#3b82f6" rx="2" opacity="0.85"/>
<text x="108" y="338" text-anchor="end" font-size="12" fill="#1e293b">教養娯楽</text>
<text x="373.3" y="338" text-anchor="start" font-size="11" font-weight="bold" fill="#3b82f6">1.04倍</text>
<line x1="116" y1="350" x2="588" y2="350" stroke="#f1f5f9" stroke-width="0.5"/>
<rect x="333.6" y="355" width="18.4" height="22" fill="#ef4444" rx="2" opacity="0.85"/>
<text x="108" y="370" text-anchor="end" font-size="12" fill="#1e293b">その他の消費支出</text>
<text x="328.6" y="370" text-anchor="end" font-size="11" font-weight="bold" fill="#ef4444">0.96倍</text>
</svg>