<svg width="960" height="454" viewBox="0 0 960 454" xmlns="http://www.w3.org/2000/svg" role="img" aria-label="群馬県の特徴的な支出品目">
  <title>群馬県の特徴的な支出品目</title>
  <rect width="960" height="454" fill="#f9fafb"/>
  <text x="480" y="36" text-anchor="middle" font-family="'Noto Sans JP',sans-serif" font-size="20" font-weight="bold" fill="#1f2937">全国平均と比べて特徴的な品目</text>
  <text x="480" y="58" text-anchor="middle" font-family="'Noto Sans JP',sans-serif" font-size="13" fill="#6b7280">群馬県（前橋市）2024年</text>
  <rect x="30" y="80" width="432" height="40" rx="8" fill="#1565c0"/>  <text x="246" y="106" text-anchor="middle" font-family="'Noto Sans JP', sans-serif" font-size="14" font-weight="bold" fill="#ffffff">全国平均より多い</text>
  <rect x="30" y="124" width="432" height="56" rx="6" fill="#e3f2fd"/>
  <circle cx="58" cy="152" r="17" fill="#1565c0"/>  <text x="58" y="157.04" text-anchor="middle" font-family="'Noto Sans JP', sans-serif" font-size="14" font-weight="bold" fill="#ffffff">1</text>
  <text x="83" y="157.04" font-family="'Noto Sans JP', sans-serif" font-size="14" font-weight="bold" fill="#1f2937">自動車教習料</text>
  <text x="244.64000000000001" y="156.68" text-anchor="end" font-family="'Noto Sans JP', sans-serif" font-size="13" fill="#1565c0" font-weight="600">4.08倍</text>
  <rect x="254.64000000000001" y="144" width="190.1" height="16" rx="4" fill="#42a5f5" opacity="0.8"/>
  <rect x="30" y="180" width="432" height="56" rx="6" fill="#ffffff"/>
  <circle cx="58" cy="208" r="17" fill="#1565c0"/>  <text x="58" y="213.04" text-anchor="middle" font-family="'Noto Sans JP', sans-serif" font-size="14" font-weight="bold" fill="#ffffff">2</text>
  <text x="83" y="213.04" font-family="'Noto Sans JP', sans-serif" font-size="14" font-weight="bold" fill="#1f2937">他の冠婚葬祭費</text>
  <text x="244.64000000000001" y="212.68" text-anchor="end" font-family="'Noto Sans JP', sans-serif" font-size="13" fill="#1565c0" font-weight="600">3.62倍</text>
  <rect x="254.64000000000001" y="200" width="168.5" height="16" rx="4" fill="#42a5f5" opacity="0.8"/>
  <rect x="30" y="236" width="432" height="56" rx="6" fill="#e3f2fd"/>
  <circle cx="58" cy="264" r="17" fill="#1565c0"/>  <text x="58" y="269.04" text-anchor="middle" font-family="'Noto Sans JP', sans-serif" font-size="14" font-weight="bold" fill="#ffffff">3</text>
  <text x="83" y="269.04" font-family="'Noto Sans JP', sans-serif" font-size="14" font-weight="bold" fill="#1f2937">ベッド</text>
  <text x="244.64000000000001" y="268.68" text-anchor="end" font-family="'Noto Sans JP', sans-serif" font-size="13" fill="#1565c0" font-weight="600">2.99倍</text>
  <rect x="254.64000000000001" y="256" width="139.5" height="16" rx="4" fill="#42a5f5" opacity="0.8"/>
  <rect x="30" y="292" width="432" height="56" rx="6" fill="#ffffff"/>
  <circle cx="58" cy="320" r="17" fill="#1565c0"/>  <text x="58" y="325.04" text-anchor="middle" font-family="'Noto Sans JP', sans-serif" font-size="14" font-weight="bold" fill="#ffffff">4</text>
  <text x="83" y="325.04" font-family="'Noto Sans JP', sans-serif" font-size="14" font-weight="bold" fill="#1f2937">自動車購入</text>
  <text x="244.64000000000001" y="324.68" text-anchor="end" font-family="'Noto Sans JP', sans-serif" font-size="13" fill="#1565c0" font-weight="600">2.76倍</text>
  <rect x="254.64000000000001" y="312" width="128.8" height="16" rx="4" fill="#42a5f5" opacity="0.8"/>
  <rect x="30" y="348" width="432" height="56" rx="6" fill="#e3f2fd"/>
  <circle cx="58" cy="376" r="17" fill="#1565c0"/>  <text x="58" y="381.04" text-anchor="middle" font-family="'Noto Sans JP', sans-serif" font-size="14" font-weight="bold" fill="#ffffff">5</text>
  <text x="83" y="381.04" font-family="'Noto Sans JP', sans-serif" font-size="14" font-weight="bold" fill="#1f2937">自動車等購入</text>
  <text x="244.64000000000001" y="380.68" text-anchor="end" font-family="'Noto Sans JP', sans-serif" font-size="13" fill="#1565c0" font-weight="600">2.74倍</text>
  <rect x="254.64000000000001" y="368" width="127.5" height="16" rx="4" fill="#42a5f5" opacity="0.8"/>
  <rect x="498" y="80" width="432" height="40" rx="8" fill="#b71c1c"/>  <text x="714" y="106" text-anchor="middle" font-family="'Noto Sans JP', sans-serif" font-size="14" font-weight="bold" fill="#ffffff">全国平均より少ない</text>
  <rect x="498" y="124" width="432" height="56" rx="6" fill="#fef2f2"/>
  <circle cx="526" cy="152" r="17" fill="#b71c1c"/>  <text x="526" y="157.04" text-anchor="middle" font-family="'Noto Sans JP', sans-serif" font-size="14" font-weight="bold" fill="#ffffff">1</text>
  <text x="551" y="157.04" font-family="'Noto Sans JP', sans-serif" font-size="14" font-weight="bold" fill="#1f2937">住宅関係負担費</text>
  <text x="712.64" y="156.68" text-anchor="end" font-family="'Noto Sans JP', sans-serif" font-size="13" fill="#b71c1c" font-weight="600">0.04倍</text>
  <rect x="722.64" y="144" width="190.1" height="16" rx="4" fill="#ef5350" opacity="0.8"/>
  <rect x="498" y="180" width="432" height="56" rx="6" fill="#ffffff"/>
  <circle cx="526" cy="208" r="17" fill="#b71c1c"/>  <text x="526" y="213.04" text-anchor="middle" font-family="'Noto Sans JP', sans-serif" font-size="14" font-weight="bold" fill="#ffffff">2</text>
  <text x="551" y="213.04" font-family="'Noto Sans JP', sans-serif" font-size="14" font-weight="bold" fill="#1f2937">被服賃借料</text>
  <text x="712.64" y="212.68" text-anchor="end" font-family="'Noto Sans JP', sans-serif" font-size="13" fill="#b71c1c" font-weight="600">0.08倍</text>
  <rect x="722.64" y="200" width="182.2" height="16" rx="4" fill="#ef5350" opacity="0.8"/>
  <rect x="498" y="236" width="432" height="56" rx="6" fill="#fef2f2"/>
  <circle cx="526" cy="264" r="17" fill="#b71c1c"/>  <text x="526" y="269.04" text-anchor="middle" font-family="'Noto Sans JP', sans-serif" font-size="14" font-weight="bold" fill="#ffffff">3</text>
  <text x="551" y="269.04" font-family="'Noto Sans JP', sans-serif" font-size="14" font-weight="bold" fill="#1f2937">私立高校</text>
  <text x="712.64" y="268.68" text-anchor="end" font-family="'Noto Sans JP', sans-serif" font-size="13" fill="#b71c1c" font-weight="600">0.09倍</text>
  <rect x="722.64" y="256" width="180.6" height="16" rx="4" fill="#ef5350" opacity="0.8"/>
  <rect x="498" y="292" width="432" height="56" rx="6" fill="#ffffff"/>
  <circle cx="526" cy="320" r="17" fill="#b71c1c"/>  <text x="526" y="325.04" text-anchor="middle" font-family="'Noto Sans JP', sans-serif" font-size="14" font-weight="bold" fill="#ffffff">4</text>
  <text x="551" y="325.04" font-family="'Noto Sans JP', sans-serif" font-size="14" font-weight="bold" fill="#1f2937">公営家賃</text>
  <text x="712.64" y="324.68" text-anchor="end" font-family="'Noto Sans JP', sans-serif" font-size="13" fill="#b71c1c" font-weight="600">0.11倍</text>
  <rect x="722.64" y="312" width="176.6" height="16" rx="4" fill="#ef5350" opacity="0.8"/>
  <rect x="498" y="348" width="432" height="56" rx="6" fill="#fef2f2"/>
  <circle cx="526" cy="376" r="17" fill="#b71c1c"/>  <text x="526" y="381.04" text-anchor="middle" font-family="'Noto Sans JP', sans-serif" font-size="14" font-weight="bold" fill="#ffffff">5</text>
  <text x="551" y="381.04" font-family="'Noto Sans JP', sans-serif" font-size="14" font-weight="bold" fill="#1f2937">私立大学</text>
  <text x="712.64" y="380.68" text-anchor="end" font-family="'Noto Sans JP', sans-serif" font-size="13" fill="#b71c1c" font-weight="600">0.11倍</text>
  <rect x="722.64" y="368" width="176.2" height="16" rx="4" fill="#ef5350" opacity="0.8"/>
  <text x="480" y="429" text-anchor="middle" font-family="'Noto Sans JP',sans-serif" font-size="11" fill="#6b7280">出典：総務省「家計調査」2024年　全国平均との比率</text>
</svg>