<svg xmlns="http://www.w3.org/2000/svg" viewBox="0 0 680 300" width="680" height="300" font-family="'Hiragino Sans','Noto Sans JP',sans-serif" role="img" aria-label="公共体育館数（人口100万人当たり）">
  <style>
    .svg-bg{fill:#fafafa}
    .svg-title{fill:#222}
    .svg-subtitle{fill:#666}
    .svg-label{fill:#333}
    .svg-legend{fill:#888}
    @media (prefers-color-scheme:dark){
      .svg-bg{fill:#1f2937}
      .svg-title{fill:#f9fafb}
      .svg-subtitle{fill:#9ca3af}
      .svg-label{fill:#e5e7eb}
      .svg-legend{fill:#9ca3af}
    }
  </style>
  <rect width="680" height="300" class="svg-bg" rx="8"/>
  <text x="340" y="24" text-anchor="middle" font-size="16" font-weight="bold" class="svg-title">公共体育館数（人口100万人当たり）</text>
  <text x="340" y="42" text-anchor="middle" font-size="11" class="svg-subtitle">上位5・下位5（2021年度）</text>
  <text x="227.5" y="54" text-anchor="middle" font-size="12" font-weight="bold" fill="#1565c0">上位 5</text>
  <text x="542.5" y="54" text-anchor="middle" font-size="12" font-weight="bold" fill="#c62828">下位 5</text>
  
      <text x="84" y="82" text-anchor="end" font-size="11" class="svg-label">鳥取県</text>
      <rect x="90" y="63" width="195" height="30" fill="#1565c0" rx="2"/>
      <text x="289" y="82" font-size="10" class="svg-label">235施設</text>
    
      <text x="84" y="118" text-anchor="end" font-size="11" class="svg-label">秋田県</text>
      <rect x="90" y="99" width="145.7936170212766" height="30" fill="#1976d2" rx="2"/>
      <text x="239.7936170212766" y="118" font-size="10" class="svg-label">175.7施設</text>
    
      <text x="84" y="154" text-anchor="end" font-size="11" class="svg-label">宮崎県</text>
      <rect x="90" y="135" width="134.50851063829788" height="30" fill="#1e88e5" rx="2"/>
      <text x="228.50851063829788" y="154" font-size="10" class="svg-label">162.1施設</text>
    
      <text x="84" y="190" text-anchor="end" font-size="11" class="svg-label">岩手県</text>
      <rect x="90" y="171" width="132.51702127659573" height="30" fill="#2196f3" rx="2"/>
      <text x="226.51702127659573" y="190" font-size="10" class="svg-label">159.7施設</text>
    
      <text x="84" y="226" text-anchor="end" font-size="11" class="svg-label">島根県</text>
      <rect x="90" y="207" width="131.02340425531915" height="30" fill="#42a5f5" rx="2"/>
      <text x="225.02340425531915" y="226" font-size="10" class="svg-label">157.9施設</text>
    
  
      <text x="399" y="82" text-anchor="end" font-size="11" class="svg-label">東京都</text>
      <rect x="405" y="63" width="15.185106382978724" height="30" fill="#c62828" rx="2"/>
      <text x="424.18510638297874" y="82" font-size="10" class="svg-label">18.3施設</text>
    
      <text x="399" y="118" text-anchor="end" font-size="11" class="svg-label">大阪府</text>
      <rect x="405" y="99" width="17.674468085106383" height="30" fill="#d32f2f" rx="2"/>
      <text x="426.67446808510635" y="118" font-size="10" class="svg-label">21.3施設</text>
    
      <text x="399" y="154" text-anchor="end" font-size="11" class="svg-label">埼玉県</text>
      <rect x="405" y="135" width="19.582978723404256" height="30" fill="#e53935" rx="2"/>
      <text x="428.58297872340427" y="154" font-size="10" class="svg-label">23.6施設</text>
    
      <text x="399" y="190" text-anchor="end" font-size="11" class="svg-label">千葉県</text>
      <rect x="405" y="171" width="22.736170212765956" height="30" fill="#ef5350" rx="2"/>
      <text x="431.73617021276596" y="190" font-size="10" class="svg-label">27.4施設</text>
    
      <text x="399" y="226" text-anchor="end" font-size="11" class="svg-label">愛知県</text>
      <rect x="405" y="207" width="24.146808510638298" height="30" fill="#e57373" rx="2"/>
      <text x="433.1468085106383" y="226" font-size="10" class="svg-label">29.1施設</text>
    
  <text x="340" y="282" text-anchor="middle" font-size="10" class="svg-legend">凡例: 青系=上位 / 赤系=下位</text>
</svg>