<svg width="960" height="624" viewBox="0 0 960 624" xmlns="http://www.w3.org/2000/svg" role="img" aria-label="子育てしやすい都道府県ランキング 総合スコア">
  <title>子育てしやすい都道府県ランキング 総合スコア</title>
  <rect width="960" height="624" fill="#f9fafb"/>
  <text x="480" y="38" text-anchor="middle" font-family="'Noto Sans JP',sans-serif" font-size="20" font-weight="bold" fill="#1f2937">子育てしやすい都道府県ランキング</text>
  <text x="480" y="60" text-anchor="middle" font-family="'Noto Sans JP',sans-serif" font-size="13" fill="#6b7280">7指標パーセンタイル平均（0〜100点）</text>
  <rect x="30" y="80" width="432" height="40" rx="8" fill="#2e7d32"/>
  <text x="246" y="106" text-anchor="middle" font-family="'Noto Sans JP',sans-serif" font-size="15" font-weight="bold" fill="#ffffff">総合スコアが高い（子育てしやすい）</text>
  <rect x="30" y="124" width="432" height="44" rx="6" fill="#e8f5e9"/>
  <circle cx="60" cy="146" r="14" fill="#2e7d32"/>
  <text x="60" y="150.32" text-anchor="middle" font-family="'Noto Sans JP',sans-serif" font-size="12" font-weight="bold" fill="#ffffff">1</text>
  <text x="84" y="150.68" font-family="'Noto Sans JP',sans-serif" font-size="13" font-weight="bold" fill="#1f2937">島根県</text>
  <text x="229.68" y="150.32" text-anchor="end" font-family="'Noto Sans JP',sans-serif" font-size="12" fill="#2e7d32" font-weight="600">77.4</text>
  <rect x="241.68" y="139" width="200.0" height="14" rx="4" fill="#66bb6a" opacity="0.8"/>
  <rect x="30" y="168" width="432" height="44" rx="6" fill="#ffffff"/>
  <circle cx="60" cy="190" r="14" fill="#2e7d32"/>
  <text x="60" y="194.32" text-anchor="middle" font-family="'Noto Sans JP',sans-serif" font-size="12" font-weight="bold" fill="#ffffff">2</text>
  <text x="84" y="194.68" font-family="'Noto Sans JP',sans-serif" font-size="13" font-weight="bold" fill="#1f2937">熊本県</text>
  <text x="229.68" y="194.32" text-anchor="end" font-family="'Noto Sans JP',sans-serif" font-size="12" fill="#2e7d32" font-weight="600">71.7</text>
  <rect x="241.68" y="183" width="185.3" height="14" rx="4" fill="#66bb6a" opacity="0.8"/>
  <rect x="30" y="212" width="432" height="44" rx="6" fill="#e8f5e9"/>
  <circle cx="60" cy="234" r="14" fill="#2e7d32"/>
  <text x="60" y="238.32" text-anchor="middle" font-family="'Noto Sans JP',sans-serif" font-size="12" font-weight="bold" fill="#ffffff">3</text>
  <text x="84" y="238.68" font-family="'Noto Sans JP',sans-serif" font-size="13" font-weight="bold" fill="#1f2937">鹿児島県</text>
  <text x="229.68" y="238.32" text-anchor="end" font-family="'Noto Sans JP',sans-serif" font-size="12" fill="#2e7d32" font-weight="600">71.3</text>
  <rect x="241.68" y="227" width="184.2" height="14" rx="4" fill="#66bb6a" opacity="0.8"/>
  <rect x="30" y="256" width="432" height="44" rx="6" fill="#ffffff"/>
  <circle cx="60" cy="278" r="14" fill="#2e7d32"/>
  <text x="60" y="282.32" text-anchor="middle" font-family="'Noto Sans JP',sans-serif" font-size="12" font-weight="bold" fill="#ffffff">4</text>
  <text x="84" y="282.68" font-family="'Noto Sans JP',sans-serif" font-size="13" font-weight="bold" fill="#1f2937">宮崎県</text>
  <text x="229.68" y="282.32" text-anchor="end" font-family="'Noto Sans JP',sans-serif" font-size="12" fill="#2e7d32" font-weight="600">69.0</text>
  <rect x="241.68" y="271" width="178.3" height="14" rx="4" fill="#66bb6a" opacity="0.8"/>
  <rect x="30" y="300" width="432" height="44" rx="6" fill="#e8f5e9"/>
  <circle cx="60" cy="322" r="14" fill="#2e7d32"/>
  <text x="60" y="326.32" text-anchor="middle" font-family="'Noto Sans JP',sans-serif" font-size="12" font-weight="bold" fill="#ffffff">5</text>
  <text x="84" y="326.68" font-family="'Noto Sans JP',sans-serif" font-size="13" font-weight="bold" fill="#1f2937">長崎県</text>
  <text x="229.68" y="326.32" text-anchor="end" font-family="'Noto Sans JP',sans-serif" font-size="12" fill="#2e7d32" font-weight="600">68.0</text>
  <rect x="241.68" y="315" width="175.7" height="14" rx="4" fill="#66bb6a" opacity="0.8"/>
  <rect x="30" y="344" width="432" height="44" rx="6" fill="#ffffff"/>
  <circle cx="60" cy="366" r="14" fill="#2e7d32"/>
  <text x="60" y="370.32" text-anchor="middle" font-family="'Noto Sans JP',sans-serif" font-size="12" font-weight="bold" fill="#ffffff">6</text>
  <text x="84" y="370.68" font-family="'Noto Sans JP',sans-serif" font-size="13" font-weight="bold" fill="#1f2937">沖縄県</text>
  <text x="229.68" y="370.32" text-anchor="end" font-family="'Noto Sans JP',sans-serif" font-size="12" fill="#2e7d32" font-weight="600">68.0</text>
  <rect x="241.68" y="359" width="175.7" height="14" rx="4" fill="#66bb6a" opacity="0.8"/>
  <rect x="30" y="388" width="432" height="44" rx="6" fill="#e8f5e9"/>
  <circle cx="60" cy="410" r="14" fill="#2e7d32"/>
  <text x="60" y="414.32" text-anchor="middle" font-family="'Noto Sans JP',sans-serif" font-size="12" font-weight="bold" fill="#ffffff">7</text>
  <text x="84" y="414.68" font-family="'Noto Sans JP',sans-serif" font-size="13" font-weight="bold" fill="#1f2937">岡山県</text>
  <text x="229.68" y="414.32" text-anchor="end" font-family="'Noto Sans JP',sans-serif" font-size="12" fill="#2e7d32" font-weight="600">67.1</text>
  <rect x="241.68" y="403" width="173.4" height="14" rx="4" fill="#66bb6a" opacity="0.8"/>
  <rect x="30" y="432" width="432" height="44" rx="6" fill="#ffffff"/>
  <circle cx="60" cy="454" r="14" fill="#2e7d32"/>
  <text x="60" y="458.32" text-anchor="middle" font-family="'Noto Sans JP',sans-serif" font-size="12" font-weight="bold" fill="#ffffff">8</text>
  <text x="84" y="458.68" font-family="'Noto Sans JP',sans-serif" font-size="13" font-weight="bold" fill="#1f2937">高知県</text>
  <text x="229.68" y="458.32" text-anchor="end" font-family="'Noto Sans JP',sans-serif" font-size="12" fill="#2e7d32" font-weight="600">64.3</text>
  <rect x="241.68" y="447" width="166.1" height="14" rx="4" fill="#66bb6a" opacity="0.8"/>
  <rect x="30" y="476" width="432" height="44" rx="6" fill="#e8f5e9"/>
  <circle cx="60" cy="498" r="14" fill="#2e7d32"/>
  <text x="60" y="502.32" text-anchor="middle" font-family="'Noto Sans JP',sans-serif" font-size="12" font-weight="bold" fill="#ffffff">9</text>
  <text x="84" y="502.68" font-family="'Noto Sans JP',sans-serif" font-size="13" font-weight="bold" fill="#1f2937">石川県</text>
  <text x="229.68" y="502.32" text-anchor="end" font-family="'Noto Sans JP',sans-serif" font-size="12" fill="#2e7d32" font-weight="600">62.6</text>
  <rect x="241.68" y="491" width="161.8" height="14" rx="4" fill="#66bb6a" opacity="0.8"/>
  <rect x="30" y="520" width="432" height="44" rx="6" fill="#ffffff"/>
  <circle cx="60" cy="542" r="14" fill="#2e7d32"/>
  <text x="60" y="546.32" text-anchor="middle" font-family="'Noto Sans JP',sans-serif" font-size="12" font-weight="bold" fill="#ffffff">10</text>
  <text x="84" y="546.68" font-family="'Noto Sans JP',sans-serif" font-size="13" font-weight="bold" fill="#1f2937">徳島県</text>
  <text x="229.68" y="546.32" text-anchor="end" font-family="'Noto Sans JP',sans-serif" font-size="12" fill="#2e7d32" font-weight="600">61.9</text>
  <rect x="241.68" y="535" width="159.9" height="14" rx="4" fill="#66bb6a" opacity="0.8"/>
  <rect x="498" y="80" width="432" height="40" rx="8" fill="#b71c1c"/>
  <text x="714" y="106" text-anchor="middle" font-family="'Noto Sans JP',sans-serif" font-size="15" font-weight="bold" fill="#ffffff">総合スコアが低い</text>
  <rect x="498" y="124" width="432" height="44" rx="6" fill="#fef2f2"/>
  <circle cx="528" cy="146" r="14" fill="#b71c1c"/>
  <text x="528" y="150.32" text-anchor="middle" font-family="'Noto Sans JP',sans-serif" font-size="12" font-weight="bold" fill="#ffffff">38</text>
  <text x="552" y="150.68" font-family="'Noto Sans JP',sans-serif" font-size="13" font-weight="bold" fill="#1f2937">奈良県</text>
  <text x="697.68" y="150.32" text-anchor="end" font-family="'Noto Sans JP',sans-serif" font-size="12" fill="#b71c1c" font-weight="600">37.6</text>
  <rect x="709.68" y="139" width="97.2" height="14" rx="4" fill="#ef5350" opacity="0.8"/>
  <rect x="498" y="168" width="432" height="44" rx="6" fill="#ffffff"/>
  <circle cx="528" cy="190" r="14" fill="#b71c1c"/>
  <text x="528" y="194.32" text-anchor="middle" font-family="'Noto Sans JP',sans-serif" font-size="12" font-weight="bold" fill="#ffffff">39</text>
  <text x="552" y="194.68" font-family="'Noto Sans JP',sans-serif" font-size="13" font-weight="bold" fill="#1f2937">大阪府</text>
  <text x="697.68" y="194.32" text-anchor="end" font-family="'Noto Sans JP',sans-serif" font-size="12" fill="#b71c1c" font-weight="600">35.7</text>
  <rect x="709.68" y="183" width="92.2" height="14" rx="4" fill="#ef5350" opacity="0.8"/>
  <rect x="498" y="212" width="432" height="44" rx="6" fill="#fef2f2"/>
  <circle cx="528" cy="234" r="14" fill="#b71c1c"/>
  <text x="528" y="238.32" text-anchor="middle" font-family="'Noto Sans JP',sans-serif" font-size="12" font-weight="bold" fill="#ffffff">40</text>
  <text x="552" y="238.68" font-family="'Noto Sans JP',sans-serif" font-size="13" font-weight="bold" fill="#1f2937">三重県</text>
  <text x="697.68" y="238.32" text-anchor="end" font-family="'Noto Sans JP',sans-serif" font-size="12" fill="#b71c1c" font-weight="600">35.4</text>
  <rect x="709.68" y="227" width="91.5" height="14" rx="4" fill="#ef5350" opacity="0.8"/>
  <rect x="498" y="256" width="432" height="44" rx="6" fill="#ffffff"/>
  <circle cx="528" cy="278" r="14" fill="#b71c1c"/>
  <text x="528" y="282.32" text-anchor="middle" font-family="'Noto Sans JP',sans-serif" font-size="12" font-weight="bold" fill="#ffffff">41</text>
  <text x="552" y="282.68" font-family="'Noto Sans JP',sans-serif" font-size="13" font-weight="bold" fill="#1f2937">茨城県</text>
  <text x="697.68" y="282.32" text-anchor="end" font-family="'Noto Sans JP',sans-serif" font-size="12" fill="#b71c1c" font-weight="600">34.5</text>
  <rect x="709.68" y="271" width="89.1" height="14" rx="4" fill="#ef5350" opacity="0.8"/>
  <rect x="498" y="300" width="432" height="44" rx="6" fill="#fef2f2"/>
  <circle cx="528" cy="322" r="14" fill="#b71c1c"/>
  <text x="528" y="326.32" text-anchor="middle" font-family="'Noto Sans JP',sans-serif" font-size="12" font-weight="bold" fill="#ffffff">42</text>
  <text x="552" y="326.68" font-family="'Noto Sans JP',sans-serif" font-size="13" font-weight="bold" fill="#1f2937">神奈川県</text>
  <text x="697.68" y="326.32" text-anchor="end" font-family="'Noto Sans JP',sans-serif" font-size="12" fill="#b71c1c" font-weight="600">32.9</text>
  <rect x="709.68" y="315" width="85.0" height="14" rx="4" fill="#ef5350" opacity="0.8"/>
  <rect x="498" y="344" width="432" height="44" rx="6" fill="#ffffff"/>
  <circle cx="528" cy="366" r="14" fill="#b71c1c"/>
  <text x="528" y="370.32" text-anchor="middle" font-family="'Noto Sans JP',sans-serif" font-size="12" font-weight="bold" fill="#ffffff">43</text>
  <text x="552" y="370.68" font-family="'Noto Sans JP',sans-serif" font-size="13" font-weight="bold" fill="#1f2937">静岡県</text>
  <text x="697.68" y="370.32" text-anchor="end" font-family="'Noto Sans JP',sans-serif" font-size="12" fill="#b71c1c" font-weight="600">32.7</text>
  <rect x="709.68" y="359" width="84.5" height="14" rx="4" fill="#ef5350" opacity="0.8"/>
  <rect x="498" y="388" width="432" height="44" rx="6" fill="#fef2f2"/>
  <circle cx="528" cy="410" r="14" fill="#b71c1c"/>
  <text x="528" y="414.32" text-anchor="middle" font-family="'Noto Sans JP',sans-serif" font-size="12" font-weight="bold" fill="#ffffff">44</text>
  <text x="552" y="414.68" font-family="'Noto Sans JP',sans-serif" font-size="13" font-weight="bold" fill="#1f2937">埼玉県</text>
  <text x="697.68" y="414.32" text-anchor="end" font-family="'Noto Sans JP',sans-serif" font-size="12" fill="#b71c1c" font-weight="600">24.5</text>
  <rect x="709.68" y="403" width="63.3" height="14" rx="4" fill="#ef5350" opacity="0.8"/>
  <rect x="498" y="432" width="432" height="44" rx="6" fill="#ffffff"/>
  <circle cx="528" cy="454" r="14" fill="#b71c1c"/>
  <text x="528" y="458.32" text-anchor="middle" font-family="'Noto Sans JP',sans-serif" font-size="12" font-weight="bold" fill="#ffffff">45</text>
  <text x="552" y="458.68" font-family="'Noto Sans JP',sans-serif" font-size="13" font-weight="bold" fill="#1f2937">岐阜県</text>
  <text x="697.68" y="458.32" text-anchor="end" font-family="'Noto Sans JP',sans-serif" font-size="12" fill="#b71c1c" font-weight="600">23.0</text>
  <rect x="709.68" y="447" width="59.4" height="14" rx="4" fill="#ef5350" opacity="0.8"/>
  <rect x="498" y="476" width="432" height="44" rx="6" fill="#fef2f2"/>
  <circle cx="528" cy="498" r="14" fill="#b71c1c"/>
  <text x="528" y="502.32" text-anchor="middle" font-family="'Noto Sans JP',sans-serif" font-size="12" font-weight="bold" fill="#ffffff">46</text>
  <text x="552" y="502.68" font-family="'Noto Sans JP',sans-serif" font-size="13" font-weight="bold" fill="#1f2937">千葉県</text>
  <text x="697.68" y="502.32" text-anchor="end" font-family="'Noto Sans JP',sans-serif" font-size="12" fill="#b71c1c" font-weight="600">21.9</text>
  <rect x="709.68" y="491" width="56.6" height="14" rx="4" fill="#ef5350" opacity="0.8"/>
  <rect x="498" y="520" width="432" height="44" rx="6" fill="#ffffff"/>
  <circle cx="528" cy="542" r="14" fill="#b71c1c"/>
  <text x="528" y="546.32" text-anchor="middle" font-family="'Noto Sans JP',sans-serif" font-size="12" font-weight="bold" fill="#ffffff">47</text>
  <text x="552" y="546.68" font-family="'Noto Sans JP',sans-serif" font-size="13" font-weight="bold" fill="#1f2937">愛知県</text>
  <text x="697.68" y="546.32" text-anchor="end" font-family="'Noto Sans JP',sans-serif" font-size="12" fill="#b71c1c" font-weight="600">21.7</text>
  <rect x="709.68" y="535" width="56.1" height="14" rx="4" fill="#ef5350" opacity="0.8"/>
  <text x="480" y="594" text-anchor="middle" font-family="'Noto Sans JP',sans-serif" font-size="11" fill="#6b7280">出典：e-Stat（政府統計の総合窓口）各種統計データ</text>
</svg>